<?xml version="1.0" encoding="utf-8"?>
<!-- Generator: Adobe Illustrator 29.1.0, SVG Export Plug-In . SVG Version: 9.03 Build 55587)  -->
<svg version="1.1" id="Layer_1" xmlns="http://www.w3.org/2000/svg" xmlns:xlink="http://www.w3.org/1999/xlink" x="0px" y="0px"
	 viewBox="0 0 330.785461 125.499657" style="enable-background:new 0 0 330.785461 125.499657;" xml:space="preserve">
<style type="text/css">
	.st0{fill:#FFFEFE;}
	.st1{fill:#ED2B2A;}
	.st2{fill:#3D3D3D;}
	.st3{fill:#797AB9;}
	.st4{fill:#FFFCFC;}
</style>
<g>
	<g>
		<g>
			<path class="st0" d="M109.44207,16.630993c1.831436-1.927903-0.126587-4.156251-2.4963-3.707241
				c-0.238533,0.045197-0.272919,0.534561-0.513283,0.778528c-0.485542,0.49282-0.896927,0.138712-0.922409,1.28393
				c-0.014313,0.643229,0.262863,0.629186,0.774605,0.473166c0.862244-0.262879-0.135338-1.351633,0.45475-1.743599
				c0.888046-0.58989,1.956703,0.015044,2.131447,1.024882c0.181297,1.047757-1.080971,1.923236-1.192612,2.928308
				C107.849564,17.84816,109.273682,16.808247,109.44207,16.630993z M220.513138,14.515941l-1.854355-0.315481
				c0.779022,1.500735-0.657974,3.06388-0.308319,4.730681c1.250275-0.010893,1.02684-1.933332,1.383377-2.846138
				C219.967834,15.485968,220.555466,15.182817,220.513138,14.515941z M222.645416,14.230721l-1.203598-0.030258
				c-0.010986,0.634005,0.651337-0.058949,0.638306,0.779223c-0.025177,1.620715-2.323715,3.728131,0.596878,3.951238
				C221.837128,17.222805,223.45784,15.856606,222.645416,14.230721z M231.951813,15.776536h-6.801086v0.631082h6.801086V15.776536z
				 M288.524445,17.037079l-0.616669-0.629438l-0.000793,0.630232L288.524445,17.037079z M107.522896,17.985323
				c-0.200737,0-0.200737,0.31554,0,0.31554C107.72364,18.300863,107.72364,17.985323,107.522896,17.985323z M18.335964,86.457718
				V50.486046c7.634644-0.745998,13.573481-6.690834,13.929924-14.495823l35.223377-0.019917
				c-0.071609,0.451305,0.081139,2.162415,0.492409,2.226051c0.848427,0.440815,4.552872-1.830257,4.761269-1.594246
				c1.043556,7.700157,6.594414,13.194344,14.204376,13.902027l0.019043,35.954594
				c-0.968002-0.034416-1.892509-0.205917-2.41507,0.783455l1.789925,4.424347c-0.01593,0.432686-2.68486,0.712975-3.39167,0.947594
				c-9.728348,3.229294-13.391418,15.856804-6.803589,23.976959c6.195282,7.636299,17.77494,7.452721,23.492477-0.631706
				c6.268303-8.863197,1.727692-21.150047-8.56662-23.753883c-0.485847-0.122894-1.808624,0.098274-1.937782-0.558723
				c-0.167366-0.851364,1.98069-4.049515,1.400429-4.885605l-2.024887-0.302437l0.018036-35.955383
				c7.556343-0.774868,13.718079-6.612076,13.894478-14.532188h21.330666l-0.00074,2.209877
				c2.343437,0.063847,4.648346-1.506836,6.816803-2.385612c0.019653-0.495022,0.06192-0.867943-0.319702-1.24905
				c-0.284439-0.284046-5.318817-2.356457-5.738319-2.365791c-0.179832-0.004002-0.333122-0.001701-0.460747,0.147289
				l-0.296303,2.066811l-21.331367-0.000721c-0.822968-16.246931-22.791443-19.609694-28.598007-4.735714
				c-0.262184,0.716536-0.804512,3.754887-1.07299,3.95763l-4.945778-1.426044l-0.316322,2.204502L32.26569,34.374565
				c-0.51432-6.454952-4.586758-12.052048-10.827011-13.718693c-21.458593-4.847243-26.43734,27.506359-4.653736,29.836105
				l0.006605,35.966755c-0.989924-0.040756-1.928302-0.200447-2.444516,0.827522
				c0.572311,1.578964,1.532365,3.10981,1.516399,4.850456c-6.221606,0.105011-11.88708,5.702316-12.962761,11.85569
				c-2.866537,16.397873,17.562687,24.937454,26.705917,11.797371c6.049389-8.69381,1.322357-21.041687-8.709766-23.584091
				c-0.847738-0.214836-2.115473,0.280426-1.891947-1.103455c0.233097-1.443138,1.614868-2.92701,1.186995-4.64521
				L18.335964,86.457718z M134.231537,36.254944c0.961746-1.702061-0.727615-3.036564-1.990051-1.546661l0.199188,1.546661
				H134.231537z M141.341766,36.254944c0.961731-1.702061-0.727615-3.036564-1.990051-1.546661l0.199173,1.546661H141.341766z
				 M147.138657,34.121391c-1.276688,0.385094-1.213028,2.745018,0.850449,2.13282
				C148.844803,36.000343,148.838608,33.608635,147.138657,34.121391z M155.561722,36.254402l0.199661-1.546116
				C154.604568,32.376396,151.142807,36.812248,155.561722,36.254402z M238.134613,89.928673l-0.30925-1.735847l-0.155991-4.576546
				l-1.389038,0.791267l0.63208,0.343399c-0.026474,1.146233-0.004669,2.294876-0.014267,3.441864
				c-0.004395,0.524582,0.218735,1.440636-0.309235,1.735863c-0.514633-0.077362-1.490143-0.264908-1.235748,0.630257
				l3.553726,0.001633l-0.001953-0.632698C238.655792,89.961212,238.369522,89.885475,238.134613,89.928673z M235.969833,84.566109
				h-0.616684v0.312271h0.616684V84.566109z M221.750183,86.773262c-0.79425,0.125587-0.524033-1.067123-1.85405-0.629448
				c-0.016388,0.640526,0.701172-0.061737,0.625076,0.773384c-0.056168,0.616371-1.231766,3.342148-0.934204,3.641739
				l0.942795-0.184898C220.831909,88.995789,221.119888,88.000046,221.750183,86.773262
				c0.409149-0.06469,0.946136-0.527657,1.544922-0.314751c0.359238,1.121719-0.866882,2.644096-0.596954,3.596069
				c0.240601,0.848541,2.360291,0.751701,2.141861-0.441429l-1.233383,0.631065
				c-0.465668-0.565308,2.068344-4.306503-0.459671-4.437813C221.741486,85.733398,222.130844,86.032379,221.750183,86.773262z
				 M233.18837,87.719887h-6.491943v0.315536h6.491943V87.719887z"/>
			<path class="st1" d="M324.693848,36.917782c-0.84552,0.355576-3.550598,1.953011-4.190125,0.963562l-0.136841-1.911415
				l-35.236572,0.007294c-0.313568,7.671284-6.358795,13.753555-13.899872,14.526978l-0.018829,35.954563l1.837921,0.015785
				c0.720856,0.681831-1.146942,4.3937-1.527496,5.345505c10.103394,1.149117,16.282227,11.272377,12.424103,21.045349
				c-4.781952,12.11319-21.706451,12.428642-27.083588,0.703369c-4.448425-9.552689,1.932861-20.775871,12.187164-21.748932
				l-1.847687-4.868568l0.493225-0.454529l1.663727-0.03801l-0.030792-35.94178
				c-7.309143-0.79607-13.171021-6.44059-13.882797-13.915203c-1.821335,0.383198-3.31749,1.883343-5.255005,1.579456
				l-0.290649-2.070408l-34.92041-0.109478c-0.429245,0.829552-0.23967,1.740746-0.413147,2.576527
				c-1.369965,6.522404-7.233658,11.505215-13.831726,11.914539l-0.007004,35.966347
				c3.998398-0.58799,1.403107,3.217178,0.627335,5.208473c0.219696,0.301262,0.382462,0.424896,0.758896,0.476547
				c15.784668,2.166077,17.084778,24.710518,2.702927,29.251808c-21.567978,5.847427-27.808746-26.274269-5.943069-29.575508
				c-0.610657-2.026367-3.662399-5.689758,0.310837-5.361816l-0.019989-35.953312
				c-7.228088-0.660374-13.337692-6.419968-13.893524-13.901913c-0.244476-0.263271-4.334091,2.156818-5.255295,1.578217
				c0.045792-0.481232,0.095825-2.210068-0.463013-2.210068h-22.412659l0.292419-1.437012l22.584946-0.139465
				c0.017456-0.605137-0.219788-2.006729,0.490845-2.197575l4.762909,1.566135
				c1.979187-18.200527,27.89888-18.0989,29.40506,0.120041l0.255295,0.37051l35.260712,0.140888
				c-0.000305-0.734379-0.261368-2.237045,0.75705-2.2141c0.669144,0.015072,4.281326,1.863819,4.496277,1.582592
				c2.499146-18.525957,28.099396-17.95108,29.684723,0.624382l35.236755,0.00713
				c-0.390137-4.054064,2.195435-1.308922,4.326965-0.947857V36.917782z M197.858688,21.840055
				c-7.425308,1.255459-12.262482,9.00573-10.652008,16.415819c2.370163,10.905544,16.20253,14.140644,23.104126,5.444824
				C217.937515,34.091274,209.611801,19.852856,197.858688,21.840055z M260.790039,44.716297
				c10.085327,10.318485,26.950989-0.813782,21.7052-14.423876c-3.35141-8.695196-13.887054-11.313133-20.873871-5.215498
				C256.033417,29.953697,255.578644,39.384438,260.790039,44.716297z M198.800339,93.483452
				c-4.46843,0.447426-8.989487,3.692543-10.804947,7.902733c-6.000748,13.916183,11.411392,25.996796,21.696976,14.888771
				C218.040573,107.259224,210.735641,92.288361,198.800339,93.483452z M268.973755,93.482018
				c-11.543274,1.407616-16.227844,16.136017-7.189117,23.897911c11.360626,9.755836,27.548248-4.179871,19.692108-17.575516
				C279.082245,95.721489,273.607391,92.916985,268.973755,93.482018z"/>
			<path class="st1" d="M18.335964,86.457718l1.855904-0.000702c0.427874,1.718201-0.953897,3.202072-1.186995,4.64521
				c-0.223526,1.383881,1.044209,0.888618,1.891947,1.103455c10.032124,2.542404,14.759155,14.890282,8.709766,23.584091
				c-9.143229,13.140083-29.572453,4.600502-26.705917-11.797371c1.075681-6.153374,6.741155-11.750679,12.962761-11.85569
				c0.015965-1.740646-0.944088-3.271492-1.516399-4.850456c0.516214-1.027969,1.454592-0.868279,2.444516-0.827522
				l-0.006605-35.966755c-21.792631-2.33643-16.794823-34.685623,4.653919-29.836191
				c6.24007,1.666731,10.312508,7.263826,10.826828,13.718779l35.223591,0.019772l0.316322-2.204502l4.945778,1.426044
				c0.268478-0.202744,0.810806-3.241095,1.072998-3.957829c5.807579-14.878602,27.780266-11.503748,28.598,4.735912
				l21.331367,0.000721l0.296303-2.066811c0.127625-0.148991,0.280914-0.151291,0.460747-0.147289
				c0.419502,0.009335,5.45388,2.081745,5.738319,2.365791c0.381622,0.381107,0.339355,0.754028,0.319702,1.24905
				c-2.168457,0.878777-4.473366,2.449459-6.816803,2.385612l0.00074-2.209877h-21.330666
				c-0.176399,7.920113-6.338135,13.75732-13.894478,14.532188l-0.018036,35.955383l2.024887,0.302437
				c0.580261,0.83609-1.567795,4.034241-1.400429,4.885605c0.129158,0.656998,1.451935,0.435829,1.937782,0.558723
				c10.294312,2.603836,14.834923,14.890686,8.56662,23.753883c-5.717537,8.084427-17.297195,8.268005-23.492477,0.631706
				c-6.58783-8.120155-2.924759-20.747665,6.803589-23.976959c0.70681-0.234619,3.37574-0.514908,3.39167-0.947594
				l-1.789925-4.424347c0.52256-0.989372,1.447067-0.817871,2.41507-0.783455l-0.019043-35.954594
				c-7.609962-0.707684-13.16082-6.20187-14.204376-13.902027c-0.208397-0.236012-3.912842,2.035061-4.761269,1.594246
				c-0.41127-0.063637-0.564018-1.774746-0.492409-2.226051l-35.223377,0.019917
				c-0.354795,7.804104-6.298878,13.751862-13.929924,14.495823V86.457718z M15.156849,21.840055
				c-8.415441,1.422836-13.1663,11.071962-9.726082,18.941671c5.086112,11.634796,21.83988,9.96529,24.823874-2.269112
				C32.518223,29.231915,24.462519,20.266703,15.156849,21.840055z M85.331673,21.840059
				c-3.046776,0.515537-7.051163,3.2806-8.7052,5.94499c-6.801918,10.956806,3.688316,24.63821,15.679466,20.106144
				C107.17131,42.272808,100.942856,19.19853,85.331673,21.840059z M26.901909,116.657829
				c5.819363-5.918739,4.610844-16.270744-2.087086-20.878296c-9.916488-6.821617-22.685089,2.349571-20.324886,14.11937
				C6.567105,120.257278,19.551455,124.133804,26.901909,116.657829z M86.581047,93.482025
				c-13.738556,1.671867-16.70311,20.338287-4.025101,26.032585c9.177773,4.122169,19.299751-3.91288,18.296219-13.941788
				C100.158722,98.642807,93.466751,92.644096,86.581047,93.482025z"/>
			<path class="st1" d="M155.561722,36.254402c-4.418915,0.557846-0.957153-3.878006,0.199661-1.546116L155.561722,36.254402z"/>
			<path class="st1" d="M134.231537,36.254944h-1.790863l-0.199188-1.546661
				C133.503922,33.21838,135.193283,34.552883,134.231537,36.254944z"/>
			<path class="st1" d="M141.341766,36.254944h-1.790878l-0.199173-1.546661
				C140.614151,33.21838,142.303497,34.552883,141.341766,36.254944z"/>
			<path class="st1" d="M147.138657,34.121391c1.699951-0.512756,1.706146,1.878952,0.850449,2.13282
				C145.925629,36.866409,145.861969,34.506485,147.138657,34.121391z"/>
			<path class="st2" d="M107.522896,17.985323c0.200745,0,0.200745,0.31554,0,0.31554
				C107.322159,18.300863,107.322159,17.985323,107.522896,17.985323z"/>
			<path class="st3" d="M268.973755,93.482018c4.633636-0.565033,10.10849,2.239471,12.502991,6.322395
				c7.85614,13.395645-8.331482,27.331352-19.692108,17.575516C252.745911,109.618034,257.430481,94.889633,268.973755,93.482018z"
				/>
			<path class="st3" d="M198.800339,93.483452c11.935303-1.195091,19.240234,13.775772,10.892029,22.791504
				c-10.285583,11.108025-27.697723-0.972588-21.696976-14.888771C189.810852,97.175995,194.331909,93.930878,198.800339,93.483452z
				"/>
			<path class="st4" d="M197.858688,21.840055c11.753113-1.9872,20.078827,12.251219,12.452118,21.860643
				c-6.901596,8.69582-20.733963,5.46072-23.104126-5.444824C185.596207,30.845785,190.43338,23.095514,197.858688,21.840055z"/>
			<path class="st4" d="M260.790039,44.716297c-5.211395-5.33186-4.756622-14.7626,0.831329-19.639374
				c6.986816-6.097635,17.522461-3.479698,20.873871,5.215498C287.741028,43.902515,270.875366,55.034782,260.790039,44.716297z"/>
			<path class="st3" d="M26.901909,116.657829c-7.350454,7.475975-20.334805,3.599449-22.411972-6.758926
				c-2.360203-11.769798,10.408399-20.940987,20.324886-14.11937C31.512753,100.387085,32.721272,110.73909,26.901909,116.657829z"
				/>
			<path class="st3" d="M86.581047,93.482025c6.885704-0.837929,13.577675,5.160782,14.271118,12.090797
				c1.003532,10.028908-9.118446,18.063957-18.296219,13.941788C69.877937,113.820312,72.842491,95.153893,86.581047,93.482025z"/>
			<path class="st4" d="M15.156849,21.840055c9.30567-1.573353,17.361374,7.391859,15.097792,16.67256
				c-2.983994,12.234402-19.737762,13.903908-24.823874,2.269112C1.990549,32.912018,6.741408,23.262892,15.156849,21.840055z"/>
			<path class="st4" d="M85.331673,21.840059c15.611183-2.641529,21.839638,20.432749,6.974266,26.051134
				c-11.99115,4.532066-22.481384-9.149338-15.679466-20.106144C78.28051,25.120659,82.284897,22.355597,85.331673,21.840059z"/>
		</g>
	</g>
	<path d="M48.301464,78.708038c-1.406559-6.083916-11.400661-5.695412-12.720623,0.263771
		c-1.324104,4.830658,0.040737,11.28212,6.199249,10.980202C47.980019,90.201157,49.639114,83.639969,48.301464,78.708038
		L48.301464,78.708038z M46.338757,84.444366c-0.502026,3.219353-3.879547,4.599792-6.677036,3.310455
		c-3.003201-1.5448-2.926056-7.327553-1.346127-9.884666c1.117432-1.853706,4.012074-2.257698,5.846275-1.347626
		C46.854355,77.974266,46.788872,81.782127,46.338757,84.444366L46.338757,84.444366z"/>
	<path d="M57.031612,94.837723c-0.026749-0.151115-0.100075-0.300903-0.261066-0.303925c0.000004,0-1.82354,0-1.82354,0v-8.860611
		c-0.002621-0.075294-0.033947-0.129692-0.116898-0.159744c-0.314636-0.076233-0.794468-0.112053-1.09882,0.035019
		c0.000004,0.000046-2.322292,1.488495-2.322292,1.488495c-0.046768,0.031174-0.084503,0.062347-0.113007,0.093521
		c-0.159035,0.193184-0.11417,0.5597-0.093525,0.787094c0.035686,0.274994,0.251575,0.226913,0.455906,0.109085
		c0,0.000015,1.948242-1.161133,1.948242-1.161133v7.668274h-2.104111c-0.041641,0-0.079269,0.011688-0.112991,0.035065
		c-0.236435,0.206223-0.270958,0.981995,0.112942,1.040375c0.00005-0.000015,5.268097-0.000015,5.268097-0.000015
		C57.098831,95.575485,57.063457,95.083038,57.031612,94.837723L57.031612,94.837723z"/>
	<path d="M118.311279,78.248047c-1.406563-6.083916-11.400665-5.695412-12.720627,0.263771
		c-1.324104,4.830658,0.040741,11.28212,6.199249,10.980202C117.98983,89.741165,119.648926,83.179977,118.311279,78.248047
		L118.311279,78.248047z M116.348572,83.984375c-0.502029,3.219353-3.879547,4.599792-6.67704,3.310455
		c-3.003197-1.5448-2.926056-7.327553-1.346123-9.884666c1.117424-1.853706,4.01207-2.257698,5.846275-1.347626
		C116.864166,77.514275,116.798683,81.322136,116.348572,83.984375L116.348572,83.984375z"/>
	<path d="M127.018021,94.327057c-0.026588-0.15831-0.120605-0.311974-0.284431-0.315636
		c0.000008,0.000008-4.387444,0.000008-4.387444,0.000008c1.227722-1.327736,3.034889-2.959808,3.78347-4.477051
		c1.104057-2.100876,0.190674-4.745804-2.46656-4.617256c-0.93322,0.019485-2.031822,0.309753-2.665123,0.958397
		c-0.125488,0.287437-0.145256,0.787491,0.046844,1.036522c0.134819,0.073303,0.212059,0.008484,0.394081-0.101303
		c0.336685-0.221161,0.736053-0.43364,1.174072-0.576683c2.20153-0.693565,3.202408,1.215553,2.219711,3.086052
		c-0.674095,1.430748-2.663437,3.184174-3.786217,4.395226c-0.378006,0.309105-0.563728,1.448212,0.122955,1.433891
		c0.000038-0.000023,5.571999-0.000023,5.571999-0.000023C127.097816,95.120094,127.044418,94.58567,127.018021,94.327057
		L127.018021,94.327057z"/>
	<path d="M231.42128,78.248047c-1.40657-6.083916-11.400665-5.695412-12.720627,0.263771
		c-1.324097,4.830658,0.040741,11.28212,6.199249,10.980202C231.099823,89.741165,232.758926,83.179977,231.42128,78.248047
		L231.42128,78.248047z M229.458572,83.984375c-0.502029,3.219353-3.879547,4.599792-6.677032,3.310455
		c-3.003204-1.5448-2.926056-7.327553-1.34613-9.884666c1.117432-1.853706,4.01207-2.257698,5.846268-1.347626
		C229.974167,77.514275,229.908691,81.322136,229.458572,83.984375L229.458572,83.984375z"/>
	<path d="M240.021729,85.380722c-0.019089-0.158203-0.083328-0.314384-0.249374-0.315613c0,0-7.013672,0-7.013672,0
		c-0.17038,0.00045-0.219086,0.158501-0.245483,0.315613c-0.0242,0.240334-0.063873,0.621613,0.132446,0.790993
		c0.033768,0.020821,0.071396,0.031166,0.113037,0.031166h2.836639v8.743713c0.036621,0.285149,0.426865,0.223755,0.670166,0.24939
		c0.249069-0.024567,0.630417,0.035744,0.670258-0.249359c-0.000031-0.000031-0.000031-8.743744-0.000031-8.743744h2.836639
		C240.119827,86.162544,240.031525,85.634239,240.021729,85.380722L240.021729,85.380722z M244.499146,90.964386
		c-0.026123-0.150253-0.091827-0.288345-0.253281-0.280548c0.000015,0-3.257446,0-3.257446,0
		c-0.395935-0.032768-0.388885,1.098175-0.000046,1.067642c0.000046,0,3.257507,0,3.257507,0
		C244.577545,91.740929,244.527206,91.233253,244.499146,90.964386L244.499146,90.964386z"/>
	<path d="M252.301407,94.377701c-0.026703-0.151115-0.100067-0.300896-0.261047-0.303925c0,0-1.823547,0-1.823547,0v-8.860611
		c-0.002625-0.075302-0.033936-0.129692-0.116882-0.159744c-0.314667-0.076225-0.794479-0.112061-1.098816,0.035019
		c0,0.000046-2.322311,1.488495-2.322311,1.488495c-0.046768,0.031174-0.084503,0.062347-0.113007,0.093521
		c-0.159042,0.193184-0.114166,0.5597-0.093536,0.787094c0.03569,0.274994,0.251587,0.226913,0.455917,0.109085
		c0,0.000015,1.948242-1.161133,1.948242-1.161133v7.668274h-2.104111c-0.372574,0.045494-0.360809,0.876724-0.101349,1.048141
		c0.031219,0.01828,0.064941,0.027283,0.101349,0.027283h5.268051C252.368622,95.115471,252.333298,94.623001,252.301407,94.377701
		L252.301407,94.377701z"/>
	<path d="M301.10556,78.407013c-1.40799-6.089973-11.412018-5.701118-12.733337,0.26403
		c-1.325409,4.83548,0.040771,11.293427,6.205444,10.991173C300.783813,89.911629,302.44455,83.343887,301.10556,78.407013
		L301.10556,78.407013z M299.140869,84.149078c-0.502441,3.222572-3.883423,4.604408-6.683685,3.313766
		c-3.006226-1.546349-2.928955-7.334877-1.347473-9.894554c1.11853-1.855553,4.016083-2.259956,5.852112-1.348969
		C299.657013,77.672501,299.591461,81.484184,299.140869,84.149078L299.140869,84.149078z"/>
	<path d="M309.673157,85.536041c-0.019073-0.158424-0.083435-0.314857-0.249725-0.316086c0,0-7.024231,0-7.024231,0
		c-0.170624,0.000458-0.219391,0.158752-0.245789,0.316086c-0.024292,0.240685-0.063995,0.622566,0.132629,0.792183
		c0.033783,0.020851,0.071442,0.031212,0.113159,0.031212h2.840912v8.756866c0.036682,0.285568,0.427551,0.224098,0.671204,0.249756
		c0.249451-0.02459,0.631409,0.035789,0.671234-0.249725c-0.000031-0.000031-0.000031-8.756897-0.000031-8.756897h2.840912
		C309.771423,86.319038,309.683014,85.789932,309.673157,85.536041L309.673157,85.536041z"/>
	<path d="M43.618206,12.955351c-1.114498-2.664321-4.728359-2.562295-6.316944-4.697936
		c-1.202835-2.355674,1.322773-3.754079,3.41954-3.032332c0.757999,0.17474,1.38448,0.707609,2.023457,0.909086
		c0.127163-0.001354,0.206501-0.088355,0.246368-0.217113c0.094906-0.422816,0.12302-1.016346-0.03516-1.419378
		c-0.269093-0.392881-0.901176-0.615301-1.41354-0.797684c-2.741482-0.996758-6.714542,0.257644-6.586609,3.654182
		c-0.083839,2.169115,1.640488,3.490609,3.425285,4.263883c1.396717,0.697527,3.41964,1.267122,3.425266,3.126174
		c0.100586,2.319904-2.729027,2.9279-4.48698,2.328421c-0.911407-0.202711-1.616924-0.808464-2.363586-1.073364
		c-0.413895,0.03137-0.351738,0.545971-0.375454,0.891615c-0.094044,1.416594,1.641354,1.672733,2.762508,1.982553
		C41.108902,19.723093,45.110302,17.052853,43.618206,12.955351L43.618206,12.955351z"/>
	<path d="M52.002438,23.886839c-0.026775-0.151333-0.100235-0.301363-0.261463-0.304384
		c0.000004,0.000002-1.82629,0.000002-1.82629,0.000002v-8.873932c-0.002609-0.07543-0.033981-0.129886-0.117065-0.159986
		c-0.315098-0.076339-0.795662-0.112204-1.100468,0.035066c0.000004,0.000043-2.325787,1.49075-2.325787,1.49075
		c-0.046829,0.031219-0.084641,0.062439-0.113174,0.093658c-0.159298,0.193468-0.114342,0.560532-0.093678,0.788267
		c0.035763,0.275404,0.251957,0.227264,0.456593,0.109253c0,0.000017,1.951172-1.162886,1.951172-1.162886v7.67981h-2.107269
		c-0.373135,0.045567-0.361343,0.878042-0.101498,1.049719c0.031261,0.018305,0.065044,0.027323,0.101498,0.027323h5.27597
		C52.069756,24.625698,52.034328,24.132538,52.002438,23.886839L52.002438,23.886839z"/>
	<path d="M114.45816,12.821165c-1.113365-2.661674-4.723671-2.559731-6.310631-4.693268
		c-1.201637-2.353336,1.321457-3.750267,3.416122-3.02928c0.757233,0.174553,1.383087,0.706911,2.021431,0.90817
		c0.127037-0.001337,0.206299-0.088257,0.246117-0.216869c0.094826-0.422379,0.12291-1.015326-0.03511-1.417974
		c-0.268845-0.392487-0.900276-0.614722-1.41214-0.79689c-2.738739-0.995773-6.707809,0.257393-6.580025,3.65052
		c-0.083748,2.166935,1.638847,3.487139,3.421867,4.259611c1.395287,0.696876,3.416222,1.26585,3.421844,3.123061
		c0.100479,2.317575-2.726303,2.92498-4.482491,2.326086c-0.910515-0.202499-1.615311-0.807667-2.361237-1.072281
		c-0.413483,0.031339-0.351395,0.545424-0.375076,0.890715c-0.093948,1.41518,1.639717,1.671066,2.759743,1.980585
		C111.951317,19.582157,115.948792,16.914532,114.45816,12.821165L114.45816,12.821165z"/>
	<path d="M122.818039,23.69734c-0.026588-0.158316-0.120613-0.31197-0.284447-0.31563
		c0.000008,0.000002-4.387444,0.000002-4.387444,0.000002c1.227722-1.327738,3.034904-2.959814,3.783485-4.477049
		c1.104065-2.10088,0.190659-4.745806-2.466576-4.617258c-0.933228,0.019482-2.031799,0.309766-2.665123,0.958402
		c-0.125481,0.287437-0.145233,0.787471,0.046844,1.036515c0.134834,0.073309,0.212082,0.00849,0.394096-0.101297
		c0.33667-0.221161,0.736061-0.433643,1.174072-0.576681c2.201523-0.693565,3.202415,1.215553,2.219696,3.086048
		c-0.674065,1.430756-2.663437,3.184181-3.786217,4.395226c-0.377991,0.309101-0.563728,1.448212,0.122955,1.433889
		c0.000038-0.000023,5.571999-0.000023,5.571999-0.000023C122.897835,24.490391,122.844414,23.955959,122.818039,23.69734
		L122.818039,23.69734z"/>
	<path d="M227.618164,12.821165c-1.113358-2.661674-4.723663-2.559731-6.310623-4.693268
		c-1.201645-2.353336,1.321457-3.750267,3.416107-3.02928c0.757233,0.174553,1.383102,0.706911,2.021439,0.90817
		c0.127029-0.001337,0.206299-0.088257,0.246124-0.216869c0.094818-0.422379,0.122894-1.015326-0.03511-1.417974
		c-0.268845-0.392487-0.900284-0.614722-1.41214-0.79689c-2.738754-0.995773-6.707825,0.257393-6.580032,3.65052
		c-0.08374,2.166935,1.638855,3.487139,3.42186,4.259611c1.395294,0.696876,3.416229,1.26585,3.421844,3.123061
		c0.100479,2.317575-2.726288,2.92498-4.482483,2.326086c-0.910507-0.202499-1.615311-0.807667-2.361237-1.072281
		c-0.413483,0.031339-0.351395,0.545424-0.375076,0.890715c-0.093948,1.41518,1.639725,1.671066,2.75975,1.980585
		C225.111313,19.582157,229.108795,16.914532,227.618164,12.821165L227.618164,12.821165z"/>
	<path d="M236.321732,14.751005c-0.019089-0.158199-0.083328-0.314384-0.249374-0.315615
		c0,0.000002-7.013672,0.000002-7.013672,0.000002c-0.17038,0.000448-0.219086,0.1585-0.245483,0.315612
		c-0.0242,0.240336-0.063873,0.621614,0.132446,0.790995c0.033768,0.02082,0.071396,0.031165,0.113037,0.031165h2.836639v8.743713
		c0.036621,0.285147,0.426865,0.223755,0.670166,0.249392c0.249069-0.024567,0.630417,0.035744,0.670258-0.249355
		c-0.000031-0.000036-0.000031-8.74375-0.000031-8.74375h2.836639C236.41983,15.532825,236.331528,15.004522,236.321732,14.751005
		L236.321732,14.751005z M240.799149,20.334669c-0.026123-0.150255-0.091827-0.288342-0.253281-0.280542
		c0.000015-0.000006-3.257446-0.000006-3.257446-0.000006c-0.395935-0.032763-0.388885,1.098175-0.000046,1.067642
		c0.000046,0,3.257507,0,3.257507,0C240.877548,21.111216,240.827209,20.603537,240.799149,20.334669L240.799149,20.334669z"/>
	<path d="M248.60144,23.747984c-0.026749-0.15111-0.100082-0.300903-0.261063-0.303926
		c0,0.000002-1.823547,0.000002-1.823547,0.000002v-8.860611c-0.002625-0.075294-0.033951-0.129693-0.116898-0.159742
		c-0.314636-0.076232-0.794479-0.112049-1.098816,0.03502c0,0.000043-2.322296,1.488492-2.322296,1.488492
		c-0.046768,0.031174-0.084503,0.062347-0.113007,0.093521c-0.159042,0.193188-0.114166,0.559702-0.093536,0.787092
		c0.03569,0.274996,0.251587,0.226917,0.455917,0.109085c0,0.000017,1.948242-1.161131,1.948242-1.161131v7.668274h-2.104111
		c-0.041641,0-0.079269,0.011688-0.112991,0.035065c-0.236435,0.206224-0.270966,0.982,0.112946,1.040375
		c0.000046-0.000015,5.268097-0.000015,5.268097-0.000015C248.668655,24.485746,248.633286,23.993299,248.60144,23.747984
		L248.60144,23.747984z"/>
	<path d="M297.148132,13.611143c-1.113342-2.661674-4.723663-2.559731-6.310608-4.693268
		c-1.20163-2.353336,1.321442-3.750267,3.416107-3.02928c0.757233,0.174553,1.383087,0.706911,2.021423,0.90817
		c0.127045-0.001337,0.206299-0.088257,0.246124-0.216869c0.094818-0.422379,0.122925-1.015326-0.035095-1.417974
		c-0.26886-0.392488-0.900269-0.614722-1.41214-0.79689c-2.738739-0.995773-6.707825,0.257393-6.580048,3.65052
		c-0.08374,2.166935,1.638855,3.487139,3.421875,4.25961c1.395294,0.696877,3.416229,1.265856,3.421844,3.123076
		c0.100494,2.317575-2.726288,2.92498-4.482483,2.326086c-0.910522-0.202499-1.615295-0.807667-2.361237-1.072281
		c-0.413483,0.031338-0.351379,0.545424-0.375061,0.890715c-0.093964,1.41518,1.639709,1.671066,2.759735,1.980585
		C294.641327,20.372152,298.638763,17.704514,297.148132,13.611143L297.148132,13.611143z"/>
	<path d="M305.851715,15.541014c-0.019073-0.158193-0.083313-0.314379-0.249359-0.315615
		c0,0.000002-7.013672,0.000002-7.013672,0.000002c-0.170349,0.000427-0.219116,0.158505-0.245453,0.315612
		c-0.024292,0.240339-0.063873,0.621573,0.132416,0.790994c0.033752,0.020821,0.071381,0.031166,0.113037,0.031166h2.836609
		v8.743713c0.036682,0.285149,0.42688,0.223753,0.670227,0.249392c0.249023-0.024565,0.630402,0.03574,0.670197-0.249355
		c-0.000031-0.000036-0.000031-8.74375-0.000031-8.74375h2.83667C305.949829,16.322817,305.861542,15.794526,305.851715,15.541014
		L305.851715,15.541014z"/>
</g>
</svg>
