<?xml version="1.0" encoding="utf-8"?>
<!-- Generator: Adobe Illustrator 29.1.0, SVG Export Plug-In . SVG Version: 9.03 Build 55587)  -->
<svg version="1.1" id="Layer_1" xmlns="http://www.w3.org/2000/svg" xmlns:xlink="http://www.w3.org/1999/xlink" x="0px" y="0px"
	 viewBox="0 0 151 272" style="enable-background:new 0 0 151 272;" xml:space="preserve">
<style type="text/css">
	.st0{fill-rule:evenodd;clip-rule:evenodd;fill:#4F81BD;}
	.st1{fill:none;stroke:#000000;stroke-width:0.749618;stroke-linejoin:round;stroke-miterlimit:10;}
	.st2{fill:none;stroke:#0000FF;stroke-width:0.99949;stroke-linejoin:round;stroke-miterlimit:10;}
	.st3{fill:none;stroke:#800000;stroke-width:0.99949;stroke-linejoin:round;stroke-miterlimit:10;}
</style>
<path class="st0" d="M57,16.624908L57,16.624908c0-1.657013,1.343002-3,3-3s3,1.342987,3,3s-1.343002,3-3,3
	S57,18.281921,57,16.624908z"/>
<path class="st1" d="M56.902084,16.541504L56.902084,16.541504c0-1.656006,1.342468-2.998474,2.998474-2.998474
	s2.998459,1.342468,2.998459,2.998474s-1.342453,2.998474-2.998459,2.998474S56.902084,18.19751,56.902084,16.541504z"/>
<path class="st0" d="M21,58.624908L21,58.624908c0-1.657013,1.343002-3,3-3s3,1.342987,3,3s-1.343002,3-3,3
	S21,60.281921,21,58.624908z"/>
<path class="st1" d="M20.920441,58.520081L20.920441,58.520081c0-1.656006,1.342468-2.998474,2.998474-2.998474
	s2.998459,1.342468,2.998459,2.998474s-1.342453,2.998474-2.998459,2.998474S20.920441,60.176086,20.920441,58.520081z"/>
<path class="st0" d="M99,58.624908L99,58.624908c0-1.657013,1.342987-3,3-3s3,1.342987,3,3s-1.342987,3-3,3
	S99,60.281921,99,58.624908z"/>
<path class="st1" d="M98.880646,58.520081L98.880646,58.520081c0-1.656006,1.342468-2.998474,2.998474-2.998474
	s2.998474,1.342468,2.998474,2.998474s-1.342468,2.998474-2.998474,2.998474S98.880646,60.176086,98.880646,58.520081z"/>
<path class="st0" d="M57,88.624908L57,88.624908c0-1.657013,1.343002-3,3-3s3,1.342987,3,3s-1.343002,3-3,3
	S57,90.281921,57,88.624908z"/>
<path class="st1" d="M56.902084,88.504791L56.902084,88.504791c0-1.656006,1.342468-2.998474,2.998474-2.998474
	s2.998459,1.342468,2.998459,2.998474s-1.342453,2.998474-2.998459,2.998474S56.902084,90.160797,56.902084,88.504791z"/>
<path class="st0" d="M27,154.624908L27,154.624908c0-1.657013,1.343002-3,3-3s3,1.342987,3,3s-1.343002,3-3,3
	S27,156.281921,27,154.624908z"/>
<path class="st1" d="M26.917374,154.47113L26.917374,154.47113c0-1.656006,1.342468-2.998474,2.998474-2.998474
	s2.998459,1.342468,2.998459,2.998474s-1.342453,2.998474-2.998459,2.998474S26.917374,156.127136,26.917374,154.47113z"/>
<path class="st0" d="M111,142.624908L111,142.624908c0-1.657013,1.342987-3,3-3s3,1.342987,3,3s-1.342987,3-3,3
	S111,144.281921,111,142.624908z"/>
<path class="st1" d="M110.874542,142.477264L110.874542,142.477264c0-1.656006,1.342468-2.998474,2.998474-2.998474
	s2.998474,1.342468,2.998474,2.998474s-1.342468,2.998474-2.998474,2.998474S110.874542,144.13327,110.874542,142.477264z"/>
<path class="st0" d="M63,154.624908L63,154.624908c0-1.657013,1.343002-3,3-3s3,1.342987,3,3s-1.343002,3-3,3
	S63,156.281921,63,154.624908z"/>
<path class="st1" d="M62.899017,154.47113L62.899017,154.47113c0-1.656006,1.342468-2.998474,2.998474-2.998474
	s2.998459,1.342468,2.998459,2.998474s-1.342453,2.998474-2.998459,2.998474S62.899017,156.127136,62.899017,154.47113z"/>
<path class="st0" d="M9,118.624908L9,118.624908c0-1.657013,1.343002-3,3-3s3,1.342987,3,3s-1.343002,3-3,3
	S9,120.281921,9,118.624908z"/>
<path class="st1" d="M8.926559,118.489502L8.926559,118.489502c0-1.656006,1.342468-2.998474,2.998474-2.998474
	s2.998459,1.342468,2.998459,2.998474s-1.342453,2.998474-2.998459,2.998474S8.926559,120.145508,8.926559,118.489502z"/>
<path class="st0" d="M117,124.624908L117,124.624908c0-1.657013,1.342987-3,3-3s3,1.342987,3,3s-1.342987,3-3,3
	S117,126.281921,117,124.624908z"/>
<path class="st1" d="M116.87149,124.48642L116.87149,124.48642c0-1.656006,1.342468-2.998474,2.998474-2.998474
	s2.998474,1.342468,2.998474,2.998474s-1.342468,2.998474-2.998474,2.998474S116.87149,126.142426,116.87149,124.48642z"/>
<path class="st0" d="M99,208.624893L99,208.624893c0-1.656998,1.342987-3,3-3s3,1.343002,3,3s-1.342987,3-3,3
	S99,210.281891,99,208.624893z"/>
<path class="st1" d="M98.880646,208.443588L98.880646,208.443588c0-1.656006,1.342468-2.998474,2.998474-2.998474
	s2.998474,1.342468,2.998474,2.998474s-1.342468,2.998474-2.998474,2.998474S98.880646,210.099594,98.880646,208.443588z"/>
<path class="st0" d="M63,208.624893L63,208.624893c0-1.656998,1.343002-3,3-3s3,1.343002,3,3s-1.343002,3-3,3
	S63,210.281891,63,208.624893z"/>
<path class="st1" d="M62.899017,208.443588L62.899017,208.443588c0-1.656006,1.342468-2.998474,2.998474-2.998474
	s2.998459,1.342468,2.998459,2.998474s-1.342453,2.998474-2.998459,2.998474S62.899017,210.099594,62.899017,208.443588z"/>
<path class="st0" d="M27,214.624893L27,214.624893c0-1.656998,1.343002-3,3-3s3,1.343002,3,3s-1.343002,3-3,3
	S27,216.281891,27,214.624893z"/>
<path class="st1" d="M26.917374,214.440536L26.917374,214.440536c0-1.656006,1.342468-2.998474,2.998474-2.998474
	s2.998459,1.342468,2.998459,2.998474s-1.342453,2.998474-2.998459,2.998474S26.917374,216.096542,26.917374,214.440536z"/>
<path class="st0" d="M39,238.624893L39,238.624893c0-1.656998,1.343002-3,3-3s3,1.343002,3,3s-1.343002,3-3,3
	S39,240.281891,39,238.624893z"/>
<path class="st1" d="M38.911255,238.428299L38.911255,238.428299c0-1.656006,1.342468-2.998474,2.998474-2.998474
	s2.998459,1.342468,2.998459,2.998474s-1.342453,2.998474-2.998459,2.998474S38.911255,240.084305,38.911255,238.428299z"/>
<path class="st0" d="M81,154.624908L81,154.624908c0-1.657013,1.343002-3,3-3c1.657013,0,3,1.342987,3,3s-1.342987,3-3,3
	C82.343002,157.624908,81,156.281921,81,154.624908z"/>
<path class="st1" d="M80.889847,154.47113L80.889847,154.47113c0-1.656006,1.342468-2.998474,2.998474-2.998474
	c1.655991,0,2.998459,1.342468,2.998459,2.998474s-1.342468,2.998474-2.998459,2.998474
	C82.232315,157.469604,80.889847,156.127136,80.889847,154.47113z"/>
<path class="st0" d="M129,136.624908L129,136.624908c0-1.657013,1.342987-3,3-3s3,1.342987,3,3s-1.342987,3-3,3
	S129,138.281921,129,136.624908z"/>
<path class="st1" d="M128.865356,136.480316L128.865356,136.480316c0-1.656006,1.342468-2.998474,2.998474-2.998474
	s2.998474,1.342468,2.998474,2.998474s-1.342468,2.998474-2.998474,2.998474S128.865356,138.136322,128.865356,136.480316z"/>
<path class="st0" d="M93,166.624908L93,166.624908c0-1.657013,1.342987-3,3-3s3,1.342987,3,3s-1.342987,3-3,3
	S93,168.281921,93,166.624908z"/>
<path class="st1" d="M92.883728,166.465027L92.883728,166.465027c0-1.656006,1.342468-2.998474,2.998474-2.998474
	s2.998474,1.342468,2.998474,2.998474s-1.342468,2.998474-2.998474,2.998474S92.883728,168.121033,92.883728,166.465027z"/>
<path class="st0" d="M93,148.624908L93,148.624908c0-1.657013,1.342987-3,3-3s3,1.342987,3,3s-1.342987,3-3,3
	S93,150.281921,93,148.624908z"/>
<path class="st1" d="M92.883728,148.474182L92.883728,148.474182c0-1.656006,1.342468-2.998474,2.998474-2.998474
	s2.998474,1.342468,2.998474,2.998474s-1.342468,2.998474-2.998474,2.998474S92.883728,150.130188,92.883728,148.474182z"/>
<path class="st0" d="M129,160.624908L129,160.624908c0-1.657013-1.342987-3-3-3s-3,1.342987-3,3s1.342987,3,3,3
	S129,162.281921,129,160.624908z"/>
<path class="st1" d="M128.865356,160.468079L128.865356,160.468079c0-1.656006-1.342468-2.998474-2.998474-2.998474
	s-2.998474,1.342468-2.998474,2.998474s1.342468,2.998474,2.998474,2.998474S128.865356,162.124084,128.865356,160.468079z"/>
<path class="st0" d="M105,160.624908L105,160.624908c0-1.657013,1.342987-3,3-3s3,1.342987,3,3s-1.342987,3-3,3
	S105,162.281921,105,160.624908z"/>
<path class="st1" d="M104.877594,160.468079L104.877594,160.468079c0-1.656006,1.342468-2.998474,2.998474-2.998474
	s2.998474,1.342468,2.998474,2.998474s-1.342468,2.998474-2.998474,2.998474S104.877594,162.124084,104.877594,160.468079z"/>
<path class="st0" d="M87,124.624908L87,124.624908c0-1.657013,1.342987-3,3-3s3,1.342987,3,3s-1.342987,3-3,3
	S87,126.281921,87,124.624908z"/>
<path class="st1" d="M86.88678,124.48642L86.88678,124.48642c0-1.656006,1.342468-2.998474,2.998474-2.998474
	s2.998474,1.342468,2.998474,2.998474s-1.342468,2.998474-2.998474,2.998474S86.88678,126.142426,86.88678,124.48642z"/>
<path class="st0" d="M93,106.624908L93,106.624908c0-1.657013,1.342987-3,3-3s3,1.342987,3,3s-1.342987,3-3,3
	S93,108.281921,93,106.624908z"/>
<path class="st1" d="M92.883728,106.495605L92.883728,106.495605c0-1.656006,1.342468-2.998474,2.998474-2.998474
	s2.998474,1.342468,2.998474,2.998474s-1.342468,2.998474-2.998474,2.998474S92.883728,108.151611,92.883728,106.495605z"/>
<path class="st0" d="M99,136.624908L99,136.624908c0-1.657013,1.342987-3,3-3s3,1.342987,3,3s-1.342987,3-3,3
	S99,138.281921,99,136.624908z"/>
<path class="st1" d="M98.880646,136.480316L98.880646,136.480316c0-1.656006,1.342468-2.998474,2.998474-2.998474
	s2.998474,1.342468,2.998474,2.998474s-1.342468,2.998474-2.998474,2.998474S98.880646,138.136322,98.880646,136.480316z"/>
<path class="st0" d="M105,118.624908L105,118.624908c0-1.657013,1.342987-3,3-3s3,1.342987,3,3s-1.342987,3-3,3
	S105,120.281921,105,118.624908z"/>
<path class="st1" d="M104.877594,118.489502L104.877594,118.489502c0-1.656006,1.342468-2.998474,2.998474-2.998474
	s2.998474,1.342468,2.998474,2.998474s-1.342468,2.998474-2.998474,2.998474S104.877594,120.145508,104.877594,118.489502z"/>
<path class="st0" d="M87,256.624878L87,256.624878c0-1.656982,1.342987-2.999985,3-2.999985s3,1.343002,3,2.999985
	c0,1.657013-1.342987,3-3,3S87,258.281891,87,256.624878z"/>
<path class="st1" d="M86.88678,256.419128L86.88678,256.419128c0-1.656021,1.342468-2.998489,2.998474-2.998489
	s2.998474,1.342468,2.998474,2.998489c0,1.656006-1.342468,2.998474-2.998474,2.998474S86.88678,258.075134,86.88678,256.419128z"/>
<path class="st0" d="M51,256.624878L51,256.624878c0-1.656982,1.343002-2.999985,3-2.999985s3,1.343002,3,2.999985
	c0,1.657013-1.343002,3-3,3S51,258.281891,51,256.624878z"/>
<path class="st1" d="M50.905136,256.419128L50.905136,256.419128c0-1.656021,1.342468-2.998489,2.998474-2.998489
	s2.998459,1.342468,2.998459,2.998489c0,1.656006-1.342453,2.998474-2.998459,2.998474S50.905136,258.075134,50.905136,256.419128z"
	/>
<path class="st2" d="M68.771149,260.79184L68.771149,260.79184c-28.152176,0-50.973999-56.383362-50.973999-125.93576
	S40.618973,8.920349,68.771149,8.920349s50.973999,56.383362,50.973999,125.93573S96.923309,260.79184,68.771149,260.79184z"/>
<path class="st3" d="M104.752777,176.834686L104.752777,176.834686c-21.528152,0-38.980103-16.109497-38.980103-35.981628
	c0-19.872162,17.45195-35.981659,38.980103-35.981659c21.528076,0,38.980103,16.109497,38.980103,35.981659
	C143.73288,160.725189,126.280853,176.834686,104.752777,176.834686z"/>
</svg>
