<?xml version="1.0" encoding="UTF-8"?>
<svg id="Layer_1" xmlns="http://www.w3.org/2000/svg" version="1.1" viewBox="0 0 366 261">
  <!-- Generator: Adobe Illustrator 29.3.1, SVG Export Plug-In . SVG Version: 2.1.0 Build 151)  -->
  <defs>
    <style>
      .st0, .st1 {
        fill: #3c3;
      }

      .st0, .st1, .st2, .st3, .st4, .st5 {
        font-family: Symbol, Symbol;
      }

      .st0, .st3, .st5 {
        font-size: 20.615528px;
      }

      .st1, .st2, .st4 {
        font-size: 13.743682px;
      }

      .st6 {
        stroke: #8448b0;
      }

      .st6, .st7, .st8 {
        stroke-width: 1px;
      }

      .st6, .st7, .st8, .st9 {
        fill: none;
        stroke-linejoin: round;
      }

      .st7 {
        stroke: #0433ff;
      }

      .st10 {
        fill: #0433ff;
      }

      .st10, .st11, .st12 {
        fill-rule: evenodd;
      }

      .st8 {
        stroke: #37d142;
      }

      .st9 {
        stroke: #000;
        stroke-width: 3px;
      }

      .st2, .st3 {
        fill: blue;
      }

      .st11 {
        fill: #942192;
      }

      .st12 {
        fill: #37d142;
      }

      .st4, .st5 {
        fill: #7030a0;
      }
    </style>
  </defs>
  <line class="st9" x1="22.999969" y1="6.999969" x2="22.999969" y2="252.999939"/>
  <line class="st9" x1="358.999939" y1="242.06665" x2="10.999969" y2="242.06665"/>
  <path class="st10" d="M89,100h0c0-1.656906,1.343109-3,3-3,1.656799,0,3,1.343094,3,3,0,1.656799-1.343201,3-3,3-1.656891,0-3-1.343201-3-3Z"/>
  <text class="st3" transform="translate(102.199556 96.600213) scale(.970143) skewX(-14.036243)"><tspan x="0" y="0">µ</tspan></text>
  <text class="st2" transform="translate(113.723385 101.599667) scale(.970143) skewX(-14.036241)"><tspan x="0" y="0">1</tspan></text>
  <path class="st11" d="M193.404785,80.797501h0c0-1.656799,1.34314-3,3-3,1.656799,0,3,1.343201,3,3,0,1.656906-1.343201,3-3,3-1.65686,0-3-1.343094-3-3Z"/>
  <text class="st5" transform="translate(214.619593 74.974751) scale(.970143) skewX(-14.036243)"><tspan x="0" y="0">µ</tspan></text>
  <text class="st4" transform="translate(226.143422 79.974206) scale(.970143) skewX(-14.036241)"><tspan x="0" y="0">2</tspan></text>
  <path class="st12" d="M178.999878,178h0c0-1.656898,1.343201-3,3-3,1.656921,0,3,1.343102,3,3,0,1.656799-1.343079,3-3,3-1.656799,0-3-1.343201-3-3Z"/>
  <text class="st0" transform="translate(192.199598 174.600047) scale(.970143) skewX(-14.036243)"><tspan x="0" y="0">µ</tspan></text>
  <text class="st1" transform="translate(203.723429 179.599502) scale(.970143) skewX(-14.036241)"><tspan x="0" y="0">3</tspan></text>
  <path class="st7" d="M10.866577,154.45871h-.000061c-16.861176-24.599518,7.137878-70.359985,53.603516-102.208984,46.465515-31.848969,97.802124-37.725891,114.66333-13.126434,16.861267,24.599426-7.137878,70.359894-53.603485,102.208954-46.465576,31.848969-97.802124,37.72583-114.6633,13.126465h-.000061.000061Z"/>
  <path class="st6" d="M175.411682,53.792328h0c5.303101-3.974884,17.657898,3.550323,27.595215,16.807953,9.937317,13.257721,13.694031,27.22757,8.39093,31.202454-5.30304,3.974884-17.657898-3.550323-27.595215-16.807953-9.937317-13.257721-13.69397-27.22757-8.39093-31.202454Z"/>
  <path class="st8" d="M83.503906,165.023438h0c3.005432-29.67157,49.540039-49.258423,103.937805-43.748596,54.397766,5.509857,96.059631,34.03009,93.054321,63.70166-3.005432,29.671478-49.539917,49.258423-103.937805,43.748505-54.397858-5.509857-96.059692-34.03009-93.054321-63.701569Z"/>
</svg>