<?xml version="1.0" encoding="utf-8"?>
<!-- Generator: Adobe Illustrator 29.1.0, SVG Export Plug-In . SVG Version: 9.03 Build 55587)  -->
<svg version="1.1" id="Layer_1" xmlns="http://www.w3.org/2000/svg" xmlns:xlink="http://www.w3.org/1999/xlink" x="0px" y="0px"
	 width="140" height="250" viewBox="0 0 140.781815 250.999817" style="enable-background:new 0 0 140.781815 250.999817;" xml:space="preserve">
<style type="text/css">
	.st0{fill-rule:evenodd;clip-rule:evenodd;fill:#4F81BD;}
	.st1{fill:none;stroke:#000000;stroke-width:0.72649;stroke-linejoin:round;stroke-miterlimit:10;}
	.st2{fill:none;stroke:#0000FF;stroke-width:0.968654;stroke-linejoin:round;stroke-miterlimit:10;}
	.st3{fill:none;stroke:#800000;stroke-width:0.968654;stroke-linejoin:round;stroke-miterlimit:10;}
</style>
<g>
	<g>
		<path class="st0" d="M46.103333,5.080317L46.103333,5.080317c-0.071198-1.655517,1.212891-3.054901,2.868393-3.126099
			c1.655502-0.071106,3.054901,1.212982,3.126099,2.868378c0.071106,1.655518-1.212997,3.054993-2.8685,3.126099
			C47.573822,8.019893,46.174423,6.735804,46.103333,5.080317z"/>
	</g>
</g>
<g>
	<g>
		<path class="st1" d="M46.001923,5.001215L46.001923,5.001215c0-1.604919,1.301041-2.905975,2.90596-2.905975
			s2.90596,1.301056,2.90596,2.905975s-1.301041,2.905975-2.90596,2.905975S46.001923,6.606135,46.001923,5.001215z"/>
	</g>
</g>
<g>
	<g>
		<path class="st0" d="M11.939638,48.587612L11.939638,48.587612c-0.224055-3.886345,5.88484-4.149044,5.994486-0.257332
			C18.158319,52.216373,12.049314,52.478909,11.939638,48.587612z"/>
	</g>
</g>
<g>
	<g>
		<path class="st1" d="M11.855623,48.486294L11.855623,48.486294c-0.055103-3.770321,5.867493-3.770386,5.811903,0.000259
			C17.722647,52.256611,11.800051,52.25668,11.855623,48.486294z"/>
	</g>
</g>
<g>
	<g>
		<path class="st0" d="M89.868225,45.2384L89.868225,45.2384c-0.071106-1.655487,1.213013-3.054901,2.8685-3.126007
			c1.655396-0.071198,3.054901,1.212921,3.126007,2.868408c0.071198,1.655518-1.212891,3.054901-2.868408,3.126099
			C91.338837,48.178005,89.939423,46.893917,89.868225,45.2384z"/>
	</g>
</g>
<g>
	<g>
		<path class="st1" d="M89.744537,45.13879L89.744537,45.13879c0-1.604919,1.301056-2.905975,2.905975-2.905975
			c1.604889,0,2.905945,1.301056,2.905945,2.905975s-1.301056,2.905975-2.905945,2.905975
			C91.045593,48.044765,89.744537,46.74371,89.744537,45.13879z"/>
	</g>
</g>
<g>
	<g>
		<path class="st0" d="M49.194824,77.014397L49.194824,77.014397c-0.071091-1.655487,1.212997-3.054993,2.8685-3.126099
			c1.655411-0.071198,3.054901,1.213013,3.126007,2.868408c0.071198,1.655487-1.212906,3.054993-2.868408,3.126099
			C50.665436,79.954002,49.266022,78.669792,49.194824,77.014397z"/>
	</g>
</g>
<g>
	<g>
		<path class="st1" d="M49.091827,76.898613L49.091827,76.898613c0-1.604919,1.301041-2.905975,2.90596-2.905975
			s2.90596,1.301056,2.90596,2.905975s-1.301041,2.905975-2.90596,2.905975S49.091827,78.503532,49.091827,76.898613z"/>
	</g>
</g>
<g>
	<g>
		<path class="st0" d="M22.056231,144.242096L22.056231,144.242096c-0.071106-1.655487,1.212997-3.054901,2.868393-3.126099
			c1.655502-0.071075,3.055008,1.213013,3.126114,2.8685c0.071198,1.655426-1.213013,3.054901-2.868408,3.126007
			C23.526827,147.181702,22.127337,145.897614,22.056231,144.242096z"/>
	</g>
</g>
<g>
	<g>
		<path class="st1" d="M21.967134,144.09201L21.967134,144.09201c0-1.604919,1.301041-2.905975,2.90596-2.905975
			s2.90596,1.301056,2.90596,2.905975s-1.301041,2.905975-2.90596,2.905975S21.967134,145.69693,21.967134,144.09201z"/>
	</g>
</g>
<g>
	<g>
		<path class="st0" d="M105.46402,128.646301L105.46402,128.646301c-0.071106-1.655495,1.213013-3.055,2.8685-3.126106
			c1.655518-0.071198,3.054901,1.213013,3.126007,2.868416c0.071198,1.655487-1.212891,3.054993-2.868408,3.126099
			C106.934631,131.585907,105.535217,130.301697,105.46402,128.646301z"/>
	</g>
</g>
<g>
	<g>
		<path class="st1" d="M105.332428,128.50412L105.332428,128.50412c0-1.604927,1.301056-2.905983,2.905975-2.905983
			c1.604889,0,2.905945,1.301056,2.905945,2.905983c0,1.604919-1.301056,2.905975-2.905945,2.905975
			C106.633484,131.410095,105.332428,130.109039,105.332428,128.50412z"/>
	</g>
</g>
<g>
	<g>
		<path class="st0" d="M58.023224,142.69632L58.023224,142.69632c-0.071091-1.655518,1.212997-3.054901,2.8685-3.126099
			c1.655502-0.071106,3.054901,1.212982,3.126007,2.8685c0.071198,1.655487-1.212906,3.054901-2.868408,3.125977
			C59.493835,145.635895,58.094421,144.351807,58.023224,142.69632z"/>
	</g>
</g>
<g>
	<g>
		<path class="st1" d="M57.915833,142.546997L57.915833,142.546997c0-1.604919,1.301041-2.905975,2.90596-2.905975
			s2.90596,1.301056,2.90596,2.905975s-1.301041,2.905975-2.90596,2.905975S57.915833,144.151917,57.915833,142.546997z"/>
	</g>
</g>
<g>
	<g>
		<path class="st0" d="M2.526933,109.047905L2.526933,109.047905c-0.071106-1.655518,1.212997-3.054901,2.868393-3.126007
			c1.655502-0.071198,3.055008,1.212891,3.126099,2.868408c0.071213,1.655487-1.212891,3.054901-2.868393,3.126099
			C3.99753,111.987511,2.598131,110.703392,2.526933,109.047905z"/>
	</g>
</g>
<g>
	<g>
		<path class="st1" d="M2.447725,108.915916L2.447725,108.915916c0-1.604919,1.301041-2.905975,2.90596-2.905975
			s2.905961,1.301056,2.905961,2.905975s-1.301041,2.905975-2.905961,2.905975S2.447725,110.520836,2.447725,108.915916z"/>
	</g>
</g>
<g>
	<g>
		<path class="st0" d="M110.68573,110.405113L110.68573,110.405113c-0.071198-1.655518,1.212891-3.054901,2.868408-3.126099
			c1.655487-0.071106,3.054901,1.212982,3.126099,2.8685c0.071106,1.655487-1.213013,3.054901-2.8685,3.126099
			C112.156219,113.344688,110.756836,112.0606,110.68573,110.405113z"/>
	</g>
</g>
<g>
	<g>
		<path class="st1" d="M110.551331,110.272301L110.551331,110.272301c0-1.604919,1.301056-2.905975,2.905975-2.905975
			c1.604889,0,2.905945,1.301056,2.905945,2.905975s-1.301056,2.905975-2.905945,2.905975
			C111.852386,113.178276,110.551331,111.87722,110.551331,110.272301z"/>
	</g>
</g>
<g>
	<g>
		<path class="st0" d="M96.308929,195.101105L96.308929,195.101105c-0.071106-1.655502,1.213013-3.054901,2.8685-3.125992
			c1.655487-0.071198,3.054901,1.212891,3.126099,2.868393c0.071106,1.655502-1.213013,3.054901-2.8685,3.126099
			C97.779541,198.04071,96.380127,196.756607,96.308929,195.101105z"/>
	</g>
</g>
<g>
	<g>
		<path class="st1" d="M96.182037,194.92511L96.182037,194.92511c0-1.604919,1.301056-2.90596,2.905975-2.90596
			c1.604889,0,2.905945,1.301041,2.905945,2.90596s-1.301056,2.90596-2.905945,2.90596
			C97.483093,197.83107,96.182037,196.530029,96.182037,194.92511z"/>
	</g>
</g>
<g>
	<g>
		<path class="st0" d="M60.341934,196.646912L60.341934,196.646912c-0.071106-1.655502,1.212997-3.054901,2.868393-3.126099
			c1.655502-0.071106,3.055008,1.212997,3.126099,2.8685c0.071198,1.655502-1.212891,3.054901-2.868393,3.125992
			C61.812531,199.586502,60.413132,198.302414,60.341934,196.646912z"/>
	</g>
</g>
<g>
	<g>
		<path class="st1" d="M60.233231,196.470108L60.233231,196.470108c0-1.604919,1.301041-2.90596,2.90596-2.90596
			s2.90596,1.301041,2.90596,2.90596s-1.301041,2.90596-2.90596,2.90596S60.233231,198.075027,60.233231,196.470108z"/>
	</g>
</g>
<g>
	<g>
		<path class="st0" d="M24.632524,204.18721L24.632524,204.18721c-0.071198-1.655502,1.212906-3.054901,2.868408-3.126099
			c1.655502-0.071106,3.054901,1.212997,3.126099,2.8685c0.071106,1.655396-1.212997,3.054901-2.868408,3.125992
			C26.103136,207.126816,24.70363,205.842712,24.632524,204.18721z"/>
	</g>
</g>
<g>
	<g>
		<path class="st1" d="M24.542025,204.006516L24.542025,204.006516c0-1.604919,1.301041-2.90596,2.90596-2.90596
			s2.90596,1.301041,2.90596,2.90596s-1.301041,2.90596-2.90596,2.90596S24.542025,205.611435,24.542025,204.006516z"/>
	</g>
</g>
<g>
	<g>
		<path class="st0" d="M37.652023,227.650009L37.652023,227.650009c-0.071091-1.655502,1.213013-3.054993,2.8685-3.126099
			c1.655411-0.071198,3.054901,1.212906,3.126007,2.868393c0.071198,1.655502-1.212906,3.054901-2.868408,3.126099
			C39.122635,230.589508,37.723236,229.305405,37.652023,227.650009z"/>
	</g>
</g>
<g>
	<g>
		<path class="st1" d="M37.554932,227.457306L37.554932,227.457306c0-1.604919,1.301041-2.90596,2.90596-2.90596
			s2.90596,1.301041,2.90596,2.90596s-1.301041,2.90596-2.90596,2.90596S37.554932,229.062225,37.554932,227.457306z"/>
	</g>
</g>
<g>
	<g>
		<path class="st0" d="M76.006836,141.923401L76.006836,141.923401c-0.071213-1.655487,1.212891-3.054901,2.868378-3.125977
			c1.655518-0.071228,3.054901,1.212891,3.126129,2.868378c0.071075,1.655518-1.213013,3.054901-2.8685,3.126099
			C77.477325,144.863007,76.077927,143.578918,76.006836,141.923401z"/>
	</g>
</g>
<g>
	<g>
		<path class="st1" d="M75.890121,141.774597L75.890121,141.774597c0-1.604919,1.301041-2.905975,2.90596-2.905975
			s2.905975,1.301056,2.905975,2.905975s-1.301056,2.905975-2.905975,2.905975S75.890121,143.379517,75.890121,141.774597z"/>
	</g>
</g>
<g>
	<g>
		<path class="st0" d="M123.189941,121.878899L123.189941,121.878899c-0.071106-1.655487,1.212982-3.054993,2.8685-3.126099
			c1.655487-0.071106,3.054901,1.213013,3.125977,2.868408c0.071198,1.655487-1.212891,3.054993-2.868378,3.126099
			C124.660522,124.818504,123.261139,123.534416,123.189941,121.878899z"/>
	</g>
</g>
<g>
	<g>
		<path class="st1" d="M123.049225,121.740196L123.049225,121.740196c0-1.604919,1.301056-2.905975,2.905975-2.905975
			c1.604889,0,2.905945,1.301056,2.905945,2.905975s-1.301056,2.905975-2.905945,2.905975
			C124.350281,124.646172,123.049225,123.345116,123.049225,121.740196z"/>
	</g>
</g>
<g>
	<g>
		<path class="st0" d="M88.511017,153.397217L88.511017,153.397217c-0.071075-1.655518,1.213013-3.054901,2.8685-3.126099
			c1.655518-0.071106,3.054901,1.212982,3.126007,2.868378c0.071198,1.655518-1.212891,3.055008-2.868408,3.126114
			C89.981628,156.336807,88.582214,155.052704,88.511017,153.397217z"/>
	</g>
</g>
<g>
	<g>
		<path class="st1" d="M88.388031,153.242523L88.388031,153.242523c0-1.604919,1.301056-2.905975,2.905975-2.905975
			c1.604889,0,2.905945,1.301056,2.905945,2.905975s-1.301056,2.90596-2.905945,2.90596
			C89.689087,156.148483,88.388031,154.847443,88.388031,153.242523z"/>
	</g>
</g>
<g>
	<g>
		<path class="st0" d="M87.738129,135.413696L87.738129,135.413696c-0.071106-1.655487,1.213013-3.054993,2.8685-3.126099
			c1.655487-0.071198,3.054901,1.212921,3.126099,2.868408c0.071106,1.655518-1.213013,3.054901-2.8685,3.126099
			C89.20874,138.35321,87.809326,137.069122,87.738129,135.413696z"/>
	</g>
</g>
<g>
	<g>
		<path class="st1" d="M87.61554,135.268097L87.61554,135.268097c0-1.604919,1.301056-2.905975,2.905975-2.905975
			c1.604889,0,2.905945,1.301056,2.905945,2.905975s-1.301056,2.905975-2.905945,2.905975
			C88.916595,138.174072,87.61554,136.873016,87.61554,135.268097z"/>
	</g>
</g>
<g>
	<g>
		<path class="st0" d="M124.220428,145.856903L124.220428,145.856903c-0.071106-1.655487-1.47049-2.939606-3.126007-2.868408
			c-1.655487,0.071106-2.939606,1.47052-2.8685,3.126007c0.071198,1.655518,1.470612,2.939606,3.126099,2.8685
			C123.007538,148.911804,124.291626,147.512421,124.220428,145.856903z"/>
	</g>
</g>
<g>
	<g>
		<path class="st1" d="M124.079224,145.706024L124.079224,145.706024c0-1.604919-1.301056-2.905975-2.905975-2.905975
			c-1.604889,0-2.905945,1.301056-2.905945,2.905975s1.301056,2.905975,2.905945,2.905975
			C122.778168,148.612,124.079224,147.310944,124.079224,145.706024z"/>
	</g>
</g>
<g>
	<g>
		<path class="st0" d="M100.242432,146.887421L100.242432,146.887421c-0.071106-1.655518,1.212982-3.054901,2.8685-3.126099
			c1.655396-0.071106,3.054901,1.212982,3.126007,2.8685c0.071198,1.655487-1.212921,3.054901-2.868408,3.126099
			C101.713043,149.826996,100.313629,148.542908,100.242432,146.887421z"/>
	</g>
</g>
<g>
	<g>
		<path class="st1" d="M100.113434,146.736023L100.113434,146.736023c0-1.604919,1.301056-2.905975,2.905975-2.905975
			c1.604889,0,2.905945,1.301056,2.905945,2.905975s-1.301056,2.905975-2.905945,2.905975
			C101.41449,149.641998,100.113434,148.340942,100.113434,146.736023z"/>
	</g>
</g>
<g>
	<g>
		<path class="st0" d="M80.713135,111.693291L80.713135,111.693291c-0.071106-1.655487,1.212982-3.054993,2.8685-3.126099
			c1.655396-0.071198,3.054901,1.212921,3.126007,2.868408c0.071198,1.655487-1.212921,3.054901-2.868408,3.126099
			C82.183716,114.632805,80.784332,113.348717,80.713135,111.693291z"/>
	</g>
</g>
<g>
	<g>
		<path class="st1" d="M80.594116,111.559807L80.594116,111.559807c0-1.604919,1.301056-2.905975,2.905975-2.905975
			c1.604889,0,2.905945,1.301056,2.905945,2.905975s-1.301056,2.905975-2.905945,2.905975
			C81.895172,114.465782,80.594116,113.164726,80.594116,111.559807z"/>
	</g>
</g>
<g>
	<g>
		<path class="st0" d="M85.934723,93.45211L85.934723,93.45211c-0.071106-1.655518,1.213013-3.054901,2.8685-3.126099
			c1.655518-0.071106,3.054901,1.212982,3.126007,2.8685c0.071198,1.655487-1.212891,3.054901-2.868408,3.125977
			C87.405334,96.391716,86.00592,95.107597,85.934723,93.45211z"/>
	</g>
</g>
<g>
	<g>
		<path class="st1" d="M85.813019,93.327995L85.813019,93.327995c0-1.604919,1.301056-2.905975,2.905975-2.905975
			c1.604889,0,2.905945,1.301056,2.905945,2.905975s-1.301056,2.905975-2.905945,2.905975
			C87.114075,96.233971,85.813019,94.932915,85.813019,93.327995z"/>
	</g>
</g>
<g>
	<g>
		<path class="st0" d="M93.217438,123.167015L93.217438,123.167015c-0.071198-1.655518,1.212982-3.054901,2.868378-3.126099
			c1.655518-0.071106,3.055023,1.212982,3.126099,2.8685c0.071228,1.655487-1.212982,3.054871-2.868378,3.126099
			C94.688019,126.10659,93.288544,124.822502,93.217438,123.167015z"/>
	</g>
</g>
<g>
	<g>
		<path class="st1" d="M93.092041,123.027702L93.092041,123.027702c0-1.604919,1.301056-2.905975,2.905975-2.905975
			c1.604889,0,2.905945,1.301056,2.905945,2.905975s-1.301056,2.905975-2.905945,2.905975
			C94.393097,125.933678,93.092041,124.632622,93.092041,123.027702z"/>
	</g>
</g>
<g>
	<g>
		<path class="st0" d="M98.439026,104.925896L98.439026,104.925896c-0.071106-1.655487,1.213013-3.054993,2.8685-3.126099
			c1.655396-0.071198,3.054901,1.213013,3.126007,2.868408c0.071198,1.655487-1.212891,3.054993-2.868408,3.126099
			C99.909637,107.865501,98.510223,106.581291,98.439026,104.925896z"/>
	</g>
</g>
<g>
	<g>
		<path class="st1" d="M98.310944,104.795891L98.310944,104.795891c0-1.604919,1.301056-2.905975,2.905975-2.905975
			c1.604889,0,2.905945,1.301056,2.905945,2.905975s-1.301056,2.905975-2.905945,2.905975
			C99.612,107.701866,98.310944,106.40081,98.310944,104.795891z"/>
	</g>
</g>
<g>
	<g>
		<path class="st0" d="M86.381042,243.572403L86.381042,243.572403c-0.071228-1.655396,1.212891-3.054901,2.868378-3.125992
			c1.655518-0.071198,3.054901,1.212891,3.126099,2.868393c0.071106,1.655502-1.212982,3.054901-2.8685,3.126099
			C87.851624,246.512009,86.452118,245.227905,86.381042,243.572403z"/>
	</g>
</g>
<g>
	<g>
		<path class="st1" d="M86.259033,243.371704L86.259033,243.371704c0-1.604919,1.301056-2.90596,2.905975-2.90596
			c1.604889,0,2.905945,1.301041,2.905945,2.90596s-1.301056,2.90596-2.905945,2.90596
			C87.560089,246.277664,86.259033,244.976624,86.259033,243.371704z"/>
	</g>
</g>
<g>
	<g>
		<path class="st0" d="M50.413925,245.11821L50.413925,245.11821c-0.071091-1.655502,1.212997-3.054901,2.8685-3.126007
			c1.655411-0.071198,3.054901,1.212906,3.126007,2.868408c0.071198,1.655502-1.212906,3.054901-2.868408,3.126099
			C51.884521,248.057816,50.485123,246.773712,50.413925,245.11821z"/>
	</g>
</g>
<g>
	<g>
		<path class="st1" d="M50.310333,244.916702L50.310333,244.916702c0-1.604919,1.301041-2.90596,2.90596-2.90596
			s2.90596,1.301041,2.90596,2.90596s-1.301041,2.90596-2.90596,2.90596S50.310333,246.521622,50.310333,244.916702z"/>
	</g>
</g>
<g>
	<g>
		<path class="st2" d="M68.347733,248.518311L68.347733,248.518311c-27.283615,0-49.401321-54.643799-49.401321-122.050362
			S41.064117,4.417628,68.347733,4.417628s49.401321,54.643799,49.401321,122.050323S95.631348,248.518311,68.347733,248.518311z"/>
	</g>
</g>
<g>
	<g>
		<path class="st3" d="M100.691528,163.093002L100.691528,163.093002c-20.863953,0-37.777481-15.612473-37.777481-34.871536
			c0-19.259041,16.913528-34.871529,37.777481-34.871529c20.863892,0,37.777496,15.612488,37.777496,34.871529
			C138.469025,147.48053,121.55542,163.093002,100.691528,163.093002z"/>
	</g>
</g>
</svg>
