<?xml version="1.0" encoding="UTF-8" standalone="no"?>
<!DOCTYPE svg PUBLIC "-//W3C//DTD SVG 1.1//EN" "http://www.w3.org/Graphics/SVG/1.1/DTD/svg11.dtd">
<svg width="100%" height="100%" viewBox="0 0 460 289" version="1.1" xmlns="http://www.w3.org/2000/svg" xmlns:xlink="http://www.w3.org/1999/xlink" xml:space="preserve" style="fill-rule:evenodd;clip-rule:evenodd;stroke-miterlimit:1.41421;">
    <g id="path2384" transform="matrix(1.11985,0,0,1.08677,-18.2808,-31.2468)">
        <path d="M115.846,175.057C115.846,202.542 93.897,225.158 67.224,225.158C40.551,225.158 18.603,202.542 18.603,175.057C18.603,175.057 18.603,175.057 18.603,175.057C18.603,147.572 40.551,124.956 67.224,124.956C93.897,124.956 115.846,147.572 115.846,175.057L115.846,175.057Z" style="fill:rgb(255,227,227);fill-rule:nonzero;stroke-width:1px;stroke:black;"/>
    </g>
    <g id="path3158" transform="matrix(1.11985,0,0,1.08677,119.719,-32.2468)">
        <path d="M115.846,175.057C115.846,202.542 93.897,225.158 67.224,225.158C40.551,225.158 18.603,202.542 18.603,175.057C18.603,175.057 18.603,175.057 18.603,175.057C18.603,147.572 40.551,124.956 67.224,124.956C93.897,124.956 115.846,147.572 115.846,175.057L115.846,175.057Z" style="fill:rgb(255,230,230);fill-rule:nonzero;stroke-width:1px;stroke:black;"/>
    </g>
    <path id="path3160" d="M21.51,129.818L31.023,129.607L30.388,163.853C30.388,163.853 30.494,169.931 26.477,171.41C24.469,171.463 23.148,169.296 21.827,166.125C20.872,162.845 21.298,160.153 21.351,160.153C22.529,153.706 25.103,147.787 25.738,142.29C25.483,136.367 21.404,136.9 21.298,133.412L21.51,129.818Z" style="fill:rgb(211,234,242);stroke-width:1px;stroke:black;"/>
    <path id="path3162" d="M59.81,151.718L69.494,151.506L68.849,185.903C68.849,185.903 68.956,192.007 64.867,193.493C62.823,193.547 61.478,191.37 60.133,188.185C59.16,184.89 59.595,182.187 59.649,182.187C60.847,175.711 63.468,169.766 64.114,164.245C63.855,158.296 59.702,158.831 59.595,155.328L59.81,151.718Z" style="fill:rgb(242,0,0);stroke-width:1.01px;stroke:black;"/>
    <path id="path3164" d="M76.974,127.882L88.385,127.615L87.624,170.844C87.624,170.844 87.751,178.516 82.933,180.384C80.524,180.45 78.939,177.715 77.354,173.712C76.209,169.572 76.72,166.174 76.784,166.174C78.196,158.036 81.285,150.564 82.045,143.626C81.74,136.149 76.847,136.821 76.72,132.418L76.974,127.882Z" style="fill:rgb(253,1,0);stroke-width:1.23px;stroke:black;"/>
    <path id="path3166" d="M37.705,131.393L49.115,131.126L48.355,174.355C48.355,174.355 48.482,182.027 43.664,183.895C41.255,183.961 39.67,181.226 38.085,177.223C36.939,173.083 37.451,169.685 37.514,169.685C38.927,161.547 42.015,154.075 42.776,147.137C42.471,139.66 37.578,140.332 37.451,135.929L37.705,131.393Z" style="fill:rgb(211,234,242);stroke-width:1.23px;stroke:black;"/>
    <g transform="matrix(1,0,0,1,84.1887,227.718)">
        <g id="text3168">
            <rect x="1.57" y="-11.477" width="1.57" height="11.477" style="fill:black;fill-rule:nonzero;"/>
            <path d="M5.477,-8.367L6.813,-8.367L6.813,-7.18C7.208,-7.669 7.628,-8.021 8.07,-8.234C8.513,-8.448 9.005,-8.555 9.547,-8.555C10.734,-8.555 11.536,-8.141 11.953,-7.313C12.182,-6.859 12.297,-6.211 12.297,-5.367L12.297,0L10.867,0L10.867,-5.273C10.867,-5.784 10.792,-6.195 10.641,-6.508C10.391,-7.029 9.938,-7.289 9.281,-7.289C8.948,-7.289 8.674,-7.255 8.461,-7.188C8.076,-7.073 7.737,-6.844 7.445,-6.5C7.211,-6.224 7.059,-5.939 6.988,-5.645C6.918,-5.35 6.883,-4.93 6.883,-4.383L6.883,0L5.477,0L5.477,-8.367Z" style="fill:black;fill-rule:nonzero;"/>
            <path d="M14.656,-10.703L16.078,-10.703L16.078,-8.367L17.414,-8.367L17.414,-7.219L16.078,-7.219L16.078,-1.758C16.078,-1.466 16.177,-1.271 16.375,-1.172C16.484,-1.115 16.667,-1.086 16.922,-1.086C16.99,-1.086 17.063,-1.087 17.141,-1.09C17.219,-1.092 17.31,-1.099 17.414,-1.109L17.414,0C17.253,0.047 17.085,0.081 16.91,0.102C16.736,0.122 16.547,0.133 16.344,0.133C15.688,0.133 15.242,-0.035 15.008,-0.371C14.773,-0.707 14.656,-1.143 14.656,-1.68L14.656,-7.219L13.523,-7.219L13.523,-8.367L14.656,-8.367L14.656,-10.703Z" style="fill:black;fill-rule:nonzero;"/>
            <path d="M24.031,-8.137C24.589,-7.858 25.013,-7.497 25.305,-7.055C25.586,-6.633 25.773,-6.141 25.867,-5.578C25.951,-5.193 25.992,-4.578 25.992,-3.734L19.859,-3.734C19.885,-2.885 20.086,-2.204 20.461,-1.691C20.836,-1.178 21.417,-0.922 22.203,-0.922C22.938,-0.922 23.523,-1.164 23.961,-1.648C24.211,-1.93 24.388,-2.255 24.492,-2.625L25.875,-2.625C25.839,-2.318 25.717,-1.975 25.512,-1.598C25.306,-1.22 25.076,-0.911 24.82,-0.672C24.393,-0.255 23.865,0.026 23.234,0.172C22.896,0.255 22.513,0.297 22.086,0.297C21.044,0.297 20.161,-0.082 19.438,-0.84C18.714,-1.598 18.352,-2.659 18.352,-4.023C18.352,-5.367 18.716,-6.458 19.445,-7.297C20.174,-8.135 21.128,-8.555 22.305,-8.555C22.898,-8.555 23.474,-8.415 24.031,-8.137ZM24.547,-4.852C24.49,-5.461 24.357,-5.948 24.148,-6.313C23.763,-6.99 23.12,-7.328 22.219,-7.328C21.573,-7.328 21.031,-7.095 20.594,-6.629C20.156,-6.163 19.924,-5.57 19.898,-4.852L24.547,-4.852Z" style="fill:black;fill-rule:nonzero;"/>
            <path d="M27.758,-8.367L29.094,-8.367L29.094,-6.922C29.203,-7.203 29.471,-7.546 29.898,-7.949C30.326,-8.353 30.818,-8.555 31.375,-8.555C31.401,-8.555 31.445,-8.552 31.508,-8.547C31.57,-8.542 31.677,-8.531 31.828,-8.516L31.828,-7.031C31.745,-7.047 31.668,-7.057 31.598,-7.063C31.527,-7.068 31.451,-7.07 31.367,-7.07C30.659,-7.07 30.115,-6.842 29.734,-6.387C29.354,-5.931 29.164,-5.406 29.164,-4.813L29.164,0L27.758,0L27.758,-8.367Z" style="fill:black;fill-rule:nonzero;"/>
            <path d="M38.215,-1.77C38.65,-2.319 38.867,-3.141 38.867,-4.234C38.867,-4.901 38.771,-5.474 38.578,-5.953C38.214,-6.875 37.547,-7.336 36.578,-7.336C35.604,-7.336 34.938,-6.849 34.578,-5.875C34.385,-5.354 34.289,-4.693 34.289,-3.891C34.289,-3.245 34.385,-2.695 34.578,-2.242C34.943,-1.378 35.609,-0.945 36.578,-0.945C37.234,-0.945 37.78,-1.22 38.215,-1.77ZM32.938,-8.328L34.305,-8.328L34.305,-7.219C34.586,-7.599 34.893,-7.893 35.227,-8.102C35.701,-8.414 36.258,-8.57 36.898,-8.57C37.846,-8.57 38.651,-8.207 39.313,-7.48C39.974,-6.754 40.305,-5.716 40.305,-4.367C40.305,-2.544 39.828,-1.242 38.875,-0.461C38.271,0.034 37.568,0.281 36.766,0.281C36.135,0.281 35.607,0.143 35.18,-0.133C34.93,-0.289 34.651,-0.557 34.344,-0.938L34.344,3.336L32.938,3.336L32.938,-8.328Z" style="fill:black;fill-rule:nonzero;"/>
            <path d="M41.945,-11.516L43.352,-11.516L43.352,-7.234C43.685,-7.656 43.984,-7.953 44.25,-8.125C44.703,-8.422 45.268,-8.57 45.945,-8.57C47.159,-8.57 47.982,-8.146 48.414,-7.297C48.648,-6.833 48.766,-6.19 48.766,-5.367L48.766,0L47.32,0L47.32,-5.273C47.32,-5.888 47.242,-6.339 47.086,-6.625C46.831,-7.083 46.352,-7.313 45.648,-7.313C45.065,-7.313 44.536,-7.112 44.063,-6.711C43.589,-6.31 43.352,-5.552 43.352,-4.438L43.352,0L41.945,0L41.945,-11.516Z" style="fill:black;fill-rule:nonzero;"/>
            <path d="M52.367,-1.266C52.664,-1.031 53.016,-0.914 53.422,-0.914C53.917,-0.914 54.396,-1.029 54.859,-1.258C55.641,-1.638 56.031,-2.26 56.031,-3.125L56.031,-4.258C55.859,-4.148 55.638,-4.057 55.367,-3.984C55.096,-3.911 54.831,-3.859 54.57,-3.828L53.719,-3.719C53.208,-3.651 52.826,-3.544 52.57,-3.398C52.138,-3.154 51.922,-2.763 51.922,-2.227C51.922,-1.82 52.07,-1.5 52.367,-1.266ZM55.328,-5.07C55.651,-5.112 55.867,-5.247 55.977,-5.477C56.039,-5.602 56.07,-5.781 56.07,-6.016C56.07,-6.495 55.9,-6.842 55.559,-7.059C55.217,-7.275 54.729,-7.383 54.094,-7.383C53.359,-7.383 52.839,-7.185 52.531,-6.789C52.359,-6.57 52.247,-6.245 52.195,-5.813L50.883,-5.813C50.909,-6.844 51.243,-7.561 51.887,-7.965C52.53,-8.368 53.276,-8.57 54.125,-8.57C55.109,-8.57 55.909,-8.383 56.523,-8.008C57.133,-7.633 57.438,-7.049 57.438,-6.258L57.438,-1.438C57.438,-1.292 57.467,-1.174 57.527,-1.086C57.587,-0.997 57.714,-0.953 57.906,-0.953C57.969,-0.953 58.039,-0.957 58.117,-0.965C58.195,-0.973 58.279,-0.984 58.367,-1L58.367,0.039C58.148,0.102 57.982,0.141 57.867,0.156C57.753,0.172 57.596,0.18 57.398,0.18C56.914,0.18 56.563,0.008 56.344,-0.336C56.229,-0.518 56.148,-0.776 56.102,-1.109C55.815,-0.734 55.404,-0.409 54.867,-0.133C54.331,0.143 53.74,0.281 53.094,0.281C52.318,0.281 51.684,0.046 51.191,-0.426C50.699,-0.897 50.453,-1.487 50.453,-2.195C50.453,-2.971 50.695,-3.573 51.18,-4C51.664,-4.427 52.299,-4.69 53.086,-4.789L55.328,-5.07Z" style="fill:black;fill-rule:nonzero;"/>
            <path d="M60.578,-2.625C60.62,-2.156 60.737,-1.797 60.93,-1.547C61.284,-1.094 61.898,-0.867 62.773,-0.867C63.294,-0.867 63.753,-0.98 64.148,-1.207C64.544,-1.434 64.742,-1.784 64.742,-2.258C64.742,-2.617 64.583,-2.891 64.266,-3.078C64.063,-3.193 63.661,-3.326 63.063,-3.477L61.945,-3.758C61.232,-3.935 60.706,-4.133 60.367,-4.352C59.763,-4.732 59.461,-5.258 59.461,-5.93C59.461,-6.721 59.746,-7.362 60.316,-7.852C60.887,-8.341 61.654,-8.586 62.617,-8.586C63.878,-8.586 64.786,-8.216 65.344,-7.477C65.693,-7.008 65.862,-6.503 65.852,-5.961L64.523,-5.961C64.497,-6.279 64.385,-6.568 64.188,-6.828C63.865,-7.198 63.305,-7.383 62.508,-7.383C61.977,-7.383 61.574,-7.281 61.301,-7.078C61.027,-6.875 60.891,-6.607 60.891,-6.273C60.891,-5.909 61.07,-5.617 61.43,-5.398C61.638,-5.268 61.945,-5.154 62.352,-5.055L63.281,-4.828C64.292,-4.583 64.969,-4.346 65.313,-4.117C65.859,-3.758 66.133,-3.193 66.133,-2.422C66.133,-1.677 65.85,-1.034 65.285,-0.492C64.72,0.049 63.859,0.32 62.703,0.32C61.458,0.32 60.577,0.038 60.059,-0.527C59.54,-1.092 59.263,-1.792 59.227,-2.625L60.578,-2.625Z" style="fill:black;fill-rule:nonzero;"/>
            <path d="M72.953,-8.137C73.51,-7.858 73.935,-7.497 74.227,-7.055C74.508,-6.633 74.695,-6.141 74.789,-5.578C74.872,-5.193 74.914,-4.578 74.914,-3.734L68.781,-3.734C68.807,-2.885 69.008,-2.204 69.383,-1.691C69.758,-1.178 70.339,-0.922 71.125,-0.922C71.859,-0.922 72.445,-1.164 72.883,-1.648C73.133,-1.93 73.31,-2.255 73.414,-2.625L74.797,-2.625C74.76,-2.318 74.639,-1.975 74.434,-1.598C74.228,-1.22 73.997,-0.911 73.742,-0.672C73.315,-0.255 72.786,0.026 72.156,0.172C71.818,0.255 71.435,0.297 71.008,0.297C69.966,0.297 69.083,-0.082 68.359,-0.84C67.635,-1.598 67.273,-2.659 67.273,-4.023C67.273,-5.367 67.638,-6.458 68.367,-7.297C69.096,-8.135 70.049,-8.555 71.227,-8.555C71.82,-8.555 72.396,-8.415 72.953,-8.137ZM73.469,-4.852C73.411,-5.461 73.279,-5.948 73.07,-6.313C72.685,-6.99 72.042,-7.328 71.141,-7.328C70.495,-7.328 69.953,-7.095 69.516,-6.629C69.078,-6.163 68.846,-5.57 68.82,-4.852L73.469,-4.852Z" style="fill:black;fill-rule:nonzero;"/>
        </g>
    </g>
    <g transform="matrix(1,0,0,1,217.34,232.792)">
        <g id="text3172">
            <path d="M1.18,-11.477L3.406,-11.477L6.703,-1.773L9.977,-11.477L12.18,-11.477L12.18,0L10.703,0L10.703,-6.773C10.703,-7.008 10.708,-7.396 10.719,-7.938C10.729,-8.479 10.734,-9.06 10.734,-9.68L7.461,0L5.922,0L2.625,-9.68L2.625,-9.328C2.625,-9.047 2.632,-8.618 2.645,-8.043C2.658,-7.467 2.664,-7.044 2.664,-6.773L2.664,0L1.18,0L1.18,-11.477Z" style="fill:black;fill-rule:nonzero;"/>
            <path d="M19.57,-8.137C20.128,-7.858 20.552,-7.497 20.844,-7.055C21.125,-6.633 21.313,-6.141 21.406,-5.578C21.49,-5.193 21.531,-4.578 21.531,-3.734L15.398,-3.734C15.424,-2.885 15.625,-2.204 16,-1.691C16.375,-1.178 16.956,-0.922 17.742,-0.922C18.477,-0.922 19.063,-1.164 19.5,-1.648C19.75,-1.93 19.927,-2.255 20.031,-2.625L21.414,-2.625C21.378,-2.318 21.257,-1.975 21.051,-1.598C20.845,-1.22 20.615,-0.911 20.359,-0.672C19.932,-0.255 19.404,0.026 18.773,0.172C18.435,0.255 18.052,0.297 17.625,0.297C16.583,0.297 15.701,-0.082 14.977,-0.84C14.253,-1.598 13.891,-2.659 13.891,-4.023C13.891,-5.367 14.255,-6.458 14.984,-7.297C15.714,-8.135 16.667,-8.555 17.844,-8.555C18.438,-8.555 19.013,-8.415 19.57,-8.137ZM20.086,-4.852C20.029,-5.461 19.896,-5.948 19.688,-6.313C19.302,-6.99 18.659,-7.328 17.758,-7.328C17.112,-7.328 16.57,-7.095 16.133,-6.629C15.695,-6.163 15.464,-5.57 15.438,-4.852L20.086,-4.852Z" style="fill:black;fill-rule:nonzero;"/>
            <path d="M23.258,-8.328L24.688,-8.328L24.688,0L23.258,0L23.258,-8.328ZM23.258,-11.477L24.688,-11.477L24.688,-9.883L23.258,-9.883L23.258,-11.477Z" style="fill:black;fill-rule:nonzero;"/>
            <path d="M32.051,-1.965C32.397,-2.671 32.57,-3.456 32.57,-4.32C32.57,-5.102 32.445,-5.737 32.195,-6.227C31.799,-6.997 31.117,-7.383 30.148,-7.383C29.289,-7.383 28.664,-7.055 28.273,-6.398C27.883,-5.742 27.688,-4.951 27.688,-4.023C27.688,-3.133 27.883,-2.391 28.273,-1.797C28.664,-1.203 29.284,-0.906 30.133,-0.906C31.065,-0.906 31.704,-1.259 32.051,-1.965ZM32.922,-7.531C33.667,-6.813 34.039,-5.755 34.039,-4.359C34.039,-3.01 33.711,-1.896 33.055,-1.016C32.398,-0.135 31.38,0.305 30,0.305C28.849,0.305 27.935,-0.085 27.258,-0.863C26.581,-1.642 26.242,-2.688 26.242,-4C26.242,-5.406 26.599,-6.526 27.313,-7.359C28.026,-8.193 28.984,-8.609 30.188,-8.609C31.266,-8.609 32.177,-8.25 32.922,-7.531Z" style="fill:black;fill-rule:nonzero;"/>
            <path d="M36.547,-2.625C36.589,-2.156 36.706,-1.797 36.898,-1.547C37.253,-1.094 37.867,-0.867 38.742,-0.867C39.263,-0.867 39.721,-0.98 40.117,-1.207C40.513,-1.434 40.711,-1.784 40.711,-2.258C40.711,-2.617 40.552,-2.891 40.234,-3.078C40.031,-3.193 39.63,-3.326 39.031,-3.477L37.914,-3.758C37.201,-3.935 36.674,-4.133 36.336,-4.352C35.732,-4.732 35.43,-5.258 35.43,-5.93C35.43,-6.721 35.715,-7.362 36.285,-7.852C36.855,-8.341 37.622,-8.586 38.586,-8.586C39.846,-8.586 40.755,-8.216 41.313,-7.477C41.661,-7.008 41.831,-6.503 41.82,-5.961L40.492,-5.961C40.466,-6.279 40.354,-6.568 40.156,-6.828C39.833,-7.198 39.273,-7.383 38.477,-7.383C37.945,-7.383 37.543,-7.281 37.27,-7.078C36.996,-6.875 36.859,-6.607 36.859,-6.273C36.859,-5.909 37.039,-5.617 37.398,-5.398C37.607,-5.268 37.914,-5.154 38.32,-5.055L39.25,-4.828C40.26,-4.583 40.938,-4.346 41.281,-4.117C41.828,-3.758 42.102,-3.193 42.102,-2.422C42.102,-1.677 41.819,-1.034 41.254,-0.492C40.689,0.049 39.828,0.32 38.672,0.32C37.427,0.32 36.546,0.038 36.027,-0.527C35.509,-1.092 35.232,-1.792 35.195,-2.625L36.547,-2.625Z" style="fill:black;fill-rule:nonzero;"/>
            <path d="M43.711,-8.328L45.141,-8.328L45.141,0L43.711,0L43.711,-8.328ZM43.711,-11.477L45.141,-11.477L45.141,-9.883L43.711,-9.883L43.711,-11.477Z" style="fill:black;fill-rule:nonzero;"/>
            <path d="M48.102,-2.625C48.143,-2.156 48.26,-1.797 48.453,-1.547C48.807,-1.094 49.422,-0.867 50.297,-0.867C50.818,-0.867 51.276,-0.98 51.672,-1.207C52.068,-1.434 52.266,-1.784 52.266,-2.258C52.266,-2.617 52.107,-2.891 51.789,-3.078C51.586,-3.193 51.185,-3.326 50.586,-3.477L49.469,-3.758C48.755,-3.935 48.229,-4.133 47.891,-4.352C47.286,-4.732 46.984,-5.258 46.984,-5.93C46.984,-6.721 47.27,-7.362 47.84,-7.852C48.41,-8.341 49.177,-8.586 50.141,-8.586C51.401,-8.586 52.31,-8.216 52.867,-7.477C53.216,-7.008 53.385,-6.503 53.375,-5.961L52.047,-5.961C52.021,-6.279 51.909,-6.568 51.711,-6.828C51.388,-7.198 50.828,-7.383 50.031,-7.383C49.5,-7.383 49.098,-7.281 48.824,-7.078C48.551,-6.875 48.414,-6.607 48.414,-6.273C48.414,-5.909 48.594,-5.617 48.953,-5.398C49.161,-5.268 49.469,-5.154 49.875,-5.055L50.805,-4.828C51.815,-4.583 52.492,-4.346 52.836,-4.117C53.383,-3.758 53.656,-3.193 53.656,-2.422C53.656,-1.677 53.374,-1.034 52.809,-0.492C52.243,0.049 51.383,0.32 50.227,0.32C48.982,0.32 48.1,0.038 47.582,-0.527C47.064,-1.092 46.786,-1.792 46.75,-2.625L48.102,-2.625Z" style="fill:black;fill-rule:nonzero;"/>
            <rect x="60.25" y="-11.477" width="1.57" height="11.477" style="fill:black;fill-rule:nonzero;"/>
        </g>
    </g>
    <g id="g3334">
        <path id="path3198" d="M153.516,136.829C156.003,134.911 158.972,135.708 160.542,136.231C162.066,138.811 160.168,144.846 160.841,145.387C162.111,146.246 164.578,146.209 165.774,145.275C166.245,144.907 163.905,138.212 164.69,136.567C165.586,136.008 170.856,135.334 172.351,136.68C173.43,139.938 168.651,146.215 168.614,148.937C168.749,152.611 172.762,163.81 172.65,174.05C172.351,176.088 171.566,177.749 168.614,177.787C166.037,177.039 165.774,175.544 165.624,174.05C165.335,171.843 165.961,154.991 165.923,152.823C165.662,151.209 165.288,149.684 163.382,149.684C161.954,149.684 161.551,150.208 160.617,152.076C160.109,155.395 161.14,169.64 160.691,174.498C160.38,175.903 159.421,178.16 157.403,178.086C155.836,178.241 153.516,176.292 153.666,173.228C153.686,164.232 157.926,152.898 157.776,148.787C157.967,144.966 152.545,142.21 153.516,136.829Z" style="fill:rgb(211,234,242);stroke-width:1px;stroke:black;"/>
        <path id="path3291" d="M157.486,145.791C157.462,145.747 157.384,145.611 157.315,145.487C157.131,145.162 156.822,144.68 156.19,143.729C155.375,142.504 155.099,142.052 154.784,141.433C154.05,139.991 153.786,138.656 153.964,137.285C153.988,137.097 153.97,137.12 154.214,136.964C154.934,136.505 155.742,136.231 156.605,136.153C156.961,136.121 157.636,136.125 157.969,136.161C158.648,136.235 159.348,136.387 160.08,136.619L160.192,136.654L160.271,136.839C160.549,137.494 160.675,138.507 160.632,139.734C160.602,140.576 160.564,141.009 160.379,142.601C160.226,143.924 160.223,143.958 160.196,144.401L160.174,144.771L158.859,145.321C158.137,145.623 157.542,145.87 157.538,145.87C157.534,145.87 157.511,145.835 157.486,145.791Z" style="fill:none;stroke-width:0.02px;stroke:black;"/>
    </g>
    <g id="g3329">
        <g id="path3202" transform="matrix(1,0,0,1,-28.7002,-0.747402)">
            <path d="M240.428,132.765C243.515,130.33 247.2,131.342 249.148,132.006C251.04,135.282 248.684,142.942 249.519,143.628C251.096,144.72 254.158,144.672 255.642,143.486C256.227,143.019 253.323,134.52 254.297,132.433C255.41,131.723 261.95,130.868 263.806,132.576C265.145,136.712 259.214,144.68 259.167,148.135C259.335,152.799 264.316,167.015 264.177,180.013C263.806,182.601 262.832,184.71 259.167,184.757C255.969,183.808 255.642,181.911 255.457,180.013C255.097,177.213 255.874,155.82 255.828,153.069C255.503,151.019 255.039,149.084 252.673,149.084C250.901,149.084 250.401,149.748 249.241,152.12C248.611,156.333 249.89,174.416 249.334,180.583C248.947,182.366 247.757,185.231 245.252,185.137C243.308,185.333 240.428,182.859 240.613,178.97C240.639,167.551 245.901,153.163 245.716,147.945C245.952,143.094 239.222,139.596 240.428,132.765Z" style="fill:rgb(211,234,242);fill-rule:nonzero;stroke-width:1.26px;stroke:black;"/>
        </g>
        <path id="path3311" d="M228.547,144.523L226.945,143.52L227.177,143.359C227.633,143.044 227.725,142.74 227.619,141.902C227.545,141.32 227.397,140.587 226.884,138.277C226.242,135.383 226.004,133.802 226.05,132.751C226.075,132.173 226.082,132.155 226.292,132.083C226.554,131.993 227.142,131.849 227.54,131.778C229.919,131.35 232.565,131.39 233.894,131.873C234.203,131.985 234.531,132.168 234.552,132.238C234.65,132.57 234.68,133.54 234.607,134.011C234.426,135.187 234.071,136.364 233.406,137.998C233.094,138.765 232.835,139.347 232.008,141.152C230.982,143.391 230.522,144.477 230.27,145.253C230.221,145.404 230.174,145.527 230.165,145.527C230.157,145.527 229.429,145.075 228.547,144.523Z" style="fill:none;stroke-width:0.03px;stroke:black;"/>
    </g>
    <g id="g3325">
        <path id="path3204" d="M179.083,156.553C182.17,154.118 185.855,155.13 187.803,155.794C189.695,159.069 187.339,166.73 188.174,167.416C189.751,168.507 192.813,168.46 194.297,167.274C194.882,166.806 191.978,158.308 192.952,156.221C194.065,155.511 200.605,154.655 202.461,156.363C203.8,160.5 197.869,168.467 197.822,171.923C197.99,176.586 202.971,190.803 202.832,203.801C202.461,206.388 201.487,208.497 197.822,208.545C194.624,207.596 194.297,205.698 194.111,203.801C193.752,201 194.529,179.608 194.483,176.856C194.158,174.807 193.694,172.871 191.328,172.871C189.556,172.871 189.056,173.536 187.896,175.907C187.266,180.12 188.545,198.203 187.989,204.37C187.602,206.154 186.412,209.019 183.907,208.924C181.962,209.121 179.083,206.647 179.268,202.757C179.294,191.338 184.556,176.951 184.371,171.733C184.607,166.882 177.877,163.384 179.083,156.553Z" style="fill:rgb(253,1,0);stroke-width:1.26px;stroke:black;"/>
        <path id="path3315" d="M184.612,169.273C184.593,169.224 184.543,169.093 184.5,168.981C184.203,168.199 183.581,167.103 182.506,165.466C181.287,163.61 180.701,162.584 180.293,161.591C179.719,160.192 179.492,158.794 179.615,157.426C179.664,156.877 179.646,156.915 179.973,156.703C180.793,156.172 181.804,155.817 182.834,155.699C183.294,155.647 184.255,155.655 184.74,155.715C185.492,155.808 186.32,155.99 187.015,156.215C187.352,156.324 187.368,156.333 187.414,156.444C187.713,157.157 187.845,157.871 187.898,159.044C187.952,160.258 187.887,161.268 187.58,163.981C187.316,166.321 187.299,167.046 187.497,167.536C187.534,167.626 187.558,167.705 187.55,167.712C187.543,167.719 186.932,168.065 186.193,168.481C185.454,168.897 184.804,169.266 184.748,169.3L184.647,169.361L184.612,169.273Z" style="fill:none;stroke-width:0.03px;stroke:black;"/>
    </g>
    <g id="g3321">
        <path id="path3200" d="M179.284,112.021C181.771,110.103 184.74,110.9 186.31,111.423C187.834,114.003 185.936,120.038 186.609,120.579C187.879,121.438 190.346,121.401 191.541,120.467C192.013,120.099 189.673,113.404 190.458,111.76C191.354,111.2 196.624,110.526 198.119,111.872C199.198,115.13 194.419,121.407 194.382,124.129C194.516,127.803 198.53,139.002 198.418,149.242C198.119,151.28 197.334,152.941 194.382,152.979C191.805,152.231 191.541,150.736 191.392,149.242C191.103,147.035 191.728,130.183 191.691,128.015C191.429,126.401 191.056,124.876 189.15,124.876C187.722,124.876 187.319,125.4 186.384,127.268C185.877,130.587 186.908,144.832 186.459,149.69C186.148,151.095 185.189,153.352 183.171,153.278C181.604,153.433 179.284,151.484 179.434,148.42C179.454,139.424 183.694,128.09 183.544,123.98C183.734,120.158 178.312,117.402 179.284,112.021Z" style="fill:rgb(253,1,0);stroke-width:1px;stroke:black;"/>
        <path id="path3319" d="M183.452,121.387C183.165,120.781 182.87,120.294 181.981,118.961C181.12,117.669 180.844,117.217 180.522,116.571C180.07,115.665 179.832,114.915 179.716,114.024C179.675,113.714 179.675,112.889 179.716,112.56C179.732,112.43 179.75,112.317 179.755,112.308C179.76,112.3 179.846,112.24 179.944,112.176C181.387,111.231 183.206,111.063 185.39,111.672C185.553,111.718 185.749,111.775 185.825,111.8L185.964,111.844L186.023,111.98C186.417,112.89 186.508,114.319 186.304,116.414C186.27,116.766 186.21,117.293 186.094,118.274C185.98,119.243 185.969,119.375 185.969,119.883C185.968,120.282 185.972,120.357 185.996,120.444C186.012,120.499 186.019,120.548 186.012,120.555C185.996,120.569 183.589,121.617 183.573,121.617C183.566,121.617 183.512,121.514 183.452,121.387Z" style="fill:none;stroke-width:0.02px;stroke:black;"/>
    </g>
    <g id="path3382" transform="matrix(0.763532,0,0,0.74098,265.829,-11.1744)">
        <path d="M115.846,175.057C115.846,202.542 93.897,225.158 67.224,225.158C40.551,225.158 18.603,202.542 18.603,175.057C18.603,175.057 18.603,175.057 18.603,175.057C18.603,147.572 40.551,124.956 67.224,124.956C93.897,124.956 115.846,147.572 115.846,175.057L115.846,175.057Z" style="fill:rgb(255,227,227);fill-rule:nonzero;stroke-width:1px;stroke:black;"/>
    </g>
    <g id="g3338" transform="matrix(1,0,0,1,168.474,-37.1036)">
        <path id="path3340" d="M153.516,136.829C156.003,134.911 158.972,135.708 160.542,136.231C162.066,138.811 160.168,144.846 160.841,145.387C162.111,146.246 164.578,146.209 165.774,145.275C166.245,144.907 163.905,138.212 164.69,136.567C165.586,136.008 170.856,135.334 172.351,136.68C173.43,139.938 168.651,146.215 168.614,148.937C168.749,152.611 172.762,163.81 172.65,174.05C172.351,176.088 171.566,177.749 168.614,177.787C166.037,177.039 165.774,175.544 165.624,174.05C165.335,171.843 165.961,154.991 165.923,152.823C165.662,151.209 165.288,149.684 163.382,149.684C161.954,149.684 161.551,150.208 160.617,152.076C160.109,155.395 161.14,169.64 160.691,174.498C160.38,175.903 159.421,178.16 157.403,178.086C155.836,178.241 153.516,176.292 153.666,173.228C153.686,164.232 157.926,152.898 157.776,148.787C157.967,144.966 152.545,142.21 153.516,136.829Z" style="fill:rgb(211,234,242);stroke-width:1px;stroke:black;"/>
        <path id="path3342" d="M157.486,145.791C157.462,145.747 157.384,145.611 157.315,145.487C157.131,145.162 156.822,144.68 156.19,143.729C155.375,142.504 155.099,142.052 154.784,141.433C154.05,139.991 153.786,138.656 153.964,137.285C153.988,137.097 153.97,137.12 154.214,136.964C154.934,136.505 155.742,136.231 156.605,136.153C156.961,136.121 157.636,136.125 157.969,136.161C158.648,136.235 159.348,136.387 160.08,136.619L160.192,136.654L160.271,136.839C160.549,137.494 160.675,138.507 160.632,139.734C160.602,140.576 160.564,141.009 160.379,142.601C160.226,143.924 160.223,143.958 160.196,144.401L160.174,144.771L158.859,145.321C158.137,145.623 157.542,145.87 157.538,145.87C157.534,145.87 157.511,145.835 157.486,145.791Z" style="fill:rgb(253,1,0);stroke-width:0.02px;stroke:black;"/>
    </g>
    <g id="path3384" transform="matrix(0.763532,0,0,0.74098,265.762,68.32)">
        <path d="M115.846,175.057C115.846,202.542 93.897,225.158 67.224,225.158C40.551,225.158 18.603,202.542 18.603,175.057C18.603,175.057 18.603,175.057 18.603,175.057C18.603,147.572 40.551,124.956 67.224,124.956C93.897,124.956 115.846,147.572 115.846,175.057L115.846,175.057Z" style="fill:rgb(255,227,227);fill-rule:nonzero;stroke-width:1px;stroke:black;"/>
    </g>
    <g id="g3344" transform="matrix(1,0,0,1,144.206,66.9543)">
        <path id="path3346" d="M179.284,112.021C181.771,110.103 184.74,110.9 186.31,111.423C187.834,114.003 185.936,120.038 186.609,120.579C187.879,121.438 190.346,121.401 191.541,120.467C192.013,120.099 189.673,113.404 190.458,111.76C191.354,111.2 196.624,110.526 198.119,111.872C199.198,115.13 194.419,121.407 194.382,124.129C194.516,127.803 198.53,139.002 198.418,149.242C198.119,151.28 197.334,152.941 194.382,152.979C191.805,152.231 191.541,150.736 191.392,149.242C191.103,147.035 191.728,130.183 191.691,128.015C191.429,126.401 191.056,124.876 189.15,124.876C187.722,124.876 187.319,125.4 186.384,127.268C185.877,130.587 186.908,144.832 186.459,149.69C186.148,151.095 185.189,153.352 183.171,153.278C181.604,153.433 179.284,151.484 179.434,148.42C179.454,139.424 183.694,128.09 183.544,123.98C183.734,120.158 178.312,117.402 179.284,112.021Z" style="fill:rgb(253,1,0);stroke-width:1px;stroke:black;"/>
        <path id="path3348" d="M183.452,121.387C183.165,120.781 182.87,120.294 181.981,118.961C181.12,117.669 180.844,117.217 180.522,116.571C180.07,115.665 179.832,114.915 179.716,114.024C179.675,113.714 179.675,112.889 179.716,112.56C179.732,112.43 179.75,112.317 179.755,112.308C179.76,112.3 179.846,112.24 179.944,112.176C181.387,111.231 183.206,111.063 185.39,111.672C185.553,111.718 185.749,111.775 185.825,111.8L185.964,111.844L186.023,111.98C186.417,112.89 186.508,114.319 186.304,116.414C186.27,116.766 186.21,117.293 186.094,118.274C185.98,119.243 185.969,119.375 185.969,119.883C185.968,120.282 185.972,120.357 185.996,120.444C186.012,120.499 186.019,120.548 186.012,120.555C185.996,120.569 183.589,121.617 183.573,121.617C183.566,121.617 183.512,121.514 183.452,121.387Z" style="fill:rgb(211,234,242);stroke-width:0.02px;stroke:black;"/>
    </g>
    <g id="g3350" transform="matrix(1,0,0,1,112.864,-62.7221)">
        <path id="path3352" d="M179.083,156.553C182.17,154.118 185.855,155.13 187.803,155.794C189.695,159.069 187.339,166.73 188.174,167.416C189.751,168.507 192.813,168.46 194.297,167.274C194.882,166.806 191.978,158.308 192.952,156.221C194.065,155.511 200.605,154.655 202.461,156.363C203.8,160.5 197.869,168.467 197.822,171.923C197.99,176.586 202.971,190.803 202.832,203.801C202.461,206.388 201.487,208.497 197.822,208.545C194.624,207.596 194.297,205.698 194.111,203.801C193.752,201 194.529,179.608 194.483,176.856C194.158,174.807 193.694,172.871 191.328,172.871C189.556,172.871 189.056,173.536 187.896,175.907C187.266,180.12 188.545,198.203 187.989,204.37C187.602,206.154 186.412,209.019 183.907,208.924C181.962,209.121 179.083,206.647 179.268,202.757C179.294,191.338 184.556,176.951 184.371,171.733C184.607,166.882 177.877,163.384 179.083,156.553Z" style="fill:rgb(253,1,0);stroke-width:1.26px;stroke:black;"/>
        <path id="path3354" d="M184.612,169.273C184.593,169.224 184.543,169.093 184.5,168.981C184.203,168.199 183.581,167.103 182.506,165.466C181.287,163.61 180.701,162.584 180.293,161.591C179.719,160.192 179.492,158.794 179.615,157.426C179.664,156.877 179.646,156.915 179.973,156.703C180.793,156.172 181.804,155.817 182.834,155.699C183.294,155.647 184.255,155.655 184.74,155.715C185.492,155.808 186.32,155.99 187.015,156.215C187.352,156.324 187.368,156.333 187.414,156.444C187.713,157.157 187.845,157.871 187.898,159.044C187.952,160.258 187.887,161.268 187.58,163.981C187.316,166.321 187.299,167.046 187.497,167.536C187.534,167.626 187.558,167.705 187.55,167.712C187.543,167.719 186.932,168.065 186.193,168.481C185.454,168.897 184.804,169.266 184.748,169.3L184.647,169.361L184.612,169.273Z" style="fill:rgb(211,234,242);stroke-width:0.03px;stroke:black;"/>
    </g>
    <g id="g3356" transform="matrix(1,0,0,1,84.2188,42.5628)">
        <g id="path3360" transform="matrix(1,0,0,1,-28.7002,-0.747402)">
            <path d="M240.428,132.765C243.515,130.33 247.2,131.342 249.148,132.006C251.04,135.282 248.684,142.942 249.519,143.628C251.096,144.72 254.158,144.672 255.642,143.486C256.227,143.019 253.323,134.52 254.297,132.433C255.41,131.723 261.95,130.868 263.806,132.576C265.145,136.712 259.214,144.68 259.167,148.135C259.335,152.799 264.316,167.015 264.177,180.013C263.806,182.601 262.832,184.71 259.167,184.757C255.969,183.808 255.642,181.911 255.457,180.013C255.097,177.213 255.874,155.82 255.828,153.069C255.503,151.019 255.039,149.084 252.673,149.084C250.901,149.084 250.401,149.748 249.241,152.12C248.611,156.333 249.89,174.416 249.334,180.583C248.947,182.366 247.757,185.231 245.252,185.137C243.308,185.333 240.428,182.859 240.613,178.97C240.639,167.551 245.901,153.163 245.716,147.945C245.952,143.094 239.222,139.596 240.428,132.765Z" style="fill:rgb(211,234,242);fill-rule:nonzero;stroke-width:1.26px;stroke:black;"/>
        </g>
        <path id="path3362" d="M228.547,144.523L226.945,143.52L227.177,143.359C227.633,143.044 227.725,142.74 227.619,141.902C227.545,141.32 227.397,140.587 226.884,138.277C226.242,135.383 226.004,133.802 226.05,132.751C226.075,132.173 226.082,132.155 226.292,132.083C226.554,131.993 227.142,131.849 227.54,131.778C229.919,131.35 232.565,131.39 233.894,131.873C234.203,131.985 234.531,132.168 234.552,132.238C234.65,132.57 234.68,133.54 234.607,134.011C234.426,135.187 234.071,136.364 233.406,137.998C233.094,138.765 232.835,139.347 232.008,141.152C230.982,143.391 230.522,144.477 230.27,145.253C230.221,145.404 230.174,145.527 230.165,145.527C230.157,145.527 229.429,145.075 228.547,144.523Z" style="fill:rgb(253,1,0);stroke-width:0.03px;stroke:black;"/>
    </g>
    <path id="path3368" d="M198.669,208.181L208.603,234.77L208.414,248.102M208.73,234.901L215.875,184.5" style="fill:none;stroke-width:1px;stroke:black;"/>
    <g id="text3374">
        <g transform="matrix(1,0,0,1,167.25,265)">
            <path d="M1.258,-11.477L2.828,-11.477L2.828,-6.734L8.797,-6.734L8.797,-11.477L10.367,-11.477L10.367,0L8.797,0L8.797,-5.367L2.828,-5.367L2.828,0L1.258,0L1.258,-11.477Z" style="fill:black;fill-rule:nonzero;"/>
            <path d="M17.824,-1.965C18.171,-2.671 18.344,-3.456 18.344,-4.32C18.344,-5.102 18.219,-5.737 17.969,-6.227C17.573,-6.997 16.891,-7.383 15.922,-7.383C15.063,-7.383 14.438,-7.055 14.047,-6.398C13.656,-5.742 13.461,-4.951 13.461,-4.023C13.461,-3.133 13.656,-2.391 14.047,-1.797C14.438,-1.203 15.057,-0.906 15.906,-0.906C16.839,-0.906 17.478,-1.259 17.824,-1.965ZM18.695,-7.531C19.44,-6.813 19.813,-5.755 19.813,-4.359C19.813,-3.01 19.484,-1.896 18.828,-1.016C18.172,-0.135 17.154,0.305 15.773,0.305C14.622,0.305 13.708,-0.085 13.031,-0.863C12.354,-1.642 12.016,-2.688 12.016,-4C12.016,-5.406 12.372,-6.526 13.086,-7.359C13.799,-8.193 14.758,-8.609 15.961,-8.609C17.039,-8.609 17.951,-8.25 18.695,-7.531Z" style="fill:black;fill-rule:nonzero;"/>
            <path d="M21.484,-8.367L22.875,-8.367L22.875,-7.18C23.208,-7.591 23.51,-7.891 23.781,-8.078C24.245,-8.396 24.771,-8.555 25.359,-8.555C26.026,-8.555 26.563,-8.391 26.969,-8.063C27.198,-7.875 27.406,-7.599 27.594,-7.234C27.906,-7.682 28.273,-8.014 28.695,-8.23C29.117,-8.447 29.591,-8.555 30.117,-8.555C31.242,-8.555 32.008,-8.148 32.414,-7.336C32.633,-6.898 32.742,-6.31 32.742,-5.57L32.742,0L31.281,0L31.281,-5.813C31.281,-6.37 31.142,-6.753 30.863,-6.961C30.585,-7.169 30.245,-7.273 29.844,-7.273C29.292,-7.273 28.816,-7.089 28.418,-6.719C28.02,-6.349 27.82,-5.732 27.82,-4.867L27.82,0L26.391,0L26.391,-5.461C26.391,-6.029 26.323,-6.443 26.188,-6.703C25.974,-7.094 25.576,-7.289 24.992,-7.289C24.461,-7.289 23.978,-7.083 23.543,-6.672C23.108,-6.26 22.891,-5.516 22.891,-4.438L22.891,0L21.484,0L21.484,-8.367Z" style="fill:black;fill-rule:nonzero;"/>
            <path d="M40.051,-1.965C40.397,-2.671 40.57,-3.456 40.57,-4.32C40.57,-5.102 40.445,-5.737 40.195,-6.227C39.799,-6.997 39.117,-7.383 38.148,-7.383C37.289,-7.383 36.664,-7.055 36.273,-6.398C35.883,-5.742 35.688,-4.951 35.688,-4.023C35.688,-3.133 35.883,-2.391 36.273,-1.797C36.664,-1.203 37.284,-0.906 38.133,-0.906C39.065,-0.906 39.704,-1.259 40.051,-1.965ZM40.922,-7.531C41.667,-6.813 42.039,-5.755 42.039,-4.359C42.039,-3.01 41.711,-1.896 41.055,-1.016C40.398,-0.135 39.38,0.305 38,0.305C36.849,0.305 35.935,-0.085 35.258,-0.863C34.581,-1.642 34.242,-2.688 34.242,-4C34.242,-5.406 34.599,-6.526 35.313,-7.359C36.026,-8.193 36.984,-8.609 38.188,-8.609C39.266,-8.609 40.177,-8.25 40.922,-7.531Z" style="fill:black;fill-rule:nonzero;"/>
            <rect x="43.75" y="-11.477" width="1.406" height="11.477" style="fill:black;fill-rule:nonzero;"/>
            <path d="M52.504,-1.965C52.85,-2.671 53.023,-3.456 53.023,-4.32C53.023,-5.102 52.898,-5.737 52.648,-6.227C52.253,-6.997 51.57,-7.383 50.602,-7.383C49.742,-7.383 49.117,-7.055 48.727,-6.398C48.336,-5.742 48.141,-4.951 48.141,-4.023C48.141,-3.133 48.336,-2.391 48.727,-1.797C49.117,-1.203 49.737,-0.906 50.586,-0.906C51.518,-0.906 52.158,-1.259 52.504,-1.965ZM53.375,-7.531C54.12,-6.813 54.492,-5.755 54.492,-4.359C54.492,-3.01 54.164,-1.896 53.508,-1.016C52.852,-0.135 51.833,0.305 50.453,0.305C49.302,0.305 48.388,-0.085 47.711,-0.863C47.034,-1.642 46.695,-2.688 46.695,-4C46.695,-5.406 47.052,-6.526 47.766,-7.359C48.479,-8.193 49.438,-8.609 50.641,-8.609C51.719,-8.609 52.63,-8.25 53.375,-7.531Z" style="fill:black;fill-rule:nonzero;"/>
            <path d="M60.836,-8.031C61.102,-7.849 61.372,-7.583 61.648,-7.234L61.648,-8.289L62.945,-8.289L62.945,-0.68C62.945,0.383 62.789,1.221 62.477,1.836C61.893,2.971 60.792,3.539 59.172,3.539C58.271,3.539 57.513,3.337 56.898,2.934C56.284,2.53 55.94,1.898 55.867,1.039L57.297,1.039C57.365,1.414 57.5,1.703 57.703,1.906C58.021,2.219 58.521,2.375 59.203,2.375C60.281,2.375 60.987,1.995 61.32,1.234C61.518,0.786 61.609,-0.013 61.594,-1.164C61.313,-0.737 60.974,-0.419 60.578,-0.211C60.182,-0.003 59.659,0.102 59.008,0.102C58.102,0.102 57.309,-0.22 56.629,-0.863C55.949,-1.507 55.609,-2.57 55.609,-4.055C55.609,-5.456 55.952,-6.549 56.637,-7.336C57.322,-8.122 58.148,-8.516 59.117,-8.516C59.773,-8.516 60.346,-8.354 60.836,-8.031ZM61.008,-6.523C60.581,-7.023 60.036,-7.273 59.375,-7.273C58.385,-7.273 57.708,-6.81 57.344,-5.883C57.151,-5.388 57.055,-4.74 57.055,-3.938C57.055,-2.995 57.246,-2.277 57.629,-1.785C58.012,-1.293 58.526,-1.047 59.172,-1.047C60.182,-1.047 60.893,-1.503 61.305,-2.414C61.534,-2.93 61.648,-3.531 61.648,-4.219C61.648,-5.255 61.435,-6.023 61.008,-6.523Z" style="fill:black;fill-rule:nonzero;"/>
            <path d="M70.301,-1.965C70.647,-2.671 70.82,-3.456 70.82,-4.32C70.82,-5.102 70.695,-5.737 70.445,-6.227C70.049,-6.997 69.367,-7.383 68.398,-7.383C67.539,-7.383 66.914,-7.055 66.523,-6.398C66.133,-5.742 65.938,-4.951 65.938,-4.023C65.938,-3.133 66.133,-2.391 66.523,-1.797C66.914,-1.203 67.534,-0.906 68.383,-0.906C69.315,-0.906 69.954,-1.259 70.301,-1.965ZM71.172,-7.531C71.917,-6.813 72.289,-5.755 72.289,-4.359C72.289,-3.01 71.961,-1.896 71.305,-1.016C70.648,-0.135 69.63,0.305 68.25,0.305C67.099,0.305 66.185,-0.085 65.508,-0.863C64.831,-1.642 64.492,-2.688 64.492,-4C64.492,-5.406 64.849,-6.526 65.563,-7.359C66.276,-8.193 67.234,-8.609 68.438,-8.609C69.516,-8.609 70.427,-8.25 71.172,-7.531Z" style="fill:black;fill-rule:nonzero;"/>
            <path d="M75.367,-8.367L75.367,-2.813C75.367,-2.385 75.435,-2.036 75.57,-1.766C75.82,-1.266 76.286,-1.016 76.969,-1.016C77.948,-1.016 78.615,-1.453 78.969,-2.328C79.161,-2.797 79.258,-3.44 79.258,-4.258L79.258,-8.367L80.664,-8.367L80.664,0L79.336,0L79.352,-1.234C79.169,-0.917 78.943,-0.648 78.672,-0.43C78.135,0.008 77.484,0.227 76.719,0.227C75.526,0.227 74.714,-0.172 74.281,-0.969C74.047,-1.396 73.93,-1.966 73.93,-2.68L73.93,-8.367L75.367,-8.367Z" style="fill:black;fill-rule:nonzero;"/>
            <path d="M83.695,-2.625C83.737,-2.156 83.854,-1.797 84.047,-1.547C84.401,-1.094 85.016,-0.867 85.891,-0.867C86.411,-0.867 86.87,-0.98 87.266,-1.207C87.661,-1.434 87.859,-1.784 87.859,-2.258C87.859,-2.617 87.701,-2.891 87.383,-3.078C87.18,-3.193 86.779,-3.326 86.18,-3.477L85.063,-3.758C84.349,-3.935 83.823,-4.133 83.484,-4.352C82.88,-4.732 82.578,-5.258 82.578,-5.93C82.578,-6.721 82.863,-7.362 83.434,-7.852C84.004,-8.341 84.771,-8.586 85.734,-8.586C86.995,-8.586 87.904,-8.216 88.461,-7.477C88.81,-7.008 88.979,-6.503 88.969,-5.961L87.641,-5.961C87.615,-6.279 87.503,-6.568 87.305,-6.828C86.982,-7.198 86.422,-7.383 85.625,-7.383C85.094,-7.383 84.691,-7.281 84.418,-7.078C84.145,-6.875 84.008,-6.607 84.008,-6.273C84.008,-5.909 84.188,-5.617 84.547,-5.398C84.755,-5.268 85.063,-5.154 85.469,-5.055L86.398,-4.828C87.409,-4.583 88.086,-4.346 88.43,-4.117C88.977,-3.758 89.25,-3.193 89.25,-2.422C89.25,-1.677 88.967,-1.034 88.402,-0.492C87.837,0.049 86.977,0.32 85.82,0.32C84.576,0.32 83.694,0.038 83.176,-0.527C82.658,-1.092 82.38,-1.792 82.344,-2.625L83.695,-2.625Z" style="fill:black;fill-rule:nonzero;"/>
        </g>
        <g transform="matrix(1,0,0,1,167.25,285)">
            <path d="M9.438,-10.641C10.24,-9.875 10.685,-9.005 10.773,-8.031L9.258,-8.031C9.086,-8.771 8.743,-9.357 8.23,-9.789C7.717,-10.221 6.997,-10.438 6.07,-10.438C4.94,-10.438 4.027,-10.04 3.332,-9.246C2.637,-8.452 2.289,-7.234 2.289,-5.594C2.289,-4.25 2.603,-3.16 3.23,-2.324C3.858,-1.488 4.794,-1.07 6.039,-1.07C7.185,-1.07 8.057,-1.51 8.656,-2.391C8.974,-2.854 9.211,-3.464 9.367,-4.219L10.883,-4.219C10.747,-3.01 10.299,-1.997 9.539,-1.18C8.628,-0.195 7.398,0.297 5.852,0.297C4.518,0.297 3.398,-0.107 2.492,-0.914C1.299,-1.982 0.703,-3.63 0.703,-5.859C0.703,-7.552 1.151,-8.94 2.047,-10.023C3.016,-11.201 4.352,-11.789 6.055,-11.789C7.508,-11.789 8.635,-11.406 9.438,-10.641Z" style="fill:black;fill-rule:nonzero;"/>
            <path d="M12.586,-11.516L13.992,-11.516L13.992,-7.234C14.326,-7.656 14.625,-7.953 14.891,-8.125C15.344,-8.422 15.909,-8.57 16.586,-8.57C17.799,-8.57 18.622,-8.146 19.055,-7.297C19.289,-6.833 19.406,-6.19 19.406,-5.367L19.406,0L17.961,0L17.961,-5.273C17.961,-5.888 17.883,-6.339 17.727,-6.625C17.471,-7.083 16.992,-7.313 16.289,-7.313C15.706,-7.313 15.177,-7.112 14.703,-6.711C14.229,-6.31 13.992,-5.552 13.992,-4.438L13.992,0L12.586,0L12.586,-11.516Z" style="fill:black;fill-rule:nonzero;"/>
            <path d="M21.523,-8.367L22.859,-8.367L22.859,-6.922C22.969,-7.203 23.237,-7.546 23.664,-7.949C24.091,-8.353 24.583,-8.555 25.141,-8.555C25.167,-8.555 25.211,-8.552 25.273,-8.547C25.336,-8.542 25.443,-8.531 25.594,-8.516L25.594,-7.031C25.51,-7.047 25.434,-7.057 25.363,-7.063C25.293,-7.068 25.216,-7.07 25.133,-7.07C24.424,-7.07 23.88,-6.842 23.5,-6.387C23.12,-5.931 22.93,-5.406 22.93,-4.813L22.93,0L21.523,0L21.523,-8.367Z" style="fill:black;fill-rule:nonzero;"/>
            <path d="M32.051,-1.965C32.397,-2.671 32.57,-3.456 32.57,-4.32C32.57,-5.102 32.445,-5.737 32.195,-6.227C31.799,-6.997 31.117,-7.383 30.148,-7.383C29.289,-7.383 28.664,-7.055 28.273,-6.398C27.883,-5.742 27.688,-4.951 27.688,-4.023C27.688,-3.133 27.883,-2.391 28.273,-1.797C28.664,-1.203 29.284,-0.906 30.133,-0.906C31.065,-0.906 31.704,-1.259 32.051,-1.965ZM32.922,-7.531C33.667,-6.813 34.039,-5.755 34.039,-4.359C34.039,-3.01 33.711,-1.896 33.055,-1.016C32.398,-0.135 31.38,0.305 30,0.305C28.849,0.305 27.935,-0.085 27.258,-0.863C26.581,-1.642 26.242,-2.688 26.242,-4C26.242,-5.406 26.599,-6.526 27.313,-7.359C28.026,-8.193 28.984,-8.609 30.188,-8.609C31.266,-8.609 32.177,-8.25 32.922,-7.531Z" style="fill:black;fill-rule:nonzero;"/>
            <path d="M35.711,-8.367L37.102,-8.367L37.102,-7.18C37.435,-7.591 37.737,-7.891 38.008,-8.078C38.471,-8.396 38.997,-8.555 39.586,-8.555C40.253,-8.555 40.789,-8.391 41.195,-8.063C41.424,-7.875 41.633,-7.599 41.82,-7.234C42.133,-7.682 42.5,-8.014 42.922,-8.23C43.344,-8.447 43.818,-8.555 44.344,-8.555C45.469,-8.555 46.234,-8.148 46.641,-7.336C46.859,-6.898 46.969,-6.31 46.969,-5.57L46.969,0L45.508,0L45.508,-5.813C45.508,-6.37 45.368,-6.753 45.09,-6.961C44.811,-7.169 44.471,-7.273 44.07,-7.273C43.518,-7.273 43.043,-7.089 42.645,-6.719C42.246,-6.349 42.047,-5.732 42.047,-4.867L42.047,0L40.617,0L40.617,-5.461C40.617,-6.029 40.549,-6.443 40.414,-6.703C40.201,-7.094 39.802,-7.289 39.219,-7.289C38.688,-7.289 38.204,-7.083 37.77,-6.672C37.335,-6.26 37.117,-5.516 37.117,-4.438L37.117,0L35.711,0L35.711,-8.367Z" style="fill:black;fill-rule:nonzero;"/>
            <path d="M54.277,-1.965C54.624,-2.671 54.797,-3.456 54.797,-4.32C54.797,-5.102 54.672,-5.737 54.422,-6.227C54.026,-6.997 53.344,-7.383 52.375,-7.383C51.516,-7.383 50.891,-7.055 50.5,-6.398C50.109,-5.742 49.914,-4.951 49.914,-4.023C49.914,-3.133 50.109,-2.391 50.5,-1.797C50.891,-1.203 51.51,-0.906 52.359,-0.906C53.292,-0.906 53.931,-1.259 54.277,-1.965ZM55.148,-7.531C55.893,-6.813 56.266,-5.755 56.266,-4.359C56.266,-3.01 55.938,-1.896 55.281,-1.016C54.625,-0.135 53.607,0.305 52.227,0.305C51.076,0.305 50.161,-0.085 49.484,-0.863C48.807,-1.642 48.469,-2.688 48.469,-4C48.469,-5.406 48.826,-6.526 49.539,-7.359C50.253,-8.193 51.211,-8.609 52.414,-8.609C53.492,-8.609 54.404,-8.25 55.148,-7.531Z" style="fill:black;fill-rule:nonzero;"/>
            <path d="M58.773,-2.625C58.815,-2.156 58.932,-1.797 59.125,-1.547C59.479,-1.094 60.094,-0.867 60.969,-0.867C61.49,-0.867 61.948,-0.98 62.344,-1.207C62.74,-1.434 62.938,-1.784 62.938,-2.258C62.938,-2.617 62.779,-2.891 62.461,-3.078C62.258,-3.193 61.857,-3.326 61.258,-3.477L60.141,-3.758C59.427,-3.935 58.901,-4.133 58.563,-4.352C57.958,-4.732 57.656,-5.258 57.656,-5.93C57.656,-6.721 57.941,-7.362 58.512,-7.852C59.082,-8.341 59.849,-8.586 60.813,-8.586C62.073,-8.586 62.982,-8.216 63.539,-7.477C63.888,-7.008 64.057,-6.503 64.047,-5.961L62.719,-5.961C62.693,-6.279 62.581,-6.568 62.383,-6.828C62.06,-7.198 61.5,-7.383 60.703,-7.383C60.172,-7.383 59.77,-7.281 59.496,-7.078C59.223,-6.875 59.086,-6.607 59.086,-6.273C59.086,-5.909 59.266,-5.617 59.625,-5.398C59.833,-5.268 60.141,-5.154 60.547,-5.055L61.477,-4.828C62.487,-4.583 63.164,-4.346 63.508,-4.117C64.055,-3.758 64.328,-3.193 64.328,-2.422C64.328,-1.677 64.046,-1.034 63.48,-0.492C62.915,0.049 62.055,0.32 60.898,0.32C59.654,0.32 58.772,0.038 58.254,-0.527C57.736,-1.092 57.458,-1.792 57.422,-2.625L58.773,-2.625Z" style="fill:black;fill-rule:nonzero;"/>
            <path d="M71.176,-1.965C71.522,-2.671 71.695,-3.456 71.695,-4.32C71.695,-5.102 71.57,-5.737 71.32,-6.227C70.924,-6.997 70.242,-7.383 69.273,-7.383C68.414,-7.383 67.789,-7.055 67.398,-6.398C67.008,-5.742 66.813,-4.951 66.813,-4.023C66.813,-3.133 67.008,-2.391 67.398,-1.797C67.789,-1.203 68.409,-0.906 69.258,-0.906C70.19,-0.906 70.829,-1.259 71.176,-1.965ZM72.047,-7.531C72.792,-6.813 73.164,-5.755 73.164,-4.359C73.164,-3.01 72.836,-1.896 72.18,-1.016C71.523,-0.135 70.505,0.305 69.125,0.305C67.974,0.305 67.06,-0.085 66.383,-0.863C65.706,-1.642 65.367,-2.688 65.367,-4C65.367,-5.406 65.724,-6.526 66.438,-7.359C67.151,-8.193 68.109,-8.609 69.313,-8.609C70.391,-8.609 71.302,-8.25 72.047,-7.531Z" style="fill:black;fill-rule:nonzero;"/>
            <path d="M74.836,-8.367L76.227,-8.367L76.227,-7.18C76.56,-7.591 76.862,-7.891 77.133,-8.078C77.596,-8.396 78.122,-8.555 78.711,-8.555C79.378,-8.555 79.914,-8.391 80.32,-8.063C80.549,-7.875 80.758,-7.599 80.945,-7.234C81.258,-7.682 81.625,-8.014 82.047,-8.23C82.469,-8.447 82.943,-8.555 83.469,-8.555C84.594,-8.555 85.359,-8.148 85.766,-7.336C85.984,-6.898 86.094,-6.31 86.094,-5.57L86.094,0L84.633,0L84.633,-5.813C84.633,-6.37 84.493,-6.753 84.215,-6.961C83.936,-7.169 83.596,-7.273 83.195,-7.273C82.643,-7.273 82.168,-7.089 81.77,-6.719C81.371,-6.349 81.172,-5.732 81.172,-4.867L81.172,0L79.742,0L79.742,-5.461C79.742,-6.029 79.674,-6.443 79.539,-6.703C79.326,-7.094 78.927,-7.289 78.344,-7.289C77.813,-7.289 77.329,-7.083 76.895,-6.672C76.46,-6.26 76.242,-5.516 76.242,-4.438L76.242,0L74.836,0L74.836,-8.367Z" style="fill:black;fill-rule:nonzero;"/>
            <path d="M93.375,-8.137C93.932,-7.858 94.357,-7.497 94.648,-7.055C94.93,-6.633 95.117,-6.141 95.211,-5.578C95.294,-5.193 95.336,-4.578 95.336,-3.734L89.203,-3.734C89.229,-2.885 89.43,-2.204 89.805,-1.691C90.18,-1.178 90.76,-0.922 91.547,-0.922C92.281,-0.922 92.867,-1.164 93.305,-1.648C93.555,-1.93 93.732,-2.255 93.836,-2.625L95.219,-2.625C95.182,-2.318 95.061,-1.975 94.855,-1.598C94.65,-1.22 94.419,-0.911 94.164,-0.672C93.737,-0.255 93.208,0.026 92.578,0.172C92.24,0.255 91.857,0.297 91.43,0.297C90.388,0.297 89.505,-0.082 88.781,-0.84C88.057,-1.598 87.695,-2.659 87.695,-4.023C87.695,-5.367 88.06,-6.458 88.789,-7.297C89.518,-8.135 90.471,-8.555 91.648,-8.555C92.242,-8.555 92.818,-8.415 93.375,-8.137ZM93.891,-4.852C93.833,-5.461 93.701,-5.948 93.492,-6.313C93.107,-6.99 92.464,-7.328 91.563,-7.328C90.917,-7.328 90.375,-7.095 89.938,-6.629C89.5,-6.163 89.268,-5.57 89.242,-4.852L93.891,-4.852Z" style="fill:black;fill-rule:nonzero;"/>
            <path d="M97.898,-2.625C97.94,-2.156 98.057,-1.797 98.25,-1.547C98.604,-1.094 99.219,-0.867 100.094,-0.867C100.615,-0.867 101.073,-0.98 101.469,-1.207C101.865,-1.434 102.063,-1.784 102.063,-2.258C102.063,-2.617 101.904,-2.891 101.586,-3.078C101.383,-3.193 100.982,-3.326 100.383,-3.477L99.266,-3.758C98.552,-3.935 98.026,-4.133 97.688,-4.352C97.083,-4.732 96.781,-5.258 96.781,-5.93C96.781,-6.721 97.066,-7.362 97.637,-7.852C98.207,-8.341 98.974,-8.586 99.938,-8.586C101.198,-8.586 102.107,-8.216 102.664,-7.477C103.013,-7.008 103.182,-6.503 103.172,-5.961L101.844,-5.961C101.818,-6.279 101.706,-6.568 101.508,-6.828C101.185,-7.198 100.625,-7.383 99.828,-7.383C99.297,-7.383 98.895,-7.281 98.621,-7.078C98.348,-6.875 98.211,-6.607 98.211,-6.273C98.211,-5.909 98.391,-5.617 98.75,-5.398C98.958,-5.268 99.266,-5.154 99.672,-5.055L100.602,-4.828C101.612,-4.583 102.289,-4.346 102.633,-4.117C103.18,-3.758 103.453,-3.193 103.453,-2.422C103.453,-1.677 103.171,-1.034 102.605,-0.492C102.04,0.049 101.18,0.32 100.023,0.32C98.779,0.32 97.897,0.038 97.379,-0.527C96.861,-1.092 96.583,-1.792 96.547,-2.625L97.898,-2.625Z" style="fill:black;fill-rule:nonzero;"/>
        </g>
    </g>
    <g transform="matrix(1,0,0,1,320.91,260.449)">
        <g id="text3386">
            <path d="M1.18,-11.477L3.406,-11.477L6.703,-1.773L9.977,-11.477L12.18,-11.477L12.18,0L10.703,0L10.703,-6.773C10.703,-7.008 10.708,-7.396 10.719,-7.938C10.729,-8.479 10.734,-9.06 10.734,-9.68L7.461,0L5.922,0L2.625,-9.68L2.625,-9.328C2.625,-9.047 2.632,-8.618 2.645,-8.043C2.658,-7.467 2.664,-7.044 2.664,-6.773L2.664,0L1.18,0L1.18,-11.477Z" style="fill:black;fill-rule:nonzero;"/>
            <path d="M19.57,-8.137C20.128,-7.858 20.552,-7.497 20.844,-7.055C21.125,-6.633 21.313,-6.141 21.406,-5.578C21.49,-5.193 21.531,-4.578 21.531,-3.734L15.398,-3.734C15.424,-2.885 15.625,-2.204 16,-1.691C16.375,-1.178 16.956,-0.922 17.742,-0.922C18.477,-0.922 19.063,-1.164 19.5,-1.648C19.75,-1.93 19.927,-2.255 20.031,-2.625L21.414,-2.625C21.378,-2.318 21.257,-1.975 21.051,-1.598C20.845,-1.22 20.615,-0.911 20.359,-0.672C19.932,-0.255 19.404,0.026 18.773,0.172C18.435,0.255 18.052,0.297 17.625,0.297C16.583,0.297 15.701,-0.082 14.977,-0.84C14.253,-1.598 13.891,-2.659 13.891,-4.023C13.891,-5.367 14.255,-6.458 14.984,-7.297C15.714,-8.135 16.667,-8.555 17.844,-8.555C18.438,-8.555 19.013,-8.415 19.57,-8.137ZM20.086,-4.852C20.029,-5.461 19.896,-5.948 19.688,-6.313C19.302,-6.99 18.659,-7.328 17.758,-7.328C17.112,-7.328 16.57,-7.095 16.133,-6.629C15.695,-6.163 15.464,-5.57 15.438,-4.852L20.086,-4.852Z" style="fill:black;fill-rule:nonzero;"/>
            <path d="M23.258,-8.328L24.688,-8.328L24.688,0L23.258,0L23.258,-8.328ZM23.258,-11.477L24.688,-11.477L24.688,-9.883L23.258,-9.883L23.258,-11.477Z" style="fill:black;fill-rule:nonzero;"/>
            <path d="M32.051,-1.965C32.397,-2.671 32.57,-3.456 32.57,-4.32C32.57,-5.102 32.445,-5.737 32.195,-6.227C31.799,-6.997 31.117,-7.383 30.148,-7.383C29.289,-7.383 28.664,-7.055 28.273,-6.398C27.883,-5.742 27.688,-4.951 27.688,-4.023C27.688,-3.133 27.883,-2.391 28.273,-1.797C28.664,-1.203 29.284,-0.906 30.133,-0.906C31.065,-0.906 31.704,-1.259 32.051,-1.965ZM32.922,-7.531C33.667,-6.813 34.039,-5.755 34.039,-4.359C34.039,-3.01 33.711,-1.896 33.055,-1.016C32.398,-0.135 31.38,0.305 30,0.305C28.849,0.305 27.935,-0.085 27.258,-0.863C26.581,-1.642 26.242,-2.688 26.242,-4C26.242,-5.406 26.599,-6.526 27.313,-7.359C28.026,-8.193 28.984,-8.609 30.188,-8.609C31.266,-8.609 32.177,-8.25 32.922,-7.531Z" style="fill:black;fill-rule:nonzero;"/>
            <path d="M36.547,-2.625C36.589,-2.156 36.706,-1.797 36.898,-1.547C37.253,-1.094 37.867,-0.867 38.742,-0.867C39.263,-0.867 39.721,-0.98 40.117,-1.207C40.513,-1.434 40.711,-1.784 40.711,-2.258C40.711,-2.617 40.552,-2.891 40.234,-3.078C40.031,-3.193 39.63,-3.326 39.031,-3.477L37.914,-3.758C37.201,-3.935 36.674,-4.133 36.336,-4.352C35.732,-4.732 35.43,-5.258 35.43,-5.93C35.43,-6.721 35.715,-7.362 36.285,-7.852C36.855,-8.341 37.622,-8.586 38.586,-8.586C39.846,-8.586 40.755,-8.216 41.313,-7.477C41.661,-7.008 41.831,-6.503 41.82,-5.961L40.492,-5.961C40.466,-6.279 40.354,-6.568 40.156,-6.828C39.833,-7.198 39.273,-7.383 38.477,-7.383C37.945,-7.383 37.543,-7.281 37.27,-7.078C36.996,-6.875 36.859,-6.607 36.859,-6.273C36.859,-5.909 37.039,-5.617 37.398,-5.398C37.607,-5.268 37.914,-5.154 38.32,-5.055L39.25,-4.828C40.26,-4.583 40.938,-4.346 41.281,-4.117C41.828,-3.758 42.102,-3.193 42.102,-2.422C42.102,-1.677 41.819,-1.034 41.254,-0.492C40.689,0.049 39.828,0.32 38.672,0.32C37.427,0.32 36.546,0.038 36.027,-0.527C35.509,-1.092 35.232,-1.792 35.195,-2.625L36.547,-2.625Z" style="fill:black;fill-rule:nonzero;"/>
            <path d="M43.711,-8.328L45.141,-8.328L45.141,0L43.711,0L43.711,-8.328ZM43.711,-11.477L45.141,-11.477L45.141,-9.883L43.711,-9.883L43.711,-11.477Z" style="fill:black;fill-rule:nonzero;"/>
            <path d="M48.102,-2.625C48.143,-2.156 48.26,-1.797 48.453,-1.547C48.807,-1.094 49.422,-0.867 50.297,-0.867C50.818,-0.867 51.276,-0.98 51.672,-1.207C52.068,-1.434 52.266,-1.784 52.266,-2.258C52.266,-2.617 52.107,-2.891 51.789,-3.078C51.586,-3.193 51.185,-3.326 50.586,-3.477L49.469,-3.758C48.755,-3.935 48.229,-4.133 47.891,-4.352C47.286,-4.732 46.984,-5.258 46.984,-5.93C46.984,-6.721 47.27,-7.362 47.84,-7.852C48.41,-8.341 49.177,-8.586 50.141,-8.586C51.401,-8.586 52.31,-8.216 52.867,-7.477C53.216,-7.008 53.385,-6.503 53.375,-5.961L52.047,-5.961C52.021,-6.279 51.909,-6.568 51.711,-6.828C51.388,-7.198 50.828,-7.383 50.031,-7.383C49.5,-7.383 49.098,-7.281 48.824,-7.078C48.551,-6.875 48.414,-6.607 48.414,-6.273C48.414,-5.909 48.594,-5.617 48.953,-5.398C49.161,-5.268 49.469,-5.154 49.875,-5.055L50.805,-4.828C51.815,-4.583 52.492,-4.346 52.836,-4.117C53.383,-3.758 53.656,-3.193 53.656,-2.422C53.656,-1.677 53.374,-1.034 52.809,-0.492C52.243,0.049 51.383,0.32 50.227,0.32C48.982,0.32 48.1,0.038 47.582,-0.527C47.064,-1.092 46.786,-1.792 46.75,-2.625L48.102,-2.625Z" style="fill:black;fill-rule:nonzero;"/>
            <rect x="60.25" y="-11.477" width="1.57" height="11.477" style="fill:black;fill-rule:nonzero;"/>
            <rect x="64.695" y="-11.477" width="1.57" height="11.477" style="fill:black;fill-rule:nonzero;"/>
        </g>
    </g>
    <g id="text3390">
        <g transform="matrix(1,0,0,1,294.978,57.2808)">
            <path d="M4.922,-1.162C5.382,-1.162 5.76,-1.21 6.057,-1.306C6.585,-1.483 7.018,-1.825 7.355,-2.331C7.624,-2.737 7.818,-3.256 7.937,-3.89C8.005,-4.268 8.039,-4.619 8.039,-4.942C8.039,-6.187 7.792,-7.153 7.297,-7.841C6.803,-8.529 6.007,-8.873 4.908,-8.873L2.495,-8.873L2.495,-1.162L4.922,-1.162ZM1.128,-10.042L5.195,-10.042C6.576,-10.042 7.647,-9.552 8.408,-8.572C9.087,-7.688 9.427,-6.556 9.427,-5.175C9.427,-4.108 9.226,-3.145 8.825,-2.283C8.119,-0.761 6.904,0 5.182,0L1.128,0L1.128,-10.042Z" style="fill:black;fill-rule:nonzero;"/>
            <path d="M12.346,-1.107C12.605,-0.902 12.913,-0.8 13.269,-0.8C13.701,-0.8 14.121,-0.9 14.526,-1.101C15.21,-1.433 15.552,-1.978 15.552,-2.734L15.552,-3.726C15.401,-3.63 15.208,-3.55 14.971,-3.486C14.734,-3.423 14.501,-3.377 14.273,-3.35L13.528,-3.254C13.082,-3.195 12.747,-3.101 12.523,-2.974C12.145,-2.759 11.956,-2.418 11.956,-1.948C11.956,-1.593 12.086,-1.313 12.346,-1.107ZM14.937,-4.437C15.219,-4.473 15.408,-4.591 15.504,-4.792C15.559,-4.901 15.586,-5.059 15.586,-5.264C15.586,-5.683 15.437,-5.987 15.138,-6.176C14.84,-6.365 14.412,-6.46 13.856,-6.46C13.214,-6.46 12.758,-6.287 12.489,-5.94C12.339,-5.749 12.241,-5.464 12.195,-5.086L11.047,-5.086C11.07,-5.988 11.362,-6.616 11.925,-6.969C12.488,-7.322 13.141,-7.499 13.884,-7.499C14.745,-7.499 15.445,-7.335 15.982,-7.007C16.516,-6.679 16.782,-6.168 16.782,-5.476L16.782,-1.258C16.782,-1.13 16.808,-1.028 16.861,-0.95C16.913,-0.873 17.024,-0.834 17.192,-0.834C17.247,-0.834 17.309,-0.837 17.377,-0.844C17.445,-0.851 17.518,-0.861 17.596,-0.875L17.596,0.034C17.404,0.089 17.258,0.123 17.158,0.137C17.058,0.15 16.921,0.157 16.748,0.157C16.324,0.157 16.017,0.007 15.825,-0.294C15.725,-0.453 15.654,-0.679 15.613,-0.971C15.363,-0.643 15.003,-0.358 14.533,-0.116C14.064,0.125 13.547,0.246 12.981,0.246C12.302,0.246 11.748,0.04 11.317,-0.373C10.886,-0.785 10.671,-1.301 10.671,-1.921C10.671,-2.6 10.883,-3.126 11.307,-3.5C11.73,-3.874 12.286,-4.104 12.975,-4.19L14.937,-4.437Z" style="fill:black;fill-rule:nonzero;"/>
            <path d="M20.029,-7.321L20.029,-2.461C20.029,-2.087 20.089,-1.782 20.207,-1.545C20.426,-1.107 20.834,-0.889 21.431,-0.889C22.287,-0.889 22.871,-1.271 23.181,-2.037C23.349,-2.447 23.434,-3.01 23.434,-3.726L23.434,-7.321L24.664,-7.321L24.664,0L23.502,0L23.516,-1.08C23.356,-0.802 23.158,-0.567 22.921,-0.376C22.451,0.007 21.882,0.198 21.212,0.198C20.168,0.198 19.457,-0.15 19.079,-0.848C18.874,-1.221 18.771,-1.72 18.771,-2.345L18.771,-7.321L20.029,-7.321Z" style="fill:black;fill-rule:nonzero;"/>
            <path d="M30.673,-7.027C30.905,-6.868 31.142,-6.635 31.384,-6.33L31.384,-7.253L32.519,-7.253L32.519,-0.595C32.519,0.335 32.382,1.069 32.108,1.606C31.598,2.6 30.634,3.097 29.217,3.097C28.428,3.097 27.765,2.92 27.228,2.567C26.69,2.214 26.389,1.661 26.325,0.909L27.576,0.909C27.635,1.237 27.754,1.49 27.932,1.668C28.21,1.941 28.647,2.078 29.244,2.078C30.188,2.078 30.805,1.745 31.097,1.08C31.27,0.688 31.35,-0.011 31.336,-1.019C31.09,-0.645 30.794,-0.367 30.447,-0.185C30.101,-0.002 29.643,0.089 29.073,0.089C28.28,0.089 27.586,-0.193 26.992,-0.755C26.397,-1.318 26.1,-2.249 26.1,-3.548C26.1,-4.774 26.399,-5.731 26.999,-6.419C27.598,-7.107 28.321,-7.451 29.169,-7.451C29.743,-7.451 30.244,-7.31 30.673,-7.027ZM30.823,-5.708C30.45,-6.146 29.973,-6.364 29.395,-6.364C28.529,-6.364 27.936,-5.959 27.617,-5.147C27.449,-4.715 27.364,-4.147 27.364,-3.445C27.364,-2.62 27.532,-1.993 27.867,-1.562C28.202,-1.131 28.652,-0.916 29.217,-0.916C30.101,-0.916 30.723,-1.315 31.083,-2.112C31.284,-2.563 31.384,-3.09 31.384,-3.691C31.384,-4.598 31.197,-5.271 30.823,-5.708Z" style="fill:black;fill-rule:nonzero;"/>
            <path d="M34.371,-10.076L35.602,-10.076L35.602,-6.33C35.893,-6.699 36.155,-6.959 36.388,-7.109C36.784,-7.369 37.279,-7.499 37.871,-7.499C38.933,-7.499 39.653,-7.128 40.031,-6.385C40.236,-5.979 40.339,-5.416 40.339,-4.696L40.339,0L39.074,0L39.074,-4.614C39.074,-5.152 39.006,-5.546 38.869,-5.797C38.646,-6.198 38.227,-6.398 37.611,-6.398C37.101,-6.398 36.638,-6.223 36.224,-5.872C35.809,-5.521 35.602,-4.858 35.602,-3.883L35.602,0L34.371,0L34.371,-10.076Z" style="fill:black;fill-rule:nonzero;"/>
            <path d="M42.403,-9.365L43.647,-9.365L43.647,-7.321L44.816,-7.321L44.816,-6.316L43.647,-6.316L43.647,-1.538C43.647,-1.283 43.734,-1.112 43.907,-1.025C44.003,-0.975 44.162,-0.95 44.386,-0.95C44.445,-0.95 44.509,-0.951 44.577,-0.954C44.646,-0.956 44.725,-0.962 44.816,-0.971L44.816,0C44.675,0.041 44.528,0.071 44.375,0.089C44.223,0.107 44.058,0.116 43.88,0.116C43.306,0.116 42.916,-0.031 42.711,-0.325C42.506,-0.619 42.403,-1 42.403,-1.47L42.403,-6.316L41.412,-6.316L41.412,-7.321L42.403,-7.321L42.403,-9.365Z" style="fill:black;fill-rule:nonzero;"/>
            <path d="M50.606,-7.12C51.094,-6.876 51.465,-6.56 51.721,-6.173C51.967,-5.804 52.131,-5.373 52.213,-4.881C52.286,-4.544 52.322,-4.006 52.322,-3.268L46.956,-3.268C46.979,-2.525 47.154,-1.929 47.482,-1.48C47.811,-1.031 48.319,-0.807 49.007,-0.807C49.649,-0.807 50.162,-1.019 50.545,-1.442C50.764,-1.688 50.919,-1.973 51.01,-2.297L52.22,-2.297C52.188,-2.028 52.082,-1.728 51.902,-1.398C51.722,-1.068 51.52,-0.798 51.297,-0.588C50.923,-0.223 50.461,0.023 49.909,0.15C49.613,0.223 49.278,0.26 48.904,0.26C47.993,0.26 47.22,-0.072 46.587,-0.735C45.953,-1.398 45.637,-2.326 45.637,-3.521C45.637,-4.696 45.956,-5.651 46.594,-6.385C47.232,-7.118 48.066,-7.485 49.096,-7.485C49.615,-7.485 50.119,-7.363 50.606,-7.12ZM51.058,-4.245C51.007,-4.778 50.891,-5.204 50.709,-5.523C50.372,-6.116 49.809,-6.412 49.021,-6.412C48.455,-6.412 47.981,-6.208 47.599,-5.8C47.216,-5.392 47.013,-4.874 46.99,-4.245L51.058,-4.245Z" style="fill:black;fill-rule:nonzero;"/>
            <path d="M53.867,-7.321L55.036,-7.321L55.036,-6.057C55.132,-6.303 55.367,-6.602 55.74,-6.956C56.114,-7.309 56.545,-7.485 57.032,-7.485C57.055,-7.485 57.094,-7.483 57.148,-7.479C57.203,-7.474 57.297,-7.465 57.429,-7.451L57.429,-6.152C57.356,-6.166 57.289,-6.175 57.227,-6.18C57.166,-6.184 57.098,-6.187 57.025,-6.187C56.406,-6.187 55.929,-5.987 55.597,-5.588C55.264,-5.19 55.098,-4.73 55.098,-4.211L55.098,0L53.867,0L53.867,-7.321Z" style="fill:black;fill-rule:nonzero;"/>
        </g>
        <g transform="matrix(1,0,0,1,294.978,72.2808)">
            <path d="M1.066,-10.042L2.673,-10.042L7.745,-1.907L7.745,-10.042L9.037,-10.042L9.037,0L7.513,0L2.365,-8.128L2.365,0L1.066,0L1.066,-10.042Z" style="fill:black;fill-rule:nonzero;"/>
            <path d="M12.243,-7.321L12.243,-2.461C12.243,-2.087 12.302,-1.782 12.421,-1.545C12.64,-1.107 13.048,-0.889 13.645,-0.889C14.501,-0.889 15.085,-1.271 15.395,-2.037C15.563,-2.447 15.647,-3.01 15.647,-3.726L15.647,-7.321L16.878,-7.321L16.878,0L15.716,0L15.729,-1.08C15.57,-0.802 15.372,-0.567 15.135,-0.376C14.665,0.007 14.096,0.198 13.426,0.198C12.382,0.198 11.671,-0.15 11.293,-0.848C11.088,-1.221 10.985,-1.72 10.985,-2.345L10.985,-7.321L12.243,-7.321Z" style="fill:black;fill-rule:nonzero;"/>
            <path d="M23.635,-6.932C24.153,-6.531 24.464,-5.84 24.568,-4.86L23.372,-4.86C23.299,-5.312 23.133,-5.686 22.873,-5.985C22.613,-6.283 22.196,-6.433 21.622,-6.433C20.838,-6.433 20.278,-6.05 19.94,-5.284C19.722,-4.787 19.612,-4.174 19.612,-3.445C19.612,-2.712 19.767,-2.094 20.077,-1.593C20.387,-1.091 20.875,-0.841 21.54,-0.841C22.05,-0.841 22.455,-0.997 22.753,-1.309C23.052,-1.621 23.258,-2.049 23.372,-2.591L24.568,-2.591C24.432,-1.62 24.09,-0.91 23.543,-0.461C22.996,-0.013 22.297,0.212 21.444,0.212C20.487,0.212 19.724,-0.138 19.154,-0.837C18.585,-1.537 18.3,-2.411 18.3,-3.459C18.3,-4.744 18.612,-5.744 19.236,-6.46C19.861,-7.175 20.656,-7.533 21.622,-7.533C22.447,-7.533 23.118,-7.333 23.635,-6.932Z" style="fill:black;fill-rule:nonzero;"/>
            <rect x="25.833" y="-10.042" width="1.23" height="10.042" style="fill:black;fill-rule:nonzero;"/>
            <path d="M33.469,-7.12C33.956,-6.876 34.328,-6.56 34.583,-6.173C34.829,-5.804 34.993,-5.373 35.075,-4.881C35.148,-4.544 35.185,-4.006 35.185,-3.268L29.818,-3.268C29.841,-2.525 30.017,-1.929 30.345,-1.48C30.673,-1.031 31.181,-0.807 31.869,-0.807C32.512,-0.807 33.024,-1.019 33.407,-1.442C33.626,-1.688 33.781,-1.973 33.872,-2.297L35.082,-2.297C35.05,-2.028 34.944,-1.728 34.764,-1.398C34.584,-1.068 34.382,-0.798 34.159,-0.588C33.785,-0.223 33.323,0.023 32.771,0.15C32.475,0.223 32.14,0.26 31.767,0.26C30.855,0.26 30.083,-0.072 29.449,-0.735C28.816,-1.398 28.499,-2.326 28.499,-3.521C28.499,-4.696 28.818,-5.651 29.456,-6.385C30.094,-7.118 30.928,-7.485 31.958,-7.485C32.478,-7.485 32.981,-7.363 33.469,-7.12ZM33.92,-4.245C33.87,-4.778 33.754,-5.204 33.571,-5.523C33.234,-6.116 32.671,-6.412 31.883,-6.412C31.318,-6.412 30.844,-6.208 30.461,-5.8C30.078,-5.392 29.875,-4.874 29.853,-4.245L33.92,-4.245Z" style="fill:black;fill-rule:nonzero;"/>
            <path d="M36.695,-7.287L37.946,-7.287L37.946,0L36.695,0L36.695,-7.287ZM36.695,-10.042L37.946,-10.042L37.946,-8.647L36.695,-8.647L36.695,-10.042Z" style="fill:black;fill-rule:nonzero;"/>
        </g>
    </g>
    <g id="text3396">
        <g transform="matrix(1,0,0,1,389.303,12.3089)">
            <path d="M4.922,-1.162C5.382,-1.162 5.76,-1.21 6.057,-1.306C6.585,-1.483 7.018,-1.825 7.355,-2.331C7.624,-2.737 7.818,-3.256 7.937,-3.89C8.005,-4.268 8.039,-4.619 8.039,-4.942C8.039,-6.187 7.792,-7.153 7.297,-7.841C6.803,-8.529 6.007,-8.873 4.908,-8.873L2.495,-8.873L2.495,-1.162L4.922,-1.162ZM1.128,-10.042L5.195,-10.042C6.576,-10.042 7.647,-9.552 8.408,-8.572C9.087,-7.688 9.427,-6.556 9.427,-5.175C9.427,-4.108 9.226,-3.145 8.825,-2.283C8.119,-0.761 6.904,0 5.182,0L1.128,0L1.128,-10.042Z" style="fill:black;fill-rule:nonzero;"/>
            <path d="M12.346,-1.107C12.605,-0.902 12.913,-0.8 13.269,-0.8C13.701,-0.8 14.121,-0.9 14.526,-1.101C15.21,-1.433 15.552,-1.978 15.552,-2.734L15.552,-3.726C15.401,-3.63 15.208,-3.55 14.971,-3.486C14.734,-3.423 14.501,-3.377 14.273,-3.35L13.528,-3.254C13.082,-3.195 12.747,-3.101 12.523,-2.974C12.145,-2.759 11.956,-2.418 11.956,-1.948C11.956,-1.593 12.086,-1.313 12.346,-1.107ZM14.937,-4.437C15.219,-4.473 15.408,-4.591 15.504,-4.792C15.559,-4.901 15.586,-5.059 15.586,-5.264C15.586,-5.683 15.437,-5.987 15.138,-6.176C14.84,-6.365 14.412,-6.46 13.856,-6.46C13.214,-6.46 12.758,-6.287 12.489,-5.94C12.339,-5.749 12.241,-5.464 12.195,-5.086L11.047,-5.086C11.07,-5.988 11.362,-6.616 11.925,-6.969C12.488,-7.322 13.141,-7.499 13.884,-7.499C14.745,-7.499 15.445,-7.335 15.982,-7.007C16.516,-6.679 16.782,-6.168 16.782,-5.476L16.782,-1.258C16.782,-1.13 16.808,-1.028 16.861,-0.95C16.913,-0.873 17.024,-0.834 17.192,-0.834C17.247,-0.834 17.309,-0.837 17.377,-0.844C17.445,-0.851 17.518,-0.861 17.596,-0.875L17.596,0.034C17.404,0.089 17.258,0.123 17.158,0.137C17.058,0.15 16.921,0.157 16.748,0.157C16.324,0.157 16.017,0.007 15.825,-0.294C15.725,-0.453 15.654,-0.679 15.613,-0.971C15.363,-0.643 15.003,-0.358 14.533,-0.116C14.064,0.125 13.547,0.246 12.981,0.246C12.302,0.246 11.748,0.04 11.317,-0.373C10.886,-0.785 10.671,-1.301 10.671,-1.921C10.671,-2.6 10.883,-3.126 11.307,-3.5C11.73,-3.874 12.286,-4.104 12.975,-4.19L14.937,-4.437Z" style="fill:black;fill-rule:nonzero;"/>
            <path d="M20.029,-7.321L20.029,-2.461C20.029,-2.087 20.089,-1.782 20.207,-1.545C20.426,-1.107 20.834,-0.889 21.431,-0.889C22.287,-0.889 22.871,-1.271 23.181,-2.037C23.349,-2.447 23.434,-3.01 23.434,-3.726L23.434,-7.321L24.664,-7.321L24.664,0L23.502,0L23.516,-1.08C23.356,-0.802 23.158,-0.567 22.921,-0.376C22.451,0.007 21.882,0.198 21.212,0.198C20.168,0.198 19.457,-0.15 19.079,-0.848C18.874,-1.221 18.771,-1.72 18.771,-2.345L18.771,-7.321L20.029,-7.321Z" style="fill:black;fill-rule:nonzero;"/>
            <path d="M30.673,-7.027C30.905,-6.868 31.142,-6.635 31.384,-6.33L31.384,-7.253L32.519,-7.253L32.519,-0.595C32.519,0.335 32.382,1.069 32.108,1.606C31.598,2.6 30.634,3.097 29.217,3.097C28.428,3.097 27.765,2.92 27.228,2.567C26.69,2.214 26.389,1.661 26.325,0.909L27.576,0.909C27.635,1.237 27.754,1.49 27.932,1.668C28.21,1.941 28.647,2.078 29.244,2.078C30.188,2.078 30.805,1.745 31.097,1.08C31.27,0.688 31.35,-0.011 31.336,-1.019C31.09,-0.645 30.794,-0.367 30.447,-0.185C30.101,-0.002 29.643,0.089 29.073,0.089C28.28,0.089 27.586,-0.193 26.992,-0.755C26.397,-1.318 26.1,-2.249 26.1,-3.548C26.1,-4.774 26.399,-5.731 26.999,-6.419C27.598,-7.107 28.321,-7.451 29.169,-7.451C29.743,-7.451 30.244,-7.31 30.673,-7.027ZM30.823,-5.708C30.45,-6.146 29.973,-6.364 29.395,-6.364C28.529,-6.364 27.936,-5.959 27.617,-5.147C27.449,-4.715 27.364,-4.147 27.364,-3.445C27.364,-2.62 27.532,-1.993 27.867,-1.562C28.202,-1.131 28.652,-0.916 29.217,-0.916C30.101,-0.916 30.723,-1.315 31.083,-2.112C31.284,-2.563 31.384,-3.09 31.384,-3.691C31.384,-4.598 31.197,-5.271 30.823,-5.708Z" style="fill:black;fill-rule:nonzero;"/>
            <path d="M34.371,-10.076L35.602,-10.076L35.602,-6.33C35.893,-6.699 36.155,-6.959 36.388,-7.109C36.784,-7.369 37.279,-7.499 37.871,-7.499C38.933,-7.499 39.653,-7.128 40.031,-6.385C40.236,-5.979 40.339,-5.416 40.339,-4.696L40.339,0L39.074,0L39.074,-4.614C39.074,-5.152 39.006,-5.546 38.869,-5.797C38.646,-6.198 38.227,-6.398 37.611,-6.398C37.101,-6.398 36.638,-6.223 36.224,-5.872C35.809,-5.521 35.602,-4.858 35.602,-3.883L35.602,0L34.371,0L34.371,-10.076Z" style="fill:black;fill-rule:nonzero;"/>
            <path d="M42.403,-9.365L43.647,-9.365L43.647,-7.321L44.816,-7.321L44.816,-6.316L43.647,-6.316L43.647,-1.538C43.647,-1.283 43.734,-1.112 43.907,-1.025C44.003,-0.975 44.162,-0.95 44.386,-0.95C44.445,-0.95 44.509,-0.951 44.577,-0.954C44.646,-0.956 44.725,-0.962 44.816,-0.971L44.816,0C44.675,0.041 44.528,0.071 44.375,0.089C44.223,0.107 44.058,0.116 43.88,0.116C43.306,0.116 42.916,-0.031 42.711,-0.325C42.506,-0.619 42.403,-1 42.403,-1.47L42.403,-6.316L41.412,-6.316L41.412,-7.321L42.403,-7.321L42.403,-9.365Z" style="fill:black;fill-rule:nonzero;"/>
            <path d="M50.606,-7.12C51.094,-6.876 51.465,-6.56 51.721,-6.173C51.967,-5.804 52.131,-5.373 52.213,-4.881C52.286,-4.544 52.322,-4.006 52.322,-3.268L46.956,-3.268C46.979,-2.525 47.154,-1.929 47.482,-1.48C47.811,-1.031 48.319,-0.807 49.007,-0.807C49.649,-0.807 50.162,-1.019 50.545,-1.442C50.764,-1.688 50.919,-1.973 51.01,-2.297L52.22,-2.297C52.188,-2.028 52.082,-1.728 51.902,-1.398C51.722,-1.068 51.52,-0.798 51.297,-0.588C50.923,-0.223 50.461,0.023 49.909,0.15C49.613,0.223 49.278,0.26 48.904,0.26C47.993,0.26 47.22,-0.072 46.587,-0.735C45.953,-1.398 45.637,-2.326 45.637,-3.521C45.637,-4.696 45.956,-5.651 46.594,-6.385C47.232,-7.118 48.066,-7.485 49.096,-7.485C49.615,-7.485 50.119,-7.363 50.606,-7.12ZM51.058,-4.245C51.007,-4.778 50.891,-5.204 50.709,-5.523C50.372,-6.116 49.809,-6.412 49.021,-6.412C48.455,-6.412 47.981,-6.208 47.599,-5.8C47.216,-5.392 47.013,-4.874 46.99,-4.245L51.058,-4.245Z" style="fill:black;fill-rule:nonzero;"/>
            <path d="M53.867,-7.321L55.036,-7.321L55.036,-6.057C55.132,-6.303 55.367,-6.602 55.74,-6.956C56.114,-7.309 56.545,-7.485 57.032,-7.485C57.055,-7.485 57.094,-7.483 57.148,-7.479C57.203,-7.474 57.297,-7.465 57.429,-7.451L57.429,-6.152C57.356,-6.166 57.289,-6.175 57.227,-6.18C57.166,-6.184 57.098,-6.187 57.025,-6.187C56.406,-6.187 55.929,-5.987 55.597,-5.588C55.264,-5.19 55.098,-4.73 55.098,-4.211L55.098,0L53.867,0L53.867,-7.321Z" style="fill:black;fill-rule:nonzero;"/>
        </g>
        <g transform="matrix(1,0,0,1,389.303,29.8089)">
            <path d="M1.066,-10.042L2.673,-10.042L7.745,-1.907L7.745,-10.042L9.037,-10.042L9.037,0L7.513,0L2.365,-8.128L2.365,0L1.066,0L1.066,-10.042Z" style="fill:black;fill-rule:nonzero;"/>
            <path d="M12.243,-7.321L12.243,-2.461C12.243,-2.087 12.302,-1.782 12.421,-1.545C12.64,-1.107 13.048,-0.889 13.645,-0.889C14.501,-0.889 15.085,-1.271 15.395,-2.037C15.563,-2.447 15.647,-3.01 15.647,-3.726L15.647,-7.321L16.878,-7.321L16.878,0L15.716,0L15.729,-1.08C15.57,-0.802 15.372,-0.567 15.135,-0.376C14.665,0.007 14.096,0.198 13.426,0.198C12.382,0.198 11.671,-0.15 11.293,-0.848C11.088,-1.221 10.985,-1.72 10.985,-2.345L10.985,-7.321L12.243,-7.321Z" style="fill:black;fill-rule:nonzero;"/>
            <path d="M23.635,-6.932C24.153,-6.531 24.464,-5.84 24.568,-4.86L23.372,-4.86C23.299,-5.312 23.133,-5.686 22.873,-5.985C22.613,-6.283 22.196,-6.433 21.622,-6.433C20.838,-6.433 20.278,-6.05 19.94,-5.284C19.722,-4.787 19.612,-4.174 19.612,-3.445C19.612,-2.712 19.767,-2.094 20.077,-1.593C20.387,-1.091 20.875,-0.841 21.54,-0.841C22.05,-0.841 22.455,-0.997 22.753,-1.309C23.052,-1.621 23.258,-2.049 23.372,-2.591L24.568,-2.591C24.432,-1.62 24.09,-0.91 23.543,-0.461C22.996,-0.013 22.297,0.212 21.444,0.212C20.487,0.212 19.724,-0.138 19.154,-0.837C18.585,-1.537 18.3,-2.411 18.3,-3.459C18.3,-4.744 18.612,-5.744 19.236,-6.46C19.861,-7.175 20.656,-7.533 21.622,-7.533C22.447,-7.533 23.118,-7.333 23.635,-6.932Z" style="fill:black;fill-rule:nonzero;"/>
            <rect x="25.833" y="-10.042" width="1.23" height="10.042" style="fill:black;fill-rule:nonzero;"/>
            <path d="M33.469,-7.12C33.956,-6.876 34.328,-6.56 34.583,-6.173C34.829,-5.804 34.993,-5.373 35.075,-4.881C35.148,-4.544 35.185,-4.006 35.185,-3.268L29.818,-3.268C29.841,-2.525 30.017,-1.929 30.345,-1.48C30.673,-1.031 31.181,-0.807 31.869,-0.807C32.512,-0.807 33.024,-1.019 33.407,-1.442C33.626,-1.688 33.781,-1.973 33.872,-2.297L35.082,-2.297C35.05,-2.028 34.944,-1.728 34.764,-1.398C34.584,-1.068 34.382,-0.798 34.159,-0.588C33.785,-0.223 33.323,0.023 32.771,0.15C32.475,0.223 32.14,0.26 31.767,0.26C30.855,0.26 30.083,-0.072 29.449,-0.735C28.816,-1.398 28.499,-2.326 28.499,-3.521C28.499,-4.696 28.818,-5.651 29.456,-6.385C30.094,-7.118 30.928,-7.485 31.958,-7.485C32.478,-7.485 32.981,-7.363 33.469,-7.12ZM33.92,-4.245C33.87,-4.778 33.754,-5.204 33.571,-5.523C33.234,-6.116 32.671,-6.412 31.883,-6.412C31.318,-6.412 30.844,-6.208 30.461,-5.8C30.078,-5.392 29.875,-4.874 29.853,-4.245L33.92,-4.245Z" style="fill:black;fill-rule:nonzero;"/>
            <path d="M36.695,-7.287L37.946,-7.287L37.946,0L36.695,0L36.695,-7.287ZM36.695,-10.042L37.946,-10.042L37.946,-8.647L36.695,-8.647L36.695,-10.042Z" style="fill:black;fill-rule:nonzero;"/>
            <rect x="44.167" y="-10.042" width="1.374" height="10.042" style="fill:black;fill-rule:nonzero;"/>
            <rect x="48.057" y="-10.042" width="1.374" height="10.042" style="fill:black;fill-rule:nonzero;"/>
        </g>
    </g>
    <g id="path3472" transform="matrix(0.631186,0,0,0.612543,386.041,19.5902)">
        <path d="M115.846,175.057C115.846,202.542 93.897,225.158 67.224,225.158C40.551,225.158 18.603,202.542 18.603,175.057C18.603,175.057 18.603,175.057 18.603,175.057C18.603,147.572 40.551,124.956 67.224,124.956C93.897,124.956 115.846,147.572 115.846,175.057L115.846,175.057Z" style="fill:rgb(255,230,230);fill-rule:nonzero;stroke-width:1px;stroke:black;"/>
    </g>
    <path id="path3402" d="M418.06,101.214L430.383,100.943L429.562,144.942C429.562,144.942 429.698,152.75 424.496,154.652C421.894,154.719 420.183,151.935 418.471,147.862C417.234,143.647 417.786,140.189 417.855,140.189C419.381,131.905 422.716,124.3 423.537,117.239C423.208,109.628 417.923,110.313 417.786,105.832L418.06,101.214Z" style="fill:rgb(242,0,0);stroke-width:1.29px;stroke:black;"/>
    <g id="path3468" transform="matrix(0.631186,0,0,0.612543,386.041,149.478)">
        <path d="M115.846,175.057C115.846,202.542 93.897,225.158 67.224,225.158C40.551,225.158 18.603,202.542 18.603,175.057C18.603,175.057 18.603,175.057 18.603,175.057C18.603,147.572 40.551,124.956 67.224,124.956C93.897,124.956 115.846,147.572 115.846,175.057L115.846,175.057Z" style="fill:rgb(255,230,230);fill-rule:nonzero;stroke-width:1px;stroke:black;"/>
    </g>
    <path id="path3404" d="M435.411,234.69L445.096,234.478L444.45,268.875C444.45,268.875 444.558,274.979 440.468,276.465C438.424,276.518 437.079,274.342 435.734,271.157C434.762,267.862 435.196,265.159 435.25,265.159C436.449,258.683 439.07,252.738 439.715,247.217C439.456,241.268 435.303,241.803 435.196,238.299L435.411,234.69L435.411,234.69Z" style="fill:rgb(242,0,0);stroke-width:1.01px;stroke:black;"/>
    <g id="path3466" transform="matrix(0.631186,0,0,0.612543,386.26,85.6857)">
        <path d="M115.846,175.057C115.846,202.542 93.897,225.158 67.224,225.158C40.551,225.158 18.603,202.542 18.603,175.057C18.603,175.057 18.603,175.057 18.603,175.057C18.603,147.572 40.551,124.956 67.224,124.956C93.897,124.956 115.846,147.572 115.846,175.057L115.846,175.057Z" style="fill:rgb(255,227,227);fill-rule:nonzero;stroke-width:1px;stroke:black;"/>
    </g>
    <path id="path3406" d="M417.853,168.102L430.175,167.83L429.354,211.829C429.354,211.829 429.491,219.638 424.288,221.539C421.686,221.607 419.975,218.823 418.263,214.749C417.026,210.535 417.579,207.077 417.647,207.077C419.173,198.793 422.508,191.188 423.329,184.126C423,176.516 417.716,177.201 417.579,172.719L417.853,168.102Z" style="fill:rgb(211,234,242);stroke-width:1.29px;stroke:black;"/>
    <g id="path3470" transform="matrix(0.631186,0,0,0.612543,386.041,-43.466)">
        <path d="M115.846,175.057C115.846,202.542 93.897,225.158 67.224,225.158C40.551,225.158 18.603,202.542 18.603,175.057C18.603,175.057 18.603,175.057 18.603,175.057C18.603,147.572 40.551,124.956 67.224,124.956C93.897,124.956 115.846,147.572 115.846,175.057L115.846,175.057Z" style="fill:rgb(255,227,227);fill-rule:nonzero;stroke-width:1px;stroke:black;"/>
    </g>
    <path id="path3408" d="M436.703,46.6L446.388,46.388L445.742,80.785C445.742,80.785 445.85,86.889 441.761,88.375C439.716,88.429 438.371,86.252 437.026,83.067C436.054,79.772 436.488,77.069 436.542,77.069C437.741,70.593 440.362,64.648 441.007,59.127C440.748,53.178 436.596,53.713 436.488,50.21L436.703,46.6Z" style="fill:rgb(211,234,242);stroke-width:1.01px;stroke:black;"/>
    <g id="g3430" transform="matrix(1,0,0,1,0,-126)">
        <path id="path3410" d="M418.369,163.956L430.692,163.684L429.871,207.683C429.871,207.683 430.008,215.492 424.805,217.393C422.203,217.461 420.492,214.677 418.78,210.603C417.543,206.388 418.095,202.93 418.164,202.93C419.69,194.647 423.025,187.042 423.846,179.98C423.517,172.37 418.232,173.055 418.095,168.573L418.369,163.956Z" style="fill:rgb(242,0,0);stroke-width:1.29px;stroke:black;"/>
        <path id="path3428" d="M420.55,171.838C419.393,170.708 419.009,170.101 418.841,169.14C418.777,168.772 418.785,168.321 418.881,166.638L418.999,164.584L419.52,164.586C419.807,164.587 422.273,164.539 425,164.479C427.728,164.42 429.971,164.383 429.985,164.397C430.043,164.458 429.858,172.464 429.797,172.52C429.76,172.554 427.954,172.598 425.563,172.622L421.394,172.664L420.55,171.839L420.55,171.838Z" style="fill:rgb(211,234,242);stroke-width:0.06px;stroke:black;"/>
    </g>
    <g id="g3442" transform="matrix(1,0,0,1,0,-126)">
        <path id="path3434" d="M437.285,234.493L446.969,234.281L446.324,268.678C446.324,268.678 446.431,274.782 442.342,276.269C440.298,276.322 438.953,274.145 437.607,270.961C436.635,267.666 437.069,264.962 437.123,264.962C438.322,258.487 440.943,252.541 441.589,247.021C441.33,241.071 437.177,241.606 437.069,238.103L437.285,234.493L437.285,234.493Z" style="fill:rgb(211,234,242);stroke-width:1.01px;stroke:black;"/>
        <path id="path3440" d="M438.957,240.594C438.309,239.96 438.147,239.76 437.949,239.353C437.613,238.662 437.586,238.366 437.695,236.589C437.747,235.746 437.796,235.049 437.805,235.039C437.832,235.011 446.38,234.82 446.407,234.847C446.43,234.87 446.307,241.249 446.283,241.266C446.277,241.27 444.8,241.291 443,241.312L439.729,241.351L438.957,240.594L438.957,240.594Z" style="fill:rgb(242,0,0);stroke-width:0.06px;stroke:black;"/>
    </g>
    <g id="g3452" transform="matrix(1,0,0,1,0,130)">
        <path id="path3446" d="M418.628,100.448L430.95,100.176L430.129,144.175C430.129,144.175 430.266,151.983 425.063,153.885C422.462,153.953 420.75,151.169 419.039,147.095C417.801,142.88 418.354,139.422 418.422,139.422C419.948,131.139 423.283,123.533 424.105,116.472C423.775,108.862 418.491,109.546 418.354,105.065L418.628,100.448Z" style="fill:rgb(211,234,242);stroke-width:1.29px;stroke:black;"/>
        <path id="path3450" d="M420.94,108.447C419.679,107.216 419.324,106.69 419.125,105.759C419.036,105.342 419.038,105.102 419.141,103.219L419.256,101.139L419.649,101.106C420.12,101.066 430.221,100.855 430.248,100.885C430.262,100.901 430.107,109.318 430.091,109.385C430.089,109.394 428.249,109.401 426.001,109.4L421.915,109.4L420.94,108.448L420.94,108.447Z" style="fill:rgb(242,0,0);stroke-width:0.06px;stroke:black;"/>
    </g>
    <g id="g3462" transform="matrix(1,0,0,1,0,130)">
        <path id="path3456" d="M436.057,44.42L445.742,44.208L445.096,78.605C445.096,78.605 445.204,84.709 441.115,86.196C439.07,86.249 437.725,84.072 436.38,80.887C435.408,77.593 435.842,74.889 435.896,74.889C437.095,68.413 439.716,62.468 440.361,56.948C440.102,50.998 435.95,51.533 435.842,48.03L436.057,44.42Z" style="fill:rgb(242,0,0);stroke-width:1.01px;stroke:black;"/>
        <path id="path3460" d="M437.763,50.568C437.083,49.902 436.917,49.7 436.72,49.296C436.386,48.609 436.352,48.275 436.455,46.684C436.503,45.938 436.544,45.238 436.546,45.129L436.549,44.93L440.846,44.845C443.21,44.798 445.158,44.774 445.176,44.791C445.208,44.823 445.087,51.185 445.054,51.218C445.044,51.228 443.657,51.253 441.971,51.273C440.286,51.293 438.831,51.321 438.739,51.335C438.598,51.357 438.445,51.237 437.763,50.568L437.763,50.568Z" style="fill:rgb(211,234,242);stroke-width:0.06px;stroke:black;"/>
    </g>
    <path id="path3478" d="M135.334,157.726L131.838,160.226L131.838,155.226L135.334,157.726ZM115.032,157.687L131.838,157.726" style="fill:black;stroke-width:1px;stroke:black;"/>
    <path id="path3487" d="M273.422,182.599L269.182,181.895L272.718,178.359L273.422,182.599ZM259.094,168.216L270.95,180.127" style="fill:black;stroke-width:1px;stroke:black;"/>
    <path id="path3489" d="M273.372,132.917L272.667,137.157L269.132,133.622L273.372,132.917ZM258.988,147.245L270.9,135.39" style="fill:black;stroke-width:1px;stroke:black;"/>
    <path id="path3491" d="M385.065,127.145L380.883,128.136L382.776,123.508L385.065,127.145ZM366.29,119.422L381.83,125.822" style="fill:black;stroke-width:1px;stroke:black;"/>
    <path id="path3493" d="M380.831,84.222L380.154,88.467L376.596,84.954L380.831,84.222ZM366.54,98.643L378.375,86.71" style="fill:black;stroke-width:1px;stroke:black;"/>
    <path id="path3495" d="M381.108,232.877L376.868,232.173L380.404,228.637L381.108,232.877ZM366.78,218.494L378.636,230.405" style="fill:black;stroke-width:1px;stroke:black;"/>
    <path id="path3497" d="M385.234,190.423L382.835,193.989L381.084,189.306L385.234,190.423ZM366.205,197.499L381.96,191.647" style="fill:black;stroke-width:1px;stroke:black;"/>
</svg>