<?xml version="1.0" encoding="UTF-8"?>
<svg id="Layer_1" xmlns="http://www.w3.org/2000/svg" xmlns:xlink="http://www.w3.org/1999/xlink" version="1.1" viewBox="0 0 438.83 235.37">
  <!-- Generator: Adobe Illustrator 30.3.0, SVG Export Plug-In . SVG Version: 2.1.3 Build 182)  -->
  <defs>
    <style>
      .st0, .st1, .st2, .st3, .st4, .st5, .st6 {
        fill: none;
      }

      .st7 {
        fill: #43429a;
      }

      .st1 {
        stroke: #6abd45;
      }

      .st1, .st2, .st3, .st4 {
        stroke-linecap: round;
        stroke-linejoin: round;
        stroke-width: .21px;
      }

      .st8, .st9, .st10 {
        fill: #3a53a4;
      }

      .st11, .st12 {
        fill: #ed2224;
      }

      .st2 {
        stroke: #3a53a4;
      }

      .st3 {
        stroke: #010101;
      }

      .st13 {
        font-size: 12px;
      }

      .st13, .st14, .st15, .st10, .st12 {
        font-family: Helvetica, Helvetica;
      }

      .st13, .st15 {
        fill: #010101;
      }

      .st14, .st10, .st12 {
        font-size: 10.97px;
      }

      .st14, .st16 {
        fill: #6abd45;
      }

      .st17 {
        letter-spacing: .33em;
      }

      .st18 {
        letter-spacing: .33em;
      }

      .st19 {
        letter-spacing: .33em;
      }

      .st20 {
        letter-spacing: .33em;
      }

      .st21 {
        letter-spacing: .36em;
      }

      .st22 {
        letter-spacing: .67em;
      }

      .st23 {
        clip-path: url(#clippath-1);
      }

      .st24 {
        letter-spacing: 0em;
      }

      .st25 {
        letter-spacing: 0em;
      }

      .st9 {
        font-family: CMR5, 'Computer Modern';
        font-size: 8px;
      }

      .st26 {
        letter-spacing: 3.81em;
      }

      .st27 {
        letter-spacing: 3.83em;
      }

      .st28 {
        letter-spacing: 4.41em;
      }

      .st29 {
        letter-spacing: 4.4em;
      }

      .st30 {
        letter-spacing: 4.39em;
      }

      .st31 {
        letter-spacing: 4.42em;
      }

      .st32 {
        letter-spacing: 4.13em;
      }

      .st33 {
        letter-spacing: 4.12em;
      }

      .st34 {
        fill: #fff;
      }

      .st4 {
        stroke: #ed2224;
      }

      .st35 {
        letter-spacing: 0em;
      }

      .st36 {
        letter-spacing: 0em;
      }

      .st37 {
        letter-spacing: 0em;
      }

      .st5 {
        stroke: #16164c;
      }

      .st5, .st6 {
        stroke-miterlimit: 10;
        stroke-width: .46px;
      }

      .st15 {
        font-size: 6.93px;
      }

      .st38 {
        fill: #6bb044;
      }

      .st39 {
        letter-spacing: -.1em;
      }

      .st40 {
        letter-spacing: -.03em;
      }

      .st41 {
        clip-path: url(#clippath);
      }

      .st6 {
        stroke: #6bb044;
      }
    </style>
    <clipPath id="clippath">
      <rect class="st0" y=".18" width="217.1" height="212.78"/>
    </clipPath>
    <clipPath id="clippath-1">
      <rect class="st0" x="253.2" width="185.63" height="185.04"/>
    </clipPath>
  </defs>
  <text class="st9" transform="translate(3.36 233.14)"><tspan x="0" y="0">Eleme</tspan><tspan class="st40" x="28.97" y="0">n</tspan><tspan class="st24" x="34.7" y="0">t</tspan><tspan class="st17" x="39.02" y="0">s</tspan><tspan x="46.06" y="0">o</tspan><tspan class="st20" x="51.5" y="0">f</tspan><tspan x="57.67" y="0">Statistica</tspan><tspan class="st18" x="103.24" y="0">l</tspan><tspan x="109.11" y="0">Learnin</tspan><tspan class="st20" x="145.62" y="0">g</tspan><tspan class="st35" x="153.73" y="0">(2n</tspan><tspan class="st18" x="169.5" y="0">d</tspan><tspan class="st35" x="178.16" y="0">Ed.)</tspan></text>
  <text class="st9" transform="translate(215.31 232.83)"><tspan x="0" y="0">c</tspan></text>
  <path class="st8" d="M218.47,235.37c-3.25,0-5.73-2.23-5.73-4.81s2.45-4.81,5.74-4.81,5.73,2.23,5.73,4.81-2.45,4.81-5.74,4.81ZM223.63,230.56c0-2.24-2.19-4.24-5.17-4.24s-5.15,1.98-5.15,4.24,2.19,4.24,5.17,4.24,5.15-1.98,5.15-4.24Z"/>
  <text class="st9" transform="translate(225.5 233.14)"><tspan x="0" y="0">Hastie</tspan><tspan class="st21" x="30.1" y="0">,</tspan><tspan x="36.19" y="0">Tibshiran</tspan><tspan class="st20" x="82.44" y="0">i</tspan><tspan class="st19" x="88.33" y="0">&amp;</tspan><tspan class="st39" x="99.21" y="0">F</tspan><tspan x="105.29" y="0">riedma</tspan><tspan class="st19" x="137.93" y="0">n</tspan><tspan x="146.6" y="0">200</tspan><tspan class="st22" x="162.92" y="0">9</tspan><tspan x="173.69" y="0">Cha</tspan><tspan class="st19" x="192.8" y="0">p</tspan><tspan class="st37" x="201.46" y="0">14</tspan></text>
  <rect class="st34" y=".18" width="217.1" height="212.78"/>
  <g class="st41">
    <path class="st5" d="M0,212.96,217.1,212.96H0V.18h217.1v212.78Z"/>
  </g>
  <polyline class="st6" points="156.53 94.39 159.09 99.5 161.22 104.62 163.78 109.74 165.92 114.86 168.48 119.98 171.03 125.09 173.17 130.21 175.73 135.33 178.29 140.45"/>
  <polyline class="st6" points="142.88 88.84 145.02 93.53 147.58 98.65 150.13 103.77 152.27 108.89 154.83 114.01 157.39 119.12 159.52 124.24 162.08 129.36 164.21 134.48"/>
  <polyline class="st6" points="129.23 82.87 131.37 87.99 133.93 93.11 136.06 98.22 138.62 103.34 141.18 108.46 143.31 113.58 145.87 118.27 148.43 123.39 150.56 128.51"/>
  <polyline class="st6" points="115.16 76.9 117.72 82.02 120.28 87.13 122.41 92.25 124.97 97.37 127.53 102.49 129.66 107.61 132.22 112.73 134.35 117.84 136.91 122.96"/>
  <polyline class="st6" points="101.51 71.35 104.07 76.05 106.2 81.16 108.76 86.28 111.32 91.4 113.45 96.52 116.01 101.64 118.57 106.75 120.7 111.87 123.26 116.99"/>
  <polyline class="st6" points="87.86 65.38 90.42 70.5 92.55 75.62 95.11 80.74 97.67 85.86 99.8 90.97 102.36 95.67 104.5 100.78 107.05 105.9 109.61 111.02"/>
  <polyline class="st6" points="74.21 59.41 76.35 64.53 78.9 69.65 81.46 74.77 83.6 79.88 86.16 85 88.71 90.12 90.85 95.24 93.41 100.36 95.54 105.48"/>
  <polyline class="st6" points="60.56 53.87 62.7 58.56 65.26 63.68 67.81 68.79 69.95 73.91 72.51 79.03 74.64 84.15 77.2 89.27 79.76 94.39 81.89 99.5"/>
  <polyline class="st6" points="46.49 47.9 49.05 53.01 51.61 58.13 53.74 63.25 56.3 68.37 58.86 73.49 60.99 78.18 63.55 83.3 65.68 88.41 68.24 93.53"/>
  <polyline class="st6" points="32.84 41.92 35.4 47.04 37.96 52.16 40.09 57.28 42.65 62.4 44.78 67.52 47.34 72.63 49.9 77.75 52.03 82.87 54.59 87.99"/>
  <polyline class="st6" points="156.53 94.39 142.88 88.84 129.23 82.87 115.16 76.9 101.51 71.35 87.86 65.38 74.21 59.41 60.56 53.87 46.49 47.9 32.84 41.92"/>
  <polyline class="st6" points="159.09 99.5 145.01 93.53 131.37 87.99 117.72 82.02 104.07 76.05 90.42 70.5 76.34 64.53 62.7 58.56 49.05 53.01 35.4 47.04"/>
  <polyline class="st6" points="161.22 104.62 147.57 98.65 133.93 93.11 120.28 87.14 106.2 81.16 92.55 75.62 78.9 69.65 65.26 63.68 51.61 58.13 37.96 52.16"/>
  <polyline class="st6" points="163.78 109.74 150.13 103.77 136.06 98.22 122.41 92.25 108.76 86.28 95.11 80.74 81.46 74.77 67.81 68.79 53.74 63.25 40.09 57.28"/>
  <polyline class="st6" points="165.91 114.86 152.27 108.89 138.62 103.34 124.97 97.37 111.32 91.4 97.67 85.86 83.6 79.88 69.95 73.91 56.3 68.37 42.65 62.4"/>
  <polyline class="st6" points="168.47 119.98 154.82 114.01 141.18 108.46 127.53 102.49 113.45 96.52 99.8 90.97 86.16 85 72.51 79.03 58.86 73.49 44.78 67.51"/>
  <polyline class="st6" points="171.03 125.1 157.38 119.12 143.31 113.58 129.66 107.61 116.01 101.64 102.36 95.67 88.71 90.12 74.64 84.15 60.99 78.18 47.34 72.63"/>
  <polyline class="st6" points="173.17 130.21 159.52 124.24 145.87 118.27 132.22 112.73 118.57 106.75 104.5 100.78 90.85 95.24 77.2 89.27 63.55 83.3 49.9 77.75"/>
  <polyline class="st6" points="175.72 135.33 162.08 129.36 148.43 123.39 134.35 117.84 120.7 111.87 107.05 105.9 93.41 100.36 79.76 94.39 65.68 88.41 52.03 82.87"/>
  <polyline class="st6" points="178.28 140.45 164.21 134.48 150.56 128.51 136.91 122.96 123.26 116.99 109.61 111.02 95.54 105.47 81.89 99.5 68.24 93.53 54.59 87.99"/>
  <line class="st5" x1="110.47" y1="82.44" x2="103.22" y2="103.34"/>
  <line class="st5" x1="119.43" y1="85.43" x2="119.43" y2="85"/>
  <line class="st5" x1="124.97" y1="90.12" x2="127.1" y2="83.72"/>
  <line class="st5" x1="99.81" y1="71.78" x2="95.11" y2="85.43"/>
  <line class="st5" x1="114.73" y1="83.3" x2="112.17" y2="90.55"/>
  <line class="st5" x1="119.85" y1="83.72" x2="117.72" y2="90.97"/>
  <line class="st5" x1="91.27" y1="72.21" x2="92.98" y2="67.09"/>
  <line class="st5" x1="101.94" y1="79.03" x2="99.8" y2="84.58"/>
  <line class="st5" x1="114.31" y1="76.9" x2="113.03" y2="81.16"/>
  <line class="st5" x1="107.91" y1="80.74" x2="109.61" y2="75.62"/>
  <line class="st5" x1="123.26" y1="83.72" x2="123.69" y2="82.44"/>
  <line class="st5" x1="114.73" y1="81.16" x2="112.17" y2="88.84"/>
  <line class="st5" x1="122.84" y1="87.99" x2="124.12" y2="84.15"/>
  <line class="st5" x1="133.07" y1="89.27" x2="133.07" y2="88.42"/>
  <line class="st5" x1="119" y1="82.02" x2="113.45" y2="98.65"/>
  <line class="st5" x1="98.1" y1="69.65" x2="94.26" y2="80.31"/>
  <line class="st5" x1="98.1" y1="75.62" x2="98.53" y2="74.34"/>
  <line class="st5" x1="103.22" y1="75.19" x2="102.79" y2="76.9"/>
  <line class="st5" x1="124.97" y1="87.14" x2="122.41" y2="95.24"/>
  <line class="st5" x1="118.57" y1="83.3" x2="116.01" y2="90.97"/>
  <line class="st5" x1="109.19" y1="74.77" x2="102.79" y2="93.53"/>
  <line class="st5" x1="130.09" y1="88.84" x2="127.1" y2="97.37"/>
  <line class="st5" x1="112.6" y1="83.72" x2="116.01" y2="74.34"/>
  <line class="st5" x1="113.88" y1="82.87" x2="113.03" y2="86.28"/>
  <line class="st5" x1="116.02" y1="85" x2="110.47" y2="101.64"/>
  <line class="st5" x1="101.09" y1="74.34" x2="100.66" y2="75.19"/>
  <line class="st5" x1="102.79" y1="74.34" x2="97.25" y2="90.98"/>
  <line class="st5" x1="114.31" y1="80.74" x2="108.76" y2="96.09"/>
  <line class="st5" x1="113.03" y1="84.15" x2="111.32" y2="88.84"/>
  <line class="st5" x1="121.99" y1="84.15" x2="119.85" y2="90.55"/>
  <line class="st5" x1="134.36" y1="105.05" x2="146.72" y2="68.37"/>
  <line class="st5" x1="108.76" y1="107.61" x2="110.04" y2="102.92"/>
  <line class="st5" x1="162.08" y1="114.01" x2="166.34" y2="101.64"/>
  <line class="st5" x1="108.34" y1="107.18" x2="111.32" y2="97.37"/>
  <line class="st5" x1="164.21" y1="125.52" x2="155.25" y2="152.39"/>
  <line class="st5" x1="169.33" y1="121.68" x2="166.34" y2="130.21"/>
  <line class="st5" x1="127.1" y1="114.01" x2="128.38" y2="110.6"/>
  <line class="st5" x1="169.76" y1="129.36" x2="157.81" y2="165.19"/>
  <line class="st5" x1="157.81" y1="116.99" x2="161.65" y2="105.9"/>
  <line class="st5" x1="136.91" y1="102.07" x2="148.43" y2="67.94"/>
  <line class="st5" x1="158.67" y1="128.51" x2="155.68" y2="137.47"/>
  <line class="st5" x1="166.77" y1="124.24" x2="155.68" y2="157.09"/>
  <line class="st5" x1="167.62" y1="126.8" x2="165.92" y2="131.92"/>
  <line class="st5" x1="130.09" y1="104.2" x2="140.33" y2="74.34"/>
  <line class="st5" x1="133.93" y1="111.02" x2="144.59" y2="79.89"/>
  <line class="st5" x1="119.85" y1="91.4" x2="130.94" y2="59.41"/>
  <line class="st5" x1="113.46" y1="94.81" x2="123.27" y2="65.38"/>
  <line class="st5" x1="159.09" y1="124.24" x2="159.52" y2="122.54"/>
  <line class="st5" x1="146.73" y1="118.27" x2="150.99" y2="106.33"/>
  <line class="st5" x1="135.21" y1="108.04" x2="144.59" y2="79.89"/>
  <line class="st5" x1="161.65" y1="126.38" x2="156.54" y2="140.45"/>
  <line class="st5" x1="152.7" y1="128.93" x2="149.28" y2="138.32"/>
  <line class="st5" x1="161.65" y1="121.68" x2="155.68" y2="139.17"/>
  <line class="st5" x1="134.78" y1="113.15" x2="141.18" y2="95.24"/>
  <line class="st5" x1="157.81" y1="124.67" x2="155.26" y2="131.49"/>
  <line class="st5" x1="159.52" y1="127.66" x2="152.7" y2="148.55"/>
  <line class="st5" x1="134.36" y1="103.77" x2="138.62" y2="91.83"/>
  <line class="st5" x1="159.95" y1="128.51" x2="155.25" y2="142.16"/>
  <line class="st5" x1="169.76" y1="124.24" x2="174.45" y2="110.17"/>
  <line class="st5" x1="121.13" y1="96.09" x2="129.66" y2="71.36"/>
  <line class="st5" x1="63.55" y1="76.05" x2="63.13" y2="76.9"/>
  <line class="st5" x1="69.95" y1="83.72" x2="71.66" y2="79.03"/>
  <line class="st5" x1="90.42" y1="78.18" x2="98.95" y2="53.01"/>
  <line class="st5" x1="59.72" y1="78.18" x2="46.92" y2="115.71"/>
  <line class="st5" x1="63.55" y1="82.02" x2="47.77" y2="128.08"/>
  <line class="st5" x1="71.23" y1="80.31" x2="78.48" y2="58.99"/>
  <line class="st5" x1="45.64" y1="64.1" x2="44.79" y2="66.24"/>
  <line class="st5" x1="58.01" y1="64.96" x2="52.89" y2="80.74"/>
  <line class="st5" x1="61" y1="74.34" x2="65.69" y2="60.27"/>
  <line class="st5" x1="99.38" y1="84.15" x2="108.77" y2="56.85"/>
  <line class="st5" x1="58.44" y1="76.9" x2="50.33" y2="100.36"/>
  <line class="st5" x1="88.29" y1="96.52" x2="92.13" y2="84.15"/>
  <line class="st5" x1="98.53" y1="105.05" x2="98.96" y2="103.77"/>
  <line class="st5" x1="57.58" y1="75.19" x2="60.57" y2="67.52"/>
  <line class="st5" x1="61.42" y1="70.93" x2="66.11" y2="56.85"/>
  <line class="st5" x1="62.27" y1="79.46" x2="58.01" y2="91.4"/>
  <line class="st5" x1="45.21" y1="58.99" x2="45.21" y2="58.56"/>
  <line class="st5" x1="85.73" y1="75.19" x2="92.13" y2="57.28"/>
  <line class="st5" x1="108.76" y1="111.02" x2="110.9" y2="104.62"/>
  <line class="st5" x1="53.74" y1="63.25" x2="54.6" y2="60.69"/>
  <line class="st5" x1="62.27" y1="76.47" x2="61.85" y2="77.33"/>
  <line class="st5" x1="86.16" y1="91.83" x2="89.57" y2="81.59"/>
  <line class="st5" x1="73.36" y1="76.47" x2="84.45" y2="44.91"/>
  <line class="st5" x1="61.85" y1="64.1" x2="63.13" y2="59.41"/>
  <line class="st5" x1="66.11" y1="83.3" x2="61.42" y2="96.52"/>
  <line class="st5" x1="85.3" y1="76.47" x2="91.28" y2="59.84"/>
  <line class="st5" x1="53.74" y1="68.8" x2="49.9" y2="79.89"/>
  <line class="st5" x1="47.34" y1="72.64" x2="38.39" y2="98.23"/>
  <line class="st5" x1="67.39" y1="80.74" x2="60.99" y2="99.93"/>
  <line class="st5" x1="58.43" y1="67.52" x2="62.27" y2="55.15"/>
  <rect class="st38" x="156.3" y="94.15" width=".46" height=".46"/>
  <rect class="st38" x="158.86" y="99.27" width=".46" height=".46"/>
  <rect class="st38" x="160.99" y="104.39" width=".46" height=".46"/>
  <rect class="st38" x="163.55" y="109.51" width=".46" height=".46"/>
  <rect class="st38" x="165.68" y="114.63" width=".46" height=".46"/>
  <rect class="st38" x="168.24" y="119.75" width=".46" height=".46"/>
  <rect class="st38" x="170.8" y="124.86" width=".46" height=".46"/>
  <rect class="st38" x="172.93" y="129.98" width=".46" height=".46"/>
  <rect class="st38" x="175.49" y="135.1" width=".46" height=".46"/>
  <rect class="st38" x="178.05" y="140.22" width=".46" height=".46"/>
  <rect class="st38" x="142.65" y="88.61" width=".46" height=".46"/>
  <rect class="st38" x="144.79" y="93.3" width=".46" height=".46"/>
  <rect class="st38" x="147.34" y="98.42" width=".46" height=".46"/>
  <rect class="st38" x="149.9" y="103.54" width=".46" height=".46"/>
  <rect class="st38" x="152.04" y="108.66" width=".46" height=".46"/>
  <rect class="st38" x="154.6" y="113.77" width=".46" height=".46"/>
  <rect class="st38" x="157.15" y="118.89" width=".46" height=".46"/>
  <rect class="st38" x="159.29" y="124.01" width=".46" height=".46"/>
  <rect class="st38" x="161.85" y="129.13" width=".46" height=".46"/>
  <rect class="st38" x="163.98" y="134.25" width=".46" height=".46"/>
  <rect class="st38" x="129" y="82.64" width=".46" height=".46"/>
  <rect class="st38" x="131.14" y="87.76" width=".46" height=".46"/>
  <rect class="st38" x="133.69" y="92.87" width=".46" height=".46"/>
  <rect class="st38" x="135.83" y="97.99" width=".46" height=".46"/>
  <rect class="st38" x="138.39" y="103.11" width=".46" height=".46"/>
  <rect class="st38" x="140.95" y="108.23" width=".46" height=".46"/>
  <rect class="st38" x="143.08" y="113.35" width=".46" height=".46"/>
  <rect class="st38" x="145.64" y="118.04" width=".46" height=".46"/>
  <rect class="st38" x="148.2" y="123.16" width=".46" height=".46"/>
  <rect class="st38" x="150.33" y="128.28" width=".46" height=".46"/>
  <rect class="st38" x="114.93" y="76.67" width=".46" height=".46"/>
  <rect class="st38" x="117.49" y="81.79" width=".46" height=".46"/>
  <rect class="st38" x="120.05" y="86.9" width=".46" height=".46"/>
  <rect class="st38" x="122.18" y="92.02" width=".46" height=".46"/>
  <rect class="st38" x="124.74" y="97.14" width=".46" height=".46"/>
  <rect class="st38" x="127.3" y="102.26" width=".46" height=".46"/>
  <rect class="st38" x="129.43" y="107.38" width=".46" height=".46"/>
  <rect class="st38" x="131.99" y="112.49" width=".46" height=".46"/>
  <rect class="st38" x="134.12" y="117.61" width=".46" height=".46"/>
  <rect class="st38" x="136.68" y="122.73" width=".46" height=".46"/>
  <rect class="st38" x="101.28" y="71.12" width=".46" height=".46"/>
  <rect class="st38" x="103.84" y="75.81" width=".46" height=".46"/>
  <rect class="st38" x="105.97" y="80.93" width=".46" height=".46"/>
  <rect class="st38" x="108.53" y="86.05" width=".46" height=".46"/>
  <rect class="st38" x="111.09" y="91.17" width=".46" height=".46"/>
  <rect class="st38" x="113.22" y="96.29" width=".46" height=".46"/>
  <rect class="st38" x="115.78" y="101.4" width=".46" height=".46"/>
  <rect class="st38" x="118.34" y="106.52" width=".46" height=".46"/>
  <rect class="st38" x="120.47" y="111.64" width=".46" height=".46"/>
  <rect class="st38" x="123.03" y="116.76" width=".46" height=".46"/>
  <rect class="st38" x="87.63" y="65.15" width=".46" height=".46"/>
  <rect class="st38" x="90.19" y="70.27" width=".46" height=".46"/>
  <rect class="st38" x="92.32" y="75.39" width=".46" height=".46"/>
  <rect class="st38" x="94.88" y="80.51" width=".46" height=".46"/>
  <rect class="st38" x="97.44" y="85.62" width=".46" height=".46"/>
  <rect class="st38" x="99.57" y="90.74" width=".46" height=".46"/>
  <rect class="st38" x="102.13" y="95.43" width=".46" height=".46"/>
  <rect class="st38" x="104.26" y="100.55" width=".46" height=".46"/>
  <rect class="st38" x="106.82" y="105.67" width=".46" height=".46"/>
  <rect class="st38" x="109.38" y="110.79" width=".46" height=".46"/>
  <rect class="st38" x="73.98" y="59.18" width=".46" height=".46"/>
  <rect class="st38" x="76.11" y="64.3" width=".46" height=".46"/>
  <rect class="st38" x="78.67" y="69.42" width=".46" height=".46"/>
  <rect class="st38" x="81.23" y="74.53" width=".46" height=".46"/>
  <rect class="st38" x="83.37" y="79.65" width=".46" height=".46"/>
  <rect class="st38" x="85.93" y="84.77" width=".46" height=".46"/>
  <rect class="st38" x="88.48" y="89.89" width=".46" height=".46"/>
  <rect class="st38" x="90.62" y="95.01" width=".46" height=".46"/>
  <rect class="st38" x="93.18" y="100.13" width=".46" height=".46"/>
  <rect class="st38" x="95.31" y="105.24" width=".46" height=".46"/>
  <rect class="st38" x="60.33" y="53.63" width=".46" height=".46"/>
  <rect class="st38" x="62.47" y="58.33" width=".46" height=".46"/>
  <rect class="st38" x="65.03" y="63.44" width=".46" height=".46"/>
  <rect class="st38" x="67.58" y="68.56" width=".46" height=".46"/>
  <rect class="st38" x="69.72" y="73.68" width=".46" height=".46"/>
  <rect class="st38" x="72.28" y="78.8" width=".46" height=".46"/>
  <rect class="st38" x="74.41" y="83.92" width=".46" height=".46"/>
  <rect class="st38" x="76.97" y="89.04" width=".46" height=".46"/>
  <rect class="st38" x="79.53" y="94.15" width=".46" height=".46"/>
  <rect class="st38" x="81.66" y="99.27" width=".46" height=".46"/>
  <rect class="st38" x="46.26" y="47.66" width=".46" height=".46"/>
  <rect class="st38" x="48.82" y="52.78" width=".46" height=".46"/>
  <rect class="st38" x="51.38" y="57.9" width=".46" height=".46"/>
  <rect class="st38" x="53.51" y="63.02" width=".46" height=".46"/>
  <rect class="st38" x="56.07" y="68.14" width=".46" height=".46"/>
  <rect class="st38" x="58.63" y="73.25" width=".46" height=".46"/>
  <rect class="st38" x="60.76" y="77.95" width=".46" height=".46"/>
  <rect class="st38" x="63.32" y="83.06" width=".46" height=".46"/>
  <rect class="st38" x="65.45" y="88.18" width=".46" height=".46"/>
  <rect class="st38" x="68.01" y="93.3" width=".46" height=".46"/>
  <rect class="st38" x="32.61" y="41.69" width=".46" height=".46"/>
  <rect class="st38" x="35.17" y="46.81" width=".46" height=".46"/>
  <rect class="st38" x="37.73" y="51.93" width=".46" height=".46"/>
  <rect class="st38" x="39.86" y="57.05" width=".46" height=".46"/>
  <rect class="st38" x="42.42" y="62.17" width=".46" height=".46"/>
  <rect class="st38" x="44.55" y="67.28" width=".46" height=".46"/>
  <rect class="st38" x="47.11" y="72.4" width=".46" height=".46"/>
  <rect class="st38" x="49.67" y="77.52" width=".46" height=".46"/>
  <rect class="st38" x="51.8" y="82.64" width=".46" height=".46"/>
  <rect class="st38" x="54.36" y="87.76" width=".46" height=".46"/>
  <path class="st11" d="M111.19,82.44c0-.38-.31-.7-.7-.7s-.7.31-.7.7.31.7.7.7.7-.31.7-.7"/>
  <path class="st11" d="M120.13,85.44c0-.38-.31-.7-.7-.7s-.7.31-.7.7.31.7.7.7.7-.31.7-.7"/>
  <path class="st11" d="M125.65,90.12c0-.38-.31-.7-.7-.7s-.7.31-.7.7.31.7.7.7.7-.31.7-.7"/>
  <path class="st11" d="M100.51,71.76c0-.38-.31-.7-.7-.7s-.7.31-.7.7.31.7.7.7.7-.31.7-.7"/>
  <path class="st11" d="M115.45,83.28c0-.38-.31-.7-.7-.7s-.7.31-.7.7.31.7.7.7.7-.31.7-.7"/>
  <path class="st11" d="M120.55,83.7c0-.38-.31-.7-.7-.7s-.7.31-.7.7.31.7.7.7.7-.31.7-.7"/>
  <path class="st11" d="M91.99,72.18c0-.38-.31-.7-.7-.7s-.7.31-.7.7.31.7.7.7.7-.31.7-.7"/>
  <path class="st11" d="M102.67,79.02c0-.38-.31-.7-.7-.7s-.7.31-.7.7.31.7.7.7.7-.31.7-.7"/>
  <path class="st11" d="M115.03,76.86c0-.38-.31-.7-.7-.7s-.7.31-.7.7.31.7.7.7.7-.31.7-.7"/>
  <path class="st11" d="M108.61,80.7c0-.38-.31-.7-.7-.7s-.7.31-.7.7.31.7.7.7.7-.31.7-.7"/>
  <path class="st11" d="M123.97,83.7c0-.38-.31-.7-.7-.7s-.7.31-.7.7.31.7.7.7.7-.31.7-.7"/>
  <path class="st11" d="M115.45,81.18c0-.38-.31-.7-.7-.7s-.7.31-.7.7.31.7.7.7.7-.31.7-.7"/>
  <path class="st11" d="M123.55,87.96c0-.38-.31-.7-.7-.7s-.7.31-.7.7.31.7.7.7.7-.31.7-.7"/>
  <path class="st11" d="M133.75,89.28c0-.38-.31-.7-.7-.7s-.7.31-.7.7.31.7.7.7.7-.31.7-.7"/>
  <path class="st11" d="M119.71,82.02c0-.38-.31-.7-.7-.7s-.7.31-.7.7.31.7.7.7.7-.31.7-.7"/>
  <path class="st11" d="M98.83,69.66c0-.38-.31-.7-.7-.7s-.7.31-.7.7.31.7.7.7.7-.31.7-.7"/>
  <path class="st11" d="M98.83,75.6c0-.38-.31-.7-.7-.7s-.7.31-.7.7.31.7.7.7.7-.31.7-.7"/>
  <path class="st11" d="M103.93,75.18c0-.38-.31-.7-.7-.7s-.7.31-.7.7.31.7.7.7.7-.31.7-.7"/>
  <path class="st11" d="M125.65,87.12c0-.38-.31-.7-.7-.7s-.7.31-.7.7.31.7.7.7.7-.31.7-.7"/>
  <path class="st11" d="M119.29,83.28c0-.38-.31-.7-.7-.7s-.7.31-.7.7.31.7.7.7.7-.31.7-.7"/>
  <path class="st11" d="M109.87,74.76c0-.38-.31-.7-.7-.7s-.7.31-.7.7.31.7.7.7.7-.31.7-.7"/>
  <path class="st11" d="M130.75,88.86c0-.38-.31-.7-.7-.7s-.7.31-.7.7.31.7.7.7.7-.31.7-.7"/>
  <path class="st11" d="M113.29,83.7c0-.38-.31-.7-.7-.7s-.7.31-.7.7.31.7.7.7.7-.31.7-.7"/>
  <path class="st11" d="M114.55,82.86c0-.38-.31-.7-.7-.7s-.7.31-.7.7.31.7.7.7.7-.31.7-.7"/>
  <path class="st11" d="M116.71,85.02c0-.38-.31-.7-.7-.7s-.7.31-.7.7.31.7.7.7.7-.31.7-.7"/>
  <path class="st11" d="M101.77,74.34c0-.38-.31-.7-.7-.7s-.7.31-.7.7.31.7.7.7.7-.31.7-.7"/>
  <path class="st11" d="M103.51,74.34c0-.38-.31-.7-.7-.7s-.7.31-.7.7.31.7.7.7.7-.31.7-.7"/>
  <path class="st11" d="M115.03,80.7c0-.38-.31-.7-.7-.7s-.7.31-.7.7.31.7.7.7.7-.31.7-.7"/>
  <path class="st11" d="M113.71,84.18c0-.38-.31-.7-.7-.7s-.7.31-.7.7.31.7.7.7.7-.31.7-.7"/>
  <path class="st11" d="M122.71,84.18c0-.38-.31-.7-.7-.7s-.7.31-.7.7.31.7.7.7.7-.31.7-.7"/>
  <path class="st16" d="M135.07,105.06c0-.38-.31-.7-.7-.7s-.7.31-.7.7.31.7.7.7.7-.31.7-.7"/>
  <path class="st16" d="M109.45,107.58c0-.38-.31-.7-.7-.7s-.7.31-.7.7.31.7.7.7.7-.31.7-.7"/>
  <path class="st16" d="M162.79,114c0-.38-.31-.7-.7-.7s-.7.31-.7.7.31.7.7.7.7-.31.7-.7"/>
  <path class="st16" d="M109.03,107.16c0-.38-.31-.7-.7-.7s-.7.31-.7.7.31.7.7.7.7-.31.7-.7"/>
  <path class="st16" d="M164.89,125.52c0-.38-.31-.7-.7-.7s-.7.31-.7.7.31.7.7.7.7-.31.7-.7"/>
  <path class="st16" d="M169.99,121.68c0-.38-.31-.7-.7-.7s-.7.31-.7.7.31.7.7.7.7-.31.7-.7"/>
  <path class="st16" d="M127.81,114c0-.38-.31-.7-.7-.7s-.7.31-.7.7.31.7.7.7.7-.31.7-.7"/>
  <path class="st16" d="M170.47,129.36c0-.38-.31-.7-.7-.7s-.7.31-.7.7.31.7.7.7.7-.31.7-.7"/>
  <path class="st16" d="M158.53,117c0-.38-.31-.7-.7-.7s-.7.31-.7.7.31.7.7.7.7-.31.7-.7"/>
  <path class="st16" d="M137.59,102.06c0-.38-.31-.7-.7-.7s-.7.31-.7.7.31.7.7.7.7-.31.7-.7"/>
  <path class="st16" d="M159.37,128.52c0-.38-.31-.7-.7-.7s-.7.31-.7.7.31.7.7.7.7-.31.7-.7"/>
  <path class="st16" d="M167.47,124.26c0-.38-.31-.7-.7-.7s-.7.31-.7.7.31.7.7.7.7-.31.7-.7"/>
  <path class="st16" d="M168.31,126.78c0-.38-.31-.7-.7-.7s-.7.31-.7.7.31.7.7.7.7-.31.7-.7"/>
  <path class="st16" d="M130.75,104.22c0-.38-.31-.7-.7-.7s-.7.31-.7.7.31.7.7.7.7-.31.7-.7"/>
  <path class="st16" d="M134.59,111c0-.38-.31-.7-.7-.7s-.7.31-.7.7.31.7.7.7.7-.31.7-.7"/>
  <path class="st16" d="M120.55,91.38c0-.38-.31-.7-.7-.7s-.7.31-.7.7.31.7.7.7.7-.31.7-.7"/>
  <path class="st16" d="M114.13,94.8c0-.38-.31-.7-.7-.7s-.7.31-.7.7.31.7.7.7.7-.31.7-.7"/>
  <path class="st16" d="M159.79,124.26c0-.38-.31-.7-.7-.7s-.7.31-.7.7.31.7.7.7.7-.31.7-.7"/>
  <path class="st16" d="M147.43,118.26c0-.38-.31-.7-.7-.7s-.7.31-.7.7.31.7.7.7.7-.31.7-.7"/>
  <path class="st16" d="M135.91,108.06c0-.38-.31-.7-.7-.7s-.7.31-.7.7.31.7.7.7.7-.31.7-.7"/>
  <path class="st16" d="M162.37,126.36c0-.38-.31-.7-.7-.7s-.7.31-.7.7.31.7.7.7.7-.31.7-.7"/>
  <path class="st16" d="M153.37,128.94c0-.38-.31-.7-.7-.7s-.7.31-.7.7.31.7.7.7.7-.31.7-.7"/>
  <path class="st16" d="M162.37,121.68c0-.38-.31-.7-.7-.7s-.7.31-.7.7.31.7.7.7.7-.31.7-.7"/>
  <path class="st16" d="M135.49,113.16c0-.38-.31-.7-.7-.7s-.7.31-.7.7.31.7.7.7.7-.31.7-.7"/>
  <path class="st16" d="M158.53,124.68c0-.38-.31-.7-.7-.7s-.7.31-.7.7.31.7.7.7.7-.31.7-.7"/>
  <path class="st16" d="M160.21,127.62c0-.38-.31-.7-.7-.7s-.7.31-.7.7.31.7.7.7.7-.31.7-.7"/>
  <path class="st16" d="M135.07,103.74c0-.38-.31-.7-.7-.7s-.7.31-.7.7.31.7.7.7.7-.31.7-.7"/>
  <path class="st16" d="M160.63,128.52c0-.38-.31-.7-.7-.7s-.7.31-.7.7.31.7.7.7.7-.31.7-.7"/>
  <path class="st16" d="M170.47,124.26c0-.38-.31-.7-.7-.7s-.7.31-.7.7.31.7.7.7.7-.31.7-.7"/>
  <path class="st16" d="M121.81,96.06c0-.38-.31-.7-.7-.7s-.7.31-.7.7.31.7.7.7.7-.31.7-.7"/>
  <path class="st7" d="M64.27,76.02c0-.38-.31-.7-.7-.7s-.7.31-.7.7.31.7.7.7.7-.31.7-.7"/>
  <path class="st7" d="M70.63,83.7c0-.38-.31-.7-.7-.7s-.7.31-.7.7.31.7.7.7.7-.31.7-.7"/>
  <path class="st7" d="M91.15,78.18c0-.38-.31-.7-.7-.7s-.7.31-.7.7.31.7.7.7.7-.31.7-.7"/>
  <path class="st7" d="M60.43,78.18c0-.38-.31-.7-.7-.7s-.7.31-.7.7.31.7.7.7.7-.31.7-.7"/>
  <path class="st7" d="M64.27,82.02c0-.38-.31-.7-.7-.7s-.7.31-.7.7.31.7.7.7.7-.31.7-.7"/>
  <path class="st7" d="M71.95,80.34c0-.38-.31-.7-.7-.7s-.7.31-.7.7.31.7.7.7.7-.31.7-.7"/>
  <path class="st7" d="M46.33,64.08c0-.38-.31-.7-.7-.7s-.7.31-.7.7.31.7.7.7.7-.31.7-.7"/>
  <path class="st7" d="M58.69,64.98c0-.38-.31-.7-.7-.7s-.7.31-.7.7.31.7.7.7.7-.31.7-.7"/>
  <path class="st7" d="M61.69,74.34c0-.38-.31-.7-.7-.7s-.7.31-.7.7.31.7.7.7.7-.31.7-.7"/>
  <path class="st7" d="M100.09,84.18c0-.38-.31-.7-.7-.7s-.7.31-.7.7.31.7.7.7.7-.31.7-.7"/>
  <path class="st7" d="M59.11,76.86c0-.38-.31-.7-.7-.7s-.7.31-.7.7.31.7.7.7.7-.31.7-.7"/>
  <path class="st7" d="M88.99,96.54c0-.38-.31-.7-.7-.7s-.7.31-.7.7.31.7.7.7.7-.31.7-.7"/>
  <path class="st7" d="M99.19,105.06c0-.38-.31-.7-.7-.7s-.7.31-.7.7.31.7.7.7.7-.31.7-.7"/>
  <path class="st7" d="M58.27,75.18c0-.38-.31-.7-.7-.7s-.7.31-.7.7.31.7.7.7.7-.31.7-.7"/>
  <path class="st7" d="M62.11,70.92c0-.38-.31-.7-.7-.7s-.7.31-.7.7.31.7.7.7.7-.31.7-.7"/>
  <path class="st7" d="M62.95,79.44c0-.38-.31-.7-.7-.7s-.7.31-.7.7.31.7.7.7.7-.31.7-.7"/>
  <path class="st7" d="M45.91,58.98c0-.38-.31-.7-.7-.7s-.7.31-.7.7.31.7.7.7.7-.31.7-.7"/>
  <path class="st7" d="M86.41,75.18c0-.38-.31-.7-.7-.7s-.7.31-.7.7.31.7.7.7.7-.31.7-.7"/>
  <path class="st7" d="M109.45,111c0-.38-.31-.7-.7-.7s-.7.31-.7.7.31.7.7.7.7-.31.7-.7"/>
  <path class="st7" d="M54.43,63.24c0-.38-.31-.7-.7-.7s-.7.31-.7.7.31.7.7.7.7-.31.7-.7"/>
  <path class="st7" d="M62.95,76.5c0-.38-.31-.7-.7-.7s-.7.31-.7.7.31.7.7.7.7-.31.7-.7"/>
  <path class="st7" d="M86.83,91.8c0-.38-.31-.7-.7-.7s-.7.31-.7.7.31.7.7.7.7-.31.7-.7"/>
  <path class="st7" d="M74.05,76.5c0-.38-.31-.7-.7-.7s-.7.31-.7.7.31.7.7.7.7-.31.7-.7"/>
  <path class="st7" d="M62.53,64.08c0-.38-.31-.7-.7-.7s-.7.31-.7.7.31.7.7.7.7-.31.7-.7"/>
  <path class="st7" d="M66.79,83.28c0-.38-.31-.7-.7-.7s-.7.31-.7.7.31.7.7.7.7-.31.7-.7"/>
  <path class="st7" d="M85.99,76.5c0-.38-.31-.7-.7-.7s-.7.31-.7.7.31.7.7.7.7-.31.7-.7"/>
  <path class="st7" d="M54.43,68.82c0-.38-.31-.7-.7-.7s-.7.31-.7.7.31.7.7.7.7-.31.7-.7"/>
  <path class="st7" d="M48.07,72.66c0-.38-.31-.7-.7-.7s-.7.31-.7.7.31.7.7.7.7-.31.7-.7"/>
  <path class="st7" d="M68.11,80.7c0-.38-.31-.7-.7-.7s-.7.31-.7.7.31.7.7.7.7-.31.7-.7"/>
  <path class="st7" d="M59.11,67.5c0-.38-.31-.7-.7-.7s-.7.31-.7.7.31.7.7.7.7-.31.7-.7"/>
  <path class="st11" d="M104.62,103.32c0-.77-.62-1.39-1.39-1.39s-1.39.62-1.39,1.39.62,1.39,1.39,1.39,1.39-.62,1.39-1.39"/>
  <path class="st11" d="M120.82,84.96c0-.77-.62-1.39-1.39-1.39s-1.39.62-1.39,1.39.62,1.39,1.39,1.39,1.39-.62,1.39-1.39"/>
  <path class="st11" d="M128.5,83.76c0-.77-.62-1.39-1.39-1.39s-1.39.62-1.39,1.39.62,1.39,1.39,1.39,1.39-.62,1.39-1.39"/>
  <path class="st11" d="M96.46,85.44c0-.77-.62-1.39-1.39-1.39s-1.39.62-1.39,1.39.62,1.39,1.39,1.39,1.39-.62,1.39-1.39"/>
  <path class="st11" d="M113.57,90.54c0-.77-.62-1.39-1.39-1.39s-1.39.62-1.39,1.39.62,1.39,1.39,1.39,1.39-.62,1.39-1.39"/>
  <path class="st11" d="M119.15,90.96c0-.77-.62-1.39-1.39-1.39s-1.39.62-1.39,1.39.62,1.39,1.39,1.39,1.39-.62,1.39-1.39"/>
  <path class="st11" d="M94.36,67.08c0-.77-.62-1.39-1.39-1.39s-1.39.62-1.39,1.39.62,1.39,1.39,1.39,1.39-.62,1.39-1.39"/>
  <path class="st11" d="M101.21,84.6c0-.77-.62-1.39-1.39-1.39s-1.39.62-1.39,1.39.62,1.39,1.39,1.39,1.39-.62,1.39-1.39"/>
  <path class="st11" d="M114.46,81.12c0-.77-.62-1.39-1.39-1.39s-1.39.62-1.39,1.39.62,1.39,1.39,1.39,1.39-.62,1.39-1.39"/>
  <path class="st11" d="M110.99,75.6c0-.77-.62-1.39-1.39-1.39s-1.39.62-1.39,1.39.62,1.39,1.39,1.39,1.39-.62,1.39-1.39"/>
  <path class="st11" d="M125.08,82.44c0-.77-.62-1.39-1.39-1.39s-1.39.62-1.39,1.39.62,1.39,1.39,1.39,1.39-.62,1.39-1.39"/>
  <path class="st11" d="M113.57,88.8c0-.77-.62-1.39-1.39-1.39s-1.39.62-1.39,1.39.62,1.39,1.39,1.39,1.39-.62,1.39-1.39"/>
  <path class="st11" d="M125.5,84.12c0-.77-.62-1.39-1.39-1.39s-1.39.62-1.39,1.39.62,1.39,1.39,1.39,1.39-.62,1.39-1.39"/>
  <path class="st11" d="M134.5,88.44c0-.77-.62-1.39-1.39-1.39s-1.39.62-1.39,1.39.62,1.39,1.39,1.39,1.39-.62,1.39-1.39"/>
  <path class="st11" d="M114.82,98.64c0-.77-.62-1.39-1.39-1.39s-1.39.62-1.39,1.39.62,1.39,1.39,1.39,1.39-.62,1.39-1.39"/>
  <path class="st11" d="M95.62,80.28c0-.77-.62-1.39-1.39-1.39s-1.39.62-1.39,1.39.62,1.39,1.39,1.39,1.39-.62,1.39-1.39"/>
  <path class="st11" d="M99.94,74.34c0-.77-.62-1.39-1.39-1.39s-1.39.62-1.39,1.39.62,1.39,1.39,1.39,1.39-.62,1.39-1.39"/>
  <path class="st11" d="M104.15,76.92c0-.77-.62-1.39-1.39-1.39s-1.39.62-1.39,1.39.62,1.39,1.39,1.39,1.39-.62,1.39-1.39"/>
  <path class="st11" d="M123.82,95.28c0-.77-.62-1.39-1.39-1.39s-1.39.62-1.39,1.39.62,1.39,1.39,1.39,1.39-.62,1.39-1.39"/>
  <path class="st11" d="M117.4,90.96c0-.77-.62-1.39-1.39-1.39s-1.39.62-1.39,1.39.62,1.39,1.39,1.39,1.39-.62,1.39-1.39"/>
  <path class="st11" d="M104.15,93.48c0-.77-.62-1.39-1.39-1.39s-1.39.62-1.39,1.39.62,1.39,1.39,1.39,1.39-.62,1.39-1.39"/>
  <path class="st11" d="M128.5,97.32c0-.77-.62-1.39-1.39-1.39s-1.39.62-1.39,1.39.62,1.39,1.39,1.39,1.39-.62,1.39-1.39"/>
  <path class="st11" d="M117.4,74.34c0-.77-.62-1.39-1.39-1.39s-1.39.62-1.39,1.39.62,1.39,1.39,1.39,1.39-.62,1.39-1.39"/>
  <path class="st11" d="M114.46,86.28c0-.77-.62-1.39-1.39-1.39s-1.39.62-1.39,1.39.62,1.39,1.39,1.39,1.39-.62,1.39-1.39"/>
  <path class="st11" d="M111.82,101.64c0-.77-.62-1.39-1.39-1.39s-1.39.62-1.39,1.39.62,1.39,1.39,1.39,1.39-.62,1.39-1.39"/>
  <path class="st11" d="M102.04,75.18c0-.77-.62-1.39-1.39-1.39s-1.39.62-1.39,1.39.62,1.39,1.39,1.39,1.39-.62,1.39-1.39"/>
  <path class="st11" d="M98.62,90.96c0-.77-.62-1.39-1.39-1.39s-1.39.62-1.39,1.39.62,1.39,1.39,1.39,1.39-.62,1.39-1.39"/>
  <path class="st11" d="M110.15,96.12c0-.77-.62-1.39-1.39-1.39s-1.39.62-1.39,1.39.62,1.39,1.39,1.39,1.39-.62,1.39-1.39"/>
  <path class="st11" d="M112.72,88.8c0-.77-.62-1.39-1.39-1.39s-1.39.62-1.39,1.39.62,1.39,1.39,1.39,1.39-.62,1.39-1.39"/>
  <path class="st11" d="M121.24,90.54c0-.77-.62-1.39-1.39-1.39s-1.39.62-1.39,1.39.62,1.39,1.39,1.39,1.39-.62,1.39-1.39"/>
  <path class="st16" d="M148.12,68.4c0-.77-.62-1.39-1.39-1.39s-1.39.62-1.39,1.39.62,1.39,1.39,1.39,1.39-.62,1.39-1.39"/>
  <path class="st16" d="M111.46,102.9c0-.77-.62-1.39-1.39-1.39s-1.39.62-1.39,1.39.62,1.39,1.39,1.39,1.39-.62,1.39-1.39"/>
  <path class="st16" d="M167.74,101.64c0-.77-.62-1.39-1.39-1.39s-1.39.62-1.39,1.39.62,1.39,1.39,1.39,1.39-.62,1.39-1.39"/>
  <path class="st16" d="M112.72,97.32c0-.77-.62-1.39-1.39-1.39s-1.39.62-1.39,1.39.62,1.39,1.39,1.39,1.39-.62,1.39-1.39"/>
  <path class="st16" d="M156.65,152.4c0-.77-.62-1.39-1.39-1.39s-1.39.62-1.39,1.39.62,1.39,1.39,1.39,1.39-.62,1.39-1.39"/>
  <path class="st16" d="M167.74,130.2c0-.77-.62-1.39-1.39-1.39s-1.39.62-1.39,1.39.62,1.39,1.39,1.39,1.39-.62,1.39-1.39"/>
  <path class="st16" d="M129.76,110.58c0-.77-.62-1.39-1.39-1.39s-1.39.62-1.39,1.39.62,1.39,1.39,1.39,1.39-.62,1.39-1.39"/>
  <path class="st16" d="M159.22,165.18c0-.77-.62-1.39-1.39-1.39s-1.39.62-1.39,1.39.62,1.39,1.39,1.39,1.39-.62,1.39-1.39"/>
  <path class="st16" d="M163.07,105.9c0-.77-.62-1.39-1.39-1.39s-1.39.62-1.39,1.39.62,1.39,1.39,1.39,1.39-.62,1.39-1.39"/>
  <path class="st16" d="M149.86,67.92c0-.77-.62-1.39-1.39-1.39s-1.39.62-1.39,1.39.62,1.39,1.39,1.39,1.39-.62,1.39-1.39"/>
  <path class="st16" d="M157.07,137.46c0-.77-.62-1.39-1.39-1.39s-1.39.62-1.39,1.39.62,1.39,1.39,1.39,1.39-.62,1.39-1.39"/>
  <path class="st16" d="M157.07,157.08c0-.77-.62-1.39-1.39-1.39s-1.39.62-1.39,1.39.62,1.39,1.39,1.39,1.39-.62,1.39-1.39"/>
  <path class="st16" d="M167.26,131.88c0-.77-.62-1.39-1.39-1.39s-1.39.62-1.39,1.39.62,1.39,1.39,1.39,1.39-.62,1.39-1.39"/>
  <path class="st16" d="M141.71,74.34c0-.77-.62-1.39-1.39-1.39s-1.39.62-1.39,1.39.62,1.39,1.39,1.39,1.39-.62,1.39-1.39"/>
  <path class="st16" d="M146.02,79.92c0-.77-.62-1.39-1.39-1.39s-1.39.62-1.39,1.39.62,1.39,1.39,1.39,1.39-.62,1.39-1.39"/>
  <path class="st16" d="M132.35,59.4c0-.77-.62-1.39-1.39-1.39s-1.39.62-1.39,1.39.62,1.39,1.39,1.39,1.39-.62,1.39-1.39"/>
  <path class="st16" d="M124.66,65.4c0-.77-.62-1.39-1.39-1.39s-1.39.62-1.39,1.39.62,1.39,1.39,1.39,1.39-.62,1.39-1.39"/>
  <path class="st16" d="M160.9,122.52c0-.77-.62-1.39-1.39-1.39s-1.39.62-1.39,1.39.62,1.39,1.39,1.39,1.39-.62,1.39-1.39"/>
  <path class="st16" d="M152.38,106.32c0-.77-.62-1.39-1.39-1.39s-1.39.62-1.39,1.39.62,1.39,1.39,1.39,1.39-.62,1.39-1.39"/>
  <path class="st16" d="M146.02,79.92c0-.77-.62-1.39-1.39-1.39s-1.39.62-1.39,1.39.62,1.39,1.39,1.39,1.39-.62,1.39-1.39"/>
  <path class="st16" d="M157.9,140.4c0-.77-.62-1.39-1.39-1.39s-1.39.62-1.39,1.39.62,1.39,1.39,1.39,1.39-.62,1.39-1.39"/>
  <path class="st16" d="M150.71,138.36c0-.77-.62-1.39-1.39-1.39s-1.39.62-1.39,1.39.62,1.39,1.39,1.39,1.39-.62,1.39-1.39"/>
  <path class="st16" d="M157.07,139.2c0-.77-.62-1.39-1.39-1.39s-1.39.62-1.39,1.39.62,1.39,1.39,1.39,1.39-.62,1.39-1.39"/>
  <path class="st16" d="M142.54,95.28c0-.77-.62-1.39-1.39-1.39s-1.39.62-1.39,1.39.62,1.39,1.39,1.39,1.39-.62,1.39-1.39"/>
  <path class="st16" d="M156.65,131.52c0-.77-.62-1.39-1.39-1.39s-1.39.62-1.39,1.39.62,1.39,1.39,1.39,1.39-.62,1.39-1.39"/>
  <path class="st16" d="M154.07,148.56c0-.77-.62-1.39-1.39-1.39s-1.39.62-1.39,1.39.62,1.39,1.39,1.39,1.39-.62,1.39-1.39"/>
  <path class="st16" d="M140.02,91.8c0-.77-.62-1.39-1.39-1.39s-1.39.62-1.39,1.39.62,1.39,1.39,1.39,1.39-.62,1.39-1.39"/>
  <path class="st16" d="M156.65,142.14c0-.77-.62-1.39-1.39-1.39s-1.39.62-1.39,1.39.62,1.39,1.39,1.39,1.39-.62,1.39-1.39"/>
  <path class="st16" d="M175.85,110.16c0-.77-.62-1.39-1.39-1.39s-1.39.62-1.39,1.39.62,1.39,1.39,1.39,1.39-.62,1.39-1.39"/>
  <path class="st16" d="M131.02,71.34c0-.77-.62-1.39-1.39-1.39s-1.39.62-1.39,1.39.62,1.39,1.39,1.39,1.39-.62,1.39-1.39"/>
  <path class="st7" d="M64.54,76.92c0-.77-.62-1.39-1.39-1.39s-1.39.62-1.39,1.39.62,1.39,1.39,1.39,1.39-.62,1.39-1.39"/>
  <path class="st7" d="M73.07,79.02c0-.77-.62-1.39-1.39-1.39s-1.39.62-1.39,1.39.62,1.39,1.39,1.39,1.39-.62,1.39-1.39"/>
  <path class="st7" d="M100.3,53.04c0-.77-.62-1.39-1.39-1.39s-1.39.62-1.39,1.39.62,1.39,1.39,1.39,1.39-.62,1.39-1.39"/>
  <path class="st7" d="M48.35,115.68c0-.77-.62-1.39-1.39-1.39s-1.39.62-1.39,1.39.62,1.39,1.39,1.39,1.39-.62,1.39-1.39"/>
  <path class="st7" d="M49.18,128.04c0-.77-.62-1.39-1.39-1.39s-1.39.62-1.39,1.39.62,1.39,1.39,1.39,1.39-.62,1.39-1.39"/>
  <path class="st7" d="M79.9,58.98c0-.77-.62-1.39-1.39-1.39s-1.39.62-1.39,1.39.62,1.39,1.39,1.39,1.39-.62,1.39-1.39"/>
  <path class="st7" d="M46.18,66.24c0-.77-.62-1.39-1.39-1.39s-1.39.62-1.39,1.39.62,1.39,1.39,1.39,1.39-.62,1.39-1.39"/>
  <path class="st7" d="M54.29,80.76c0-.77-.62-1.39-1.39-1.39s-1.39.62-1.39,1.39.62,1.39,1.39,1.39,1.39-.62,1.39-1.39"/>
  <path class="st7" d="M67.07,60.24c0-.77-.62-1.39-1.39-1.39s-1.39.62-1.39,1.39.62,1.39,1.39,1.39,1.39-.62,1.39-1.39"/>
  <path class="st7" d="M110.15,56.89c0-.77-.62-1.39-1.39-1.39s-1.39.62-1.39,1.39.62,1.39,1.39,1.39,1.39-.62,1.39-1.39"/>
  <path class="st7" d="M51.71,100.32c0-.77-.62-1.39-1.39-1.39s-1.39.62-1.39,1.39.62,1.39,1.39,1.39,1.39-.62,1.39-1.39"/>
  <path class="st7" d="M93.52,84.12c0-.77-.62-1.39-1.39-1.39s-1.39.62-1.39,1.39.62,1.39,1.39,1.39,1.39-.62,1.39-1.39"/>
  <path class="st7" d="M100.3,103.8c0-.77-.62-1.39-1.39-1.39s-1.39.62-1.39,1.39.62,1.39,1.39,1.39,1.39-.62,1.39-1.39"/>
  <path class="st7" d="M61.96,67.5c0-.77-.62-1.39-1.39-1.39s-1.39.62-1.39,1.39.62,1.39,1.39,1.39,1.39-.62,1.39-1.39"/>
  <path class="st7" d="M67.54,56.89c0-.77-.62-1.39-1.39-1.39s-1.39.62-1.39,1.39.62,1.39,1.39,1.39,1.39-.62,1.39-1.39"/>
  <path class="st7" d="M59.38,91.44c0-.77-.62-1.39-1.39-1.39s-1.39.62-1.39,1.39.62,1.39,1.39,1.39,1.39-.62,1.39-1.39"/>
  <path class="st7" d="M46.6,58.56c0-.77-.62-1.39-1.39-1.39s-1.39.62-1.39,1.39.62,1.39,1.39,1.39,1.39-.62,1.39-1.39"/>
  <path class="st7" d="M93.52,57.24c0-.77-.62-1.39-1.39-1.39s-1.39.62-1.39,1.39.62,1.39,1.39,1.39,1.39-.62,1.39-1.39"/>
  <path class="st7" d="M112.3,104.64c0-.77-.62-1.39-1.39-1.39s-1.39.62-1.39,1.39.62,1.39,1.39,1.39,1.39-.62,1.39-1.39"/>
  <path class="st7" d="M56.02,60.72c0-.77-.62-1.39-1.39-1.39s-1.39.62-1.39,1.39.62,1.39,1.39,1.39,1.39-.62,1.39-1.39"/>
  <path class="st7" d="M63.22,77.28c0-.77-.62-1.39-1.39-1.39s-1.39.62-1.39,1.39.62,1.39,1.39,1.39,1.39-.62,1.39-1.39"/>
  <path class="st7" d="M90.94,81.6c0-.77-.62-1.39-1.39-1.39s-1.39.62-1.39,1.39.62,1.39,1.39,1.39,1.39-.62,1.39-1.39"/>
  <path class="st7" d="M85.85,44.89c0-.77-.62-1.39-1.39-1.39s-1.39.62-1.39,1.39.62,1.39,1.39,1.39,1.39-.62,1.39-1.39"/>
  <path class="st7" d="M64.54,59.4c0-.77-.62-1.39-1.39-1.39s-1.39.62-1.39,1.39.62,1.39,1.39,1.39,1.39-.62,1.39-1.39"/>
  <path class="st7" d="M62.8,96.48c0-.77-.62-1.39-1.39-1.39s-1.39.62-1.39,1.39.62,1.39,1.39,1.39,1.39-.62,1.39-1.39"/>
  <path class="st7" d="M92.62,59.88c0-.77-.62-1.39-1.39-1.39s-1.39.62-1.39,1.39.62,1.39,1.39,1.39,1.39-.62,1.39-1.39"/>
  <path class="st7" d="M51.29,79.92c0-.77-.62-1.39-1.39-1.39s-1.39.62-1.39,1.39.62,1.39,1.39,1.39,1.39-.62,1.39-1.39"/>
  <path class="st7" d="M39.82,98.22c0-.77-.62-1.39-1.39-1.39s-1.39.62-1.39,1.39.62,1.39,1.39,1.39,1.39-.62,1.39-1.39"/>
  <path class="st7" d="M62.38,99.96c0-.77-.62-1.39-1.39-1.39s-1.39.62-1.39,1.39.62,1.39,1.39,1.39,1.39-.62,1.39-1.39"/>
  <path class="st7" d="M63.71,55.14c0-.77-.62-1.39-1.39-1.39s-1.39.62-1.39,1.39.62,1.39,1.39,1.39,1.39-.62,1.39-1.39"/>
  <text class="st13" transform="translate(279.61 212.96)"><tspan x="0" y="0">First principal component</tspan></text>
  <text class="st13" transform="translate(230.92 169.03) rotate(-90)"><tspan x="0" y="0">Second principal component</tspan></text>
  <line class="st3" x1="259.93" y1="184.8" x2="259.93" y2="187.77"/>
  <line class="st3" x1="300.11" y1="184.8" x2="300.11" y2="187.77"/>
  <line class="st3" x1="340.38" y1="184.8" x2="340.38" y2="187.77"/>
  <line class="st3" x1="380.55" y1="184.8" x2="380.55" y2="187.77"/>
  <line class="st3" x1="420.82" y1="184.8" x2="420.82" y2="187.77"/>
  <line class="st3" x1="259.94" y1="184.8" x2="420.82" y2="184.8"/>
  <text class="st15" transform="translate(253.1 196.05)"><tspan x="0" y="0">−1.</tspan><tspan class="st27" x="9.82" y="0">0</tspan><tspan class="st25" x="40.17" y="0">−0.</tspan><tspan class="st32" x="49.99" y="0">5</tspan><tspan x="82.46" y="0">0.</tspan><tspan class="st28" x="88.23" y="0">0</tspan><tspan class="st36" x="122.62" y="0">0.</tspan><tspan class="st31" x="128.4" y="0">5</tspan><tspan class="st36" x="162.89" y="0">1.0</tspan></text>
  <line class="st3" x1="253.4" y1="178.37" x2="249.74" y2="178.37"/>
  <line class="st3" x1="253.4" y1="138.3" x2="249.74" y2="138.3"/>
  <line class="st3" x1="253.4" y1="98.13" x2="249.74" y2="98.13"/>
  <line class="st3" x1="253.4" y1="58.06" x2="249.74" y2="58.06"/>
  <line class="st3" x1="253.4" y1="17.98" x2="249.74" y2="17.98"/>
  <line class="st3" x1="253.4" y1="178.37" x2="253.4" y2="17.98"/>
  <text class="st15" transform="translate(244.77 185.21) rotate(-90)"><tspan x="0" y="0">−1.</tspan><tspan class="st26" x="9.82" y="0">0</tspan><tspan x="40.07" y="0">−0.</tspan><tspan class="st33" x="49.89" y="0">5</tspan><tspan x="82.25" y="0">0.</tspan><tspan class="st30" x="88.03" y="0">0</tspan><tspan class="st36" x="122.32" y="0">0.</tspan><tspan class="st29" x="128.1" y="0">5</tspan><tspan x="162.39" y="0">1.0</tspan></text>
  <rect class="st3" x="253.4" y=".18" width="185.22" height="184.63"/>
  <text class="st12" transform="translate(294.54 109.63)"><tspan x="0" y="0">•</tspan></text>
  <text class="st12" transform="translate(289.2 122.2)"><tspan x="0" y="0">•</tspan></text>
  <text class="st12" transform="translate(300.87 127.94)"><tspan x="0" y="0">•</tspan></text>
  <text class="st12" transform="translate(265.45 100.24)"><tspan x="0" y="0">•</tspan></text>
  <text class="st12" transform="translate(288.31 116.56)"><tspan x="0" y="0">•</tspan></text>
  <text class="st12" transform="translate(281.38 124.57)"><tspan x="0" y="0">•</tspan></text>
  <text class="st12" transform="translate(284.55 85.59)"><tspan x="0" y="0">•</tspan></text>
  <text class="st12" transform="translate(294.94 98.06)"><tspan x="0" y="0">•</tspan></text>
  <text class="st12" transform="translate(259.81 120.62)"><tspan x="0" y="0">•</tspan></text>
  <text class="st12" transform="translate(290.78 106.67)"><tspan x="0" y="0">•</tspan></text>
  <text class="st12" transform="translate(274.36 130.02)"><tspan x="0" y="0">•</tspan></text>
  <text class="st12" transform="translate(278.22 118.14)"><tspan x="0" y="0">•</tspan></text>
  <text class="st12" transform="translate(294.14 126.35)"><tspan x="0" y="0">•</tspan></text>
  <text class="st12" transform="translate(281.18 141.69)"><tspan x="0" y="0">•</tspan></text>
  <text class="st12" transform="translate(275.44 124.18)"><tspan x="0" y="0">•</tspan></text>
  <text class="st12" transform="translate(258.33 99.15)"><tspan x="0" y="0">•</tspan></text>
  <text class="st12" transform="translate(286.63 94.69)"><tspan x="0" y="0">•</tspan></text>
  <text class="st12" transform="translate(274.75 103.5)"><tspan x="0" y="0">•</tspan></text>
  <text class="st12" transform="translate(286.43 130.41)"><tspan x="0" y="0">•</tspan></text>
  <text class="st12" transform="translate(281.48 122.69)"><tspan x="0" y="0">•</tspan></text>
  <text class="st12" transform="translate(260.6 113.39)"><tspan x="0" y="0">•</tspan></text>
  <text class="st12" transform="translate(284.05 137.63)"><tspan x="0" y="0">•</tspan></text>
  <text class="st12" transform="translate(295.03 112.6)"><tspan x="0" y="0">•</tspan></text>
  <text class="st12" transform="translate(287.71 115.57)"><tspan x="0" y="0">•</tspan></text>
  <text class="st12" transform="translate(293.65 117.35)"><tspan x="0" y="0">•</tspan></text>
  <text class="st12" transform="translate(275.05 100.43)"><tspan x="0" y="0">•</tspan></text>
  <text class="st12" transform="translate(271.69 103.2)"><tspan x="0" y="0">•</tspan></text>
  <text class="st12" transform="translate(277.92 117.35)"><tspan x="0" y="0">•</tspan></text>
  <text class="st12" transform="translate(297.71 112.3)"><tspan x="0" y="0">•</tspan></text>
  <text class="st12" transform="translate(278.81 127.54)"><tspan x="0" y="0">•</tspan></text>
  <path class="st4" d="M280.71,124.84"/>
  <text class="st14" transform="translate(351.73 131.6)"><tspan x="0" y="0">•</tspan></text>
  <text class="st14" transform="translate(414.66 87.17)"><tspan x="0" y="0">•</tspan></text>
  <text class="st14" transform="translate(337.68 171.08)"><tspan x="0" y="0">•</tspan></text>
  <text class="st14" transform="translate(413.67 86.68)"><tspan x="0" y="0">•</tspan></text>
  <text class="st14" transform="translate(388.34 165.64)"><tspan x="0" y="0">•</tspan></text>
  <text class="st14" transform="translate(359.35 176.92)"><tspan x="0" y="0">•</tspan></text>
  <text class="st14" transform="translate(407.33 113.1)"><tspan x="0" y="0">•</tspan></text>
  <text class="st14" transform="translate(395.06 171.77)"><tspan x="0" y="0">•</tspan></text>
  <text class="st14" transform="translate(360.24 161.58)"><tspan x="0" y="0">•</tspan></text>
  <text class="st14" transform="translate(332.53 138.43)"><tspan x="0" y="0">•</tspan></text>
  <text class="st14" transform="translate(414.16 153.47)"><tspan x="0" y="0">•</tspan></text>
  <text class="st14" transform="translate(376.96 170.98)"><tspan x="0" y="0">•</tspan></text>
  <text class="st14" transform="translate(386.46 170.49)"><tspan x="0" y="0">•</tspan></text>
  <text class="st14" transform="translate(356.97 125.47)"><tspan x="0" y="0">•</tspan></text>
  <text class="st14" transform="translate(380.03 126.65)"><tspan x="0" y="0">•</tspan></text>
  <text class="st14" transform="translate(316.9 118.44)"><tspan x="0" y="0">•</tspan></text>
  <text class="st14" transform="translate(345.1 104.98)"><tspan x="0" y="0">•</tspan></text>
  <text class="st14" transform="translate(393.58 157.52)"><tspan x="0" y="0">•</tspan></text>
  <text class="st14" transform="translate(390.12 141.89)"><tspan x="0" y="0">•</tspan></text>
  <text class="st14" transform="translate(364.79 130.51)"><tspan x="0" y="0">•</tspan></text>
  <text class="st14" transform="translate(397.34 160.29)"><tspan x="0" y="0">•</tspan></text>
  <text class="st14" transform="translate(427.02 143.57)"><tspan x="0" y="0">•</tspan></text>
  <text class="st14" transform="translate(376.46 163.86)"><tspan x="0" y="0">•</tspan></text>
  <text class="st14" transform="translate(389.42 126.16)"><tspan x="0" y="0">•</tspan></text>
  <text class="st14" transform="translate(396.75 155.54)"><tspan x="0" y="0">•</tspan></text>
  <text class="st14" transform="translate(407.73 156.04)"><tspan x="0" y="0">•</tspan></text>
  <text class="st14" transform="translate(345.89 132.98)"><tspan x="0" y="0">•</tspan></text>
  <text class="st14" transform="translate(411.09 155.74)"><tspan x="0" y="0">•</tspan></text>
  <text class="st14" transform="translate(370.63 175.73)"><tspan x="0" y="0">•</tspan></text>
  <text class="st14" transform="translate(337.18 116.66)"><tspan x="0" y="0">•</tspan></text>
  <path class="st1" d="M339.09,113.96"/>
  <text class="st10" transform="translate(356.28 36.81)"><tspan x="0" y="0">•</tspan></text>
  <text class="st10" transform="translate(380.52 41.56)"><tspan x="0" y="0">•</tspan></text>
  <text class="st10" transform="translate(312.45 80.05)"><tspan x="0" y="0">•</tspan></text>
  <text class="st10" transform="translate(373.69 29.19)"><tspan x="0" y="0">•</tspan></text>
  <text class="st10" transform="translate(384.97 31.96)"><tspan x="0" y="0">•</tspan></text>
  <text class="st10" transform="translate(361.33 46.41)"><tspan x="0" y="0">•</tspan></text>
  <text class="st10" transform="translate(336.39 16.63)"><tspan x="0" y="0">•</tspan></text>
  <text class="st10" transform="translate(316.41 36.62)"><tspan x="0" y="0">•</tspan></text>
  <text class="st10" transform="translate(354.1 34.04)"><tspan x="0" y="0">•</tspan></text>
  <text class="st10" transform="translate(323.83 90.24)"><tspan x="0" y="0">•</tspan></text>
  <text class="st10" transform="translate(371.32 27.51)"><tspan x="0" y="0">•</tspan></text>
  <text class="st10" transform="translate(403.28 61.85)"><tspan x="0" y="0">•</tspan></text>
  <text class="st10" transform="translate(423.46 72.13)"><tspan x="0" y="0">•</tspan></text>
  <text class="st10" transform="translate(364.79 27.91)"><tspan x="0" y="0">•</tspan></text>
  <text class="st10" transform="translate(338.27 37.01)"><tspan x="0" y="0">•</tspan></text>
  <text class="st10" transform="translate(374.98 32.16)"><tspan x="0" y="0">•</tspan></text>
  <text class="st10" transform="translate(313.44 19.6)"><tspan x="0" y="0">•</tspan></text>
  <text class="st10" transform="translate(309.28 74.31)"><tspan x="0" y="0">•</tspan></text>
  <g class="st23">
    <text class="st10" transform="translate(429.89 84.7)"><tspan x="0" y="0">•</tspan></text>
  </g>
  <text class="st10" transform="translate(316.9 30.48)"><tspan x="0" y="0">•</tspan></text>
  <text class="st10" transform="translate(362.31 34.24)"><tspan x="0" y="0">•</tspan></text>
  <text class="st10" transform="translate(384.87 62.34)"><tspan x="0" y="0">•</tspan></text>
  <text class="st10" transform="translate(339.46 53.04)"><tspan x="0" y="0">•</tspan></text>
  <text class="st10" transform="translate(305.52 43.05)"><tspan x="0" y="0">•</tspan></text>
  <text class="st10" transform="translate(385.47 35.53)"><tspan x="0" y="0">•</tspan></text>
  <text class="st10" transform="translate(314.62 73.13)"><tspan x="0" y="0">•</tspan></text>
  <text class="st10" transform="translate(343.81 25.83)"><tspan x="0" y="0">•</tspan></text>
  <text class="st10" transform="translate(372.41 12.77)"><tspan x="0" y="0">•</tspan></text>
  <text class="st10" transform="translate(371.61 39.88)"><tspan x="0" y="0">•</tspan></text>
  <text class="st10" transform="translate(326.7 34.93)"><tspan x="0" y="0">•</tspan></text>
  <path class="st2" d="M328.6,32.23"/>
</svg>