<?xml version="1.0" encoding="UTF-8"?>
<svg id="PCA-Fig3b" xmlns="http://www.w3.org/2000/svg" version="1.1" viewBox="0 0 195.75 131.53">
  <!-- Generator: Adobe Illustrator 30.2.1, SVG Export Plug-In . SVG Version: 2.1.1 Build 1)  -->
  <defs>
    <style>
      .st0 {
        fill: #cb372b;
      }

      .st0, .st1, .st2, .st3 {
        fill-rule: evenodd;
      }

      .st4 {
        fill: #b22b2d;
        font-size: 7.2px;
      }

      .st4, .st5, .st6 {
        font-family: Helvetica, Helvetica;
      }

      .st1, .st5, .st7, .st8 {
        fill: #333a94;
      }

      .st9 {
        stroke: #333a94;
      }

      .st9, .st10, .st11, .st12, .st13, .st14, .st15, .st16, .st17 {
        fill: none;
        stroke-miterlimit: 10;
      }

      .st9, .st11, .st12, .st15, .st17 {
        stroke-width: 1.8px;
      }

      .st10, .st11 {
        stroke: #9a3225;
      }

      .st10, .st14, .st16 {
        stroke-width: 1.35px;
      }

      .st12 {
        stroke-linecap: round;
      }

      .st12, .st17 {
        stroke: #b22b2d;
      }

      .st2, .st18, .st6, .st19 {
        fill: #f1e0e0;
      }

      .st3 {
        fill: #29b6e9;
      }

      .st5, .st7, .st18, .st6, .st8 {
        font-size: 7.2px;
      }

      .st7, .st18 {
        font-family: Symbol, Symbol;
      }

      .st13 {
        stroke: #7bcaf1;
        stroke-width: .45px;
      }

      .st14 {
        stroke: #f1e0e0;
      }

      .st8 {
        font-family: Helvetica-Oblique, Helvetica;
        font-style: oblique;
      }

      .st15 {
        stroke: #f4c7c5;
        stroke-dasharray: .68 .9;
        stroke-dashoffset: .73px;
      }

      .st16 {
        stroke: #cb372b;
        stroke-dasharray: .45 1.35;
        stroke-dashoffset: 1.46px;
      }
    </style>
  </defs>
  <text class="st18" transform="translate(75.21 64)"><tspan x="0" y="0">−</tspan></text>
  <text class="st6" transform="translate(79.16 64)"><tspan x="0" y="0">2</tspan></text>
  <text class="st18" transform="translate(64.03 64)"><tspan x="0" y="0">−</tspan></text>
  <text class="st6" transform="translate(67.98 64)"><tspan x="0" y="0">3</tspan></text>
  <text class="st18" transform="translate(52.85 64)"><tspan x="0" y="0">−</tspan></text>
  <text class="st6" transform="translate(56.8 64)"><tspan x="0" y="0">4</tspan></text>
  <text class="st18" transform="translate(41.67 64)"><tspan x="0" y="0">−</tspan></text>
  <text class="st6" transform="translate(45.62 64)"><tspan x="0" y="0">5</tspan></text>
  <text class="st18" transform="translate(30.49 64)"><tspan x="0" y="0">−</tspan></text>
  <text class="st6" transform="translate(34.44 64)"><tspan x="0" y="0">6</tspan></text>
  <text class="st18" transform="translate(19.31 64)"><tspan x="0" y="0">−</tspan></text>
  <text class="st6" transform="translate(23.26 64)"><tspan x="0" y="0">7</tspan></text>
  <text class="st18" transform="translate(86.38 64.26)"><tspan x="0" y="0">−</tspan></text>
  <text class="st6" transform="translate(90.34 64.26)"><tspan x="0" y="0">1</tspan></text>
  <text class="st5" transform="translate(173.65 39.95)"><tspan x="0" y="0">4.99</tspan></text>
  <text class="st7" transform="translate(155.03 11.29)"><tspan x="0" y="0">−</tspan></text>
  <text class="st5" transform="translate(158.98 11.29)"><tspan x="0" y="0">0.38</tspan></text>
  <path class="st3" d="M104.46,69.07c0,1.11-.9,2.01-2.01,2.01s-2.01-.9-2.01-2.01.9-2.01,2.01-2.01,2.01.9,2.01,2.01"/>
  <path class="st13" d="M104.46,69.07c0,1.11-.9,2.01-2.01,2.01s-2.01-.9-2.01-2.01.9-2.01,2.01-2.01,2.01.9,2.01,2.01Z"/>
  <path class="st3" d="M115.92,68.81c0,1.11-.9,2.01-2,2.01s-2.01-.9-2.01-2.01.9-2.01,2.01-2.01,2,.9,2,2.01"/>
  <path class="st13" d="M115.92,68.81c0,1.11-.9,2.01-2,2.01s-2.01-.9-2.01-2.01.9-2.01,2.01-2.01,2,.9,2,2.01Z"/>
  <text class="st6" transform="translate(83.25 28.94)"><tspan x="0" y="0">Infectious</tspan></text>
  <path class="st3" d="M104.02,102.7c0,1.11-.9,2.01-2.01,2.01s-2.01-.9-2.01-2.01.9-2.01,2.01-2.01,2.01.9,2.01,2.01"/>
  <path class="st13" d="M104.02,102.7c0,1.11-.9,2.01-2.01,2.01s-2.01-.9-2.01-2.01.9-2.01,2.01-2.01,2.01.9,2.01,2.01Z"/>
  <path class="st3" d="M35.68,57.32c0,1.11-.9,2.01-2.01,2.01s-2.01-.9-2.01-2.01.9-2,2.01-2,2.01.9,2.01,2"/>
  <path class="st13" d="M35.68,57.32c0,1.11-.9,2.01-2.01,2.01s-2.01-.9-2.01-2.01.9-2,2.01-2,2.01.9,2.01,2Z"/>
  <text class="st6" transform="translate(69.5 77.66)"><tspan x="0" y="0">Across</tspan></text>
  <text class="st6" transform="translate(107.32 65.34)"><tspan x="0" y="0">Insane</tspan></text>
  <line class="st10" x1="100.29" y1="102.7" x2="103.16" y2="102.7"/>
  <line class="st14" x1="91.56" y1="68.2" x2="91.56" y2="71.07"/>
  <path class="st3" d="M93.57,69.35c0,1.11-.9,2.01-2.01,2.01s-2.01-.9-2.01-2.01.9-2.01,2.01-2.01,2.01.9,2.01,2.01"/>
  <path class="st13" d="M93.57,69.35c0,1.11-.9,2.01-2.01,2.01s-2.01-.9-2.01-2.01.9-2.01,2.01-2.01,2.01.9,2.01,2.01Z"/>
  <line class="st14" x1="114.49" y1="67.63" x2="114.49" y2="70.5"/>
  <path class="st3" d="M183.84,91.99c0,1.11-.9,2.01-2.01,2.01s-2.01-.9-2.01-2.01.9-2.01,2.01-2.01,2.01.9,2.01,2.01"/>
  <path class="st13" d="M183.84,91.99c0,1.11-.9,2.01-2.01,2.01s-2.01-.9-2.01-2.01.9-2.01,2.01-2.01,2.01.9,2.01,2.01Z"/>
  <path class="st3" d="M162.34,81.1c0,1.11-.9,2-2.01,2s-2.01-.9-2.01-2,.9-2.01,2.01-2.01,2.01.9,2.01,2.01"/>
  <path class="st13" d="M162.34,81.1c0,1.11-.9,2-2.01,2s-2.01-.9-2.01-2,.9-2.01,2.01-2.01,2.01.9,2.01,2.01Z"/>
  <path class="st0" d="M151.59,102.41c0,1.11-.9,2.01-2.01,2.01s-2.01-.9-2.01-2.01.9-2.01,2.01-2.01,2.01.9,2.01,2.01"/>
  <path class="st11" d="M151.59,102.41c0,1.11-.9,2.01-2.01,2.01s-2.01-.9-2.01-2.01.9-2.01,2.01-2.01,2.01.9,2.01,2.01Z"/>
  <path class="st14" d="M100.73,114.63h2.87M101.31,79.38h2.86M100.45,56.74h2.86M100.73,46.14h2.87M100.73,34.1h2.87M101.02,21.49h2.87M101.02,11.46h2.87M184.41,68.2v2.87M171.8,67.92v2.87M160.91,67.92v2.87M137.41,67.92v2.87M125.66,67.63v2.87M79.53,68.2v2.87M68.92,67.92v2.87M57.18,67.34v2.86M45.71,67.34v2.86M33.96,67.34v2.86M21.93,67.06v2.87"/>
  <line class="st10" x1="149.45" y1="67.63" x2="149.45" y2="70.5"/>
  <polyline class="st2" points="12.47 68.26 193.58 68.83 193.29 69.12"/>
  <polyline class="st15" points="12.47 68.26 193.58 68.83 193.29 69.12"/>
  <line class="st19" x1="101.88" y1="131.53" x2="101.55" y2="0"/>
  <line class="st15" x1="101.88" y1="131.53" x2="101.55" y2="0"/>
  <path class="st16" d="M154.47,93.99l-4.36,7.97M147.59,101.31l-47.47-27.24-.27-.11"/>
  <line class="st9" x1="102.38" y1="72.11" x2="164.9" y2="14.56"/>
  <polyline class="st1" points="103.81 69.37 102.13 72.29 105.16 70.84 105.28 69.37 103.81 69.37"/>
  <path class="st9" d="M155.57,94.41l22.09-50.45M103.81,69.37l-1.68,2.92,3.04-1.45.11-1.47h-1.47Z"/>
  <polyline class="st1" points="155.43 92.18 155.06 95.54 157.26 92.98 156.78 91.59 155.43 92.18"/>
  <polygon class="st9" points="155.43 92.18 155.06 95.54 157.26 92.98 156.78 91.59 155.43 92.18"/>
  <line class="st12" x1="75.21" y1="114.59" x2="127.21" y2="25.45"/>
  <line class="st17" x1="21.7" y1="22.64" x2="189.22" y2="119.36"/>
  <text class="st6" transform="translate(93.62 12.04)"><tspan x="0" y="0">5</tspan></text>
  <text class="st6" transform="translate(93.62 23.79)"><tspan x="0" y="0">4</tspan></text>
  <text class="st6" transform="translate(93.62 34.96)"><tspan x="0" y="0">3</tspan></text>
  <text class="st6" transform="translate(93.62 46.71)"><tspan x="0" y="0">2</tspan></text>
  <text class="st6" transform="translate(93.62 57.89)"><tspan x="0" y="0">1</tspan></text>
  <text class="st6" transform="translate(126.81 75.65)"><tspan x="0" y="0">Slope</tspan></text>
  <text class="st6" transform="translate(14.19 44.13)"><tspan x="0" y="0">Therefore</tspan></text>
  <text class="st6" transform="translate(62.91 42.7)"><tspan x="0" y="0">Scoundrel</tspan></text>
  <text class="st6" transform="translate(40.56 20.06)"><tspan x="0" y="0">Generality</tspan></text>
  <text class="st6" transform="translate(158.04 76.23)"><tspan x="0" y="0">Arise</tspan></text>
  <text class="st6" transform="translate(142.43 90.27)"><tspan x="0" y="0">Solid</tspan></text>
  <text class="st6" transform="translate(176.1 87.97)"><tspan x="0" y="0">Blot</tspan></text>
  <text class="st6" transform="translate(165.21 112.33)"><tspan x="0" y="0">Bag</tspan></text>
  <text class="st6" transform="translate(134.84 110.61)"><tspan x="0" y="0">On</tspan></text>
  <text class="st6" transform="translate(110.68 87.4)"><tspan x="0" y="0">With</tspan></text>
  <text class="st6" transform="translate(111.15 108.32)"><tspan x="0" y="0">For</tspan></text>
  <text class="st6" transform="translate(123.33 120.64)"><tspan x="0" y="0">By</tspan></text>
  <text class="st6" transform="translate(120.75 97.72)"><tspan x="0" y="0">This</tspan></text>
  <text class="st6" transform="translate(109.34 78.23)"><tspan x="0" y="0">Relief</tspan></text>
  <text class="st6" transform="translate(33.68 31.52)"><tspan x="0" y="0">Monastery</tspan></text>
  <text class="st6" transform="translate(41.99 8.02)"><tspan x="0" y="0">Pretentious</tspan></text>
  <text class="st6" transform="translate(159.77 64.76)"><tspan x="0" y="0">5</tspan></text>
  <text class="st6" transform="translate(182.98 64.47)"><tspan x="0" y="0">7</tspan></text>
  <text class="st6" transform="translate(171.23 64.76)"><tspan x="0" y="0">6</tspan></text>
  <text class="st6" transform="translate(137.13 65.05)"><tspan x="0" y="0">3</tspan></text>
  <text class="st6" transform="translate(125.38 65.05)"><tspan x="0" y="0">2</tspan></text>
  <text class="st6" transform="translate(113.34 65.05)"><tspan x="0" y="0">1</tspan></text>
  <text class="st18" transform="translate(89.55 94.28)"><tspan x="0" y="0">−</tspan></text>
  <text class="st6" transform="translate(93.5 94.28)"><tspan x="0" y="0">2</tspan></text>
  <text class="st18" transform="translate(89.55 82.82)"><tspan x="0" y="0">−</tspan></text>
  <text class="st6" transform="translate(93.5 82.82)"><tspan x="0" y="0">1</tspan></text>
  <text class="st18" transform="translate(89.55 118.06)"><tspan x="0" y="0">−</tspan></text>
  <text class="st6" transform="translate(93.5 118.06)"><tspan x="0" y="0">4</tspan></text>
  <text class="st6" transform="translate(0 56.85)"><tspan x="0" y="0">Neither</tspan></text>
  <text class="st18" transform="translate(89.55 106.89)"><tspan x="0" y="0">−</tspan></text>
  <text class="st6" transform="translate(93.5 106.89)"><tspan x="0" y="0">3</tspan></text>
  <text class="st8" transform="translate(141.42 114.34)"><tspan x="0" y="0">Sur</tspan></text>
  <text class="st6" transform="translate(147.44 65.05)"><tspan x="0" y="0">4</tspan></text>
  <text class="st4" transform="translate(186.72 111.56) rotate(30)"><tspan x="0" y="0">1</tspan></text>
  <path class="st3" d="M173.23,103.17c0,1.11-.9,2.01-2.01,2.01s-2.01-.9-2.01-2.01.9-2.01,2.01-2.01,2.01.9,2.01,2.01"/>
  <path class="st13" d="M173.23,103.17c0,1.11-.9,2.01-2.01,2.01s-2.01-.9-2.01-2.01.9-2.01,2.01-2.01,2.01.9,2.01,2.01Z"/>
  <text class="st4" transform="translate(70.88 106.02) rotate(-60)"><tspan x="0" y="0">2</tspan></text>
  <path class="st3" d="M139.71,114.63c0,1.11-.9,2.01-2.01,2.01s-2.01-.9-2.01-2.01.9-2.01,2.01-2.01,2.01.9,2.01,2.01"/>
  <path class="st13" d="M139.71,114.63c0,1.11-.9,2.01-2.01,2.01s-2.01-.9-2.01-2.01.9-2.01,2.01-2.01,2.01.9,2.01,2.01Z"/>
  <path class="st3" d="M116.61,114.21c0,1.11-.9,2.01-2.01,2.01s-2.01-.9-2.01-2.01.9-2.01,2.01-2.01,2.01.9,2.01,2.01"/>
  <path class="st13" d="M116.61,114.21c0,1.11-.9,2.01-2.01,2.01s-2.01-.9-2.01-2.01.9-2.01,2.01-2.01,2.01.9,2.01,2.01Z"/>
  <path class="st3" d="M52.88,34.39c0,1.11-.9,2.01-2,2.01s-2.01-.9-2.01-2.01.9-2.01,2.01-2.01,2,.9,2,2.01"/>
  <path class="st13" d="M52.88,34.39c0,1.11-.9,2.01-2,2.01s-2.01-.9-2.01-2.01.9-2.01,2.01-2.01,2,.9,2,2.01Z"/>
  <path class="st3" d="M64.32,34.37c0,1.11-.9,2.01-2.01,2.01s-2-.9-2-2.01.9-2.01,2-2.01,2.01.9,2.01,2.01"/>
  <path class="st13" d="M64.32,34.37c0,1.11-.9,2.01-2.01,2.01s-2-.9-2-2.01.9-2.01,2-2.01,2.01.9,2.01,2.01Z"/>
  <path class="st3" d="M60.04,11.47c0,1.11-.9,2.01-2.01,2.01s-2.01-.9-2.01-2.01.9-2.01,2.01-2.01,2.01.9,2.01,2.01"/>
  <path class="st13" d="M60.04,11.47c0,1.11-.9,2.01-2.01,2.01s-2.01-.9-2.01-2.01.9-2.01,2.01-2.01,2.01.9,2.01,2.01Z"/>
  <path class="st3" d="M24.68,35.12c0,1.11-.9,2.01-2.01,2.01s-2.01-.9-2.01-2.01.9-2.01,2.01-2.01,2.01.9,2.01,2.01"/>
  <path class="st13" d="M24.68,35.12c0,1.11-.9,2.01-2.01,2.01s-2.01-.9-2.01-2.01.9-2.01,2.01-2.01,2.01.9,2.01,2.01Z"/>
  <path class="st3" d="M59.76,22.93c0,1.11-.9,2.01-2.01,2.01s-2.01-.9-2.01-2.01.9-2.01,2.01-2.01,2.01.9,2.01,2.01"/>
  <path class="st13" d="M59.76,22.93c0,1.11-.9,2.01-2.01,2.01s-2.01-.9-2.01-2.01.9-2.01,2.01-2.01,2.01.9,2.01,2.01Z"/>
  <path class="st3" d="M81.84,22.08c0,1.11-.9,2.01-2.01,2.01s-2.01-.9-2.01-2.01.9-2.01,2.01-2.01,2.01.9,2.01,2.01"/>
  <path class="st13" d="M81.84,22.08c0,1.11-.9,2.01-2.01,2.01s-2.01-.9-2.01-2.01.9-2.01,2.01-2.01,2.01.9,2.01,2.01Z"/>
  <path class="st3" d="M104.02,91.55c0,1.11-.9,2.01-2.01,2.01s-2.01-.9-2.01-2.01.9-2.01,2.01-2.01,2.01.9,2.01,2.01"/>
  <path class="st13" d="M104.02,91.55c0,1.11-.9,2.01-2.01,2.01s-2.01-.9-2.01-2.01.9-2.01,2.01-2.01,2.01.9,2.01,2.01Z"/>
  <path class="st3" d="M116.34,91.74c0,1.11-.9,2.01-2.01,2.01s-2.01-.9-2.01-2.01.9-2.01,2.01-2.01,2.01.9,2.01,2.01"/>
  <path class="st13" d="M116.34,91.74c0,1.11-.9,2.01-2.01,2.01s-2.01-.9-2.01-2.01.9-2.01,2.01-2.01,2.01.9,2.01,2.01Z"/>
  <path class="st3" d="M139.25,80.77c0,1.11-.9,2.01-2.01,2.01s-2.01-.9-2.01-2.01.9-2.01,2.01-2.01,2.01.9,2.01,2.01"/>
  <path class="st13" d="M139.25,80.77c0,1.11-.9,2.01-2.01,2.01s-2.01-.9-2.01-2.01.9-2.01,2.01-2.01,2.01.9,2.01,2.01Z"/>
  <path class="st3" d="M151.45,80.82c0,1.11-.9,2.01-2.01,2.01s-2.01-.9-2.01-2.01.9-2.01,2.01-2.01,2.01.9,2.01,2.01"/>
  <path class="st13" d="M151.45,80.82c0,1.11-.9,2.01-2.01,2.01s-2.01-.9-2.01-2.01.9-2.01,2.01-2.01,2.01.9,2.01,2.01Z"/>
</svg>