<?xml version="1.0" encoding="UTF-8"?>
<svg id="PCA-Fig3a" xmlns="http://www.w3.org/2000/svg" version="1.1" viewBox="0 0 195.75 131.53">
  <!-- Generator: Adobe Illustrator 30.2.1, SVG Export Plug-In . SVG Version: 2.1.1 Build 1)  -->
  <defs>
    <style>
      .st0 {
        stroke-dashoffset: .73px;
      }

      .st0, .st1, .st2, .st3, .st4, .st5, .st6, .st7 {
        fill: none;
        stroke-miterlimit: 10;
      }

      .st0, .st1, .st3, .st6 {
        stroke-width: 1.8px;
      }

      .st0, .st2, .st3 {
        stroke: #9a3225;
      }

      .st0, .st7 {
        stroke-dasharray: .45 .9;
      }

      .st8 {
        fill: #cb372b;
      }

      .st8, .st9, .st10 {
        fill-rule: evenodd;
      }

      .st11, .st12 {
        fill: #9a3225;
      }

      .st11, .st12, .st13, .st14, .st15 {
        font-size: 7.2px;
      }

      .st11, .st14, .st16 {
        font-family: Helvetica, Helvetica;
      }

      .st12, .st13 {
        font-family: Symbol, Symbol;
      }

      .st1, .st6 {
        stroke: #f4c7c5;
      }

      .st2, .st5, .st7 {
        stroke-width: 1.35px;
      }

      .st9, .st13, .st14, .st17 {
        fill: #f1e0e0;
      }

      .st10 {
        fill: #29b6e9;
      }

      .st4 {
        stroke: #7bcaf1;
        stroke-width: .45px;
      }

      .st5 {
        stroke: #f1e0e0;
      }

      .st15 {
        fill: #333a94;
        font-family: Helvetica-Oblique, Helvetica;
        font-style: oblique;
      }

      .st6 {
        stroke-linecap: round;
      }

      .st16 {
        fill: #f4c7c5;
        font-size: 7.2px;
      }

      .st7 {
        stroke: #cb372b;
        stroke-dashoffset: 1.46px;
      }
    </style>
  </defs>
  <path class="st10" d="M104.46,69.07c0,1.11-.9,2.01-2.01,2.01s-2.01-.9-2.01-2.01.9-2.01,2.01-2.01,2.01.9,2.01,2.01"/>
  <path class="st4" d="M104.46,69.07c0,1.11-.9,2.01-2.01,2.01s-2.01-.9-2.01-2.01.9-2.01,2.01-2.01,2.01.9,2.01,2.01Z"/>
  <text class="st14" transform="translate(83.25 28.94)"><tspan x="0" y="0">Infectious</tspan></text>
  <path class="st10" d="M35.68,57.32c0,1.11-.9,2.01-2.01,2.01s-2.01-.9-2.01-2.01.9-2.01,2.01-2.01,2.01.9,2.01,2.01"/>
  <path class="st4" d="M35.68,57.32c0,1.11-.9,2.01-2.01,2.01s-2.01-.9-2.01-2.01.9-2.01,2.01-2.01,2.01.9,2.01,2.01Z"/>
  <path class="st10" d="M115.92,68.81c0,1.11-.9,2.01-2.01,2.01s-2.01-.9-2.01-2.01.9-2.01,2.01-2.01,2.01.9,2.01,2.01"/>
  <path class="st4" d="M115.92,68.81c0,1.11-.9,2.01-2.01,2.01s-2.01-.9-2.01-2.01.9-2.01,2.01-2.01,2.01.9,2.01,2.01Z"/>
  <text class="st14" transform="translate(69.5 77.66)"><tspan x="0" y="0">Across</tspan></text>
  <text class="st14" transform="translate(107.32 65.34)"><tspan x="0" y="0">Insane</tspan></text>
  <path class="st10" d="M104.02,102.7c0,1.11-.9,2.01-2.01,2.01s-2-.9-2-2.01.9-2.01,2-2.01,2.01.9,2.01,2.01"/>
  <path class="st4" d="M104.02,102.7c0,1.11-.9,2.01-2.01,2.01s-2-.9-2-2.01.9-2.01,2-2.01,2.01.9,2.01,2.01Z"/>
  <path class="st10" d="M93.57,69.36c0,1.11-.9,2.01-2.01,2.01s-2.01-.9-2.01-2.01.9-2.01,2.01-2.01,2.01.9,2.01,2.01"/>
  <path class="st4" d="M93.57,69.36c0,1.11-.9,2.01-2.01,2.01s-2.01-.9-2.01-2.01.9-2.01,2.01-2.01,2.01.9,2.01,2.01Z"/>
  <line class="st5" x1="114.49" y1="67.63" x2="114.49" y2="70.5"/>
  <line class="st2" x1="100.29" y1="102.71" x2="103.16" y2="102.71"/>
  <line class="st5" x1="91.56" y1="68.2" x2="91.56" y2="71.07"/>
  <path class="st10" d="M139.25,80.77c0,1.11-.9,2.01-2.01,2.01s-2.01-.9-2.01-2.01.9-2.01,2.01-2.01,2.01.9,2.01,2.01"/>
  <path class="st4" d="M139.25,80.77c0,1.11-.9,2.01-2.01,2.01s-2.01-.9-2.01-2.01.9-2.01,2.01-2.01,2.01.9,2.01,2.01Z"/>
  <path class="st10" d="M151.45,80.82c0,1.11-.9,2.01-2.01,2.01s-2.01-.9-2.01-2.01.9-2.01,2.01-2.01,2.01.9,2.01,2.01"/>
  <path class="st4" d="M151.45,80.82c0,1.11-.9,2.01-2.01,2.01s-2.01-.9-2.01-2.01.9-2.01,2.01-2.01,2.01.9,2.01,2.01Z"/>
  <path class="st10" d="M183.84,91.99c0,1.11-.9,2.01-2.01,2.01s-2.01-.9-2.01-2.01.9-2.01,2.01-2.01,2.01.9,2.01,2.01"/>
  <path class="st4" d="M183.84,91.99c0,1.11-.9,2.01-2.01,2.01s-2.01-.9-2.01-2.01.9-2.01,2.01-2.01,2.01.9,2.01,2.01Z"/>
  <path class="st10" d="M162.34,81.1c0,1.11-.9,2.01-2.01,2.01s-2.01-.9-2.01-2.01.9-2.01,2.01-2.01,2.01.9,2.01,2.01"/>
  <path class="st4" d="M162.34,81.1c0,1.11-.9,2.01-2.01,2.01s-2.01-.9-2.01-2.01.9-2.01,2.01-2.01,2.01.9,2.01,2.01Z"/>
  <path class="st8" d="M151.59,102.42c0,1.11-.9,2.01-2.01,2.01s-2.01-.9-2.01-2.01.9-2.01,2.01-2.01,2.01.9,2.01,2.01"/>
  <path class="st3" d="M151.59,102.42c0,1.11-.9,2.01-2.01,2.01s-2.01-.9-2.01-2.01.9-2.01,2.01-2.01,2.01.9,2.01,2.01Z"/>
  <path class="st5" d="M100.73,114.63h2.86M101.31,79.38h2.87M100.45,56.74h2.87M100.73,46.14h2.86M100.73,34.1h2.86M101.02,21.49h2.87M101.02,11.47h2.87M184.41,68.2v2.87M171.8,67.92v2.86M160.91,67.92v2.86M137.41,67.92v2.86M125.66,67.63v2.87M79.53,68.2v2.87M68.92,67.92v2.86M57.18,67.34v2.87M45.71,67.34v2.87M33.96,67.34v2.87M21.93,67.06v2.87"/>
  <line class="st1" x1="21.7" y1="22.64" x2="189.22" y2="119.36"/>
  <line class="st6" x1="75.21" y1="114.59" x2="127.21" y2="25.45"/>
  <line class="st17" x1="101.88" y1="131.53" x2="101.55" y2="0"/>
  <line class="st0" x1="101.88" y1="131.53" x2="101.55" y2="0"/>
  <polyline class="st9" points="12.47 68.45 193.58 69.03 193.29 69.31"/>
  <polyline class="st0" points="12.47 68.45 193.58 69.03 193.29 69.31"/>
  <line class="st2" x1="149.45" y1="67.63" x2="149.45" y2="70.5"/>
  <path class="st7" d="M149.87,103.28v-34.1l-.29-1.15M102.01,102.71h48.14"/>
  <text class="st14" transform="translate(91.04 12.04)"><tspan x="0" y="0">5</tspan></text>
  <text class="st14" transform="translate(91.04 23.5)"><tspan x="0" y="0">4</tspan></text>
  <text class="st14" transform="translate(91.04 34.96)"><tspan x="0" y="0">3</tspan></text>
  <text class="st14" transform="translate(91.04 46.43)"><tspan x="0" y="0">2</tspan></text>
  <text class="st14" transform="translate(91.04 57.89)"><tspan x="0" y="0">1</tspan></text>
  <text class="st14" transform="translate(126.81 75.66)"><tspan x="0" y="0">Slope</tspan></text>
  <text class="st14" transform="translate(14.19 44.13)"><tspan x="0" y="0">Therefore</tspan></text>
  <text class="st14" transform="translate(62.91 42.7)"><tspan x="0" y="0">Scoundrel</tspan></text>
  <text class="st14" transform="translate(40.56 20.06)"><tspan x="0" y="0">Generality</tspan></text>
  <text class="st14" transform="translate(158.04 76.23)"><tspan x="0" y="0">Arise</tspan></text>
  <text class="st14" transform="translate(140.28 90.27)"><tspan x="0" y="0">Solid</tspan></text>
  <text class="st14" transform="translate(176.1 87.98)"><tspan x="0" y="0">Blot</tspan></text>
  <text class="st14" transform="translate(165.21 112.33)"><tspan x="0" y="0">Bag</tspan></text>
  <text class="st14" transform="translate(133.4 110.61)"><tspan x="0" y="0">On</tspan></text>
  <text class="st14" transform="translate(105.89 87.4)"><tspan x="0" y="0">With</tspan></text>
  <text class="st14" transform="translate(108.76 108.32)"><tspan x="0" y="0">For</tspan></text>
  <text class="st14" transform="translate(120.22 120.64)"><tspan x="0" y="0">By</tspan></text>
  <text class="st14" transform="translate(119.07 97.72)"><tspan x="0" y="0">This</tspan></text>
  <text class="st14" transform="translate(106.47 78.23)"><tspan x="0" y="0">Relief</tspan></text>
  <text class="st14" transform="translate(33.68 31.52)"><tspan x="0" y="0">Monastery</tspan></text>
  <text class="st14" transform="translate(41.99 8.03)"><tspan x="0" y="0">Pretentious</tspan></text>
  <text class="st14" transform="translate(159.77 64.76)"><tspan x="0" y="0">5</tspan></text>
  <text class="st14" transform="translate(182.98 64.48)"><tspan x="0" y="0">7</tspan></text>
  <text class="st14" transform="translate(171.23 64.76)"><tspan x="0" y="0">6</tspan></text>
  <text class="st14" transform="translate(137.13 65.05)"><tspan x="0" y="0">3</tspan></text>
  <text class="st14" transform="translate(125.38 65.05)"><tspan x="0" y="0">2</tspan></text>
  <text class="st13" transform="translate(74.28 65.62)"><tspan x="0" y="0">−</tspan></text>
  <text class="st14" transform="translate(78.23 65.62)"><tspan x="0" y="0">2</tspan></text>
  <text class="st13" transform="translate(63.1 65.62)"><tspan x="0" y="0">−</tspan></text>
  <text class="st14" transform="translate(67.05 65.62)"><tspan x="0" y="0">3</tspan></text>
  <text class="st13" transform="translate(51.92 65.62)"><tspan x="0" y="0">−</tspan></text>
  <text class="st14" transform="translate(55.87 65.62)"><tspan x="0" y="0">4</tspan></text>
  <text class="st13" transform="translate(40.74 65.62)"><tspan x="0" y="0">−</tspan></text>
  <text class="st14" transform="translate(44.7 65.62)"><tspan x="0" y="0">5</tspan></text>
  <text class="st13" transform="translate(29.56 65.62)"><tspan x="0" y="0">−</tspan></text>
  <text class="st14" transform="translate(33.52 65.62)"><tspan x="0" y="0">6</tspan></text>
  <text class="st13" transform="translate(18.39 65.62)"><tspan x="0" y="0">−</tspan></text>
  <text class="st14" transform="translate(22.34 65.62)"><tspan x="0" y="0">7</tspan></text>
  <text class="st13" transform="translate(85.46 65.89)"><tspan x="0" y="0">−</tspan></text>
  <text class="st14" transform="translate(89.41 65.89)"><tspan x="0" y="0">1</tspan></text>
  <text class="st14" transform="translate(113.34 65.05)"><tspan x="0" y="0">1</tspan></text>
  <text class="st13" transform="translate(87.09 94.57)"><tspan x="0" y="0">−</tspan></text>
  <text class="st14" transform="translate(91.04 94.57)"><tspan x="0" y="0">2</tspan></text>
  <text class="st13" transform="translate(87.09 82.82)"><tspan x="0" y="0">−</tspan></text>
  <text class="st14" transform="translate(91.04 82.82)"><tspan x="0" y="0">1</tspan></text>
  <text class="st13" transform="translate(87.09 118.07)"><tspan x="0" y="0">−</tspan></text>
  <text class="st14" transform="translate(91.04 118.07)"><tspan x="0" y="0">4</tspan></text>
  <text class="st14" transform="translate(0 56.86)"><tspan x="0" y="0">Neither</tspan></text>
  <text class="st16" transform="translate(186.72 111.56) rotate(30)"><tspan x="0" y="0">1</tspan></text>
  <text class="st16" transform="translate(70.88 106.02) rotate(-60)"><tspan x="0" y="0">2</tspan></text>
  <text class="st12" transform="translate(87.09 106.32)"><tspan x="0" y="0">−</tspan></text>
  <text class="st11" transform="translate(91.04 106.32)"><tspan x="0" y="0">3</tspan></text>
  <text class="st11" transform="translate(147.44 65.05)"><tspan x="0" y="0">4</tspan></text>
  <path class="st10" d="M173.23,103.17c0,1.11-.9,2.01-2.01,2.01s-2.01-.9-2.01-2.01.9-2.01,2.01-2.01,2.01.9,2.01,2.01"/>
  <path class="st4" d="M173.23,103.17c0,1.11-.9,2.01-2.01,2.01s-2.01-.9-2.01-2.01.9-2.01,2.01-2.01,2.01.9,2.01,2.01Z"/>
  <text class="st15" transform="translate(141.42 114.34)"><tspan x="0" y="0">Sur</tspan></text>
  <path class="st10" d="M139.71,114.63c0,1.11-.9,2.01-2.01,2.01s-2-.9-2-2.01.9-2.01,2-2.01,2.01.9,2.01,2.01"/>
  <path class="st4" d="M139.71,114.63c0,1.11-.9,2.01-2.01,2.01s-2-.9-2-2.01.9-2.01,2-2.01,2.01.9,2.01,2.01Z"/>
  <path class="st10" d="M116.61,114.21c0,1.11-.9,2-2.01,2s-2-.9-2-2,.9-2.01,2-2.01,2.01.9,2.01,2.01"/>
  <path class="st4" d="M116.61,114.21c0,1.11-.9,2-2.01,2s-2-.9-2-2,.9-2.01,2-2.01,2.01.9,2.01,2.01Z"/>
  <path class="st10" d="M52.88,34.39c0,1.11-.9,2.01-2.01,2.01s-2.01-.9-2.01-2.01.9-2.01,2.01-2.01,2.01.9,2.01,2.01"/>
  <path class="st4" d="M52.88,34.39c0,1.11-.9,2.01-2.01,2.01s-2.01-.9-2.01-2.01.9-2.01,2.01-2.01,2.01.9,2.01,2.01Z"/>
  <path class="st10" d="M64.32,34.37c0,1.11-.9,2.01-2.01,2.01s-2.01-.9-2.01-2.01.9-2.01,2.01-2.01,2.01.9,2.01,2.01"/>
  <path class="st4" d="M64.32,34.37c0,1.11-.9,2.01-2.01,2.01s-2.01-.9-2.01-2.01.9-2.01,2.01-2.01,2.01.9,2.01,2.01Z"/>
  <path class="st10" d="M60.04,11.47c0,1.11-.9,2.01-2.01,2.01s-2.01-.9-2.01-2.01.9-2.01,2.01-2.01,2.01.9,2.01,2.01"/>
  <path class="st4" d="M60.04,11.47c0,1.11-.9,2.01-2.01,2.01s-2.01-.9-2.01-2.01.9-2.01,2.01-2.01,2.01.9,2.01,2.01Z"/>
  <path class="st10" d="M24.68,35.12c0,1.11-.9,2.01-2.01,2.01s-2.01-.9-2.01-2.01.9-2.01,2.01-2.01,2.01.9,2.01,2.01"/>
  <path class="st4" d="M24.68,35.12c0,1.11-.9,2.01-2.01,2.01s-2.01-.9-2.01-2.01.9-2.01,2.01-2.01,2.01.9,2.01,2.01Z"/>
  <path class="st10" d="M59.76,22.93c0,1.11-.9,2.01-2,2.01s-2.01-.9-2.01-2.01.9-2.01,2.01-2.01,2,.9,2,2.01"/>
  <path class="st4" d="M59.76,22.93c0,1.11-.9,2.01-2,2.01s-2.01-.9-2.01-2.01.9-2.01,2.01-2.01,2,.9,2,2.01Z"/>
  <path class="st10" d="M81.84,22.08c0,1.11-.9,2.01-2.01,2.01s-2.01-.9-2.01-2.01.9-2.01,2.01-2.01,2.01.9,2.01,2.01"/>
  <path class="st4" d="M81.84,22.08c0,1.11-.9,2.01-2.01,2.01s-2.01-.9-2.01-2.01.9-2.01,2.01-2.01,2.01.9,2.01,2.01Z"/>
  <path class="st10" d="M104.02,91.55c0,1.11-.9,2.01-2.01,2.01s-2-.9-2-2.01.9-2.01,2-2.01,2.01.9,2.01,2.01"/>
  <path class="st4" d="M104.02,91.55c0,1.11-.9,2.01-2.01,2.01s-2-.9-2-2.01.9-2.01,2-2.01,2.01.9,2.01,2.01Z"/>
  <path class="st10" d="M116.34,91.74c0,1.11-.9,2.01-2.01,2.01s-2.01-.9-2.01-2.01.9-2.01,2.01-2.01,2.01.9,2.01,2.01"/>
  <path class="st4" d="M116.34,91.74c0,1.11-.9,2.01-2.01,2.01s-2.01-.9-2.01-2.01.9-2.01,2.01-2.01,2.01.9,2.01,2.01Z"/>
</svg>