<?xml version="1.0" encoding="UTF-8"?>
<svg id="PCA-Fig1a" xmlns="http://www.w3.org/2000/svg" version="1.1" viewBox="0 0 225.31 188.3">
  <!-- Generator: Adobe Illustrator 30.2.1, SVG Export Plug-In . SVG Version: 2.1.1 Build 1)  -->
  <defs>
    <style>
      .st0 {
        font-family: Helvetica-Bold, Helvetica;
        font-size: 8.91px;
        font-weight: 700;
      }

      .st0, .st1 {
        fill: #231f20;
      }

      .st2 {
        fill: #eb2f30;
      }

      .st3 {
        stroke: #231f20;
      }

      .st3, .st4, .st5 {
        fill: none;
        stroke-miterlimit: 10;
      }

      .st3, .st5 {
        stroke-width: .5px;
      }

      .st6 {
        fill: #29b6e9;
        fill-rule: evenodd;
      }

      .st1 {
        font-family: Helvetica, Helvetica;
        font-size: 7.92px;
      }

      .st4 {
        stroke: #eb2f30;
        stroke-dasharray: .5 2.47;
        stroke-dashoffset: 4.81px;
        stroke-width: 2.97px;
      }

      .st5 {
        stroke: #7bcaf1;
      }
    </style>
  </defs>
  <polyline class="st4" points="26.41 75.49 221.74 76.11 221.43 76.42"/>
  <path class="st2" d="M124.38,161.52l.31-160.09-.31,160.09Z"/>
  <line class="st4" x1="124.38" y1="161.51" x2="124.69" y2="1.42"/>
  <text class="st1" transform="translate(17.11 41.25)"><tspan x="0" y="0">9</tspan></text>
  <text class="st1" transform="translate(17.11 53.61)"><tspan x="0" y="0">8</tspan></text>
  <text class="st1" transform="translate(17.11 65.97)"><tspan x="0" y="0">7</tspan></text>
  <text class="st1" transform="translate(17.11 78.33)"><tspan x="0" y="0">6</tspan></text>
  <text class="st1" transform="translate(17.11 90.69)"><tspan x="0" y="0">5</tspan></text>
  <text class="st1" transform="translate(17.11 103.05)"><tspan x="0" y="0">4</tspan></text>
  <text class="st1" transform="translate(17.11 115.41)"><tspan x="0" y="0">3</tspan></text>
  <text class="st1" transform="translate(17.11 127.77)"><tspan x="0" y="0">2</tspan></text>
  <text class="st1" transform="translate(17.11 140.13)"><tspan x="0" y="0">1</tspan></text>
  <text class="st1" transform="translate(206.79 172.56)"><tspan x="0" y="0">15</tspan></text>
  <text class="st1" transform="translate(194.43 172.56)"><tspan x="0" y="0">14</tspan></text>
  <text class="st1" transform="translate(169.71 172.56)"><tspan x="0" y="0">1</tspan></text>
  <text class="st1" transform="translate(174.11 172.56)"><tspan x="0" y="0">2</tspan></text>
  <text class="st1" transform="translate(182.06 172.56)"><tspan x="0" y="0">13</tspan></text>
  <text class="st1" transform="translate(157.35 172.56)"><tspan x="0" y="0">11</tspan></text>
  <text class="st1" transform="translate(144.99 172.56)"><tspan x="0" y="0">10</tspan></text>
  <text class="st1" transform="translate(134.83 172.56)"><tspan x="0" y="0">9</tspan></text>
  <text class="st1" transform="translate(110.11 172.56)"><tspan x="0" y="0">7</tspan></text>
  <text class="st1" transform="translate(97.75 172.56)"><tspan x="0" y="0">6</tspan></text>
  <text class="st1" transform="translate(85.39 172.56)"><tspan x="0" y="0">5</tspan></text>
  <text class="st1" transform="translate(48.3 172.56)"><tspan x="0" y="0">2</tspan></text>
  <text class="st1" transform="translate(73.02 172.56)"><tspan x="0" y="0">4</tspan></text>
  <text class="st1" transform="translate(60.66 172.56)"><tspan x="0" y="0">3</tspan></text>
  <text class="st1" transform="translate(12.7 28.9)"><tspan x="0" y="0">10</tspan></text>
  <text class="st1" transform="translate(50.51 35.44)"><tspan x="0" y="0">Monastery</tspan></text>
  <text class="st1" transform="translate(62.61 184.49)"><tspan x="0" y="0">Number of lines of the definition</tspan></text>
  <text class="st1" transform="translate(132.11 110.54)"><tspan x="0" y="0">This</tspan></text>
  <text class="st1" transform="translate(118.82 121.66)"><tspan x="0" y="0">For</tspan></text>
  <text class="st1" transform="translate(158.07 120.74)"><tspan x="0" y="0">On</tspan></text>
  <text class="st1" transform="translate(192.37 122.59)"><tspan x="0" y="0">Bag</tspan></text>
  <text class="st1" transform="translate(204.12 96.32)"><tspan x="0" y="0">Blot</tspan></text>
  <text class="st1" transform="translate(165.48 98.79)"><tspan x="0" y="0">Solid</tspan></text>
  <text class="st1" transform="translate(131.8 71.28)"><tspan x="0" y="0">Insane</tspan></text>
  <text class="st1" transform="translate(91 71.28)"><tspan x="0" y="0">Across</tspan></text>
  <text class="st1" transform="translate(117.27 86.74)"><tspan x="0" y="0">Relief</tspan></text>
  <text class="st1" transform="translate(133.34 135.26)"><tspan x="0" y="0">By</tspan></text>
  <text class="st1" transform="translate(184.65 83.64)"><tspan x="0" y="0">Arise</tspan></text>
  <text class="st1" transform="translate(105.21 102.5)"><tspan x="0" y="0">With</tspan></text>
  <text class="st1" transform="translate(57.92 23.07)"><tspan x="0" y="0">Generality</tspan></text>
  <text class="st1" transform="translate(82.03 47.48)"><tspan x="0" y="0">Scoundrel</tspan></text>
  <text class="st1" transform="translate(106.44 28.32)"><tspan x="0" y="0">Infectious</tspan></text>
  <text class="st1" transform="translate(81.41 12.87)"><tspan x="0" y="0">Pretentious</tspan></text>
  <text class="st1" transform="translate(29.49 49.02)"><tspan x="0" y="0">Therefore</tspan></text>
  <text class="st1" transform="translate(150.95 83.02)"><tspan x="0" y="0">Slope</tspan></text>
  <text class="st1" transform="translate(40.92 74.98)"><tspan x="0" y="0">Neither</tspan></text>
  <text class="st1" transform="translate(7.37 133.6) rotate(-90)"><tspan x="0" y="0">Number of letters of the word</tspan></text>
  <text class="st1" transform="translate(12.71 16.53)"><tspan x="0" y="0">11</tspan></text>
  <path class="st6" d="M201.03,112.68c0,1.19-.97,2.16-2.16,2.16s-2.16-.97-2.16-2.16.97-2.16,2.16-2.16,2.16.97,2.16,2.16"/>
  <path class="st5" d="M201.03,112.68c0,1.19-.97,2.16-2.16,2.16s-2.16-.97-2.16-2.16.97-2.16,2.16-2.16,2.16.97,2.16,2.16Z"/>
  <path class="st3" d="M24.25,137.41h3.09M24.25,125.05h3.09M24.25,112.68h3.09M24.25,100.32h3.09"/>
  <path class="st6" d="M102.46,25.24c0,1.19-.97,2.16-2.16,2.16s-2.16-.97-2.16-2.16.97-2.16,2.16-2.16,2.16.97,2.16,2.16"/>
  <circle class="st5" cx="100.3" cy="25.24" r="2.16"/>
  <path class="st6" d="M213.08,100.32c0,1.19-.97,2.16-2.16,2.16s-2.16-.97-2.16-2.16.97-2.16,2.16-2.16,2.16.97,2.16,2.16"/>
  <path class="st5" d="M213.08,100.32c0,1.19-.97,2.16-2.16,2.16s-2.16-.97-2.16-2.16.97-2.16,2.16-2.16,2.16.97,2.16,2.16Z"/>
  <path class="st6" d="M188.81,88.15c0,1.2-.97,2.16-2.16,2.16s-2.16-.97-2.16-2.16.97-2.16,2.16-2.16,2.16.97,2.16,2.16"/>
  <path class="st5" d="M188.81,88.15c0,1.2-.97,2.16-2.16,2.16s-2.16-.97-2.16-2.16.97-2.16,2.16-2.16,2.16.97,2.16,2.16Z"/>
  <path class="st6" d="M78.64,26.15c0,1.2-.97,2.16-2.16,2.16s-2.16-.97-2.16-2.16.97-2.16,2.16-2.16,2.16.97,2.16,2.16"/>
  <path class="st5" d="M78.64,26.15c0,1.2-.97,2.16-2.16,2.16s-2.16-.97-2.16-2.16.97-2.16,2.16-2.16,2.16.97,2.16,2.16Z"/>
  <path class="st6" d="M40.82,39.29c0,1.2-.97,2.16-2.16,2.16s-2.16-.97-2.16-2.16.97-2.16,2.16-2.16,2.16.97,2.16,2.16"/>
  <path class="st5" d="M40.82,39.29c0,1.2-.97,2.16-2.16,2.16s-2.16-.97-2.16-2.16.97-2.16,2.16-2.16,2.16.97,2.16,2.16Z"/>
  <path class="st6" d="M127.16,112.37c0,1.19-.97,2.16-2.16,2.16s-2.16-.97-2.16-2.16.97-2.16,2.16-2.16,2.16.97,2.16,2.16"/>
  <path class="st5" d="M127.16,112.37c0,1.19-.97,2.16-2.16,2.16s-2.16-.97-2.16-2.16.97-2.16,2.16-2.16,2.16.97,2.16,2.16Z"/>
  <path class="st6" d="M139.96,100.07c0,1.19-.97,2.16-2.16,2.16s-2.16-.97-2.16-2.16.97-2.16,2.16-2.16,2.16.97,2.16,2.16"/>
  <path class="st5" d="M139.96,100.07c0,1.19-.97,2.16-2.16,2.16s-2.16-.97-2.16-2.16.97-2.16,2.16-2.16,2.16.97,2.16,2.16Z"/>
  <path class="st6" d="M126.94,99.66c0,1.2-.97,2.16-2.16,2.16s-2.16-.97-2.16-2.16.97-2.16,2.16-2.16,2.16.97,2.16,2.16"/>
  <path class="st5" d="M126.94,99.66c0,1.2-.97,2.16-2.16,2.16s-2.16-.97-2.16-2.16.97-2.16,2.16-2.16,2.16.97,2.16,2.16Z"/>
  <path class="st6" d="M176.3,88.27c0,1.19-.97,2.16-2.16,2.16s-2.16-.97-2.16-2.16.97-2.16,2.16-2.16,2.16.97,2.16,2.16"/>
  <path class="st5" d="M176.3,88.27c0,1.19-.97,2.16-2.16,2.16s-2.16-.97-2.16-2.16.97-2.16,2.16-2.16,2.16.97,2.16,2.16Z"/>
  <path class="st6" d="M78.95,13.78c0,1.19-.97,2.16-2.16,2.16s-2.16-.97-2.16-2.16.97-2.16,2.16-2.16,2.16.97,2.16,2.16"/>
  <path class="st5" d="M78.95,13.78c0,1.19-.97,2.16-2.16,2.16s-2.16-.97-2.16-2.16.97-2.16,2.16-2.16,2.16.97,2.16,2.16Z"/>
  <path class="st6" d="M52.68,63.23c0,1.19-.97,2.16-2.16,2.16s-2.16-.97-2.16-2.16.97-2.16,2.16-2.16,2.16.97,2.16,2.16"/>
  <circle class="st5" cx="50.51" cy="63.23" r="2.16"/>
  <path class="st6" d="M83.57,38.49c0,1.19-.97,2.16-2.16,2.16s-2.16-.97-2.16-2.16.97-2.16,2.16-2.16,2.16.97,2.16,2.16"/>
  <path class="st5" d="M83.57,38.49c0,1.19-.97,2.16-2.16,2.16s-2.16-.97-2.16-2.16.97-2.16,2.16-2.16,2.16.97,2.16,2.16Z"/>
  <path class="st6" d="M71.22,38.51c0,1.19-.97,2.16-2.16,2.16s-2.16-.97-2.16-2.16.97-2.16,2.16-2.16,2.16.97,2.16,2.16"/>
  <path class="st5" d="M71.22,38.51c0,1.19-.97,2.16-2.16,2.16s-2.16-.97-2.16-2.16.97-2.16,2.16-2.16,2.16.97,2.16,2.16Z"/>
  <path class="st6" d="M164.87,87.96c0,1.2-.97,2.16-2.16,2.16s-2.16-.97-2.16-2.16.97-2.16,2.16-2.16,2.16.97,2.16,2.16"/>
  <path class="st5" d="M164.87,87.96c0,1.2-.97,2.16-2.16,2.16s-2.16-.97-2.16-2.16.97-2.16,2.16-2.16,2.16.97,2.16,2.16Z"/>
  <path class="st6" d="M127.78,75.6c0,1.19-.97,2.16-2.16,2.16s-2.16-.97-2.16-2.16.97-2.16,2.16-2.16,2.16.97,2.16,2.16"/>
  <path class="st5" d="M127.78,75.6c0,1.19-.97,2.16-2.16,2.16s-2.16-.97-2.16-2.16.97-2.16,2.16-2.16,2.16.97,2.16,2.16Z"/>
  <path class="st6" d="M139.96,124.59c0,1.2-.97,2.16-2.16,2.16s-2.16-.97-2.16-2.16.97-2.16,2.16-2.16,2.16.97,2.16,2.16"/>
  <path class="st5" d="M139.96,124.59c0,1.2-.97,2.16-2.16,2.16s-2.16-.97-2.16-2.16.97-2.16,2.16-2.16,2.16.97,2.16,2.16Z"/>
  <path class="st6" d="M139.21,75.64c0,1.19-.97,2.16-2.16,2.16s-2.16-.97-2.16-2.16.97-2.16,2.16-2.16,2.16.97,2.16,2.16"/>
  <path class="st5" d="M139.21,75.64c0,1.19-.97,2.16-2.16,2.16s-2.16-.97-2.16-2.16.97-2.16,2.16-2.16,2.16.97,2.16,2.16Z"/>
  <path class="st6" d="M164.87,125.05c0,1.19-.97,2.16-2.16,2.16s-2.16-.97-2.16-2.16.97-2.16,2.16-2.16,2.16.97,2.16,2.16"/>
  <path class="st5" d="M164.87,125.05c0,1.19-.97,2.16-2.16,2.16s-2.16-.97-2.16-2.16.97-2.16,2.16-2.16,2.16.97,2.16,2.16Z"/>
  <path class="st6" d="M115.23,75.14c0,1.19-.97,2.16-2.16,2.16s-2.16-.97-2.16-2.16.97-2.16,2.16-2.16,2.16.97,2.16,2.16"/>
  <circle class="st5" cx="113.07" cy="75.14" r="2.16"/>
  <line class="st3" x1="24.25" y1="87.96" x2="27.34" y2="87.96"/>
  <text class="st1" transform="translate(35.95 172.55)"><tspan x="0" y="0">1</tspan></text>
  <path class="st3" d="M24.25,63.23h3.09M24.25,26.15h3.09M24.25,75.6h3.09M24.25,50.87h3.09M24.25,38.51h3.09M24.25,13.78h3.09M38.16,160.59v3.09M50.52,160.59v3.09M62.88,160.59v3.09M75.24,160.59v3.09M87.61,160.59v3.09M112.33,160.59v3.09M124.69,160.59v3.09M137.06,160.59v3.09M149.42,160.59v3.09M99.97,160.59v3.09M161.78,160.59v3.09M174.14,160.59v3.09M186.51,160.59v3.09M198.87,160.59v3.09M211.23,160.59v3.09M25.79,162.13h197.8V1.42H25.79v160.71Z"/>
  <text class="st1" transform="translate(122.47 172.55)"><tspan x="0" y="0">8</tspan></text>
  <text class="st0" transform="translate(0 7.66)"><tspan x="0" y="0">(a)</tspan></text>
</svg>