<?xml version="1.0" encoding="utf-8"?>
<!-- Generator: Adobe Illustrator 29.1.0, SVG Export Plug-In . SVG Version: 9.03 Build 55587)  -->
<svg version="1.1" id="Layer_1" xmlns="http://www.w3.org/2000/svg" xmlns:xlink="http://www.w3.org/1999/xlink" x="0px" y="0px"
	 viewBox="0 0 285 243" style="enable-background:new 0 0 285 243;" xml:space="preserve">
<style type="text/css">
	.st0{fill:none;stroke:#000000;stroke-width:3;stroke-linejoin:round;stroke-miterlimit:10;}
	.st1{fill:none;stroke:#0433FF;stroke-width:4;stroke-linejoin:round;stroke-miterlimit:10;}
</style>
<g>
	<line class="st0" x1="275.125" y1="205" x2="273.375" y2="205.124969"/>
	<g>
		<path d="M35.414551,215.035156c0-1.099609,0.113281-1.985352,0.339355-2.65625
			c0.226562-0.670898,0.562988-1.1875,1.009766-1.551758c0.446289-0.364258,1.007812-0.545898,1.685059-0.545898
			c0.499512,0,0.9375,0.100586,1.313965,0.301758s0.6875,0.490234,0.933105,0.869141s0.437988,0.839844,0.577637,1.383789
			s0.209473,1.277344,0.209473,2.199219c0,1.091797-0.112305,1.973633-0.336426,2.644531s-0.55957,1.188477-1.005859,1.554688
			c-0.446777,0.366211-1.010742,0.548828-1.691895,0.548828c-0.896973,0-1.601562-0.321289-2.11377-0.964844
			C35.721191,218.044922,35.414551,216.783203,35.414551,215.035156z M36.588867,215.035156
			c0,1.52832,0.178711,2.544922,0.536133,3.050781c0.35791,0.505859,0.798828,0.757812,1.32373,0.757812
			s0.96582-0.253906,1.32373-0.761719c0.357422-0.507812,0.536133-1.523438,0.536133-3.046875
			c0-1.53125-0.178711-2.548828-0.536133-3.052734c-0.35791-0.503906-0.803223-0.755859-1.336426-0.755859
			c-0.524902,0-0.943848,0.222656-1.256836,0.666992C36.785645,212.460938,36.588867,213.507812,36.588867,215.035156z"/>
	</g>
	<g>
	</g>
	<line class="st0" x1="86" y1="205" x2="86.124969" y2="196.75"/>
	<g>
		<path d="M80.289551,215.035156c0-1.099609,0.113281-1.985352,0.339355-2.65625
			c0.226562-0.670898,0.562988-1.1875,1.009766-1.551758c0.446289-0.364258,1.007812-0.545898,1.685059-0.545898
			c0.499512,0,0.9375,0.100586,1.313965,0.301758s0.6875,0.490234,0.933105,0.869141s0.437988,0.839844,0.577637,1.383789
			s0.209473,1.277344,0.209473,2.199219c0,1.091797-0.112305,1.973633-0.336426,2.644531s-0.55957,1.188477-1.005859,1.554688
			c-0.446777,0.366211-1.010742,0.548828-1.691895,0.548828c-0.896973,0-1.601562-0.321289-2.11377-0.964844
			C80.596191,218.044922,80.289551,216.783203,80.289551,215.035156z M81.463867,215.035156
			c0,1.52832,0.178711,2.544922,0.536133,3.050781c0.35791,0.505859,0.798828,0.757812,1.32373,0.757812
			s0.96582-0.253906,1.32373-0.761719c0.357422-0.507812,0.536133-1.523438,0.536133-3.046875
			c0-1.53125-0.178711-2.548828-0.536133-3.052734c-0.35791-0.503906-0.803223-0.755859-1.336426-0.755859
			c-0.524902,0-0.943848,0.222656-1.256836,0.666992C81.660645,212.460938,81.463867,213.507812,81.463867,215.035156z"/>
		<path d="M88.160645,219.625v-1.300781h1.30127V219.625H88.160645z"/>
		<path d="M97.13623,218.527344V219.625h-6.150879c-0.008301-0.275391,0.036133-0.539062,0.133301-0.792969
			c0.156738-0.419922,0.407227-0.832031,0.752441-1.238281c0.344727-0.40625,0.842773-0.875977,1.494629-1.40918
			c1.01123-0.829102,1.694824-1.486328,2.050293-1.970703s0.533203-0.942383,0.533203-1.374023
			c0-0.453125-0.162109-0.834961-0.485352-1.146484c-0.324219-0.310547-0.746094-0.466797-1.266602-0.466797
			c-0.550293,0-0.990234,0.166016-1.320312,0.496094s-0.49707,0.787109-0.501465,1.371094l-1.174316-0.121094
			c0.080566-0.875977,0.382812-1.543945,0.907715-2.00293s1.229492-0.688477,2.11377-0.688477
			c0.893066,0,1.599609,0.248047,2.120117,0.742188c0.520508,0.496094,0.780762,1.109375,0.780762,1.841797
			c0,0.37207-0.076172,0.738281-0.228516,1.097656s-0.405273,0.738281-0.758301,1.136719
			c-0.353516,0.397461-0.940918,0.943359-1.761719,1.636719c-0.685547,0.576172-1.125488,0.966797-1.320312,1.171875
			s-0.355469,0.411133-0.482422,0.619141H97.13623z"/>
	</g>
	<g>
	</g>
	<g>
		<path d="M127.664551,215.035156c0-1.099609,0.113281-1.985352,0.339355-2.65625
			c0.226562-0.670898,0.562988-1.1875,1.009766-1.551758c0.446289-0.364258,1.007812-0.545898,1.685059-0.545898
			c0.499512,0,0.9375,0.100586,1.313965,0.301758s0.6875,0.490234,0.933105,0.869141s0.437988,0.839844,0.577637,1.383789
			s0.209473,1.277344,0.209473,2.199219c0,1.091797-0.112305,1.973633-0.336426,2.644531s-0.55957,1.188477-1.005859,1.554688
			c-0.446777,0.366211-1.010742,0.548828-1.691895,0.548828c-0.896973,0-1.601562-0.321289-2.11377-0.964844
			C127.971191,218.044922,127.664551,216.783203,127.664551,215.035156z M128.838867,215.035156
			c0,1.52832,0.178711,2.544922,0.536133,3.050781c0.35791,0.505859,0.798828,0.757812,1.32373,0.757812
			s0.96582-0.253906,1.32373-0.761719c0.357422-0.507812,0.536133-1.523438,0.536133-3.046875
			c0-1.53125-0.178711-2.548828-0.536133-3.052734c-0.35791-0.503906-0.803223-0.755859-1.336426-0.755859
			c-0.524902,0-0.943848,0.222656-1.256836,0.666992C129.035645,212.460938,128.838867,213.507812,128.838867,215.035156z"/>
		<path d="M135.535645,219.625v-1.300781h1.30127V219.625H135.535645z"/>
		<path d="M142.168945,219.625v-2.228516h-4.037109v-1.046875l4.246582-6.030273h0.933105v6.030273h1.256836v1.046875h-1.256836
			V219.625H142.168945z M142.168945,216.349609v-4.195312l-2.913574,4.195312H142.168945z"/>
	</g>
	<g>
	</g>
	<line class="st0" x1="180.5" y1="205" x2="180.624969" y2="203.125031"/>
	<g>
		<path d="M174.914551,215.035156c0-1.099609,0.113281-1.985352,0.339355-2.65625
			c0.226562-0.670898,0.562988-1.1875,1.009766-1.551758c0.446289-0.364258,1.007812-0.545898,1.685059-0.545898
			c0.499512,0,0.9375,0.100586,1.313965,0.301758s0.6875,0.490234,0.933105,0.869141s0.437988,0.839844,0.577637,1.383789
			s0.209473,1.277344,0.209473,2.199219c0,1.091797-0.112305,1.973633-0.336426,2.644531s-0.55957,1.188477-1.005859,1.554688
			c-0.446777,0.366211-1.010742,0.548828-1.691895,0.548828c-0.896973,0-1.601562-0.321289-2.11377-0.964844
			C175.221191,218.044922,174.914551,216.783203,174.914551,215.035156z M176.088867,215.035156
			c0,1.52832,0.178711,2.544922,0.536133,3.050781c0.35791,0.505859,0.798828,0.757812,1.32373,0.757812
			s0.96582-0.253906,1.32373-0.761719c0.357422-0.507812,0.536133-1.523438,0.536133-3.046875
			c0-1.53125-0.178711-2.548828-0.536133-3.052734c-0.35791-0.503906-0.803223-0.755859-1.336426-0.755859
			c-0.524902,0-0.943848,0.222656-1.256836,0.666992C176.285645,212.460938,176.088867,213.507812,176.088867,215.035156z"/>
		<path d="M182.785645,219.625v-1.300781h1.30127V219.625H182.785645z"/>
		<path d="M191.685059,212.597656l-1.13623,0.089844c-0.101562-0.449219-0.245605-0.775391-0.431641-0.978516
			c-0.309082-0.325195-0.689941-0.488281-1.142578-0.488281c-0.36377,0-0.683594,0.101562-0.958496,0.304688
			c-0.359863,0.262695-0.643066,0.645508-0.850586,1.148438c-0.20752,0.503906-0.31543,1.22168-0.32373,2.152344
			c0.274902-0.418945,0.611328-0.730469,1.009277-0.933594s0.814453-0.304688,1.250488-0.304688
			c0.761719,0,1.410156,0.28125,1.945312,0.841797c0.535645,0.560547,0.803223,1.285156,0.803223,2.173828
			c0,0.583984-0.125977,1.126953-0.377441,1.62793c-0.251953,0.501953-0.598145,0.885742-1.038086,1.152344
			s-0.939453,0.399414-1.498047,0.399414c-0.952148,0-1.728516-0.349609-2.32959-1.049805s-0.901367-1.854492-0.901367-3.462891
			c0-1.798828,0.332031-3.106445,0.996582-3.922852c0.57959-0.710938,1.360352-1.066406,2.342285-1.066406
			c0.731934,0,1.332031,0.205078,1.799316,0.615234C191.311523,211.307617,191.591797,211.875,191.685059,212.597656z
			 M187.019531,216.609375c0,0.394531,0.083496,0.770508,0.250977,1.130859c0.166992,0.359375,0.400879,0.632812,0.701172,0.821289
			s0.615723,0.282227,0.945801,0.282227c0.482422,0,0.896973-0.194336,1.244141-0.583984
			c0.347168-0.388672,0.520508-0.917969,0.520508-1.585938c0-0.643555-0.171387-1.150391-0.51416-1.520508
			s-0.774414-0.555664-1.294922-0.555664c-0.516113,0-0.954102,0.185547-1.313965,0.555664
			S187.019531,216.008789,187.019531,216.609375z"/>
	</g>
	<g>
	</g>
	<line class="st0" x1="227.75" y1="205" x2="228" y2="203.125031"/>
	<g>
		<path d="M222.164551,215.035156c0-1.099609,0.113281-1.985352,0.339355-2.65625
			c0.226562-0.670898,0.562988-1.1875,1.009766-1.551758c0.446289-0.364258,1.007812-0.545898,1.685059-0.545898
			c0.499512,0,0.9375,0.100586,1.313965,0.301758s0.6875,0.490234,0.933105,0.869141s0.437988,0.839844,0.577637,1.383789
			s0.209473,1.277344,0.209473,2.199219c0,1.091797-0.112305,1.973633-0.336426,2.644531s-0.55957,1.188477-1.005859,1.554688
			c-0.446777,0.366211-1.010742,0.548828-1.691895,0.548828c-0.896973,0-1.601562-0.321289-2.11377-0.964844
			C222.471191,218.044922,222.164551,216.783203,222.164551,215.035156z M223.338867,215.035156
			c0,1.52832,0.178711,2.544922,0.536133,3.050781c0.35791,0.505859,0.798828,0.757812,1.32373,0.757812
			s0.96582-0.253906,1.32373-0.761719c0.357422-0.507812,0.536133-1.523438,0.536133-3.046875
			c0-1.53125-0.178711-2.548828-0.536133-3.052734c-0.35791-0.503906-0.803223-0.755859-1.336426-0.755859
			c-0.524902,0-0.943848,0.222656-1.256836,0.666992C223.535645,212.460938,223.338867,213.507812,223.338867,215.035156z"/>
		<path d="M230.035645,219.625v-1.300781h1.30127V219.625H230.035645z"/>
		<path d="M234.764648,214.578125c-0.474121-0.172852-0.825195-0.420898-1.053711-0.742188s-0.342773-0.707031-0.342773-1.155273
			c0-0.676758,0.243164-1.246094,0.72998-1.708008c0.486816-0.460938,1.134277-0.691406,1.942383-0.691406
			c0.8125,0,1.466309,0.236328,1.961426,0.708008s0.742676,1.045898,0.742676,1.723633
			c0,0.431641-0.113281,0.806641-0.339355,1.125977c-0.226562,0.319336-0.570312,0.566406-1.031738,0.739258
			c0.571289,0.186523,1.006348,0.487305,1.304199,0.902344c0.298828,0.414062,0.447754,0.90918,0.447754,1.484375
			c0,0.795898-0.28125,1.464844-0.844238,2.005859c-0.562988,0.541992-1.303223,0.8125-2.22168,0.8125
			s-1.658691-0.271484-2.22168-0.81543s-0.844238-1.22168-0.844238-2.03418c0-0.605469,0.15332-1.112305,0.460449-1.520508
			C233.760742,215.004883,234.197754,214.726562,234.764648,214.578125z M234.167969,216.939453
			c0,0.326172,0.077148,0.641602,0.231445,0.946289c0.154785,0.304688,0.384277,0.541016,0.688965,0.708008
			s0.632812,0.25,0.983887,0.25c0.545898,0,0.996582-0.174805,1.352051-0.526367s0.533203-0.797852,0.533203-1.338867
			c0-0.550781-0.183105-1.005859-0.549316-1.365234c-0.365723-0.359375-0.82373-0.539062-1.374023-0.539062
			c-0.537598,0-0.98291,0.177734-1.335938,0.533203C234.344727,215.962891,234.167969,216.40625,234.167969,216.939453z
			 M234.536133,212.642578c0,0.44043,0.141602,0.799805,0.425293,1.079102s0.651855,0.418945,1.104492,0.418945
			c0.439941,0,0.800781-0.138672,1.08252-0.416016c0.28125-0.277344,0.421875-0.616211,0.421875-1.018555
			c0-0.418945-0.14502-0.771484-0.43457-1.056641c-0.290039-0.286133-0.650879-0.428711-1.08252-0.428711
			c-0.436035,0-0.797852,0.139648-1.085449,0.418945S234.536133,212.25293,234.536133,212.642578z"/>
	</g>
	<g>
	</g>
	<g>
		<path d="M276.093262,219.625h-1.142578v-7.28125c-0.274902,0.262695-0.635742,0.525391-1.08252,0.787109
			c-0.446289,0.262695-0.847168,0.459961-1.202637,0.59082v-1.104492c0.63916-0.300781,1.197754-0.664062,1.675781-1.091797
			s0.816895-0.841797,1.015625-1.244141h0.736328V219.625z"/>
	</g>
	<g>
	</g>
	<line class="st0" x1="38.625" y1="205" x2="275.125" y2="205.124969"/>
	<polyline class="st1" points="38.625,205 38.625,205 41.01487,205 43.404739,204.952911 45.783836,204.846939 
		48.173706,204.670319 50.574341,204.375992 52.964203,203.940247 55.354065,203.351501 57.743942,202.586151 60.123047,201.63237 
		62.512909,200.501968 64.902786,199.147873 67.292648,197.570007 69.682526,195.756699 72.061615,193.731415 74.46225,191.458817 
		76.852112,188.962601 79.241989,186.230789 81.631851,183.25174 84.021729,180.048981 86.400833,176.622437 88.79068,172.984024 
		91.180557,169.121887 93.570419,165.059525 95.960297,160.808823 98.350159,156.36969 100.740036,151.765671 
		103.129898,146.996857 105.519775,142.098511 107.909637,137.082367 110.2995,131.948517 112.678619,126.696854 
		115.068481,121.398193 117.458313,116.040558 119.848236,110.63591 122.248871,105.195908 124.627914,99.767639 
		127.017838,94.339447 129.407684,88.970078 131.797516,83.636047 134.187439,78.39624 136.577286,73.238815 138.956421,68.199142 
		141.346252,63.300797 143.725311,58.567276 146.125946,53.986847 148.515869,49.618347 150.894928,45.450027 153.284851,41.528992 
		155.674683,37.843445 158.064529,34.440491 160.454453,31.30835 162.833496,28.470612 165.223419,25.974335 167.613266,23.78421 
		170.013901,21.947327 172.403748,20.463684 174.793671,19.345062 177.172729,18.603241 179.562622,18.25 181.952484,18.285309 
		184.342346,18.732788 186.732239,19.580566 189.111298,20.840485 191.50116,22.500763 193.901794,24.57312 196.291687,27.069397 
		198.681519,29.966034 201.071381,33.27478 203.4505,36.983887 205.840363,41.057999 208.230194,45.532455 210.620117,50.360168 
		213.009949,55.552902 215.389099,61.063553 217.789734,66.903931 220.179565,73.026855 222.569397,79.432434 224.959351,86.073456 
		227.349182,92.926453 229.728333,99.967865 232.118164,107.150543 234.507996,114.450943 236.897919,121.798508 
		239.287781,129.204956 241.688385,136.587799 244.067505,143.911804 246.457367,151.106216 248.847229,158.13591 
		251.237122,164.930008 253.626953,171.441498 256.006104,177.588028 258.395935,183.310638 260.785797,188.538666 
		263.17572,193.189774 265.576355,197.205048 267.966187,200.478424 270.345337,202.915833 272.735168,204.458344 275.125,205 	"/>
	<line class="st0" x1="135.5" y1="205.5" x2="135.624954" y2="197.25"/>
	<line class="st0" x1="180.375" y1="205" x2="180.499969" y2="196.75"/>
	<line class="st0" x1="227.75" y1="205" x2="228" y2="196.75"/>
	<line class="st0" x1="274.75" y1="204.5" x2="275" y2="196.25"/>
	<line class="st0" x1="39" y1="205" x2="39.124962" y2="196.75"/>
	<line class="st0" x1="38.875" y1="9.625" x2="38.750038" y2="206.749969"/>
	<path d="M163.530075,224.451569c1.640625,0,2.731796,0.681702,3.273926,2.044922
		c0.541901,1.363403,0.493652,3.322266-0.14502,5.876953c-0.687515,2.750061-1.651978,4.857422-2.893066,6.322266
		c-1.241272,1.464844-2.682129,2.197266-4.322754,2.197266c-1.734375,0-2.862854-0.697266-3.385254-2.091797
		c-0.522583-1.394531-0.437988-3.474609,0.253418-6.240234c0.638672-2.554688,1.593246-4.544861,2.86377-5.970703
		C160.445572,225.164581,161.897141,224.451569,163.530075,224.451569z M158.602341,232.537506l-0.137695,0.550781
		c-0.666046,2.664185-0.915527,4.529297-0.748535,5.595703s0.766113,1.599609,1.797363,1.599609
		c1.054688,0,1.91748-0.521484,2.588379-1.564453s1.391098-3.103455,2.160645-6.181641H158.602341z M164.473434,231.693756
		c0.027328-0.109314,0.068756-0.259644,0.124512-0.451172c0.055527-0.191345,0.094208-0.329956,0.115723-0.416016
		c0.501938-2.007751,0.646454-3.47644,0.433594-4.40625c-0.212906-0.929626-0.799805-1.394531-1.760742-1.394531
		c-1.000122,0-1.85939,0.523499-2.578125,1.570312c-0.718781,1.046997-1.38382,2.746216-1.995117,5.097656H164.473434z"/>
	<g>
	</g>
	<g>
		<path d="M26.301758,122.012695c0.310547,0.740234,0.588379,1.849609,0.834961,3.329102
			c0.228516,1.363281,0.342773,2.458984,0.342773,3.285156c0,0.591797-0.09082,0.994141-0.272949,1.206055
			c-0.245605,0.290039-0.697266,0.352539-1.353027,0.188477l-2.90918-0.902344
			c-2.683594-0.823242-5.660156-1.643555-8.929688-2.460938c-0.251953-0.063477-0.466309-0.200195-0.64209-0.411133
			c-0.175293-0.210938-0.263184-0.439453-0.263184-0.685547c0-0.251953,0.087891-0.439453,0.263184-0.5625
			c0.175781-0.123047,0.390137-0.15332,0.64209-0.089844c3.310547,0.827148,6.322266,1.65918,9.035156,2.496094l1.335938,0.448242
			c0.486328,0.167969,0.916992,0.292969,1.291992,0.375c0.017578-1.524414-0.343262-3.547852-1.081055-6.070312
			c-0.029297-0.107422-0.043945-0.205078-0.043945-0.292969c0-0.251953,0.099609-0.4375,0.298828-0.557617
			c0.181152-0.101562,0.389648-0.12207,0.624023-0.063477C25.850586,121.337891,26.125977,121.59375,26.301758,122.012695z"/>
	</g>
	<g>
		<path d="M13.364746,115.081055c0.205078,0,0.503906,0.181641,0.896484,0.544922
			c0.269531,0.269531,0.539062,0.536133,0.808594,0.799805c0.738281,0.650391,1.792969,1.160156,3.164062,1.529297
			c1.195312,0.322266,2.370117,0.483398,3.524414,0.483398c2.976562,0,5.15918-0.673828,6.547852-2.021484
			c0.210938-0.269531,0.421875-0.541992,0.632812-0.817383c0.269531-0.339844,0.536133-0.509766,0.799805-0.509766
			c0.193359,0,0.361328,0.076172,0.505859,0.228516c0.142578,0.152344,0.214844,0.328125,0.214844,0.527344
			c0,0.175781-0.067383,0.386719-0.202148,0.632812c-1.388672,2.478516-4.289062,3.717773-8.701172,3.717773
			c-1.587891,0-3.196289-0.319336-4.825195-0.958008c-1.810547-0.714844-3.123047-1.652344-3.9375-2.8125
			c-0.164062-0.234375-0.246094-0.418945-0.246094-0.553711c0-0.210938,0.083984-0.395508,0.25-0.553711
			C12.965332,115.160156,13.153809,115.081055,13.364746,115.081055z"/>
	</g>
	<path d="M10.514084,104.276566c0-1.640625,0.681702-2.731796,2.044922-3.273926
		c1.363403-0.541901,3.322266-0.493652,5.876953,0.14502c2.750061,0.687515,4.857422,1.651978,6.322266,2.893066
		c1.464844,1.241272,2.197266,2.682129,2.197266,4.322754c0,1.734375-0.697266,2.862854-2.091797,3.385254
		c-1.394531,0.522583-3.474609,0.437988-6.240234-0.253418c-2.554688-0.638672-4.544861-1.593246-5.970703-2.86377
		C11.227097,107.361069,10.514084,105.9095,10.514084,104.276566z M17.756271,103.333206
		c-0.109314-0.027328-0.259644-0.068756-0.451172-0.124512c-0.191345-0.055527-0.329956-0.094208-0.416016-0.115723
		c-2.007751-0.501938-3.47644-0.646454-4.40625-0.433594c-0.929626,0.212906-1.394531,0.799805-1.394531,1.760742
		c0,1.000122,0.523499,1.85939,1.570312,2.578125c1.046997,0.718781,2.746216,1.38382,5.097656,1.995117V103.333206z
		 M18.600021,109.2043l0.550781,0.137695c2.664185,0.666046,4.529297,0.915527,5.595703,0.748535
		s1.599609-0.766113,1.599609-1.797363c0-1.054688-0.521484-1.91748-1.564453-2.588379s-3.103455-1.391098-6.181641-2.160645
		V109.2043z"/>
	<g>
		<path d="M18.260254,93.234375c0.263672,0,0.480469,0.083984,0.650391,0.25c0.169922,0.167969,0.254883,0.382812,0.254883,0.646484
			s-0.084961,0.480469-0.254883,0.650391s-0.386719,0.254883-0.650391,0.254883c-0.070312,0-0.176758,0.012695-0.320312,0.040039
			c-0.143555,0.025391-0.253906,0.039062-0.330078,0.039062c-0.251953,0-0.459961-0.087891-0.624023-0.263672
			s-0.246094-0.392578-0.246094-0.650391C16.739746,93.556641,17.246582,93.234375,18.260254,93.234375z M24.67627,93.084961
			c0.263672,0,0.480469,0.084961,0.650391,0.254883s0.254883,0.386719,0.254883,0.650391s-0.084961,0.477539-0.254883,0.641602
			c-0.169922,0.169922-0.386719,0.254883-0.650391,0.254883c-0.111328,0-0.273438,0.019531-0.488281,0.056641
			c-0.212891,0.039062-0.373047,0.057617-0.478516,0.057617c-0.246094,0-0.451172-0.092773-0.615234-0.276367
			c-0.164062-0.185547-0.246094-0.40332-0.246094-0.655273C22.848145,93.413086,23.45752,93.084961,24.67627,93.084961z"/>
	</g>
	<g>
		<path d="M26.600586,81.87207c0.621094,1.063477,0.931641,2.444336,0.931641,4.143555
			c0,0.427734-0.067871,0.900391-0.202148,1.417969c-0.158203,0.62207-0.363281,1.068359-0.615234,1.339844v0.087891
			c0,0.251953-0.087891,0.441406-0.263672,0.566406c-0.175781,0.126953-0.389648,0.158203-0.641602,0.094727
			c-0.615723-0.15332-1.536621-0.412109-2.76416-0.774414s-2.148926-0.621094-2.76416-0.774414
			c-0.685547-0.170898-1.709473-0.414062-3.071777-0.728516c-1.362793-0.314453-2.38623-0.556641-3.071777-0.728516
			c-0.240234-0.05957-0.492188-0.246094-0.755859-0.557617c-0.263672-0.3125-0.395508-0.591797-0.395508-0.837891
			c0-0.140625,0.196289-0.55957,0.588867-1.258789c0.439453-0.791992,0.682617-1.25293,0.729492-1.381836
			c0.568359-1.521484,1.441406-2.72168,2.619141-3.599609c1.388672-1.029297,2.915039-1.335938,4.579102-0.919922
			c1.001953,0.25,1.962891,0.726562,2.882812,1.427734C25.305664,80.09082,26.043945,80.917969,26.600586,81.87207z
			 M17.301758,81.392578c-0.392578,0.5-1.066406,1.710938-2.021484,3.634766l2.53125,0.588867l2.522461,0.604492l4.798828,1.339844
			c0.017578-0.037109,0.055664-0.088867,0.114258-0.15625c0.345703-0.428711,0.518066-1.036133,0.518066-1.821289
			c0-1.335938-0.20459-2.360352-0.614746-3.071289c-0.387207-0.666016-0.906738-1.248047-1.560547-1.748047
			c-0.652832-0.500977-1.333984-0.839844-2.042969-1.016602C19.894043,79.333984,18.479492,79.882812,17.301758,81.392578z"/>
	</g>
	<g>
		<path d="M21.556152,72.237305c4.412109,0,7.3125,1.242188,8.701172,3.726562
			c0.134766,0.240234,0.202148,0.448242,0.202148,0.624023c0,0.199219-0.072266,0.375-0.214844,0.527344
			c-0.144531,0.152344-0.3125,0.228516-0.505859,0.228516c-0.263672,0-0.530273-0.169922-0.799805-0.509766
			c-0.210938-0.269531-0.421875-0.541992-0.632812-0.817383c-1.388672-1.347656-3.571289-2.021484-6.547852-2.021484
			c-1.154297,0-2.329102,0.161133-3.524414,0.483398c-1.371094,0.375-2.425781,0.884766-3.164062,1.529297
			c-0.269531,0.269531-0.539062,0.536133-0.808594,0.799805c-0.392578,0.363281-0.691406,0.544922-0.896484,0.544922
			c-0.210938,0-0.399414-0.077148-0.567383-0.233398c-0.166016-0.154297-0.25-0.337891-0.25-0.548828
			c0-0.134766,0.082031-0.322266,0.246094-0.5625c0.814453-1.160156,2.126953-2.097656,3.9375-2.8125
			C18.359863,72.556641,19.968262,72.237305,21.556152,72.237305z"/>
	</g>
</g>
</svg>
