<?xml version="1.0" encoding="UTF-8"?>
<svg id="Layer_1" xmlns="http://www.w3.org/2000/svg" version="1.1" viewBox="0 0 352 161">
  <!-- Generator: Adobe Illustrator 29.3.1, SVG Export Plug-In . SVG Version: 2.1.0 Build 151)  -->
  <defs>
    <style>
      .st0, .st1 {
        fill: #33c;
      }

      .st2 {
        fill: #fff;
      }

      .st2, .st1 {
        fill-rule: evenodd;
      }

      .st3 {
        font-size: 7.3219px;
      }

      .st3, .st4 {
        font-family: TimesNewRomanPSMT, 'Times New Roman';
      }

      .st5 {
        font-size: 9px;
      }

      .st5, .st6 {
        font-family: TimesNewRomanPS-ItalicMT, 'Times New Roman';
        font-style: italic;
      }

      .st4 {
        font-size: 12px;
      }

      .st7 {
        letter-spacing: .001017em;
      }

      .st8 {
        letter-spacing: .000977em;
      }

      .st6 {
        font-size: 12.5519px;
      }

      .st9 {
        letter-spacing: -.004028em;
      }

      .st10 {
        letter-spacing: -.003988em;
      }
    </style>
  </defs>
  <g>
    <text class="st6" transform="translate(166.259766 27.620117)"><tspan x="0" y="0">y</tspan></text>
    <text class="st6" transform="translate(132.05957 27.620117)"><tspan x="0" y="0">y</tspan></text>
    <text class="st6" transform="translate(182.759766 15.081055)"><tspan x="0" y="0">x</tspan></text>
    <text class="st6" transform="translate(131.459961 15.081055)"><tspan x="0" y="0">x</tspan></text>
    <rect x="158.026764" y="24.089691" width="6.435303" height=".60675"/>
    <path d="M144.706665,22.968109h6.435303v.594482h-6.435303v-.594482ZM144.706665,25.25415h6.435303v.606781h-6.435303v-.606781Z"/>
    <rect x="170.626373" y="11.550385" width="6.435303" height=".60675"/>
    <path d="M143.866974,10.428802h6.435303v.594482h-6.435303v-.594482ZM143.866974,12.714844h6.435303v.606781h-6.435303v-.606781Z"/>
    <path d="M135.731323,19.827667c0,.418518-.209259.627594-.627594.627594-.418518,0-.627594-.209076-.627594-.627594,0-.200836.058441-.355591.17572-.464417.117096-.108673.2677-.163177.451874-.163177.18396,0,.334595.058624.451874.17572.117065.117279.17572.267914.17572.451874Z"/>
    <path d="M135.310822,7.287079c0,.418518-.209259.627594-.627594.627594-.418518,0-.627594-.209076-.627594-.627594,0-.200836.058441-.355591.17572-.464417.117096-.108673.2677-.163177.451874-.163177.18396,0,.334595.058624.451874.17572.117065.117279.17572.267914.17572.451874Z"/>
    <text class="st3" transform="translate(189.120117 9.44043)"><tspan x="0" y="0">2</tspan></text>
    <path d="M164.942444,9.465942l-1.263947,3.695709c-.167694.490326-.262665.833527-.284729,1.029663-.010742.138947.010193.239014.062775.300293.052582.06131.11969.091949.201447.091949.102112,0,.214539-.051056.337402-.153229.122742-.102081.256256-.304352.400574-.60675h.251282c-.256805.547577-.520874.925446-.792267,1.13382-.271515.208405-.560455.312592-.866882.312592-.302429,0-.512024-.091949-.628876-.275818-.116974-.183868-.11618-.502563.002136-.956085-.574677.461761-1.080048.783539-1.516052.965302-.436035.181732-.791016.272736-1.064697.272736-.183868,0-.351471-.035828-.502655-.107269-.151276-.071533-.286926-.176697-.406891-.315643-.210815.592407-.336487,1.109344-.377075,1.550598-.030029.314606-.06662.535248-.109924.661926-.07547.220642-.191742.396271-.348816.527069-.157135.130737-.307159.196136-.450134.196136-.147095,0-.248077-.057251-.302917-.1716-.073578-.155334-.070526-.349365.009155-.582245.039124-.114441.112549-.257416.220245-.429016.245728-.384125.431854-.719177.558289-1.005127.216705-.490326.383759-.907074.501129-1.250305l1.670593-4.884705h1.029663l-1.209442,3.536346c-.142548.416779-.210602.717102-.203949.90097.006561.183838.081512.328949.225037.43515.143402.106293.304993.159332.484833.159332.212402,0,.485352-.063293.818848-.190002.333344-.126587.697449-.330933,1.092163-.612885l1.446289-4.228912h1.017395Z"/>
  </g>
  <g>
    <path d="M98.639999,88.220001h.360001v.419998h-.360001v-.419998ZM96,88.220001h1.5v.419998h-1.5v-.419998ZM93.419998,88.220001h1.5v.419998h-1.5v-.419998ZM90.779999,88.220001h1.5v.419998h-1.5v-.419998ZM88.139999,88.220001h1.5v.419998h-1.5v-.419998ZM85.5,88.220001h1.5v.419998h-1.5v-.419998ZM82.919998,88.220001h1.5v.419998h-1.5v-.419998ZM80.279999,88.220001h1.5v.419998h-1.5v-.419998ZM77.639999,88.220001h1.5v.419998h-1.5v-.419998ZM75,88.220001h1.5v.419998h-1.5v-.419998ZM72.419998,88.220001h1.5v.419998h-1.5v-.419998ZM69.779999,88.220001h1.5v.419998h-1.5v-.419998ZM67.139999,88.220001h1.5v.419998h-1.5v-.419998ZM64.5,88.220001h1.5v.419998h-1.5v-.419998ZM61.919998,88.220001h1.5v.419998h-1.5v-.419998ZM59.279999,88.220001h1.5v.419998h-1.5v-.419998ZM56.639999,88.220001h1.5v.419998h-1.5v-.419998ZM54,88.220001h1.5v.419998h-1.5v-.419998ZM51.419998,88.220001h1.5v.419998h-1.5v-.419998ZM48.779999,88.220001h1.5v.419998h-1.5v-.419998ZM46.139999,88.220001h1.5v.419998h-1.5v-.419998ZM43.5,88.220001h1.5v.419998h-1.5v-.419998ZM40.919998,88.220001h1.5v.419998h-1.5v-.419998ZM38.279999,88.220001h1.5v.419998h-1.5v-.419998ZM35.639999,88.220001h1.5v.419998h-1.5v-.419998ZM33,88.220001h1.5v.419998h-1.5v-.419998ZM30.419998,88.220001h1.5v.419998h-1.5v-.419998ZM27.779999,88.220001h1.5v.419998h-1.5v-.419998ZM25.139999,88.220001h1.5v.419998h-1.5v-.419998ZM22.5,88.220001h1.5v.419998h-1.5v-.419998ZM19.919998,88.220001h1.5v.419998h-1.5v-.419998ZM17.279999,88.220001h1.5v.419998h-1.5v-.419998ZM14.639999,88.220001h1.5v.419998h-1.5v-.419998ZM12,88.220001h1.5v.419998h-1.5v-.419998Z"/>
    <path d="M53.820007,122.899994h.419998v1.5h-.419998v-1.5ZM53.820007,120.320007h.419998v1.5h-.419998v-1.5ZM53.820007,117.679993h.419998v1.5h-.419998v-1.5ZM53.820007,115.039993h.419998v1.5h-.419998v-1.5ZM53.820007,112.399994h.419998v1.5h-.419998v-1.5ZM53.820007,109.820007h.419998v1.5h-.419998v-1.5ZM53.820007,107.179993h.419998v1.5h-.419998v-1.5ZM53.820007,104.539993h.419998v1.5h-.419998v-1.5ZM53.820007,101.899994h.419998v1.5h-.419998v-1.5ZM53.820007,99.320007h.419998v1.5h-.419998v-1.5ZM53.820007,96.679993h.419998v1.5h-.419998v-1.5ZM53.820007,94.039993h.419998v1.5h-.419998v-1.5ZM53.820007,91.399994h.419998v1.5h-.419998v-1.5ZM53.820007,88.820007h.419998v1.5h-.419998v-1.5ZM53.820007,86.179993h.419998v1.5h-.419998v-1.5ZM53.820007,83.539993h.419998v1.5h-.419998v-1.5ZM53.820007,80.899994h.419998v1.5h-.419998v-1.5ZM53.820007,78.320007h.419998v1.5h-.419998v-1.5ZM53.820007,75.679993h.419998v1.5h-.419998v-1.5ZM53.820007,73.039993h.419998v1.5h-.419998v-1.5ZM53.820007,70.399994h.419998v1.5h-.419998v-1.5ZM53.820007,67.820007h.419998v1.5h-.419998v-1.5ZM53.820007,65.179993h.419998v1.5h-.419998v-1.5ZM53.820007,62.539993h.419998v1.5h-.419998v-1.5ZM53.820007,59.899994h.419998v1.5h-.419998v-1.5ZM53.820007,57.320007h.419998v1.5h-.419998v-1.5ZM53.820007,54.679993h.419998v1.5h-.419998v-1.5ZM53.820007,52.040009h.419998v1.5h-.419998v-1.5ZM53.820007,49.399994h.419998v1.5h-.419998v-1.5Z"/>
    <text class="st5" transform="translate(102 91.400391)"><tspan x="0" y="0">x</tspan></text>
    <text class="st5" transform="translate(51.899902 48.139648)"><tspan x="0" y="0">y</tspan></text>
    <path d="M212.640015,87.979996h.359985v.360001h-.359985v-.360001ZM210,87.979996h1.5v.360001h-1.5v-.360001ZM207.420013,87.979996h1.5v.360001h-1.5v-.360001ZM204.779999,87.979996h1.5v.360001h-1.5v-.360001ZM202.140015,87.979996h1.5v.360001h-1.5v-.360001ZM199.5,87.979996h1.5v.360001h-1.5v-.360001ZM196.920013,87.979996h1.5v.360001h-1.5v-.360001ZM194.279999,87.979996h1.5v.360001h-1.5v-.360001ZM191.640015,87.979996h1.5v.360001h-1.5v-.360001ZM189,87.979996h1.5v.360001h-1.5v-.360001ZM186.420013,87.979996h1.5v.360001h-1.5v-.360001ZM183.779999,87.979996h1.5v.360001h-1.5v-.360001ZM181.140015,87.979996h1.5v.360001h-1.5v-.360001ZM178.5,87.979996h1.5v.360001h-1.5v-.360001ZM175.920013,87.979996h1.5v.360001h-1.5v-.360001ZM173.279999,87.979996h1.5v.360001h-1.5v-.360001ZM170.640015,87.979996h1.5v.360001h-1.5v-.360001ZM168,87.979996h1.5v.360001h-1.5v-.360001ZM165.420013,87.979996h1.5v.360001h-1.5v-.360001ZM162.779999,87.979996h1.5v.360001h-1.5v-.360001ZM160.140015,87.979996h1.5v.360001h-1.5v-.360001ZM157.5,87.979996h1.5v.360001h-1.5v-.360001ZM154.920013,87.979996h1.5v.360001h-1.5v-.360001ZM152.279999,87.979996h1.5v.360001h-1.5v-.360001ZM149.640015,87.979996h1.5v.360001h-1.5v-.360001ZM147,87.979996h1.5v.360001h-1.5v-.360001ZM144.420013,87.979996h1.5v.360001h-1.5v-.360001ZM141.779999,87.979996h1.5v.360001h-1.5v-.360001ZM139.140015,87.979996h1.5v.360001h-1.5v-.360001ZM136.5,87.979996h1.5v.360001h-1.5v-.360001ZM133.920013,87.979996h1.5v.360001h-1.5v-.360001ZM131.279999,87.979996h1.5v.360001h-1.5v-.360001ZM128.640015,87.979996h1.5v.360001h-1.5v-.360001ZM126,87.979996h1.5v.360001h-1.5v-.360001Z"/>
    <path d="M167.820007,122.660004h.419983v1.5h-.419983v-1.5ZM167.820007,120.080002h.419983v1.5h-.419983v-1.5ZM167.820007,117.440002h.419983v1.5h-.419983v-1.5ZM167.820007,114.800003h.419983v1.5h-.419983v-1.5ZM167.820007,112.160004h.419983v1.5h-.419983v-1.5ZM167.820007,109.580002h.419983v1.5h-.419983v-1.5ZM167.820007,106.940002h.419983v1.5h-.419983v-1.5ZM167.820007,104.300003h.419983v1.5h-.419983v-1.5ZM167.820007,101.660004h.419983v1.5h-.419983v-1.5ZM167.820007,99.080002h.419983v1.5h-.419983v-1.5ZM167.820007,96.440002h.419983v1.5h-.419983v-1.5ZM167.820007,93.800003h.419983v1.5h-.419983v-1.5ZM167.820007,91.160004h.419983v1.5h-.419983v-1.5ZM167.820007,88.580002h.419983v1.5h-.419983v-1.5ZM167.820007,85.940002h.419983v1.5h-.419983v-1.5ZM167.820007,83.300003h.419983v1.5h-.419983v-1.5ZM167.820007,80.660004h.419983v1.5h-.419983v-1.5ZM167.820007,78.080002h.419983v1.5h-.419983v-1.5ZM167.820007,75.440002h.419983v1.5h-.419983v-1.5ZM167.820007,72.800003h.419983v1.5h-.419983v-1.5ZM167.820007,70.160004h.419983v1.5h-.419983v-1.5ZM167.820007,67.580002h.419983v1.5h-.419983v-1.5ZM167.820007,64.940002h.419983v1.5h-.419983v-1.5ZM167.820007,62.300003h.419983v1.5h-.419983v-1.5ZM167.820007,59.660004h.419983v1.5h-.419983v-1.5ZM167.820007,57.079987h.419983v1.500015h-.419983v-1.500015ZM167.820007,54.440002h.419983v1.5h-.419983v-1.5ZM167.820007,51.799988h.419983v1.5h-.419983v-1.5ZM167.820007,49.160004h.419983v1.5h-.419983v-1.5Z"/>
    <text class="st5" transform="translate(216 91.160156)"><tspan x="0" y="0">x</tspan></text>
    <text class="st5" transform="translate(165.899902 47.899414)"><tspan x="0" y="0">y</tspan></text>
    <path d="M331.019989,87.979996h.360016v.360001h-.360016v-.360001ZM328.380005,87.979996h1.5v.360001h-1.5v-.360001ZM325.799988,87.979996h1.5v.360001h-1.5v-.360001ZM323.160004,87.979996h1.5v.360001h-1.5v-.360001ZM320.519989,87.979996h1.5v.360001h-1.5v-.360001ZM317.880005,87.979996h1.5v.360001h-1.5v-.360001ZM315.299988,87.979996h1.5v.360001h-1.5v-.360001ZM312.660004,87.979996h1.5v.360001h-1.5v-.360001ZM310.019989,87.979996h1.5v.360001h-1.5v-.360001ZM307.380005,87.979996h1.5v.360001h-1.5v-.360001ZM304.799988,87.979996h1.5v.360001h-1.5v-.360001ZM302.160004,87.979996h1.5v.360001h-1.5v-.360001ZM299.519989,87.979996h1.5v.360001h-1.5v-.360001ZM296.880005,87.979996h1.5v.360001h-1.5v-.360001ZM294.299988,87.979996h1.5v.360001h-1.5v-.360001ZM291.660004,87.979996h1.5v.360001h-1.5v-.360001ZM289.019989,87.979996h1.5v.360001h-1.5v-.360001ZM286.380005,87.979996h1.5v.360001h-1.5v-.360001ZM283.799988,87.979996h1.5v.360001h-1.5v-.360001ZM281.160004,87.979996h1.5v.360001h-1.5v-.360001ZM278.519989,87.979996h1.5v.360001h-1.5v-.360001ZM275.880005,87.979996h1.5v.360001h-1.5v-.360001ZM273.299988,87.979996h1.5v.360001h-1.5v-.360001ZM270.660004,87.979996h1.5v.360001h-1.5v-.360001ZM268.019989,87.979996h1.5v.360001h-1.5v-.360001ZM265.380005,87.979996h1.5v.360001h-1.5v-.360001ZM262.799988,87.979996h1.5v.360001h-1.5v-.360001ZM260.160004,87.979996h1.5v.360001h-1.5v-.360001ZM257.519989,87.979996h1.5v.360001h-1.5v-.360001ZM254.880005,87.979996h1.5v.360001h-1.5v-.360001ZM252.299988,87.979996h1.5v.360001h-1.5v-.360001ZM249.660004,87.979996h1.5v.360001h-1.5v-.360001ZM247.019989,87.979996h1.5v.360001h-1.5v-.360001ZM244.380005,87.979996h1.5v.360001h-1.5v-.360001Z"/>
    <path d="M286.200012,122.660004h.419983v1.5h-.419983v-1.5ZM286.200012,120.080002h.419983v1.5h-.419983v-1.5ZM286.200012,117.440002h.419983v1.5h-.419983v-1.5ZM286.200012,114.800003h.419983v1.5h-.419983v-1.5ZM286.200012,112.160004h.419983v1.5h-.419983v-1.5ZM286.200012,109.580002h.419983v1.5h-.419983v-1.5ZM286.200012,106.940002h.419983v1.5h-.419983v-1.5ZM286.200012,104.300003h.419983v1.5h-.419983v-1.5ZM286.200012,101.660004h.419983v1.5h-.419983v-1.5ZM286.200012,99.080002h.419983v1.5h-.419983v-1.5ZM286.200012,96.440002h.419983v1.5h-.419983v-1.5ZM286.200012,93.800003h.419983v1.5h-.419983v-1.5ZM286.200012,91.160004h.419983v1.5h-.419983v-1.5ZM286.200012,88.580002h.419983v1.5h-.419983v-1.5ZM286.200012,85.940002h.419983v1.5h-.419983v-1.5ZM286.200012,83.300003h.419983v1.5h-.419983v-1.5ZM286.200012,80.660004h.419983v1.5h-.419983v-1.5ZM286.200012,78.080002h.419983v1.5h-.419983v-1.5ZM286.200012,75.440002h.419983v1.5h-.419983v-1.5ZM286.200012,72.800003h.419983v1.5h-.419983v-1.5ZM286.200012,70.160004h.419983v1.5h-.419983v-1.5ZM286.200012,67.580002h.419983v1.5h-.419983v-1.5ZM286.200012,64.940002h.419983v1.5h-.419983v-1.5ZM286.200012,62.300003h.419983v1.5h-.419983v-1.5ZM286.200012,59.660004h.419983v1.5h-.419983v-1.5ZM286.200012,57.079987h.419983v1.500015h-.419983v-1.500015ZM286.200012,54.440002h.419983v1.5h-.419983v-1.5ZM286.200012,51.799988h.419983v1.5h-.419983v-1.5ZM286.200012,49.160004h.419983v1.5h-.419983v-1.5Z"/>
    <text class="st5" transform="translate(334.379883 91.160156)"><tspan x="0" y="0">x</tspan></text>
    <text class="st5" transform="translate(284.279297 47.899414)"><tspan x="0" y="0">y</tspan></text>
    <path class="st0" d="M71.639999,87.259995l.600006-.479996c4.804001-4.115005,12.050995-8.835999,15.299988-14.220001l.540009-.899994.419998-.960007c3.235001-8.214996,3.791-17.235001,3.839996-25.979996v-.720001l.059998-.600006,1.080002.059998v.600006l-.059998.660004c.095001,8.579987-.660004,17.354996-3.479996,25.5l-.419998.959991-.480011,1.020004c-3.054001,5.887009-10.967987,11.194-16.079987,15.419998l-.300003.240005-.240005.240005"/>
    <path class="st0" d="M92.100006,71.179993l-5.76001,4.860001-.419998-7.5M91.740005,66.380005l-2.160004,4.979996-2.040009-.899994,2.160004-4.980011,2.040009.900009Z"/>
    <path class="st0" d="M71.639999,88.100006l-.240005-.240005-.299988-.240005c-4.963013-4.075989-12.205002-9.028-15.540009-14.459991l-.539993-.960007-.480011-1.020004c-3.335999-8.344986-3.854996-17.561981-3.959991-26.459991v-1.26001l1.080002-.059998.059998.600006v.720001c-.007996,8.427002.658005,17.001999,3.419998,25.020004l.839996,1.919998c3.150009,5.897995,10.768997,10.78299,15.840012,15.119995l.599991.479996"/>
    <path class="st0" d="M58.139999,68.539993l-.419998,7.5-5.759995-4.860001M54.360001,65.479996l2.160004,4.980011-2.100006.899994-2.160004-4.979996,2.100006-.900009Z"/>
  </g>
  <path class="st0" d="M72.419998,88.759995l.240005.240005.300003.240005c4.944992,4.069,12.237991,9.039993,15.539993,14.459991l.539993.960007.480011,1.019989c3.289993,8.34201,3.942001,17.561005,3.899994,26.460007l.059998.660004v.599991l-1.080002.060013-.059998-.600006v-.720001c-.000992-8.425995-.647995-17.003998-3.419998-25.020004l-.839996-1.919998c-3.138-5.880997-10.789001-10.811996-15.839996-15.119995l-.600006-.479996"/>
  <path class="st0" d="M85.919998,108.320007l.419998-7.5,5.76001,4.799988M89.699997,111.380005l-2.160004-4.980011,2.040009-.899994,2.160004,4.979996-2.040009.900009Z"/>
  <path class="st0" d="M72.419998,89.600006l-.599991.479996c-4.783005,4.067993-12.083008,8.882996-15.300003,14.220001l-.540009.899994-.419998.960007c-3.235992,8.210999-3.793991,17.235992-3.839996,25.979996v.720001l-.059998.600006-1.080002-.060013v-1.259995c.052994-8.578003.673004-17.352997,3.539993-25.5l.419998-.960007.480011-1.019989c3.042999-5.893997,10.968002-11.186005,16.080002-15.419998l.299988-.240005.240005-.240005"/>
  <g>
    <path class="st0" d="M51.960007,105.619995l5.759995-4.799988.419998,7.5M52.259995,110.479996l2.160004-4.979996,2.100006.899994-2.160004,4.980011-2.100006-.900009Z"/>
    <path class="st0" d="M18.419998,82.759995l.180008-.179993.23999-.180008c4.555008-3.220001,10.238007-5.891998,12.419998-11.399994l.419998-.899994.300003-.960007c2.636002-8.076996,3.412003-15.983994,3.360001-24.419998l.059998-.720001v-.600006l1.139999.059998-.059998.600006v.660004c.062012,8.562988-.748001,15.459991-3.059998,23.759995l-.720001,2.040009c-2.25499,6.386993-7.927002,9.182999-13.139999,12.779999l-.23999.179993-.180008.12001"/>
    <path class="st0" d="M35.100006,71.179993l-5.76001,4.860001-.419998-7.5M34.740005,66.380005l-2.160004,4.979996-2.040009-.899994,2.160004-4.980011,2.040009.900009Z"/>
  </g>
  <path class="st0" d="M19.860001,93.619995l.360001.240005c5.240997,3.576996,10.184998,6.113007,12.419998,12.479996l.360001.960007.300003,1.020004c2.494995,8.313995,3.222,15.216995,3.179993,23.819992v.660004l.059998.599991-1.139999.060013v-.600006l-.059998-.720001c.048004-8.673996-.653-15.044998-3.059998-23.460007l-.720001-1.919998c-2.028992-6.120987-6.981995-8.498001-11.940002-11.939987l-.23999-.180008-.180008-.119995"/>
  <g>
    <path class="st0" d="M28.919998,108.320007l.419998-7.5,5.76001,4.859985M32.699997,111.380005l-2.160004-4.980011,2.040009-.899994,2.160004,4.979996-2.040009.900009Z"/>
    <rect class="st0" x="9" y="87.679993" width="90" height="1.5"/>
    <path class="st0" d="M90.779999,91.820007l-6.779999-3.420013,6.779999-3.360001M93,89.539993h-3.360001v-2.219986h3.360001v2.219986Z"/>
    <path class="st0" d="M30.779999,91.820007l-6.779999-3.420013,6.779999-3.360001M33,89.539993h-3.360001v-2.219986h3.360001v2.219986Z"/>
    <path class="st0" d="M53.279999,85.039993l6.720001,3.360001-6.720001,3.420013M51,87.320007h3.419998v2.219986h-3.419998v-2.219986Z"/>
    <polyline class="st0" points="45.419998 63.679993 42 70.399994 38.639999 63.679993"/>
    <rect class="st0" x="41.460007" y="49.399994" width="1.139999" height="72"/>
    <polyline class="st0" points="38.639999 113.179993 42 106.399994 45.419998 113.179993"/>
    <path class="st2" d="M40.5,88.399994c0-.779999.720001-1.5,1.5-1.5.839996,0,1.5.720001,1.5,1.5,0,.840012-.660004,1.5-1.5,1.5-.779999,0-1.5-.659988-1.5-1.5"/>
    <path class="st0" d="M40.740005,88.699997l.059998.240005.179993.23999-.059998-.059998.180008.240005.23999.179993-.059998-.059998.240005.180008.23999.059998h.300003-.059998.300003l.23999-.059998.240005-.180008-.059998.059998.240005-.179993.179993-.240005-.059998.059998.179993-.23999.060013-.240005v-.300003.060013-.300003l-.060013-.240005-.179993-.240005.059998.060013-.179993-.240005-.240005-.179993.059998.059998-.240005-.180008-.23999-.059998h-.300003.059998-.300003l-.23999.059998-.240005.180008.059998-.059998-.23999.179993-.180008.240005.059998-.060013-.179993.240005-.059998.240005v.300003-.060013M40.320007,88.460007v-.060013l.059998-.299988.119995-.300003v-.059998l.119995-.240005.180008-.240005.059998-.059998.240005-.179993.23999-.12001h.059998l.300003-.119995.300003-.059998h.059998c.612.087006,1.278.384995,1.5,1.020004l.059998.059998.12001.599991v.060013l-.12001.599991-.059998.059998-.119995.240005-.180008.240005-.059998.059998-.23999.179993-.240005.12001-.059998.059998-.600006.119995c-.647003-.028-1.321991-.378006-1.559998-1.020004v-.059998l-.119995-.23999v-.060013l-.059998-.299988Z"/>
    <rect class="st0" x="71.460007" y="49.399994" width="1.139999" height="72"/>
    <polyline class="st0" points="75.419998 63.679993 72 70.399994 68.639999 63.679993"/>
    <polyline class="st0" points="68.639999 113.179993 72 106.399994 75.419998 113.179993"/>
    <path class="st1" d="M70.5,88.039993c0-.839996.720001-1.5,1.5-1.5.839996,0,1.5.660004,1.5,1.5,0,.840012-.660004,1.5-1.5,1.5-.779999,0-1.5-.659988-1.5-1.5"/>
    <path class="st0" d="M70.740005,88.339996v-.059998l.059998.300003v-.059998l.179993.300003-.059998-.060013.180008.240005.23999.179993-.059998-.059998.240005.180008v-.059998l.23999.119995h.300003-.059998.300003l.23999-.119995v.059998l.240005-.180008-.059998.059998.240005-.179993.179993-.240005-.059998.060013.179993-.300003v.059998l.060013-.300003v.059998-.300003.060013-.300003l-.060013-.300003v.059998l-.179993-.23999h.059998l-.179993-.180008-.240005-.179993h.059998l-.240005-.12001-.23999-.059998-.300003-.059998h.059998l-.300003.059998-.23999.059998-.240005.12001h.059998l-.23999.179993-.180008.180008h.059998l-.179993.23999-.059998.240005v.300003-.060013M70.320007,88.100006v-.060013l.059998-.299988v-.060013l.119995-.23999v-.059998l.119995-.240005v-.059998l.240005-.240005c.695999-.520996.259995-.276001,1.139999-.479996h.059998l.300003.059998h.059998l.240005.059998h.059998l.479996.360001.240005.240005v.059998c.276001.462997.194992.389999.300003.899994v.060013l-.060013.299988-.059998.300003h-.059998l-.119995.300003-.180008.240005h-.059998l-.23999.179993v.059998l-.240005.12001h-.059998l-.300003.119995h-.660004l-.300003-.119995h-.059998l-.23999-.12001v-.059998l-.240005-.179993h-.059998l-.180008-.240005-.23999-.600006-.059998-.299988Z"/>
    <rect class="st0" x="167.459991" y="50.179993" width="1.140015" height="72"/>
    <polyline class="st0" points="171.420013 64.399994 168 71.179993 164.640015 64.399994"/>
    <polyline class="st0" points="164.640015 113.899994 168 107.179993 171.420013 113.899994"/>
    <path class="st1" d="M166.5,88.820007c0-.840012.720001-1.5,1.5-1.5.839996,0,1.5.659988,1.5,1.5,0,.839996-.660004,1.5-1.5,1.5-.779999,0-1.5-.660004-1.5-1.5"/>
    <path class="st0" d="M166.73999,89.059998l.059998.300003v-.059998l.180023.23999h-.059998l.179993.180008.23999.179993h-.059998l.23999.12001.240021.059998.299988.059998h-.059998l.299988-.059998.240021-.059998.23999-.12001h-.059998l.23999-.179993.180023-.180008h-.060028l.180023-.23999v.059998l.059998-.300003v-.300003.060013-.300003.059998l-.059998-.300003v.059998l-.180023-.300003.060028.060013-.180023-.240005v.059998l-.23999-.240005.059998.060013-.23999-.180008v.059998l-.240021-.119995h-.299988.059998-.299988l-.240021.119995v-.059998l-.23999.180008.059998-.060013-.23999.240005v-.059998l-.179993.240005.059998-.060013-.180023.300003v-.059998l-.059998.300003v-.059998.300003-.060013M166.320007,88.820007v-.060013l.059998-.299988.23999-.600006.179993-.240005h.059998l.240021-.179993v-.059998l.23999-.12001h.059998l.300018-.119995h.720001l.23999.119995h.059998l.23999.12001v.059998l.240021.179993h.059998l.179993.240005.119995.300003h.059998l.119995.599991v.060013l-.059998.299988v.059998l-.059998.240005-.059998.059998-.119995.240005v.059998l-.23999.240005-.480011.360001h-.059998l-.600006.119995h-.059998l-.600006-.119995h-.059998l-.480011-.360001-.059998-.059998-.179993-.180008v-.059998l-.119995-.240005v-.059998l-.119995-.240005v-.059998l-.059998-.299988Z"/>
    <path class="st0" d="M168.420013,87.259995l.23999-.23999.299988-.240005c4.868011-4.061005,12.068024-8.880005,15.360016-14.220001l.47998-.899994.480011-.960007c3.195007-8.209,3.779999-17.245987,3.779999-25.979996l.059998-.720001v-.600006l1.140015.059998-.059998.600006v.660004c.027985,8.583984-.666016,17.337997-3.480011,25.5l-.420013.959991-.47998,1.020004c-3.14502,5.912003-10.925018,11.147003-16.140015,15.419998l-.23999.240005-.299988.240005"/>
    <path class="st0" d="M188.880005,71.179993l-5.820007,4.860001-.359985-7.5M188.519989,66.380005l-2.160004,4.979996-2.039978-.899994,2.160004-4.980011,2.039978.900009Z"/>
  </g>
  <path class="st0" d="M169.140015,88.759995l.299988.240005.23999.240005c5.054993,4.119995,12.197021,9.011993,15.600006,14.459991l.540009.960007.47998,1.019989c3.284027,8.359009,3.876007,17.557007,3.900024,26.460007v.660004l.059998.599991-1.140015.060013v-.600006l-.059998-.720001c.054993-8.416-.640991-17.007996-3.359985-25.020004l-.420013-.959991-.480011-.960007c-2.845001-5.647003-10.953003-11.033997-15.839996-15.119995l-.299988-.240005-.23999-.23999"/>
  <g>
    <path class="st0" d="M182.700012,108.320007l.359985-7.5,5.820007,4.799988M186.480011,111.380005l-2.160004-4.980011,2.039978-.899994,2.160004,4.979996-2.039978.900009Z"/>
    <path class="st0" d="M137.640015,87.259995l.599976-.479996c4.804016-4.115005,12.050995-8.835999,15.300018-14.220001l.539978-.899994.420013-.960007c3.234985-8.214996,3.790985-17.235001,3.839996-25.979996v-.720001l.059998-.600006,1.080017.059998v.600006l-.059998.660004c.095001,8.579987-.660004,17.354996-3.480011,25.5l-.420013.959991-.47998,1.020004c-3.054016,5.887009-10.968018,11.194-16.080017,15.419998l-.299988.240005-.23999.240005"/>
    <path class="st0" d="M158.100006,71.179993l-5.76001,4.860001-.419983-7.5M157.73999,66.380005l-2.160004,4.979996-2.039978-.899994,2.160004-4.980011,2.039978.900009Z"/>
  </g>
  <path class="st0" d="M138.420013,88.759995l.23999.240005.299988.240005c4.945007,4.069,12.238007,9.039993,15.540009,14.459991l.540009.960007.47998,1.019989c3.290009,8.34201,3.942017,17.561005,3.900024,26.460007l.059998.660004v.599991l-1.080017.060013-.059998-.600006v-.720001c-.001007-8.425995-.64801-17.003998-3.419983-25.020004l-.840027-1.919998c-3.138-5.880997-10.789001-10.811996-15.839996-15.119995l-.599976-.479996"/>
  <g>
    <path class="st0" d="M151.920013,108.320007l.419983-7.5,5.76001,4.799988M155.700012,111.380005l-2.160004-4.980011,2.039978-.899994,2.160004,4.979996-2.039978.900009Z"/>
    <rect class="st0" x="129" y="87.679993" width="90" height="1.5"/>
    <path class="st0" d="M210.779999,91.820007l-6.779999-3.420013,6.779999-3.360001M213,89.539993h-3.359985v-2.219986h3.359985v2.219986Z"/>
    <path class="st0" d="M150.779999,91.820007l-6.779999-3.420013,6.779999-3.360001M153,89.539993h-3.359985v-2.219986h3.359985v2.219986Z"/>
    <path class="st0" d="M291.420013,87.259995l.23999-.23999.299988-.240005c4.868011-4.061005,12.068024-8.880005,15.360016-14.220001l.47998-.899994.480011-.960007c3.195007-8.209,3.779999-17.245987,3.779999-25.979996l.059998-.720001v-.600006l1.140015.059998-.059998.600006v.660004c.027985,8.583984-.666016,17.337997-3.480011,25.5l-.420013.959991-.47998,1.020004c-3.14502,5.912003-10.925018,11.147003-16.140015,15.419998l-.23999.240005-.299988.240005"/>
    <path class="st0" d="M311.880005,71.179993l-5.820007,4.860001-.359985-7.5M311.519989,66.380005l-2.160004,4.979996-2.039978-.899994,2.160004-4.980011,2.039978.900009Z"/>
  </g>
  <path class="st0" d="M292.140015,88.759995l.299988.240005.23999.240005c5.054993,4.119995,12.197021,9.011993,15.600006,14.459991l.540009.960007.47998,1.019989c3.284027,8.359009,3.876007,17.557007,3.900024,26.460007v.660004l.059998.599991-1.140015.060013v-.600006l-.059998-.720001c.054993-8.416-.640991-17.007996-3.359985-25.020004l-.420013-.959991-.480011-.960007c-2.845001-5.647003-10.953003-11.033997-15.839996-15.119995l-.299988-.240005-.23999-.23999"/>
  <g>
    <path class="st0" d="M305.700012,108.320007l.359985-7.5,5.820007,4.799988M309.480011,111.380005l-2.160004-4.980011,2.039978-.899994,2.160004,4.979996-2.039978.900009Z"/>
    <path class="st0" d="M260.640015,87.259995l.599976-.479996c4.804016-4.115005,12.050018-8.835999,15.300018-14.220001l.539978-.899994.420013-.960007c3.234985-8.214996,3.790985-17.235001,3.839996-25.979996v-.720001l.059998-.600006,1.080017.059998v.600006l-.059998.660004c.095001,8.579987-.660004,17.354996-3.480011,25.5l-.420013.959991-.47998,1.020004c-3.054016,5.887009-10.968018,11.194-16.080017,15.419998l-.299988.240005-.23999.240005"/>
    <path class="st0" d="M281.100006,71.179993l-5.76001,4.860001-.419983-7.5M280.73999,66.380005l-2.160004,4.979996-2.039978-.899994,2.160004-4.980011,2.039978.900009Z"/>
  </g>
  <path class="st0" d="M261.420013,88.759995l.23999.240005.299988.240005c4.945007,4.069,12.238007,9.039993,15.540009,14.459991l.540009.960007.47998,1.019989c3.290009,8.34201,3.942017,17.561005,3.900024,26.460007l.059998.660004v.599991l-1.080017.060013-.059998-.600006v-.720001c-.001007-8.425995-.64801-17.003998-3.419983-25.020004l-.840027-1.919998c-3.138-5.880997-10.789001-10.811996-15.839996-15.119995l-.599976-.479996"/>
  <g>
    <path class="st0" d="M274.920013,108.320007l.419983-7.5,5.76001,4.799988M278.700012,111.380005l-2.160004-4.980011,2.039978-.899994,2.160004,4.979996-2.039978.900009Z"/>
    <rect class="st0" x="252" y="87.679993" width="90" height="1.5"/>
    <path class="st0" d="M333.779999,91.820007l-6.779999-3.420013,6.779999-3.360001M336,89.539993h-3.359985v-2.219986h3.359985v2.219986Z"/>
    <path class="st0" d="M273.779999,91.820007l-6.779999-3.420013,6.779999-3.360001M276,89.539993h-3.359985v-2.219986h3.359985v2.219986Z"/>
  </g>
  <g>
    <path d="M45.22641,142.852814v3.533203c0,.46875.021423.796875.064453.984375.035156.132843.087891.228516.158203.287109s.14447.087891.222656.087891c.097595,0,.188416-.048798.272461-.146484.083954-.097595.145477-.290955.18457-.580078h.240234c-.066467.523499-.195374.884766-.386719,1.083984-.191437.199219-.433594.298828-.726562.298828-.289124,0-.519562-.087891-.691406-.263672-.171936-.175781-.275391-.480469-.310547-.914062-.398438.441467-.776367.749084-1.133789.922852s-.667053.260742-.928711.260742c-.175781,0-.347717-.034241-.515625-.102539-.167999-.06839-.332062-.168915-.492188-.301758-.007874.566345.041016,1.060547.146484,1.482422.074158.300751.111328.511688.111328.632812,0,.210938-.053741.378845-.161133.503906-.107483.124969-.229523.1875-.366211.1875-.140625,0-.25589-.054749-.345703-.164062-.121124-.148499-.181641-.333984-.181641-.556641,0-.109406.023438-.246094.070312-.410156.109314-.367218.177704-.687561.205078-.960938.046875-.46875.070312-.867188.070312-1.195312v-4.669922h.984375v3.380859c0,.398438.033142.685547.099609.861328.066376.175781.185486.314484.357422.416016.171844.101624.343689.152344.515625.152344.203064,0,.443298-.060516.720703-.181641.277313-.121033.558563-.316406.84375-.585938v-4.042969h.972656Z"/>
    <text class="st4" transform="translate(49.560059 148.219727)"><tspan class="st7" x="0" y="0">&gt;</tspan><tspan class="st9" x="6.779785" y="0"> </tspan><tspan x="9.731445" y="0">0</tspan></text>
    <path d="M160.786407,143.332809v3.533203c0,.46875.021423.796875.064453.984375.035156.132843.087891.228516.158203.287109s.14447.087891.222656.087891c.097595,0,.188416-.048798.272461-.146484.083954-.097595.145477-.290955.18457-.580078h.240234c-.066467.523499-.195374.884766-.386719,1.083984-.191437.199219-.433594.298828-.726562.298828-.289124,0-.519562-.087891-.691406-.263672-.171936-.175781-.275391-.480469-.310547-.914062-.398438.441467-.776367.749084-1.133789.922852s-.667053.260742-.928711.260742c-.175781,0-.347717-.034241-.515625-.102539-.167999-.06839-.332062-.168915-.492188-.301758-.007874.566345.041016,1.060547.146484,1.482422.074158.300751.111328.511688.111328.632812,0,.210938-.053741.378845-.161133.503906-.107483.124969-.229523.1875-.366211.1875-.140625,0-.25589-.054749-.345703-.164062-.121124-.148499-.181641-.333984-.181641-.556641,0-.109406.023438-.246094.070312-.410156.109314-.367218.177704-.687561.205078-.960938.046875-.46875.070312-.867188.070312-1.195312v-4.669922h.984375v3.380859c0,.398438.033142.685547.099609.861328.066376.175781.185486.314484.357422.416016.171844.101624.343689.152344.515625.152344.203064,0,.443298-.060516.720703-.181641.277313-.121033.558563-.316406.84375-.585938v-4.042969h.972656Z"/>
    <text class="st4" transform="translate(165.120117 148.700195)"><tspan class="st7" x="0" y="0">=</tspan><tspan class="st9" x="6.779785" y="0"> </tspan><tspan x="9.731445" y="0">0</tspan></text>
    <path d="M279.22641,143.212814v3.533203c0,.46875.021423.796875.064453.984375.035156.132843.087891.228516.158203.287109s.14447.087891.222656.087891c.097595,0,.188416-.048798.272461-.146484.083954-.097595.145477-.290955.18457-.580078h.240234c-.066467.523499-.195374.884766-.386719,1.083984-.191437.199219-.433594.298828-.726562.298828-.289124,0-.519562-.087891-.691406-.263672-.171936-.175781-.275391-.480469-.310547-.914062-.398438.441467-.776367.749084-1.133789.922852s-.667053.260742-.928711.260742c-.175781,0-.347717-.034241-.515625-.102539-.167999-.06839-.332062-.168915-.492188-.301758-.007874.566345.041016,1.060547.146484,1.482422.074158.300751.111328.511688.111328.632812,0,.210938-.053741.378845-.161133.503906-.107483.124969-.229523.1875-.366211.1875-.140625,0-.25589-.054749-.345703-.164062-.121124-.148499-.181641-.333984-.181641-.556641,0-.109406.023438-.246094.070312-.410156.109314-.367218.177704-.687561.205078-.960938.046875-.46875.070312-.867188.070312-1.195312v-4.669922h.984375v3.380859c0,.398438.033142.685547.099609.861328.066376.175781.185486.314484.357422.416016.171844.101624.343689.152344.515625.152344.203064,0,.443298-.060516.720703-.181641.277313-.121033.558563-.316406.84375-.585938v-4.042969h.972656Z"/>
    <text class="st4" transform="translate(283.55957 148.580078)"><tspan class="st8" x="0" y="0">&lt;</tspan><tspan class="st10" x="6.779297" y="0"> </tspan><tspan x="9.731445" y="0">0</tspan></text>
  </g>
  <g>
    <path class="st0" d="M72.419998,88.759995l.240005.240005.300003.240005c4.944992,4.069,12.237991,9.039993,15.539993,14.459991l.539993.960007.480011,1.019989c3.289993,8.34201,3.942001,17.561005,3.899994,26.460007l.059998.660004v.599991l-1.080002.060013-.059998-.600006v-.720001c-.000992-8.425995-.647995-17.003998-3.419998-25.020004l-.839996-1.919998c-3.138-5.880997-10.789001-10.811996-15.839996-15.119995l-.600006-.479996"/>
    <path class="st0" d="M72.419998,89.600006l-.599991.479996c-4.783005,4.067993-12.083008,8.882996-15.300003,14.220001l-.540009.899994-.419998.960007c-3.235992,8.210999-3.793991,17.235992-3.839996,25.979996v.720001l-.059998.600006-1.080002-.060013v-1.259995c.052994-8.578003.673004-17.352997,3.539993-25.5l.419998-.960007.480011-1.019989c3.042999-5.893997,10.968002-11.186005,16.080002-15.419998l.299988-.240005.240005-.240005"/>
    <path class="st0" d="M19.860001,93.619995l.360001.240005c5.240997,3.576996,10.184998,6.113007,12.419998,12.479996l.360001.960007.300003,1.020004c2.494995,8.313995,3.222,15.216995,3.179993,23.819992v.660004l.059998.599991-1.139999.060013v-.600006l-.059998-.720001c.048004-8.673996-.653-15.044998-3.059998-23.460007l-.720001-1.919998c-2.028992-6.120987-6.981995-8.498001-11.940002-11.939987l-.23999-.180008-.180008-.119995"/>
    <path class="st0" d="M169.140015,88.759995l.299988.240005.23999.240005c5.054993,4.119995,12.197021,9.011993,15.600006,14.459991l.540009.960007.47998,1.019989c3.284027,8.359009,3.876007,17.557007,3.900024,26.460007v.660004l.059998.599991-1.140015.060013v-.600006l-.059998-.720001c.054993-8.416-.640991-17.007996-3.359985-25.020004l-.420013-.959991-.480011-.960007c-2.845001-5.647003-10.953003-11.033997-15.839996-15.119995l-.299988-.240005-.23999-.23999"/>
    <path class="st0" d="M138.420013,88.759995l.23999.240005.299988.240005c4.945007,4.069,12.238007,9.039993,15.540009,14.459991l.540009.960007.47998,1.019989c3.290009,8.34201,3.942017,17.561005,3.900024,26.460007l.059998.660004v.599991l-1.080017.060013-.059998-.600006v-.720001c-.001007-8.425995-.64801-17.003998-3.419983-25.020004l-.840027-1.919998c-3.138-5.880997-10.789001-10.811996-15.839996-15.119995l-.599976-.479996"/>
    <path class="st0" d="M292.140015,88.759995l.299988.240005.23999.240005c5.054993,4.119995,12.197021,9.011993,15.600006,14.459991l.540009.960007.47998,1.019989c3.284027,8.359009,3.876007,17.557007,3.900024,26.460007v.660004l.059998.599991-1.140015.060013v-.600006l-.059998-.720001c.054993-8.416-.640991-17.007996-3.359985-25.020004l-.420013-.959991-.480011-.960007c-2.845001-5.647003-10.953003-11.033997-15.839996-15.119995l-.299988-.240005-.23999-.23999"/>
    <path class="st0" d="M261.420013,88.759995l.23999.240005.299988.240005c4.945007,4.069,12.238007,9.039993,15.540009,14.459991l.540009.960007.47998,1.019989c3.290009,8.34201,3.942017,17.561005,3.900024,26.460007l.059998.660004v.599991l-1.080017.060013-.059998-.600006v-.720001c-.001007-8.425995-.64801-17.003998-3.419983-25.020004l-.840027-1.919998c-3.138-5.880997-10.789001-10.811996-15.839996-15.119995l-.599976-.479996"/>
  </g>
</svg>