<?xml version="1.0" encoding="UTF-8"?>
<svg id="Layer_1" xmlns="http://www.w3.org/2000/svg" version="1.1" width="261" height="169" viewBox="0 0 261.50005 169.166482">
  <!-- Generator: Adobe Illustrator 29.3.1, SVG Export Plug-In . SVG Version: 2.1.0 Build 151)  -->
  <defs>
    <style>
      .st0 {
        fill: #33c;
      }

      .st1 {
        fill: #fff;
      }

      .st1, .st2 {
        fill-rule: evenodd;
      }

      .st3 {
        font-family: TimesNewRomanPS-ItalicMT, 'Times New Roman';
        font-size: 12px;
        font-style: italic;
      }

      .st2 {
        fill: #b2b2b2;
      }
    </style>
  </defs>
  <path class="st0" d="M167.904886,70.948219l-3.779999.119995,2.160004-3.119995M216.723293,2.250607l-1.740021,6.179993c-9.53299,34.064026-14.288378,43.026653-45.518389,60.357646l-2.579987,1.440002-.540009-1.02002,2.579987-1.440002c30.960999-17.10199,35.512408-25.904582,44.978411-59.637615l1.679993-6.179993,1.140015.299988Z"/>
  <rect x="4.944894" y="38.068214" width=".419998" height="60.150024"/>
  <g>
    <path class="st2" d="M157.764901,71.068214c0-2.459961,2.039978-4.5,4.5-4.5,2.519989,0,4.5,2.040039,4.5,4.5,0,2.52002-1.980011,4.5-4.5,4.5-2.460022,0-4.5-1.97998-4.5-4.5"/>
    <path d="M158.004892,71.548255l.059998.419983.119995.419983c1.485992,4.473999,7.769989,3.78302,8.399994-.839966v-.900024c-.681-4.89801-7.386993-5.231995-8.519989-.419983l-.059998.419983-.059998.419983M157.584878,71.128211v-.47998l.119995-.47998c1.051025-4.994019,7.955017-4.972046,9.180023-.059998l.059998.47998v.47998c-.037994,5.392029-7.381012,6.509033-9.119995,1.440002l-.120026-.47998-.059998-.419983-.059998-.480042Z"/>
    <text class="st3" transform="translate(2.724984 34.588111)"><tspan x="0" y="0">y</tspan></text>
  </g>
  <g>
    <path class="st0" d="M7.884881,163.588233l.480011-.23999.479996-.180023.479996-.23999c17.404999-7.804993,35.669006-15.065002,52.139999-24.660004l1.5-.899994,3-1.920013c12.248001-8.115997,22.791992-17.798004,33.600006-27.660004l2.160004-1.919983c4.936981-4.15799,9.041992-8.584015,13.199982-13.500031l1.320007-1.5,1.26001-1.5,1.320007-1.440002,1.319977-1.379944,1.380005-1.380005c10.296021-9.622009,23.541016-11.509033,36.660004-14.700012l1.440002-.359985,1.380005-.300049c19.082001-4.479004,38.544006-7.856995,57.779999-11.639954l.660004-.119995,1.199982-.240051.240021,1.080017-1.200012.23999-.660004.119995c-19.002991,3.768005-38.119995,7.067993-57,11.460022l-2.160004.539978c-13.17099,3.230042-27.296997,5.015015-37.559998,14.76001l-1.320007,1.320007-2.639984,2.76001-1.26001,1.5-1.319977,1.559998c-3.892029,4.588989-7.697021,8.696991-12.240021,12.660004l-1.079987.899994-1.02002.959991c-10.299988,9.311005-20.540985,18.757019-31.919983,26.76001l-2.940002,1.980011-3,1.919983c-16.960999,10.145996-35.747009,17.524994-53.76001,25.619995l-.479996.240021-.479996.179993-.479996.23999"/>
    <path class="st0" d="M27.984887,30.868202l.660004.420044.720001.47998.839996.47998c10.869995,6.276001,21.776993,12.049011,31.800003,19.740051l1.37999,1.079956,1.320007,1.140015c12.375992,10.354004,22.865005,25.664001,32.219986,38.580017l1.02002,1.5,1.079987,1.440002.959991,1.440002.960022,1.380005c7.79599,10.319977,12.684998,20.00296,18.899994,31.259979l1.079987,1.799988,1.200012,1.800018c6.769989,10.159973,15.154999,19.115997,22.920013,28.5l.539978.659973.540009.600006.480011.540009-.900024.720001-.47998-.540009-.480011-.600006-.540009-.659973c-7.737976-9.235016-16.379974-18.620026-23.039978-28.620026l-1.200012-1.799988-1.079987-1.859985-1.080017-1.800018c-2.834991-5.020996-5.380005-10.22699-8.339996-15.179993l-.600006-1.080017-.660004-1.019989c-2.205994-3.756012-4.742981-7.108002-7.199982-10.679993l-1.920013-2.76001-2.039978-2.880005-1.02002-1.5c-9.394989-12.955994-19.682999-27.963013-32.039993-38.399963l-2.639999-2.160034c-9.998001-7.622986-20.886002-13.455994-31.740005-19.679993l-.839996-.47998-.720001-.480042-.720001-.419983"/>
    <path class="st0" d="M41.604883,126.568214l-3.479996,1.5.899994-3.659973M32.544885,64.648231l2.100006,1.859985c25.442993,21.531982,30.22699,30.971985,7.5,57.720001l-1.740005,2.100006-.899994-.720001,1.73999-2.100006c22.327011-26.305969,17.712997-34.796997-7.319992-56.159973l-2.160004-1.799988.779999-.900024Z"/>
  </g>
  <path class="st0" d="M157.884897,69.208229l3.23999,1.859985-3.420013,1.5M59.604883,25.768226l2.340012,2.940002c33.585999,42.348022,44.156982,41.02002,95.820007,41.640015h.599976l-.059998,1.140015-.539978-.060059c-51.811005-.36499-63.186005.382019-96.720016-42.059998l-2.339996-2.940002.899994-.659973Z"/>
  <g>
    <path class="st0" d="M167.904886,70.948219l-3.779999.119995,2.160004-3.119995M216.723293,2.250607l-1.740021,6.179993c-9.53299,34.064026-14.288378,43.026653-45.518389,60.357646l-2.579987,1.440002-.540009-1.02002,2.579987-1.440002c30.960999-17.10199,35.512408-25.904582,44.978411-59.637615l1.679993-6.179993,1.140015.299988Z"/>
    <path class="st0" d="M159.024881,74.248207l2.100006-3.179993,1.26001,3.600037M158.604898,162.808235l.23999.419983c.446991.472015.488007.863007.959991,1.26001v.059998l-.119995-.119995v.059998h-.359985l.059998-.059998-.300018.23999.059998-.059998-.119995.240021v-.060028.120026-.300018c-.901001-3.208984-2.158997-6.296997-3.47998-9.359985l-.480011-1.02002-.480011-1.139984c-4.22998-9.747009-9.108978-19.933014-11.699982-30.23999l-.300018-1.140015-.839996-4.559998-.359985-2.220001c-.968018-8.242004-1.782013-19.086029,1.559998-26.939972l.359985-.780029.420013-.719971c3.542999-5.439026,9.768005-8.187012,15.119995-11.400024l.480011-.359985.419983-.23999.420013-.300049-.180023.23999.300018-.779968,1.019989.419983-.299988.780029c-.059998.119995-.119995.179993-.179993.23999l-.420013.299988-.480011.299988-.47998.360046c-5.174011,3.043945-11.399994,5.889954-14.76001,11.039978l-.720001,1.320007c-3.326996,8.118958-2.526001,20.134979-1.079987,28.559998l.359985,2.279999.480011,2.220001.23999,1.079987.300018,1.200012c2.721985,10.10498,7.689972,20.325989,11.819977,30l.480011,1.079987.419983,1.02002.420013.959991c.720001,1.671997,1.325012,3.178009,1.860016,4.919983l.179993.480011.179993.420013c.298004.721985.307007,1.280975.540009,1.97998v.420013c-.059998.119995-.059998.179993-.119995.23999v.059998c-.120026.059998-.180023.179993-.300018.179993h-.059998c-.119995.059998-.23999.059998-.359985,0-.059998,0-.120026-.059998-.180023-.059998l-.059998-.059998c-.453979-.477997-.828979-1.013-1.199982-1.559998l-.180023-.419983.900024-.600006Z"/>
  </g>
  <g>
    <path class="st0" d="M167.664895,72.388221l-3.540009-1.320007,3.179993-2.039978M260.004892,86.608253l-7.679993-2.340027-3.840027-1.140015c-14.5-4.226013-28.998993-8.714966-43.919983-11.219971l-3-.480042c-10.209015-1.552979-20.57901-1.475952-30.839996-.47998l-2.220001.23999-1.5.179993-.119995-1.139954,1.559998-.179993,2.160004-.180054c10.477997-1.128967,20.704987-1.052002,31.139984.420044l3,.47998c14.983002,2.619995,29.471008,6.981995,44.040009,11.280029l3.839996,1.139954,7.679993,2.340027-.299988,1.080017Z"/>
    <polyline class="st0" points="81.564889 69.328224 83.124887 74.068214 78.384881 72.508216"/>
    <path class="st0" d="M201.924875,45.508216l-4.799988,1.559998,1.619995-4.73999M203.664895,41.608253l-3.300018,3.359985-1.079987-1.080017,3.359985-3.299988,1.02002,1.02002Z"/>
    <path class="st0" d="M209.724893,74.668251l-3.600006-3.600037,4.980011-.659973M214.944894,74.788246l-5.460022-1.799988.480011-1.440002,5.399994,1.859985-.419983,1.380005Z"/>
    <path class="st0" d="M92.124887,58.048255l3,4.019958h-4.980011M89.484872,58.408241l2.640015,1.320007-.660004,1.380005-2.639984-1.320007.659973-1.380005Z"/>
    <path class="st0" d="M116.244882,89.128211l4.02002-3.059998v5.040039M116.604898,91.768226l1.319977-2.640015,1.320007.660034-1.320007,2.639954-1.319977-.659973Z"/>
    <path class="st0" d="M208.104898,62.788246l-4.980011-.720032,3.600006-3.539978M212.364877,59.788246l-5.399994,1.799988-.480011-1.380005,5.460022-1.799988.419983,1.380005Z"/>
  </g>
  <rect x="4.944894" y="98.15818" width=".419998" height="65.910034"/>
  <g>
    <rect x="5.124887" y="163.888221" width="231" height=".420013"/>
    <text class="st3" transform="translate(239.485238 165.568092)"><tspan x="0" y="0">x</tspan></text>
    <path class="st2" d="M2.124887,162.568214c0-2.459991,2.039993-4.5,4.5-4.5,2.520004,0,4.5,2.040009,4.5,4.5,0,2.52002-1.979996,4.5-4.5,4.5-2.460007,0-4.5-1.97998-4.5-4.5"/>
    <path d="M2.364892,163.048225l.059998.420013.119995.419983c1.533997,4.479004,7.807999,3.787994,8.400009-.839996v-.899994c-.672012-4.929016-7.404007-5.203003-8.520004-.420013l-.059998.420013v.419983M1.944894,162.628242l.059998-.480011.059998-.480011c1.091003-4.958984,7.985992-5.009003,9.179993-.059998l.059998.480011.060013.47998c-.200012,5.39502-7.372009,6.522003-9.180008,1.440002l-.119995-.47998-.059998-.420013-.059998-.47998Z"/>
  </g>
  <g>
    <path class="st0" d="M7.884881,163.588233l.480011-.23999.479996-.180023.479996-.23999c17.404999-7.804993,35.669006-15.065002,52.139999-24.660004l1.5-.899994,3-1.920013c12.248001-8.115997,22.791992-17.798004,33.600006-27.660004l2.160004-1.919983c4.936981-4.15799,9.041992-8.584015,13.199982-13.500031l1.320007-1.5,1.26001-1.5,1.320007-1.440002,1.319977-1.379944,1.380005-1.380005c10.296021-9.622009,23.541016-11.509033,36.660004-14.700012l1.440002-.359985,1.380005-.300049c19.082001-4.479004,38.544006-7.856995,57.779999-11.639954l.660004-.119995,1.199982-.240051.240021,1.080017-1.200012.23999-.660004.119995c-19.002991,3.768005-38.119995,7.067993-57,11.460022l-2.160004.539978c-13.17099,3.230042-27.296997,5.015015-37.559998,14.76001l-1.320007,1.320007-2.639984,2.76001-1.26001,1.5-1.319977,1.559998c-3.892029,4.588989-7.697021,8.696991-12.240021,12.660004l-1.079987.899994-1.02002.959991c-10.299988,9.311005-20.540985,18.757019-31.919983,26.76001l-2.940002,1.980011-3,1.919983c-16.960999,10.145996-35.747009,17.524994-53.76001,25.619995l-.479996.240021-.479996.179993-.479996.23999"/>
    <path class="st0" d="M27.984887,30.868202l.660004.420044.720001.47998.839996.47998c10.869995,6.276001,21.776993,12.049011,31.800003,19.740051l1.37999,1.079956,1.320007,1.140015c12.375992,10.354004,22.865005,25.664001,32.219986,38.580017l1.02002,1.5,1.079987,1.440002.959991,1.440002.960022,1.380005c7.79599,10.319977,12.684998,20.00296,18.899994,31.259979l1.079987,1.799988,1.200012,1.800018c6.769989,10.159973,15.154999,19.115997,22.920013,28.5l.539978.659973.540009.600006.480011.540009-.900024.720001-.47998-.540009-.480011-.600006-.540009-.659973c-7.737976-9.235016-16.379974-18.620026-23.039978-28.620026l-1.200012-1.799988-1.079987-1.859985-1.080017-1.800018c-2.834991-5.020996-5.380005-10.22699-8.339996-15.179993l-.600006-1.080017-.660004-1.019989c-2.205994-3.756012-4.742981-7.108002-7.199982-10.679993l-1.920013-2.76001-2.039978-2.880005-1.02002-1.5c-9.394989-12.955994-19.682999-27.963013-32.039993-38.399963l-2.639999-2.160034c-9.998001-7.622986-20.886002-13.455994-31.740005-19.679993l-.839996-.47998-.720001-.480042-.720001-.419983"/>
    <path class="st0" d="M41.604883,126.568214l-3.479996,1.5.899994-3.659973M32.544885,64.648231l2.100006,1.859985c25.442993,21.531982,30.22699,30.971985,7.5,57.720001l-1.740005,2.100006-.899994-.720001,1.73999-2.100006c22.327011-26.305969,17.712997-34.796997-7.319992-56.159973l-2.160004-1.799988.779999-.900024Z"/>
    <path class="st0" d="M159.024881,74.248207l2.100006-3.179993,1.26001,3.600037M158.604898,162.808235l.23999.419983c.446991.472015.488007.863007.959991,1.26001v.059998l-.119995-.119995v.059998h-.359985l.059998-.059998-.300018.23999.059998-.059998-.119995.240021v-.060028.120026-.300018c-.901001-3.208984-2.158997-6.296997-3.47998-9.359985l-.480011-1.02002-.480011-1.139984c-4.22998-9.747009-9.108978-19.933014-11.699982-30.23999l-.300018-1.140015-.839996-4.559998-.359985-2.220001c-.968018-8.242004-1.782013-19.086029,1.559998-26.939972l.359985-.780029.420013-.719971c3.542999-5.439026,9.768005-8.187012,15.119995-11.400024l.480011-.359985.419983-.23999.420013-.300049-.180023.23999.300018-.779968,1.019989.419983-.299988.780029c-.059998.119995-.119995.179993-.179993.23999l-.420013.299988-.480011.299988-.47998.360046c-5.174011,3.043945-11.399994,5.889954-14.76001,11.039978l-.720001,1.320007c-3.326996,8.118958-2.526001,20.134979-1.079987,28.559998l.359985,2.279999.480011,2.220001.23999,1.079987.300018,1.200012c2.721985,10.10498,7.689972,20.325989,11.819977,30l.480011,1.079987.419983,1.02002.420013.959991c.720001,1.671997,1.325012,3.178009,1.860016,4.919983l.179993.480011.179993.420013c.298004.721985.307007,1.280975.540009,1.97998v.420013c-.059998.119995-.059998.179993-.119995.23999v.059998c-.120026.059998-.180023.179993-.300018.179993h-.059998c-.119995.059998-.23999.059998-.359985,0-.059998,0-.120026-.059998-.180023-.059998l-.059998-.059998c-.453979-.477997-.828979-1.013-1.199982-1.559998l-.180023-.419983.900024-.600006Z"/>
  </g>
  <g>
    <path class="st0" d="M53.904886,149.008216l-3.779999.059998,2.220001-3.059998M127.644876,164.308235l-1.5-3.540009-.779999-1.73999c-5.888-13.485016-11.182983-21.080994-26.220001-24.179993l-1.73999-.300018-1.799988-.179993c-13.673004-1.345001-26.226013,5.598999-38.040009,11.459991l-2.400009,1.26001-2.279999,1.199982-.479996-1.019989,2.279999-1.200012,2.339996-1.259979c12.354004-6.097015,24.508011-12.834991,38.700012-11.580017l1.859985.240021,1.740021.299988c15.435974,3.138,21.019989,10.937988,27.059998,24.779999l.779999,1.800018,1.5,3.539978-1.02002.420013Z"/>
    <path class="st1" d="M99.624887,104.848243c0-2.52002,2.040009-4.5,4.5-4.5,2.519989,0,4.5,1.97998,4.5,4.5,0,2.459991-1.980011,4.5-4.5,4.5-2.459991,0-4.5-2.040009-4.5-4.5"/>
    <path d="M99.864877,105.268226l.059998.420013.120026.419983c1.477997,4.475006,7.84198,3.841003,8.399994-.839996v-.839996c-.660004-4.905975-7.269012-5.329987-8.52002-.480011l-.059998.420013v.480011M99.444894,104.848243l.059998-.480011.059998-.480011c1.210999-4.977966,7.953003-4.994995,9.179993,0l.059998.480011.059998.480011c-.23999,5.366974-7.434998,6.505981-9.179993,1.379974l-.119995-.419983-.059998-.480011-.059998-.47998Z"/>
    <path class="st0" d="M78.92489,129.508216l-4.800003,1.559998,1.619995-4.73999M80.66488,125.608222l-3.299988,3.360016-1.080002-1.080017,3.360001-3.299988,1.019989,1.019989Z"/>
    <path class="st0" d="M113.124887,124.108222v-5.040009l4.079987,3.060028M115.464883,125.42823l-1.320007-2.640015,1.380005-.659973,1.320007,2.639984-1.380005.660004Z"/>
    <path class="st0" d="M145.464883,136.048225l.660004-4.980011,3.600006,3.600006M148.464883,140.308235l-1.859985-5.399994,1.440002-.480011,1.799988,5.399994-1.380005.480011Z"/>
  </g>
</svg>