<?xml version="1.0" encoding="UTF-8"?>
<svg id="Layer_1" xmlns="http://www.w3.org/2000/svg" version="1.1" viewBox="0 0 317.153085 141.80133">
  <!-- Generator: Adobe Illustrator 29.3.1, SVG Export Plug-In . SVG Version: 2.1.0 Build 151)  -->
  <defs>
    <style>
      .st0 {
        font-family: TimesNewRomanPS-ItalicMT, 'Times New Roman';
        font-style: italic;
      }

      .st0, .st1 {
        font-size: 12.5423px;
      }

      .st2, .st3, .st4 {
        fill: #33c;
      }

      .st3 {
        font-size: 12px;
      }

      .st3, .st4, .st5, .st1, .st6 {
        font-family: TimesNewRomanPSMT, 'Times New Roman';
      }

      .st4, .st6 {
        font-size: 10.02px;
      }

      .st5 {
        font-size: 7.3163px;
      }

      .st7 {
        letter-spacing: .001072em;
      }

      .st8 {
        letter-spacing: .001023em;
      }

      .st9 {
        letter-spacing: .001017em;
      }

      .st10 {
        letter-spacing: .000977em;
      }

      .st11 {
        letter-spacing: .000975em;
      }

      .st12 {
        letter-spacing: .002047em;
      }

      .st13 {
        letter-spacing: .001998em;
      }

      .st14 {
        letter-spacing: .000049em;
      }

      .st15 {
        fill: none;
        stroke: #000;
        stroke-linecap: round;
        stroke-linejoin: round;
        stroke-width: .521px;
      }

      .st16 {
        letter-spacing: -.057007em;
      }

      .st17 {
        letter-spacing: -.021929em;
      }

      .st18 {
        letter-spacing: -.014974em;
      }

      .st19 {
        letter-spacing: -.015984em;
      }

      .st20 {
        letter-spacing: -.051021em;
      }

      .st21 {
        letter-spacing: -.027971em;
      }

      .st22 {
        letter-spacing: -.003898em;
      }

      .st23 {
        letter-spacing: -.003996em;
      }

      .st24 {
        letter-spacing: -.011013em;
      }

      .st25 {
        letter-spacing: -.010039em;
      }

      .st26 {
        letter-spacing: -.009941em;
      }

      .st27 {
        letter-spacing: -.00999em;
      }

      .st28 {
        letter-spacing: -.006999em;
      }

      .st29 {
        letter-spacing: -.001023em;
      }

      .st30 {
        letter-spacing: -.001017em;
      }

      .st31 {
        letter-spacing: -.003021em;
      }

      .st32 {
        letter-spacing: -.002047em;
      }

      .st33 {
        letter-spacing: -.001994em;
      }

      .st34 {
        letter-spacing: -.001949em;
      }

      .st35 {
        letter-spacing: -.001998em;
      }

      .st36 {
        letter-spacing: .009033em;
      }
    </style>
  </defs>
  <g>
    <line class="st15" x1="33.425003" y1="35.98565" x2="61.865006" y2="35.98565"/>
    <text class="st0" transform="translate(73.02501 39.165642)"><tspan x="0" y="0">by</tspan></text>
    <text class="st0" transform="translate(49.924424 48.945916)"><tspan x="0" y="0">x</tspan></text>
    <text class="st0" transform="translate(42.424424 31.246209)"><tspan x="0" y="0">x</tspan></text>
    <text class="st0" transform="translate(14.584092 39.167107)"><tspan x="0" y="0">y</tspan></text>
    <text class="st0" transform="translate(64.204209 10.846306)"><tspan x="0" y="0">y</tspan></text>
    <text class="st0" transform="translate(39.663681 10.846306)"><tspan x="0" y="0">ax</tspan></text>
    <text class="st0" transform="translate(13.983506 10.846306)"><tspan x="0" y="0">x</tspan></text>
    <rect x="64.610001" y="35.639397" width="6.430374" height=".606323"/>
    <polygon points="43.290741 42.516961 43.8909 42.516961 43.8909 45.444268 46.799881 45.444268 46.799881 46.038323 43.8909 46.038323 43.8909 48.94732 43.290741 48.94732 43.290741 46.038323 40.369507 46.038323 40.369507 45.444268 43.290741 45.444268 43.290741 42.516961"/>
    <path d="M23.629197,34.51867h6.430374v.594055h-6.430374v-.594055ZM23.629197,36.802971h6.430374v.606323h-6.430374v-.606323Z"/>
    <polygon points="56.970536 4.415948 57.570694 4.415948 57.570694 7.343255 60.479676 7.343255 60.479676 7.93731 57.570694 7.93731 57.570694 10.846306 56.970536 10.846306 56.970536 7.93731 54.049302 7.93731 54.049302 7.343255 56.970536 7.343255 56.970536 4.415948"/>
    <rect x="32.689805" y="7.31878" width="6.430374" height=".606323"/>
    <path d="M22.850403,6.198052h6.430374v.594055h-6.430374v-.594055ZM22.850403,8.482354h6.430374v.606323h-6.430374v-.606323Z"/>
    <text class="st5" transform="translate(56.344834 43.305779)"><tspan x="0" y="0">2</tspan></text>
    <text class="st5" transform="translate(48.785264 25.605584)"><tspan x="0" y="0">2</tspan></text>
    <text class="st1" transform="translate(32.884873 48.945427)"><tspan x="0" y="0">1</tspan></text>
    <path d="M18.194245,31.378838c0,.418213-.209106.627136-.627121.627136-.418198,0-.627106-.208923-.627106-.627136,0-.200623.058395-.355286.175583-.46405.117004-.108582.267517-.163025.451523-.163025.183823,0,.334335.058594.451523.175598.117004.117188.175598.2677.175598.451477Z"/>
    <path d="M17.834244,3.058343c0,.418213-.209106.627136-.627121.627136-.418198,0-.627106-.208923-.627106-.627136,0-.200623.058395-.355286.175583-.46405.117004-.108582.267517-.163025.451523-.163025.183823,0,.334335.058594.451523.175598.117004.117188.175598.2677.175598.451477Z"/>
    <text class="st6" transform="translate(109.625107 13.005486)"><tspan class="st8" x="0" y="0">pro</tspan><tspan class="st35" x="13.386719" y="0">t</tspan><tspan class="st8" x="16.150391" y="0">e</tspan><tspan class="st35" x="20.60791" y="0">i</tspan><tspan class="st8" x="23.371582" y="0">n</tspan><tspan class="st21" x="28.391602" y="0"> </tspan><tspan class="st8" x="30.616211" y="0">degrades</tspan><tspan class="st19" x="66.304199" y="0"> </tspan><tspan class="st7" x="68.648926" y="0">and</tspan><tspan class="st25" x="83.146973" y="0"> </tspan><tspan class="st32" x="85.55127" y="0">i</tspan><tspan x="88.314941" y="0">s</tspan><tspan class="st23" x="92.214355" y="0"> </tspan><tspan class="st7" x="94.679199" y="0">s</tspan><tspan class="st31" x="98.589355" y="0">y</tspan><tspan class="st7" x="103.568848" y="0">n</tspan><tspan class="st32" x="108.589355" y="0">t</tspan><tspan class="st11" x="111.353027" y="0">hes</tspan><tspan class="st32" x="124.739746" y="0">i</tspan><tspan class="st11" x="127.503418" y="0">zed</tspan><tspan class="st19" x="141.437988" y="0"> </tspan><tspan class="st11" x="143.782715" y="0">fro</tspan><tspan class="st24" x="155.496582" y="0">m</tspan><tspan class="st23" x="163.180176" y="0"> </tspan><tspan class="st24" x="165.64502" y="0">m</tspan><tspan class="st32" x="173.328613" y="0">R</tspan><tspan class="st11" x="179.991699" y="0">N</tspan><tspan x="187.237793" y="0">A</tspan></text>
    <text class="st6" transform="translate(109.625107 40.485467)"><tspan class="st24" x="0" y="0">m</tspan><tspan class="st35" x="7.683594" y="0">R</tspan><tspan class="st11" x="14.34668" y="0">N</tspan><tspan class="st20" x="21.592773" y="0">A</tspan><tspan class="st8" x="28.317871" y="0" xml:space="preserve"> degrades</tspan><tspan class="st17" x="66.520996" y="0"> </tspan><tspan class="st11" x="68.806152" y="0">and</tspan><tspan class="st26" x="83.303223" y="0"> </tspan><tspan class="st32" x="85.708496" y="0">i</tspan><tspan x="88.472168" y="0">s</tspan><tspan class="st23" x="92.371582" y="0"> </tspan><tspan class="st11" x="94.836426" y="0">s</tspan><tspan class="st32" x="98.745605" y="0">ti</tspan><tspan class="st24" x="104.272949" y="0">m</tspan><tspan class="st7" x="111.956543" y="0">u</tspan><tspan class="st32" x="116.977051" y="0">l</tspan><tspan class="st11" x="119.740723" y="0">a</tspan><tspan class="st34" x="124.197754" y="0">t</tspan><tspan class="st11" x="126.962402" y="0">ed</tspan><tspan class="st23" x="136.438965" y="0"> </tspan><tspan class="st7" x="138.903809" y="0">b</tspan><tspan class="st31" x="143.924316" y="0">y</tspan><tspan class="st22" x="148.903809" y="0"> </tspan><tspan class="st11" x="151.369629" y="0">pro</tspan><tspan class="st32" x="164.756348" y="0">t</tspan><tspan class="st11" x="167.52002" y="0">e</tspan><tspan class="st32" x="171.977051" y="0">i</tspan><tspan class="st7" x="174.740723" y="0">n</tspan><tspan class="st19" x="179.76123" y="0"> </tspan><tspan class="st11" x="182.105957" y="0">d</tspan><tspan class="st32" x="187.125488" y="0">i</tspan><tspan class="st24" x="189.88916" y="0">m</tspan><tspan x="197.572754" y="0">er</tspan></text>
  </g>
  <g>
    <text class="st3" transform="translate(23.52501 137.625603)"><tspan class="st33" x="0" y="0">DN</tspan><tspan x="17.28418" y="0">A</tspan></text>
    <path class="st2" d="M33.845017,114.045617l1.679993-3.419983,1.740005,3.419983M36.125016,125.625634h-1.139999v-12.180023h1.139999v12.180023Z"/>
    <text class="st3" transform="translate(18.125107 109.005486)"><tspan class="st28" x="0" y="0">m</tspan><tspan class="st30" x="9.25" y="0">R</tspan><tspan class="st33" x="17.241699" y="0">N</tspan><tspan class="st16" x="25.883789" y="0">A</tspan><tspan class="st36" x="33.865723" y="0"> </tspan><tspan class="st10" x="36.974121" y="0">(</tspan><tspan x="40.981934" y="0">y)</tspan></text>
    <path class="st2" d="M33.845017,84.045617l1.679993-3.419983,1.740005,3.419983M36.125016,95.625634h-1.139999v-12.180023h1.139999v12.180023Z"/>
    <text class="st3" transform="translate(18.125107 76.005486)"><tspan x="0" y="0">pro</tspan><tspan class="st9" x="15.996094" y="0">tein</tspan><tspan class="st18" x="34.038086" y="0"> </tspan><tspan x="36.858398" y="0">(</tspan><tspan class="st10" x="40.854492" y="0">x</tspan><tspan x="46.866211" y="0">)</tspan></text>
    <rect class="st2" x="77.52501" y="71.085595" width="18" height="1.140015"/>
    <path class="st2" d="M5.88501,116.385613l-3.360001.240021,1.800003-2.820007M17.705002,107.865624l-12.899994,7.73999-.240005-.47998,12.840012-7.680023.299988.420013Z"/>
    <path class="st2" d="M5.88501,83.385613l-3.360001.240021,1.800003-2.820007M17.705002,74.865624l-12.899994,7.73999-.240005-.47998,12.840012-7.680023.299988.420013Z"/>
    <rect class="st2" x="94.985016" y="71.625634" width="1.139999" height="45"/>
    <path class="st2" d="M41.945008,118.365624l-3.419998-1.73999,3.419998-1.680023M95.52501,117.225609h-54.179993v-1.139984h54.179993v1.139984Z"/>
    <text class="st4" transform="translate(98.52501 94.485467)"><tspan class="st12" x="0" y="0">d</tspan><tspan class="st29" x="5.030273" y="0">i</tspan><tspan class="st27" x="7.803711" y="0">m</tspan><tspan x="15.497559" y="0">e</tspan><tspan class="st29" x="19.944824" y="0">r</tspan><tspan class="st14" x="23.271484" y="0">izati</tspan><tspan class="st13" x="40.518066" y="0">o</tspan><tspan class="st14" x="45.547852" y="0">n</tspan></text>
    <text class="st4" transform="translate(6.124619 77.086052)"><tspan x="0" y="0">a</tspan></text>
    <text class="st4" transform="translate(6.124619 110.085564)"><tspan x="0" y="0">b</tspan></text>
  </g>
</svg>