<?xml version="1.0" encoding="UTF-8"?>
<svg id="Layer_1" xmlns="http://www.w3.org/2000/svg" xmlns:xlink="http://www.w3.org/1999/xlink" width="338" height="185" version="1.1" viewBox="0 0 338 185">
  <!-- Generator: Adobe Illustrator 29.3.1, SVG Export Plug-In . SVG Version: 2.1.0 Build 151)  -->
  <defs>
    <style>
      .st0 {
        fill: none;
      }

      .st1 {
        fill: gray;
      }

      .st2 {
        fill: lime;
      }

      .st3 {
        clip-path: url(#clippath-1);
      }

      .st4, .st5 {
        fill: #f30;
      }

      .st5 {
        font-family: ArialMT, Arial;
        font-size: 9px;
      }

      .st6 {
        clip-path: url(#clippath);
      }
    </style>
    <clipPath id="clippath">
      <rect class="st0" x="102.600006" y="51.399994" width="6" height="3"/>
    </clipPath>
    <clipPath id="clippath-1">
      <rect class="st0" x="102.600006" y="54.400024" width="6" height="7.079987"/>
    </clipPath>
  </defs>
  <g>
    <rect x="44.820007" y="12.399994" width=".419998" height="42.029999"/>
    <path class="st2" d="M75.419998,55.899994c.87616,14.73796,25.633277,19.508914,37.139999,19.139999l-.360001.600006-.059998-.180008.059998-.23999c49.495807-1.310808,49.615944-37.371297.300003-38.399994h.059998c-11.515693-.354521-36.117672,4.343226-37.139999,19.079987M74.639999,55.899994c3.776311-23.477787,49.773661-23.43452,65.819338-13.380425,6.641906,3.464161,12.589317,10.855951,8.760473,18.42053-6.594905,11.692616-24.510111,14.746139-36.71981,14.879893l.360001-.599991.059998.179993c-.019687.102444-.11427.27962-.180008.360001-12.750244.132811-36.719804-4.16271-38.099991-19.860001Z"/>
    <path class="st4" d="M109.919998,54.699982c.083422.388432.210824.860245.419998,1.200012v-.059998l.360001.47998-.059998-.059998.479996.360016h-.059998c1.0318.710846,2.473683.481073,3.360001-.360016l-.059998.059998c.926951-.857369.997842-2.310625.360001-3.359985v.059998l-.360001-.480011.059998.060028-.479996-.360016h.059998c-.891613-.600125-2.030502-.525309-2.940002,0h.059998l-.479996.360016.059998-.060028-.360001.480011v-.059998c-.289854.397639-.414555.954342-.419998,1.440002M109.139999,54.459991c.069138-4.284022,6.279229-4.563082,6.720022-.419925.459544,4.730355-6.545886,5.018028-6.720022.419925Z"/>
    <path class="st4" d="M102.540009,43l-3.240005-.720001,2.520004-2.160004M113.880005,51.76001c-1.917908-.80267-4.140447-2.614011-6.300003-2.579987h.059998l-.360001.059998h.060013c-4.59292,2.63532-5.120596,7.196455-.779851,10.439788,10.861563,5.329549,21.408532-6.533382,9.599686-14.159975-5.282755-1.602079-15.40371-.82577-17.039683,5.820266-.82839,4.76258,2.422267,13.503093,8.099911,13.979688,6.349839,1.436209,16.634996.017756,21.359997-4.679634,2.982041-3.547022,2.095677-13.269085-.779838-16.620174-6.877621-5.767407-17.983656-4.632289-25.980226-1.979972l-.180008-.720001c5.40289-1.563738,10.72706-3.002296,16.380006-1.8597,3.661095.524324,8.662173,1.450476,10.860089,4.739564,3.256083,5.129031,3.883314,17.254557-3.420285,19.559812-5.781693,2.942573-17.112449,4.458259-22.619785.420356-4.306692-4.250987-7.29697-14.111154-.779871-17.939875,5.605857-3.227259,16.483195-3.797526,19.019633,3.599659,3.5733,6.375117-2.671325,11.906585-8.820029,11.820004-4.859595.621304-10.288307-3.054676-9.299998-8.219851,2.668249-6.613013,5.892563-5.587424,11.220249-2.339971l-.300003.660004Z"/>
    <path class="st1" d="M81.060013,40.959991l-3.300003-.779999,2.639999-2.160004M311.640015,214.540001c-11.665905-40.959647-23.580608-84.079448-50.039599-118.320185-27.072001-34.080378-70.513485-49.539747-111.059943-61.140628-19.004831-5.888887-38.66973-6.81309-57.960489-1.67844-10.524197,2.701481-20.723651,6.5717-30.359972,11.579245-10.160173,5.4602.805876,16.383595,5.940165,21.299781,16.966014,19.64234,37.792383,16.487664,60.600142,11.51931,6.444397-1.981125,29.418449-5.207817,29.100206-14.938391-.720332-9.42492-14.694117-24.851777-23.400158-28.200997-7.2294-2.471271-15.503827-1.188558-22.920353-.599743-10.668321.444175-20.972623,3.335129-31.259998,5.940048l-.119995-.720001c9.531799-2.441608,19.481736-5.314996,29.340009-5.819876,7.783988-.616147,16.639959-2.004179,24.299982.179879,9.194298,2.793146,23.733638,19.118232,24.780321,28.679778,1.268282,9.557724-17.150319,12.579226-23.100198,14.700502-18.407046,3.738089-39.907724,10.442554-56.880067-.89983-8.212109-6.080098-17.630737-13.651554-21.240955-23.519758-.644206-3.097833.883634-6.0473,3.541058-7.680608,9.712523-5.380845,20.772544-9.474273,31.499808-12.240188,16.869436-4.305821,34.783743-4.854919,51.600006.000442,41.910132,11.070734,86.460607,26.301861,115.680594,59.938702,28.316585,34.682911,40.611109,79.405682,52.679438,121.680962l-.720001.239998Z"/>
  </g>
  <path d="M54.120026,23.139984l-3.120026,1.26001.840027-3.23999M324.420013,12.519989c-82.637372,40.236949-81.986664,21.224697-164.340299,5.998164-17.96484-3.647992-35.972144-7.69127-54.119712-10.318154-19.148194-3.057546-40.502092-2.400639-53.039989,14.58l-.540009-.480011c12.123658-16.328596,32.287668-18.03174,51.000354-15.179199,17.079705,2.305393,33.959061,5.906421,50.819657,9.419172,4.216269.933247,10.496964,2.09733,14.700017,2.999969,28.853915,3.705211,59.460301,18.742196,88.439921,16.320571,23.784764-2.917549,44.968248-15.084533,66.780072-24.060513l.299988.720001Z"/>
  <path d="M8.699997,87.279999l-3.240005-.959991,2.700012-2.040009M39.419998,10.839996c-1.419243,17.27067-1.740421,35.244118-4.679961,52.320011-2.599267,18.08183-8.963929,21.540556-26.760042,23.099987l-.119995-.779999c16.718633-1.500913,23.382742-4.120937,25.979574-21.480427,3.067129-17.325585,3.41181-35.644686,4.800425-53.21957l.779999.059998Z"/>
  <g class="st6">
    <text class="st5" transform="translate(102.600098 59.5)"><tspan x="0" y="0">B</tspan></text>
  </g>
  <rect x="15" y="93.220001" width="315" height=".419998"/>
  <g>
    <rect x="44.820007" y="54.369995" width=".419998" height="66.029999"/>
    <path class="st2" d="M75.419998,55.899994c.87616,14.73796,25.633277,19.508914,37.139999,19.139999l-.360001.600006-.059998-.180008.059998-.23999c49.495807-1.310808,49.615944-37.371297.300003-38.399994h.059998c-11.515693-.354521-36.117672,4.343226-37.139999,19.079987M74.639999,55.899994c3.776311-23.477787,49.773661-23.43452,65.819338-13.380425,6.641906,3.464161,12.589317,10.855951,8.760473,18.42053-6.594905,11.692616-24.510111,14.746139-36.71981,14.879893l.360001-.599991.059998.179993c-.019687.102444-.11427.27962-.180008.360001-12.750244.132811-36.719804-4.16271-38.099991-19.860001Z"/>
  </g>
  <g>
    <polyline class="st2" points="120 73.899994 123 75.399994 120 76.899994"/>
    <polyline points="54 91.899994 57 93.399994 54 94.899994"/>
    <polyline points="33 94.899994 30 93.399994 33 91.899994"/>
    <polyline points="43.5 104.320007 45 101.320007 46.5 104.320007"/>
    <polyline points="46.5 83.320007 45 86.320007 43.5 83.320007"/>
    <path class="st4" d="M42.059998,94.060013c-.038711.551985.422103,1.234182.779999,1.619995l-.059998-.059998c1.004807,1.087348,2.750156,1.034239,3.779999,0l-.059998.059998c.827653-.870074,1.107825-2.359603.300003-3.360001l.059998.059998-.360001-.479996.059998.059998-.479996-.360001.059998.059998c-.894694-.652916-2.043732-.657476-2.940002,0v-.059998l-.419998.360001.059998-.059998-.360001.479996v-.059998c-.276772.432638-.412185.940071-.479996,1.440002M41.279999,93.820007c.019709-4.416818,6.659587-4.477824,6.720007-.059864-.00046,4.51244-6.61908,4.474001-6.720007.059864Z"/>
    <path class="st4" d="M258.420013,94.060013c.091012.546455.357165,1.24311.779999,1.619995l-.059998-.059998.480011.360001h-.059998c1.033377.733979,2.470629.514512,3.359985-.360001l-.059998.059998c.929551-.857719.995356-2.308789.359985-3.360001v.059998l-.359985-.479996.059998.059998-.480011-.360001.059998.059998c-.898548-.676324-1.994781-.653814-2.939972,0l.059998-.059998-.480011.360001.059998-.059998-.359985.479996v-.059998c-.257979.420698-.422254.942382-.420013,1.440002M257.640015,93.820007c-.026849-.618708.238785-1.363405.600006-1.860001v-.059998l.359985-.479996h.059998c1.842302-1.926587,5.120008-.851771,5.699932,1.680067.540957,2.907307-2.701707,5.185117-5.219921,3.539934v-.060013c-.978558-.612887-1.431337-1.638394-1.5-2.759995Z"/>
    <polyline points="273.779999 94.539993 270.779999 93.039993 273.779999 91.539993"/>
    <polyline points="246 91.539993 249 93.039993 246 94.539993"/>
    <path class="st1" d="M270.059998,103.419998l-.119995,3.360001-2.639984-2.100006M269.040009,103.899994l.179993.479996-.660004.300003-.179993-.479996.660004-.300003Z"/>
    <path class="st1" d="M248.040009,82l-1.26001-3.119995,3.240021.899994M248.76001,81.160004l-.359985-.300003.47998-.599991.420013.360001-.540009.539993Z"/>
  </g>
  <g>
    <path class="st4" d="M109.919998,54.699982c.083422.388432.210824.860245.419998,1.200012v-.059998l.360001.47998-.059998-.059998.479996.360016h-.059998c1.0318.710846,2.473683.481073,3.360001-.360016l-.059998.059998c.926951-.857369.997842-2.310625.360001-3.359985v.059998l-.360001-.480011.059998.060028-.479996-.360016h.059998c-.891613-.600125-2.030502-.525309-2.940002,0h.059998l-.479996.360016.059998-.060028-.360001.480011v-.059998c-.289854.397639-.414555.954342-.419998,1.440002M109.139999,54.459991c.069138-4.284022,6.279229-4.563082,6.720022-.419925.459544,4.730355-6.545886,5.018028-6.720022.419925Z"/>
    <path class="st4" d="M102.540009,43l-3.240005-.720001,2.520004-2.160004M113.880005,51.76001c-1.917908-.80267-4.140447-2.614011-6.300003-2.579987h.059998l-.360001.059998h.060013c-4.59292,2.63532-5.120596,7.196455-.779851,10.439788,10.861563,5.329549,21.408532-6.533382,9.599686-14.159975-5.282755-1.602079-15.40371-.82577-17.039683,5.820266-.82839,4.76258,2.422267,13.503093,8.099911,13.979688,6.349839,1.436209,16.634996.017756,21.359997-4.679634,2.982041-3.547022,2.095677-13.269085-.779838-16.620174-6.877621-5.767407-17.983656-4.632289-25.980226-1.979972l-.180008-.720001c5.40289-1.563738,10.72706-3.002296,16.380006-1.8597,3.661095.524324,8.662173,1.450476,10.860089,4.739564,3.256083,5.129031,3.883314,17.254557-3.420285,19.559812-5.781693,2.942573-17.112449,4.458259-22.619785.420356-4.306692-4.250987-7.29697-14.111154-.779871-17.939875,5.605857-3.227259,16.483195-3.797526,19.019633,3.599659,3.5733,6.375117-2.671325,11.906585-8.820029,11.820004-4.859595.621304-10.288307-3.054676-9.299998-8.219851,2.668249-6.613013,5.892563-5.587424,11.220249-2.339971l-.300003.660004Z"/>
    <path class="st1" d="M81.060013,40.959991l-3.300003-.779999,2.639999-2.160004M311.640015,214.540001c-11.665905-40.959647-23.580608-84.079448-50.039599-118.320185-27.072001-34.080378-70.513485-49.539747-111.059943-61.140628-19.004831-5.888887-38.66973-6.81309-57.960489-1.67844-10.524197,2.701481-20.723651,6.5717-30.359972,11.579245-10.160173,5.4602.805876,16.383595,5.940165,21.299781,16.966014,19.64234,37.792383,16.487664,60.600142,11.51931,6.444397-1.981125,29.418449-5.207817,29.100206-14.938391-.720332-9.42492-14.694117-24.851777-23.400158-28.200997-7.2294-2.471271-15.503827-1.188558-22.920353-.599743-10.668321.444175-20.972623,3.335129-31.259998,5.940048l-.119995-.720001c9.531799-2.441608,19.481736-5.314996,29.340009-5.819876,7.783988-.616147,16.639959-2.004179,24.299982.179879,9.194298,2.793146,23.733638,19.118232,24.780321,28.679778,1.268282,9.557724-17.150319,12.579226-23.100198,14.700502-18.407046,3.738089-39.907724,10.442554-56.880067-.89983-8.212109-6.080098-17.630737-13.651554-21.240955-23.519758-.644206-3.097833.883634-6.0473,3.541058-7.680608,9.712523-5.380845,20.772544-9.474273,31.499808-12.240188,16.869436-4.305821,34.783743-4.854919,51.600006.000442,41.910132,11.070734,86.460607,26.301861,115.680594,59.938702,28.316585,34.682911,40.611109,79.405682,52.679438,121.680962l-.720001.239998Z"/>
    <path d="M8.699997,87.279999l-3.240005-.959991,2.700012-2.040009M39.419998,10.839996c-1.419243,17.27067-1.740421,35.244118-4.679961,52.320011-2.599267,18.08183-8.963929,21.540556-26.760042,23.099987l-.119995-.779999c16.718633-1.500913,23.382742-4.120937,25.979574-21.480427,3.067129-17.325585,3.41181-35.644686,4.800425-53.21957l.779999.059998Z"/>
  </g>
  <path d="M8.880005,98.200012l-2.880005-1.800003,3.179993-1.199997M41.639999,123.460007c-.51178-6.794725.571498-16.929442-6.23958-20.940193-8.315939-3.640281-17.983594-4.60747-26.940428-5.4598l.12001-.780014c9.137226,1.040451,18.699298,1.808965,27.180064,5.579793,7.194704,4.14262,6.022532,14.437489,6.659933,21.540217l-.779999.059998Z"/>
  <g>
    <path d="M279.720001,174.159988l-.720001,3.240005-2.160004-2.460007M49.080002,124.179993c2.491633-5.342009,1.782968-10.103087,6.480347-14.639846,7.297171-7.074288,19.844751-6.989032,29.219572-8.400429,22.642118-2.258494,45.390949-2.863407,68.040086-4.379723l.119995.119995h.059998l.059998.059998v.060013l-.059998-.060013.059998.060013v-.060013c22.974523,2.94796,48.417005-1.936526,70.67998,5.700249,30.821991,11.324316,48.802568,41.28888,55.020033,72.299751l-.720001.180008c-6.39655-31.013833-23.638661-60.275914-54.540767-71.759723-22.165141-7.620061-47.864385-2.724232-70.799229-5.700284v-.059998l-.059998-.059998h-.059998l-.120026-.119995.060028.059998h-.060028.120026-.059998.059998c-24.23103,1.812579-48.710535,2.12768-72.900013,4.979947-7.844505,1.289023-16.509709,1.554302-22.860043,6.899898-5.00071,4.070491-4.683673,9.944807-7.079956,15.24015l-.660004-.419998Z"/>
    <path d="M310.26001,169.660004l-.660004,3.240005-2.279999-2.460007M333,98.320007c-12.455958-2.492801-18.70584,1.868879-23.099564,13.260736-8.178484,18.534923-5.511641,39.77944-.600448,58.859259l-.720001.180008c-4.754744-18.738291-7.569564-39.306885-.060505-57.659923,4.725145-12.440242,10.532323-18.151585,24.540516-15.420079l-.059998.779999Z"/>
  </g>
  <text class="st5" transform="translate(48.600098 85.959961)"><tspan x="0" y="0">A</tspan></text>
  <g class="st3">
    <text class="st5" transform="translate(102.600098 59.5)"><tspan x="0" y="0">B</tspan></text>
  </g>
  <g>
    <text class="st5" transform="translate(264.599609 85.959961)"><tspan x="0" y="0">C</tspan></text>
    <text class="st5" transform="translate(96.597168 76.959961)"><tspan x="0" y="0">D</tspan></text>
  </g>
  <g>
    <path class="st1" d="M81.060013,40.959991l-3.300003-.779999,2.639999-2.160004M311.640015,214.540001c-11.665905-40.959647-23.580608-84.079448-50.039599-118.320185-27.072001-34.080378-70.513485-49.539747-111.059943-61.140628-19.004831-5.888887-38.66973-6.81309-57.960489-1.67844-10.524197,2.701481-20.723651,6.5717-30.359972,11.579245-10.160173,5.4602.805876,16.383595,5.940165,21.299781,16.966014,19.64234,37.792383,16.487664,60.600142,11.51931,6.444397-1.981125,29.418449-5.207817,29.100206-14.938391-.720332-9.42492-14.694117-24.851777-23.400158-28.200997-7.2294-2.471271-15.503827-1.188558-22.920353-.599743-10.668321.444175-20.972623,3.335129-31.259998,5.940048l-.119995-.720001c9.531799-2.441608,19.481736-5.314996,29.340009-5.819876,7.783988-.616147,16.639959-2.004179,24.299982.179879,9.194298,2.793146,23.733638,19.118232,24.780321,28.679778,1.268282,9.557724-17.150319,12.579226-23.100198,14.700502-18.407046,3.738089-39.907724,10.442554-56.880067-.89983-8.212109-6.080098-17.630737-13.651554-21.240955-23.519758-.644206-3.097833.883634-6.0473,3.541058-7.680608,9.712523-5.380845,20.772544-9.474273,31.499808-12.240188,16.869436-4.305821,34.783743-4.854919,51.600006.000442,41.910132,11.070734,86.460607,26.301861,115.680594,59.938702,28.316585,34.682911,40.611109,79.405682,52.679438,121.680962l-.720001.239998Z"/>
    <path d="M279.720001,174.159988l-.720001,3.240005-2.160004-2.460007M49.080002,124.179993c2.491633-5.342009,1.782968-10.103087,6.480347-14.639846,7.297171-7.074288,19.844751-6.989032,29.219572-8.400429,22.642118-2.258494,45.390949-2.863407,68.040086-4.379723l.119995.119995h.059998l.059998.059998v.060013l-.059998-.060013.059998.060013v-.060013c22.974523,2.94796,48.417005-1.936526,70.67998,5.700249,30.821991,11.324316,48.802568,41.28888,55.020033,72.299751l-.720001.180008c-6.39655-31.013833-23.638661-60.275914-54.540767-71.759723-22.165141-7.620061-47.864385-2.724232-70.799229-5.700284v-.059998l-.059998-.059998h-.059998l-.120026-.119995.060028.059998h-.060028.120026-.059998.059998c-24.23103,1.812579-48.710535,2.12768-72.900013,4.979947-7.844505,1.289023-16.509709,1.554302-22.860043,6.899898-5.00071,4.070491-4.683673,9.944807-7.079956,15.24015l-.660004-.419998Z"/>
    <path d="M310.26001,169.660004l-.660004,3.240005-2.279999-2.460007M333,98.320007c-12.455958-2.492801-18.70584,1.868879-23.099564,13.260736-8.178484,18.534923-5.511641,39.77944-.600448,58.859259l-.720001.180008c-4.754744-18.738291-7.569564-39.306885-.060505-57.659923,4.725145-12.440242,10.532323-18.151585,24.540516-15.420079l-.059998.779999Z"/>
  </g>
</svg>