<?xml version="1.0" encoding="UTF-8"?>
<svg id="Layer_1" xmlns="http://www.w3.org/2000/svg" xmlns:xlink="http://www.w3.org/1999/xlink" version="1.1" viewBox="0 0 290 220">
  <!-- Generator: Adobe Illustrator 29.3.1, SVG Export Plug-In . SVG Version: 2.1.0 Build 151)  -->
  <defs>
    <style>
      .st0 {
        fill: none;
      }

      .st1, .st2, .st3 {
        fill: #33c;
      }

      .st4, .st5, .st6, .st7 {
        font-family: TimesNewRomanPSMT, 'Times New Roman';
      }

      .st4, .st8 {
        font-size: 6.3077px;
      }

      .st5, .st9 {
        font-size: 8.4px;
      }

      .st6 {
        font-size: 4.8998px;
      }

      .st2, .st3 {
        font-family: ArialNarrow, 'Arial Narrow';
      }

      .st2, .st10 {
        font-size: 9px;
      }

      .st3 {
        font-size: 7.98px;
      }

      .st8, .st10, .st9, .st11 {
        font-family: TimesNewRomanPS-ItalicMT, 'Times New Roman';
        font-style: italic;
      }

      .st12 {
        clip-path: url(#clippath-17);
      }

      .st13 {
        clip-path: url(#clippath-19);
      }

      .st14 {
        clip-path: url(#clippath-11);
      }

      .st15 {
        clip-path: url(#clippath-16);
      }

      .st16 {
        clip-path: url(#clippath-18);
      }

      .st17 {
        clip-path: url(#clippath-10);
      }

      .st18 {
        clip-path: url(#clippath-15);
      }

      .st19 {
        clip-path: url(#clippath-13);
      }

      .st20 {
        clip-path: url(#clippath-14);
      }

      .st21 {
        clip-path: url(#clippath-12);
      }

      .st22 {
        clip-path: url(#clippath-31);
      }

      .st23 {
        clip-path: url(#clippath-32);
      }

      .st24 {
        clip-path: url(#clippath-33);
      }

      .st25 {
        clip-path: url(#clippath-34);
      }

      .st26 {
        clip-path: url(#clippath-35);
      }

      .st27 {
        clip-path: url(#clippath-30);
      }

      .st28 {
        clip-path: url(#clippath-36);
      }

      .st29 {
        clip-path: url(#clippath-37);
      }

      .st30 {
        clip-path: url(#clippath-38);
      }

      .st31 {
        clip-path: url(#clippath-27);
      }

      .st32 {
        clip-path: url(#clippath-29);
      }

      .st33 {
        clip-path: url(#clippath-26);
      }

      .st34 {
        clip-path: url(#clippath-28);
      }

      .st35 {
        clip-path: url(#clippath-20);
      }

      .st36 {
        clip-path: url(#clippath-21);
      }

      .st37 {
        clip-path: url(#clippath-22);
      }

      .st38 {
        clip-path: url(#clippath-23);
      }

      .st39 {
        clip-path: url(#clippath-24);
      }

      .st40 {
        clip-path: url(#clippath-25);
      }

      .st41 {
        letter-spacing: -.000109em;
      }

      .st42 {
        clip-path: url(#clippath-1);
      }

      .st43 {
        clip-path: url(#clippath-3);
      }

      .st44 {
        clip-path: url(#clippath-4);
      }

      .st45 {
        clip-path: url(#clippath-2);
      }

      .st46 {
        clip-path: url(#clippath-7);
      }

      .st47 {
        clip-path: url(#clippath-6);
      }

      .st48 {
        clip-path: url(#clippath-9);
      }

      .st49 {
        clip-path: url(#clippath-8);
      }

      .st50 {
        clip-path: url(#clippath-5);
      }

      .st51 {
        letter-spacing: -.000061em;
      }

      .st7, .st11 {
        font-size: 10.8134px;
      }

      .st52 {
        letter-spacing: .00104em;
      }

      .st53 {
        letter-spacing: .000979em;
      }

      .st54 {
        letter-spacing: .002062em;
      }

      .st55 {
        letter-spacing: .001958em;
      }

      .st56 {
        letter-spacing: .001953em;
      }

      .st57 {
        letter-spacing: .002007em;
      }

      .st58 {
        letter-spacing: .002019em;
      }

      .st59 {
        fill: #f30;
      }

      .st60 {
        letter-spacing: -.024047em;
      }

      .st61 {
        letter-spacing: -.01701em;
      }

      .st62 {
        letter-spacing: -.009056em;
      }

      .st63 {
        letter-spacing: -.008995em;
      }

      .st64 {
        letter-spacing: -.001085em;
      }

      .st65 {
        letter-spacing: -.001031em;
      }

      .st66 {
        letter-spacing: -.000977em;
      }

      .st67 {
        letter-spacing: -.002062em;
      }

      .st68 {
        letter-spacing: -.001953em;
      }

      .st69 {
        letter-spacing: -.002007em;
      }

      .st70 {
        letter-spacing: -.002019em;
      }

      .st71 {
        letter-spacing: .024957em;
      }

      .st72 {
        letter-spacing: .018012em;
      }

      .st73 {
        clip-path: url(#clippath);
      }

      .st74 {
        letter-spacing: .018989em;
      }

      .st75 {
        letter-spacing: .004991em;
      }

      .st76 {
        letter-spacing: .004015em;
      }
    </style>
    <clipPath id="clippath">
      <rect class="st0" x="213.779999" y="36.059998" width="5.399994" height="6.419983"/>
    </clipPath>
    <clipPath id="clippath-1">
      <rect class="st0" x="86.580002" y="34.97998" width="3.600006" height="7.5"/>
    </clipPath>
    <clipPath id="clippath-2">
      <rect class="st0" x="81.479996" y="34.97998" width="5.399994" height="7.5"/>
    </clipPath>
    <clipPath id="clippath-3">
      <rect class="st0" x="67.440002" y="34.97998" width="5.399994" height="7.5"/>
    </clipPath>
    <clipPath id="clippath-4">
      <rect class="st0" x="63.600006" y="34.97998" width="3.600006" height="7.5"/>
    </clipPath>
    <clipPath id="clippath-5">
      <rect class="st0" x="38.460007" y="34.97998" width="3.600006" height="7.5"/>
    </clipPath>
    <clipPath id="clippath-6">
      <rect class="st0" x="18.839996" y="34.97998" width="3.600006" height="7.5"/>
    </clipPath>
    <clipPath id="clippath-7">
      <rect class="st0" x="185.76001" y="37.679993" width="3.179993" height="4.799988"/>
    </clipPath>
    <clipPath id="clippath-8">
      <rect class="st0" x="220.019989" y="30.539978" width="4.140015" height="11.940002"/>
    </clipPath>
    <clipPath id="clippath-9">
      <rect class="st0" x="219.839996" y="37.440002" width="4.320007" height="5.039978"/>
    </clipPath>
    <clipPath id="clippath-10">
      <rect class="st0" x="200.640015" y="37.440002" width="4.679993" height="5.039978"/>
    </clipPath>
    <clipPath id="clippath-11">
      <rect class="st0" x="192.480011" y="29.699951" width="5.940002" height="12.780029"/>
    </clipPath>
    <clipPath id="clippath-12">
      <rect class="st0" x="90.419998" y="29.820007" width="5.340012" height="12.659973"/>
    </clipPath>
    <clipPath id="clippath-13">
      <rect class="st0" x="90.419998" y="36.719971" width="5.340012" height="5.76001"/>
    </clipPath>
    <clipPath id="clippath-14">
      <rect class="st0" x="55.320007" y="33.779968" width="5.940002" height="8.700012"/>
    </clipPath>
    <clipPath id="clippath-15">
      <rect class="st0" x="32.339996" y="34.97998" width="5.699997" height="7.5"/>
    </clipPath>
    <clipPath id="clippath-16">
      <rect class="st0" x="22.979996" y="34.97998" width="5.100006" height="7.5"/>
    </clipPath>
    <clipPath id="clippath-17">
      <rect class="st0" x="213.779999" y="42.47998" width="5.399994" height="5.640015"/>
    </clipPath>
    <clipPath id="clippath-18">
      <rect class="st0" x="86.580002" y="42.47998" width="3.600006" height="4.559998"/>
    </clipPath>
    <clipPath id="clippath-19">
      <rect class="st0" x="81.479996" y="42.47998" width="5.399994" height="4.559998"/>
    </clipPath>
    <clipPath id="clippath-20">
      <rect class="st0" x="67.440002" y="42.47998" width="5.399994" height="4.559998"/>
    </clipPath>
    <clipPath id="clippath-21">
      <rect class="st0" x="63.600006" y="42.47998" width="3.600006" height="4.559998"/>
    </clipPath>
    <clipPath id="clippath-22">
      <rect class="st0" x="38.460007" y="42.47998" width="3.600006" height="4.559998"/>
    </clipPath>
    <clipPath id="clippath-23">
      <rect class="st0" x="18.839996" y="42.47998" width="3.600006" height="4.559998"/>
    </clipPath>
    <clipPath id="clippath-24">
      <rect class="st0" x="185.76001" y="42.47998" width="3.179993" height="2.280029"/>
    </clipPath>
    <clipPath id="clippath-25">
      <rect class="st0" x="219.839996" y="42.480042" width="4.320007" height="8.219971"/>
    </clipPath>
    <clipPath id="clippath-26">
      <rect class="st0" x="200.640015" y="42.480042" width="4.679993" height="8.219971"/>
    </clipPath>
    <clipPath id="clippath-27">
      <rect class="st0" x="206.040009" y="42.47998" width="5.940002" height="5.640015"/>
    </clipPath>
    <clipPath id="clippath-28">
      <rect class="st0" x="90.419998" y="42.47998" width="5.340012" height="7.5"/>
    </clipPath>
    <clipPath id="clippath-29">
      <rect class="st0" x="55.320007" y="42.47998" width="5.940002" height="4.559998"/>
    </clipPath>
    <clipPath id="clippath-30">
      <rect class="st0" x="32.339996" y="42.47998" width="5.699997" height="4.559998"/>
    </clipPath>
    <clipPath id="clippath-31">
      <rect class="st0" x="22.979996" y="42.47998" width="5.100006" height="4.559998"/>
    </clipPath>
    <clipPath id="clippath-32">
      <rect class="st0" x="42.419998" y="42.480042" width="1.860001" height="6.359985"/>
    </clipPath>
    <clipPath id="clippath-33">
      <rect class="st0" x="207.480011" y="124.679993" width="3.420013" height="7.799988"/>
    </clipPath>
    <clipPath id="clippath-34">
      <rect class="st0" x="200.279999" y="124.679993" width="3.720001" height="7.799988"/>
    </clipPath>
    <clipPath id="clippath-35">
      <rect class="st0" x="33.600006" y="124.440002" width="41.820007" height="8.039978"/>
    </clipPath>
    <clipPath id="clippath-36">
      <rect class="st0" x="207.480011" y="132.47998" width="3.420013" height="2.460022"/>
    </clipPath>
    <clipPath id="clippath-37">
      <rect class="st0" x="200.279999" y="132.47998" width="3.720001" height="2.460022"/>
    </clipPath>
    <clipPath id="clippath-38">
      <rect class="st0" x="33.600006" y="132.47998" width="41.820007" height="2.340027"/>
    </clipPath>
  </defs>
  <g class="st73">
    <text class="st7" transform="translate(213.780273 45.719727)"><tspan x="0" y="0">4</tspan></text>
  </g>
  <g>
    <text class="st7" transform="translate(209.759766 35.759766)"><tspan x="0" y="0">1</tspan></text>
    <text class="st7" transform="translate(209.160156 21.42041)"><tspan x="0" y="0">1</tspan></text>
    <text class="st7" transform="translate(209.160156 11.459961)"><tspan x="0" y="0">1</tspan></text>
    <text class="st7" transform="translate(159.719727 34.860352)"><tspan x="0" y="0">3</tspan></text>
    <text class="st7" transform="translate(156 22.200195)"><tspan x="0" y="0">2</tspan></text>
    <text class="st7" transform="translate(120.659668 38.580078)"><tspan x="0" y="0">6</tspan></text>
    <text class="st7" transform="translate(120.240234 18.299805)"><tspan x="0" y="0">1</tspan></text>
  </g>
  <g class="st42">
    <text class="st7" transform="translate(86.580078 44.640137)"><tspan x="0" y="0">)</tspan></text>
  </g>
  <g class="st45">
    <text class="st7" transform="translate(81.47998 44.640137)"><tspan x="0" y="0">3</tspan></text>
  </g>
  <g class="st43">
    <text class="st7" transform="translate(67.439941 44.640137)"><tspan x="0" y="0">2</tspan></text>
  </g>
  <g class="st44">
    <text class="st7" transform="translate(63.600098 44.640137)"><tspan x="0" y="0">(</tspan></text>
  </g>
  <g class="st50">
    <text class="st7" transform="translate(38.459961 44.640137)"><tspan x="0" y="0">)</tspan></text>
  </g>
  <g class="st47">
    <text class="st7" transform="translate(18.839844 44.640137)"><tspan x="0" y="0">(</tspan></text>
  </g>
  <g>
    <text class="st7" transform="translate(56.700195 28.439941)"><tspan x="0" y="0">2</tspan></text>
    <text class="st7" transform="translate(36.120117 28.439941)"><tspan x="0" y="0">4</tspan></text>
  </g>
  <g class="st46">
    <text class="st4" transform="translate(185.759766 43.259766)"><tspan x="0" y="0">2</tspan></text>
  </g>
  <g>
    <text class="st4" transform="translate(190.55957 19.02002)"><tspan x="0" y="0">1</tspan></text>
    <text class="st4" transform="translate(138.600098 37.560059)"><tspan x="0" y="0">2</tspan></text>
    <text class="st4" transform="translate(141.299805 24.899902)"><tspan x="0" y="0">1</tspan></text>
  </g>
  <g class="st49">
    <rect x="223.214386" y="31.383911" width=".512146" height="10.892578"/>
  </g>
  <g class="st48">
    <path d="M223.731812,38.283875v2.782532c0,1.084229-.131989,2.147217-.395996,3.189087-.225311.901184-.542999,1.691467-.953033,2.370728-.410095.679382-.891479,1.251343-1.444061,1.716003-.397827.34137-.855377.619507-1.372803.834229l-.12146-.105591c.992645-.682922,1.781097-1.483643,2.365448-2.402405.46463-.735657.81485-1.617371,1.05072-2.645264.235779-1.027771.35376-1.978149.35376-2.851196v-2.888123h.517426Z"/>
  </g>
  <g>
    <path d="M223.731812,37.416443h-.517426v-2.882874c0-1.112244-.147858-2.194641-.443512-3.247192-.295685-1.052429-.739227-1.97644-1.330566-2.771973-.510437-.68988-1.17572-1.316467-1.99585-1.8797l.12146-.11084c.848267.355591,1.602478.939819,2.262451,1.75293.660004.81311,1.142212,1.797852,1.446716,2.954163.304443,1.156311.456726,2.292419.456726,3.408203v2.777283Z"/>
    <rect x="201.07843" y="31.383362" width=".512177" height="10.892578"/>
  </g>
  <g class="st17">
    <path d="M201.078247,38.283875h.512177v2.888123c0,1.112366.148651,2.194763.446136,3.247192.297424,1.052551.741852,1.976562,1.333191,2.771973.510345.686401,1.175629,1.312927,1.99585,1.8797l-.121429.105591c-.848358-.355591-1.602478-.938904-2.262482-1.750305-.660004-.811279-1.142303-1.796021-1.446716-2.954163-.304504-1.15802-.456726-2.293213-.456726-3.405579v-2.782532Z"/>
  </g>
  <path d="M201.078247,37.416443v-2.777283c0-1.084106.132019-2.148926.395996-3.194336.22522-.897644.542938-1.686096.953033-2.365479.410034-.67926.889679-1.251343,1.438812-1.716003.401276-.34137.860626-.621216,1.378082-.839478l.121429.11084c-.992645.682983-1.781158,1.483704-2.365448,2.402405-.46463.735779-.815735,1.617493-1.053345,2.645264-.23761,1.027893-.356384,1.978271-.356384,2.851196v2.882874h-.512177Z"/>
  <g class="st14">
    <path d="M192.675385,36.55249h5.543976v.512146h-5.543976v-.512146ZM192.675385,38.521912h5.543976v.522705h-5.543976v-.522705Z"/>
  </g>
  <g>
    <rect x="217.754395" y="7.083862" width=".512146" height="10.892578"/>
    <path d="M218.27182,14.044495v2.782532c0,1.084229-.131989,2.147217-.395996,3.189087-.225311.901184-.542999,1.691467-.953033,2.370728-.410095.679382-.891479,1.251343-1.444061,1.716003-.397827.34137-.855377.619507-1.372803.834229l-.12146-.105591c.992645-.682922,1.781097-1.483643,2.365448-2.402405.46463-.735657.81485-1.617371,1.05072-2.645264.235779-1.027771.35376-1.978149.35376-2.851196v-2.888123h.517426Z"/>
    <path d="M218.27182,13.116943h-.517426v-2.882874c0-1.112244-.147858-2.194641-.443512-3.247192-.295685-1.052429-.739227-1.97644-1.330566-2.771973-.510437-.68988-1.17572-1.316467-1.99585-1.8797l.12146-.11084c.848267.355591,1.602478.939819,2.262451,1.75293.660004.81311,1.142212,1.797852,1.446716,2.954163.304443,1.156311.456726,2.292419.456726,3.408203v2.777283Z"/>
    <rect x="205.338623" y="7.083862" width=".512177" height="10.892578"/>
    <path d="M205.338623,14.044495h.512177v2.888123c0,1.112366.148651,2.194763.446136,3.247192.297424,1.052551.741852,1.976562,1.333191,2.771973.510345.686401,1.175629,1.312927,1.99585,1.8797l-.121429.105591c-.848358-.355591-1.602478-.938904-2.262482-1.750305-.660004-.811279-1.142303-1.796021-1.446716-2.954163-.304504-1.15802-.456726-2.293213-.456726-3.405579v-2.782532Z"/>
    <path d="M205.338623,13.116943v-2.777283c0-1.084106.132019-2.148926.395996-3.194336.22522-.897644.542938-1.686096.953033-2.365479.410034-.67926.889679-1.251343,1.438812-1.716003.401276-.34137.860626-.621216,1.378082-.839478l.121429.11084c-.992645.682983-1.781158,1.483704-2.365448,2.402405-.46463.735779-.815735,1.617493-1.053345,2.645264-.23761,1.027893-.356384,1.978271-.356384,2.851196v2.882874h-.512177Z"/>
    <path d="M196.995483,12.312866h5.543976v.512146h-5.543976v-.512146ZM196.995483,14.282288h5.543976v.522705h-5.543976v-.522705Z"/>
    <path d="M132.244476,38.25946v.24292c-.894135-.11615-1.548859-.412781-1.964142-.889709-.415405-.476929-.623047-1.195923-.623047-2.15686v-7.851318h.512146v7.307495c0,.524536.027252.974121.081848,1.348999.054535.374878.163696.689087.327362.942505.163696.253418.385437.470764.665283.6521.279846.181213.613312.315857,1.000549.40387Z"/>
    <path d="M130.174713,31.17749h-.512146v-2.228149c0-.943298-.158386-1.631531-.475189-2.064453-.316803-.432983-.850098-.751526-1.599854-.955688v-.401306c.749756-.207642,1.283051-.527954,1.599854-.960938.316803-.432922.475189-1.121094.475189-2.064453v-2.21759h.512146v2.317871c0,.510437-.052795.955688-.158386,1.335876-.105591.380127-.250793.679382-.435608.897583-.184784.218323-.40918.395203-.673187.53064-.264008.135559-.624847.256104-1.082397.361694.46109.098572.833344.221741,1.11673.369568.283295.147827.51651.341492.699585.580811.182983.239441.317627.533264.403931.881775.086212.34845.129333.774414.129333,1.277771v2.338989Z"/>
    <path d="M132.244476,13.20813c-.524536.123291-.945099.323914-1.261902.601929-.316803.278076-.531555.597534-.644165.958313-.112701.36084-.168976.956604-.168976,1.787292v7.307495h-.512146v-7.851379c0-.957397.207642-1.675476.623047-2.154175.415283-.478699,1.070007-.776184,1.964142-.892334v.242859Z"/>
    <rect x="153.975372" y="31.819763" width="5.543976" height=".522705"/>
    <path d="M145.514984,30.853516h5.543976v.512146h-5.543976v-.512146ZM145.514984,32.822937h5.543976v.522705h-5.543976v-.522705Z"/>
    <path d="M147.734985,18.193176h5.543976v.512146h-5.543976v-.512146ZM147.734985,20.162598h5.543976v.522705h-5.543976v-.522705Z"/>
    <rect x="114.974762" y="35.539551" width="5.543976" height=".522705"/>
    <path d="M106.514282,34.573303h5.543976v.512146h-5.543976v-.512146ZM106.514282,36.542725h5.543976v.522705h-5.543976v-.522705Z"/>
    <path d="M103.492676,38.580811h-6.335999l3.315826-7.323303,3.020172,7.323303ZM102.246582,38.147827l-2.106689-5.105713-2.323212,5.105713h4.429901Z"/>
    <path d="M114.634888,26.075684h-8.099487v-.512146h8.099487c-.499847-.577271-.850067-1.023438-1.05072-1.338501-.200623-.315002-.395996-.706604-.58606-1.174805h.422394c.411835.506897.923981,1.020874,1.536469,1.541748.612488.520996,1.098236.883606,1.457275,1.087708v.295654c-.46817.260559-.979431.633606-1.533844,1.119385-.554382.485718-1.041046.983887-1.4599,1.494202h-.422394c.200623-.475159.406555-.878174.617737-1.209106.211212-.330811.550873-.765564,1.019043-1.304138Z"/>
    <rect x="114.555176" y="15.260132" width="5.543976" height=".522705"/>
    <path d="M106.094788,14.293884h5.543976v.512146h-5.543976v-.512146ZM106.094788,16.263306h5.543976v.522705h-5.543976v-.522705Z"/>
  </g>
  <g class="st21">
    <rect x="92.637589" y="30.663879" width=".512161" height="10.892578"/>
  </g>
  <g class="st19">
    <path d="M90.567841,48.218872c.524445-.12323.945114-.323853,1.261917-.601868.316788-.278076.53064-.597473.64151-.958374.110886-.360718.166321-.956482.166321-1.787231v-7.307495h.517441v7.851318c0,.95752-.207733,1.675598-.623032,2.154236-.41539.478638-1.070114.776184-1.964157.892334v-.24292Z"/>
  </g>
  <g>
    <rect x="92.637589" y="12.183899" width=".512161" height="10.892578"/>
    <path d="M92.637589,20.28418h.512161v2.233398c0,.94342.158401,1.631531.475189,2.064514.316803.432922.850098.751526,1.599854.955627v.401306c-.749756.207764-1.283051.528015-1.599854.960938-.316788.432983-.475189,1.121216-.475189,2.064514v2.21228h-.512161v-2.312622c0-.510315.052795-.955688.158401-1.335815.105606-.380188.250793-.679321.435593-.897644.184799-.218201.40921-.395996.673203-.533264.263977-.137268.624756-.256897,1.082397-.359009-.461182-.102051-.833435-.227051-1.116714-.374878-.283386-.147827-.516617-.340576-.6996-.578186-.18306-.23761-.317703-.53064-.403915-.879089-.086304-.348511-.129364-.776184-.129364-1.28302v-2.33905Z"/>
    <path d="M90.567841,3.247253v-.242859c.894043.11615,1.548767.41272,1.964157.889648.415298.477051.623032,1.195923.623032,2.15686v7.851379h-.517441v-7.307495c0-.524475-.026398-.974182-.079193-1.34906-.052811-.374878-.161041-.689026-.324722-.942444-.163681-.253479-.385437-.470764-.665283-.6521-.279831-.181274-.613388-.315918-1.000549-.403931Z"/>
    <rect x="75.795563" y="41.599731" width="5.543976" height=".522705"/>
  </g>
  <g class="st20">
    <path d="M55.515366,40.632507h5.543976v.512146h-5.543976v-.512146ZM55.515366,42.601929h5.543976v.522705h-5.543976v-.522705Z"/>
  </g>
  <g>
    <rect x="49.155365" y="25.398621" width="5.543976" height=".522705"/>
    <path d="M27.855164,24.432373h5.543976v.512146h-5.543976v-.512146ZM27.855164,26.401794h5.543976v.522705h-5.543976v-.522705Z"/>
    <polygon points="45.374008 6.635803 45.891449 6.635803 45.891449 9.159668 48.399429 9.159668 48.399429 9.671814 45.891449 9.671814 45.891449 12.17981 45.374008 12.17981 45.374008 9.671814 42.855453 9.671814 42.855453 9.159668 45.374008 9.159668 45.374008 6.635803"/>
    <path d="M27.195465,8.172302h5.543976v.512146h-5.543976v-.512146ZM27.195465,10.141724h5.543976v.522705h-5.543976v-.522705Z"/>
    <text class="st11" transform="translate(180.900391 40.55957)"><tspan x="0" y="0">v</tspan></text>
    <text class="st11" transform="translate(186.420898 16.319336)"><tspan x="0" y="0">v</tspan></text>
  </g>
  <g class="st18">
    <text class="st11" transform="translate(33.240234 44.640137)"><tspan x="0" y="0">y</tspan></text>
  </g>
  <g class="st15">
    <text class="st11" transform="translate(23.279785 44.640137)"><tspan x="0" y="0">x</tspan></text>
  </g>
  <g>
    <text class="st11" transform="translate(63.299805 28.439941)"><tspan x="0" y="0">y</tspan></text>
    <text class="st11" transform="translate(42.180176 28.439941)"><tspan x="0" y="0">x</tspan></text>
    <text class="st11" transform="translate(20.040039 28.439941)"><tspan x="0" y="0">y</tspan></text>
    <text class="st11" transform="translate(51.660645 12.179688)"><tspan x="0" y="0">y</tspan></text>
    <text class="st11" transform="translate(35.939941 12.179688)"><tspan x="0" y="0">x</tspan></text>
    <text class="st11" transform="translate(19.55957 12.179688)"><tspan x="0" y="0">x</tspan></text>
    <polygon points="184.71933 34.416443 184.935608 33.854126 181.799713 33.854126 181.799713 33.464844 184.935608 33.464844 184.71933 32.902527 186.233215 33.659485 184.71933 34.416443"/>
    <polygon points="190.179016 10.116638 190.395294 9.554321 187.259399 9.554321 187.259399 9.165039 190.395294 9.165039 190.179016 8.602722 191.692902 9.35968 190.179016 10.116638"/>
    <path d="M23.155289,21.703064c0,.360596-.180283.54071-.540665.54071-.360565,0-.54068-.180115-.54068-.54071,0-.172974.050354-.306274.151398-.400085.100861-.093567.230621-.140564.389282-.140564.158478,0,.288239.050537.389282.151367.100861.101074.151382.230835.151382.389282Z"/>
    <path d="M22.855698,5.503601c0,.360596-.180283.54071-.540665.54071-.360565,0-.54068-.180115-.54068-.54071,0-.172974.050354-.306274.151398-.400085.100861-.093567.230621-.140564.389282-.140564.158478,0,.288239.050537.389282.151367.100861.101074.151382.230835.151382.389282Z"/>
    <path d="M136.900238,31.16925l-3.041687,3.690735h-.939819l4.121185-4.979004.069183-.464661c.067749-.506897.043671-.850891-.071991-1.032227-.115814-.181274-.282776-.271912-.501007-.271912-.197174,0-.394287.072205-.591461.216492-.197235.144348-.374146.378418-.530609.702209h-.190063c.198364-.549133.484314-.989075.858032-1.320007.268402-.239319.536377-.359009.803925-.359009.235779,0,.406311.093323.511475.279846.155914.285095.191406.788513.106537,1.510071l-.426544,3.717102c-.063538.556213-.042633.916992.062744,1.082397.100616.168945.25824.253418.472992.253418.204102,0,.395721-.068665.574677-.205933s.332458-.357178.460693-.659973h.205933c-.027863.091553-.04953.160217-.065155.205933-.157745.461182-.39917.832458-.724243,1.114075-.244751.211182-.506195.316772-.78421.316772-.246429,0-.430908-.103882-.553436-.311523-.12262-.207642-.140747-.68457-.054443-1.430847l.227295-2.053955Z"/>
    <path d="M140.319946,18.508972l-3.041687,3.690735h-.939819l4.121185-4.979004.069183-.464661c.067749-.506897.043671-.850891-.071991-1.032227-.115814-.181274-.282776-.271912-.501007-.271912-.197174,0-.394287.072205-.591461.216492-.197235.144348-.374146.378418-.530609.702209h-.190063c.198364-.549133.484314-.989075.858032-1.320007.268402-.239319.536377-.359009.803925-.359009.235779,0,.406311.093323.511475.279846.155914.285095.191406.788513.106537,1.510071l-.426544,3.717102c-.063538.556213-.042633.916992.062744,1.082397.100616.168945.25824.253418.472992.253418.204102,0,.395721-.068665.574677-.205933s.332458-.357178.460693-.659973h.205933c-.027863.091553-.04953.160217-.065155.205933-.157745.461182-.39917.832458-.724243,1.114075-.244751.211182-.506195.316772-.78421.316772-.246429,0-.430908-.103882-.553436-.311523-.12262-.207642-.140747-.68457-.054443-1.430847l.227295-2.053955Z"/>
    <path d="M103.086151,13.46283l-.265472.776184h-1.647339c-.515839,1.158142-.847137,1.951843-.993988,2.381287-.116791.341431-.137177.588684-.061035.741821.076111.153137.210938.229675.404572.229675.144287,0,.286133-.049255.425446-.147827.139282-.098511.274475-.267456.405701-.506897h.184784c-.257355.577332-.522156.975952-.794464,1.195923-.2724.219971-.540558.330017-.804565.330017-.278107,0-.467346-.125916-.56781-.377563-.100555-.251587-.039978-.701294.181549-1.348999.174561-.510376.522675-1.342834,1.044281-2.497437h-.496307c-.285126,0-.526489.052002-.723846.155762-.197479.103882-.424744.30011-.681824.588684h-.195374c.484589-.675781.85611-1.098206,1.114532-1.267151s.572449-.253479.942047-.253479h2.529114Z"/>
  </g>
  <g>
    <text class="st7" transform="translate(263.639648 84.780273)"><tspan x="0" y="0">cond.</tspan></text>
    <text class="st7" transform="translate(261.299805 84.780273)"><tspan x="0" y="0"> </tspan></text>
    <text class="st7" transform="translate(245.100586 84.780273)"><tspan x="0" y="0">init.</tspan></text>
    <text class="st7" transform="translate(240.839844 84.780273)"><tspan x="0" y="0"> </tspan></text>
    <text class="st7" transform="translate(220.259766 84.780273)"><tspan x="0" y="0">from</tspan></text>
    <text class="st7" transform="translate(217.860352 84.780273)"><tspan x="0" y="0"> </tspan></text>
    <text class="st7" transform="translate(213.839844 84.780273)"><tspan x="0" y="0">1</tspan></text>
    <text class="st7" transform="translate(154.620117 84.780273)"><tspan x="0" y="0">with </tspan></text>
    <text class="st7" transform="translate(112.139648 89.94043)"><tspan x="0" y="0">4</tspan></text>
    <text class="st7" transform="translate(108.119629 79.97998)"><tspan x="0" y="0">1</tspan></text>
    <text class="st7" transform="translate(58.679687 89.94043)"><tspan x="0" y="0">1</tspan></text>
    <text class="st7" transform="translate(58.679687 79.97998)"><tspan x="0" y="0">1</tspan></text>
    <text class="st7" transform="translate(32.219238 84.780273)"><tspan x="0" y="0">)</tspan></text>
    <text class="st7" transform="translate(24.958984 84.780273)"><tspan x="0" y="0">(</tspan></text>
  </g>
  <g class="st12">
    <text class="st7" transform="translate(213.780273 45.719727)"><tspan x="0" y="0">4</tspan></text>
  </g>
  <g class="st16">
    <text class="st7" transform="translate(86.580078 44.640137)"><tspan x="0" y="0">)</tspan></text>
  </g>
  <g class="st13">
    <text class="st7" transform="translate(81.47998 44.640137)"><tspan x="0" y="0">3</tspan></text>
  </g>
  <text class="st7" transform="translate(72.720215 44.640137)"><tspan x="0" y="0">,</tspan></text>
  <g class="st35">
    <text class="st7" transform="translate(67.439941 44.640137)"><tspan x="0" y="0">2</tspan></text>
  </g>
  <g class="st36">
    <text class="st7" transform="translate(63.600098 44.640137)"><tspan x="0" y="0">(</tspan></text>
  </g>
  <g class="st37">
    <text class="st7" transform="translate(38.459961 44.640137)"><tspan x="0" y="0">)</tspan></text>
  </g>
  <text class="st7" transform="translate(28.140137 44.640137)"><tspan x="0" y="0">,</tspan></text>
  <g class="st38">
    <text class="st7" transform="translate(18.839844 44.640137)"><tspan x="0" y="0">(</tspan></text>
  </g>
  <g>
    <text class="st4" transform="translate(199.799805 87.47998)"><tspan x="0" y="0">2</tspan></text>
    <text class="st4" transform="translate(180.419922 87.47998)"><tspan x="0" y="0">1</tspan></text>
    <text class="st4" transform="translate(131.580078 79.92041)"><tspan x="0" y="0">3</tspan></text>
    <text class="st4" transform="translate(94.800781 87.47998)"><tspan x="0" y="0">2</tspan></text>
    <text class="st4" transform="translate(73.680664 79.92041)"><tspan x="0" y="0">2</tspan></text>
    <text class="st4" transform="translate(50.76123 87.47998)"><tspan x="0" y="0">1</tspan></text>
  </g>
  <g class="st39">
    <text class="st4" transform="translate(185.759766 43.259766)"><tspan x="0" y="0">2</tspan></text>
  </g>
  <g>
    <text class="st4" transform="translate(48.600098 47.339844)"><tspan x="0" y="0">0</tspan></text>
    <path d="M206.77536,80.772522h5.543976v.512146h-5.543976v-.512146ZM206.77536,82.741943h5.543976v.522705h-5.543976v-.522705Z"/>
    <path d="M186.85498,80.772522h5.543976v.512146h-5.543976v-.512146ZM186.85498,82.741943h5.543976v.522705h-5.543976v-.522705Z"/>
    <rect x="121.573792" y="75.604065" width=".512146" height="10.892578"/>
    <path d="M122.091217,82.504089v2.782532c0,1.084229-.131989,2.147217-.395996,3.189087-.225311.901184-.542999,1.691467-.953033,2.370728-.410095.679382-.891479,1.251343-1.444061,1.716003-.397827.34137-.855377.619507-1.372803.834229l-.12146-.105591c.992645-.682922,1.781097-1.483643,2.365448-2.402405.46463-.735657.81485-1.617371,1.05072-2.645264.235779-1.027771.35376-1.978149.35376-2.851196v-2.888123h.517426Z"/>
    <path d="M122.091217,81.637146h-.517426v-2.882874c0-1.112244-.147858-2.194641-.443512-3.247192-.295685-1.052429-.739227-1.97644-1.330566-2.771973-.510437-.68988-1.17572-1.316467-1.99585-1.8797l.12146-.11084c.848267.355591,1.602478.939819,2.262451,1.75293.660004.81311,1.142212,1.797852,1.446716,2.954163.304443,1.156311.456726,2.292419.456726,3.408203v2.777283Z"/>
    <rect x="99.437836" y="75.604065" width=".512177" height="10.892578"/>
    <path d="M99.437836,82.504089h.512177v2.888123c0,1.112366.148651,2.194763.446136,3.247192.297424,1.052551.741852,1.976562,1.333191,2.771973.510345.686401,1.175629,1.312927,1.99585,1.8797l-.121429.105591c-.848358-.355591-1.602478-.938904-2.262482-1.750305-.660004-.811279-1.142303-1.796021-1.446716-2.954163-.304504-1.15802-.456726-2.293213-.456726-3.405579v-2.782532Z"/>
    <path d="M99.437836,81.637146v-2.777283c0-1.084106.132019-2.148926.395996-3.194336.22522-.897644.542938-1.686096.953033-2.365479.410034-.67926.889679-1.251343,1.438812-1.716003.401276-.34137.860626-.621216,1.378082-.839478l.121429.11084c-.992645.682983-1.781158,1.483704-2.365448,2.402405-.46463.735779-.815735,1.617493-1.053345,2.645264-.23761,1.027893-.356384,1.978271-.356384,2.851196v2.882874h-.512177Z"/>
    <rect x="104.595276" y="86.898926" width="5.543976" height=".522705"/>
    <polygon points="84.853317 79.236023 85.370758 79.236023 85.370758 81.759888 87.878738 81.759888 87.878738 82.272034 85.370758 82.272034 85.370758 84.780029 84.853317 84.780029 84.853317 82.272034 82.334763 82.272034 82.334763 81.759888 84.853317 81.759888 84.853317 79.236023"/>
    <rect x="67.333786" y="75.604065" width=".512161" height="10.892578"/>
    <path d="M67.851227,82.504089v2.782532c0,1.084229-.131989,2.147217-.395996,3.189087-.225311.901184-.543015,1.691467-.953033,2.370728-.41011.679382-.891495,1.251343-1.444077,1.716003-.397812.34137-.855362.619507-1.372787.834229l-.121445-.105591c.99263-.682922,1.781082-1.483643,2.365433-2.402405.46463-.735657.81485-1.617371,1.05072-2.645264.235779-1.027771.353745-1.978149.353745-2.851196v-2.888123h.517441Z"/>
    <path d="M67.851227,81.637146h-.517441v-2.882874c0-1.112244-.147827-2.194641-.443512-3.247192-.295685-1.052429-.739197-1.97644-1.330551-2.771973-.510437-.68988-1.175705-1.316467-1.995834-1.8797l.121445-.11084c.848251.355591,1.602463.939819,2.262466,1.75293.659988.81311,1.142212,1.797852,1.446716,2.954163.304413,1.156311.456711,2.292419.456711,3.408203v2.777283Z"/>
    <rect x="54.91803" y="75.604065" width=".512161" height="10.892578"/>
    <path d="M54.91803,82.504089h.512161v2.888123c0,1.112366.148666,2.194763.446167,3.247192.297409,1.052551.741837,1.976562,1.333191,2.771973.510345.686401,1.175613,1.312927,1.995834,1.8797l-.121445.105591c-.848343-.355591-1.602478-.938904-2.262466-1.750305-.660004-.811279-1.142288-1.796021-1.446716-2.954163-.304504-1.15802-.456726-2.293213-.456726-3.405579v-2.782532Z"/>
    <path d="M54.91803,81.637146v-2.777283c0-1.084106.132004-2.148926.396011-3.194336.22522-.897644.542923-1.686096.953033-2.365479.410019-.67926.889679-1.251343,1.438797-1.716003.401276-.34137.860626-.621216,1.378067-.839478l.121445.11084c-.992645.682983-1.781174,1.483704-2.365433,2.402405-.464645.735779-.815765,1.617493-1.05336,2.645264-.237595,1.027893-.3564,1.978271-.3564,2.851196v2.882874h-.512161Z"/>
    <path d="M38.535065,80.773621h5.543976v.512146h-5.543976v-.512146ZM38.535065,82.743042h5.543976v.522705h-5.543976v-.522705Z"/>
  </g>
  <g class="st40">
    <path d="M223.731812,38.283875v2.782532c0,1.084229-.131989,2.147217-.395996,3.189087-.225311.901184-.542999,1.691467-.953033,2.370728-.410095.679382-.891479,1.251343-1.444061,1.716003-.397827.34137-.855377.619507-1.372803.834229l-.12146-.105591c.992645-.682922,1.781097-1.483643,2.365448-2.402405.46463-.735657.81485-1.617371,1.05072-2.645264.235779-1.027771.35376-1.978149.35376-2.851196v-2.888123h.517426Z"/>
  </g>
  <g class="st33">
    <path d="M201.078247,38.283875h.512177v2.888123c0,1.112366.148651,2.194763.446136,3.247192.297424,1.052551.741852,1.976562,1.333191,2.771973.510345.686401,1.175629,1.312927,1.99585,1.8797l-.121429.105591c-.848358-.355591-1.602478-.938904-2.262482-1.750305-.660004-.811279-1.142303-1.796021-1.446716-2.954163-.304504-1.15802-.456726-2.293213-.456726-3.405579v-2.782532Z"/>
  </g>
  <g class="st31">
    <rect x="206.235382" y="42.678711" width="5.543976" height=".522705"/>
  </g>
  <g class="st34">
    <path d="M90.567841,48.218872c.524445-.12323.945114-.323853,1.261917-.601868.316788-.278076.53064-.597473.64151-.958374.110886-.360718.166321-.956482.166321-1.787231v-7.307495h.517441v7.851318c0,.95752-.207733,1.675598-.623032,2.154236-.41539.478638-1.070114.776184-1.964157.892334v-.24292Z"/>
  </g>
  <g class="st32">
    <path d="M55.515366,40.632507h5.543976v.512146h-5.543976v-.512146ZM55.515366,42.601929h5.543976v.522705h-5.543976v-.522705Z"/>
  </g>
  <g>
    <rect x="128.033966" y="78.145935" width="3.233948" height=".304932"/>
    <path d="M44.994354,45.002441h3.233932v.298706h-3.233932v-.298706ZM44.994354,46.151245h3.233932v.304932h-3.233932v-.304932Z"/>
    <text class="st11" transform="translate(194.94043 84.780273)"><tspan x="0" y="0">c</tspan></text>
    <text class="st11" transform="translate(176.280273 84.780273)"><tspan x="0" y="0">c</tspan></text>
    <text class="st11" transform="translate(122.640625 84.780273)"><tspan x="0" y="0">e</tspan></text>
    <text class="st11" transform="translate(89.880371 84.780273)"><tspan x="0" y="0">c</tspan></text>
    <text class="st11" transform="translate(68.339844 84.780273)"><tspan x="0" y="0">e</tspan></text>
    <text class="st11" transform="translate(46.620117 84.780273)"><tspan x="0" y="0">c</tspan></text>
    <text class="st11" transform="translate(28.5 84.780273)"><tspan x="0" y="0">t</tspan></text>
    <text class="st11" transform="translate(19.55957 84.780273)"><tspan x="0" y="0">x</tspan></text>
  </g>
  <g class="st27">
    <text class="st11" transform="translate(33.240234 44.640137)"><tspan x="0" y="0">y</tspan></text>
  </g>
  <g class="st22">
    <text class="st11" transform="translate(23.279785 44.640137)"><tspan x="0" y="0">x</tspan></text>
  </g>
  <g>
    <text class="st8" transform="translate(134.759766 79.919922)"><tspan x="0" y="0">t</tspan></text>
    <text class="st8" transform="translate(77.040039 79.919922)"><tspan x="0" y="0">t</tspan></text>
  </g>
  <g class="st23">
    <text class="st8" transform="translate(42.419922 47.339844)"><tspan x="0" y="0">t</tspan></text>
  </g>
  <g>
    <polygon points="23.019623 78.636963 23.235886 78.074646 20.100006 78.074646 20.100006 77.685364 23.235886 77.685364 23.019623 77.123047 24.533493 77.880005 23.019623 78.636963"/>
    <text class="st2" transform="translate(3 111.47998)"><tspan class="st66" x="0" y="0">Can</tspan><tspan x="13.508301" y="0"> </tspan><tspan class="st65" x="15.560547" y="0">draw</tspan><tspan class="st75" x="31.516113" y="0"> </tspan><tspan class="st66" x="33.613281" y="0">pha</tspan><tspan class="st57" x="45.899902" y="0">s</tspan><tspan class="st65" x="49.609375" y="0">e</tspan><tspan class="st74" x="53.70459" y="0"> </tspan><tspan class="st66" x="55.927734" y="0">portra</tspan><tspan class="st69" x="75.152832" y="0">i</tspan><tspan class="st66" x="76.773926" y="0">t</tspan><tspan class="st74" x="78.817383" y="0"> </tspan><tspan class="st65" x="81.040527" y="0">d</tspan><tspan class="st68" x="85.135742" y="0">i</tspan><tspan class="st65" x="86.757324" y="0">re</tspan><tspan class="st57" x="93.300293" y="0">c</tspan><tspan x="97.009766" y="0">t</tspan><tspan class="st69" x="99.062012" y="0">l</tspan><tspan class="st57" x="100.683105" y="0">y</tspan><tspan class="st75" x="104.392578" y="0"> </tspan><tspan class="st65" x="106.489746" y="0">fro</tspan><tspan class="st68" x="115.075684" y="0">m</tspan><tspan class="st75" x="121.206055" y="0"> </tspan><tspan class="st65" x="123.303223" y="0">e</tspan><tspan class="st69" x="127.398438" y="0">i</tspan><tspan class="st66" x="129.019531" y="0">gen</tspan><tspan class="st56" x="141.306641" y="0">v</tspan><tspan class="st66" x="145.015625" y="0">a</tspan><tspan class="st67" x="149.111328" y="0">l</tspan><tspan class="st76" x="150.732422" y="0">u</tspan><tspan class="st67" x="154.873047" y="0">e</tspan><tspan class="st54" x="158.958984" y="0">s</tspan><tspan class="st71" x="162.668945" y="0"> </tspan><tspan class="st64" x="164.946289" y="0">&amp;</tspan><tspan class="st75" x="169.858398" y="0"> </tspan><tspan class="st66" x="171.956055" y="0">e</tspan><tspan class="st67" x="176.051758" y="0">i</tspan><tspan class="st66" x="177.672852" y="0">gen</tspan><tspan class="st54" x="189.958984" y="0">v</tspan><tspan class="st64" x="193.668945" y="0">e</tspan><tspan class="st54" x="197.763672" y="0">c</tspan><tspan class="st64" x="201.473633" y="0">tor</tspan><tspan class="st54" x="210.05957" y="0">s</tspan><tspan class="st41" x="213.769531" y="0">:</tspan></text>
    <text class="st10" transform="translate(134.460449 127.979492)"><tspan x="0" y="0">y</tspan></text>
  </g>
  <g>
    <rect x="137.820007" y="128.280029" width=".419983" height="4.22998"/>
    <path class="st1" d="M174.899994,120.599976l3.480011-1.380005-.959991,3.600037M103.920013,204.779999l-3.540009,1.440002,1.019989-3.660004,2.52002,2.220001ZM101.880005,203.700012l74.220001-82.799988.839996.779968-74.220001,82.800018-.839996-.779999Z"/>
    <polyline class="st1" points="156.299988 211.859985 120.299988 118.859985 121.380005 118.440002 157.380005 211.440002"/>
  </g>
  <g>
    <text class="st5" transform="translate(241.019531 127.080078)"><tspan x="0" y="0">(unstable)</tspan></text>
    <text class="st5" transform="translate(239.160156 127.080078)"><tspan x="0" y="0"> </tspan></text>
    <text class="st5" transform="translate(235.379883 127.080078)"><tspan x="0" y="0">2</tspan></text>
    <text class="st5" transform="translate(210.780273 127.080078)"><tspan x="0" y="0">,</tspan></text>
    <text class="st5" transform="translate(203.580078 131.100098)"><tspan x="0" y="0">1</tspan></text>
    <text class="st5" transform="translate(203.580078 123.360352)"><tspan x="0" y="0">1</tspan></text>
    <text class="st6" transform="translate(219.179688 129.179688)"><tspan x="0" y="0">1</tspan></text>
    <text class="st6" transform="translate(184.379883 129.179688)"><tspan x="0" y="0">1</tspan></text>
    <path d="M226.591766,123.966919h4.306641v.397888h-4.306641v-.397888ZM226.591766,125.496826h4.306641v.406067h-4.306641v-.406067Z"/>
    <rect x="210.141541" y="119.959534" width=".397858" height="8.461487"/>
  </g>
  <g class="st24">
    <path d="M210.543396,125.299377v2.161499c0,.842224-.102539,1.667969-.307617,2.477356-.175018.700012-.421814,1.313904-.740326,1.841614-.318573.52771-.692535.972046-1.121765,1.333008-.309052.265137-.664459.481201-1.066406.64801l-.09436-.082031c.771118-.530518,1.383575-1.152527,1.837524-1.866211.360931-.571472.632965-1.256409.816193-2.054871.183167-.798401.274811-1.536682.274811-2.214844v-2.24353h.401947Z"/>
  </g>
  <g>
    <path d="M210.543396,124.640869h-.401947v-2.239441c0-.864014-.114838-1.704834-.344543-2.522461-.229675-.817566-.574219-1.535339-1.033569-2.15332-.396515-.535889-.91333-1.022644-1.550415-1.460144l.09436-.086121c.658936.276184,1.244812.730042,1.757507,1.361694s.887268,1.396606,1.12384,2.2948c.236481.898254.354767,1.780823.354767,2.647583v2.15741Z"/>
    <rect x="200.620209" y="119.959351" width=".397858" height="8.461487"/>
  </g>
  <g class="st25">
    <path d="M200.620422,125.299377h.397858v2.24353c0,.864075.115479,1.704895.346588,2.522461.231018.817627.576263,1.5354,1.035645,2.15332.396423.533203.913239,1.019897,1.550385,1.460144l-.09433.082031c-.659027-.276184-1.244843-.72937-1.757538-1.35968-.512695-.630188-.887329-1.395142-1.12381-2.2948-.236542-.899597-.354797-1.781433-.354797-2.645508v-2.161499Z"/>
  </g>
  <g>
    <path d="M200.620422,124.640869v-2.15741c0-.842163.102539-1.669312.307617-2.481445.174957-.697266.421753-1.309753.740326-1.837524.318512-.527649.691132-.972046,1.117676-1.333008.311737-.265137.668579-.482544,1.070526-.6521l.09433.086121c-.771088.530518-1.383636,1.152527-1.837494,1.866211-.360931.571533-.633698,1.25647-.818268,2.054871-.18457.798462-.276855,1.536743-.276855,2.214844v2.239441h-.397858Z"/>
    <path d="M191.731873,123.966675h4.306641v.397888h-4.306641v-.397888ZM191.731873,125.496582h4.306641v.406067h-4.306641v-.406067Z"/>
    <path d="M218.393768,124.213013l-2.362701,2.867004h-.730072l3.201233-3.867798.053711-.360901c.052643-.393738.033936-.661011-.055939-.80188-.089966-.140808-.219696-.211243-.389191-.211243-.153168,0-.306305.056091-.459473.168213-.153198.112122-.290619.293945-.41214.545471h-.147644c.154083-.426575.37619-.768311.666473-1.025391.208496-.185913.416656-.27887.624481-.27887.183167,0,.315643.072449.397339.217346.121124.221497.148712.612549.082825,1.173035l-.331238,2.887512c-.049316.432068-.033081.712341.048767.84082.078156.131287.200623.196899.367432.196899.158569,0,.307404-.053345.446411-.159973s.25827-.277466.357849-.512695h.159973c-.021637.071167-.038452.124451-.050598.159973-.122528.358215-.310059.646667-.562561.865417-.190125.164062-.393188.246094-.609161.246094-.191437,0-.334778-.080688-.429962-.242004-.095245-.161316-.109344-.531799-.042328-1.111511l.176514-1.59552Z"/>
    <text class="st9" transform="translate(181.139648 127.080078)"><tspan x="0" y="0">v</tspan></text>
    <polygon points="184.068207 122.267639 184.236206 121.830811 181.800201 121.830811 181.800201 121.528442 184.236206 121.528442 184.068207 121.091614 185.244202 121.679626 184.068207 122.267639"/>
  </g>
  <g>
    <path class="st1" d="M90.779999,200.940002l-3.779999.540009,1.860001-3.300018M105.480011,123.179993l1.97998,2.700012c28.256012,37.826996,19.037994,48.402985-17.039993,73.919983l-.779999.540009-.600006-.899994.780014-.540009,3.059998-2.160004c9.751984-7.048981,25.681-18.023987,29.279999-30.179993l.299988-1.139984.240021-1.200012c2.041992-12.153992-7.753021-25.578003-14.220001-34.980011l-1.920013-2.700012-1.980011-2.699951.900024-.660034Z"/>
    <path class="st1" d="M128.640015,134.76001l-.540009,3.720001-2.700012-2.639984M125.640015,129.359985l2.099976,6.299988-1.079987.360016-2.100006-6.360016,1.080017-.299988Z"/>
    <path class="st1" d="M172.980011,133.200012l3.359985-1.679993-.660004,3.719971M160.140015,199.619995l-.120026-.540009-.179993-.599976c-3.127991-9.321014-7.704987-18.411011-7.859985-28.5l.059998-1.140015.059998-1.199982c1.109009-10.741028,14.261993-24.435028,20.820007-32.580017l.659973-.900024.600006-.719971.899994.659973-.599976.780029-.720001.900024c-6.563019,8.155975-18.335022,20.427979-20.400024,30.899963l-.119995,1.080017-.119995,1.079987c-.20401,10.32901,4.593018,19.774994,7.800018,29.339996l.359985,1.200012-1.139984.23999Z"/>
    <path class="st1" d="M167.519989,122.460022l3.480011-1.380005-1.019989,3.599976M127.26001,118.140015l.059998.299988.179993.299988c2.679993,7.15802,6.32901,26.348022,12.480011,30.300018l.23999.179993.299988.119995c6.14502,2.364014,23.281006-21.162994,26.940002-25.079987l.720001-.900024.540009-.599976.839996.779968-.480011.540039-.779999.899963c-3.975983,4.345032-21.037994,27.925018-27.839996,25.500031l-.359985-.120026-.360016-.179993c-6.770996-3.384979-10.557983-23.938965-13.319977-31.02002l-.120026-.299988-.119995-.23999,1.080017-.47998Z"/>
  </g>
  <g class="st26">
    <text class="st2" transform="translate(33.600098 132.780273)"><tspan class="st66" x="0" y="0">S</tspan><tspan class="st69" x="4.913086" y="0">addle</tspan><tspan class="st72" x="22.879883" y="0"> </tspan><tspan class="st66" x="25.094238" y="0">P</tspan><tspan class="st69" x="30.007324" y="0">oin</tspan><tspan x="39.80127" y="0">t</tspan></text>
  </g>
  <text class="st10" transform="translate(225 163.97998)"><tspan x="0" y="0">x</tspan></text>
  <rect x="137.820007" y="132.450012" width=".419983" height="76.829987"/>
  <rect x="45" y="163.799988" width="174" height=".420013"/>
  <g>
    <path class="st1" d="M174.899994,120.599976l3.480011-1.380005-.959991,3.600037M103.920013,204.779999l-3.540009,1.440002,1.019989-3.660004,2.52002,2.220001ZM101.880005,203.700012l74.220001-82.799988.839996.779968-74.220001,82.800018-.839996-.779999Z"/>
    <polyline class="st1" points="156.299988 211.859985 120.299988 118.859985 121.380005 118.440002 157.380005 211.440002"/>
  </g>
  <g class="st28">
    <path d="M210.543396,125.299377v2.161499c0,.842224-.102539,1.667969-.307617,2.477356-.175018.700012-.421814,1.313904-.740326,1.841614-.318573.52771-.692535.972046-1.121765,1.333008-.309052.265137-.664459.481201-1.066406.64801l-.09436-.082031c.771118-.530518,1.383575-1.152527,1.837524-1.866211.360931-.571472.632965-1.256409.816193-2.054871.183167-.798401.274811-1.536682.274811-2.214844v-2.24353h.401947Z"/>
  </g>
  <g class="st29">
    <path d="M200.620422,125.299377h.397858v2.24353c0,.864075.115479,1.704895.346588,2.522461.231018.817627.576263,1.5354,1.035645,2.15332.396423.533203.913239,1.019897,1.550385,1.460144l-.09433.082031c-.659027-.276184-1.244843-.72937-1.757538-1.35968-.512695-.630188-.887329-1.395142-1.12381-2.2948-.236542-.899597-.354797-1.781433-.354797-2.645508v-2.161499Z"/>
  </g>
  <g>
    <text class="st5" transform="translate(235.679688 208.080078)"><tspan x="0" y="0">(stable)</tspan></text>
    <text class="st5" transform="translate(233.820312 208.080078)"><tspan x="0" y="0"> </tspan></text>
    <text class="st5" transform="translate(230.280273 208.080078)"><tspan x="0" y="0">3</tspan></text>
    <text class="st5" transform="translate(200.160156 208.080078)"><tspan x="0" y="0">,</tspan></text>
    <text class="st5" transform="translate(192.300781 212.100098)"><tspan x="0" y="0">4</tspan></text>
    <text class="st5" transform="translate(188.220703 204.360352)"><tspan x="0" y="0">1</tspan></text>
    <text class="st6" transform="translate(209.160156 210.180176)"><tspan x="0" y="0">2</tspan></text>
    <text class="st6" transform="translate(163.920898 210.180176)"><tspan x="0" y="0">2</tspan></text>
    <rect x="225.811768" y="205.717499" width="4.306641" height=".406036"/>
    <path d="M216.871674,204.966888h4.306641v.397858h-4.306641v-.397858ZM216.871674,206.496796h4.306641v.406036h-4.306641v-.406036Z"/>
    <rect x="199.520935" y="200.959534" width=".397858" height="8.461517"/>
    <path d="M199.922882,206.299438v2.16153c0,.842224-.102539,1.667999-.307617,2.477356-.175018.700012-.421814,1.313904-.740326,1.841583-.318573.527771-.692535.972076-1.121765,1.333008-.309052.265198-.664459.481232-1.066406.648041l-.09436-.082031c.771118-.530487,1.383575-1.152527,1.837524-1.866211.360931-.571442.632965-1.256409.816193-2.054871.183167-.798401.274811-1.536682.274811-2.214844v-2.243561h.401947Z"/>
    <path d="M199.922882,205.641052h-.401947v-2.239441c0-.864014-.114838-1.704834-.344543-2.522461-.229675-.817566-.574219-1.535339-1.033569-2.15332-.396515-.535889-.91333-1.022644-1.550415-1.460144l.09436-.086151c.658936.276215,1.244812.730072,1.757507,1.361725s.887268,1.396576,1.12384,2.29483c.236481.898224.354767,1.780792.354767,2.647552v2.15741Z"/>
    <rect x="180.520325" y="200.959534" width=".397858" height="8.461517"/>
    <path d="M180.520325,206.299438h.397858v2.243561c0,.864075.115479,1.704895.346588,2.522461.231018.817627.576263,1.5354,1.035645,2.15332.396423.533203.913239,1.019867,1.550385,1.460144l-.09433.082031c-.659027-.276215-1.244843-.72937-1.757538-1.35965-.512695-.630249-.887329-1.395172-1.12381-2.29483-.236542-.899597-.354797-1.781433-.354797-2.645508v-2.16153Z"/>
    <path d="M180.520325,205.641052v-2.15741c0-.842163.102539-1.669342.307617-2.481445.174957-.697266.421753-1.309753.740326-1.837494.318512-.52771.691132-.972076,1.117676-1.333008.311737-.265198.668579-.482574,1.070526-.652161l.09433.086151c-.771088.530487-1.383636,1.152527-1.837494,1.866211-.360931.571503-.633698,1.25647-.818268,2.054871-.18457.798462-.276855,1.536743-.276855,2.214844v2.239441h-.397858Z"/>
    <rect x="184.531677" y="209.737701" width="4.306641" height=".406036"/>
    <path d="M171.691376,204.966888h4.306641v.397858h-4.306641v-.397858ZM171.691376,206.496796h4.306641v.406036h-4.306641v-.406036Z"/>
    <path d="M207.833771,205.212982l-2.362701,2.867004h-.730072l3.201233-3.867767.053711-.360931c.052643-.393768.033936-.661011-.055939-.80188-.089966-.140778-.219696-.211212-.389191-.211212-.153168,0-.306305.056061-.459473.168152-.153198.112152-.290619.293976-.41214.545502h-.147644c.154083-.426544.37619-.768311.666473-1.025391.208496-.185913.416656-.2789.624481-.2789.183167,0,.315643.072479.397339.217377.121124.221497.148712.612549.082825,1.173065l-.331238,2.887482c-.049316.432098-.033081.712341.048767.84082.078156.131256.200623.196899.367432.196899.158569,0,.307404-.053345.446411-.159973s.25827-.277496.357849-.512695h.159973c-.021637.071136-.038452.124451-.050598.159973-.122528.358246-.310059.646698-.562561.865417-.190125.164062-.393188.246094-.609161.246094-.191437,0-.334778-.080688-.429962-.242004-.095245-.161285-.109344-.531769-.042328-1.111511l.176514-1.59552Z"/>
    <text class="st9" transform="translate(160.139648 208.080078)"><tspan x="0" y="0">v</tspan></text>
    <polygon points="163.068207 203.267609 163.236206 202.830811 160.800201 202.830811 160.800201 202.528381 163.236206 202.528381 163.068207 202.091583 164.244202 202.679596 163.068207 203.267609"/>
    <path class="st59" d="M137.160004,164.040009v-.059998l.059998.23999v-.059998l.119995.23999-.059998-.119995.179993.23999-.059998-.059998.240021.180023-.120026-.060028.240021.120026-.059998-.059998.23999.119995h-.119995.299988-.059998.299988-.119995l.300018-.119995-.119995.059998.23999-.120026-.059998.060028.179993-.180023-.059998.059998.179993-.23999-.059998.119995.119995-.23999v.059998l.059998-.23999v.059998-.300018.119995-.299988.119995l-.059998-.299988v.119995l-.119995-.23999.059998.059998-.179993-.179993.059998.059998-.179993-.180023.059998.059998-.23999-.119995h.059998l-.240021-.059998h.119995-.299988.059998-.299988.119995l-.23999.059998h.059998l-.240021.119995.120026-.059998-.240021.180023.059998-.059998-.179993.179993.059998-.059998-.119995.23999v-.119995l-.059998.299988v-.119995.299988-.119995M136.019989,163.859985v-.119995l.059998-.299988v-.059998l.120026-.300018v-.119995l.179993-.23999q0-.059998.059998-.119995l.179993-.179993q0-.060028.059998-.060028l.240021-.23999s.059998,0,.059998-.059998l.23999-.119995q.059998,0,.119995-.059998l.300018-.059998h.119995l.299988-.059998h.059998l.360016.059998h.059998l.299988.059998q.059998.059998.119995.059998l.240021.119995q.059998.059998.119995.059998l.179993.23999q.059998,0,.059998.060028l.179993.179993.119995.119995.120026.23999q0,.059998.059998.119995l.059998.300018v.059998l.059998.299988v.119995l-.059998.300018v.119995l-.059998.299988c-.059998,0-.059998.060028-.059998.120026l-.120026.23999c-.059998,0-.059998.059998-.119995.059998l-.179993.23999s0,.059998-.059998.059998l-.179993.180023q-.059998.059998-.119995.059998l-.240021.179993h-.119995l-.299988.119995h-.059998l-.360016.059998h-.059998l-.299988-.059998h-.119995l-.300018-.119995h-.119995l-.23999-.179993s-.059998,0-.059998-.059998l-.240021-.180023c-.059998,0-.059998-.059998-.059998-.059998l-.179993-.23999c-.059998,0-.059998-.059998-.059998-.059998l-.179993-.23999v-.120026l-.120026-.299988v-.119995l-.059998-.300018Z"/>
  </g>
  <g>
    <path class="st1" d="M90.779999,200.940002l-3.779999.540009,1.860001-3.300018M105.480011,123.179993l1.97998,2.700012c28.256012,37.826996,19.037994,48.402985-17.039993,73.919983l-.779999.540009-.600006-.899994.780014-.540009,3.059998-2.160004c9.751984-7.048981,25.681-18.023987,29.279999-30.179993l.299988-1.139984.240021-1.200012c2.041992-12.153992-7.753021-25.578003-14.220001-34.980011l-1.920013-2.700012-1.980011-2.699951.900024-.660034Z"/>
    <path class="st1" d="M128.640015,134.76001l-.540009,3.720001-2.700012-2.639984M125.640015,129.359985l2.099976,6.299988-1.079987.360016-2.100006-6.360016,1.080017-.299988Z"/>
  </g>
  <path class="st1" d="M146.519989,190.26001l.480011-3.779999,2.700012,2.699982M149.519989,195.660004l-2.160004-6.300018,1.080017-.359985,2.100006,6.359985-1.02002.300018Z"/>
  <path class="st1" d="M172.980011,133.200012l3.359985-1.679993-.660004,3.719971M160.140015,199.619995l-.120026-.540009-.179993-.599976c-3.127991-9.321014-7.704987-18.411011-7.859985-28.5l.059998-1.140015.059998-1.199982c1.109009-10.741028,14.261993-24.435028,20.820007-32.580017l.659973-.900024.600006-.719971.899994.659973-.599976.780029-.720001.900024c-6.563019,8.155975-18.335022,20.427979-20.400024,30.899963l-.119995,1.080017-.119995,1.079987c-.20401,10.32901,4.593018,19.774994,7.800018,29.339996l.359985,1.200012-1.139984.23999Z"/>
  <path class="st1" d="M111.540009,209.160004l-3.540009,1.320007,1.019989-3.600006M151.799988,213.420013l-.059998-.240021c-2.587982-6.016998-7.061981-29.772003-13.799988-31.079987l-.299988-.059998h.119995-.360016c-7.516998,1.087006-21.380005,20.450989-26.579987,26.160004l-.480011.599976-.839996-.720001.480011-.599976c5.174988-5.709015,19.681976-25.97702,27.359985-26.52002l.360016-.059998s.059998,0,.059998.059998h.419983c7.634003,1.554016,11.790009,25.147003,14.580017,31.740021l.119995.23999-1.080017.480011Z"/>
  <path class="st1" d="M167.519989,122.460022l3.480011-1.380005-1.019989,3.599976M127.26001,118.140015l.059998.299988.179993.299988c2.679993,7.15802,6.32901,26.348022,12.480011,30.300018l.23999.179993.299988.119995c6.14502,2.364014,23.281006-21.162994,26.940002-25.079987l.720001-.900024.540009-.599976.839996.779968-.480011.540039-.779999.899963c-3.975983,4.345032-21.037994,27.925018-27.839996,25.500031l-.359985-.120026-.360016-.179993c-6.770996-3.384979-10.557983-23.938965-13.319977-31.02002l-.120026-.299988-.119995-.23999,1.080017-.47998Z"/>
  <g class="st30">
    <text class="st2" transform="translate(33.600098 132.780273)"><tspan class="st66" x="0" y="0">S</tspan><tspan class="st69" x="4.913086" y="0">addle</tspan><tspan class="st72" x="22.879883" y="0"> </tspan><tspan class="st66" x="25.094238" y="0">P</tspan><tspan class="st69" x="30.007324" y="0">oin</tspan><tspan x="39.80127" y="0">t</tspan></text>
  </g>
  <g>
    <rect class="st1" x="33.600006" y="133.800049" width="41.820007" height=".659973"/>
    <text class="st3" transform="translate(33.600098 142.560059)"><tspan class="st53" x="0" y="0">(one</tspan><tspan class="st61" x="13.12793" y="0"> </tspan><tspan class="st52" x="14.812012" y="0">posi</tspan><tspan class="st70" x="26.849121" y="0">t</tspan><tspan class="st53" x="28.652832" y="0">ive</tspan><tspan class="st62" x="37.04248" y="0"> </tspan><tspan class="st53" x="38.790039" y="0">real</tspan><tspan class="st51" x="49.732422" y="0"> </tspan></text>
    <text class="st3" transform="translate(33.600098 152.160156)"><tspan class="st58" x="0" y="0">and</tspan><tspan class="st60" x="10.96582" y="0"> </tspan><tspan class="st58" x="12.59375" y="0">one</tspan><tspan class="st63" x="23.55957" y="0"> </tspan><tspan class="st58" x="25.307617" y="0">nega</tspan><tspan class="st70" x="39.928711" y="0">t</tspan><tspan class="st55" x="41.732422" y="0">ive</tspan><tspan x="50.145996" y="0"> </tspan></text>
    <text class="st3" transform="translate(33.600098 161.759766)"><tspan class="st53" x="0" y="0">real</tspan><tspan class="st61" x="10.941895" y="0"> </tspan><tspan class="st52" x="12.625977" y="0">eigenvalue</tspan><tspan x="44.36084" y="0">)</tspan></text>
  </g>
</svg>