<?xml version="1.0" encoding="UTF-8"?>
<svg id="Layer_1" xmlns="http://www.w3.org/2000/svg" xmlns:xlink="http://www.w3.org/1999/xlink" version="1.1" viewBox="0 0 334 206">
  <!-- Generator: Adobe Illustrator 29.3.1, SVG Export Plug-In . SVG Version: 2.1.0 Build 151)  -->
  <defs>
    <style>
      .st0, .st1, .st2, .st3 {
        fill: none;
      }

      .st4 {
        font-family: ArialNarrow-Italic, 'Arial Narrow';
      }

      .st4, .st5, .st6, .st7 {
        fill: #33c;
      }

      .st4, .st8, .st9, .st10, .st11, .st12 {
        font-style: italic;
      }

      .st4, .st7 {
        font-size: 10.02px;
      }

      .st8, .st9, .st10, .st11, .st12 {
        font-family: TimesNewRomanPS-ItalicMT, 'Times New Roman';
      }

      .st8, .st13 {
        font-size: 5.88px;
      }

      .st9, .st14 {
        font-size: 5.5298px;
      }

      .st6 {
        font-size: 6.66px;
      }

      .st6, .st7 {
        font-family: ArialNarrow, 'Arial Narrow';
      }

      .st13, .st15, .st16, .st14, .st17 {
        font-family: TimesNewRomanPSMT, 'Times New Roman';
      }

      .st15, .st10 {
        font-size: 9.48px;
      }

      .st16 {
        font-size: 3.9499px;
      }

      .st1 {
        stroke-width: .401px;
      }

      .st1, .st2, .st3 {
        stroke: #000;
        stroke-linecap: round;
        stroke-linejoin: round;
      }

      .st2 {
        stroke-width: .42px;
      }

      .st18 {
        clip-path: url(#clippath-17);
      }

      .st19 {
        clip-path: url(#clippath-19);
      }

      .st20 {
        clip-path: url(#clippath-11);
      }

      .st21 {
        clip-path: url(#clippath-16);
      }

      .st22 {
        clip-path: url(#clippath-18);
      }

      .st23 {
        clip-path: url(#clippath-10);
      }

      .st24 {
        clip-path: url(#clippath-15);
      }

      .st25 {
        clip-path: url(#clippath-13);
      }

      .st26 {
        clip-path: url(#clippath-14);
      }

      .st27 {
        clip-path: url(#clippath-12);
      }

      .st28 {
        clip-path: url(#clippath-31);
      }

      .st29 {
        clip-path: url(#clippath-32);
      }

      .st30 {
        clip-path: url(#clippath-33);
      }

      .st31 {
        clip-path: url(#clippath-34);
      }

      .st32 {
        clip-path: url(#clippath-35);
      }

      .st33 {
        clip-path: url(#clippath-39);
      }

      .st34 {
        clip-path: url(#clippath-30);
      }

      .st35 {
        clip-path: url(#clippath-36);
      }

      .st36 {
        clip-path: url(#clippath-37);
      }

      .st37 {
        clip-path: url(#clippath-38);
      }

      .st38 {
        clip-path: url(#clippath-27);
      }

      .st39 {
        clip-path: url(#clippath-29);
      }

      .st40 {
        clip-path: url(#clippath-26);
      }

      .st41 {
        clip-path: url(#clippath-28);
      }

      .st42 {
        clip-path: url(#clippath-20);
      }

      .st43 {
        clip-path: url(#clippath-21);
      }

      .st44 {
        clip-path: url(#clippath-22);
      }

      .st45 {
        clip-path: url(#clippath-23);
      }

      .st46 {
        clip-path: url(#clippath-24);
      }

      .st47 {
        clip-path: url(#clippath-25);
      }

      .st48 {
        clip-path: url(#clippath-41);
      }

      .st49 {
        clip-path: url(#clippath-42);
      }

      .st50 {
        clip-path: url(#clippath-40);
      }

      .st51 {
        letter-spacing: -.000097em;
      }

      .st52 {
        clip-path: url(#clippath-1);
      }

      .st53 {
        clip-path: url(#clippath-3);
      }

      .st54 {
        clip-path: url(#clippath-4);
      }

      .st55 {
        clip-path: url(#clippath-2);
      }

      .st56 {
        clip-path: url(#clippath-7);
      }

      .st57 {
        clip-path: url(#clippath-6);
      }

      .st58 {
        clip-path: url(#clippath-9);
      }

      .st59 {
        clip-path: url(#clippath-8);
      }

      .st60 {
        clip-path: url(#clippath-5);
      }

      .st17, .st12 {
        font-size: 10.08px;
      }

      .st61 {
        letter-spacing: .000097em;
      }

      .st3 {
        stroke-width: .841px;
      }

      .st11 {
        font-size: 9.6872px;
      }

      .st62 {
        letter-spacing: -.01306em;
      }

      .st63 {
        letter-spacing: -.006043em;
      }

      .st64 {
        letter-spacing: -.011988em;
      }

      .st65 {
        letter-spacing: -.007017em;
      }

      .st66 {
        letter-spacing: -.001072em;
      }

      .st67 {
        letter-spacing: -.000975em;
      }

      .st68 {
        letter-spacing: -.000877em;
      }

      .st69 {
        clip-path: url(#clippath);
      }

      .st70 {
        letter-spacing: .004971em;
      }
    </style>
    <clipPath id="clippath">
      <rect class="st0" x="180.100006" y="43.040009" width="3.899994" height="6.359985"/>
    </clipPath>
    <clipPath id="clippath-1">
      <rect class="st0" x="142.179993" y="43.040009" width="4.26001" height="6.359985"/>
    </clipPath>
    <clipPath id="clippath-2">
      <rect class="st0" x="169" y="40.880005" width="4.73999" height="8.519989"/>
    </clipPath>
    <clipPath id="clippath-3">
      <rect class="st0" x="148.23999" y="40.880005" width="4.73999" height="8.519989"/>
    </clipPath>
    <clipPath id="clippath-4">
      <rect class="st0" x="172.959991" y="41.959991" width="5.040009" height="7.440002"/>
    </clipPath>
    <clipPath id="clippath-5">
      <rect class="st0" x="152.619995" y="41.959991" width="4.559998" height="7.440002"/>
    </clipPath>
    <clipPath id="clippath-6">
      <rect class="st0" x="180.100006" y="49.399994" width="3.899994" height="5.459991"/>
    </clipPath>
    <clipPath id="clippath-7">
      <rect class="st0" x="142.179993" y="49.399994" width="4.26001" height="5.459991"/>
    </clipPath>
    <clipPath id="clippath-8">
      <rect class="st0" x="169" y="49.400024" width="4.73999" height="3.299988"/>
    </clipPath>
    <clipPath id="clippath-9">
      <rect class="st0" x="148.23999" y="49.400024" width="4.73999" height="3.299988"/>
    </clipPath>
    <clipPath id="clippath-10">
      <rect class="st0" x="172.959991" y="49.399994" width="5.040009" height="3.420013"/>
    </clipPath>
    <clipPath id="clippath-11">
      <rect class="st0" x="152.619995" y="49.399994" width="4.559998" height="3.420013"/>
    </clipPath>
    <clipPath id="clippath-12">
      <rect class="st0" x="144.76001" y="134.119995" width="5.040009" height="5.279999"/>
    </clipPath>
    <clipPath id="clippath-13">
      <rect class="st0" x="47.259995" y="134.119995" width="12.360001" height="5.279999"/>
    </clipPath>
    <clipPath id="clippath-14">
      <rect class="st0" x="134.200012" y="132.979996" width="5.519989" height="6.419998"/>
    </clipPath>
    <clipPath id="clippath-15">
      <rect class="st0" x="125.200012" y="133.819992" width="3.839996" height="5.580002"/>
    </clipPath>
    <clipPath id="clippath-16">
      <rect class="st0" x="125.019989" y="129.139999" width="4.019989" height="10.259995"/>
    </clipPath>
    <clipPath id="clippath-17">
      <rect class="st0" x="59.860001" y="133.819992" width="3.839996" height="5.580002"/>
    </clipPath>
    <clipPath id="clippath-18">
      <rect class="st0" x="59.860001" y="129.139999" width="4.380005" height="10.259995"/>
    </clipPath>
    <clipPath id="clippath-19">
      <rect class="st0" x="83.320007" y="128.419998" width="5.759995" height="10.979996"/>
    </clipPath>
    <clipPath id="clippath-20">
      <rect class="st0" x="245.26001" y="128.899994" width="5.519989" height="10.5"/>
    </clipPath>
    <clipPath id="clippath-21">
      <rect class="st0" x="250.779999" y="135.199997" width="3.059998" height="4.199997"/>
    </clipPath>
    <clipPath id="clippath-22">
      <rect class="st0" x="253.839996" y="128.899994" width="5.579987" height="10.5"/>
    </clipPath>
    <clipPath id="clippath-23">
      <rect class="st0" x="259.420013" y="128.899994" width="5.519989" height="10.5"/>
    </clipPath>
    <clipPath id="clippath-24">
      <rect class="st0" x="264.940002" y="135.199997" width="3.059998" height="4.199997"/>
    </clipPath>
    <clipPath id="clippath-25">
      <rect class="st0" x="268" y="129.73999" width="22.619995" height="9.660004"/>
    </clipPath>
    <clipPath id="clippath-26">
      <rect class="st0" x="294.700012" y="135.199997" width="3.059998" height="4.199997"/>
    </clipPath>
    <clipPath id="clippath-27">
      <rect class="st0" x="311.859985" y="135.199997" width="3.059998" height="4.199997"/>
    </clipPath>
    <clipPath id="clippath-28">
      <rect class="st0" x="144.76001" y="139.400009" width="5.040009" height="6.059998"/>
    </clipPath>
    <clipPath id="clippath-29">
      <rect class="st0" x="47.259995" y="139.400009" width="12.360001" height="6.059998"/>
    </clipPath>
    <clipPath id="clippath-30">
      <rect class="st0" x="134.200012" y="139.399994" width="5.519989" height="5.880005"/>
    </clipPath>
    <clipPath id="clippath-31">
      <rect class="st0" x="125.200012" y="139.399994" width="3.839996" height="6.720001"/>
    </clipPath>
    <clipPath id="clippath-32">
      <rect class="st0" x="125.019989" y="139.400009" width="4.019989" height="2.039993"/>
    </clipPath>
    <clipPath id="clippath-33">
      <rect class="st0" x="59.860001" y="139.399994" width="3.839996" height="6.720001"/>
    </clipPath>
    <clipPath id="clippath-34">
      <rect class="st0" x="59.860001" y="139.400009" width="4.380005" height="2.039993"/>
    </clipPath>
    <clipPath id="clippath-35">
      <rect class="st0" x="109" y="139.399994" width="5.519989" height="10.800003"/>
    </clipPath>
    <clipPath id="clippath-36">
      <rect class="st0" x="118.299988" y="139.399994" width="5.76001" height="10.800003"/>
    </clipPath>
    <clipPath id="clippath-37">
      <rect class="st0" x="250.779999" y="139.400009" width="3.059998" height="3.539993"/>
    </clipPath>
    <clipPath id="clippath-38">
      <rect class="st0" x="264.940002" y="139.400009" width="3.059998" height="3.539993"/>
    </clipPath>
    <clipPath id="clippath-39">
      <rect class="st0" x="268" y="139.400009" width="22.619995" height="1.679993"/>
    </clipPath>
    <clipPath id="clippath-40">
      <rect class="st0" x="294.700012" y="139.400009" width="3.059998" height="3.539993"/>
    </clipPath>
    <clipPath id="clippath-41">
      <rect class="st0" x="311.859985" y="139.400009" width="3.059998" height="3.539993"/>
    </clipPath>
    <clipPath id="clippath-42">
      <rect class="st0" x="237.339996" y="178.399994" width="3.899994" height="6.240005"/>
    </clipPath>
  </defs>
  <g>
    <line class="st1" x1="147.519989" y1="15.920013" x2="158.079987" y2="15.920013"/>
    <line class="st1" x1="168.339996" y1="15.920013" x2="178.899994" y2="15.920013"/>
    <line class="st1" x1="147.220001" y1="40.640015" x2="158.380005" y2="40.640015"/>
    <line class="st1" x1="168.040009" y1="40.640015" x2="179.200012" y2="40.640015"/>
    <rect x="206.061707" y="23.026947" width=".458832" height="9.758148"/>
    <path d="M206.525269,29.207336v2.492767c0,.971283-.118256,1.923584-.354767,2.856964-.201843.807281-.48645,1.515228-.85379,2.12381-.367371.608612-.798645,1.121002-1.293671,1.537262-.356384.305817-.766266.554962-1.229828.747345l-.108765-.094604c.889252-.611786,1.595581-1.329132,2.119049-2.152191.41626-.659027.72998-1.448944.941284-2.369751.211243-.920746.316925-1.772156.316925-2.55426v-2.587341h.463562Z"/>
    <path d="M206.525269,28.2854h-.463562v-2.582611c0-.996429-.132446-1.966095-.397339-2.908997-.264862-.942841-.662201-1.770599-1.191956-2.483307-.457275-.618011-1.053253-1.179321-1.787964-1.683899l.108765-.099335c.759918.318542,1.435577.841949,2.026855,1.570404.591248.728424,1.023254,1.610565,1.296051,2.646454.272705,1.035889.409149,2.05368.409149,3.053284v2.488007Z"/>
    <rect x="193.092621" y="23.026947" width=".458801" height="9.758148"/>
    <path d="M193.092621,29.207336h.458801v2.587341c0,.996521.133179,1.966187.399689,2.909027.266449.942902.664581,1.77066,1.194366,2.483276.457184.614899,1.053162,1.176178,1.787964,1.683899l-.108795.094604c-.76001-.318542-1.435577-.841125-2.026855-1.568024-.591248-.726807-1.023315-1.608948-1.296021-2.646484-.272797-1.037415-.409149-2.054382-.409149-3.050873v-2.492767Z"/>
    <path d="M193.092621,28.2854v-2.488007c0-.971222.118225-1.92514.354736-2.861694.201782-.804138.486389-1.510468.85379-2.11908.36731-.608551.797028-1.121033,1.28894-1.537292.359497-.305817.770996-.556519,1.234558-.752075l.108795.099335c-.889252.611816-1.595673,1.329163-2.11908,2.152191-.41626.659088-.730804,1.449036-.943665,2.369751-.21283.920837-.319275,1.772247-.319275,2.55426v2.582611h-.458801Z"/>
    <path d="M188.971497,28.681458c0,.145081-.05127.26886-.153717.371307-.102509.102509-.22467.153717-.366577.153717-.145081,0-.26889-.051208-.371307-.153717-.102509-.102448-.153748-.226227-.153748-.371307,0-.14502.051239-.268829.153748-.371338.102417-.102417.226227-.153717.371307-.153717.141907,0,.264069.0513.366577.153717.102448.102509.153717.226318.153717.371338Z"/>
    <rect x="183.141785" y="37.607147" width=".458832" height="9.758148"/>
    <rect x="183.141785" y="28.726837" width=".458832" height="9.758148"/>
    <rect x="183.141785" y="19.427124" width=".458832" height="9.758148"/>
    <rect x="183.141785" y="10.127441" width=".458832" height="9.758148"/>
  </g>
  <g class="st69">
    <path d="M183.605255,43.786926v2.492767c0,.971283-.118256,1.923584-.354767,2.856964-.201843.807281-.48645,1.515228-.85379,2.12381-.367371.608612-.798645,1.121002-1.293671,1.537262-.356384.305817-.766266.554962-1.229828.747345l-.108765-.094604c.889252-.611786,1.595581-1.329132,2.119049-2.152191.41626-.659027.72998-1.448944.941284-2.369751.211243-.920746.316925-1.772156.316925-2.55426v-2.587341h.463562Z"/>
  </g>
  <g>
    <path d="M183.605255,13.7052h-.463562v-2.582611c0-.996429-.132446-1.966095-.397339-2.908997-.264862-.942841-.662201-1.770599-1.191956-2.483307-.457275-.618011-1.053253-1.179321-1.787964-1.683899l.108765-.099335c.759918.318542,1.435577.841949,2.026855,1.570404.591248.728424,1.023254,1.610565,1.296051,2.646454.272705,1.035889.409149,2.05368.409149,3.053284v2.488007Z"/>
    <rect x="142.572815" y="37.607147" width=".458801" height="9.758148"/>
    <rect x="142.572815" y="28.726929" width=".458801" height="9.758148"/>
    <rect x="142.572815" y="19.427124" width=".458801" height="9.758148"/>
    <rect x="142.572815" y="10.127441" width=".458801" height="9.758148"/>
  </g>
  <g class="st52">
    <path d="M142.572601,43.786926h.458801v2.587341c0,.996521.133179,1.966187.399689,2.909027.266449.942902.664581,1.77066,1.194366,2.483276.457184.614899,1.053162,1.176178,1.787964,1.683899l-.108795.094604c-.76001-.318542-1.435577-.841125-2.026855-1.568024-.591248-.726807-1.023315-1.608948-1.296021-2.646484-.272797-1.037415-.409149-2.054382-.409149-3.050873v-2.492767Z"/>
  </g>
  <path d="M142.572601,13.7052v-2.488007c0-.971222.118225-1.92514.354736-2.861694.201782-.804138.486389-1.510468.85379-2.11908.36731-.608551.797028-1.121033,1.28894-1.537292.359497-.305817.770996-.556519,1.234558-.752075l.108795.099335c-.889252.611816-1.595673,1.329163-2.11908,2.152191-.41626.659088-.730804,1.449036-.943665,2.369751-.21283.920837-.319275,1.772247-.319275,2.55426v2.582611h-.458801Z"/>
  <g class="st55">
    <path d="M173.138824,46.815857c.085144.088318.171814.219208.260162.392578.037811-.356293.056732-.64801.056732-.875061,0-.567596-.148987-1.007507-.446991-1.319672-.297974-.312195-.69458-.468292-1.189606-.468292-.33429,0-.611816.06311-.832489.189209-.220764.12616-.417877.313812-.591248.562866h-.21759c.242767-.498199.504486-.860046.785187-1.085541.28064-.225433.619629-.338196,1.016968-.338196.283813,0,.560516.077301.830139.231781.269592.154541.487183.403656.65274.747345.165558.34375.248322.810455.248322,1.400085,0,1.11322-.242859,2.112793-.728424,2.998871-.542419.99649-1.233002,1.49472-2.071777,1.49472-.491913,0-.882172-.141907-1.170685-.42572-.288544-.283783-.4328-.670044-.4328-1.158875,0-.324738.061493-.656647.184479-.995667.122955-.338928.284515-.629089.484833-.870331.200195-.241241.408325-.432007.624359-.572357.215942-.140259.43515-.245148.657471-.314545.222321-.069305.440643-.104065.655121-.104065.261719,0,.496674.04895.704773.146637.20813.097778.381531.219208.520325.364227h0ZM172.216461,49.86203c.513947-.523407.881348-1.26767,1.102112-2.232605-.122986-.350037-.306732-.614899-.551056-.794647-.244415-.179749-.513214-.269623-.806488-.269623-.283813,0-.56369.098602-.8396.295624-.27597.197113-.514008.540863-.714233,1.031158-.200287.490387-.300354.97522-.300354,1.454498,0,.365845.0867.64566.260162.8396.17337.193939.394135.290894.662201.290894.387878,0,.783569-.204956,1.187256-.614899h0Z"/>
  </g>
  <path d="M172.718811,33.135956c.085144.088318.171814.219208.260162.392578.037811-.356293.056732-.64801.056732-.875061,0-.567596-.148987-1.007507-.446991-1.319672-.297974-.312195-.69458-.468292-1.189606-.468292-.33429,0-.611816.06311-.832489.189209-.220764.12616-.417877.313812-.591248.562866h-.21759c.242767-.498199.504486-.860046.785187-1.085541.28064-.225433.619629-.338196,1.016968-.338196.283813,0,.560516.077301.830139.231781.269592.154541.487183.403656.65274.747345.165558.34375.248322.810455.248322,1.400085,0,1.11322-.242859,2.112793-.728424,2.998871-.542419.99649-1.233002,1.49472-2.071777,1.49472-.491913,0-.882172-.141907-1.170685-.42572-.288544-.283783-.4328-.670044-.4328-1.158875,0-.324738.061493-.656647.184479-.995667.122955-.338928.284515-.629089.484833-.870331.200195-.241241.408325-.432007.624359-.572357.215942-.140259.43515-.245148.657471-.314545.222321-.069305.440643-.104065.655121-.104065.261719,0,.496674.04895.704773.146637.20813.097778.381531.219208.520325.364227h0ZM171.796448,36.182129c.513947-.523407.881348-1.26767,1.102112-2.232605-.122986-.350037-.306732-.614899-.551056-.794647-.244415-.179749-.513214-.269623-.806488-.269623-.283813,0-.56369.098602-.8396.295624-.27597.197113-.514008.540863-.714233,1.031158-.200287.490387-.300354.97522-.300354,1.454498,0,.365845.0867.64566.260162.8396.17337.193939.394135.290894.662201.290894.387878,0,.783569-.204956,1.187256-.614899h0Z"/>
  <g class="st53">
    <path d="M152.378815,46.815857c.085144.088318.171814.219208.260162.392578.037811-.356293.056732-.64801.056732-.875061,0-.567596-.148987-1.007507-.446991-1.319672-.297974-.312195-.69458-.468292-1.189606-.468292-.33429,0-.611816.06311-.832489.189209-.220764.12616-.417877.313812-.591248.562866h-.21759c.242767-.498199.504486-.860046.785187-1.085541.28064-.225433.619629-.338196,1.016968-.338196.283813,0,.560516.077301.830139.231781.269592.154541.487183.403656.65274.747345.165558.34375.248322.810455.248322,1.400085,0,1.11322-.242859,2.112793-.728424,2.998871-.542419.99649-1.233002,1.49472-2.071777,1.49472-.491913,0-.882172-.141907-1.170685-.42572-.288544-.283783-.4328-.670044-.4328-1.158875,0-.324738.061493-.656647.184479-.995667.122955-.338928.284515-.629089.484833-.870331.200195-.241241.408325-.432007.624359-.572357.215942-.140259.43515-.245148.657471-.314545.222321-.069305.440643-.104065.655121-.104065.261719,0,.496674.04895.704773.146637.20813.097778.381531.219208.520325.364227h0ZM151.456451,49.86203c.513947-.523407.881348-1.26767,1.102112-2.232605-.122986-.350037-.306732-.614899-.551056-.794647-.244415-.179749-.513214-.269623-.806488-.269623-.283813,0-.56369.098602-.8396.295624-.27597.197113-.514008.540863-.714233,1.031158-.200287.490387-.300354.97522-.300354,1.454498,0,.365845.0867.64566.260162.8396.17337.193939.394135.290894.662201.290894.387878,0,.783569-.204956,1.187256-.614899h0Z"/>
  </g>
  <g>
    <path d="M151.838837,33.135956c.085144.088318.171814.219208.260162.392578.037811-.356293.056732-.64801.056732-.875061,0-.567596-.148987-1.007507-.446991-1.319672-.297974-.312195-.69458-.468292-1.189606-.468292-.33429,0-.611816.06311-.832489.189209-.220764.12616-.417877.313812-.591248.562866h-.21759c.242767-.498199.504486-.860046.785187-1.085541.28064-.225433.619629-.338196,1.016968-.338196.283813,0,.560516.077301.830139.231781.269592.154541.487183.403656.65274.747345.165558.34375.248322.810455.248322,1.400085,0,1.11322-.242859,2.112793-.728424,2.998871-.542419.99649-1.233002,1.49472-2.071777,1.49472-.491913,0-.882172-.141907-1.170685-.42572-.288544-.283783-.4328-.670044-.4328-1.158875,0-.324738.061493-.656647.184479-.995667.122955-.338928.284515-.629089.484833-.870331.200195-.241241.408325-.432007.624359-.572357.215942-.140259.43515-.245148.657471-.314545.222321-.069305.440643-.104065.655121-.104065.261719,0,.496674.04895.704773.146637.20813.097778.381531.219208.520325.364227h0ZM150.916473,36.182129c.513947-.523407.881348-1.26767,1.102112-2.232605-.122986-.350037-.306732-.614899-.551056-.794647-.244415-.179749-.513214-.269623-.806488-.269623-.283813,0-.56369.098602-.8396.295624-.27597.197113-.514008.540863-.714233,1.031158-.200287.490387-.300354.97522-.300354,1.454498,0,.365845.0867.64566.260162.8396.17337.193939.394135.290894.662201.290894.387878,0,.783569-.204956,1.187256-.614899h0Z"/>
    <path d="M173.139038,22.095428c.085144.088318.171814.219208.260162.392578.037811-.356293.056732-.64801.056732-.875061,0-.567596-.148987-1.007507-.446991-1.319672-.297974-.312195-.69458-.468292-1.189606-.468292-.33429,0-.611816.06311-.832489.189209-.220764.12616-.417877.313812-.591248.562866h-.21759c.242767-.498199.504486-.860046.785187-1.085541.28064-.225433.619629-.338196,1.016968-.338196.283813,0,.560516.077301.830139.231781.269592.154541.487183.403656.65274.747345.165558.34375.248322.810455.248322,1.400085,0,1.11322-.242859,2.112793-.728424,2.998871-.542419.99649-1.233002,1.49472-2.071777,1.49472-.491913,0-.882172-.141907-1.170685-.42572-.288544-.283783-.4328-.670044-.4328-1.158875,0-.324738.061493-.656647.184479-.995667.122955-.338928.284515-.629089.484833-.870331.200195-.241241.408325-.432007.624359-.572357.215942-.140259.43515-.245148.657471-.314545.222321-.069305.440643-.104065.655121-.104065.261719,0,.496674.04895.704773.146637.20813.097778.381531.219208.520325.364227h0ZM172.216675,25.141602c.513947-.523407.881348-1.26767,1.102112-2.232605-.122986-.350037-.306732-.614899-.551056-.794647-.244415-.179749-.513214-.269623-.806488-.269623-.283813,0-.56369.098602-.8396.295624-.27597.197113-.514008.540863-.714233,1.031158-.200287.490387-.300354.97522-.300354,1.454498,0,.365845.0867.64566.260162.8396.17337.193939.394135.290894.662201.290894.387878,0,.783569-.204956,1.187256-.614899h0Z"/>
    <path d="M173.018921,8.415131c.085144.088318.171814.219208.260162.392578.037811-.356293.056732-.64801.056732-.875061,0-.567596-.148987-1.007507-.446991-1.319672-.297974-.312195-.69458-.468292-1.189606-.468292-.33429,0-.611816.06311-.832489.189209-.220764.12616-.417877.313812-.591248.562866h-.21759c.242767-.498199.504486-.860046.785187-1.085541.28064-.225433.619629-.338196,1.016968-.338196.283813,0,.560516.077301.830139.231781.269592.154541.487183.403656.65274.747345.165558.34375.248322.810455.248322,1.400085,0,1.11322-.242859,2.112793-.728424,2.998871-.542419.99649-1.233002,1.49472-2.071777,1.49472-.491913,0-.882172-.141907-1.170685-.42572-.288544-.283783-.4328-.670044-.4328-1.158875,0-.324738.061493-.656647.184479-.995667.122955-.338928.284515-.629089.484833-.870331.200195-.241241.408325-.432007.624359-.572357.215942-.140259.43515-.245148.657471-.314545.222321-.069305.440643-.104065.655121-.104065.261719,0,.496674.04895.704773.146637.20813.097778.381531.219208.520325.364227h0ZM172.096558,11.461304c.513947-.523407.881348-1.26767,1.102112-2.232605-.122986-.350037-.306732-.614899-.551056-.794647-.244415-.179749-.513214-.269623-.806488-.269623-.283813,0-.56369.098602-.8396.295624-.27597.197113-.514008.540863-.714233,1.031158-.200287.490387-.300354.97522-.300354,1.454498,0,.365845.0867.64566.260162.8396.17337.193939.394135.290894.662201.290894.387878,0,.783569-.204956,1.187256-.614899h0Z"/>
    <path d="M152.378418,22.095428c.085144.088318.171814.219208.260162.392578.037811-.356293.056732-.64801.056732-.875061,0-.567596-.148987-1.007507-.446991-1.319672-.297974-.312195-.69458-.468292-1.189606-.468292-.33429,0-.611816.06311-.832489.189209-.220764.12616-.417877.313812-.591248.562866h-.21759c.242767-.498199.504486-.860046.785187-1.085541.28064-.225433.619629-.338196,1.016968-.338196.283813,0,.560516.077301.830139.231781.269592.154541.487183.403656.65274.747345.165558.34375.248322.810455.248322,1.400085,0,1.11322-.242859,2.112793-.728424,2.998871-.542419.99649-1.233002,1.49472-2.071777,1.49472-.491913,0-.882172-.141907-1.170685-.42572-.288544-.283783-.4328-.670044-.4328-1.158875,0-.324738.061493-.656647.184479-.995667.122955-.338928.284515-.629089.484833-.870331.200195-.241241.408325-.432007.624359-.572357.215942-.140259.43515-.245148.657471-.314545.222321-.069305.440643-.104065.655121-.104065.261719,0,.496674.04895.704773.146637.20813.097778.381531.219208.520325.364227h0ZM151.456055,25.141602c.513947-.523407.881348-1.26767,1.102112-2.232605-.122986-.350037-.306732-.614899-.551056-.794647-.244415-.179749-.513214-.269623-.806488-.269623-.283813,0-.56369.098602-.8396.295624-.27597.197113-.514008.540863-.714233,1.031158-.200287.490387-.300354.97522-.300354,1.454498,0,.365845.0867.64566.260162.8396.17337.193939.394135.290894.662201.290894.387878,0,.783569-.204956,1.187256-.614899h0Z"/>
    <path d="M152.138123,8.415131c.085144.088318.171814.219208.260162.392578.037811-.356293.056732-.64801.056732-.875061,0-.567596-.148987-1.007507-.446991-1.319672-.297974-.312195-.69458-.468292-1.189606-.468292-.33429,0-.611816.06311-.832489.189209-.220764.12616-.417877.313812-.591248.562866h-.21759c.242767-.498199.504486-.860046.785187-1.085541.28064-.225433.619629-.338196,1.016968-.338196.283813,0,.560516.077301.830139.231781.269592.154541.487183.403656.65274.747345.165558.34375.248322.810455.248322,1.400085,0,1.11322-.242859,2.112793-.728424,2.998871-.542419.99649-1.233002,1.49472-2.071777,1.49472-.491913,0-.882172-.141907-1.170685-.42572-.288544-.283783-.4328-.670044-.4328-1.158875,0-.324738.061493-.656647.184479-.995667.122955-.338928.284515-.629089.484833-.870331.200195-.241241.408325-.432007.624359-.572357.215942-.140259.43515-.245148.657471-.314545.222321-.069305.440643-.104065.655121-.104065.261719,0,.496674.04895.704773.146637.20813.097778.381531.219208.520325.364227h0ZM151.215759,11.461304c.513947-.523407.881348-1.26767,1.102112-2.232605-.122986-.350037-.306732-.614899-.551056-.794647-.244415-.179749-.513214-.269623-.806488-.269623-.283813,0-.56369.098602-.8396.295624-.27597.197113-.514008.540863-.714233,1.031158-.200287.490387-.300354.97522-.300354,1.454498,0,.365845.0867.64566.260162.8396.17337.193939.394135.290894.662201.290894.387878,0,.783569-.204956,1.187256-.614899h0Z"/>
    <path d="M132.393921,27.568878h4.966583v.458801h-4.966583v-.458801ZM132.393921,29.333191h4.966583v.468262h-4.966583v-.468262Z"/>
    <rect x="126.440582" y="23.02594" width=".458832" height="9.758148"/>
    <path d="M126.904144,29.206329v2.492767c0,.971283-.118256,1.923584-.354767,2.856964-.201843.807281-.48645,1.515228-.85379,2.12381-.367371.608612-.798645,1.121002-1.293671,1.537262-.356384.305817-.766266.554962-1.229828.747345l-.108765-.094604c.889252-.611786,1.595581-1.329132,2.119049-2.152191.41626-.659027.72998-1.448944.941284-2.369751.211243-.920746.316925-1.772156.316925-2.55426v-2.587341h.463562Z"/>
    <path d="M126.904144,28.284393h-.463562v-2.582611c0-.996429-.132446-1.966095-.397339-2.908997-.264862-.942841-.662201-1.770599-1.191956-2.483307-.457275-.618011-1.053253-1.179321-1.787964-1.683899l.108765-.099335c.759918.318542,1.435577.841949,2.026855,1.570404.591248.728424,1.023254,1.610565,1.296051,2.646454.272705,1.035889.409149,2.05368.409149,3.053284v2.488007Z"/>
    <rect x="113.471497" y="23.02594" width=".458801" height="9.758148"/>
    <path d="M113.471497,29.206329h.458801v2.587341c0,.996521.133179,1.966187.399689,2.909027.266449.942902.664581,1.77066,1.194366,2.483276.457184.614899,1.053162,1.176178,1.787964,1.683899l-.108795.094604c-.76001-.318542-1.435577-.841125-2.026855-1.568024-.591248-.726807-1.023315-1.608948-1.296021-2.646484-.272797-1.037415-.409149-2.054382-.409149-3.050873v-2.492767Z"/>
    <path d="M113.471497,28.284393v-2.488007c0-.971222.118225-1.92514.354736-2.861694.201782-.804138.486389-1.510468.85379-2.11908.36731-.608551.797028-1.121033,1.28894-1.537292.359497-.305817.770996-.556519,1.234558-.752075l.108795.099335c-.889252.611816-1.595673,1.329163-2.11908,2.152191-.41626.659088-.730804,1.449036-.943665,2.369751-.21283.920837-.319275,1.772247-.319275,2.55426v2.582611h-.458801Z"/>
    <text class="st11" transform="translate(197.739258 35.899414)"><tspan x="0" y="0">v</tspan></text>
    <text class="st11" transform="translate(197.259766 26.77832)"><tspan x="0" y="0">u</tspan></text>
  </g>
  <g class="st54">
    <text class="st11" transform="translate(173.740234 50.599609)"><tspan x="0" y="0">y</tspan></text>
  </g>
  <text class="st11" transform="translate(173.259766 36.919922)"><tspan x="0" y="0">g</tspan></text>
  <g class="st60">
    <text class="st11" transform="translate(152.919922 50.599609)"><tspan x="0" y="0">x</tspan></text>
  </g>
  <g>
    <text class="st11" transform="translate(152.379883 36.919922)"><tspan x="0" y="0">g</tspan></text>
    <text class="st11" transform="translate(173.740234 25.879883)"><tspan x="0" y="0">y</tspan></text>
    <text class="st11" transform="translate(173.560547 12.199219)"><tspan x="0" y="0">f</tspan></text>
    <text class="st11" transform="translate(152.92041 25.879883)"><tspan x="0" y="0">x</tspan></text>
    <text class="st11" transform="translate(152.680176 12.199219)"><tspan x="0" y="0">f</tspan></text>
    <text class="st11" transform="translate(118.120117 35.899414)"><tspan x="0" y="0">v</tspan></text>
    <text class="st11" transform="translate(117.639648 26.77832)"><tspan x="0" y="0">u</tspan></text>
    <path d="M121.351929,29.867737c0,.322998-.161499.484344-.484375.484344-.322998,0-.484344-.161346-.484344-.484344,0-.154999.045105-.274445.13562-.358429.090363-.083862.206604-.125946.348724-.125946.141998,0,.25824.045258.348755.13562.090363.090515.13562.206757.13562.348755Z"/>
    <path d="M121.351929,20.807251c0,.322998-.161499.484344-.484375.484344-.322998,0-.484344-.161346-.484344-.484344,0-.154999.045105-.274445.13562-.358429.090363-.083862.206604-.125946.348724-.125946.141998,0,.25824.045258.348755.13562.090363.090515.13562.206757.13562.348755Z"/>
  </g>
  <g class="st57">
    <path d="M183.605255,43.786926v2.492767c0,.971283-.118256,1.923584-.354767,2.856964-.201843.807281-.48645,1.515228-.85379,2.12381-.367371.608612-.798645,1.121002-1.293671,1.537262-.356384.305817-.766266.554962-1.229828.747345l-.108765-.094604c.889252-.611786,1.595581-1.329132,2.119049-2.152191.41626-.659027.72998-1.448944.941284-2.369751.211243-.920746.316925-1.772156.316925-2.55426v-2.587341h.463562Z"/>
  </g>
  <g class="st56">
    <path d="M142.572601,43.786926h.458801v2.587341c0,.996521.133179,1.966187.399689,2.909027.266449.942902.664581,1.77066,1.194366,2.483276.457184.614899,1.053162,1.176178,1.787964,1.683899l-.108795.094604c-.76001-.318542-1.435577-.841125-2.026855-1.568024-.591248-.726807-1.023315-1.608948-1.296021-2.646484-.272797-1.037415-.409149-2.054382-.409149-3.050873v-2.492767Z"/>
  </g>
  <g class="st59">
    <path d="M173.138824,46.815857c.085144.088318.171814.219208.260162.392578.037811-.356293.056732-.64801.056732-.875061,0-.567596-.148987-1.007507-.446991-1.319672-.297974-.312195-.69458-.468292-1.189606-.468292-.33429,0-.611816.06311-.832489.189209-.220764.12616-.417877.313812-.591248.562866h-.21759c.242767-.498199.504486-.860046.785187-1.085541.28064-.225433.619629-.338196,1.016968-.338196.283813,0,.560516.077301.830139.231781.269592.154541.487183.403656.65274.747345.165558.34375.248322.810455.248322,1.400085,0,1.11322-.242859,2.112793-.728424,2.998871-.542419.99649-1.233002,1.49472-2.071777,1.49472-.491913,0-.882172-.141907-1.170685-.42572-.288544-.283783-.4328-.670044-.4328-1.158875,0-.324738.061493-.656647.184479-.995667.122955-.338928.284515-.629089.484833-.870331.200195-.241241.408325-.432007.624359-.572357.215942-.140259.43515-.245148.657471-.314545.222321-.069305.440643-.104065.655121-.104065.261719,0,.496674.04895.704773.146637.20813.097778.381531.219208.520325.364227h0ZM172.216461,49.86203c.513947-.523407.881348-1.26767,1.102112-2.232605-.122986-.350037-.306732-.614899-.551056-.794647-.244415-.179749-.513214-.269623-.806488-.269623-.283813,0-.56369.098602-.8396.295624-.27597.197113-.514008.540863-.714233,1.031158-.200287.490387-.300354.97522-.300354,1.454498,0,.365845.0867.64566.260162.8396.17337.193939.394135.290894.662201.290894.387878,0,.783569-.204956,1.187256-.614899h0Z"/>
  </g>
  <g class="st58">
    <path d="M152.378815,46.815857c.085144.088318.171814.219208.260162.392578.037811-.356293.056732-.64801.056732-.875061,0-.567596-.148987-1.007507-.446991-1.319672-.297974-.312195-.69458-.468292-1.189606-.468292-.33429,0-.611816.06311-.832489.189209-.220764.12616-.417877.313812-.591248.562866h-.21759c.242767-.498199.504486-.860046.785187-1.085541.28064-.225433.619629-.338196,1.016968-.338196.283813,0,.560516.077301.830139.231781.269592.154541.487183.403656.65274.747345.165558.34375.248322.810455.248322,1.400085,0,1.11322-.242859,2.112793-.728424,2.998871-.542419.99649-1.233002,1.49472-2.071777,1.49472-.491913,0-.882172-.141907-1.170685-.42572-.288544-.283783-.4328-.670044-.4328-1.158875,0-.324738.061493-.656647.184479-.995667.122955-.338928.284515-.629089.484833-.870331.200195-.241241.408325-.432007.624359-.572357.215942-.140259.43515-.245148.657471-.314545.222321-.069305.440643-.104065.655121-.104065.261719,0,.496674.04895.704773.146637.20813.097778.381531.219208.520325.364227h0ZM151.456451,49.86203c.513947-.523407.881348-1.26767,1.102112-2.232605-.122986-.350037-.306732-.614899-.551056-.794647-.244415-.179749-.513214-.269623-.806488-.269623-.283813,0-.56369.098602-.8396.295624-.27597.197113-.514008.540863-.714233,1.031158-.200287.490387-.300354.97522-.300354,1.454498,0,.365845.0867.64566.260162.8396.17337.193939.394135.290894.662201.290894.387878,0,.783569-.204956,1.187256-.614899h0Z"/>
  </g>
  <g class="st23">
    <text class="st11" transform="translate(173.740234 50.599609)"><tspan x="0" y="0">y</tspan></text>
  </g>
  <g class="st20">
    <text class="st11" transform="translate(152.919922 50.599609)"><tspan x="0" y="0">x</tspan></text>
  </g>
  <g class="st27">
    <text class="st17" transform="translate(144.759766 143.120117)"><tspan x="0" y="0">0</tspan></text>
  </g>
  <g class="st25">
    <text class="st17" transform="translate(47.259766 143.120117)"><tspan x="0" y="0">det</tspan></text>
  </g>
  <g>
    <text class="st17" transform="translate(141.040039 121.939453)"><tspan x="0" y="0">0</tspan></text>
    <text class="st17" transform="translate(125.02002 106.459961)"><tspan x="0" y="0">0</tspan></text>
    <text class="st17" transform="translate(100.539551 106.459961)"><tspan x="0" y="0">)</tspan></text>
    <text class="st17" transform="translate(66.999512 106.459961)"><tspan x="0" y="0">(</tspan></text>
    <text class="st17" transform="translate(153.15918 76.760742)"><tspan x="0" y="0">)</tspan></text>
    <text class="st17" transform="translate(146.438965 76.760742)"><tspan x="0" y="0">(</tspan></text>
    <text class="st17" transform="translate(128.618164 76.760742)"><tspan x="0" y="0">let </tspan></text>
  </g>
  <g class="st26">
    <path d="M134.382111,139.384201h5.167969v.477417h-5.167969v-.477417ZM134.382111,141.220062h5.167969v.487259h-5.167969v-.487259Z"/>
  </g>
  <g class="st24">
    <rect x="128.177734" y="134.623108" width=".477448" height="10.153824"/>
  </g>
  <g class="st21">
    <path d="M128.660095,140.097031h-.482361v-2.687347c0-1.036819-.137787-2.045807-.413422-3.026947-.275635-.981064-.689056-1.842392-1.240326-2.583984-.4758-.643082-1.095947-1.227158-1.860474-1.752197l.11322-.103348c.790741.331451,1.493774.876083,2.109009,1.634064.615234.757965,1.064758,1.675888,1.348602,2.753784.283783,1.077896.425751,2.136932.425751,3.177063v2.588913Z"/>
  </g>
  <g class="st18">
    <rect x="60.268509" y="134.623108" width=".477432" height="10.153824"/>
  </g>
  <g class="st22">
    <path d="M60.268509,140.097031v-2.588913c0-1.01059.123047-2.003204.369141-2.977722.209961-.836731.506119-1.571701.888412-2.205002.382202-.63324.82933-1.166489,1.341202-1.599609.374069-.318237.802261-.579086,1.284607-.782578l.113205.103348c-.925308.636627-1.660355,1.383057-2.205002,2.239456-.433121.685837-.760422,1.507782-.981903,2.465866-.221497.958145-.33223,1.844086-.33223,2.657806v2.687347h-.477432Z"/>
  </g>
  <g>
    <rect x="74.202118" y="135.724991" width="5.167969" height=".487274"/>
    <path d="M130.662201,118.204391h5.167969v.477417h-5.167969v-.477417ZM130.662201,120.040253h5.167969v.487259h-5.167969v-.487259Z"/>
    <rect x="119.118011" y="113.443008" width=".477448" height="10.153824"/>
    <path d="M119.600372,119.862915v2.593826c0,1.010666-.123047,2.001587-.369141,2.972809-.210022.840027-.506195,1.576691-.888397,2.209915-.382294.633316-.831024,1.166489-1.34613,1.599609-.37085.318237-.797363.577484-1.279694.777664l-.11322-.098434c.925323-.636612,1.660309-1.383057,2.205017-2.239456.433136-.68576.759583-1.507706.979462-2.465866.219788-.958069.329742-1.844009.329742-2.657806v-2.692261h.482361Z"/>
    <path d="M119.600372,118.916626h-.482361v-2.687347c0-1.036819-.137787-2.045807-.413422-3.026947-.275635-.981064-.689056-1.842392-1.240326-2.583984-.4758-.643082-1.095947-1.227158-1.860474-1.752197l.11322-.103348c.790741.331451,1.493774.876083,2.109009,1.634064.615234.757965,1.064758,1.675888,1.348602,2.753784.283783,1.077896.425751,2.136932.425751,3.177063v2.588913Z"/>
    <rect x="51.209213" y="113.443008" width=".477432" height="10.153824"/>
    <path d="M51.209213,119.862915h.477432v2.692261c0,1.036896.13858,2.045883.415894,3.026947.277237.981155.691528,1.842484,1.242783,2.583984.475723.639847,1.095886,1.223862,1.860458,1.752197l-.113205.098434c-.790802-.331451-1.49379-.875244-2.109024-1.631607-.615234-.756271-1.064804-1.674194-1.348587-2.753784-.283859-1.079498-.425751-2.137711-.425751-3.174606v-2.593826Z"/>
    <path d="M51.209213,118.916626v-2.588913c0-1.01059.123047-2.003204.369141-2.977722.209961-.836731.506119-1.571701.888412-2.205002.382202-.63324.82933-1.166489,1.341202-1.599609.374069-.318237.802261-.579086,1.284607-.782578l.113205.103348c-.925308.636627-1.660355,1.383057-2.205002,2.239456-.433121.685837-.760422,1.507782-.981903,2.465866-.221497.958145-.33223,1.844086-.33223,2.657806v2.687347h-.477432Z"/>
    <rect x="100.122818" y="123.964691" width="5.167969" height=".487274"/>
    <rect x="65.143219" y="114.544891" width="5.167969" height=".487274"/>
    <path d="M114.643097,102.724503h5.167969v.477417h-5.167969v-.477417ZM114.643097,104.560364h5.167969v.487259h-5.167969v-.487259Z"/>
    <rect x="81.342819" y="103.625198" width="5.167969" height=".487274"/>
    <path d="M134.443207,90.724304h5.167969v.477417h-5.167969v-.477417ZM134.443207,92.560165h5.167969v.487259h-5.167969v-.487259Z"/>
    <path d="M68.502914,90.724304h5.167969v.477417h-5.167969v-.477417ZM68.502914,92.560165h5.167969v.487259h-5.167969v-.487259Z"/>
    <path d="M161.862793,73.023804h5.167969v.477417h-5.167969v-.477417ZM161.862793,74.859665h5.167969v.487259h-5.167969v-.487259Z"/>
    <rect x="111.018707" y="68.26239" width=".477448" height="10.153839"/>
    <path d="M111.501068,74.742813v2.593826c0,1.010666-.123047,2.001587-.369141,2.972809-.210022.840027-.506195,1.576691-.888397,2.209915-.382294.633316-.831024,1.166489-1.34613,1.599609-.37085.318237-.797363.577484-1.279694.777664l-.11322-.098434c.925323-.636612,1.660309-1.383057,2.205017-2.239456.433136-.68576.759583-1.507706.979462-2.465866.219788-.958069.329742-1.844009.329742-2.657806v-2.692261h.482361Z"/>
    <path d="M111.501068,73.73703h-.482361v-2.687347c0-1.036819-.137787-2.045776-.413422-3.026978-.275635-.981018-.689056-1.842346-1.240326-2.583984-.4758-.643066-1.095947-1.227112-1.860474-1.752136l.11322-.103394c.790741.331482,1.493774.876099,2.109009,1.634094.615234.757935,1.064758,1.675903,1.348602,2.753784.283783,1.077881.425751,2.136917.425751,3.177048v2.588913Z"/>
    <rect x="81.809113" y="68.263428" width=".477432" height="10.153809"/>
    <path d="M81.809113,74.743805h.477432v2.692261c0,1.036896.13858,2.045883.415894,3.026947.277237.981155.691528,1.842484,1.242783,2.583984.475723.639847,1.095886,1.223862,1.860458,1.752197l-.113205.098434c-.790802-.331451-1.49379-.875244-2.109024-1.631607-.615234-.756271-1.064804-1.674194-1.348587-2.753784-.283859-1.079498-.425751-2.137711-.425751-3.174606v-2.593826Z"/>
    <path d="M81.809113,73.738129v-2.588913c0-1.01059.123047-2.00322.369141-2.977707.209961-.836731.506119-1.571716.888412-2.205017.382202-.63324.82933-1.166504,1.341202-1.599609.374069-.318237.802261-.579102,1.284607-.782593l.113205.103394c-.925308.636597-1.660355,1.382996-2.205002,2.239441-.433121.685791-.760422,1.507751-.981903,2.46582-.221497.958191-.33223,1.844116-.33223,2.657837v2.687347h-.477432Z"/>
    <path d="M71.202316,73.025803h5.167969v.477417h-5.167969v-.477417ZM71.202316,74.861664h5.167969v.487259h-5.167969v-.487259Z"/>
    <path d="M19.902115,73.025803h5.167969v.477417h-5.167969v-.477417ZM19.902115,74.861664h5.167969v.487259h-5.167969v-.487259Z"/>
  </g>
  <g class="st19">
    <path d="M87.272568,135.119614l-2.835297,3.440384h-.876099l3.841583-4.641327.064453-.433121c.063156-.472504.04071-.793198-.067123-.962234-.107941-.168961-.263611-.253479-.467026-.253479-.183792,0-.367538.067291-.551361.201797-.183838.134583-.34874.352768-.494583.654617h-.177185c.184906-.511871.451447-.922012.79982-1.230469.250168-.223099.499985-.334686.749374-.334686.219803,0,.378769.086975.476807.260849.145355.265793.178421.735062.09935,1.407669l-.397537,3.464996c-.059204.518478-.039719.854782.058517,1.008987.093796.157486.240738.236237.440918.236237.190262,0,.368881-.06398.53569-.19194.166809-.127975.309921-.333008.429428-.615234h.191956c-.025955.085358-.046158.149338-.060715.19194-.147034.429901-.372086.776047-.67511,1.038528-.228134.196869-.471832.295303-.730988.295303-.229721,0-.401703-.096817-.51593-.29039-.114288-.193573-.131195-.638153-.050781-1.333832l.211838-1.914597Z"/>
  </g>
  <g>
    <path d="M113.192566,123.359512l-2.835297,3.440384h-.876099l3.841553-4.641327.064484-.433121c.063141-.472504.04071-.793198-.067139-.962234-.107941-.168961-.263611-.253479-.46701-.253479-.183807,0-.367554.067291-.551361.201797-.183838.134583-.348755.352768-.494598.654617h-.177185c.184906-.511871.451447-.922012.799805-1.230469.250183-.223099.5-.334686.74939-.334686.219788,0,.378784.086975.476807.260849.145355.265793.178436.735062.099365,1.407669l-.397552,3.464996c-.059204.518478-.039703.854782.058502,1.008987.093811.157486.240753.236237.440948.236237.190247,0,.368866-.06398.535675-.19194.166809-.127975.309906-.333008.429443-.615234h.191956c-.02597.085358-.046173.149338-.06073.19194-.147034.429901-.37207.776047-.67511,1.038528-.228149.196869-.471832.295303-.730988.295303-.229706,0-.401703-.096817-.51593-.29039-.114288-.193573-.131195-.638153-.050781-1.333832l.211853-1.914597Z"/>
    <path d="M78.212967,113.939713l-2.835297,3.440384h-.876099l3.841583-4.641327.064453-.433121c.063156-.472504.04071-.793198-.067123-.962234-.107941-.168961-.263611-.253479-.467026-.253479-.183792,0-.367538.067291-.551361.201797-.183838.134583-.34874.352768-.494583.654617h-.177185c.184906-.511871.451447-.922012.79982-1.230469.250168-.223099.499985-.334686.749374-.334686.219803,0,.378769.086975.476807.260849.145355.265793.178421.735062.09935,1.407669l-.397537,3.464996c-.059204.518478-.039719.854782.058517,1.008987.093796.157486.240738.236237.440918.236237.190262,0,.368881-.06398.53569-.19194.166809-.127975.309921-.333008.429428-.615234h.191956c-.025955.085358-.046158.149338-.060715.19194-.147034.429901-.372086.776047-.67511,1.038528-.228134.196869-.471832.295303-.730988.295303-.229721,0-.401703-.096817-.51593-.29039-.114288-.193573-.131195-.638153-.050781-1.333832l.211838-1.914597Z"/>
    <path d="M94.41246,103.020111l-2.835297,3.440384h-.876099l3.841583-4.641327.064453-.433121c.063156-.472504.04071-.793198-.067123-.962234-.107941-.168961-.263611-.253479-.467026-.253479-.183792,0-.367538.067291-.551361.201797-.183838.134583-.34874.352768-.494583.654617h-.177185c.184906-.511871.451447-.922012.79982-1.230469.250168-.223099.499985-.334686.749374-.334686.219803,0,.378769.086975.476807.260849.145355.265793.178421.735062.09935,1.407669l-.397537,3.464996c-.059204.518478-.039719.854782.058517,1.008987.093796.157486.240738.236237.440918.236237.190262,0,.368881-.06398.53569-.19194.166809-.127975.309921-.333008.429428-.615234h.191956c-.025955.085358-.046158.149338-.060715.19194-.147034.429901-.372086.776047-.67511,1.038528-.228134.196869-.471832.295303-.730988.295303-.229721,0-.401703-.096817-.51593-.29039-.114288-.193573-.131195-.638153-.050781-1.333832l.211838-1.914597Z"/>
    <path d="M122.312469,91.019821l-2.835297,3.440384h-.876099l3.841553-4.641327.064484-.433121c.063141-.472504.04071-.793198-.067139-.962234-.107941-.168961-.263611-.253479-.46701-.253479-.183807,0-.367554.067291-.551361.201797-.183838.134583-.348755.352768-.494598.654617h-.177185c.184906-.511871.451447-.922012.799805-1.230469.250183-.223099.5-.334686.74939-.334686.219788,0,.378784.086975.476807.260849.145355.265793.178436.735062.099365,1.407669l-.397552,3.464996c-.059204.518478-.039703.854782.058502,1.008987.093811.157486.240753.236237.440948.236237.190247,0,.368866-.06398.535675-.19194.166809-.127975.309906-.333008.429443-.615234h.191956c-.02597.085358-.046173.149338-.06073.19194-.147034.429901-.37207.776047-.67511,1.038528-.228149.196869-.471832.295303-.730988.295303-.229706,0-.401703-.096817-.51593-.29039-.114288-.193573-.131195-.638153-.050781-1.333832l.211853-1.914597Z"/>
    <path d="M45.872757,91.019821l-2.835297,3.440384h-.876099l3.841583-4.641327.064453-.433121c.063156-.472504.04071-.793198-.067123-.962234-.107941-.168961-.263611-.253479-.467026-.253479-.183792,0-.367538.067291-.551361.201797-.183838.134583-.34874.352768-.494583.654617h-.177185c.184906-.511871.451447-.922012.79982-1.230469.250168-.223099.499985-.334686.749374-.334686.219803,0,.378769.086975.476807.260849.145355.265793.178421.735062.09935,1.407669l-.397537,3.464996c-.059204.518478-.039719.854782.058517,1.008987.093796.157486.240738.236237.440918.236237.190262,0,.368881-.06398.53569-.19194.166809-.127975.309921-.333008.429428-.615234h.191956c-.025955.085358-.046158.149338-.060715.19194-.147034.429901-.372086.776047-.67511,1.038528-.228134.196869-.471832.295303-.730988.295303-.229721,0-.401703-.096817-.51593-.29039-.114288-.193573-.131195-.638153-.050781-1.333832l.211838-1.914597Z"/>
    <path d="M93.125671,87.953003l-1.653931,2.006897h-.511047l2.240921-2.707443.037598-.252655c.03685-.27562.023758-.462692-.039154-.561295-.062958-.098557-.153763-.147858-.27243-.147858-.107208,0-.214401.039246-.321625.117706-.107239.078506-.20343.20578-.288498.381851h-.103363c.107864-.298584.263351-.537827.466553-.717773.145935-.130142.291656-.195236.437149-.195236.128204,0,.220947.050751.278137.152176.084778.155045.10408.428772.057953.821136l-.231903,2.02124c-.034546.30246-.023178.498627.034119.588577.054718.091873.140442.137817.257217.137817.110977,0,.215164-.037323.312485-.111969.097305-.074661.180771-.19426.250504-.358887h.111969c-.015152.049789-.026932.087112-.035431.111969-.085754.250763-.217041.452682-.393799.605804-.133087.114838-.275238.172256-.426422.172256-.134003,0-.234329-.056473-.300949-.169388-.066666-.112915-.076538-.372253-.029617-.778076l.123566-1.116852Z"/>
    <path d="M54.605759,87.953003l-1.653931,2.006897h-.511047l2.240921-2.707443.037598-.252655c.03685-.27562.023758-.462692-.039154-.561295-.062958-.098557-.153763-.147858-.27243-.147858-.107208,0-.214401.039246-.321625.117706-.107239.078506-.20343.20578-.288498.381851h-.103363c.107864-.298584.263351-.537827.466553-.717773.145935-.130142.291656-.195236.437149-.195236.128204,0,.220947.050751.278137.152176.084778.155045.10408.428772.057953.821136l-.231903,2.02124c-.034546.30246-.023178.498627.034119.588577.054718.091873.140442.137817.257217.137817.110977,0,.215164-.037323.312485-.111969.097305-.074661.180771-.19426.250504-.358887h.111969c-.015152.049789-.026932.087112-.035431.111969-.085754.250763-.217041.452682-.393799.605804-.133087.114838-.275238.172256-.426422.172256-.134003,0-.234329-.056473-.300949-.169388-.066666-.112915-.076538-.372253-.029617-.778076l.123566-1.116852Z"/>
    <path d="M179.405853,70.253006l-1.653931,2.006897h-.511047l2.240936-2.707443.037598-.252655c.036835-.275635.023743-.462708-.039154-.561279-.062988-.098572-.153778-.147888-.27243-.147888-.107239,0-.214417.039246-.321625.117737-.107239.078491-.203461.20575-.288513.381836h-.103363c.107849-.298584.263336-.537842.466553-.717773.145935-.130127.291656-.195251.437134-.195251.128235,0,.220947.050781.278137.152161.084808.15509.104095.428833.057953.821167l-.231903,2.02124c-.034515.30246-.023163.498627.034149.588577.054718.091873.140411.137817.257202.137817.110992,0,.215179-.037323.312469-.111969.097321-.074661.180786-.19426.250519-.358887h.111969c-.015137.049789-.026917.087112-.035431.111969-.085754.250763-.217041.452682-.393799.605804-.133087.114838-.275238.172256-.426422.172256-.134003,0-.234314-.056473-.300964-.169388s-.076508-.372253-.029602-.778076l.123566-1.116852Z"/>
    <text class="st12" transform="translate(109.060059 138.55957)"><tspan x="0" y="0">b</tspan></text>
    <text class="st12" transform="translate(64.899414 138.55957)"><tspan x="0" y="0">a</tspan></text>
    <text class="st12" transform="translate(120.099609 121.94043)"><tspan x="0" y="0">v</tspan></text>
    <text class="st12" transform="translate(89.979492 126.799805)"><tspan x="0" y="0">d</tspan></text>
    <text class="st12" transform="translate(65.739258 126.799805)"><tspan x="0" y="0">c</tspan></text>
    <text class="st12" transform="translate(99.999023 117.379883)"><tspan x="0" y="0">b</tspan></text>
    <text class="st12" transform="translate(55.838379 117.379883)"><tspan x="0" y="0">a</tspan></text>
    <text class="st12" transform="translate(104.019043 106.459961)"><tspan x="0" y="0">v</tspan></text>
    <text class="st12" transform="translate(95.979004 106.459961)"><tspan x="0" y="0">I</tspan></text>
    <text class="st12" transform="translate(71.439453 106.459961)"><tspan x="0" y="0">A</tspan></text>
    <text class="st12" transform="translate(149.739746 94.459961)"><tspan x="0" y="0">v</tspan></text>
    <text class="st12" transform="translate(143.55957 94.459961)"><tspan x="0" y="0">A</tspan></text>
    <text class="st12" transform="translate(123.879395 94.459961)"><tspan x="0" y="0">v</tspan></text>
    <text class="st12" transform="translate(96.339844 94.459961)"><tspan x="0" y="0">v</tspan></text>
    <text class="st12" transform="translate(85.959473 94.459961)"><tspan x="0" y="0">e</tspan></text>
    <text class="st12" transform="translate(79.779785 94.459961)"><tspan x="0" y="0">A</tspan></text>
    <text class="st12" transform="translate(57.879883 94.459961)"><tspan x="0" y="0">v</tspan></text>
    <text class="st12" transform="translate(47.439941 94.459961)"><tspan x="0" y="0">e</tspan></text>
    <text class="st12" transform="translate(182.680664 76.759766)"><tspan x="0" y="0">v</tspan></text>
    <text class="st12" transform="translate(172.240234 76.759766)"><tspan x="0" y="0">e</tspan></text>
    <text class="st12" transform="translate(149.740723 76.759766)"><tspan x="0" y="0">t</tspan></text>
    <text class="st12" transform="translate(141.341309 76.759766)"><tspan x="0" y="0">x</tspan></text>
    <text class="st12" transform="translate(101.26123 81.679688)"><tspan x="0" y="0">d</tspan></text>
    <text class="st12" transform="translate(86.681641 81.679688)"><tspan x="0" y="0">c</tspan></text>
    <text class="st12" transform="translate(101.561523 72.199219)"><tspan x="0" y="0">b</tspan></text>
    <text class="st12" transform="translate(86.441406 72.199219)"><tspan x="0" y="0">a</tspan></text>
    <text class="st12" transform="translate(59.981445 76.759766)"><tspan x="0" y="0">A</tspan></text>
    <text class="st12" transform="translate(37.361816 76.759766)"><tspan x="0" y="0">x</tspan></text>
    <text class="st12" transform="translate(31.242187 76.759766)"><tspan x="0" y="0">A</tspan></text>
    <text class="st12" transform="translate(9.64209 76.759766)"><tspan x="0" y="0">x</tspan></text>
    <text class="st8" transform="translate(94 89.959961)"><tspan x="0" y="0">t</tspan></text>
    <text class="st8" transform="translate(55.540039 89.959961)"><tspan x="0" y="0">t</tspan></text>
    <text class="st8" transform="translate(180.280273 72.259766)"><tspan x="0" y="0">t</tspan></text>
    <polygon points="123.601562 116.165482 123.803162 115.641342 120.880005 115.641342 120.880005 115.278458 123.803162 115.278458 123.601562 114.754318 125.012726 115.4599 123.601562 116.165482"/>
    <polygon points="107.581726 100.684875 107.783325 100.160736 104.860199 100.160736 104.860199 99.797852 107.783325 99.797852 107.581726 99.273712 108.99292 99.979294 107.581726 100.684875"/>
    <polygon points="73.90918 97.821243 74.110779 98.345383 72.6996 97.639801 74.110779 96.934219 73.90918 97.458359 75.622742 97.458359 75.421143 96.934219 76.832321 97.639801 75.421143 98.345383 75.622742 97.821243 73.90918 97.821243"/>
    <polygon points="153.241272 88.684875 153.442871 88.160736 150.519714 88.160736 150.519714 87.797852 153.442871 87.797852 153.241272 87.273712 154.652435 87.979294 153.241272 88.684875"/>
    <polygon points="146.029053 85.821243 146.230652 86.345383 144.819489 85.639801 146.230652 84.934219 146.029053 85.458359 147.742645 85.458359 147.541046 84.934219 148.952209 85.639801 147.541046 86.345383 147.742645 85.821243 146.029053 85.821243"/>
    <polygon points="127.38147 88.684875 127.583069 88.160736 124.659912 88.160736 124.659912 87.797852 127.583069 87.797852 127.38147 87.273712 128.792633 87.979294 127.38147 88.684875"/>
    <polygon points="99.90094 88.684875 100.102539 88.160736 97.179398 88.160736 97.179398 87.797852 100.102539 87.797852 99.90094 87.273712 101.312119 87.979294 99.90094 88.684875"/>
    <polygon points="82.249176 85.821243 82.450775 86.345383 81.039597 85.639801 82.450775 84.934219 82.249176 85.458359 83.962738 85.458359 83.761139 84.934219 85.172318 85.639801 83.761139 86.345383 83.962738 85.821243 82.249176 85.821243"/>
    <polygon points="61.380936 88.684875 61.582535 88.160736 58.659393 88.160736 58.659393 87.797852 61.582535 87.797852 61.380936 87.273712 62.792114 87.979294 61.380936 88.684875"/>
    <polygon points="186.180969 71.045288 186.382568 70.521149 183.459412 70.521149 183.459412 70.158264 186.382568 70.158264 186.180969 69.634125 187.592133 70.339706 186.180969 71.045288"/>
    <polygon points="144.540344 71.045288 144.741943 70.521149 141.818787 70.521149 141.818787 70.158264 144.741943 70.158264 144.540344 69.634125 145.951508 70.339706 144.540344 71.045288"/>
    <polygon points="62.44838 68.121124 62.649979 68.645294 61.2388 67.939697 62.649979 67.2341 62.44838 67.75827 64.161942 67.75827 63.960342 67.2341 65.371521 67.939697 63.960342 68.645294 64.161942 68.121124 62.44838 68.121124"/>
    <polygon points="40.620636 71.045288 40.822235 70.521149 37.899094 70.521149 37.899094 70.158264 40.822235 70.158264 40.620636 69.634125 42.031815 70.339706 40.620636 71.045288"/>
    <polygon points="33.708878 68.121124 33.910477 68.645294 32.499298 67.939697 33.910477 67.2341 33.708878 67.75827 35.42244 67.75827 35.22084 67.2341 36.632019 67.939697 35.22084 68.645294 35.42244 68.121124 33.708878 68.121124"/>
    <path d="M12.716736,67.864075c0,.33609-.168045.503998-.503983.503998-.336105,0-.503998-.167908-.503998-.503998,0-.161285.046936-.285553.141129-.372955.094025-.08725.214981-.131042.362869-.131042.147736,0,.268692.047089.362869.141113.094025.094208.141113.215149.141113.362885Z"/>
    <polygon points="12.840637 71.045288 13.042236 70.521149 10.119095 70.521149 10.119095 70.158264 13.042236 70.158264 12.840637 69.634125 14.251816 70.339706 12.840637 71.045288"/>
    <text class="st7" transform="translate(238.599609 138.979492)"><tspan x="0" y="0">If </tspan></text>
  </g>
  <g class="st42">
    <path class="st5" d="M248.019409,135.559998l-1.648773,3.419907h-.87088l2.240784-4.613708-.08316-.430542c-.09787-.469681-.229187-.788467-.39386-.956497-.164734-.167953-.348206-.251968-.550415-.251968-.182709,0-.342468.066895-.479462.200592-.136993.133789-.226746.350662-.269104.650711h-.176117c.009766-.50882.135284-.916504.376709-1.223145.172852-.221771.38324-.332687.631134-.332687.218506,0,.406097.086456.562653.259308.234863.264191.427277.730667.577332,1.399277l.782806,3.444366c.117432.515411.251129.849716.401184,1.002991.14679.156555.319641.234833.518616.234833.189148,0,.34494-.063599.467255-.190811.122314-.127197.194855-.331009.217712-.611572h.190826c.003204.084854.004883.148468.004883.190811,0,.427338-.106018.771423-.318024,1.032333-.159851.195709-.368622.293564-.626251.293564-.228333,0-.43222-.096252-.611572-.288666-.179413-.192413-.347351-.634354-.503937-1.325882l-.440338-1.903214Z"/>
  </g>
  <g class="st43">
    <text class="st6" transform="translate(250.780273 141.44043)"><tspan x="0" y="0">1</tspan></text>
  </g>
  <g class="st44">
    <polygon class="st5" points="254.021027 135.266434 256.976135 135.266434 257.778534 133.842697 258.306915 133.842697 257.514313 135.266434 259.163116 135.266434 259.163116 135.731232 257.250122 135.731232 256.49176 137.096268 259.163116 137.096268 259.163116 137.56105 256.212891 137.56105 255.415405 138.979904 254.877228 138.979904 255.684509 137.56105 254.021027 137.56105 254.021027 137.096268 255.9487 137.096268 256.716827 135.731232 254.021027 135.731232 254.021027 135.266434"/>
  </g>
  <g class="st45">
    <path class="st5" d="M262.179413,135.559998l-1.648773,3.419907h-.87088l2.240784-4.613708-.08316-.430542c-.09787-.469681-.229187-.788467-.39386-.956497-.164734-.167953-.348206-.251968-.550415-.251968-.182709,0-.342468.066895-.479462.200592-.136993.133789-.226746.350662-.269104.650711h-.176117c.009766-.50882.135284-.916504.376709-1.223145.172852-.221771.38324-.332687.631134-.332687.218506,0,.406097.086456.562653.259308.234863.264191.427277.730667.577332,1.399277l.782806,3.444366c.117432.515411.251129.849716.401184,1.002991.14679.156555.319641.234833.518616.234833.189148,0,.34494-.063599.467255-.190811.122314-.127197.194855-.331009.217712-.611572h.190826c.003204.084854.004883.148468.004883.190811,0,.427338-.106018.771423-.318024,1.032333-.159851.195709-.368622.293564-.626251.293564-.228333,0-.43222-.096252-.611572-.288666-.179413-.192413-.347351-.634354-.503937-1.325882l-.440338-1.903214Z"/>
  </g>
  <g class="st46">
    <text class="st6" transform="translate(264.94043 141.44043)"><tspan x="0" y="0">2</tspan></text>
  </g>
  <g class="st47">
    <text class="st7" transform="translate(268 138.979492)"><tspan x="0" y="0">,</tspan></text>
  </g>
  <g>
    <text class="st7" transform="translate(270.280273 138.979492)"><tspan class="st64" x="0" y="0"> </tspan><tspan class="st51" x="2.165039" y="0">then </tspan></text>
    <text class="st4" transform="translate(290.619141 138.979492)"><tspan x="0" y="0">v</tspan></text>
  </g>
  <g class="st40">
    <text class="st6" transform="translate(294.700195 141.44043)"><tspan x="0" y="0">1</tspan></text>
  </g>
  <g>
    <text class="st7" transform="translate(300.040039 138.979492)"><tspan class="st67" x="0" y="0">&amp;</tspan><tspan x="5.469727" y="0"> </tspan></text>
    <text class="st4" transform="translate(307.780273 138.979492)"><tspan x="0" y="0">v</tspan></text>
  </g>
  <g class="st38">
    <text class="st6" transform="translate(311.860352 141.44043)"><tspan x="0" y="0">2</tspan></text>
  </g>
  <g>
    <line class="st2" x1="44.080002" y1="180.919998" x2="45.339996" y2="180.199997"/>
    <line class="st3" x1="45.339996" y1="180.380005" x2="47.199997" y2="184.340012"/>
    <polyline class="st2" points="47.440002 184.339996 49.900009 172.87999 85.119995 172.87999"/>
    <line class="st2" x1="24.759995" y1="187.580002" x2="85.959991" y2="187.580002"/>
    <line class="st2" x1="149.679993" y1="180.919998" x2="150.940002" y2="180.199997"/>
    <line class="st3" x1="150.940002" y1="180.380005" x2="152.799988" y2="184.340012"/>
    <polyline class="st2" points="153.040009 184.339996 155.5 172.87999 190.720001 172.87999"/>
    <line class="st2" x1="130.480011" y1="187.580002" x2="191.559998" y2="187.580002"/>
    <text class="st17" transform="translate(158.679688 198.019531)"><tspan x="0" y="0">2</tspan></text>
    <text class="st17" transform="translate(178.719727 183.739258)"><tspan x="0" y="0">4</tspan></text>
    <text class="st17" transform="translate(53.020508 198.019531)"><tspan x="0" y="0">2</tspan></text>
    <text class="st17" transform="translate(73.120117 183.739258)"><tspan x="0" y="0">4</tspan></text>
    <text class="st17" transform="translate(129.880371 170.299805)"><tspan x="0" y="0">0</tspan></text>
    <text class="st17" transform="translate(147.280273 158.959961)"><tspan x="0" y="0">0</tspan></text>
    <text class="st17" transform="translate(105.52002 158.959961)"><tspan x="0" y="0">)</tspan></text>
    <text class="st17" transform="translate(73.060547 158.959961)"><tspan x="0" y="0">)(</tspan></text>
    <text class="st17" transform="translate(44.740723 158.959961)"><tspan x="0" y="0">(</tspan></text>
  </g>
  <g class="st41">
    <text class="st17" transform="translate(144.759766 143.120117)"><tspan x="0" y="0">0</tspan></text>
  </g>
  <g class="st39">
    <text class="st17" transform="translate(47.259766 143.120117)"><tspan x="0" y="0">det</tspan></text>
  </g>
  <g>
    <text class="st13" transform="translate(161.379883 179.240234)"><tspan x="0" y="0">2</tspan></text>
    <text class="st13" transform="translate(116.379883 192.620117)"><tspan x="0" y="0">2</tspan></text>
    <text class="st13" transform="translate(55.779785 179.240234)"><tspan x="0" y="0">2</tspan></text>
    <text class="st13" transform="translate(11.02002 192.620117)"><tspan x="0" y="0">1</tspan></text>
    <text class="st13" transform="translate(67.540039 165.799805)"><tspan x="0" y="0">2</tspan></text>
    <path d="M189.914215,183.739899h-5.90625l3.090942-6.826645,2.815308,6.826645ZM188.752655,183.336304l-1.963837-4.759445-2.165619,4.759445h4.129456Z"/>
    <rect x="169.421906" y="180.904892" width="5.167969" height=".487274"/>
    <rect x="140.021606" y="180.904892" width="5.167969" height=".487274"/>
    <path d="M119.801086,186.3647h5.167969v.477417h-5.167969v-.477417ZM119.801086,188.200562h5.167969v.487259h-5.167969v-.487259Z"/>
    <path d="M84.313126,183.739899h-5.90625l3.090927-6.826645,2.815323,6.826645ZM83.15155,183.336304l-1.963821-4.759445-2.165619,4.759445h4.12944Z"/>
    <rect x="63.820816" y="180.904892" width="5.167969" height=".487274"/>
    <polygon points="36.648239 178.57193 37.130585 178.57193 37.130585 180.924591 39.468475 180.924591 39.468475 181.402008 37.130585 181.402008 37.130585 183.739899 36.648239 183.739899 36.648239 181.402008 34.300507 181.402008 34.300507 180.924591 36.648239 180.924591 36.648239 178.57193"/>
    <path d="M14.080017,186.3647h5.167969v.477417h-5.167969v-.477417ZM14.080017,188.200562h5.167969v.487259h-5.167969v-.487259Z"/>
    <path d="M119.499695,166.564499h5.167969v.477417h-5.167969v-.477417ZM119.499695,168.40036h5.167969v.487259h-5.167969v-.487259Z"/>
    <path d="M113.831421,170.300201h-5.90625l3.090942-6.826645,2.815308,6.826645ZM112.669861,169.896606l-1.963837-4.759445-2.165619,4.759445h4.129456Z"/>
    <polygon points="100.726852 165.132233 101.209198 165.132233 101.209198 167.484894 103.547089 167.484894 103.547089 167.962311 101.209198 167.962311 101.209198 170.300201 100.726852 170.300201 100.726852 167.962311 98.37912 167.962311 98.37912 167.484894 100.726852 167.484894 100.726852 165.132233"/>
    <rect x="75.579117" y="167.465195" width="5.167969" height=".487274"/>
    <path d="M136.898804,155.224503h5.167969v.477417h-5.167969v-.477417ZM136.898804,157.060364h5.167969v.487259h-5.167969v-.487259Z"/>
    <rect x="112.958801" y="156.125198" width="5.167969" height=".487274"/>
    <rect x="90.098419" y="156.125198" width="5.167969" height=".487274"/>
    <rect x="57.638718" y="156.125198" width="5.167969" height=".487274"/>
  </g>
  <g class="st34">
    <path d="M134.382111,139.384201h5.167969v.477417h-5.167969v-.477417ZM134.382111,141.220062h5.167969v.487259h-5.167969v-.487259Z"/>
  </g>
  <g class="st28">
    <rect x="128.177734" y="134.623108" width=".477448" height="10.153824"/>
  </g>
  <path d="M128.660095,141.10321v2.593826c0,1.010666-.123047,2.001587-.369141,2.972809-.210022.840027-.506195,1.576691-.888397,2.209915-.382294.633316-.831024,1.166489-1.34613,1.599609-.37085.318237-.797363.577484-1.279694.777664l-.11322-.098434c.925323-.636612,1.660309-1.383057,2.205017-2.239456.433136-.68576.759583-1.507706.979462-2.465866.219788-.958069.329742-1.844009.329742-2.657806v-2.692261h.482361Z"/>
  <g class="st29">
    <path d="M128.660095,140.097031h-.482361v-2.687347c0-1.036819-.137787-2.045807-.413422-3.026947-.275635-.981064-.689056-1.842392-1.240326-2.583984-.4758-.643082-1.095947-1.227158-1.860474-1.752197l.11322-.103348c.790741.331451,1.493774.876083,2.109009,1.634064.615234.757965,1.064758,1.675888,1.348602,2.753784.283783,1.077896.425751,2.136932.425751,3.177063v2.588913Z"/>
  </g>
  <g class="st30">
    <rect x="60.268509" y="134.623108" width=".477432" height="10.153824"/>
  </g>
  <path d="M60.268509,141.10321h.477432v2.692261c0,1.036896.13858,2.045883.415894,3.026947.277237.981155.691528,1.842484,1.242783,2.583984.475723.639847,1.095886,1.223862,1.860458,1.752197l-.113205.098434c-.790802-.331451-1.49379-.875244-2.109024-1.631607-.615234-.756271-1.064804-1.674194-1.348587-2.753784-.283859-1.079498-.425751-2.137711-.425751-3.174606v-2.593826Z"/>
  <g class="st31">
    <path d="M60.268509,140.097031v-2.588913c0-1.01059.123047-2.003204.369141-2.977722.209961-.836731.506119-1.571701.888412-2.205002.382202-.63324.82933-1.166489,1.341202-1.599609.374069-.318237.802261-.579086,1.284607-.782578l.113205.103348c-.925308.636627-1.660355,1.383057-2.205002,2.239456-.433121.685837-.760422,1.507782-.981903,2.465866-.221497.958145-.33223,1.844086-.33223,2.657806v2.687347h-.477432Z"/>
  </g>
  <g class="st32">
    <rect x="109.182098" y="145.204895" width="5.167969" height=".487274"/>
  </g>
  <g>
    <path d="M160.563385,179.231461l-.247467.723511h-1.535614c-.480804,1.07959-.789612,1.819489-.926514,2.219772-.108856.318298-.127838.548782-.056854.691528.070923.142731.196625.214096.377136.214096.134491,0,.266724-.045914.396576-.137817.129852-.091812.255859-.249313.378174-.472488h.172241c-.239868.538162-.486694.909775-.74054,1.114792-.253937.205032-.503876.307617-.749969.307617-.259247,0-.435669-.117355-.529358-.351913-.093719-.234558-.037262-.653763.16925-1.257538.162689-.475723.487152-1.25177.973389-2.328049h-.462677c-.265778,0-.490753.048462-.674713.145203-.184082.096817-.395935.27977-.63559.548782h-.182098c.451691-.62999.798004-1.023743,1.03891-1.181244.240875-.157501.5336-.236252.878143-.236252h2.357574Z"/>
    <path d="M135.603302,179.231461l-.247467.723511h-1.535614c-.480804,1.07959-.789612,1.819489-.926514,2.219772-.108856.318298-.127838.548782-.056854.691528.070923.142731.196625.214096.377136.214096.134491,0,.266724-.045914.396576-.137817.129852-.091812.255859-.249313.378174-.472488h.172241c-.239868.538162-.486694.909775-.74054,1.114792-.253937.205032-.503876.307617-.749969.307617-.259247,0-.435669-.117355-.529358-.351913-.093719-.234558-.037262-.653763.16925-1.257538.162689-.475723.487152-1.25177.973389-2.328049h-.462677c-.265778,0-.490753.048462-.674713.145203-.184082.096817-.395935.27977-.63559.548782h-.182098c.451691-.62999.798004-1.023743,1.03891-1.181244.240875-.157501.5336-.236252.878143-.236252h2.357574Z"/>
    <path d="M113.612579,186.660019l-2.835297,3.440384h-.876099l3.841553-4.641327.064484-.433121c.063141-.472504.04071-.793198-.067139-.962234-.107941-.168961-.263611-.253479-.46701-.253479-.183807,0-.367554.067291-.551361.201797-.183838.134583-.348755.352768-.494598.654617h-.177185c.184906-.511871.451447-.922012.799805-1.230469.250183-.223099.5-.334686.74939-.334686.219788,0,.378784.086975.476807.260849.145355.265793.178436.735062.099365,1.407669l-.397552,3.464996c-.059204.518478-.039703.854782.058502,1.008987.093811.157486.240753.236237.440948.236237.190247,0,.368866-.06398.535675-.19194.166809-.127975.309906-.333008.429443-.615234h.191956c-.02597.085358-.046173.149338-.06073.19194-.147034.429901-.37207.776047-.67511,1.038528-.228149.196869-.471832.295303-.730988.295303-.229706,0-.401703-.096817-.51593-.29039-.114288-.193573-.131195-.638153-.050781-1.333832l.211853-1.914597Z"/>
    <path d="M54.963287,179.231461l-.247437.723511h-1.535629c-.480804,1.07959-.789612,1.819489-.926514,2.219772-.108856.318298-.127853.548782-.056854.691528.070923.142731.19664.214096.377136.214096.134506,0,.266708-.045914.396576-.137817.129852-.091812.255844-.249313.378159-.472488h.172272c-.239899.538162-.486725.909775-.74057,1.114792-.253922.205032-.503876.307617-.749969.307617-.259247,0-.435669-.117355-.529327-.351913-.093735-.234558-.037277-.653763.16922-1.257538.162704-.475723.487183-1.25177.973389-2.328049h-.462662c-.265778,0-.490753.048462-.674728.145203-.184082.096817-.39592.27977-.635574.548782h-.182114c.451706-.62999.798019-1.023743,1.03891-1.181244.240906-.157501.533615-.236252.878143-.236252h2.357574Z"/>
    <path d="M29.883286,179.231461l-.247437.723511h-1.535629c-.480804,1.07959-.789612,1.819489-.926514,2.219772-.108856.318298-.127853.548782-.056854.691528.070923.142731.19664.214096.377136.214096.134506,0,.266708-.045914.396576-.137817.129852-.091812.255844-.249313.378159-.472488h.172272c-.239899.538162-.486725.909775-.74057,1.114792-.253922.205032-.503876.307617-.749969.307617-.259247,0-.435669-.117355-.529327-.351913-.093735-.234558-.037277-.653763.16922-1.257538.162704-.475723.487183-1.25177.973389-2.328049h-.462662c-.265778,0-.490753.048462-.674728.145203-.184082.096817-.39592.27977-.635574.548782h-.182114c.451706-.62999.798019-1.023743,1.03891-1.181244.240906-.157501.533615-.236252.878143-.236252h2.357574Z"/>
    <path d="M8.972061,186.660019l-2.835297,3.440384h-.876099l3.841583-4.641327.064453-.433121c.063156-.472504.04071-.793198-.067123-.962234-.107941-.168961-.263611-.253479-.467026-.253479-.183792,0-.367538.067291-.551361.201797-.183838.134583-.34874.352768-.494583.654617h-.177185c.184906-.511871.451447-.922012.79982-1.230469.250168-.223099.499985-.334686.749374-.334686.219803,0,.378769.086975.476807.260849.145355.265793.178421.735062.09935,1.407669l-.397537,3.464996c-.059204.518478-.039719.854782.058517,1.008987.093796.157486.240738.236237.440918.236237.190262,0,.368881-.06398.53569-.19194.166809-.127975.309921-.333008.429428-.615234h.191956c-.025955.085358-.046158.149338-.060715.19194-.147034.429901-.372086.776047-.67511,1.038528-.228134.196869-.471832.295303-.730988.295303-.229721,0-.401703-.096817-.51593-.29039-.114288-.193573-.131195-.638153-.050781-1.333832l.211838-1.914597Z"/>
    <path d="M89.282578,165.791763l-.247437.723511h-1.535629c-.480804,1.07959-.789612,1.819489-.926514,2.219772-.108856.318298-.127853.548782-.056854.691528.070923.142731.19664.214096.377136.214096.134506,0,.266708-.045914.396576-.137817.129852-.091812.255844-.249313.378159-.472488h.172272c-.239899.538162-.486725.909775-.74057,1.114792-.253922.205032-.503876.307617-.749969.307617-.259247,0-.435669-.117355-.529327-.351913-.093735-.234558-.037277-.653763.16922-1.257538.162704-.475723.487183-1.25177.973389-2.328049h-.462662c-.265778,0-.490753.048462-.674728.145203-.184082.096817-.39592.27977-.635574.548782h-.182114c.451706-.62999.798019-1.023743,1.03891-1.181244.240906-.157501.533615-.236252.878143-.236252h2.357574ZM92.116837,166.859818l-2.835297,3.440384h-.876099l3.841583-4.641327.064453-.433121c.063156-.472504.04071-.793198-.067123-.962234-.107941-.168961-.263611-.253479-.467026-.253479-.183792,0-.367538.067291-.551361.201797-.183838.134583-.34874.352768-.494583.654617h-.177185c.184906-.511871.451447-.922012.79982-1.230469.250168-.223099.499985-.334686.749374-.334686.219803,0,.378769.086975.476807.260849.145355.265793.178421.735062.09935,1.407669l-.397537,3.464996c-.059204.518478-.039719.854782.058517,1.008987.093796.157486.240738.236237.440918.236237.190262,0,.368881-.06398.53569-.19194.166809-.127975.309921-.333008.429428-.615234h.191956c-.025955.085358-.046158.149338-.060715.19194-.147034.429901-.372086.776047-.67511,1.038528-.228134.196869-.471832.295303-.730988.295303-.229721,0-.401703-.096817-.51593-.29039-.114288-.193573-.131195-.638153-.050781-1.333832l.211838-1.914597Z"/>
    <path d="M66.03186,166.859818l-2.835297,3.440384h-.876099l3.841583-4.641327.064453-.433121c.063156-.472504.04071-.793198-.067123-.962234-.107941-.168961-.263611-.253479-.467026-.253479-.183792,0-.367538.067291-.551361.201797-.183838.134583-.34874.352768-.494583.654617h-.177185c.184906-.511871.451447-.922012.79982-1.230469.250168-.223099.499985-.334686.749374-.334686.219803,0,.378769.086975.476807.260849.145355.265793.178421.735062.09935,1.407669l-.397537,3.464996c-.059204.518478-.039719.854782.058517,1.008987.093796.157486.240738.236237.440918.236237.190262,0,.368881-.06398.53569-.19194.166809-.127975.309921-.333008.429428-.615234h.191956c-.025955.085358-.046158.149338-.060715.19194-.147034.429901-.372086.776047-.67511,1.038528-.228134.196869-.471832.295303-.730988.295303-.229721,0-.401703-.096817-.51593-.29039-.114288-.193573-.131195-.638153-.050781-1.333832l.211838-1.914597Z"/>
    <path d="M103.172165,155.519821l-2.835297,3.440384h-.876099l3.841583-4.641327.064453-.433121c.063156-.472504.04071-.793198-.067123-.962234-.107941-.168961-.263611-.253479-.467026-.253479-.183792,0-.367538.067291-.551361.201797-.183838.134583-.34874.352768-.494583.654617h-.177185c.184906-.511871.451447-.922012.79982-1.230469.250168-.223099.499985-.334686.749374-.334686.219803,0,.378769.086975.476807.260849.145355.265793.178421.735062.09935,1.407669l-.397537,3.464996c-.059204.518478-.039719.854782.058517,1.008987.093796.157486.240738.236237.440918.236237.190262,0,.368881-.06398.53569-.19194.166809-.127975.309921-.333008.429428-.615234h.191956c-.025955.085358-.046158.149338-.060715.19194-.147034.429901-.372086.776047-.67511,1.038528-.228134.196869-.471832.295303-.730988.295303-.229721,0-.401703-.096817-.51593-.29039-.114288-.193573-.131195-.638153-.050781-1.333832l.211838-1.914597Z"/>
    <path d="M70.712555,155.519821l-2.835297,3.440384h-.876099l3.841583-4.641327.064453-.433121c.063156-.472504.04071-.793198-.067123-.962234-.107941-.168961-.263611-.253479-.467026-.253479-.183792,0-.367538.067291-.551361.201797-.183838.134583-.34874.352768-.494583.654617h-.177185c.184906-.511871.451447-.922012.79982-1.230469.250168-.223099.499985-.334686.749374-.334686.219803,0,.378769.086975.476807.260849.145355.265793.178421.735062.09935,1.407669l-.397537,3.464996c-.059204.518478-.039719.854782.058517,1.008987.093796.157486.240738.236237.440918.236237.190262,0,.368881-.06398.53569-.19194.166809-.127975.309921-.333008.429428-.615234h.191956c-.025955.085358-.046158.149338-.060715.19194-.147034.429901-.372086.776047-.67511,1.038528-.228134.196869-.471832.295303-.730988.295303-.229721,0-.401703-.096817-.51593-.29039-.114288-.193573-.131195-.638153-.050781-1.333832l.211838-1.914597Z"/>
  </g>
  <g class="st35">
    <path d="M122.252563,144.599518l-2.835297,3.440384h-.876099l3.841553-4.641327.064484-.433121c.063141-.472504.04071-.793198-.067139-.962234-.107941-.168961-.263611-.253479-.46701-.253479-.183807,0-.367554.067291-.551361.201797-.183838.134583-.348755.352768-.494598.654617h-.177185c.184906-.511871.451447-.922012.799805-1.230469.250183-.223099.5-.334686.74939-.334686.219788,0,.378784.086975.476807.260849.145355.265793.178436.735062.099365,1.407669l-.397552,3.464996c-.059204.518478-.039703.854782.058502,1.008987.093811.157486.240753.236237.440948.236237.190247,0,.368866-.06398.535675-.19194.166809-.127975.309906-.333008.429443-.615234h.191956c-.02597.085358-.046173.149338-.06073.19194-.147034.429901-.37207.776047-.67511,1.038528-.228149.196869-.471832.295303-.730988.295303-.229706,0-.401703-.096817-.51593-.29039-.114288-.193573-.131195-.638153-.050781-1.333832l.211853-1.914597Z"/>
  </g>
  <g>
    <text class="st12" transform="translate(121.899902 158.959961)"><tspan x="0" y="0">bc</tspan></text>
    <text class="st12" transform="translate(80.019531 158.959961)"><tspan x="0" y="0">d</tspan></text>
    <text class="st12" transform="translate(48.339355 158.959961)"><tspan x="0" y="0">a</tspan></text>
    <text class="st12" transform="translate(99.039551 148.040039)"><tspan x="0" y="0">d</tspan></text>
    <text class="st12" transform="translate(74.799316 148.040039)"><tspan x="0" y="0">c</tspan></text>
  </g>
  <g class="st36">
    <text class="st6" transform="translate(250.780273 141.44043)"><tspan x="0" y="0">1</tspan></text>
  </g>
  <g class="st37">
    <text class="st6" transform="translate(264.94043 141.44043)"><tspan x="0" y="0">2</tspan></text>
  </g>
  <g class="st33">
    <text class="st7" transform="translate(268 138.979492)"><tspan x="0" y="0">,</tspan></text>
  </g>
  <g class="st50">
    <text class="st6" transform="translate(294.700195 141.44043)"><tspan x="0" y="0">1</tspan></text>
  </g>
  <g class="st48">
    <text class="st6" transform="translate(311.860352 141.44043)"><tspan x="0" y="0">2</tspan></text>
  </g>
  <g>
    <text class="st7" transform="translate(238.599609 150.979492)"><tspan class="st67" x="0" y="0">a</tspan><tspan x="4.55957" y="0">r</tspan><tspan class="st67" x="7.294922" y="0">e</tspan><tspan class="st62" x="11.854492" y="0"> </tspan><tspan class="st66" x="14.008789" y="0">linea</tspan><tspan x="31.317383" y="0">r</tspan><tspan class="st66" x="34.052734" y="0">ly</tspan><tspan class="st70" x="39.966797" y="0"> </tspan><tspan class="st67" x="42.301758" y="0">independent</tspan><tspan class="st51" x="87.428711" y="0"> </tspan></text>
    <text class="st7" transform="translate(238.599609 162.979492)"><tspan class="st67" x="0" y="0">and</tspan><tspan class="st63" x="13.678711" y="0"> </tspan><tspan class="st67" x="15.90332" y="0">solutions</tspan><tspan class="st70" x="48.246094" y="0"> </tspan><tspan class="st67" x="50.581055" y="0">of</tspan><tspan class="st63" x="57.416016" y="0"> </tspan><tspan class="st66" x="59.640625" y="0">the</tspan><tspan x="71.03418" y="0"> </tspan></text>
    <text class="st7" transform="translate(238.599609 174.979492)"><tspan class="st66" x="0" y="0">follo</tspan><tspan class="st61" x="15.023438" y="0">w</tspan><tspan class="st66" x="20.954102" y="0">ing</tspan><tspan class="st65" x="31.887695" y="0"> </tspan><tspan class="st66" x="34.102539" y="0">fo</tspan><tspan x="40.936523" y="0">r</tspan><tspan class="st67" x="43.671875" y="0">m</tspan><tspan class="st62" x="50.506836" y="0"> </tspan><tspan class="st67" x="52.661133" y="0">a</tspan><tspan x="57.220703" y="0">r</tspan><tspan class="st67" x="59.956055" y="0">e</tspan><tspan class="st51" x="64.515625" y="0"> </tspan><tspan class="st68" x="66.799805" y="0">valid</tspan><tspan class="st51" x="83.649414" y="0">.</tspan></text>
    <path class="st5" d="M176.577972,146.498306v.719208h-1.526489c-.110901,1.073151-.166351,1.80864-.166351,2.206543,0,.316422.059479.545532.178589.687408.119019.141891.26825.21283.447662.21283.133728,0,.249542-.045639.347382-.136993.09787-.091278.169556-.247833.215271-.469681h.171234c-.055481.534973-.17453.904358-.357147,1.10817-.182709.203812-.396301.305786-.64093.305786-.25769,0-.472961-.116653-.645813-.349823-.172913-.233154-.259308-.649872-.259308-1.250046,0-.4729.058716-1.244324.176117-2.314194h-.4599c-.264191,0-.471344.048157-.621338.144333-.150085.096237-.298462.278107-.445221.545517h-.18103c.234833-.626251.445221-1.017654.631134-1.174225.185913-.156555.450104-.234833.792603-.234833h2.343536Z"/>
    <text class="st7" transform="translate(177.040039 150.979492)"><tspan x="0" y="0">=trace </tspan></text>
    <path class="st5" d="M178.598602,162.979904h-5.871094l3.07254-6.786011,2.798553,6.786011ZM177.44397,162.57872l-1.952148-4.731125-2.15274,4.731125h4.104889Z"/>
    <text class="st7" transform="translate(178.720703 162.979492)"><tspan x="0" y="0">=determinant</tspan></text>
    <text class="st14" transform="translate(326.320312 191.05957)"><tspan x="0" y="0">2</tspan></text>
    <text class="st14" transform="translate(307 191.05957)"><tspan x="0" y="0">2</tspan></text>
    <text class="st14" transform="translate(286.959961 191.05957)"><tspan x="0" y="0">1</tspan></text>
    <text class="st14" transform="translate(269.439453 191.05957)"><tspan x="0" y="0">1</tspan></text>
    <text class="st16" transform="translate(317.740234 185.719727)"><tspan x="0" y="0">2</tspan></text>
    <text class="st16" transform="translate(279.339844 185.719727)"><tspan x="0" y="0">1</tspan></text>
    <text class="st15" transform="translate(247.959961 188.660156)"><tspan x="0" y="0">)</tspan></text>
    <text class="st15" transform="translate(241.599609 188.660156)"><tspan x="0" y="0">(</tspan></text>
    <text class="st10" transform="translate(322.05957 188.660156)"><tspan x="0" y="0">v</tspan></text>
    <text class="st10" transform="translate(310.119141 188.660156)"><tspan x="0" y="0">e</tspan></text>
    <text class="st10" transform="translate(302.798828 188.660156)"><tspan x="0" y="0">c</tspan></text>
    <text class="st10" transform="translate(283.359375 188.660156)"><tspan x="0" y="0">v</tspan></text>
    <text class="st10" transform="translate(272.079102 188.660156)"><tspan x="0" y="0">e</tspan></text>
    <text class="st10" transform="translate(265.838867 188.660156)"><tspan x="0" y="0">c</tspan></text>
    <text class="st10" transform="translate(244.719727 188.660156)"><tspan x="0" y="0">t</tspan></text>
    <text class="st10" transform="translate(236.860352 188.660156)"><tspan x="0" y="0">x</tspan></text>
    <text class="st9" transform="translate(319.839844 184.339844)"><tspan x="0" y="0">t</tspan></text>
    <text class="st9" transform="translate(281.140625 184.339844)"><tspan x="0" y="0">t</tspan></text>
    <polygon points="325.399597 183.263504 325.589203 182.770538 322.839996 182.770538 322.839996 182.42926 325.589203 182.42926 325.399597 181.936295 326.726807 182.599899 325.399597 183.263504"/>
    <polygon points="286.639709 183.263504 286.829315 182.770538 284.080109 182.770538 284.080109 182.42926 286.829315 182.42926 286.639709 181.936295 287.966919 182.599899 286.639709 183.263504"/>
  </g>
  <g class="st49">
    <polygon points="239.899597 183.263504 240.089203 182.770538 237.339996 182.770538 237.339996 182.42926 240.089203 182.42926 239.899597 181.936295 241.226807 182.599899 239.899597 183.263504"/>
  </g>
  <g>
    <path d="M316.78833,182.452621l-1.55542,1.887375h-.480621l2.107452-2.546188.03537-.23761c.034637-.259216.022339-.435135-.036835-.527878-.059204-.092682-.144623-.139053-.256195-.139053-.10083,0-.20163.036926-.30246.110703-.100861.073837-.191345.193527-.271332.359116h-.097198c.10144-.280807.24765-.505798.438751-.675018.137238-.122391.274292-.183609.411102-.183609.120575,0,.207794.047714.261566.143112.079742.145798.0979.403229.054535.772217l-.218109,1.900879c-.032471.284439-.021759.468918.032104.553513.051453.086411.13208.129608.241882.129608.104401,0,.202362-.03511.293884-.105301.091522-.070206.170013-.182678.235596-.337524h.105286c-.014221.046829-.025299.08194-.033295.105316-.080658.235825-.204132.42572-.370361.569717-.125153.108002-.25885.162003-.401031.162003-.126007,0-.220367-.053116-.28302-.159302-.062714-.106186-.071991-.350082-.027863-.731735l.116211-1.050339Z"/>
    <path d="M278.808533,182.452621l-1.55542,1.887375h-.480621l2.107452-2.546188.03537-.23761c.034637-.259216.022339-.435135-.036835-.527878-.059204-.092682-.144623-.139053-.256195-.139053-.10083,0-.20163.036926-.30246.110703-.100861.073837-.191345.193527-.271332.359116h-.097198c.10144-.280807.24765-.505798.438751-.675018.137238-.122391.274292-.183609.411102-.183609.120575,0,.207794.047714.261566.143112.079742.145798.0979.403229.054535.772217l-.218109,1.900879c-.032471.284439-.021759.468918.032104.553513.051453.086411.13208.129608.241882.129608.104401,0,.202362-.03511.293884-.105301.091522-.070206.170013-.182678.235596-.337524h.105286c-.014221.046829-.025299.08194-.033295.105316-.080658.235825-.204132.42572-.370361.569717-.125153.108002-.25885.162003-.401031.162003-.126007,0-.220367-.053116-.28302-.159302-.062714-.106186-.071991-.350082-.027863-.731735l.116211-1.050339Z"/>
    <polygon points="296.299286 183.799545 296.752899 183.799545 296.752899 186.012161 298.95163 186.012161 298.95163 186.461166 296.752899 186.461166 296.752899 188.659897 296.299286 188.659897 296.299286 186.461166 294.091278 186.461166 294.091278 186.012161 296.299286 186.012161 296.299286 183.799545"/>
    <path d="M256.111572,185.146561h4.860352v.449005h-4.860352v-.449005ZM256.111572,186.873138h4.860352v.458267h-4.860352v-.458267Z"/>
  </g>
</svg>