<?xml version="1.0" encoding="UTF-8"?>
<svg id="Layer_1" xmlns="http://www.w3.org/2000/svg" xmlns:xlink="http://www.w3.org/1999/xlink" version="1.1" viewBox="0 0 241.429703 171.941089">
  <!-- Generator: Adobe Illustrator 29.3.1, SVG Export Plug-In . SVG Version: 2.1.0 Build 151)  -->
  <defs>
    <style>
      .st0 {
        fill: none;
      }

      .st1, .st2 {
        font-size: 11.07px;
      }

      .st1, .st3, .st4, .st5, .st6, .st7 {
        font-family: TimesNewRomanPS-ItalicMT, 'Times New Roman';
        font-style: italic;
      }

      .st8, .st9 {
        fill: lime;
      }

      .st9 {
        font-size: 9px;
      }

      .st9, .st10 {
        font-family: ArialNarrow, 'Arial Narrow';
      }

      .st11 {
        clip-path: url(#clippath-17);
      }

      .st12 {
        clip-path: url(#clippath-19);
      }

      .st13 {
        clip-path: url(#clippath-11);
      }

      .st14 {
        clip-path: url(#clippath-16);
      }

      .st15 {
        clip-path: url(#clippath-18);
      }

      .st16 {
        clip-path: url(#clippath-10);
      }

      .st17 {
        clip-path: url(#clippath-15);
      }

      .st18 {
        clip-path: url(#clippath-13);
      }

      .st19 {
        clip-path: url(#clippath-14);
      }

      .st20 {
        clip-path: url(#clippath-12);
      }

      .st21 {
        clip-path: url(#clippath-20);
      }

      .st22 {
        clip-path: url(#clippath-21);
      }

      .st23 {
        clip-path: url(#clippath-22);
      }

      .st24 {
        clip-path: url(#clippath-23);
      }

      .st25 {
        clip-path: url(#clippath-24);
      }

      .st26 {
        letter-spacing: -.000097em;
      }

      .st27 {
        clip-path: url(#clippath-1);
      }

      .st28 {
        clip-path: url(#clippath-3);
      }

      .st29 {
        clip-path: url(#clippath-4);
      }

      .st30 {
        clip-path: url(#clippath-2);
      }

      .st31 {
        clip-path: url(#clippath-7);
      }

      .st32 {
        clip-path: url(#clippath-6);
      }

      .st33 {
        clip-path: url(#clippath-9);
      }

      .st34 {
        clip-path: url(#clippath-8);
      }

      .st35 {
        clip-path: url(#clippath-5);
      }

      .st36, .st2 {
        font-family: TimesNewRomanPSMT, 'Times New Roman';
      }

      .st36, .st4 {
        font-size: 13.2316px;
      }

      .st3 {
        font-size: 10.9285px;
      }

      .st37 {
        letter-spacing: .003038em;
      }

      .st38 {
        letter-spacing: .00293em;
      }

      .st10 {
        font-size: 10.02px;
      }

      .st10, .st39 {
        fill: #33c;
      }

      .st40 {
        letter-spacing: .000049em;
      }

      .st39 {
        font-family: ArialMT, Arial;
        font-size: 12px;
      }

      .st5 {
        font-size: 7.7185px;
      }

      .st6 {
        font-size: 13.32px;
      }

      .st7 {
        font-size: 7.77px;
      }

      .st41 {
        letter-spacing: -.005945em;
      }

      .st42 {
        letter-spacing: -.007017em;
      }

      .st43 {
        letter-spacing: -.006968em;
      }

      .st44 {
        letter-spacing: -.001085em;
      }

      .st45 {
        letter-spacing: -.001072em;
      }

      .st46 {
        letter-spacing: -.001023em;
      }

      .st47 {
        letter-spacing: -.001017em;
      }

      .st48 {
        letter-spacing: -.000977em;
      }

      .st49 {
        letter-spacing: -.000975em;
      }

      .st50 {
        letter-spacing: -.002062em;
      }

      .st51 {
        letter-spacing: -.001953em;
      }

      .st52 {
        letter-spacing: .024957em;
      }

      .st53 {
        letter-spacing: .017904em;
      }

      .st54 {
        clip-path: url(#clippath);
      }

      .st55 {
        letter-spacing: .004883em;
      }

      .st56 {
        letter-spacing: .004971em;
      }

      .st57 {
        letter-spacing: .011936em;
      }

      .st58 {
        letter-spacing: .006999em;
      }
    </style>
    <clipPath id="clippath">
      <rect class="st0" x="218.321094" y="36.920792" width="10.320007" height="6.899994"/>
    </clipPath>
    <clipPath id="clippath-1">
      <rect class="st0" x="193.841083" y="36.920792" width="9.720001" height="6.899994"/>
    </clipPath>
    <clipPath id="clippath-2">
      <rect class="st0" x="170.741077" y="36.920792" width="5.76001" height="6.899994"/>
    </clipPath>
    <clipPath id="clippath-3">
      <rect class="st0" x="207.881091" y="35.72078" width="6" height="8.100006"/>
    </clipPath>
    <clipPath id="clippath-4">
      <rect class="st0" x="182.381091" y="35.72078" width="6" height="8.100006"/>
    </clipPath>
    <clipPath id="clippath-5">
      <rect class="st0" x="208.061084" y="25.820816" width="6" height="12.359985"/>
    </clipPath>
    <clipPath id="clippath-6">
      <rect class="st0" x="181.721088" y="25.820816" width="6" height="12.359985"/>
    </clipPath>
    <clipPath id="clippath-7">
      <rect class="st0" x="218.321094" y="43.820786" width="10.320007" height="5.279999"/>
    </clipPath>
    <clipPath id="clippath-8">
      <rect class="st0" x="193.841083" y="43.820786" width="9.720001" height="5.279999"/>
    </clipPath>
    <clipPath id="clippath-9">
      <rect class="st0" x="170.741077" y="43.820786" width="5.76001" height="5.279999"/>
    </clipPath>
    <clipPath id="clippath-10">
      <rect class="st0" x="207.881091" y="43.820786" width="6" height="5.279999"/>
    </clipPath>
    <clipPath id="clippath-11">
      <rect class="st0" x="182.381091" y="43.820786" width="6" height="5.279999"/>
    </clipPath>
    <clipPath id="clippath-12">
      <rect class="st0" x="195.041095" y="94.820786" width="6.119995" height="12.600006"/>
    </clipPath>
    <clipPath id="clippath-13">
      <rect class="st0" x="145.841083" y="94.820786" width="6.119995" height="12.600006"/>
    </clipPath>
    <clipPath id="clippath-14">
      <rect class="st0" x="176.021076" y="127.34079" width="6.660004" height="6.479996"/>
    </clipPath>
    <clipPath id="clippath-15">
      <rect class="st0" x="29.741092" y="127.34079" width="6.660004" height="6.479996"/>
    </clipPath>
    <clipPath id="clippath-16">
      <rect class="st0" x="110.621082" y="125.900788" width="13.079987" height="7.919998"/>
    </clipPath>
    <clipPath id="clippath-17">
      <rect class="st0" x="148.001087" y="127.400788" width="6.959991" height="6.419998"/>
    </clipPath>
    <clipPath id="clippath-18">
      <rect class="st0" x="64.841083" y="127.400788" width="6.960007" height="6.419998"/>
    </clipPath>
    <clipPath id="clippath-19">
      <rect class="st0" x="176.021076" y="133.820801" width="6.660004" height="8.399994"/>
    </clipPath>
    <clipPath id="clippath-20">
      <rect class="st0" x="29.741092" y="133.820801" width="6.660004" height="8.399994"/>
    </clipPath>
    <clipPath id="clippath-21">
      <rect class="st0" x="162.16109" y="133.820801" width="7.26001" height="8.339996"/>
    </clipPath>
    <clipPath id="clippath-22">
      <rect class="st0" x="110.621082" y="133.820801" width="13.079987" height="8.339996"/>
    </clipPath>
    <clipPath id="clippath-23">
      <rect class="st0" x="148.001087" y="133.820786" width="6.959991" height="8.279999"/>
    </clipPath>
    <clipPath id="clippath-24">
      <rect class="st0" x="64.841083" y="133.820786" width="6.960007" height="8.279999"/>
    </clipPath>
  </defs>
  <g>
    <text class="st6" transform="translate(70.361011 32.661026)"><tspan x="0" y="0">y</tspan></text>
    <text class="st6" transform="translate(34.181323 32.661026)"><tspan x="0" y="0">y</tspan></text>
    <text class="st6" transform="translate(84.88103 19.340714)"><tspan x="0" y="0">e</tspan></text>
    <text class="st6" transform="translate(61.180835 19.340714)"><tspan x="0" y="0">x</tspan></text>
    <text class="st6" transform="translate(33.580737 19.340714)"><tspan x="0" y="0">x</tspan></text>
    <text class="st7" transform="translate(97.001148 13.340714)"><tspan x="0" y="0">y</tspan></text>
    <rect x="61.661731" y="28.914444" width="6.829102" height=".64389"/>
    <path d="M47.501239,27.724228h6.829102v.63089h-6.829102v-.63089ZM47.501239,30.150193h6.829102v.64389h-6.829102v-.64389Z"/>
    <polygon points="75.743793 12.511582 76.381183 12.511582 76.381183 15.620438 79.470538 15.620438 79.470538 16.251328 76.381183 16.251328 76.381183 19.340683 75.743793 19.340683 75.743793 16.251328 72.641437 16.251328 72.641437 15.620438 75.743793 15.620438 75.743793 12.511582"/>
    <path d="M46.662036,14.404221h6.829102v.63089h-6.829102v-.63089ZM46.662036,16.830185h6.829102v.64389h-6.829102v-.64389Z"/>
    <rect x="91.561481" y="11.155503" width="3.983643" height=".37558"/>
    <path d="M38.018207,24.368424c0,.444122-.222076.665985-.666.665985-.444138,0-.666-.221863-.666-.665985,0-.213135.062027-.37735.186478-.492859.124252-.115295.284088-.173157.479523-.173157.195221,0,.355057.062225.479523.186493.124252.124451.186478.284302.186478.479523Z"/>
    <path d="M37.598605,11.048447c0,.444122-.222076.665985-.666.665985-.444138,0-.666-.221863-.666-.665985,0-.213135.062027-.37735.186478-.492859.124252-.115295.284088-.173157.479523-.173157.195221,0,.355057.062225.479523.186493.124252.124451.186478.284302.186478.479523Z"/>
    <text class="st9" transform="translate(168.820972 9.440323)"><tspan class="st48" x="0" y="0">N</tspan><tspan class="st50" x="5.317383" y="0">onlinea</tspan><tspan x="28.992188" y="0">r</tspan></text>
    <rect class="st8" x="168.821094" y="10.400803" width="31.019989" height=".660004"/>
    <text class="st9" transform="translate(199.84148 9.440323)"><tspan class="st50" x="0" y="0">,</tspan><tspan class="st53" x="2.03418" y="0"> </tspan><tspan class="st51" x="4.248047" y="0">be</tspan><tspan class="st38" x="12.421875" y="0">c</tspan><tspan class="st51" x="16.139648" y="0">au</tspan><tspan class="st37" x="24.3125" y="0">s</tspan><tspan x="28.03125" y="0">e</tspan></text>
    <text class="st9" transform="translate(154.660816 20.241105)"><tspan class="st37" x="0" y="0">c</tspan><tspan class="st44" x="3.71875" y="0">an’t</tspan><tspan class="st55" x="15.583008" y="0"> </tspan><tspan class="st48" x="17.679688" y="0">be</tspan><tspan class="st57" x="25.871094" y="0"> </tspan><tspan class="st44" x="28.03125" y="0">repre</tspan><tspan class="st37" x="45.212891" y="0">s</tspan><tspan class="st44" x="48.931641" y="0">ented</tspan><tspan class="st52" x="67.356445" y="0"> </tspan><tspan class="st48" x="69.633789" y="0">a</tspan><tspan x="73.729492" y="0">s</tspan></text>
  </g>
  <g class="st54">
    <text class="st3" transform="translate(218.320972 46.701065)"><tspan x="0" y="0">dy</tspan></text>
  </g>
  <g class="st27">
    <text class="st3" transform="translate(193.84148 46.701065)"><tspan x="0" y="0">cx</tspan></text>
  </g>
  <g class="st30">
    <text class="st3" transform="translate(171.641284 46.701065)"><tspan x="0" y="0">y</tspan></text>
  </g>
  <g>
    <text class="st3" transform="translate(218.141284 35.781144)"><tspan x="0" y="0">by</tspan></text>
    <text class="st3" transform="translate(193.361011 35.781144)"><tspan x="0" y="0">ax</tspan></text>
    <text class="st3" transform="translate(171.100269 35.781144)"><tspan x="0" y="0">x</tspan></text>
  </g>
  <g class="st28">
    <polygon points="210.623889 41.097702 211.146839 41.097702 211.146839 43.648392 213.681506 43.648392 213.681506 44.166001 211.146839 44.166001 211.146839 46.700699 210.623889 46.700699 210.623889 44.166001 208.07854 44.166001 208.07854 43.648392 210.623889 43.648392 210.623889 41.097702"/>
  </g>
  <g class="st29">
    <path d="M182.57854,42.650528h5.602966v.517609h-5.602966v-.517609ZM182.57854,44.640946h5.602966v.528259h-5.602966v-.528259Z"/>
  </g>
  <g class="st35">
    <polygon points="210.803882 30.177781 211.326831 30.177781 211.326831 32.72847 213.861499 32.72847 213.861499 33.246079 211.326831 33.246079 211.326831 35.780777 210.803882 35.780777 210.803882 33.246079 208.258533 33.246079 208.258533 32.72847 210.803882 32.72847 210.803882 30.177781"/>
  </g>
  <g class="st32">
    <path d="M181.918537,31.730607h5.602966v.517609h-5.602966v-.517609ZM181.918537,33.721024h5.602966v.528259h-5.602966v-.528259Z"/>
  </g>
  <g>
    <path d="M174.781665,39.898667c0,.36438-.18222.546417-.546448.546417-.36438,0-.546417-.182037-.546417-.546417,0-.174866.050903-.309601.153015-.404358.101929-.094604.233063-.142059.393402-.142059.160187,0,.291321.051056.393433.152985.101959.102112.153015.233246.153015.393433Z"/>
    <path d="M174.422168,28.978867c0,.36438-.18222.546417-.546448.546417-.36438,0-.546417-.182037-.546417-.546417,0-.174866.050903-.309601.153015-.404358.101929-.094604.233063-.142059.393402-.142059.160187,0,.291321.051056.393433.152985.101959.102112.153015.233246.153015.393433Z"/>
  </g>
  <g class="st31">
    <text class="st3" transform="translate(218.320972 46.701065)"><tspan x="0" y="0">dy</tspan></text>
  </g>
  <g class="st34">
    <text class="st3" transform="translate(193.84148 46.701065)"><tspan x="0" y="0">cx</tspan></text>
  </g>
  <g class="st33">
    <text class="st3" transform="translate(171.641284 46.701065)"><tspan x="0" y="0">y</tspan></text>
  </g>
  <g class="st16">
    <polygon points="210.623889 41.097702 211.146839 41.097702 211.146839 43.648392 213.681506 43.648392 213.681506 44.166001 211.146839 44.166001 211.146839 46.700699 210.623889 46.700699 210.623889 44.166001 208.07854 44.166001 208.07854 43.648392 210.623889 43.648392 210.623889 41.097702"/>
  </g>
  <g class="st13">
    <path d="M182.57854,42.650528h5.602966v.517609h-5.602966v-.517609ZM182.57854,44.640946h5.602966v.528259h-5.602966v-.528259Z"/>
  </g>
  <g>
    <text class="st39" transform="translate(1.541187 63.321183)"><tspan x="0" y="0">St</tspan><tspan class="st47" x="11.337891" y="0">ep</tspan><tspan x="24.661621" y="0"> </tspan><tspan class="st47" x="27.995605" y="0">1</tspan><tspan x="34.657227" y="0">: F</tspan><tspan class="st48" x="48.655273" y="0">ind</tspan><tspan x="64.633301" y="0" xml:space="preserve"> f</tspan><tspan class="st47" x="71.30127" y="0">i</tspan><tspan x="73.955078" y="0">x</tspan><tspan class="st47" x="79.955078" y="0">ed</tspan><tspan class="st58" x="93.278809" y="0"> </tspan><tspan class="st47" x="96.696777" y="0">poin</tspan><tspan x="119.336426" y="0">ts</tspan></text>
    <text class="st10" transform="translate(49.541187 79.400284)"><tspan class="st46" x="0" y="0">Fixed</tspan><tspan class="st41" x="20.043457" y="0"> </tspan><tspan class="st46" x="22.268555" y="0">points</tspan><tspan x="44.136719" y="0"> </tspan><tspan class="st49" x="46.421387" y="0">(also</tspan><tspan class="st40" x="64.180176" y="0"> </tspan><tspan class="st46" x="66.465332" y="0">called</tspan><tspan class="st56" x="87.873535" y="0"> </tspan><tspan class="st49" x="90.208496" y="0">stationary</tspan><tspan x="125.73584" y="0"> </tspan><tspan class="st49" x="128.020996" y="0">points)</tspan><tspan x="152.61377" y="0"> </tspan><tspan class="st49" x="154.898926" y="0">are</tspan><tspan x="166.742676" y="0"> </tspan></text>
    <text class="st10" transform="translate(49.541187 91.400284)"><tspan class="st49" x="0" y="0">those</tspan><tspan class="st43" x="20.053223" y="0"> </tspan><tspan class="st46" x="22.268066" y="0">points</tspan><tspan class="st40" x="44.13623" y="0" xml:space="preserve"> w</tspan><tspan class="st46" x="52.351074" y="0">he</tspan><tspan x="61.470215" y="0">r</tspan><tspan class="st49" x="64.205078" y="0">e</tspan><tspan class="st42" x="68.765137" y="0"> </tspan><tspan class="st40" x="70.979492" y="0"> </tspan><tspan class="st46" x="73.264648" y="0">the</tspan><tspan class="st42" x="84.658691" y="0"> </tspan><tspan class="st45" x="86.873535" y="0">time</tspan><tspan x="102.356934" y="0">-</tspan><tspan class="st49" x="105.092285" y="0">de</tspan><tspan x="114.211426" y="0">r</tspan><tspan class="st45" x="116.946777" y="0">ivative</tspan><tspan x="140.169434" y="0"> </tspan><tspan class="st49" x="142.45459" y="0">of</tspan><tspan class="st42" x="149.288574" y="0"> </tspan><tspan class="st49" x="151.503418" y="0">each</tspan><tspan class="st26" x="169.282715" y="0"> </tspan></text>
    <text class="st10" transform="translate(49.541187 103.400284)"><tspan class="st46" x="0" y="0">coo</tspan><tspan x="13.219238" y="0">r</tspan><tspan class="st46" x="15.954102" y="0">dinate</tspan><tspan class="st43" x="38.282227" y="0"> </tspan><tspan class="st49" x="40.49707" y="0">is</tspan><tspan x="46.411621" y="0"> </tspan><tspan class="st46" x="48.696289" y="0">ze</tspan><tspan class="st40" x="57.355469" y="0">r</tspan><tspan class="st46" x="60.09082" y="0">o</tspan><tspan x="64.650391" y="0">.</tspan></text>
    <text class="st2" transform="translate(206.561206 104.960831)"><tspan x="0" y="0">0</tspan></text>
    <text class="st2" transform="translate(180.521167 104.960831)"><tspan x="0" y="0"> </tspan></text>
    <text class="st2" transform="translate(164.800464 104.960831)"><tspan x="0" y="0">and</tspan></text>
    <text class="st2" transform="translate(162.40105 104.960831)"><tspan x="0" y="0"> </tspan></text>
    <text class="st2" transform="translate(157.420581 104.960831)"><tspan x="0" y="0">0</tspan></text>
  </g>
  <g class="st20">
    <path d="M195.241077,100.858094h5.675537v.524307h-5.675537v-.524307ZM195.241077,102.874253h5.675537v.535126h-5.675537v-.535126Z"/>
  </g>
  <g class="st18">
    <path d="M146.041065,100.858094h5.675537v.524307h-5.675537v-.524307ZM146.041065,102.874253h5.675537v.535126h-5.675537v-.535126Z"/>
  </g>
  <g>
    <text class="st1" transform="translate(184.120777 104.960831)"><tspan x="0" y="0">y</tspan></text>
    <text class="st1" transform="translate(135.101245 104.960831)"><tspan x="0" y="0">x</tspan></text>
    <path d="M187.352161,98.137787c0,.36911-.18457.553497-.553497.553497-.36911,0-.553497-.184387-.553497-.553497,0-.177109.051544-.313583.154999-.409576.103241-.095825.236084-.143906.398499-.143906.162231,0,.295074.051712.398529.154968.103241.103439.154968.236282.154968.398514Z"/>
    <path d="M138.512164,98.137787c0,.36911-.18457.553497-.553497.553497-.36911,0-.553497-.184387-.553497-.553497,0-.177109.051544-.313583.154999-.409576.103241-.095825.236084-.143906.398499-.143906.162231,0,.295074.051712.398529.154968.103241.103439.154968.236282.154968.398514Z"/>
  </g>
  <g class="st19">
    <text class="st36" transform="translate(176.021167 139.220597)"><tspan x="0" y="0">0</tspan></text>
  </g>
  <g class="st17">
    <text class="st36" transform="translate(29.740894 139.220597)"><tspan x="0" y="0">0</tspan></text>
  </g>
  <g>
    <text class="st36" transform="translate(212.620777 126.800675)"><tspan x="0" y="0">1</tspan></text>
    <text class="st36" transform="translate(29.74187 126.800675)"><tspan x="0" y="0">0</tspan></text>
  </g>
  <g class="st14">
    <path d="M118.793933,139.401703c.271332-.439331.63092-.882904,1.078918-1.330917h-8.760742v-.646072h9.432678l.936798-.781754c.129211-.10762.402679-.312241.820526-.61377-.775299-.594391-1.361115-1.070267-1.757324-1.427826h-9.432678v-.633148h8.760742c-.443665-.452255-.803345-.898041-1.078918-1.337372h.736511c.508179.615982,1.135986,1.241562,1.883301,1.876846.747223.635361,1.340607,1.080048,1.779938,1.334137v.361801c-.581451.335953-1.212494.802246-1.893005,1.398743-.680573.596619-1.27063,1.19635-1.770233,1.799332h-.736511Z"/>
  </g>
  <g>
    <path d="M200.200122,121.896988h6.783783v.626694h-6.783783v-.626694ZM200.200122,124.306839h6.783783v.639618h-6.783783v-.639618Z"/>
    <path d="M162.400134,121.896988h6.783783v.626694h-6.783783v-.626694ZM162.400134,124.306839h6.783783v.639618h-6.783783v-.639618Z"/>
    <rect x="136.480731" y="123.0793" width="6.783783" height=".639618"/>
    <path d="M118.794147,126.981598c.271332-.439331.63092-.882904,1.078918-1.330917h-8.760742v-.646072h9.432678l.936798-.781754c.129211-.10762.402679-.312241.820526-.61377-.775299-.594391-1.361115-1.070267-1.757324-1.427826h-9.432678v-.633148h8.760742c-.443665-.452255-.803345-.898041-1.078918-1.337372h.736511c.508179.615982,1.135986,1.241562,1.883301,1.876846.747223.635361,1.340607,1.080048,1.779938,1.334137v.361801c-.581451.335953-1.212494.802246-1.893005,1.398743-.680573.596619-1.27063,1.19635-1.770233,1.799332h-.736511Z"/>
    <polygon points="72.181903 120.016907 72.815067 120.016907 72.815067 123.105149 75.883914 123.105149 75.883914 123.731842 72.815067 123.731842 72.815067 126.80069 72.181903 126.80069 72.181903 123.731842 69.100131 123.731842 69.100131 123.105149 72.181903 123.105149 72.181903 120.016907"/>
    <path d="M43.240238,121.896988h6.783783v.626694h-6.783783v-.626694ZM43.240238,124.306839h6.783783v.639618h-6.783783v-.639618Z"/>
    <rect x="182.640521" y="118.74997" width="3.957245" height=".373108"/>
    <rect x="87.899829" y="118.74997" width="3.957245" height=".373108"/>
  </g>
  <g class="st11">
    <text class="st4" transform="translate(149.080737 139.220597)"><tspan x="0" y="0">y</tspan></text>
  </g>
  <g class="st15">
    <text class="st4" transform="translate(65.921069 139.220597)"><tspan x="0" y="0">y</tspan></text>
  </g>
  <g>
    <text class="st4" transform="translate(176.021167 126.800675)"><tspan x="0" y="0">e</tspan></text>
    <text class="st4" transform="translate(149.320972 126.800675)"><tspan x="0" y="0">x</tspan></text>
    <text class="st4" transform="translate(81.281421 126.800675)"><tspan x="0" y="0">e</tspan></text>
    <text class="st4" transform="translate(57.701343 126.800675)"><tspan x="0" y="0">x</tspan></text>
    <text class="st5" transform="translate(188.080737 120.920792)"><tspan x="0" y="0">y</tspan></text>
    <text class="st5" transform="translate(93.340503 120.920792)"><tspan x="0" y="0">y</tspan></text>
  </g>
  <g>
    <text class="st36" transform="translate(234.580737 165.680558)"><tspan x="0" y="0">)</tspan></text>
    <text class="st36" transform="translate(227.981128 165.680558)"><tspan x="0" y="0">0</tspan></text>
    <text class="st36" transform="translate(224.681323 165.680558)"><tspan x="0" y="0">,</tspan></text>
    <text class="st36" transform="translate(219.280933 165.680558)"><tspan x="0" y="0">1</tspan></text>
    <text class="st36" transform="translate(207.281909 165.680558)"><tspan x="0" y="0">(</tspan></text>
    <text class="st36" transform="translate(182.262378 165.680558)"><tspan x="0" y="0">)</tspan></text>
    <text class="st36" transform="translate(167.562183 165.680558)"><tspan x="0" y="0">,</tspan></text>
    <text class="st36" transform="translate(156.161792 165.680558)"><tspan x="0" y="0">(</tspan></text>
    <text class="st36" transform="translate(143.740894 165.680558)"><tspan x="0" y="0">at </tspan></text>
    <text class="st36" transform="translate(113.560718 165.680558)"><tspan x="0" y="0">point </tspan></text>
    <text class="st36" transform="translate(110.441089 165.680558)"><tspan x="0" y="0"> </tspan></text>
    <text class="st36" transform="translate(83.560718 165.680558)"><tspan x="0" y="0">fixed</tspan></text>
    <text class="st36" transform="translate(80.620777 165.680558)"><tspan x="0" y="0"> </tspan></text>
    <text class="st36" transform="translate(62.021167 165.680558)"><tspan x="0" y="0">one</tspan></text>
    <text class="st36" transform="translate(59.140796 165.680558)"><tspan x="0" y="0"> </tspan></text>
    <text class="st36" transform="translate(29.739917 165.680558)"><tspan x="0" y="0">Thus,</tspan></text>
  </g>
  <g class="st12">
    <text class="st36" transform="translate(176.021167 139.220597)"><tspan x="0" y="0">0</tspan></text>
  </g>
  <g class="st21">
    <text class="st36" transform="translate(29.740894 139.220597)"><tspan x="0" y="0">0</tspan></text>
  </g>
  <g>
    <rect x="212.26012" y="161.959305" width="6.783783" height=".639618"/>
    <path d="M193.660419,160.776993h6.783783v.626694h-6.783783v-.626694ZM193.660419,163.186844h6.783783v.639618h-6.783783v-.639618Z"/>
  </g>
  <g class="st22">
    <path d="M162.400134,134.317093h6.783783v.626694h-6.783783v-.626694ZM162.400134,136.726944h6.783783v.639618h-6.783783v-.639618Z"/>
  </g>
  <g class="st23">
    <path d="M118.793933,139.401703c.271332-.439331.63092-.882904,1.078918-1.330917h-8.760742v-.646072h9.432678l.936798-.781754c.129211-.10762.402679-.312241.820526-.61377-.775299-.594391-1.361115-1.070267-1.757324-1.427826h-9.432678v-.633148h8.760742c-.443665-.452255-.803345-.898041-1.078918-1.337372h.736511c.508179.615982,1.135986,1.241562,1.883301,1.876846.747223.635361,1.340607,1.080048,1.779938,1.334137v.361801c-.581451.335953-1.212494.802246-1.893005,1.398743-.680573.596619-1.27063,1.19635-1.770233,1.799332h-.736511Z"/>
  </g>
  <g>
    <rect x="57.280139" y="135.499405" width="6.783783" height=".639618"/>
    <path d="M43.240039,134.317093h6.783783v.626694h-6.783783v-.626694ZM43.240039,136.726944h6.783783v.639618h-6.783783v-.639618Z"/>
    <text class="st4" transform="translate(175.84148 165.681534)"><tspan x="0" y="0">y</tspan></text>
    <text class="st4" transform="translate(161.561206 165.681534)"><tspan x="0" y="0">x</tspan></text>
  </g>
  <g class="st24">
    <text class="st4" transform="translate(149.080737 139.220597)"><tspan x="0" y="0">y</tspan></text>
  </g>
  <g class="st25">
    <text class="st4" transform="translate(65.921069 139.220597)"><tspan x="0" y="0">y</tspan></text>
  </g>
</svg>