<?xml version="1.0" encoding="UTF-8"?>
<svg id="Layer_1" xmlns="http://www.w3.org/2000/svg" version="1.1" viewBox="0 0 304 196">
  <!-- Generator: Adobe Illustrator 29.3.1, SVG Export Plug-In . SVG Version: 2.1.0 Build 151)  -->
  <defs>
    <style>
      .st0 {
        fill: #33c;
      }

      .st1 {
        fill: gray;
      }

      .st2 {
        font-family: TimesNewRomanPS-ItalicMT, 'Times New Roman';
        font-style: italic;
      }

      .st2, .st3 {
        font-size: 9px;
      }

      .st4 {
        letter-spacing: .000049em;
      }

      .st5 {
        fill: #b2b2b2;
        font-size: 10.02px;
      }

      .st5, .st3 {
        font-family: ArialNarrow, 'Arial Narrow';
      }

      .st6, .st3 {
        fill: #f30;
      }

      .st7 {
        letter-spacing: -.005994em;
      }

      .st8 {
        letter-spacing: -.011988em;
      }

      .st9 {
        letter-spacing: -.001023em;
      }

      .st10 {
        letter-spacing: -.000975em;
      }

      .st11 {
        letter-spacing: -.001953em;
      }

      .st12 {
        fill: #b2b2b2;
      }

      .st13 {
        letter-spacing: .011013em;
      }
    </style>
  </defs>
  <text class="st2" transform="translate(201.459961 8.97998)"><tspan x="0" y="0">y</tspan></text>
  <rect x="204.820007" y="9.280029" width=".419983" height="13.22998"/>
  <g>
    <path class="st0" d="M194.859985,11.380005l-.359985,1.26001-.299988,1.380005-.360016,1.559998c-1.574982,7.757996-2.764008,15.625-4.320007,23.399963l-1.079987,5.220032-1.26001,5.399963c-3.031006,12.180054-6.89798,23.351013-12.720001,34.5l-1.619995,2.880005-1.619995,2.820007-1.799988,2.880005c-23.302002,34.098022-52.975006,63.14801-80.280014,93.960022l-1.919998,2.159973-1.740005,2.100006-.899994-.779999,1.800003-2.040009,1.919998-2.220001,2.099991-2.339996c10.141006-11.240997,20.453003-22.300995,30.600006-33.539978l6.359985-7.02002,6.300018-7.139984c11.360992-12.953003,23.092987-26.562012,32.820007-40.799988l1.97998-2.940002,1.800018-2.880005,1.619995-2.76001,1.559998-2.820007c5.677002-10.909973,9.751984-22.305969,12.600006-34.26001l1.259979-5.399963,1.140015-5.220032c1.598999-7.755981,2.666992-15.682007,4.320007-23.399963l.299988-1.559998.360016-1.440002.359985-1.320007"/>
    <path class="st0" d="M61.479996,81.039978l-3.479996-1.559998,3.300003-1.799988M181.540009,10.659973l-.300018,1.080017-.299988,1.200012-.299988,1.320007c-1.412018,7.242981-1.992004,14.862976-3.360016,22.140015l-.959991,4.73999-1.080017,4.859985c-2.259003,8.377991-5.380005,16.677979-11.579987,22.97998l-1.679993,1.440002-1.740021,1.380005-1.919983,1.200012-2.040009,1.02002c-9.022003,4-20.078003,4.97998-29.820007,5.76001l-3.539978.179993-7.320007.299988c-16.116013.343018-32.047012-.330017-48.12001-.419983h-2.639999l-2.459991.059998-1.5.059998-.059998-1.140015,1.5-.059998,2.519989-.059998h2.639999c13.542999.094971,27.139999.606995,40.680008.539978l7.37999-.119995,7.319992-.299988c10.457001-.583008,23.207001-1.539001,32.880005-5.76001l1.980011-1.02002,1.799988-1.139954,1.740021-1.26001c14.747986-12.79303,15.097992-39.058044,18.539978-57l.360016-1.26001.359985-1.02002,1.02002.299988Z"/>
    <path class="st0" d="M252.700012,77.73999l3.299988,1.73999-3.420013,1.619995M198.880005,13.599976v.420044l-.119995.47998c-2.923004,14.531006-9.275024,28.710999-8.400024,43.799988l.060028.840027.119995.839966c1.591003,19.509033,43.552002,17.790039,55.199982,18.660034l5.100006.179993,2.399994.059998-.059998,1.140015-2.339996-.059998-5.100006-.179993c-12.626984-.973022-54.533997.875-56.339996-19.680054l-.119995-.839966-.059998-.840027c-.757996-15.18396,5.356995-29.494995,8.459991-44.099976l.059998-.419983.059998-.480042,1.080017.179993Z"/>
  </g>
  <text class="st2" transform="translate(292 90.219727)"><tspan x="0" y="0">x</tspan></text>
  <g>
    <path class="st12" d="M199.660004,25.659973l-.420013,1.080017-.47998,1.200012-.480011,1.320007c-2.175995,6.567017-3.815002,13.307983-6.059998,19.859985l-1.5,4.440002-1.679993,4.619995c-3.632996,9.484009-8.205017,18.650024-14.100006,26.940002l-1.73999,2.460022-1.920013,2.459961-1.980011,2.400024-2.099976,2.460022c-10.28302,11.286987-21.764008,21.406982-33.300018,31.379974l-7.199982,6.059998-7.26001,6.119995c-14.094009,11.641998-28.406006,23.016022-42.479996,34.680023l-2.400009,1.97998-2.279999,1.920013-1.979996,1.73999-.540009-.540009,2.040009-1.799988,2.279999-1.860016c30.806992-25.977997,64.979996-50.809998,92.520004-80.160004l2.160004-2.459961,1.919983-2.400024,1.860016-2.400024c6.164001-8.209961,11.037994-17.375,14.880005-26.879944l.899994-2.340027,1.679993-4.619995c2.914001-8.065002,5.001007-16.200012,7.559998-24.359985l.959991-2.52002.480011-1.080017"/>
    <rect x="204.820007" y="22.450012" width=".419983" height="90.059998"/>
  </g>
  <rect x="31" y="90.100037" width="255" height=".359985"/>
  <path class="st0" d="M194.859985,11.380005l-.359985,1.26001-.299988,1.380005-.360016,1.559998c-1.574982,7.757996-2.764008,15.625-4.320007,23.399963l-1.079987,5.220032-1.26001,5.399963c-3.031006,12.180054-6.89798,23.351013-12.720001,34.5l-1.619995,2.880005-1.619995,2.820007-1.799988,2.880005c-23.302002,34.098022-52.975006,63.14801-80.280014,93.960022l-1.919998,2.159973-1.740005,2.100006-.899994-.779999,1.800003-2.040009,1.919998-2.220001,2.099991-2.339996c10.141006-11.240997,20.453003-22.300995,30.600006-33.539978l6.359985-7.02002,6.300018-7.139984c11.360992-12.953003,23.092987-26.562012,32.820007-40.799988l1.97998-2.940002,1.800018-2.880005,1.619995-2.76001,1.559998-2.820007c5.677002-10.909973,9.751984-22.305969,12.600006-34.26001l1.259979-5.399963,1.140015-5.220032c1.598999-7.755981,2.666992-15.682007,4.320007-23.399963l.299988-1.559998.360016-1.440002.359985-1.320007"/>
  <g>
    <path class="st0" d="M276.640015,88.359985l3.359985,1.73999-3.359985,1.680054M43.419998,91.780029l-3.419998-1.680054,3.419998-1.73999v3.420044ZM42.820007,89.5h234.419983v1.140015H42.820007v-1.140015Z"/>
    <path class="st6" d="M169.600006,90.280029v-.120056l.059998.240051v-.059998l.119995.23999-.059998-.119995.179993.23999-.059998-.059998.23999.179993-.119995-.059998.240021.119995h-.059998l.23999.059998h-.119995.299988-.059998.299988-.119995l.240021-.059998h-.060028l.240021-.119995-.119995.059998.23999-.179993-.059998.059998.179993-.23999-.059998.119995.119995-.23999v.059998l.059998-.240051v.120056-.300049.059998-.299988.119995l-.059998-.23999v.059998l-.119995-.23999.059998.119995-.179993-.23999.059998.059998-.23999-.179993.119995.059998-.240021-.119995h.060028l-.240021-.059998h.119995-.299988.059998-.299988.119995l-.23999.059998h.059998l-.240021.119995.119995-.059998-.23999.179993.059998-.059998-.179993.23999.059998-.119995-.119995.23999v-.059998l-.059998.23999v-.119995.299988-.059998M168.459991,90.039978v-.059998l.059998-.299988v-.119995l.120026-.299988v-.119995l.179993-.23999s0-.059998.059998-.059998l.179993-.240051q0-.059998.059998-.059998l.23999-.179993c0-.059998.060028-.059998.060028-.059998l.23999-.179993h.119995l.299988-.119995h.120026l.299988-.059998h.059998l.299988.059998h.120026l.299988.119995h.119995l.240021.179993s.059998,0,.059998.059998l.23999.179993q.059998,0,.059998.059998l.179993.240051c.059998,0,.059998.059998.059998.059998l.180023.23999v.119995l.119995.299988v.119995l.059998.299988v.059998l-.059998.300049v.119995l-.119995.299988v.119995l-.180023.23999s0,.059998-.059998.059998l-.179993.23999q0,.059998-.059998.059998l-.23999.179993c0,.059998-.059998.059998-.059998.059998l-.240021.180054h-.119995l-.299988.119995h-.120026l-.299988.059998h-.059998l-.299988-.059998h-.120026l-.299988-.119995h-.119995l-.23999-.180054s-.060028,0-.060028-.059998l-.23999-.179993q-.059998,0-.059998-.059998l-.179993-.23999c-.059998,0-.059998-.059998-.059998-.059998l-.179993-.23999v-.119995l-.120026-.299988v-.119995l-.059998-.300049Z"/>
    <text class="st3" transform="translate(169.599609 99.640137)"><tspan class="st11" x="0" y="0">–</tspan><tspan x="4.086914" y="0">1</tspan></text>
    <path class="st0" d="M187,88.599976l3,1.5-3,1.5M178,89.679993h9.540009v.780029h-9.540009v-.780029Z"/>
    <path class="st0" d="M154,91.599976l-3-1.5,3-1.5M163,90.460022h-9.480011v-.780029h9.480011v.780029Z"/>
  </g>
  <g>
    <path class="st0" d="M61.479996,81.039978l-3.479996-1.559998,3.300003-1.799988M181.540009,10.659973l-.300018,1.080017-.299988,1.200012-.299988,1.320007c-1.412018,7.242981-1.992004,14.862976-3.360016,22.140015l-.959991,4.73999-1.080017,4.859985c-2.259003,8.377991-5.380005,16.677979-11.579987,22.97998l-1.679993,1.440002-1.740021,1.380005-1.919983,1.200012-2.040009,1.02002c-9.022003,4-20.078003,4.97998-29.820007,5.76001l-3.539978.179993-7.320007.299988c-16.116013.343018-32.047012-.330017-48.12001-.419983h-2.639999l-2.459991.059998-1.5.059998-.059998-1.140015,1.5-.059998,2.519989-.059998h2.639999c13.542999.094971,27.139999.606995,40.680008.539978l7.37999-.119995,7.319992-.299988c10.457001-.583008,23.207001-1.539001,32.880005-5.76001l1.980011-1.02002,1.799988-1.139954,1.740021-1.26001c14.747986-12.79303,15.097992-39.058044,18.539978-57l.360016-1.26001.359985-1.02002,1.02002.299988Z"/>
    <path class="st0" d="M252.700012,77.73999l3.299988,1.73999-3.420013,1.619995M198.880005,13.599976v.420044l-.119995.47998c-2.923004,14.531006-9.275024,28.710999-8.400024,43.799988l.060028.840027.119995.839966c1.591003,19.509033,43.552002,17.790039,55.199982,18.660034l5.100006.179993,2.399994.059998-.059998,1.140015-2.339996-.059998-5.100006-.179993c-12.626984-.973022-54.533997.875-56.339996-19.680054l-.119995-.839966-.059998-.840027c-.757996-15.18396,5.356995-29.494995,8.459991-44.099976l.059998-.419983.059998-.480042,1.080017.179993Z"/>
    <path class="st0" d="M48.339996,103.47998l-2.339996-3,3.779999-.059998M84.580002,180.459991l.300003-.359985.360001-.360016c10.975998-11.069977,25.710999-19.451996,32.759995-33.839996l.479996-1.440002.180008-.660004c1.643005-6.241974-3.593002-10.020996-8.100006-13.259979l-1.979996-1.320007-2.100006-1.320007c-16.819-9.553009-35.600998-16.095978-53.459991-23.579987l-2.100006-.900024-1.860001-.839966-.720001-.360046.480011-1.019958.659988.359985,1.919998.840027,2.040009.899963c17.145004,7.116028,34.990997,13.444,51.300003,22.320007l2.279999,1.320007,2.159988,1.320007c5.174011,3.588989,12.121002,7.763977,10.740021,15.059998l-.180023.720001-.179993.779999-.23999.779999-.300018.779999c-2.883987,6.648987-8.673996,12.363983-13.859985,17.220001l-1.62001,1.5-1.679993,1.5c-4.904007,4.487-10.740005,8.811005-15.419998,13.5l-.720001.720001-.240005.359985-.899994-.720001Z"/>
    <path class="st0" d="M258.700012,97.119995l3.299988,1.73999-3.420013,1.619995M111.580002,182.559998l7.139999-10.799988c39.076996-58.604004,59.764984-76.413025,131.700012-73.799988l8.819977.299988-.059998,1.080017-8.759979-.240051c-71.826019-2.540955-91.559021,14.840027-130.800018,73.26001l-7.139999,10.860016-.899994-.660004Z"/>
    <path class="st0" d="M155.920013,106.900024l2.819977-1.800049-.23999,3.300049M152.320007,115.23999l4.799988-8.219971.660004.419983-4.799988,8.159973-.660004-.359985Z"/>
  </g>
  <path class="st0" d="M183.700012,66.099976l-2.279999,2.52002-.600006-3.299988M185.019989,57.159973l-2.519989,9.120056-.779999-.180054,2.579987-9.179993.720001.23999Z"/>
  <g>
    <path class="st12" d="M199.660004,25.659973l-.420013,1.080017-.47998,1.200012-.480011,1.320007c-2.175995,6.567017-3.815002,13.307983-6.059998,19.859985l-1.5,4.440002-1.679993,4.619995c-3.632996,9.484009-8.205017,18.650024-14.100006,26.940002l-1.73999,2.460022-1.920013,2.459961-1.980011,2.400024-2.099976,2.460022c-10.28302,11.286987-21.764008,21.406982-33.300018,31.379974l-7.199982,6.059998-7.26001,6.119995c-14.094009,11.641998-28.406006,23.016022-42.479996,34.680023l-2.400009,1.97998-2.279999,1.920013-1.979996,1.73999-.540009-.540009,2.040009-1.799988,2.279999-1.860016c30.806992-25.977997,64.979996-50.809998,92.520004-80.160004l2.160004-2.459961,1.919983-2.400024,1.860016-2.400024c6.164001-8.209961,11.037994-17.375,14.880005-26.879944l.899994-2.340027,1.679993-4.619995c2.914001-8.065002,5.001007-16.200012,7.559998-24.359985l.959991-2.52002.480011-1.080017"/>
    <rect x="204.820007" y="112.450012" width=".419983" height="64.829987"/>
    <path class="st0" d="M194.859985,11.380005l-.359985,1.26001-.299988,1.380005-.360016,1.559998c-1.574982,7.757996-2.764008,15.625-4.320007,23.399963l-1.079987,5.220032-1.26001,5.399963c-3.031006,12.180054-6.89798,23.351013-12.720001,34.5l-1.619995,2.880005-1.619995,2.820007-1.799988,2.880005c-23.302002,34.098022-52.975006,63.14801-80.280014,93.960022l-1.919998,2.159973-1.740005,2.100006-.899994-.779999,1.800003-2.040009,1.919998-2.220001,2.099991-2.339996c10.141006-11.240997,20.453003-22.300995,30.600006-33.539978l6.359985-7.02002,6.300018-7.139984c11.360992-12.953003,23.092987-26.562012,32.820007-40.799988l1.97998-2.940002,1.800018-2.880005,1.619995-2.76001,1.559998-2.820007c5.677002-10.909973,9.751984-22.305969,12.600006-34.26001l1.259979-5.399963,1.140015-5.220032c1.598999-7.755981,2.666992-15.682007,4.320007-23.399963l.299988-1.559998.360016-1.440002.359985-1.320007"/>
    <path class="st0" d="M48.339996,103.47998l-2.339996-3,3.779999-.059998M84.580002,180.459991l.300003-.359985.360001-.360016c10.975998-11.069977,25.710999-19.451996,32.759995-33.839996l.479996-1.440002.180008-.660004c1.643005-6.241974-3.593002-10.020996-8.100006-13.259979l-1.979996-1.320007-2.100006-1.320007c-16.819-9.553009-35.600998-16.095978-53.459991-23.579987l-2.100006-.900024-1.860001-.839966-.720001-.360046.480011-1.019958.659988.359985,1.919998.840027,2.040009.899963c17.145004,7.116028,34.990997,13.444,51.300003,22.320007l2.279999,1.320007,2.159988,1.320007c5.174011,3.588989,12.121002,7.763977,10.740021,15.059998l-.180023.720001-.179993.779999-.23999.779999-.300018.779999c-2.883987,6.648987-8.673996,12.363983-13.859985,17.220001l-1.62001,1.5-1.679993,1.5c-4.904007,4.487-10.740005,8.811005-15.419998,13.5l-.720001.720001-.240005.359985-.899994-.720001Z"/>
    <path class="st0" d="M258.700012,97.119995l3.299988,1.73999-3.420013,1.619995M111.580002,182.559998l7.139999-10.799988c39.076996-58.604004,59.764984-76.413025,131.700012-73.799988l8.819977.299988-.059998,1.080017-8.759979-.240051c-71.826019-2.540955-91.559021,14.840027-130.800018,73.26001l-7.139999,10.860016-.899994-.660004Z"/>
    <path class="st0" d="M155.920013,106.900024l2.819977-1.800049-.23999,3.300049M152.320007,115.23999l4.799988-8.219971.660004.419983-4.799988,8.159973-.660004-.359985Z"/>
  </g>
  <g>
    <text class="st5" transform="translate(4.600098 133.060059)"><tspan x="0" y="0">Notice</tspan><tspan class="st7" x="23.288574" y="0"> </tspan><tspan class="st4" x="25.513184" y="0">that</tspan><tspan class="st7" x="39.222168" y="0"> </tspan><tspan class="st4" x="41.446777" y="0">the</tspan><tspan class="st7" x="52.871094" y="0"> </tspan><tspan x="55.095703" y="0">major </tspan></text>
    <text class="st5" transform="translate(4.600098 145.060059)"><tspan class="st9" x="0" y="0">vertical</tspan><tspan x="25.948242" y="0"> </tspan><tspan class="st9" x="28.23291" y="0">blue</tspan><tspan x="43.727051" y="0"> </tspan><tspan class="st10" x="46.011719" y="0">flow</tspan><tspan class="st7" x="60.581055" y="0"> </tspan><tspan class="st10" x="62.805664" y="0">line</tspan><tspan x="75.554688" y="0"> </tspan><tspan class="st9" x="77.839355" y="0">does</tspan><tspan x="95.618164" y="0"> </tspan></text>
    <text class="st5" transform="translate(4.600098 157.060059)"><tspan class="st9" x="0" y="0">not</tspan><tspan class="st8" x="11.394043" y="0"> </tspan><tspan class="st9" x="13.558594" y="0">coincide</tspan><tspan class="st13" x="43.626465" y="0"> </tspan><tspan class="st10" x="46.021484" y="0">with</tspan><tspan class="st7" x="60.59082" y="0"> </tspan><tspan class="st10" x="62.81543" y="0">the</tspan><tspan x="74.209473" y="0"> </tspan></text>
    <text class="st5" transform="translate(4.600098 169.060059)"><tspan class="st9" x="0" y="0">nullcline</tspan><tspan class="st4" x="29.597656" y="0">.</tspan></text>
    <path class="st1" d="M135.399994,127.23999l.600006,3.240021-3-1.440002M133.299988,126.76001l.120026.119995.599976.660004.600006.779999-.359985.299988-.600006-.720001-.600006-.660004-.119995-.119995.359985-.359985ZM130.540009,124.540009l.660004.419983.779999.600006.23999.179993-.360016.360016-.179993-.119995-.779999-.600006-.600006-.420013.240021-.419983ZM127.420013,122.920013l.23999.119995.600006.23999.539978.23999.420013.240021-.179993.419983-.420013-.179993-.540009-.23999-.599976-.240021-.240021-.119995.180023-.47998ZM124.059998,121.839996l.299988.059998.720001.240021.720001.179993.180023.059998-.180023.47998-.179993-.059998-.660004-.179993-.720001-.179993-.299988-.119995.119995-.480011ZM120.579987,121.179993l.480011.059998,1.5.300018-.059998.47998-.660004-.119995-.839996-.119995-.480011-.119995.059998-.480011ZM117.100006,120.76001l.959991.119995,1.019989.119995-.059998.480011-1.019989-.120026-.960007-.119995.060013-.47998ZM113.619995,120.399994l.840012.059998,1.139999.119995-.060013.480011-1.139999-.059998-.839996-.119995.059998-.480011ZM110.139999,120.160004h.240005l1.37999.119995h.360001l-.059998.480011h-.300003l-1.439987-.119995h-.240005l.059998-.480011ZM106.600006,119.920013l.899994.059998,1.139999.059998-.059998.47998-1.139999-.059998h-.839996v-.539978ZM103.119995,119.799988l1.980011.059998v.540009l-1.980011-.119995v-.480011ZM99.639999,119.73999h1.979996v.540009l-1.73999-.059998h-.300003l.059998-.480011ZM96.100006,119.679993h2.039993l-.059998.540009-1.199997-.059998h-.779999v-.480011ZM92.619995,119.73999l1.200012-.059998h.779999v.540009h-1.980011v-.480011ZM89.080002,119.859985h.419998l1.440002-.059998h.179993v.480011h-.179993l-1.440002.059998-.360001.059998-.059998-.540009ZM85.600006,120.160004l1.199997-.119995.779999-.059998.059998.47998-.839996.059998-1.139999.120026-.059998-.480011ZM82.119995,120.579987l.900009-.119995,1.080002-.179993.059998.540009-1.020004.119995-.960007.119995-.059998-.480011ZM78.639999,121.359985l.300003-.059998.899994-.299988.779999-.119995.12001.47998-.720001.180023-.900009.179993-.299988.119995-.180008-.480011ZM75.460007,122.859985l.299988-.23999.779999-.419983.660004-.300018.240005.420013-.660004.359985-.720001.360016-.360001.23999-.23999-.420013ZM72.639999,125.019989l.600006-.47998.539993-.540009.419998-.299988.300003.419983-.360001.23999-.600006.540009-.539993.480011-.360001-.360016ZM70.419998,127.779999l.300003-.420013.419998-.599976.479996-.540009v-.059998l.419998.359985-.479996.540009-.419998.600006-.300003.419983-.419998-.299988ZM68.679993,130.839996l.180008-.359985.720001-1.26001.059998-.119995.419998.23999-.059998.119995-.660004,1.200012-.23999.419983-.420013-.23999ZM67.179993,134.019989l.060013-.119995.479996-1.079987.300003-.600006.419998.179993-.240005.600006-.300003.600006-.23999.540009-.059998.119995-.420013-.240021ZM65.5,137.019989l.240005-.23999.179993-.299988.240005-.360016.360001-.720001.479996.179993-.240005.420013-.179993.420013-.240005.359985-.23999.299988-.180008.300018-.419998-.360016Z"/>
    <path class="st1" d="M77.619995,166.480011l1.380005,3-3.240005-.660004M74.679993,166.119995l.720001.360016.660004.419983.419998.240021-.300003.419983-.419998-.23999-.599991-.420013-.660004-.359985.179993-.420013ZM71.199997,165.279999h.419998l.779999.119995.779999.179993h.060013l-.12001.480011h-.059998l-.720001-.179993-.779999-.059998-.360001-.059998v-.480011ZM67.720001,165.940002l.240005-.059998.479996-.179993.959991-.240021.300003-.059998.059998.480011-.720001.179993-.419998.119995-.479996.179993-.240005.060028-.179993-.480011ZM64.660004,167.73999l.539993-.419983.600006-.420013.479996-.299988.300003.419983-.479996.300018-.540009.359985-.599991.480011-.300003-.420013ZM62.020004,170.140015l.720001-.720001.659988-.600006.12001-.059998.300003.359985-.060013.059998-.659988.600006-.720001.720001-.360001-.359985ZM59.559998,172.660004l.479996-.540009.900009-.899994.360001.299988-.180008.240021-1.199997,1.199982-.360001-.299988ZM57.160004,175.179993l.779999-.779999.599991-.660004.360001.360016-.599991.600006-.720001.839996-.419998-.360016ZM54.759995,177.76001l.360001-.360016,1.020004-1.139984.360001.359985-1.020004,1.140015-.360001.299988-.360001-.299988ZM52.300003,180.160004l.660004-.600006.779999-.779999.360001.360016-.060013.059998-1.37999,1.379974-.360001-.419983ZM49.660004,182.440002l.599991-.480011.660004-.539978.300003-.240021.300003.360016-.300003.299988-.660004.540009-.599991.419983-.300003-.359985ZM46.660004,184.059998l.419998-.119995,1.199997-.600006.180008-.059998.23999.420013-.179993.059998-.600006.359985-.660004.300018-.419998.119995-.179993-.480011ZM43.360001,184.179993v.059998l.539993.059998.480011.059998h.899994v.480011h-.899994l-.600006-.059998-.539993-.059998.119995-.540009ZM40.240005,182.859985l.23999.120026.419998.299988.480011.23999.539993.240021h.059998l-.179993.47998-.600006-.299988-.539993-.23999-.480011-.300018-.179993-.119995.240005-.420013ZM37.600006,180.640015l.539993.47998.479996.420013.419998.419983-.299988.420013v-.059998l-.960007-.839996-.539993-.480011.360001-.359985ZM35.320007,178l.179993.23999.839996,1.02002.240005.299988-.360001.299988-.240005-.299988-.899994-1.019989-.119995-.240021.360001-.299988ZM33.220001,175.23999l.539993.720001.660004.899994-.419998.300018-.660004-.899994-.479996-.720001.360001-.300018ZM31.240005,172.359985l1.139999,1.620026-.419998.299988-1.139999-1.619995.419998-.300018Z"/>
  </g>
</svg>