<?xml version="1.0" encoding="UTF-8"?>
<svg id="Layer_1" xmlns="http://www.w3.org/2000/svg" version="1.1" viewBox="0 0 326 171">
  <!-- Generator: Adobe Illustrator 29.3.1, SVG Export Plug-In . SVG Version: 2.1.0 Build 151)  -->
  <defs>
    <style>
      .st0, .st1, .st2 {
        fill: #33c;
      }

      .st3 {
        font-size: 9.315px;
      }

      .st3, .st4 {
        font-family: TimesNewRomanPSMT, 'Times New Roman';
      }

      .st4 {
        font-size: 5.4338px;
      }

      .st1 {
        font-family: ArialNarrow, 'Arial Narrow';
        font-size: 9px;
      }

      .st5 {
        letter-spacing: .003038em;
      }

      .st6 {
        letter-spacing: .00293em;
      }

      .st7 {
        letter-spacing: .002984em;
      }

      .st8 {
        letter-spacing: .002062em;
      }

      .st9 {
        letter-spacing: .001953em;
      }

      .st10 {
        letter-spacing: .002007em;
      }

      .st11 {
        letter-spacing: -.001085em;
      }

      .st12 {
        letter-spacing: -.001031em;
      }

      .st13 {
        letter-spacing: -.000977em;
      }

      .st14 {
        letter-spacing: -.002062em;
      }

      .st15 {
        letter-spacing: -.001953em;
      }

      .st16 {
        letter-spacing: -.002007em;
      }

      .st2 {
        fill-rule: evenodd;
      }

      .st17 {
        letter-spacing: .018012em;
      }

      .st18 {
        letter-spacing: .031033em;
      }

      .st19 {
        letter-spacing: .0051em;
      }

      .st20 {
        letter-spacing: .004991em;
      }

      .st21 {
        letter-spacing: .011013em;
      }

      .st22 {
        letter-spacing: .012153em;
      }

      .st23 {
        letter-spacing: .010959em;
      }

      .st24 {
        letter-spacing: .011936em;
      }
    </style>
  </defs>
  <rect class="st0" x="53.639999" y="27.47998" width=".779999" height="9.030029"/>
  <path class="st0" d="M56.363678,14.732788v.861328h-1.828125c-.132843,1.285217-.199219,2.166016-.199219,2.642578,0,.378906.071228.65332.213867.823242.142548.169922.321259.254883.536133.254883.160126,0,.298828-.054688.416016-.164062.117188-.109314.203064-.296814.257812-.5625h.205078c-.066467.640686-.209015,1.083069-.427734,1.327148-.218811.24408-.474609.366211-.767578.366211-.308624,0-.566437-.139709-.773438-.418945-.207092-.279236-.310547-.77832-.310547-1.49707,0-.566345.070312-1.490234.210938-2.771484h-.550781c-.316406,0-.564514.057678-.744141.172852-.179718.115234-.357422.333069-.533203.65332h-.216797c.28125-.75.533203-1.21875.755859-1.40625s.539062-.28125.949219-.28125h2.806641Z"/>
  <path class="st0" d="M228.179993,13.080017l-16.440002,4.320007-8.160004,2.219971-8.159973,2.160034c-35.71701,9.840942-73.046021,19.509949-107.400009,33.599976l-2.520004,1.080017-2.399994,1.019958c-7.741013,3.557007-26.820007,12.375-28.380005,22.02002l-.119995,1.02002v.959961l.119995,1.02002.240005.960022c3.190994,9.804993,22.717987,17.886963,31.319992,21.539978l2.580002,1.02002,2.639999,1.019958c36.045013,13.442993,74.531006,22.420044,111.779999,31.740021l8.399994,2.040009,8.460022,2.039978,17.039978,4.080017-.299988,1.139984-16.980011-4.079987-8.459991-2.040009-8.399994-2.039978c-37.265015-9.340027-75.825012-18.399017-111.900009-31.800018l-2.699997-1.080017-2.580002-1.019958c-9.070999-3.77002-28.671997-11.947021-31.979996-22.26001l-.300003-1.140015-.119995-1.080017v-1.139954l.119995-1.140015c1.944-10.317017,20.641998-18.911011,29.039993-22.799988l2.460007-1.080017,2.520004-1.080017c34.371979-14.062988,71.798981-23.75,107.519989-33.599976l8.160004-2.220032,8.160004-2.159973,16.440002-4.380005"/>
  <g>
    <text class="st1" transform="translate(69.600098 35.100098)"><tspan class="st16" x="0" y="0">Un</tspan><tspan class="st5" x="9.394531" y="0">s</tspan><tspan class="st12" x="13.113281" y="0">t</tspan><tspan class="st16" x="15.15625" y="0">able</tspan><tspan class="st23" x="29.037109" y="0"> </tspan><tspan class="st15" x="31.187988" y="0">node</tspan><tspan x="47.53418" y="0">s</tspan></text>
    <text class="st3" transform="translate(276.480469 13.560059)"><tspan x="0" y="0">0</tspan></text>
    <text class="st3" transform="translate(251.400391 13.560059)"><tspan x="0" y="0">4</tspan></text>
    <text class="st4" transform="translate(235.5 9.419922)"><tspan x="0" y="0">2</tspan></text>
    <path d="M266.928284,10.107788h4.775757v.441223h-4.775757v-.441223ZM266.928284,11.804321h4.775757v.450317h-4.775757v-.450317Z"/>
    <path d="M261.775848,13.559998h-5.458008l2.856354-6.308533,2.601654,6.308533ZM260.702454,13.187012l-1.814789-4.398193-2.001282,4.398193h3.816071Z"/>
    <rect x="242.867676" y="10.940125" width="4.775757" height=".450317"/>
    <path d="M234.742737,9.393738l-.228668.668579h-1.419098c-.444336.997681-.729706,1.681396-.856201,2.051331-.100616.294128-.118164.507141-.052551.639038.065521.131897.181702.197815.34848.197815.124298,0,.24649-.042419.366486-.127319s.23645-.230408.349487-.436646h.15918c-.22168.497314-.449799.840698-.684357,1.030212-.23468.189453-.465668.284241-.693085.284241-.239563,0-.402588-.108459-.489136-.325195-.086639-.216736-.034424-.604126.156403-1.162109.15036-.439636.450195-1.156738.899536-2.151367h-.427551c-.245605,0-.453522.0448-.623535.134155-.170105.089478-.365875.258545-.587341.507141h-.168274c.417419-.582153.737457-.946045.960083-1.091553.222595-.145569.493103-.218323.811493-.218323h2.17865Z"/>
  </g>
  <rect class="st0" x="53.639999" y="36.450012" width=".779999" height="90.059998"/>
  <g>
    <rect class="st0" x="51" y="81.120056" width="189" height=".779968"/>
    <path class="st0" d="M256.183594,84.47998h-7.03125l3.679688-8.126953,3.351562,8.126953ZM254.800781,83.999512l-2.337891-5.666016-2.578125,5.666016h4.916016Z"/>
  </g>
  <path class="st0" d="M228.179993,13.080017l-16.440002,4.320007-8.160004,2.219971-8.159973,2.160034c-35.71701,9.840942-73.046021,19.509949-107.400009,33.599976l-2.520004,1.080017-2.399994,1.019958c-7.741013,3.557007-26.820007,12.375-28.380005,22.02002l-.119995,1.02002v.959961l.119995,1.02002.240005.960022c3.190994,9.804993,22.717987,17.886963,31.319992,21.539978l2.580002,1.02002,2.639999,1.019958c36.045013,13.442993,74.531006,22.420044,111.779999,31.740021l8.399994,2.040009,8.460022,2.039978,17.039978,4.080017-.299988,1.139984-16.980011-4.079987-8.459991-2.040009-8.399994-2.039978c-37.265015-9.340027-75.825012-18.399017-111.900009-31.800018l-2.699997-1.080017-2.580002-1.019958c-9.070999-3.77002-28.671997-11.947021-31.979996-22.26001l-.300003-1.140015-.119995-1.080017v-1.139954l.119995-1.140015c1.944-10.317017,20.641998-18.911011,29.039993-22.799988l2.460007-1.080017,2.520004-1.080017c34.371979-14.062988,71.798981-23.75,107.519989-33.599976l8.160004-2.220032,8.160004-2.159973,16.440002-4.380005"/>
  <g>
    <text class="st1" transform="translate(135.600098 59.100098)"><tspan class="st13" x="0" y="0">Un</tspan><tspan class="st10" x="9.412598" y="0">s</tspan><tspan x="13.12207" y="0">t</tspan><tspan class="st13" x="15.174316" y="0">ab</tspan><tspan class="st14" x="23.365723" y="0">l</tspan><tspan class="st11" x="24.986816" y="0">e</tspan><tspan class="st22" x="29.081543" y="0"> </tspan><tspan class="st9" x="31.242676" y="0">s</tspan><tspan class="st15" x="34.95166" y="0">pi</tspan><tspan class="st11" x="40.659668" y="0">ra</tspan><tspan class="st14" x="47.202637" y="0">l</tspan><tspan x="48.82373" y="0">s</tspan></text>
    <text class="st1" transform="translate(135.600098 107.099609)"><tspan class="st13" x="0" y="0">Stab</tspan><tspan class="st16" x="15.146973" y="0">l</tspan><tspan class="st12" x="16.768066" y="0">e</tspan><tspan class="st24" x="20.86377" y="0"> </tspan><tspan class="st8" x="23.023926" y="0">s</tspan><tspan class="st14" x="26.733887" y="0">pi</tspan><tspan class="st11" x="32.440918" y="0">ra</tspan><tspan class="st14" x="38.983887" y="0">l</tspan><tspan x="40.60498" y="0">s</tspan></text>
    <text class="st1" transform="translate(40.619995 104.879883) rotate(-90)"><tspan class="st16" x="0" y="0">Saddle</tspan><tspan class="st17" x="22.871094" y="0"> </tspan><tspan class="st16" x="25.085449" y="0">point</tspan><tspan x="41" y="0">s</tspan></text>
    <text class="st1" transform="translate(193.200195 79.140137)"><tspan class="st13" x="0" y="0">Center</tspan><tspan x="22.094727" y="0">s</tspan></text>
    <polyline class="st2" points="184.679993 81.47998 186.299988 79.5 185.040009 79.5 185.040009 76.080017 192 76.080017 192 75.47998 184.320007 75.47998 184.320007 79.5 183 79.5"/>
    <path class="st0" d="M182.640015,79.320007h1.679993l-.179993.179993v-4.200012h8.099976v.960022h-7.199982l.179993-.179993v3.419983l-.179993-.179993h1.679993l-2.040009,2.460022M184.799988,81.359985h-.299988l1.679993-1.97998.119995.299988h-1.440002v-3.779968h7.140015l-.179993.179993v-.600037l.179993.23999h-7.679993l.179993-.23999v4.200012h-1.5l.179993-.299988,1.619995,1.97998Z"/>
  </g>
  <g>
    <rect class="st0" x="53.639999" y="126.450012" width=".779999" height="18.029999"/>
    <path class="st0" d="M228.179993,13.080017l-16.440002,4.320007-8.160004,2.219971-8.159973,2.160034c-35.71701,9.840942-73.046021,19.509949-107.400009,33.599976l-2.520004,1.080017-2.399994,1.019958c-7.741013,3.557007-26.820007,12.375-28.380005,22.02002l-.119995,1.02002v.959961l.119995,1.02002.240005.960022c3.190994,9.804993,22.717987,17.886963,31.319992,21.539978l2.580002,1.02002,2.639999,1.019958c36.045013,13.442993,74.531006,22.420044,111.779999,31.740021l8.399994,2.040009,8.460022,2.039978,17.039978,4.080017-.299988,1.139984-16.980011-4.079987-8.459991-2.040009-8.399994-2.039978c-37.265015-9.340027-75.825012-18.399017-111.900009-31.800018l-2.699997-1.080017-2.580002-1.019958c-9.070999-3.77002-28.671997-11.947021-31.979996-22.26001l-.300003-1.140015-.119995-1.080017v-1.139954l.119995-1.140015c1.944-10.317017,20.641998-18.911011,29.039993-22.799988l2.460007-1.080017,2.520004-1.080017c34.371979-14.062988,71.798981-23.75,107.519989-33.599976l8.160004-2.220032,8.160004-2.159973,16.440002-4.380005"/>
  </g>
  <g>
    <text class="st1" transform="translate(69.600098 134.100098)"><tspan class="st16" x="0" y="0">Stable</tspan><tspan class="st21" x="20.818848" y="0"> </tspan><tspan class="st16" x="22.970215" y="0">node</tspan><tspan x="39.315918" y="0">s</tspan></text>
    <text class="st1" transform="translate(5.459473 150.419922)"><tspan class="st13" x="0" y="0">Non-i</tspan><tspan class="st7" x="17.585938" y="0">s</tspan><tspan class="st13" x="21.304199" y="0">olate</tspan><tspan x="37.26416" y="0">d</tspan></text>
    <text class="st1" transform="translate(5.459473 161.219727)"><tspan class="st16" x="0" y="0">fi</tspan><tspan class="st5" x="3.655273" y="0">x</tspan><tspan class="st16" x="7.374023" y="0">ed</tspan><tspan class="st20" x="15.546875" y="0"> </tspan><tspan class="st16" x="17.644043" y="0">point</tspan><tspan x="33.559082" y="0">s</tspan></text>
    <polyline class="st2" points="54.240005 145.799988 52.619995 147.839996 53.880005 147.839996 53.880005 151.26001 46.919998 151.26001 46.919998 151.799988 54.600006 151.799988 54.600006 147.839996 55.919998 147.839996"/>
    <path class="st0" d="M56.279999,148.019989h-1.679993l.179993-.179993v4.140015h-8.039993v-.900024h7.139999l-.180008.180023v-3.420013l.180008.179993h-1.680008l2.040009-2.519989M54.119995,145.920013h.300003l-1.679993,2.039978-.12001-.299988h1.5v3.779999h-7.199997l.180008-.179993v.539978l-.180008-.179993h7.680008l-.180008.179993v-4.139984h1.5l-.179993.299988-1.62001-2.039978Z"/>
    <text class="st1" transform="translate(241.44043 162.839844)"><tspan class="st15" x="0" y="0">Star</tspan><tspan class="st8" x="13.462891" y="0">s</tspan><tspan class="st11" x="17.172852" y="0">, </tspan><tspan class="st15" x="21.258789" y="0">dege</tspan><tspan class="st6" x="37.605469" y="0">n</tspan><tspan class="st15" x="41.736328" y="0">era</tspan><tspan class="st19" x="52.347656" y="0">t</tspan><tspan class="st15" x="54.445312" y="0">e</tspan><tspan class="st18" x="58.532227" y="0"> </tspan><tspan class="st14" x="60.863281" y="0">node</tspan><tspan x="77.208984" y="0">s</tspan></text>
    <polyline class="st2" points="237.959991 147.720001 239.940002 149.339996 239.940002 148.079987 243.420013 148.079987 243.420013 155.100006 243.959991 155.100006 243.959991 147.359985 239.940002 147.359985 239.940002 146.100006"/>
    <path class="st0" d="M240.179993,145.679993v1.679993l-.23999-.179993h4.200012v8.100006h-.900024v-7.200012l.180023.180023h-3.480011l.23999-.180023v1.680023l-2.519989-2.040009M238.079987,147.839996v-.299988l1.980011,1.679993-.299988.119995v-1.440002h3.839996v7.200012l-.179993-.240021h.539978l-.179993.240021v-7.740021l.179993.180023h-4.199982v-1.440002l.299988.119995-1.980011,1.619995Z"/>
  </g>
</svg>