<?xml version="1.0" encoding="UTF-8"?>
<svg id="Layer_1" xmlns="http://www.w3.org/2000/svg" xmlns:xlink="http://www.w3.org/1999/xlink" width="285" height="166"version="1.1" viewBox="0 0 285 166">
  <!-- Generator: Adobe Illustrator 29.3.1, SVG Export Plug-In . SVG Version: 2.1.0 Build 151)  -->
  <defs>
    <style>
      .st0 {
        fill: none;
      }

      .st1 {
        font-size: 8.6979px;
      }

      .st1, .st2, .st3 {
        font-family: TimesNewRomanPSMT, 'Times New Roman';
      }

      .st4 {
        fill: lime;
      }

      .st2 {
        font-size: 5.04px;
      }

      .st3 {
        font-size: 5.0738px;
      }

      .st5 {
        clip-path: url(#clippath-17);
      }

      .st6 {
        clip-path: url(#clippath-19);
      }

      .st7 {
        clip-path: url(#clippath-11);
      }

      .st8 {
        clip-path: url(#clippath-16);
      }

      .st9 {
        clip-path: url(#clippath-18);
      }

      .st10 {
        clip-path: url(#clippath-10);
      }

      .st11 {
        clip-path: url(#clippath-15);
      }

      .st12 {
        clip-path: url(#clippath-13);
      }

      .st13 {
        clip-path: url(#clippath-14);
      }

      .st14 {
        clip-path: url(#clippath-12);
      }

      .st15 {
        clip-path: url(#clippath-50);
      }

      .st16 {
        clip-path: url(#clippath-55);
      }

      .st17 {
        clip-path: url(#clippath-52);
      }

      .st18 {
        clip-path: url(#clippath-57);
      }

      .st19 {
        clip-path: url(#clippath-54);
      }

      .st20 {
        clip-path: url(#clippath-56);
      }

      .st21 {
        clip-path: url(#clippath-53);
      }

      .st22 {
        clip-path: url(#clippath-51);
      }

      .st23 {
        clip-path: url(#clippath-58);
      }

      .st24 {
        clip-path: url(#clippath-31);
      }

      .st25 {
        clip-path: url(#clippath-32);
      }

      .st26 {
        clip-path: url(#clippath-33);
      }

      .st27 {
        clip-path: url(#clippath-34);
      }

      .st28 {
        clip-path: url(#clippath-35);
      }

      .st29 {
        clip-path: url(#clippath-39);
      }

      .st30 {
        clip-path: url(#clippath-30);
      }

      .st31 {
        clip-path: url(#clippath-36);
      }

      .st32 {
        clip-path: url(#clippath-37);
      }

      .st33 {
        clip-path: url(#clippath-38);
      }

      .st34 {
        clip-path: url(#clippath-27);
      }

      .st35 {
        clip-path: url(#clippath-29);
      }

      .st36 {
        clip-path: url(#clippath-26);
      }

      .st37 {
        clip-path: url(#clippath-28);
      }

      .st38 {
        clip-path: url(#clippath-20);
      }

      .st39 {
        clip-path: url(#clippath-21);
      }

      .st40 {
        clip-path: url(#clippath-22);
      }

      .st41 {
        clip-path: url(#clippath-23);
      }

      .st42 {
        clip-path: url(#clippath-24);
      }

      .st43 {
        clip-path: url(#clippath-25);
      }

      .st44 {
        clip-path: url(#clippath-41);
      }

      .st45 {
        clip-path: url(#clippath-42);
      }

      .st46 {
        clip-path: url(#clippath-43);
      }

      .st47 {
        clip-path: url(#clippath-44);
      }

      .st48 {
        clip-path: url(#clippath-45);
      }

      .st49 {
        clip-path: url(#clippath-49);
      }

      .st50 {
        clip-path: url(#clippath-40);
      }

      .st51 {
        clip-path: url(#clippath-46);
      }

      .st52 {
        clip-path: url(#clippath-47);
      }

      .st53 {
        clip-path: url(#clippath-48);
      }

      .st54 {
        clip-path: url(#clippath-1);
      }

      .st55 {
        clip-path: url(#clippath-3);
      }

      .st56 {
        clip-path: url(#clippath-4);
      }

      .st57 {
        clip-path: url(#clippath-2);
      }

      .st58 {
        clip-path: url(#clippath-7);
      }

      .st59 {
        clip-path: url(#clippath-6);
      }

      .st60 {
        clip-path: url(#clippath-9);
      }

      .st61 {
        clip-path: url(#clippath-8);
      }

      .st62 {
        clip-path: url(#clippath-5);
      }

      .st63 {
        font-size: 8.64px;
      }

      .st63, .st64 {
        font-family: TimesNewRomanPS-ItalicMT, 'Times New Roman';
        font-style: italic;
      }

      .st65 {
        letter-spacing: 3.361003em;
      }

      .st66, .st64 {
        fill: #f30;
      }

      .st64 {
        font-size: 12px;
      }

      .st67 {
        clip-path: url(#clippath);
      }
    </style>
    <clipPath id="clippath">
      <rect class="st0" x="127.959991" y="31.179993" width="3.299988" height="2.220001"/>
    </clipPath>
    <clipPath id="clippath-1">
      <rect class="st0" x="127.959991" y="24.820007" width="3.299988" height="8.579987"/>
    </clipPath>
    <clipPath id="clippath-2">
      <rect class="st0" x="117.820007" y="31.179993" width="3.299988" height="2.220001"/>
    </clipPath>
    <clipPath id="clippath-3">
      <rect class="st0" x="117.820007" y="24.820007" width="3.299988" height="8.579987"/>
    </clipPath>
    <clipPath id="clippath-4">
      <rect class="st0" x="106.720001" y="29.859985" width="3.299988" height="3.540009"/>
    </clipPath>
    <clipPath id="clippath-5">
      <rect class="st0" x="33.699997" y="29.859985" width="3.300003" height="3.540009"/>
    </clipPath>
    <clipPath id="clippath-6">
      <rect class="st0" x="17.080002" y="31.179993" width="3.300003" height="2.220001"/>
    </clipPath>
    <clipPath id="clippath-7">
      <rect class="st0" x="17.080002" y="24.820007" width="3.300003" height="8.579987"/>
    </clipPath>
    <clipPath id="clippath-8">
      <rect class="st0" x="5.020004" y="31.179993" width="3.300003" height="2.220001"/>
    </clipPath>
    <clipPath id="clippath-9">
      <rect class="st0" x="5.020004" y="24.820007" width="3.300003" height="8.579987"/>
    </clipPath>
    <clipPath id="clippath-10">
      <rect class="st0" x="122.679993" y="27.519989" width="3.839996" height="5.880005"/>
    </clipPath>
    <clipPath id="clippath-11">
      <rect class="st0" x="9.880005" y="27.519989" width="3.839996" height="5.880005"/>
    </clipPath>
    <clipPath id="clippath-12">
      <rect class="st0" x="94.480011" y="27.519989" width="5.519989" height="5.880005"/>
    </clipPath>
    <clipPath id="clippath-13">
      <rect class="st0" x="75.460007" y="27.519989" width="5.520004" height="5.880005"/>
    </clipPath>
    <clipPath id="clippath-14">
      <rect class="st0" x="56.199997" y="27.519989" width="5.520004" height="5.880005"/>
    </clipPath>
    <clipPath id="clippath-15">
      <rect class="st0" x="37.419998" y="27.519989" width="5.520004" height="5.880005"/>
    </clipPath>
    <clipPath id="clippath-16">
      <rect class="st0" x="272.200012" y="31.299988" width="3.359985" height="2.100006"/>
    </clipPath>
    <clipPath id="clippath-17">
      <rect class="st0" x="272.200012" y="22.959991" width="3.359985" height="10.440002"/>
    </clipPath>
    <clipPath id="clippath-18">
      <rect class="st0" x="260.920013" y="31.299988" width="3.359985" height="2.100006"/>
    </clipPath>
    <clipPath id="clippath-19">
      <rect class="st0" x="249.76001" y="29.919983" width="3.359985" height="3.480011"/>
    </clipPath>
    <clipPath id="clippath-20">
      <rect class="st0" x="178.959991" y="29.919983" width="3.359985" height="3.480011"/>
    </clipPath>
    <clipPath id="clippath-21">
      <rect class="st0" x="162.220001" y="31.299988" width="3.359985" height="2.100006"/>
    </clipPath>
    <clipPath id="clippath-22">
      <rect class="st0" x="162.220001" y="22.959991" width="3.359985" height="10.440002"/>
    </clipPath>
    <clipPath id="clippath-23">
      <rect class="st0" x="149.019989" y="31.299988" width="3.359985" height="2.100006"/>
    </clipPath>
    <clipPath id="clippath-24">
      <rect class="st0" x="158.799988" y="26.019989" width="2.279999" height="7.380005"/>
    </clipPath>
    <clipPath id="clippath-25">
      <rect class="st0" x="265.540009" y="26.5" width="4.920013" height="6.899994"/>
    </clipPath>
    <clipPath id="clippath-26">
      <rect class="st0" x="219.880005" y="27.399994" width="4.980011" height="6"/>
    </clipPath>
    <clipPath id="clippath-27">
      <rect class="st0" x="153.640015" y="26.5" width="4.920013" height="6.899994"/>
    </clipPath>
    <clipPath id="clippath-28">
      <rect class="st0" x="241.660004" y="28.359985" width="4.380005" height="5.040009"/>
    </clipPath>
    <clipPath id="clippath-29">
      <rect class="st0" x="204.279999" y="28.359985" width="4.380005" height="5.040009"/>
    </clipPath>
    <clipPath id="clippath-30">
      <rect class="st0" x="185.920013" y="28.359985" width="4.380005" height="5.040009"/>
    </clipPath>
    <clipPath id="clippath-31">
      <rect class="st0" x="127.959991" y="33.399994" width="3.299988" height="8.339996"/>
    </clipPath>
    <clipPath id="clippath-32">
      <rect class="st0" x="127.959991" y="33.399994" width="3.299988" height="1.980011"/>
    </clipPath>
    <clipPath id="clippath-33">
      <rect class="st0" x="117.820007" y="33.399994" width="3.299988" height="8.339996"/>
    </clipPath>
    <clipPath id="clippath-34">
      <rect class="st0" x="117.820007" y="33.399994" width="3.299988" height="1.980011"/>
    </clipPath>
    <clipPath id="clippath-35">
      <rect class="st0" x="106.720001" y="33.400024" width="3.299988" height="7.019989"/>
    </clipPath>
    <clipPath id="clippath-36">
      <rect class="st0" x="33.699997" y="33.400024" width="3.300003" height="7.019989"/>
    </clipPath>
    <clipPath id="clippath-37">
      <rect class="st0" x="17.080002" y="33.399994" width="3.300003" height="8.339996"/>
    </clipPath>
    <clipPath id="clippath-38">
      <rect class="st0" x="17.080002" y="33.399994" width="3.300003" height="1.980011"/>
    </clipPath>
    <clipPath id="clippath-39">
      <rect class="st0" x="5.020004" y="33.399994" width="3.300003" height="8.339996"/>
    </clipPath>
    <clipPath id="clippath-40">
      <rect class="st0" x="5.020004" y="33.399994" width="3.300003" height="1.980011"/>
    </clipPath>
    <clipPath id="clippath-41">
      <rect class="st0" x="122.679993" y="33.399994" width="3.839996" height="3.959991"/>
    </clipPath>
    <clipPath id="clippath-42">
      <rect class="st0" x="9.880005" y="33.399994" width="3.839996" height="3.959991"/>
    </clipPath>
    <clipPath id="clippath-43">
      <rect class="st0" x="94.480011" y="33.399994" width="5.519989" height="4.679993"/>
    </clipPath>
    <clipPath id="clippath-44">
      <rect class="st0" x="75.460007" y="33.399994" width="5.520004" height="4.679993"/>
    </clipPath>
    <clipPath id="clippath-45">
      <rect class="st0" x="56.199997" y="33.399994" width="5.520004" height="4.679993"/>
    </clipPath>
    <clipPath id="clippath-46">
      <rect class="st0" x="37.419998" y="33.399994" width="5.520004" height="4.679993"/>
    </clipPath>
    <clipPath id="clippath-47">
      <rect class="st0" x="272.200012" y="33.400024" width="3.359985" height="8.579987"/>
    </clipPath>
    <clipPath id="clippath-48">
      <rect class="st0" x="260.920013" y="33.400024" width="3.359985" height="8.579987"/>
    </clipPath>
    <clipPath id="clippath-49">
      <rect class="st0" x="249.76001" y="33.399994" width="3.359985" height="7.200012"/>
    </clipPath>
    <clipPath id="clippath-50">
      <rect class="st0" x="178.959991" y="33.399994" width="3.359985" height="7.200012"/>
    </clipPath>
    <clipPath id="clippath-51">
      <rect class="st0" x="162.220001" y="33.400024" width="3.359985" height="8.579987"/>
    </clipPath>
    <clipPath id="clippath-52">
      <rect class="st0" x="149.019989" y="33.400024" width="3.359985" height="8.579987"/>
    </clipPath>
    <clipPath id="clippath-53">
      <rect class="st0" x="265.540009" y="33.399994" width="4.920013" height="3.779999"/>
    </clipPath>
    <clipPath id="clippath-54">
      <rect class="st0" x="219.880005" y="33.399994" width="4.980011" height="4.679993"/>
    </clipPath>
    <clipPath id="clippath-55">
      <rect class="st0" x="153.640015" y="33.399994" width="4.920013" height="3.779999"/>
    </clipPath>
    <clipPath id="clippath-56">
      <rect class="st0" x="241.660004" y="33.400024" width="4.380005" height="4.859985"/>
    </clipPath>
    <clipPath id="clippath-57">
      <rect class="st0" x="204.279999" y="33.400024" width="4.380005" height="4.859985"/>
    </clipPath>
    <clipPath id="clippath-58">
      <rect class="st0" x="185.920013" y="33.400024" width="4.380005" height="4.859985"/>
    </clipPath>
  </defs>
  <g class="st67">
    <rect x="130.512329" y="31.876953" width=".40921" height="8.703278"/>
  </g>
  <g class="st54">
    <rect x="130.512329" y="25.517029" width=".40921" height="8.703278"/>
  </g>
  <g>
    <rect x="130.512329" y="17.236938" width=".40921" height="8.703278"/>
    <path d="M130.925781,20.360504h-.413452v-2.303436c0-.888702-.118134-1.753571-.35437-2.594543-.236237-.840912-.590637-1.579193-1.06311-2.214844-.407837-.551208-.939423-1.051849-1.594696-1.501862l.097015-.088593c.677765.284088,1.280396.750916,1.807739,1.400604s.912628,1.436493,1.155945,2.360413c.243225.923889.364929,1.831665.364929,2.723206v2.219055Z"/>
  </g>
  <g class="st57">
    <rect x="118.170166" y="31.876953" width=".40921" height="8.703278"/>
  </g>
  <g class="st55">
    <rect x="118.170166" y="25.517029" width=".40921" height="8.703278"/>
  </g>
  <g>
    <rect x="118.170166" y="17.236938" width=".40921" height="8.703278"/>
    <path d="M118.170166,20.360504v-2.219055c0-.866241.105469-1.717041.316406-2.552368.179962-.717163.433807-1.347168.761475-1.889984.327606-.542786.710876-.999847,1.149628-1.371094.320618-.272766.687653-.496368,1.101074-.670776l.097046.088593c-.793121.545654-1.423187,1.185455-1.890015,1.919525-.371246.58786-.651794,1.292389-.841644,2.113586-.189819.821289-.28476,1.580658-.28476,2.278137v2.303436h-.40921Z"/>
    <path d="M114.504059,28.849182c0,.129395-.045746.239807-.137115.331177-.091431.091431-.200378.137115-.326965.137115-.129395,0-.239807-.045685-.331146-.137115-.091431-.09137-.137115-.201782-.137115-.331177,0-.129333.045685-.239746.137115-.331177.091339-.091339.201752-.137085.331146-.137085.126587,0,.235535.045746.326965.137085.09137.091431.137115.201843.137115.331177Z"/>
  </g>
  <g class="st56">
    <rect x="109.272339" y="30.556946" width=".40921" height="8.703278"/>
  </g>
  <g>
    <rect x="109.272339" y="22.276947" width=".40921" height="8.703278"/>
    <rect x="109.272339" y="13.997253" width=".40921" height="8.703278"/>
    <path d="M109.685791,17.120819h-.413452v-2.303436c0-.888702-.118134-1.753571-.35437-2.594543-.236237-.840912-.590637-1.579193-1.06311-2.214844-.407837-.551208-.939423-1.051849-1.594696-1.501862l.097015-.088593c.677765.284088,1.280396.750916,1.807739,1.400604s.912628,1.436493,1.155945,2.360413c.243225.923889.364929,1.831665.364929,2.723206v2.219055Z"/>
  </g>
  <g class="st62">
    <rect x="34.050156" y="30.556946" width=".40921" height="8.703278"/>
  </g>
  <g>
    <rect x="34.050156" y="22.276947" width=".40921" height="8.703278"/>
    <rect x="34.050156" y="13.997253" width=".40921" height="8.703278"/>
    <path d="M34.050156,17.120819v-2.219055c0-.866241.105469-1.717041.316406-2.552368.179947-.717163.433807-1.347168.761475-1.889984.327621-.542786.710861-.999847,1.149612-1.371094.320633-.272766.687668-.496368,1.101105-.670776l.097031.088593c-.793137.545654-1.423172,1.185455-1.889999,1.919525-.371262.58786-.65181,1.292389-.841644,2.113586-.18985.821289-.284775,1.580658-.284775,2.278137v2.303436h-.40921Z"/>
    <path d="M24.91629,27.858063h4.429688v.40921h-4.429688v-.40921ZM24.91629,29.431641h4.429688v.417664h-4.429688v-.417664Z"/>
  </g>
  <g class="st59">
    <rect x="19.632339" y="31.876953" width=".409225" height="8.703278"/>
  </g>
  <g class="st58">
    <rect x="19.632339" y="25.517029" width=".409225" height="8.703278"/>
  </g>
  <g>
    <rect x="19.632339" y="17.236938" width=".409225" height="8.703278"/>
    <path d="M20.045776,20.360504h-.413437v-2.303436c0-.888702-.118118-1.753571-.35437-2.594543-.236252-.840912-.590622-1.579193-1.063126-2.214844-.407837-.551208-.939392-1.051849-1.594681-1.501862l.097031-.088593c.677765.284088,1.28038.750916,1.807724,1.400604s.912643,1.436493,1.155945,2.360413c.24324.923889.364914,1.831665.364914,2.723206v2.219055Z"/>
  </g>
  <g class="st61">
    <rect x="5.370163" y="31.876953" width=".40921" height="8.703278"/>
  </g>
  <g class="st60">
    <rect x="5.370163" y="25.517029" width=".40921" height="8.703278"/>
  </g>
  <g>
    <rect x="5.370163" y="17.236938" width=".40921" height="8.703278"/>
    <path d="M5.370163,20.360504v-2.219055c0-.866241.105469-1.717041.316406-2.552368.179947-.717163.433807-1.347168.761475-1.889984.327621-.542786.710861-.999847,1.149612-1.371094.320633-.272766.687668-.496368,1.101105-.670776l.097031.088593c-.793137.545654-1.423172,1.185455-1.889999,1.919525-.371262.58786-.65181,1.292389-.841644,2.113586-.18985.821289-.284775,1.580658-.284775,2.278137v2.303436h-.40921Z"/>
    <path d="M14.350174,31.392548l.130783-1.248749c.036514-.35437.073105-.593384.10968-.717194.053406-.177185.128677-.304382.225708-.381775.097031-.077332.205994-.116028.32695-.116028.101257,0,.181412.028137.240479.084381.059052.056305.088593.128021.088593.215149,0,.067505-.014114.139221-.042191.215149-.036591.106934-.140671.341736-.312195.704529l-.582184,1.244537h-.185623Z"/>
    <path d="M14.470261,23.292542l.130783-1.248749c.036514-.35437.073105-.593384.10968-.717194.053406-.177185.128677-.304382.225708-.381775.097031-.077332.205994-.116028.32695-.116028.101257,0,.181412.028137.240479.084381.059052.056305.088593.128021.088593.215149,0,.067505-.014114.139221-.042191.215149-.036591.106934-.140671.341736-.312195.704529l-.582184,1.244537h-.185623Z"/>
    <path d="M14.649963,15.192535l.130783-1.248749c.036514-.35437.073105-.593384.10968-.717194.053406-.177185.128677-.304382.225708-.381775.097031-.077332.205994-.116028.32695-.116028.101257,0,.181412.028137.240479.084381.059052.056305.088593.128021.088593.215149,0,.067505-.014114.139221-.042191.215149-.036591.106934-.140671.341736-.312195.704529l-.582184,1.244537h-.185623Z"/>
  </g>
  <g class="st10">
    <text class="st63" transform="translate(122.680176 35.259766)"><tspan x="0" y="0">c</tspan></text>
  </g>
  <g>
    <text class="st63" transform="translate(122.439941 27.160156)"><tspan x="0" y="0">b</tspan></text>
    <text class="st63" transform="translate(122.499512 19.05957)"><tspan x="0" y="0">a</tspan></text>
  </g>
  <g class="st7">
    <text class="st63" transform="translate(9.879883 35.259766)"><tspan x="0" y="0">c</tspan></text>
  </g>
  <g>
    <text class="st63" transform="translate(9.640137 27.160156)"><tspan x="0" y="0">b</tspan></text>
    <text class="st63" transform="translate(9.699707 19.05957)"><tspan x="0" y="0">a</tspan></text>
    <text class="st2" transform="translate(100.180176 28.179688)"><tspan x="0" y="0">24</tspan></text>
    <text class="st2" transform="translate(81.160156 28.179688)"><tspan x="0" y="0">23</tspan></text>
    <text class="st2" transform="translate(61.900391 28.179688)"><tspan x="0" y="0">22</tspan></text>
    <text class="st2" transform="translate(43.120117 28.179688)"><tspan x="0" y="0">21</tspan></text>
    <text class="st2" transform="translate(99.879883 17.979492)"><tspan x="0" y="0">14</tspan></text>
    <text class="st2" transform="translate(80.860352 17.979492)"><tspan x="0" y="0">13</tspan></text>
    <text class="st2" transform="translate(61.660156 17.979492)"><tspan x="0" y="0">12</tspan></text>
    <text class="st2" transform="translate(42.820312 17.979492)"><tspan x="0" y="0">11</tspan></text>
  </g>
  <g class="st14">
    <path d="M97.283447,32.241638l-.633423,1.85202,1.573395-1.109528c.408417-.289642.723694-.485809.945892-.588531.222107-.102631.407684-.153961.556793-.153961.157471,0,.270081.042908.337799.128662.067657.085815.082275.184967.043823.297424-.037506.10968-.103027.198273-.196381.265778-.093414.067505-.197784.101257-.313049.101257-.078796,0-.155884-.02533-.231384-.075958-.133331-.087128-.226715-.130768-.280121-.130768-.149109,0-.392975.120972-.731567.362823l-.936737.666565.77948,1.409058c.14209.258789.254944.436646.338501.533661.083496.097046.173401.165253.269623.20462.064453.025299.206757.045013.427002.059052l-.053406.156097h-2.050293l.053375-.156097c.090027-.008423.155334-.026703.195953-.05484.057556-.044952.095032-.092804.112335-.143433.02887-.084381.000366-.206726-.085419-.367035l-.755615-1.404846-.727203,2.126251h-.704529l.976837-2.856079c.069244-.202515.097565-.334686.084991-.396576-.026306-.104034-.091492-.156097-.195526-.156097-.070343,0-.175476.019714-.315521.059052l-.002899-.151855,1.344299-.476715h.172974Z"/>
  </g>
  <g class="st12">
    <path d="M78.263443,32.241638l-.633423,1.85202,1.573395-1.109528c.408401-.289642.723679-.485809.945877-.588531.222122-.102631.4077-.153961.556808-.153961.157486,0,.270096.042908.337799.128662.067673.085815.082275.184967.043823.297424-.037521.10968-.103027.198273-.196381.265778-.093414.067505-.197769.101257-.313065.101257-.078766,0-.155869-.02533-.231369-.075958-.133347-.087128-.226715-.130768-.280121-.130768-.149094,0-.392975.120972-.731583.362823l-.936722.666565.77948,1.409058c.142075.258789.254944.436646.338501.533661.083481.097046.173401.165253.269623.20462.064453.025299.206757.045013.426987.059052l-.053375.156097h-2.050323l.053391-.156097c.090027-.008423.155334-.026703.195953-.05484.057556-.044952.095016-.092804.112335-.143433.028854-.084381.000366-.206726-.085403-.367035l-.75563-1.404846-.727203,2.126251h-.704529l.976822-2.856079c.06926-.202515.09758-.334686.085007-.396576-.026321-.104034-.091507-.156097-.195526-.156097-.070328,0-.175491.019714-.315506.059052l-.002899-.151855,1.344299-.476715h.172958Z"/>
  </g>
  <g class="st13">
    <path d="M59.003433,32.241638l-.633423,1.85202,1.573395-1.109528c.408401-.289642.723679-.485809.945877-.588531.222122-.102631.4077-.153961.556808-.153961.157486,0,.270096.042908.337799.128662.067673.085815.082275.184967.043823.297424-.037521.10968-.103027.198273-.196381.265778-.093414.067505-.197769.101257-.313065.101257-.078766,0-.155869-.02533-.231369-.075958-.133347-.087128-.226715-.130768-.280121-.130768-.149094,0-.392975.120972-.731583.362823l-.936722.666565.77948,1.409058c.142075.258789.254944.436646.338501.533661.083481.097046.173401.165253.269623.20462.064453.025299.206757.045013.426987.059052l-.053375.156097h-2.050323l.053391-.156097c.090027-.008423.155334-.026703.195953-.05484.057556-.044952.095016-.092804.112335-.143433.028854-.084381.000366-.206726-.085403-.367035l-.75563-1.404846-.727203,2.126251h-.704529l.976822-2.856079c.06926-.202515.09758-.334686.085007-.396576-.026321-.104034-.091507-.156097-.195526-.156097-.070328,0-.175491.019714-.315506.059052l-.002899-.151855,1.344299-.476715h.172958Z"/>
  </g>
  <g class="st11">
    <path d="M40.223434,32.241638l-.633423,1.85202,1.573395-1.109528c.408401-.289642.723679-.485809.945877-.588531.222122-.102631.4077-.153961.556808-.153961.157486,0,.270096.042908.337799.128662.067673.085815.082275.184967.043823.297424-.037521.10968-.103027.198273-.196381.265778-.093414.067505-.197769.101257-.313065.101257-.078766,0-.155869-.02533-.231369-.075958-.133347-.087128-.226715-.130768-.280121-.130768-.149094,0-.392975.120972-.731583.362823l-.936722.666565.77948,1.409058c.142075.258789.254944.436646.338501.533661.083481.097046.173401.165253.269623.20462.064453.025299.206757.045013.426987.059052l-.053375.156097h-2.050323l.053391-.156097c.090027-.008423.155334-.026703.195953-.05484.057556-.044952.095016-.092804.112335-.143433.028854-.084381.000366-.206726-.085403-.367035l-.75563-1.404846-.727203,2.126251h-.704529l.976822-2.856079c.06926-.202515.09758-.334686.085007-.396576-.026321-.104034-.091507-.156097-.195526-.156097-.070328,0-.175491.019714-.315506.059052l-.002899-.151855,1.344299-.476715h.172958Z"/>
  </g>
  <g>
    <path d="M97.22345,22.041718l-.633423,1.85202,1.573395-1.109528c.408417-.289642.723694-.485809.945892-.588531.222107-.102631.407684-.153961.556793-.153961.157471,0,.270081.042908.337799.128662.067657.085815.082275.184967.043823.297424-.037506.10968-.103027.198273-.196381.265778-.093414.067505-.197784.101257-.313049.101257-.078796,0-.155884-.02533-.231384-.075958-.133331-.087128-.226715-.130768-.280121-.130768-.149109,0-.392975.120972-.731567.362823l-.936737.666565.77948,1.409058c.14209.258789.254944.436646.338501.533661.083496.097046.173401.165253.269623.20462.064453.025299.206757.045013.427002.059052l-.053406.156097h-2.050293l.053375-.156097c.090027-.008423.155334-.026703.195953-.05484.057556-.044952.095032-.092804.112335-.143433.02887-.084381.000366-.206726-.085419-.367035l-.755615-1.404846-.727203,2.126251h-.704529l.976837-2.856079c.069244-.202515.097565-.334686.084991-.396576-.026306-.104034-.091492-.156097-.195526-.156097-.070343,0-.175476.019714-.315521.059052l-.002899-.151855,1.344299-.476715h.172974Z"/>
    <path d="M78.203339,22.041718l-.633423,1.85202,1.573395-1.109528c.408401-.289642.723679-.485809.945877-.588531.222122-.102631.4077-.153961.556808-.153961.157486,0,.270096.042908.337799.128662.067673.085815.082275.184967.043823.297424-.037521.10968-.103027.198273-.196381.265778-.093414.067505-.197769.101257-.313065.101257-.078766,0-.155869-.02533-.231369-.075958-.133347-.087128-.226715-.130768-.280121-.130768-.149094,0-.392975.120972-.731583.362823l-.936722.666565.77948,1.409058c.142075.258789.254944.436646.338501.533661.083481.097046.173401.165253.269623.20462.064453.025299.206757.045013.426987.059052l-.053375.156097h-2.050323l.053391-.156097c.090027-.008423.155334-.026703.195953-.05484.057556-.044952.095016-.092804.112335-.143433.028854-.084381.000366-.206726-.085403-.367035l-.75563-1.404846-.727203,2.126251h-.704529l.976822-2.856079c.06926-.202515.09758-.334686.085007-.396576-.026321-.104034-.091507-.156097-.195526-.156097-.070328,0-.175491.019714-.315506.059052l-.002899-.151855,1.344299-.476715h.172958Z"/>
    <path d="M58.943039,22.041718l-.633423,1.85202,1.573395-1.109528c.408401-.289642.723679-.485809.945877-.588531.222122-.102631.4077-.153961.556808-.153961.157486,0,.270096.042908.337799.128662.067673.085815.082275.184967.043823.297424-.037521.10968-.103027.198273-.196381.265778-.093414.067505-.197769.101257-.313065.101257-.078766,0-.155869-.02533-.231369-.075958-.133347-.087128-.226715-.130768-.280121-.130768-.149094,0-.392975.120972-.731583.362823l-.936722.666565.77948,1.409058c.142075.258789.254944.436646.338501.533661.083481.097046.173401.165253.269623.20462.064453.025299.206757.045013.426987.059052l-.053375.156097h-2.050323l.053391-.156097c.090027-.008423.155334-.026703.195953-.05484.057556-.044952.095016-.092804.112335-.143433.028854-.084381.000366-.206726-.085403-.367035l-.75563-1.404846-.727203,2.126251h-.704529l.976822-2.856079c.06926-.202515.09758-.334686.085007-.396576-.026321-.104034-.091507-.156097-.195526-.156097-.070328,0-.175491.019714-.315506.059052l-.002899-.151855,1.344299-.476715h.172958Z"/>
    <path d="M40.163132,22.041718l-.633423,1.85202,1.573395-1.109528c.408401-.289642.723679-.485809.945877-.588531.222122-.102631.4077-.153961.556808-.153961.157486,0,.270096.042908.337799.128662.067673.085815.082275.184967.043823.297424-.037521.10968-.103027.198273-.196381.265778-.093414.067505-.197769.101257-.313065.101257-.078766,0-.155869-.02533-.231369-.075958-.133347-.087128-.226715-.130768-.280121-.130768-.149094,0-.392975.120972-.731583.362823l-.936722.666565.77948,1.409058c.142075.258789.254944.436646.338501.533661.083481.097046.173401.165253.269623.20462.064453.025299.206757.045013.426987.059052l-.053375.156097h-2.050323l.053391-.156097c.090027-.008423.155334-.026703.195953-.05484.057556-.044952.095016-.092804.112335-.143433.028854-.084381.000366-.206726-.085403-.367035l-.75563-1.404846-.727203,2.126251h-.704529l.976822-2.856079c.06926-.202515.09758-.334686.085007-.396576-.026321-.104034-.091507-.156097-.195526-.156097-.070328,0-.175491.019714-.315506.059052l-.002899-.151855,1.344299-.476715h.172958Z"/>
    <path d="M97.523041,11.841339l-.633423,1.85202,1.573395-1.109528c.408417-.289642.723694-.485809.945892-.588531.222107-.102631.407684-.153961.556793-.153961.157471,0,.270081.042908.337799.128662.067657.085815.082275.184967.043823.297424-.037506.10968-.103027.198273-.196381.265778-.093414.067505-.197784.101257-.313049.101257-.078796,0-.155884-.02533-.231384-.075958-.133331-.087128-.226715-.130768-.280121-.130768-.149109,0-.392975.120972-.731567.362823l-.936737.666565.77948,1.409058c.14209.258789.254944.436646.338501.533661.083496.097046.173401.165253.269623.20462.064453.025299.206757.045013.427002.059052l-.053406.156097h-2.050293l.053375-.156097c.090027-.008423.155334-.026703.195953-.05484.057556-.044952.095032-.092804.112335-.143433.02887-.084381.000366-.206726-.085419-.367035l-.755615-1.404846-.727203,2.126251h-.704529l.976837-2.856079c.069244-.202515.097565-.334686.084991-.396576-.026306-.104034-.091492-.156097-.195526-.156097-.070343,0-.175476.019714-.315521.059052l-.002899-.151855,1.344299-.476715h.172974Z"/>
    <path d="M78.443329,11.841339l-.633423,1.85202,1.573395-1.109528c.408401-.289642.723679-.485809.945877-.588531.222122-.102631.4077-.153961.556808-.153961.157486,0,.270096.042908.337799.128662.067673.085815.082275.184967.043823.297424-.037521.10968-.103027.198273-.196381.265778-.093414.067505-.197769.101257-.313065.101257-.078766,0-.155869-.02533-.231369-.075958-.133347-.087128-.226715-.130768-.280121-.130768-.149094,0-.392975.120972-.731583.362823l-.936722.666565.77948,1.409058c.142075.258789.254944.436646.338501.533661.083481.097046.173401.165253.269623.20462.064453.025299.206757.045013.426987.059052l-.053375.156097h-2.050323l.053391-.156097c.090027-.008423.155334-.026703.195953-.05484.057556-.044952.095016-.092804.112335-.143433.028854-.084381.000366-.206726-.085403-.367035l-.75563-1.404846-.727203,2.126251h-.704529l.976822-2.856079c.06926-.202515.09758-.334686.085007-.396576-.026321-.104034-.091507-.156097-.195526-.156097-.070328,0-.175491.019714-.315506.059052l-.002899-.151855,1.344299-.476715h.172958Z"/>
    <path d="M59.24353,11.841339l-.633423,1.85202,1.573395-1.109528c.408401-.289642.723679-.485809.945877-.588531.222122-.102631.4077-.153961.556808-.153961.157486,0,.270096.042908.337799.128662.067673.085815.082275.184967.043823.297424-.037521.10968-.103027.198273-.196381.265778-.093414.067505-.197769.101257-.313065.101257-.078766,0-.155869-.02533-.231369-.075958-.133347-.087128-.226715-.130768-.280121-.130768-.149094,0-.392975.120972-.731583.362823l-.936722.666565.77948,1.409058c.142075.258789.254944.436646.338501.533661.083481.097046.173401.165253.269623.20462.064453.025299.206757.045013.426987.059052l-.053375.156097h-2.050323l.053391-.156097c.090027-.008423.155334-.026703.195953-.05484.057556-.044952.095016-.092804.112335-.143433.028854-.084381.000366-.206726-.085403-.367035l-.75563-1.404846-.727203,2.126251h-.704529l.976822-2.856079c.06926-.202515.09758-.334686.085007-.396576-.026321-.104034-.091507-.156097-.195526-.156097-.070328,0-.175491.019714-.315506.059052l-.002899-.151855,1.344299-.476715h.172958Z"/>
    <path d="M40.403137,11.841339l-.633423,1.85202,1.573395-1.109528c.408401-.289642.723679-.485809.945877-.588531.222122-.102631.4077-.153961.556808-.153961.157486,0,.270096.042908.337799.128662.067673.085815.082275.184967.043823.297424-.037521.10968-.103027.198273-.196381.265778-.093414.067505-.197769.101257-.313065.101257-.078766,0-.155869-.02533-.231369-.075958-.133347-.087128-.226715-.130768-.280121-.130768-.149094,0-.392975.120972-.731583.362823l-.936722.666565.77948,1.409058c.142075.258789.254944.436646.338501.533661.083481.097046.173401.165253.269623.20462.064453.025299.206757.045013.426987.059052l-.053375.156097h-2.050323l.053391-.156097c.090027-.008423.155334-.026703.195953-.05484.057556-.044952.095016-.092804.112335-.143433.028854-.084381.000366-.206726-.085403-.367035l-.75563-1.404846-.727203,2.126251h-.704529l.976822-2.856079c.06926-.202515.09758-.334686.085007-.396576-.026321-.104034-.091507-.156097-.195526-.156097-.070328,0-.175491.019714-.315506.059052l-.002899-.151855,1.344299-.476715h.172958Z"/>
  </g>
  <g class="st8">
    <rect x="274.76947" y="32.003296" width=".411957" height="8.761627"/>
  </g>
  <g class="st5">
    <rect x="274.76947" y="23.6633" width=".411957" height="8.761627"/>
  </g>
  <g>
    <rect x="274.76947" y="15.323303" width=".411957" height="8.761627"/>
    <path d="M275.185669,18.505219h-.416199v-2.318878c0-.894684-.118927-1.76532-.35675-2.611938-.237854-.846527-.594604-1.589752-1.070251-2.229675-.410583-.554901-.945709-1.058899-1.605377-1.511932l.097687-.089203c.682312.286011,1.288971.755981,1.819824,1.410034.530884.654022.918762,1.446106,1.163696,2.37619.244873.930115.367371,1.843933.367371,2.741455v2.233948Z"/>
  </g>
  <g class="st9">
    <rect x="261.272522" y="32.003296" width=".411957" height="8.761627"/>
  </g>
  <g>
    <rect x="261.272522" y="23.6633" width=".411957" height="8.761627"/>
    <rect x="261.272522" y="15.322876" width=".411957" height="8.761627"/>
    <path d="M261.272522,18.504822v-2.233948c0-.87204.106171-1.728546.318512-2.569458.181183-.721985.436737-1.356171.766602-1.902649.329803-.546417.715607-1.006561,1.157318-1.38028.322754-.274597.692261-.499695,1.108459-.675293l.097687.089203c-.798431.549316-1.432709,1.19342-1.902679,1.932404-.373718.591797-.656158,1.301025-.84726,2.127747-.191132.826782-.286682,1.591248-.286682,2.293396v2.318878h-.411957Z"/>
    <path d="M257.614014,28.834259c0,.130249-.046051.241425-.138031.333374-.092041.092041-.201721.138031-.329132.138031-.13028,0-.241425-.04599-.333405-.138031-.092041-.091949-.138031-.203125-.138031-.333374,0-.130219.04599-.241364.138031-.333405.09198-.09198.203125-.138031.333405-.138031.127411,0,.237091.046051.329132.138031.09198.092041.138031.203186.138031.333405Z"/>
  </g>
  <g class="st6">
    <rect x="252.329468" y="30.623291" width=".411957" height="8.761627"/>
  </g>
  <g>
    <rect x="252.329468" y="22.283295" width=".411957" height="8.761627"/>
    <rect x="252.329468" y="13.942902" width=".411957" height="8.761627"/>
    <path d="M252.745667,17.124817h-.416199v-2.318878c0-.894684-.118927-1.76532-.35675-2.611938-.237854-.846527-.594604-1.589752-1.070251-2.229675-.410583-.554901-.945709-1.058899-1.605377-1.511932l.097687-.089203c.682312.286011,1.288971.755981,1.819824,1.410034.530884.654022.918762,1.446106,1.163696,2.37619.244873.930115.367371,1.843933.367371,2.741455v2.233948Z"/>
  </g>
  <g class="st38">
    <rect x="179.3125" y="30.623291" width=".411957" height="8.761627"/>
  </g>
  <g>
    <rect x="179.3125" y="22.283295" width=".411957" height="8.761627"/>
    <rect x="179.3125" y="13.942902" width=".411957" height="8.761627"/>
    <path d="M179.3125,17.124817v-2.233948c0-.87204.106171-1.728546.318512-2.569458.181183-.721985.436737-1.356171.766602-1.902649.329803-.546417.715607-1.006561,1.157318-1.38028.322754-.274597.692261-.499695,1.108459-.675293l.097687.089203c-.798431.549316-1.432709,1.19342-1.902679,1.932404-.373718.591797-.656158,1.301025-.84726,2.127747-.191132.826782-.286682,1.591248-.286682,2.293396v2.318878h-.411957Z"/>
    <path d="M170.117432,27.836609h4.459381v.411957h-4.459381v-.411957ZM170.117432,29.420746h4.459381v.420441h-4.459381v-.420441Z"/>
  </g>
  <g class="st39">
    <rect x="164.789459" y="32.003296" width=".411957" height="8.761627"/>
  </g>
  <g class="st40">
    <rect x="164.789459" y="23.6633" width=".411957" height="8.761627"/>
  </g>
  <g>
    <rect x="164.789459" y="15.323303" width=".411957" height="8.761627"/>
    <path d="M165.205658,18.505219h-.416199v-2.318878c0-.894684-.118927-1.76532-.35675-2.611938-.237854-.846527-.594604-1.589752-1.070251-2.229675-.410583-.554901-.945709-1.058899-1.605377-1.511932l.097687-.089203c.682312.286011,1.288971.755981,1.819824,1.410034.530884.654022.918762,1.446106,1.163696,2.37619.244873.930115.367371,1.843933.367371,2.741455v2.233948Z"/>
  </g>
  <g class="st41">
    <rect x="149.372498" y="32.003296" width=".411957" height="8.761627"/>
  </g>
  <g>
    <rect x="149.372498" y="23.6633" width=".411957" height="8.761627"/>
    <rect x="149.372498" y="15.322876" width=".411957" height="8.761627"/>
    <path d="M149.372498,18.504822v-2.233948c0-.87204.106171-1.728546.318512-2.569458.181183-.721985.436737-1.356171.766602-1.902649.329803-.546417.715607-1.006561,1.157318-1.38028.322754-.274597.692261-.499695,1.108459-.675293l.097687.089203c-.798431.549316-1.432709,1.19342-1.902679,1.932404-.373718.591797-.656158,1.301025-.84726,2.127747-.191132.826782-.286682,1.591248-.286682,2.293396v2.318878h-.411957Z"/>
  </g>
  <g class="st42">
    <path d="M159.313873,31.369537l.131653-1.257111c.036774-.35675.073608-.597351.110443-.721985.053741-.178375.129517-.306458.227203-.384369.097687-.07782.207367-.116791.329132-.116791.101929,0,.182648.028351.242096.084961.059448.056671.089172.128845.089172.216583,0,.067963-.014191.140167-.04245.216583-.036835.107666-.141632.344025-.314301.709259l-.58609,1.252869h-.186859Z"/>
  </g>
  <g>
    <path d="M160.1539,21.409515l.131653-1.257111c.036774-.35675.073608-.597351.110443-.721985.053741-.178375.129517-.306458.227203-.384369.097687-.07782.207367-.116791.329132-.116791.101929,0,.182648.028351.242096.084961.059448.056671.089172.128845.089172.216583,0,.067963-.014191.140167-.04245.216583-.036835.107666-.141632.344025-.314301.709259l-.58609,1.252869h-.186859Z"/>
    <path d="M159.793793,13.249115l.131653-1.257111c.036774-.35675.073608-.597351.110443-.721985.053741-.178375.129517-.306458.227203-.384369.097687-.07782.207367-.116791.329132-.116791.101929,0,.182648.028351.242096.084961.059448.056671.089172.128845.089172.216583,0,.067963-.014191.140167-.04245.216583-.036835.107666-.141632.344025-.314301.709259l-.58609,1.252869h-.186859Z"/>
  </g>
  <g class="st43">
    <path d="M268.471466,33.183105c.360687-.566254.782623-1.170715,1.265778-1.813477h.709229c-.08017.101929-.47934.58609-1.19751,1.452454-.29953.362457-.519409.637054-.65976.823944-.06012.076447-.126923.159973-.200378.25058l-.845703,1.044769c-.042206.181213-.085144.348236-.128937.501129s-.086975.291595-.129608.416199c-.131653.38504-.261688.682312-.389954.891876-.090027.147186-.177002.248474-.260986.30368-.084045.055206-.164246.082825-.240692.082825-.093414,0-.162659-.039703-.207764-.118927-.045074-.079315-.046326-.181244-.003723-.305786.074585-.218048.204376-.469299.389465-.753845.185059-.284546.4245-.603821.718262-.957703.289062-1.449646.42337-2.324524.402863-2.624664-.020538-.300079-.139801-.450195-.357788-.450195-.133118,0-.251648.040344-.355682.121063-.104034.080688-.224335.262634-.360779.545746h-.165619c.026245-.084961.04657-.148651.061096-.191132.133636-.390717.310791-.68515.531464-.883392.166412-.147186.347351-.220825.542694-.220825.169891,0,.291168.050964.363922.152893.097809.144379.121979.458679.07254.942841-.06778.62854-.186981,1.312317-.357544,2.0513l.805115-1.261353h0Z"/>
  </g>
  <g>
    <path d="M267.05481,25.028717l-.245453.717743c-.156891.458679-.383484.955597-.679718,1.490723h-.717743c.196533-.351135.323608-.590363.381378-.717773.172333-.396423.290039-.686615.352966-.870636l1.484436-4.340454c.17334-.506775.352112-.882629.536407-1.127563.184235-.244873.435425-.449463.75351-.613708.318024-.164185.659729-.246338,1.024963-.246338.506805,0,.865173.135925,1.075226.407715.209961.27182.251068.594604.12326.968323-.082336.240692-.222107.469299-.419342.685913-.197235.216583-.451843.404175-.763672.562714.634796.362457.821564.925842.56012,1.690308-.116211.339783-.303955.656921-.563202.951355-.259308.294495-.554047.51886-.884247.673157-.330292.154266-.642639.231445-.937073.231445-.189728,0-.36618-.032593-.529327-.097687-.163208-.065094-.347382-.186859-.55249-.365234ZM267.169556,24.693207c.20874.192566.400604.331268.575409.416199.131592.062317.273834.093445.426727.093445.28595,0,.566315-.118195.841156-.354645.27475-.236359.499817-.61084.67511-1.123322.110382-.322784.160919-.605194.151733-.84729-.009247-.242065-.080597-.507507-.213928-.796295-.217651.065155-.397278.097656-.538818.097656-.169891,0-.280823-.025482-.332733-.076447-.051971-.050964-.067719-.106171-.047394-.165619.018372-.053741.061737-.101929.130066-.144409.068298-.04245.161957-.06369.280853-.06369.138702,0,.335663.036835.59082.110413.332733-.393524.559204-.765869.679291-1.116974.122009-.35675.128632-.632812.019897-.828156-.108765-.195374-.293335-.29306-.553802-.29306-.328491,0-.630768.138763-.906799.416229-.181885.184082-.342529.479889-.481964.887604l-1.295624,3.788361Z"/>
    <path d="M270.130341,13.309326h.705017l-1.213013,1.932373c-.078461.121765-.201904.312897-.370209.573364-.041565.436035-.049957.696503-.025177.781433.048676.155762.150848.233612.30658.233612.11322,0,.233978-.046722.362213-.140167.128204-.093445.24176-.239227.340729-.437439h.169891c-.179138.407715-.361084.689484-.54599.845154s-.36377.233582-.536438.233582c-.161407,0-.284668-.067963-.369843-.203857s-.103729-.42749-.05542-.874878c-.208862.246338-.394501.433197-.556976.560608-.227142.175598-.453094.306519-.677979.392853s-.461975.129517-.71109.129517c-.625763,0-1.014648-.208099-1.166748-.624298-.152161-.416199-.137177-.890411.044891-1.42276.213013-.622833.558289-1.127594,1.03595-1.514069.47757-.386475.948517-.579712,1.412903-.579712.322784,0,.573669.098419.752716.295166.179016.196838.277496.562744.295563,1.09787l.802429-1.278351ZM267.733582,16.740906c.339294-.27182.766907-.830963,1.28299-1.677582.04657-.583221-.011047-.990204-.172729-1.221008-.161774-.230743-.367249-.34613-.616364-.34613-.277527,0-.560303.152222-.848419.456543-.288177.304413-.54599.789276-.773529,1.45462-.134613.393585-.200775.702881-.198456.927979.002258.225067.062347.3992.180237.522369.117798.123169.265961.184753.444336.184753.217987,0,.451935-.100464.701935-.301544h0Z"/>
  </g>
  <g class="st36">
    <path d="M223.290619,33.191254l-2.446533,2.968658h-.755981l3.31485-4.004944.055603-.373749c.054504-.407715.035126-.684418-.057922-.830292-.09314-.145782-.227448-.218719-.402985-.218719-.1586,0-.317139.058075-.475769.174133-.15863.116119-.300903.304382-.426758.56485h-.152893c.159546-.441681.389557-.795563.690155-1.061737.215881-.192505.431427-.288818.646637-.288818.189636,0,.326813.075073.411407.225098.125427.22934.153961.634277.085754,1.214661l-.343048,2.989899c-.051086.447388-.034271.737579.050507.870636.080933.135895.207733.203857.380463.203857.164185,0,.318298-.055206.46225-.165619.143921-.110443.267395-.287354.370544-.530884h.165619c-.0224.073639-.039825.128876-.052399.165619-.126862.370972-.321045.669647-.58252.896118-.196869.169891-.407135.254822-.630768.254822-.198212,0-.346619-.083527-.44519-.250549-.098602-.167053-.11322-.550659-.043823-1.15097l.1828-1.652069Z"/>
  </g>
  <g>
    <path d="M204.450623,23.051331l-2.446533,2.968658h-.755981l3.31485-4.004944.055603-.373749c.054504-.407715.035126-.684418-.057922-.830292-.09314-.145782-.227448-.218719-.402985-.218719-.1586,0-.317139.058075-.475769.174133-.15863.116119-.300903.304382-.426758.56485h-.152893c.159546-.441681.389557-.795563.690155-1.061737.215881-.192505.431427-.288818.646637-.288818.189636,0,.326813.075073.411407.225098.125427.22934.153961.634277.085754,1.214661l-.343048,2.989899c-.051086.447388-.034271.737579.050507.870636.080933.135895.207733.203857.380463.203857.164185,0,.318298-.055206.46225-.165619.143921-.110443.267395-.287354.370544-.530884h.165619c-.0224.073639-.039825.128876-.052399.165619-.126862.370972-.321045.669647-.58252.896118-.196869.169891-.407135.254822-.630768.254822-.198212,0-.346619-.083527-.44519-.250549-.098602-.167053-.11322-.550659-.043823-1.15097l.1828-1.652069Z"/>
    <path d="M186.570923,12.851349l-2.446533,2.968658h-.755981l3.31485-4.004944.055603-.373749c.054504-.407715.035126-.684418-.057922-.830292-.09314-.145782-.227448-.218719-.402985-.218719-.1586,0-.317139.058075-.475769.174133-.15863.116119-.300903.304382-.426758.56485h-.152893c.159546-.441681.389557-.795563.690155-1.061737.215881-.192505.431427-.288818.646637-.288818.189636,0,.326813.075073.411407.225098.125427.22934.153961.634277.085754,1.214661l-.343048,2.989899c-.051086.447388-.034271.737579.050507.870636.080933.135895.207733.203857.380463.203857.164185,0,.318298-.055206.46225-.165619.143921-.110443.267395-.287354.370544-.530884h.165619c-.0224.073639-.039825.128876-.052399.165619-.126862.370972-.321045.669647-.58252.896118-.196869.169891-.407135.254822-.630768.254822-.198212,0-.346619-.083527-.44519-.250549-.098602-.167053-.11322-.550659-.043823-1.15097l.1828-1.652069Z"/>
  </g>
  <g class="st34">
    <path d="M156.571472,33.183105c.360687-.566254.782623-1.170715,1.265778-1.813477h.709229c-.08017.101929-.47934.58609-1.19751,1.452454-.29953.362457-.519409.637054-.65976.823944-.06012.076447-.126923.159973-.200378.25058l-.845703,1.044769c-.042206.181213-.085144.348236-.128937.501129s-.086975.291595-.129608.416199c-.131653.38504-.261688.682312-.389954.891876-.090027.147186-.177002.248474-.260986.30368-.084045.055206-.164246.082825-.240692.082825-.093414,0-.162659-.039703-.207764-.118927-.045074-.079315-.046326-.181244-.003723-.305786.074585-.218048.204376-.469299.389465-.753845.185059-.284546.4245-.603821.718262-.957703.289062-1.449646.42337-2.324524.402863-2.624664-.020538-.300079-.139801-.450195-.357788-.450195-.133118,0-.251648.040344-.355682.121063-.104034.080688-.224335.262634-.360779.545746h-.165619c.026245-.084961.04657-.148651.061096-.191132.133636-.390717.310791-.68515.531464-.883392.166412-.147186.347351-.220825.542694-.220825.169891,0,.291168.050964.363922.152893.097809.144379.121979.458679.07254.942841-.06778.62854-.186981,1.312317-.357544,2.0513l.805115-1.261353h0Z"/>
  </g>
  <g>
    <path d="M155.154816,25.028717l-.245453.717743c-.156891.458679-.383484.955597-.679718,1.490723h-.717743c.196533-.351135.323608-.590363.381378-.717773.172333-.396423.290039-.686615.352966-.870636l1.484436-4.340454c.17334-.506775.352112-.882629.536407-1.127563.184235-.244873.435425-.449463.75351-.613708.318024-.164185.659729-.246338,1.024963-.246338.506805,0,.865173.135925,1.075226.407715.209961.27182.251068.594604.12326.968323-.082336.240692-.222107.469299-.419342.685913-.197235.216583-.451843.404175-.763672.562714.634796.362457.821564.925842.56012,1.690308-.116211.339783-.303955.656921-.563202.951355-.259308.294495-.554047.51886-.884247.673157-.330292.154266-.642639.231445-.937073.231445-.189728,0-.36618-.032593-.529327-.097687-.163208-.065094-.347382-.186859-.55249-.365234ZM155.269562,24.693207c.20874.192566.400604.331268.575409.416199.131592.062317.273834.093445.426727.093445.28595,0,.566315-.118195.841156-.354645.27475-.236359.499817-.61084.67511-1.123322.110382-.322784.160919-.605194.151733-.84729-.009247-.242065-.080597-.507507-.213928-.796295-.217651.065155-.397278.097656-.538818.097656-.169891,0-.280823-.025482-.332733-.076447-.051971-.050964-.067719-.106171-.047394-.165619.018372-.053741.061737-.101929.130066-.144409.068298-.04245.161957-.06369.280853-.06369.138702,0,.335663.036835.59082.110413.332733-.393524.559204-.765869.679291-1.116974.122009-.35675.128632-.632812.019897-.828156-.108765-.195374-.293335-.29306-.553802-.29306-.328491,0-.630768.138763-.906799.416229-.181885.184082-.342529.479889-.481964.887604l-1.295624,3.788361Z"/>
    <path d="M158.230347,13.309326h.705017l-1.213013,1.932373c-.078461.121765-.201904.312897-.370209.573364-.041565.436035-.049957.696503-.025177.781433.048676.155762.150848.233612.30658.233612.11322,0,.233978-.046722.362213-.140167.128204-.093445.24176-.239227.340729-.437439h.169891c-.179138.407715-.361084.689484-.54599.845154s-.36377.233582-.536438.233582c-.161407,0-.284668-.067963-.369843-.203857s-.103729-.42749-.05542-.874878c-.208862.246338-.394501.433197-.556976.560608-.227142.175598-.453094.306519-.677979.392853s-.461975.129517-.71109.129517c-.625763,0-1.014648-.208099-1.166748-.624298-.152161-.416199-.137177-.890411.044891-1.42276.213013-.622833.558289-1.127594,1.03595-1.514069.47757-.386475.948517-.579712,1.412903-.579712.322784,0,.573669.098419.752716.295166.179016.196838.277496.562744.295563,1.09787l.802429-1.278351ZM155.833588,16.740906c.339294-.27182.766907-.830963,1.28299-1.677582.04657-.583221-.011047-.990204-.172729-1.221008-.161774-.230743-.367249-.34613-.616364-.34613-.277527,0-.560303.152222-.848419.456543-.288177.304413-.54599.789276-.773529,1.45462-.134613.393585-.200775.702881-.198456.927979.002258.225067.062347.3992.180237.522369.117798.123169.265961.184753.444336.184753.217987,0,.451935-.100464.701935-.301544h0Z"/>
    <text class="st3" transform="translate(205.839844 28.179688)"><tspan x="0" y="0">22</tspan></text>
    <text class="st3" transform="translate(187.359375 17.980469)"><tspan x="0" y="0">11</tspan></text>
  </g>
  <g class="st37">
    <text class="st1" transform="translate(241.660156 36.160156)"><tspan x="0" y="0">0</tspan></text>
  </g>
  <g class="st35">
    <text class="st1" transform="translate(204.280273 36.160156)"><tspan x="0" y="0">0</tspan></text>
  </g>
  <g class="st30">
    <text class="st1" transform="translate(185.919922 36.160156)"><tspan x="0" y="0">0</tspan></text>
  </g>
  <g>
    <text class="st1" transform="translate(241.660156 26.019531)"><tspan x="0" y="0">0</tspan></text>
    <text class="st1" transform="translate(222.94043 26.019531)"><tspan x="0" y="0">0</tspan></text>
    <text class="st1" transform="translate(185.919922 26.019531)"><tspan x="0" y="0">0</tspan></text>
    <text class="st1" transform="translate(241.660156 15.820313)"><tspan x="0" y="0">0</tspan></text>
    <text class="st1" transform="translate(222.94043 15.820313)"><tspan x="0" y="0">0</tspan></text>
    <text class="st1" transform="translate(204.28125 15.820313)"><tspan x="0" y="0">0</tspan></text>
  </g>
  <g class="st24">
    <rect x="130.529449" y="31.823303" width=".411957" height="8.761627"/>
  </g>
  <g class="st25">
    <rect x="130.529449" y="25.463379" width=".411957" height="8.761627"/>
  </g>
  <path d="M130.945648,37.343384v2.23819c0,.872101-.106171,1.727142-.318542,2.565216-.181213.724823-.436768,1.360504-.766571,1.906891-.329865.546478-.717072,1.006561-1.16156,1.38028-.319977.274597-.688019.498291-1.104218.671051l-.097687-.084961c.798431-.549316,1.432648-1.19339,1.902649-1.932373.373749-.591736.655457-1.300995.845184-2.127777.189636-.826691.284546-1.591156.284546-2.293396v-2.32312h.416199Z"/>
  <g class="st26">
    <rect x="118.172516" y="31.823303" width=".411957" height="8.761627"/>
  </g>
  <g class="st27">
    <rect x="118.172516" y="25.463379" width=".411957" height="8.761627"/>
  </g>
  <g>
    <path d="M118.172516,37.343384h.411957v2.32312c0,.894745.119568,1.765381.358887,2.611938.239197.846619.59668,1.589844,1.072357,2.229675.410492.552124.945618,1.056061,1.605377,1.511932l-.097687.084961c-.682373-.286011-1.288971-.755249-1.819855-1.407898-.530884-.652588-.918793-1.444641-1.163666-2.376221-.244934-.931488-.367371-1.844604-.367371-2.739319v-2.23819Z"/>
    <rect x="109.289154" y="35.06369" width=".411957" height="8.761627"/>
  </g>
  <g class="st28">
    <rect x="109.289459" y="30.503296" width=".411957" height="8.761627"/>
  </g>
  <g>
    <path d="M109.705658,40.583405v2.23819c0,.872101-.106171,1.727142-.318542,2.565216-.181213.724823-.436768,1.360504-.766571,1.906891-.329865.546478-.717072,1.006561-1.16156,1.38028-.319977.274597-.688019.498291-1.104218.671051l-.097687-.084961c.798431-.549316,1.432648-1.19339,1.902649-1.932373.373749-.591736.655457-1.300995.845184-2.127777.189636-.826691.284546-1.591156.284546-2.293396v-2.32312h.416199Z"/>
    <rect x="34.052811" y="35.06369" width=".411957" height="8.761627"/>
  </g>
  <g class="st31">
    <rect x="34.052505" y="30.503296" width=".411957" height="8.761627"/>
  </g>
  <path d="M34.052505,40.583405h.411957v2.32312c0,.894745.119583,1.765381.358871,2.611938.239227.846619.59671,1.589844,1.072372,2.229675.410507.552124.945633,1.056061,1.605377,1.511932l-.097687.084961c-.682373-.286011-1.288971-.755249-1.819839-1.407898-.530884-.652588-.918823-1.444641-1.163696-2.376221-.244934-.931488-.367355-1.844604-.367355-2.739319v-2.23819Z"/>
  <g class="st32">
    <rect x="19.649445" y="31.823303" width=".411972" height="8.761627"/>
  </g>
  <g class="st33">
    <rect x="19.649445" y="25.463379" width=".411972" height="8.761627"/>
  </g>
  <path d="M20.065659,37.343384v2.23819c0,.872101-.106171,1.727142-.318527,2.565216-.181229.724823-.436783,1.360504-.766586,1.906891-.32988.546478-.717087,1.006561-1.16156,1.38028-.319992.274597-.688019.498291-1.104233.671051l-.097672-.084961c.798431-.549316,1.432632-1.19339,1.902664-1.932373.373734-.591736.655426-1.300995.845154-2.127777.189651-.826691.284546-1.591156.284546-2.293396v-2.32312h.416214Z"/>
  <g class="st29">
    <rect x="5.372513" y="31.823303" width=".411957" height="8.761627"/>
  </g>
  <g class="st50">
    <rect x="5.372513" y="25.463379" width=".411957" height="8.761627"/>
  </g>
  <g>
    <path d="M5.372513,37.343384h.411957v2.32312c0,.894745.119583,1.765381.358871,2.611938.239227.846619.59671,1.589844,1.072372,2.229675.410507.552124.945633,1.056061,1.605377,1.511932l-.097687.084961c-.682373-.286011-1.288971-.755249-1.819839-1.407898-.530884-.652588-.918823-1.444641-1.163696-2.376221-.244934-.931488-.367355-1.844604-.367355-2.739319v-2.23819Z"/>
    <path d="M15.013687,39.469818l.131668-1.257111c.036758-.35675.073593-.597351.110413-.721985.053757-.178375.129532-.306458.227219-.384369.097687-.07782.207382-.116791.329147-.116791.101929,0,.182617.028351.242081.084961.059448.056671.089188.128845.089188.216583,0,.067963-.014206.140167-.04248.216583-.036819.107666-.141602.344025-.31427.709259l-.58609,1.252869h-.186874Z"/>
    <text class="st63" transform="translate(122.140137 43.360352)"><tspan x="0" y="0">d</tspan></text>
  </g>
  <g class="st44">
    <text class="st63" transform="translate(122.680176 35.259766)"><tspan x="0" y="0">c</tspan></text>
  </g>
  <text class="st63" transform="translate(9.339844 43.360352)"><tspan x="0" y="0">d</tspan></text>
  <g class="st45">
    <text class="st63" transform="translate(9.879883 35.259766)"><tspan x="0" y="0">c</tspan></text>
  </g>
  <g>
    <text class="st3" transform="translate(100.180176 48.519531)"><tspan x="0" y="0">44</tspan></text>
    <text class="st3" transform="translate(81.159668 48.519531)"><tspan x="0" y="0">43</tspan></text>
    <text class="st3" transform="translate(61.899902 48.519531)"><tspan x="0" y="0">42</tspan></text>
    <text class="st3" transform="translate(43.119629 48.519531)"><tspan x="0" y="0">41</tspan></text>
    <text class="st3" transform="translate(100.119629 38.379883)"><tspan x="0" y="0">34</tspan></text>
    <text class="st3" transform="translate(81.039551 38.379883)"><tspan x="0" y="0">33</tspan></text>
    <text class="st3" transform="translate(61.839355 38.379883)"><tspan x="0" y="0">32</tspan></text>
    <text class="st3" transform="translate(43.059082 38.379883)"><tspan x="0" y="0">31</tspan></text>
    <path d="M97.242188,42.35495l-.637634,1.864441,1.583923-1.116974c.411133-.291565.728516-.489075.952209-.592438.223602-.103333.410431-.155029.560547-.155029.158508,0,.271881.043213.340027.129547.068146.086395.082855.186188.044128.299408-.03775.110413-.103699.199615-.197662.267548-.094055.067963-.199127.101929-.315186.101929-.079285,0-.156921-.025482-.23291-.076447-.134247-.087708-.228241-.131653-.282013-.131653-.150085,0-.395599.121765-.736481.365265l-.942993.671021.784729,1.418488c.143036.260529.256653.439575.34079.537262.084045.097687.174561.166351.271423.205994.06488.025482.20813.045319.42984.059448l-.053741.157135h-2.064056l.053772-.157135c.090607-.008484.156372-.026886.197235-.055206.057953-.045258.095673-.093445.113098-.144409.029053-.08493.000366-.208099-.085999-.369476l-.760681-1.414276-.732056,2.140503h-.709259l.983337-2.875244c.069733-.203857.098236-.336884.085571-.3992-.026489-.104736-.092102-.157135-.196838-.157135-.070801,0-.176666.019836-.317627.059448l-.002899-.152893,1.353271-.479919h.174133Z"/>
    <path d="M78.222473,42.35495l-.637634,1.864441,1.583908-1.116974c.411148-.291565.728531-.489075.952225-.592438.223602-.103333.410431-.155029.560532-.155029.158539,0,.271896.043213.340057.129547.06813.086395.08284.186188.044113.299408-.037766.110413-.103699.199615-.197678.267548-.09404.067963-.199097.101929-.315155.101929-.0793,0-.156921-.025482-.232925-.076447-.134247-.087708-.228241-.131653-.281998-.131653-.150101,0-.395615.121765-.736481.365265l-.942993.671021.784729,1.418488c.143021.260529.256638.439575.340759.537262.084045.097687.174561.166351.271439.205994.06488.025482.20813.045319.429855.059448l-.053741.157135h-2.064056l.053741-.157135c.090637-.008484.156372-.026886.19725-.055206.057953-.045258.095673-.093445.113098-.144409.029053-.08493.000366-.208099-.085983-.369476l-.760696-1.414276-.732056,2.140503h-.709259l.983337-2.875244c.069717-.203857.098236-.336884.085571-.3992-.026505-.104736-.092117-.157135-.196838-.157135-.070801,0-.176666.019836-.317627.059448l-.002914-.152893,1.353302-.479919h.174118Z"/>
    <path d="M58.962677,42.35495l-.637634,1.864441,1.583908-1.116974c.411148-.291565.728531-.489075.952225-.592438.223602-.103333.410431-.155029.560532-.155029.158539,0,.271896.043213.340057.129547.06813.086395.08284.186188.044113.299408-.037766.110413-.103699.199615-.197678.267548-.09404.067963-.199097.101929-.315155.101929-.0793,0-.156921-.025482-.232925-.076447-.134247-.087708-.228241-.131653-.281998-.131653-.150101,0-.395615.121765-.736481.365265l-.942993.671021.784729,1.418488c.143021.260529.256638.439575.340759.537262.084045.097687.174561.166351.271439.205994.06488.025482.20813.045319.429855.059448l-.053741.157135h-2.064056l.053741-.157135c.090637-.008484.156372-.026886.19725-.055206.057953-.045258.095673-.093445.113098-.144409.029053-.08493.000366-.208099-.085983-.369476l-.760696-1.414276-.732056,2.140503h-.709259l.983337-2.875244c.069717-.203857.098236-.336884.085571-.3992-.026505-.104736-.092117-.157135-.196838-.157135-.070801,0-.176666.019836-.317627.059448l-.002914-.152893,1.353302-.479919h.174118Z"/>
    <path d="M40.183075,42.35495l-.637634,1.864441,1.583908-1.116974c.411148-.291565.728531-.489075.952225-.592438.223602-.103333.410431-.155029.560532-.155029.158539,0,.271896.043213.340057.129547.06813.086395.08284.186188.044113.299408-.037766.110413-.103699.199615-.197678.267548-.09404.067963-.199097.101929-.315155.101929-.0793,0-.156921-.025482-.232925-.076447-.134247-.087708-.228241-.131653-.281998-.131653-.150101,0-.395615.121765-.736481.365265l-.942993.671021.784729,1.418488c.143021.260529.256638.439575.340759.537262.084045.097687.174561.166351.271439.205994.06488.025482.20813.045319.429855.059448l-.053741.157135h-2.064056l.053741-.157135c.090637-.008484.156372-.026886.19725-.055206.057953-.045258.095673-.093445.113098-.144409.029053-.08493.000366-.208099-.085983-.369476l-.760696-1.414276-.732056,2.140503h-.709259l.983337-2.875244c.069717-.203857.098236-.336884.085571-.3992-.026505-.104736-.092117-.157135-.196838-.157135-.070801,0-.176666.019836-.317627.059448l-.002914-.152893,1.353302-.479919h.174118Z"/>
  </g>
  <g class="st46">
    <path d="M97.302185,32.214966l-.637634,1.864441,1.583923-1.116974c.411133-.291565.728516-.489075.952209-.592438.223602-.103333.410431-.155029.560547-.155029.158508,0,.271881.043213.340027.129547.068146.086395.082855.186188.044128.299408-.03775.110413-.103699.199615-.197662.267548-.094055.067963-.199127.101929-.315186.101929-.079285,0-.156921-.025482-.23291-.076447-.134247-.087708-.228241-.131653-.282013-.131653-.150085,0-.395599.121765-.736481.365265l-.942993.671021.784729,1.418488c.143036.260529.256653.439575.34079.537262.084045.097687.174561.166351.271423.205994.06488.025482.20813.045319.42984.059448l-.053741.157135h-2.064056l.053772-.157135c.090607-.008484.156372-.026886.197235-.055206.057953-.045258.095673-.093445.113098-.144409.029053-.08493.000366-.208099-.085999-.369476l-.760681-1.414276-.732056,2.140503h-.709259l.983337-2.875244c.069733-.203857.098236-.336884.085571-.3992-.026489-.104736-.092102-.157135-.196838-.157135-.070801,0-.176666.019836-.317627.059448l-.002899-.152893,1.353271-.479919h.174133Z"/>
  </g>
  <g class="st47">
    <path d="M78.282181,32.214966l-.637634,1.864441,1.583908-1.116974c.411148-.291565.728531-.489075.952225-.592438.223602-.103333.410431-.155029.560532-.155029.158539,0,.271896.043213.340057.129547.06813.086395.08284.186188.044113.299408-.037766.110413-.103699.199615-.197678.267548-.09404.067963-.199097.101929-.315155.101929-.0793,0-.156921-.025482-.232925-.076447-.134247-.087708-.228241-.131653-.281998-.131653-.150101,0-.395615.121765-.736481.365265l-.942993.671021.784729,1.418488c.143021.260529.256638.439575.340759.537262.084045.097687.174561.166351.271439.205994.06488.025482.20813.045319.429855.059448l-.053741.157135h-2.064056l.053741-.157135c.090637-.008484.156372-.026886.19725-.055206.057953-.045258.095673-.093445.113098-.144409.029053-.08493.000366-.208099-.085983-.369476l-.760696-1.414276-.732056,2.140503h-.709259l.983337-2.875244c.069717-.203857.098236-.336884.085571-.3992-.026505-.104736-.092117-.157135-.196838-.157135-.070801,0-.176666.019836-.317627.059448l-.002914-.152893,1.353302-.479919h.174118Z"/>
  </g>
  <g class="st48">
    <path d="M59.022171,32.214966l-.637634,1.864441,1.583908-1.116974c.411148-.291565.728531-.489075.952225-.592438.223602-.103333.410431-.155029.560532-.155029.158539,0,.271896.043213.340057.129547.06813.086395.08284.186188.044113.299408-.037766.110413-.103699.199615-.197678.267548-.09404.067963-.199097.101929-.315155.101929-.0793,0-.156921-.025482-.232925-.076447-.134247-.087708-.228241-.131653-.281998-.131653-.150101,0-.395615.121765-.736481.365265l-.942993.671021.784729,1.418488c.143021.260529.256638.439575.340759.537262.084045.097687.174561.166351.271439.205994.06488.025482.20813.045319.429855.059448l-.053741.157135h-2.064056l.053741-.157135c.090637-.008484.156372-.026886.19725-.055206.057953-.045258.095673-.093445.113098-.144409.029053-.08493.000366-.208099-.085983-.369476l-.760696-1.414276-.732056,2.140503h-.709259l.983337-2.875244c.069717-.203857.098236-.336884.085571-.3992-.026505-.104736-.092117-.157135-.196838-.157135-.070801,0-.176666.019836-.317627.059448l-.002914-.152893,1.353302-.479919h.174118Z"/>
  </g>
  <g class="st51">
    <path d="M40.242172,32.214966l-.637634,1.864441,1.583908-1.116974c.411148-.291565.728531-.489075.952225-.592438.223602-.103333.410431-.155029.560532-.155029.158539,0,.271896.043213.340057.129547.06813.086395.08284.186188.044113.299408-.037766.110413-.103699.199615-.197678.267548-.09404.067963-.199097.101929-.315155.101929-.0793,0-.156921-.025482-.232925-.076447-.134247-.087708-.228241-.131653-.281998-.131653-.150101,0-.395615.121765-.736481.365265l-.942993.671021.784729,1.418488c.143021.260529.256638.439575.340759.537262.084045.097687.174561.166351.271439.205994.06488.025482.20813.045319.429855.059448l-.053741.157135h-2.064056l.053741-.157135c.090637-.008484.156372-.026886.19725-.055206.057953-.045258.095673-.093445.113098-.144409.029053-.08493.000366-.208099-.085983-.369476l-.760696-1.414276-.732056,2.140503h-.709259l.983337-2.875244c.069717-.203857.098236-.336884.085571-.3992-.026505-.104736-.092117-.157135-.196838-.157135-.070801,0-.176666.019836-.317627.059448l-.002914-.152893,1.353302-.479919h.174118Z"/>
  </g>
  <g class="st52">
    <rect x="274.76947" y="32.003296" width=".411957" height="8.761627"/>
  </g>
  <path d="M275.185669,39.203278v2.23819c0,.872101-.106171,1.727142-.318542,2.565216-.181213.724823-.436768,1.360504-.766571,1.906891-.329865.546478-.717072,1.006561-1.16156,1.38028-.319977.274597-.688019.498291-1.104218.671051l-.097687-.084961c.798431-.549316,1.432648-1.19339,1.902649-1.932373.373749-.591736.655457-1.300995.845184-2.127777.189636-.826691.284546-1.591156.284546-2.293396v-2.32312h.416199Z"/>
  <g class="st53">
    <rect x="261.272522" y="32.003296" width=".411957" height="8.761627"/>
  </g>
  <g>
    <path d="M261.272522,39.203278h.411957v2.32312c0,.894745.119568,1.765381.358887,2.611938.239197.846619.59668,1.589844,1.072357,2.229675.410492.552124.945618,1.056061,1.605377,1.511932l-.097687.084961c-.682373-.286011-1.288971-.755249-1.819855-1.407898-.530884-.652588-.918793-1.444641-1.163666-2.376221-.244934-.931488-.367371-1.844604-.367371-2.739319v-2.23819Z"/>
    <rect x="252.329163" y="35.06308" width=".411957" height="8.761627"/>
  </g>
  <g class="st49">
    <rect x="252.329468" y="30.623291" width=".411957" height="8.761627"/>
  </g>
  <g>
    <path d="M252.745667,40.583405v2.23819c0,.872101-.106171,1.727142-.318542,2.565216-.181213.724823-.436768,1.360504-.766571,1.906891-.329865.546478-.717072,1.006561-1.16156,1.38028-.319977.274597-.688019.498291-1.104218.671051l-.097687-.084961c.798431-.549316,1.432648-1.19339,1.902649-1.932373.373749-.591736.655457-1.300995.845184-2.127777.189636-.826691.284546-1.591156.284546-2.293396v-2.32312h.416199Z"/>
    <rect x="179.3125" y="35.06369" width=".411957" height="8.761627"/>
  </g>
  <g class="st15">
    <rect x="179.3125" y="30.623291" width=".411957" height="8.761627"/>
  </g>
  <path d="M179.3125,40.583405h.411957v2.32312c0,.894745.119568,1.765381.358887,2.611938.239197.846619.59668,1.589844,1.072357,2.229675.410492.552124.945618,1.056061,1.605377,1.511932l-.097687.084961c-.682373-.286011-1.288971-.755249-1.819855-1.407898-.530884-.652588-.918793-1.444641-1.163666-2.376221-.244934-.931488-.367371-1.844604-.367371-2.739319v-2.23819Z"/>
  <g class="st22">
    <rect x="164.789459" y="32.003296" width=".411957" height="8.761627"/>
  </g>
  <path d="M165.205658,39.203278v2.23819c0,.872101-.106171,1.727142-.318542,2.565216-.181213.724823-.436768,1.360504-.766571,1.906891-.329865.546478-.717072,1.006561-1.16156,1.38028-.319977.274597-.688019.498291-1.104218.671051l-.097687-.084961c.798431-.549316,1.432648-1.19339,1.902649-1.932373.373749-.591736.655457-1.300995.845184-2.127777.189636-.826691.284546-1.591156.284546-2.293396v-2.32312h.416199Z"/>
  <g class="st17">
    <rect x="149.372498" y="32.003296" width=".411957" height="8.761627"/>
  </g>
  <g>
    <path d="M149.372498,39.203278h.411957v2.32312c0,.894745.119568,1.765381.358887,2.611938.239197.846619.59668,1.589844,1.072357,2.229675.410492.552124.945618,1.056061,1.605377,1.511932l-.097687.084961c-.682373-.286011-1.288971-.755249-1.819855-1.407898-.530884-.652588-.918793-1.444641-1.163666-2.376221-.244934-.931488-.367371-1.844604-.367371-2.739319v-2.23819Z"/>
    <path d="M159.613892,41.269745l.131653-1.257111c.036774-.35675.073608-.597351.110443-.721985.053741-.178375.129517-.306458.227203-.384369.097687-.07782.207367-.116791.329132-.116791.101929,0,.182648.028351.242096.084961.059448.056671.089172.128845.089172.216583,0,.067963-.014191.140167-.04245.216583-.036835.107666-.141632.344025-.314301.709259l-.58609,1.252869h-.186859Z"/>
    <path d="M268.71521,41.49472c-.0755-.110413-.161469-.215118-.257751-.31427-.306793-.319916-.491333-.566986-.553467-.741089-.062225-.174133-.067657-.336182-.016327-.486298.075531-.220856.248016-.414734.517517-.581848.269501-.167023.634979-.25058,1.096497-.25058.535126,0,.917877.101929,1.148285.305786.143311.127411.184937.278931.124908.454437-.032928.096283-.095734.178375-.188324.246338-.092651.067932-.191315.101929-.296051.101929-.062286,0-.112671-.01413-.151093-.04248-.056274-.04248-.139008-.158539-.24826-.348267-.109283-.189636-.206116-.310028-.290619-.360992-.11087-.065094-.256866-.097656-.438019-.097656-.252045,0-.463928.054535-.635651.163483-.171783.109039-.279938.228699-.324463.358887-.042603.124634-.01532.264038.082031.418335.09726.154358.350739.385803.760559.694397.521362.387939.841003.748932.958923,1.082977.117859.334137.10907.699371-.026489,1.095734-.198486.580444-.565216,1.075226-1.100098,1.484344-.534912.409149-1.07135.613678-1.609283.613678-.487,0-.837341-.169861-1.050964-.509644-.213654-.339752-.23526-.758759-.064819-1.257111.101654-.297302.267639-.588226.498077-.872772.230377-.284546.510101-.518799.839233-.702881.329041-.184021.737579-.33551,1.225647-.454437ZM269.1922,42.322906c-.038788-.101929-.145996-.310028-.321594-.624329-.466888.073669-.858673.248474-1.175323.524506-.316711.276062-.563599.673157-.740814,1.191315-.177216.518127-.20163.912445-.073242,1.18277.128357.270416.336945.405609.625732.405609.348267,0,.669159-.141541.962799-.424713.293579-.283081.514984-.6427.664124-1.078735.080353-.234985.122559-.455841.12677-.662537.00412-.206635-.018707-.377991-.068451-.513885h0Z"/>
  </g>
  <g class="st21">
    <path d="M268.471466,33.183105c.360687-.566254.782623-1.170715,1.265778-1.813477h.709229c-.08017.101929-.47934.58609-1.19751,1.452454-.29953.362457-.519409.637054-.65976.823944-.06012.076447-.126923.159973-.200378.25058l-.845703,1.044769c-.042206.181213-.085144.348236-.128937.501129s-.086975.291595-.129608.416199c-.131653.38504-.261688.682312-.389954.891876-.090027.147186-.177002.248474-.260986.30368-.084045.055206-.164246.082825-.240692.082825-.093414,0-.162659-.039703-.207764-.118927-.045074-.079315-.046326-.181244-.003723-.305786.074585-.218048.204376-.469299.389465-.753845.185059-.284546.4245-.603821.718262-.957703.289062-1.449646.42337-2.324524.402863-2.624664-.020538-.300079-.139801-.450195-.357788-.450195-.133118,0-.251648.040344-.355682.121063-.104034.080688-.224335.262634-.360779.545746h-.165619c.026245-.084961.04657-.148651.061096-.191132.133636-.390717.310791-.68515.531464-.883392.166412-.147186.347351-.220825.542694-.220825.169891,0,.291168.050964.363922.152893.097809.144379.121979.458679.07254.942841-.06778.62854-.186981,1.312317-.357544,2.0513l.805115-1.261353h0Z"/>
  </g>
  <path d="M241.830627,43.451355l-2.446533,2.968658h-.755981l3.31485-4.004944.055603-.373749c.054504-.407715.035126-.684418-.057922-.830292-.09314-.145782-.227448-.218719-.402985-.218719-.1586,0-.317139.058075-.475769.174133-.15863.116119-.300903.304382-.426758.56485h-.152893c.159546-.441681.389557-.795563.690155-1.061737.215881-.192505.431427-.288818.646637-.288818.189636,0,.326813.075073.411407.225098.125427.22934.153961.634277.085754,1.214661l-.343048,2.989899c-.051086.447388-.034271.737579.050507.870636.080933.135895.207733.203857.380463.203857.164185,0,.318298-.055206.46225-.165619.143921-.110443.267395-.287354.370544-.530884h.165619c-.0224.073639-.039825.128876-.052399.165619-.126862.370972-.321045.669647-.58252.896118-.196869.169891-.407135.254822-.630768.254822-.198212,0-.346619-.083527-.44519-.250549-.098602-.167053-.11322-.550659-.043823-1.15097l.1828-1.652069Z"/>
  <g class="st19">
    <path d="M223.290619,33.191254l-2.446533,2.968658h-.755981l3.31485-4.004944.055603-.373749c.054504-.407715.035126-.684418-.057922-.830292-.09314-.145782-.227448-.218719-.402985-.218719-.1586,0-.317139.058075-.475769.174133-.15863.116119-.300903.304382-.426758.56485h-.152893c.159546-.441681.389557-.795563.690155-1.061737.215881-.192505.431427-.288818.646637-.288818.189636,0,.326813.075073.411407.225098.125427.22934.153961.634277.085754,1.214661l-.343048,2.989899c-.051086.447388-.034271.737579.050507.870636.080933.135895.207733.203857.380463.203857.164185,0,.318298-.055206.46225-.165619.143921-.110443.267395-.287354.370544-.530884h.165619c-.0224.073639-.039825.128876-.052399.165619-.126862.370972-.321045.669647-.58252.896118-.196869.169891-.407135.254822-.630768.254822-.198212,0-.346619-.083527-.44519-.250549-.098602-.167053-.11322-.550659-.043823-1.15097l.1828-1.652069Z"/>
  </g>
  <path d="M156.815216,41.49472c-.0755-.110413-.161469-.215118-.257751-.31427-.306793-.319916-.491333-.566986-.553467-.741089-.062225-.174133-.067657-.336182-.016327-.486298.075531-.220856.248016-.414734.517517-.581848.269501-.167023.634979-.25058,1.096497-.25058.535126,0,.917877.101929,1.148285.305786.143311.127411.184937.278931.124908.454437-.032928.096283-.095734.178375-.188324.246338-.092651.067932-.191315.101929-.296051.101929-.062286,0-.112671-.01413-.151093-.04248-.056274-.04248-.139008-.158539-.24826-.348267-.109283-.189636-.206116-.310028-.290619-.360992-.11087-.065094-.256866-.097656-.438019-.097656-.252045,0-.463928.054535-.635651.163483-.171783.109039-.279938.228699-.324463.358887-.042603.124634-.01532.264038.082031.418335.09726.154358.350739.385803.760559.694397.521362.387939.841003.748932.958923,1.082977.117859.334137.10907.699371-.026489,1.095734-.198486.580444-.565216,1.075226-1.100098,1.484344-.534912.409149-1.07135.613678-1.609283.613678-.487,0-.837341-.169861-1.050964-.509644-.213654-.339752-.23526-.758759-.064819-1.257111.101654-.297302.267639-.588226.498077-.872772.230377-.284546.510101-.518799.839233-.702881.329041-.184021.737579-.33551,1.225647-.454437ZM157.292206,42.322906c-.038788-.101929-.145996-.310028-.321594-.624329-.466888.073669-.858673.248474-1.175323.524506-.316711.276062-.563599.673157-.740814,1.191315-.177216.518127-.20163.912445-.073242,1.18277.128357.270416.336945.405609.625732.405609.348267,0,.669159-.141541.962799-.424713.293579-.283081.514984-.6427.664124-1.078735.080353-.234985.122559-.455841.12677-.662537.00412-.206635-.018707-.377991-.068451-.513885h0Z"/>
  <g class="st16">
    <path d="M156.571472,33.183105c.360687-.566254.782623-1.170715,1.265778-1.813477h.709229c-.08017.101929-.47934.58609-1.19751,1.452454-.29953.362457-.519409.637054-.65976.823944-.06012.076447-.126923.159973-.200378.25058l-.845703,1.044769c-.042206.181213-.085144.348236-.128937.501129s-.086975.291595-.129608.416199c-.131653.38504-.261688.682312-.389954.891876-.090027.147186-.177002.248474-.260986.30368-.084045.055206-.164246.082825-.240692.082825-.093414,0-.162659-.039703-.207764-.118927-.045074-.079315-.046326-.181244-.003723-.305786.074585-.218048.204376-.469299.389465-.753845.185059-.284546.4245-.603821.718262-.957703.289062-1.449646.42337-2.324524.402863-2.624664-.020538-.300079-.139801-.450195-.357788-.450195-.133118,0-.251648.040344-.355682.121063-.104034.080688-.224335.262634-.360779.545746h-.165619c.026245-.084961.04657-.148651.061096-.191132.133636-.390717.310791-.68515.531464-.883392.166412-.147186.347351-.220825.542694-.220825.169891,0,.291168.050964.363922.152893.097809.144379.121979.458679.07254.942841-.06778.62854-.186981,1.312317-.357544,2.0513l.805115-1.261353h0Z"/>
  </g>
  <g>
    <text class="st3" transform="translate(243.160156 48.639648)"><tspan x="0" y="0">44</tspan></text>
    <text class="st3" transform="translate(224.5 38.379883)"><tspan x="0" y="0">33</tspan></text>
    <text class="st1" transform="translate(222.94043 46.419922)"><tspan x="0" y="0">0</tspan></text>
    <text class="st1" transform="translate(204.280273 46.419922)"><tspan x="0" y="0">0</tspan></text>
    <text class="st1" transform="translate(185.919922 46.419922)"><tspan x="0" y="0">0</tspan></text>
  </g>
  <g class="st20">
    <text class="st1" transform="translate(241.660156 36.160156)"><tspan x="0" y="0">0</tspan></text>
  </g>
  <g class="st18">
    <text class="st1" transform="translate(204.280273 36.160156)"><tspan x="0" y="0">0</tspan></text>
  </g>
  <g class="st23">
    <text class="st1" transform="translate(185.919922 36.160156)"><tspan x="0" y="0">0</tspan></text>
  </g>
  <g>
    <text class="st64" transform="translate(28.470062 106.670827)"><tspan x="0" y="0">a</tspan></text>
    <text class="st64" transform="translate(88.529779 88.146165)"><tspan x="0" y="0">b</tspan></text>
  </g>
  <g>
    <path class="st66" d="M101.73999,134.5l1.860016,2.820007-3.360016-.180008M44.440002,103l57.119995,32.820007-.23999.479996-57.180008-32.880005.300003-.419998Z"/>
    <path class="st66" d="M82.839996,96.880005l2.520004-2.220001.300003,3.360001M66.880005,141.460007l17.339996-44.580002.479996.179993-17.339996,44.580002-.479996-.179993Z"/>
    <path class="st66" d="M25.660004,113.199997l3-1.5-.600006,3.300003M57.940002,154.600006l-7.680008-1.320007c-8.752991-1.817001-33.71199-5.169998-38.759995-13.319992l-.179993-.420013-.180008-.360001c-2.352997-6.640991,10.485001-19.234985,14.339996-23.87999l.660004-.720001.839996-1.020004.360001.300003-.839996,1.020004-.660004.779999c-3.707993,4.356995-16.431,17.080002-14.220001,23.339996l.12001.360001.179993.300003c4.928009,8.003998,29.863007,11.324997,38.400009,13.139999l7.679993,1.319992-.059998.480011Z"/>
    <path class="st66" d="M32.5,96.160004l-1.919998,2.759995-1.080002-3.179993M114.940002,131.860001l.059998-.419998.059998-.479996.059998-.540009c2.108002-11.169998,6.085999-21.772995,7.140015-33.419998l.119995-2.039993.119995-1.980011c-.075012-12.475998-3.006989-17.031998-15-22.080002l-2.279999-.959991-2.399994-.839996-2.460022-.840012-2.639984-.839996c-7.703003-2.867004-51.320999-11.576996-59.639999-4.139999l-.960007.839996c-6.664001,6.796005-5.427002,21.529007-5.819992,30.419998v1.080002l-.12001.840012-.479996-.060013.059998-.779999.060013-.539993v-.540009c.274994-9.030991-.748001-23.147995,5.519989-30.360001l.900009-.899994c7.628998-8.102005,50.723999.453003,57.960007,2.880005l2.699982.779999,2.580017.839996,2.519989.839996,2.399994.900009c12.140015,4.832001,17.128998,8.455994,17.580017,21.479996v1.979996l-.059998,1.980011c-.742004,12.36499-5.005005,23.647995-7.320007,35.519989l-.179993,1.440002-.480011-.059998Z"/>
    <path class="st66" d="M57.460007,134.020004l.539993,3.300003-3-1.560013M39.940002,111.580002l16.800003,23.520004-.419998.299988-16.800003-23.519989.419998-.300003Z"/>
    <path class="st66" d="M108.579987,133.960007l-.419983,3.360001-2.399994-2.340012M94.720001,98.860001l12.839996,36-.480011.179993-12.839996-36.059998.480011-.119995Z"/>
  </g>
  <g>
    <path class="st66" d="M83.139999,86.320007l3.360001-.180008-1.860001,2.759995M90.880005,77.740005l-.300003-.300003-.119995-.240005c-1.660004-2.358002-3.929001-6.826004-6.720001-7.919998l-.600006-.119995c-3.656998-.529007-10.623001,2.556-13.020004,5.339996l-.419998.539993-.419998.660004-.300003.720001-.300003.779999c-1.103989,3.270996-1.972,9.673996,1.26001,12.12001l.419998.359985.479996.300003c4.175003,2.677002,7.141006.809006,10.980011-1.440002l.779999-.419998.720001-.479996.899994-.479996.240005.419998-.840012.539993-.779999.419998-.779999.480011c-3.800003,2.240997-7.367996,4.164993-11.459991,1.37999l-.540009-.360001-.479996-.360001c-3.428009-2.765991-2.512009-9.085999-1.380005-12.719986l.300003-.780014.360001-.719986.419998-.720001.479996-.600006c2.692001-2.981003,9.444-5.923996,13.440002-5.520004l.360001.12001.360001.059998c3.093002,1.375992,5.112,5.391998,6.900009,8.099991l.179993.240005.119995.119995.12001.180008-.360001.300003Z"/>
    <path class="st4" d="M194.265869,80.712708h.972656l-1.673523,2.666016c-.108276.167999-.278564.431671-.510773.791016-.057343.601593-.068909.960938-.034729,1.078125.067108.214874.208099.322266.422974.322266.156189,0,.322784-.064453.499725-.193359.176849-.128906.333527-.330048.470062-.603516h.234375c-.247101.5625-.498169.951233-.753265,1.166016s-.501892.322266-.740112.322266c-.222656,0-.392731-.09375-.510254-.28125-.117493-.1875-.143066-.589783-.076447-1.207031-.288147.339844-.54422.597656-.768402.773438-.313385.242249-.625122.422882-.935364.541992-.310272.11911-.63736.178711-.981049.178711-.863342,0-1.399902-.287109-1.609711-.861328-.20993-.574219-.18924-1.228455.061951-1.962891.293884-.859314.770264-1.555664,1.42923-2.088867.658905-.533203,1.308655-.799805,1.949341-.799805.445312,0,.791443.135773,1.038452.407227.246979.271545.382843.776367.407745,1.514648l1.107117-1.763672ZM190.959167,85.447083c.468079-.375,1.058044-1.146423,1.770081-2.314453.06427-.804657-.015259-1.36615-.238312-1.68457-.223206-.318329-.506683-.477539-.850372-.477539-.382874,0-.77301.210022-1.170502.629883-.397583.419952-.753265,1.088928-1.0672,2.006836-.185699.542999-.277008.969727-.273804,1.280273.003113.310547.085999.550781.248627.720703.162537.169922.366943.254883.613037.254883.300751,0,.623535-.138611.968445-.416016h0ZM260.671021,85.622864l-.338684.990234c-.2164.632812-.529053,1.318359-.937744,2.056641h-.990234c.271149-.484406.446442-.814453.526154-.990234.237793-.546936.400177-.947296.487-1.201172l2.048035-5.988281c.239136-.699188.485779-1.217743.740051-1.555664.25415-.33783.600708-.620087,1.039581-.84668.438721-.226501.910156-.339844,1.414062-.339844.699219,0,1.193634.1875,1.483429.5625.289673.375.346375.820312.170044,1.335938-.113586.332062-.306396.647461-.578522.946289s-.623413.557648-1.053619.776367c.875793.500061,1.133453,1.277344.772736,2.332031-.160309.46875-.419342.906281-.777008,1.3125-.357758.406311-.764374.715851-1.219971.928711-.455658.21286-.886597.319336-1.292816.319336-.261749,0-.505188-.044952-.730255-.134766-.225189-.089813-.479279-.257812-.762238-.503906ZM260.829346,85.159973c.287964.265686.552673.457031.793823.574219.181549.085968.377808.128906.588745.128906.394501,0,.781311-.163055,1.160492-.489258.379028-.326111.689575-.842743.931396-1.549805.152313-.445312.222046-.834961.209381-1.168945-.012787-.333984-.111176-.700195-.295166-1.098633-.300293.089905-.548065.134766-.743347.134766-.234375,0-.387421-.035156-.459045-.105469-.071716-.070312-.093475-.146484-.06543-.228516.025391-.074158.085175-.140625.179474-.199219.094208-.058594.223419-.087891.387482-.087891.191345,0,.463104.050812.815094.152344.459045-.542908.771515-1.05661.937195-1.541016.168335-.492188.17746-.873047.027496-1.142578-.150085-.269531-.404724-.404297-.764069-.404297-.453186,0-.870239.191437-1.251099.574219-.250916.253967-.472534.662109-.664917,1.224609l-1.787506,5.226562Z"/>
    <path class="st4" d="M186.100006,87.940002l3.359985-.119995-1.97998,2.759995M194.019989,79.720001l-.299988-.300003-.119995-.240005c-1.740021-2.269989-4.205994-6.794998-7.080017-7.679993l-.299988-.119995-.299988-.059998c-3.915009-.383011-10.884003,2.387985-13.620026,5.219986l-.47998.540009-.420013.660004-.359985.659988-.300018.720001c-1.106995,3.225998-2.023987,9.455002,1.320007,11.76001l.959991.720001c4.22702,2.503998,7.614014.773987,11.52002-1.440002l.839996-.419998.779999-.419998.959991-.540009.23999.419998-.959991.540009-.779999.419998-.839996.479996c-4.139008,2.139008-6.937012,3.880997-11.459991,1.680008l-.540009-.300003-.540009-.360001c-3.923981-2.531006-3.298004-8.012009-2.220001-11.880005l.240021-.839996.359985-.779999.360016-.720001.47998-.660004c2.266998-3.166,10.042023-6.158005,13.800018-6l.720001.059998.359985.059998c3.22699.835999,5.79599,5.459,7.619995,7.980011l.180023.179993.119995.180008.119995.119995-.360016.360001Z"/>
    <path class="st4" d="M257.73999,83.800003l3.360016-.12001-1.980011,2.76001M265.660004,75.580002l-.119995-.119995-.180023-.240005-.119995-.180008c-1.73999-2.269989-4.205994-6.794998-7.079987-7.679993l-.300018-.119995-.299988-.060013c-3.763-.42099-11.039001,2.457001-13.619995,5.220001l-.480011.540009-.359985.599991-.420013.720001-.299988.720001c-1.075012,3.354004-2.027008,9.307007,1.320007,11.76001l.47998.360001.540009.360001c4.162994,2.55899,7.654999.687988,11.519989-1.440002l1.559998-.840012.960022-.539993.23999.419998-.959991.540009-.779999.419998-.839996.479996c-4.173004,2.151993-6.901001,3.869995-11.460022,1.679993l-.539978-.299988-.540009-.360001c-3.882019-2.464005-3.257019-8.091003-2.220001-11.880005l.299988-.839996.300018-.779999.419983-.720001.420013-.660004c2.270996-3.154007,10.044006-6.160004,13.799988-6l.720001.059998.360016.059998c3.135986.741013,5.850983,5.491013,7.619995,7.980011l.179993.179993.119995.180008.119995.119995-.359985.360001Z"/>
  </g>
  <text class="st64" transform="translate(57.164551 147.575195)"><tspan class="st65" x="0" y="0">c</tspan><tspan x="45.658203" y="0">d</tspan></text>
  <g>
    <path class="st66" d="M101.73999,134.5l1.860016,2.820007-3.360016-.180008M44.440002,103l57.119995,32.820007-.23999.479996-57.180008-32.880005.300003-.419998Z"/>
    <path class="st66" d="M82.839996,96.880005l2.520004-2.220001.300003,3.360001M66.880005,141.460007l17.339996-44.580002.479996.179993-17.339996,44.580002-.479996-.179993Z"/>
    <path class="st66" d="M25.660004,113.199997l3-1.5-.600006,3.300003M57.940002,154.600006l-7.680008-1.320007c-8.752991-1.817001-33.71199-5.169998-38.759995-13.319992l-.179993-.420013-.180008-.360001c-2.352997-6.640991,10.485001-19.234985,14.339996-23.87999l.660004-.720001.839996-1.020004.360001.300003-.839996,1.020004-.660004.779999c-3.707993,4.356995-16.431,17.080002-14.220001,23.339996l.12001.360001.179993.300003c4.928009,8.003998,29.863007,11.324997,38.400009,13.139999l7.679993,1.319992-.059998.480011Z"/>
    <path class="st66" d="M32.5,96.160004l-1.919998,2.759995-1.080002-3.179993M114.940002,131.860001l.059998-.419998.059998-.479996.059998-.540009c2.108002-11.169998,6.085999-21.772995,7.140015-33.419998l.119995-2.039993.119995-1.980011c-.075012-12.475998-3.006989-17.031998-15-22.080002l-2.279999-.959991-2.399994-.839996-2.460022-.840012-2.639984-.839996c-7.703003-2.867004-51.320999-11.576996-59.639999-4.139999l-.960007.839996c-6.664001,6.796005-5.427002,21.529007-5.819992,30.419998v1.080002l-.12001.840012-.479996-.060013.059998-.779999.060013-.539993v-.540009c.274994-9.030991-.748001-23.147995,5.519989-30.360001l.900009-.899994c7.628998-8.102005,50.723999.453003,57.960007,2.880005l2.699982.779999,2.580017.839996,2.519989.839996,2.399994.900009c12.140015,4.832001,17.128998,8.455994,17.580017,21.479996v1.979996l-.059998,1.980011c-.742004,12.36499-5.005005,23.647995-7.320007,35.519989l-.179993,1.440002-.480011-.059998Z"/>
    <path class="st66" d="M57.460007,134.020004l.539993,3.300003-3-1.560013M39.940002,111.580002l16.800003,23.520004-.419998.299988-16.800003-23.519989.419998-.300003Z"/>
  </g>
  <path class="st66" d="M95.799988,144.940002l3.240021.899994-2.700012,2.040009M76.179993,149.860001l20.339996-3.839996.120026.539993-20.340012,3.779999-.12001-.479996Z"/>
  <path class="st66" d="M108.579987,133.960007l-.419983,3.360001-2.399994-2.340012M94.720001,98.860001l12.839996,36-.480011.179993-12.839996-36.059998.480011-.119995Z"/>
  <g>
    <path class="st4" d="M205.324371,145.314667c.49765-.781219,1.079773-1.615173,1.746338-2.501953h.978516c-.110626.140625-.661346.808594-1.652161,2.003906-.413269.500061-.716614.878906-.910248,1.136719-.082947.105469-.17511.220734-.276428.345703l-1.166809,1.441406c-.058228.250031-.117462.480469-.177887.691406s-.119995.402283-.178802.574219c-.181671.531189-.361023.941345-.538025,1.230469-.124176.203064-.244202.342773-.360077.418945-.115936.076172-.226562.114258-.332031.114258-.128906,0-.224457-.054749-.286682-.164062-.062164-.109406-.063873-.250031-.005127-.421875.102905-.300842.281952-.647461.537354-1.040039.25531-.392578.585663-.833038.990967-1.321289.398804-1.999969.584106-3.207001.555817-3.621094-.02832-.414001-.192902-.621094-.493622-.621094-.183655,0-.347168.055664-.490723.166992s-.309509.362366-.497742.75293h-.228516c.036224-.117188.06427-.205078.08432-.263672.184357-.539062.428772-.945282.733215-1.21875.229584-.203064.479218-.304688.748749-.304688.234375,0,.401672.070312.502075.210938.134918.199219.168274.632812.100037,1.300781-.093506.867188-.257935,1.810547-.493286,2.830078l1.110779-1.740234h0ZM263.290649,143.12326c-.104156-.152344-.222748-.296814-.355591-.433594-.423279-.441376-.677856-.782227-.763611-1.022461-.085815-.240234-.093323-.463806-.022491-.670898.104218-.304688.342194-.572205.713989-.802734.371796-.230438.876038-.345703,1.512756-.345703.738281,0,1.266357.140625,1.584259.421875.197693.175781.255096.384796.172272.626953-.04541.132843-.13205.246094-.259766.339844-.127838.09375-.263977.140625-.408447.140625-.085968,0-.155487-.019501-.208496-.058594-.077637-.058594-.191772-.218719-.342499-.480469-.150757-.261658-.284363-.427734-.40094-.498047-.152954-.089813-.35437-.134766-.604309-.134766-.347717,0-.640045.075256-.876953.225586-.23703.150421-.38623.315491-.447662.495117-.058807.171936-.021149.364288.113159.577148.134155.212952.483917.532288,1.049316.958008.719269.535217,1.160248,1.033264,1.322968,1.494141.162598.460968.150482.964874-.03656,1.511719-.273865.800812-.779816,1.483429-1.517761,2.047852-.737976.564514-1.478119.84668-2.220245.84668-.671906,0-1.155243-.234375-1.449951-.703125-.2948-.46875-.324585-1.046814-.089447-1.734375.140289-.410156.369293-.811523.687225-1.204102.31781-.392578.703735-.715759,1.157806-.969727.453949-.253876,1.017639-.462891,1.690979-.626953ZM263.94873,144.265839c-.053528-.140625-.201447-.427734-.443726-.861328-.644104.101624-1.184631.342773-1.62149.723633-.436951.380859-.777588.928711-1.022064,1.643555-.244507.714844-.278198,1.25885-.101074,1.631836.177094.373077.464874.55957.863312.55957.480469,0,.923157-.195282,1.328308-.585938.405029-.390564.71048-.886688.916229-1.488281.11087-.324188.169128-.628876.174927-.914062.005676-.285095-.025818-.521484-.094421-.708984h0Z"/>
    <path class="st4" d="M258.940002,146.440002l3.359985-.119995-1.97998,2.759995M266.859985,138.220001l-.299988-.300003-.119995-.240005c-1.73999-2.269989-4.205994-6.794998-7.080017-7.679993l-.299988-.119995-.299988-.059998c-3.831024-.414001-10.956024,2.445999-13.619995,5.219986l-.480011.540009-.420013.660004-.359985.659988-.300018.720001c-1.096985,3.23201-2.014984,9.439011,1.320007,11.76001l.959991.720001c4.182007,2.496994,7.663025.776001,11.52002-1.440002l.839996-.419998.779999-.419998.959991-.540009.240021.419998-.960022.540009-.779999.419998-.839996.479996c-4.096985,2.141998-6.967987,3.886993-11.459991,1.680008l-.540009-.300003-.540009-.360001c-3.944-2.539001-3.264984-8.001999-2.220001-11.880005l.240021-.839996.359985-.779999.360016-.720001.47998-.660004c2.266022-3.166,10.042023-6.158005,13.800018-6l.720001.059998.359985.059998c3.227997.835999,5.796021,5.459,7.619995,7.980011l.180023.179993.119995.180008.119995.119995-.360016.360001Z"/>
    <path class="st4" d="M200.380005,150.039993l3.359985-.059998-1.919983,2.699997M208.359985,141.820007l-.47998-.480011c-1.600006-2.390991-4.237-6.798996-7.02002-7.73999l-.299988-.060013-.359985-.059998c-3.912018-.444992-10.813019,2.354004-13.559998,5.160004l-.480011.600006-.420013.599991-.359985.660004-.300018.779999c-1.141998,3.328995-2.021973,9.326004,1.320007,11.759995l.480011.360001.47998.300003c4.650024,2.531998,7.156006.826996,11.52002-1.37999l.839996-.420013.779999-.479996.959991-.479996.240021.419998-.960022.539993-.779999.420013-.839996.419998c-3.937988,2.125-7.13501,3.923996-11.459991,1.679993l-.540009-.300003-.540009-.360001c-3.970001-2.509995-3.230988-7.996994-2.279999-11.87999l.300018-.840012.359985-.719986.360016-.780014.47998-.659988c2.239014-3.098999,10.008026-6.192001,13.740021-5.940002l.779999.059998.359985.059998c3.239014.748001,5.786011,5.470001,7.619995,7.919998l.120026.240005.179993.119995.119995.180008-.360016.300003Z"/>
  </g>
</svg>