<?xml version="1.0" encoding="UTF-8"?>
<svg id="Layer_1" xmlns="http://www.w3.org/2000/svg" xmlns:xlink="http://www.w3.org/1999/xlink" version="1.1" viewBox="0 0 232 93">
  <!-- Generator: Adobe Illustrator 29.3.1, SVG Export Plug-In . SVG Version: 2.1.0 Build 151)  -->
  <defs>
    <style>
      .st0 {
        fill: none;
      }

      .st1, .st2, .st3 {
        font-family: TimesNewRomanPS-ItalicMT, 'Times New Roman';
        font-style: italic;
      }

      .st1, .st4 {
        font-size: 12.5431px;
      }

      .st2 {
        font-size: 11.4776px;
      }

      .st5 {
        font-size: 7.3167px;
      }

      .st5, .st6, .st4, .st7 {
        font-family: TimesNewRomanPSMT, 'Times New Roman';
      }

      .st6 {
        font-size: 6.6952px;
      }

      .st8 {
        fill: lime;
      }

      .st9 {
        clip-path: url(#clippath-1);
      }

      .st7, .st3 {
        font-size: 12.555px;
      }

      .st10 {
        fill: #f30;
      }

      .st11 {
        clip-path: url(#clippath);
      }
    </style>
    <clipPath id="clippath">
      <rect class="st0" x="208.880005" y="36.47998" width="5.160004" height="6.179993"/>
    </clipPath>
    <clipPath id="clippath-1">
      <rect class="st0" x="130.76001" y=".480042" width="5.160004" height="9.299988"/>
    </clipPath>
  </defs>
  <path class="st8" d="M214.880005,9.299988l3.600006,1.140015-3.059998,2.219971M7.460007,63l.119995-.900024c.220993-2.042969.720001-4.080994,1.740005-5.880005l.299988-.419983-.059998.179993.180008-.47998c.85199-2.575989,2.659988-4.775024,4.73999-6.47998l.480011-.300049c.119995-.059998.299988-.119995.419998-.059998l.299988.059998c.71701.133057,1.351013.288025,2.040009.540039l.240005.119995.059998.059998.23999.179993c.526001.491028,1.123001,1.38501,1.560013,1.97998l.359985.360046c.060013,0,.12001.119995.12001.179993l.179993.419983c1.416,3.130005,4.178009,6.054993,5.940002,9.059998l.059998.059998c.059998.059998.059998.119995.059998.119995l.240005.600037.180008.419983c2.158997,2.947998,1.918991,4.85199,2.939987,8.219971l.240005.840027.300003.839966c.992004,2.874023,2.548004,5.139038,5.699997,5.640015l1.080002.23999,1.020004.180054h-.12001l.480011-.060059c4.125-.432983,2.918991-.105957,6.179993-2.399963l.300003-.23999-.240005.299988.180008-.419983c.465988-1.132996.556-1.348999,1.37999-2.280029l.360001-.299988-.119995.23999.059998-.299988.059998-.23999c.159012-.532043.322998-1.026001.480011-1.559998l.059998-.23999.059998-.300049.119995-.359985.12001-.419983.119995-.359985.119995-.420044.12001-.359985.059998-.419983.179993-.540039v-.119995l.059998-.059998v-.119995l.060013-.059998v.059998l-.060013.119995-.059998-1.380005c-.104996-1.268005-.041992-3.300964-.300003-4.5l-.179993-.419983.059998.119995-.240005-.419983c-1.758987-2.013977-3.65799-3.953003-5.459991-5.940002l-.540009-.599976c-.119995-.060059-.119995-.120056-.179993-.240051l-.180008-.539978-.179993-.47998-.240005-.540039-.23999-.47998-.540009-1.02002-.599991-.899963c-.059998-.059998-.059998-.119995-.059998-.179993l-.180008-.600037c-.729004-2.862976.018005-5.697998,3-6.779968l.660004-.23999-.12001.059998.540009-.300049c2.291-1.723999,5.121994-.613953,7.679993-.47998h.420013c.059998,0,.119995,0,.119995.059998l.539993.179993c2.352005.914001,3.235001,3.210022,5.100006,4.799988l.419998.240051c.059998.119995.119995.179993.179993.299988l.060013.179993c.432999.914001,1,1.960999,1.619995,2.76001v.059998c.059998.059998.059998.119995.119995.179993l.360001,1.799988.419998,1.859985c1.028,3.808044,2.416,10.308044,6.180008,12.480042l.660004.419983.720001.47998c3.759979,2.048035,1.159988,2.390991,5.339996,4.080017l.419983.119995.420013.179993-.299988-.059998.47998-.059998c1.921021-.163025,3.054016-.817017,4.860016-1.320007l.779999-.299988-.179993.119995.419983-.419983c.718018-.872009,1.669006-1.51001,2.580017-2.160034l.539978-.299988-.179993.179993.359985-.539978.420013-.539978.779999-1.02002.839996-1.02002.360016-.539978.359985-.47998-.059998.119995.179993-.720032c.411011-1.094971.27002-2.310974,0-3.419983l-.179993-.720032c-.059998-.119995-.059998-.179993,0-.299988l.059998-.299988.059998-.299988.119995-.23999.059998-.240051.120026-.23999.119995-.23999c.059998,0,.059998-.059998.059998-.059998l.23999-.299988c.059998,0,.059998-.059998.119995-.059998l.300018-.23999h.059998l.359985-.179993.300018-.120056.23999-.119995.23999-.059998.300018-.119995-.360016.420044.119995-.420044v-.599976.059998l-.059998-.299988c-.242981-1.028992-1.578003-2.242004-1.97998-3.179993l-.180023-.420044c-.059998-.119995-.059998-.299988,0-.419983l.240021-.599976c3.121002-5.843018,10.718994-1.240051,14.519989,1.139954l.360016.240051-.120026-.059998.240021.119995h-.059998l.47998.119995.300018.059998c.119995.059998.179993.119995.23999.179993l.23999.23999.120026.179993.179993.119995.119995.119995.119995.179993.119995.119995h.059998l.120026.060059.539978.359985c.669006.417969,1.319.844971,1.980011,1.26001l.059998.059998h.059998l.179993.179993.240021.47998.23999.539978v.059998l.119995.420044.119995.539978c.097015,1.390991-.30899,2.632996-.299988,3.960022v.47998l.059998.419983c.338013,1.684998,1.268005,2.346008,2.100006,3.780029l.299988.539978.23999.600037c.060028.119995.060028.179993.060028.299988l-.060028.719971c.016998,4.085999-3.080994,5.330994-5.339996,8.160034l-.23999.359985.059998-.119995-.23999.779968-.240021.780029-.539978,1.559998.059998-.23999v.539978c-.109009,3.264008.044006,4.90802,3.47998,5.700012l.600006.23999-.179993-.059998.899994-.059998c3.480011-.042999,7.278015-.600006,10.559998-1.73999l.839996-.300018-.299988.240021.23999-.360016c.946014-1.238007,1.26001-2.421967,1.619995-3.899994l.120026-.419983s.059998-.059998.059998-.119995l.059998-.119995c.059998,0,.059998-.059998.119995-.119995l.119995-.060059c0-.059998.059998-.119995.119995-.119995l.119995-.059998h.120026l.119995-.059998.419983-.059998.300018-.059998h.119995l.720001-.179993,1.079987-.23999.420013-.059998.23999-.059998.119995-.059998h.180023l.119995-.059998h.059998l-.360016.23999.240021-.299988c.850983-1.591003,1.161987-3.465027,1.559998-5.220032l.179993-.839966v.179993l-.119995-.960022c-.434021-2.731995.550995-6.268005-1.740021-8.339966l-.059998-.059998c-.119995-.119995-.179993-.360046-.119995-.540039l.179993-.539978c.157013-.966003.636017-1.949036.420013-2.940002l-.059998-.299988v.059998l-.119995-.359985c-.424011-.808044-.696991-.965027-1.440002-1.5l-.540009-.360046c-.059998-.059998-.119995-.119995-.119995-.179993l-.23999-.419983c-1.012024-1.760986-.602997-3.965027-1.559998-5.76001l-.240021-.359985q-.059998-.059998-.059998-.119995l-.23999-.540039-.179993-.539978-.480011-.840027-.23999-.359985-.300018-.359985-.839996-.599976c-.059998-.059998-.119995-.120056-.179993-.240051l-.360016-.839966c-.731995-1.55603-1.720978-2.978027-2.399994-4.559998l-.359985-.840027c-.059998-.119995-.059998-.179993-.059998-.299988l.119995-.719971.119995-.780029c.809998-4.278015,3.286987-7.916016,4.619995-12l.179993-.539978.300018-.540039c1.134979-2.024963,4.041992-3.419983,6.059998-4.26001l.419983-.179993.360016-.119995c.119995,0,.179993-.059998.23999-.059998l2.279999.179993c3.815002.220032,3.667999.679016,6.960022,2.100037l.599976.23999c.059998,0,.120026,0,.180023.059998l.599976.47998c1.205017.90802,2.745026,2.559021,3.540009,3.840027l.480011.659973c.059998.119995.059998.179993.059998.23999l.119995.720032c.194,1.262024.415009,2.007019,1.619995,2.52002l.300018.179993c.179993.059998.299988.179993.299988.299988l.179993.47998c.733002,1.81604.751007,4.083984,2.880005,4.859985l.480011.180054c.119995.059998.23999.179993.299988.359985l.119995.299988c.649994,1.757996,1.007019,3.711975,2.279999,5.159973l.240021.180054-.059998-.059998.23999.179993-.059998-.059998.23999.119995.179993.059998.240021.059998.539978.119995.240021.059998.299988.119995c.119995,0,.179993.059998.23999.119995l.660004.660034.600006.659973.600006.719971.359985.360046.300018.419983c.059998.059998.059998.179993.059998.299988l.059998,1.02002c.028992,3.641968-1.041016,7.969971,1.019989,11.159973l.240021.360046c0,.059998.059998.119995.059998.179993l.119995.539978c.335999,2.323975-.483002,4.005981-.179993,6.179993l.119995.47998-.059998-.059998.23999.480042.059998.179993.119995.179993.179993.179993.120026.179993.23999.179993.179993.119995c.059998.059998.119995.119995.179993.180054l.480011.719971.540009.719971c.825989,1.162048,2.816986,2.810059,4.259979,3.180054l.180023.059998.23999.119995c.889008.195007,1.848999.527954,2.76001.779968h.119995l.059998.059998c.119995,0,.179993.059998.23999.059998l.420013.360046c1.609009,1.686951,2.842987,1.677979,5.040009,2.279968l.539978.119995-.119995-.059998h1.200012c5.957001-.138977,12.036987.614014,17.940002-.179993l1.139984-.179993-.23999.119995.419983-.299988c.697998-.588013,1.249023-1.308044,1.980011-1.859985l.420013-.300049-.120026.179993.180023-.359985c.358002-.399963.579987-.894958.899994-1.320007l.359985-.419983s.059998,0,.059998-.059998l.360016-.299988c.44101-.315002.924988-.54303,1.440002-.720032l.419983-.119995-.179993.059998.420013-.23999c1.554993-1.330017,2.106995-2.403015,2.940002-4.26001l.299988-.779968-.059998.299988-.119995-.47998c-.450012-2.255005-.457001-2.737.359985-4.920044l.180023-.47998.419983.780029-.179993-.059998h-.179993l-.360016-.060059h-.179993l-.23999-.059998q-.060028,0-.120026-.059998l-.179993-.059998h-.059998l-.179993-.119995s-.059998-.059998-.059998-.119995l-.119995-.059998c-.059998-.059998-.059998-.119995-.120026-.179993v-.119995q-.059998-.059998-.059998-.119995v-.119995l-.059998-.23999v-.300049.120056-.120056.120056l-.059998-.120056.119995.120056-.119995-.120056.059998.059998-.119995-.059998-.23999-.179993-.240021-.119995-.299988-.179993c-.059998,0-.059998-.059998-.119995-.059998l-.23999-.23999-.300018-.23999-.23999-.299988-.179993-.240051-.420013-.539978-.359985-.599976c-.120026-.119995-.120026-.300049-.059998-.480042l.059998-.299988c.135986-.862,1.182983-2.187988,1.73999-2.880005l.299988-.47998-.059998.299988.059998-1.799988c.01001-8.072998.602997-7.364014,4.26001-13.919983l.23999-.420044.300018.840027-.240021-.119995h-.179993l-.47998-.119995-.300018-.059998-.299988-.119995s-.059998-.059998-.119995-.059998l-.180023-.120056c-.059998-.059998-.059998-.119995-.119995-.119995l-.119995-.179993c0-.059998-.059998-.119995-.059998-.179993l-.23999-.599976c-.555023-2.14801-.146027-2.092041-.180023-3.960022l-.059998-.23999.059998.119995-.119995-.299988.059998.059998-.179993-.299988c-.283997-.330017-.410004-.325012-.660004-.600037l-.23999-.119995c-.059998-.059998-.119995-.119995-.119995-.179993l-.300018-.419983-.23999-.299988-.179993-.300049-.300018-.599976-.119995-.119995-.059998-.059998c-.097992-.267029-.315002-.289001-.540009-.419983l-.179993-.180054-.299988-.179993c-.119995-.059998-.180023-.179993-.240021-.299988l-.23999-.659973c-.658997-1.54303-1.112-2.384033-2.040009-3.780029l-.419983-.599976c-.059998-.059998-.119995-.119995-.119995-.23999l-.120026-.720032c-.306976-1.526001-.195984-2.565979-1.439972-3.599976l-.300018-.179993c-.119995-.119995-.23999-.300049-.23999-.480042.059998-.179993.119995-.359985.299988-.47998l.960022-.539978c5.768982-3.165039,11.747986-1.454041,16.919983-4.860046l.660004-.359985h.119995l1.200012-.419983.299988,1.080017-1.199982.359985h.119995l-.660004.359985-.360016.179993-.359985.23999-.420013.240051-.47998.23999-.839996.359985-2.340027.719971-.119995.059998h-.23999l-.179993.059998h-.240021l-.299988.060059c-3.527008.647949-6.56601.75-10.019989,2.159973l-.960022.47998-.959991.600037v-.960022l.360016.23999c1.35498,1.148987,1.663971,2.528015,1.799988,4.26001l.119995.720032-.059998-.240051.420013.600037c.845978,1.295959,1.646973,2.638,2.220001,4.079956l.23999.660034-.23999-.299988.299988.23999c1.322998.65802,1.149994,1.208984,1.980011,2.279968l.23999.420044-.119995-.179993.23999.179993c.746002.507996.696991.618958,1.200012,1.320007l.059998.299988q.059998.059998.059998.119995l.059998.359985c.015991,1.517029-.321014,2.02301.119995,3.660034l.23999.599976-.059998-.119995.119995.179993-.179993-.119995.179993.119995-.119995-.059998.180023.059998.179993.059998.539978.059998.300018.059998.23999.119995c.179993.059998.300018.179993.360016.299988.059998.179993.059998.360046-.059998.480042l-.240021.419983c-3.514984,6.575012-4.069977,5.333984-4.079987,13.380005l-.119995,1.859985c0,.059998,0,.179993-.059998.23999l-.360016.540039c-.570007.803955-1.322998,1.529968-1.559998,2.519958l-.059998.300049-.119995-.480042.23999.359985c.462006.614014.472992.844055,1.080017,1.380005l.299988.240051-.059998-.060059.179993.120056.360016.179993.299988.23999.119995.059998c.059998,0,.059998.059998.059998.059998l.119995.119995c.059998,0,.059998.059998.120026.119995l.059998.119995s0,.059998.059998.119995v.119995c0,.059998.059998.059998.059998.119995v.540039-.119995l.059998.119995-.119995-.179993.119995.119995-.119995-.119995.119995.119995-.059998-.059998.119995.059998h-.059998.119995l.119995.059998h.420013l.23999.059998h.179993c.180023.059998.300018.119995.420013.299988.059998.119995.059998.299988,0,.419983l-.179993.540039c-.152008.643982-.365021.95697-.480011,1.619995l-.059998.539978v-.119995.47998c-.005005.414001.195984,1.337036.299988,1.73999l.119995.480042c0,.119995,0,.23999-.059998.299988l-.299988.900024c-.60199,1.592957-1.912994,3.648987-3.299988,4.679993l-.420013.23999-.119995.119995-.360016.059998c-.376984.098999-.824982.440002-1.139984.539978l-.360016.360046.059998-.059998-.299988.299988c-.209991.416016-.566986.674011-.839996,1.26001l-.23999.359985c0,.059998-.059998.119995-.120026.119995l-.359985.299988c-.598999.289978-1.420013,1.531982-2.040009,1.859985l-.419983.300049c-.059998.059998-.180023.059998-.240021.119995l-1.199982.179993c-5.998016.730957-12.041992.102966-18.059998.119995l-1.200012.059998h-.119995l-.540009-.119995c-1.931-.419983-4.147003-.867004-5.459991-2.460022l-.480011-.359985.180023.119995-.060028-.059998h-.119995c-.899994-.254028-1.878998-.565002-2.759979-.780029l-.240021-.119995-.299988-.059998c-1.862-.677002-3.464996-1.979004-4.679993-3.539978l-.600006-.780029-.540009-.779968.119995.119995-.23999-.179993c-2.701996-2.078003-.850006-5.780029-1.200012-8.580017l-.119995-.539978.059998.179993-.23999-.359985c-2.311005-3.78302-1.143005-7.606018-1.200012-11.76001v-.960022l.059998.299988-.23999-.359985-.299988-.359985-.540009-.660034-.660004-.659973-.600006-.659973.240021.119995-.480011-.119995-.899994-.180054-.300018-.119995-.23999-.119995q-.059998,0-.059998-.059998l-.23999-.119995c-.059998,0-.059998-.059998-.059998-.059998l-.360016-.299988c-1.507996-1.687012-1.735992-3.541992-2.519989-5.460022l-.119995-.359985.359985.359985-.600006-.23999c-2.497986-1.296021-2.582977-2.998962-3.359985-5.459961l-.179993-.540039.299988.359985-.359985-.179993c-1.485016-.594971-2.059021-1.817993-2.220001-3.359985l-.120026-.719971.059998.23999-.419983-.660034c-.858002-1.156006-2.130005-2.789001-3.299988-3.599976l-.660004-.47998.179993.059998-.720001-.240051c-2.852997-1.219971-3.248016-1.984985-6.600006-1.97998l-2.220001-.179993h.23999l-.359985.119995-.420013.119995c-1.845978.85498-4.301971,1.923035-5.459991,3.720032l-.47998.959961c-1.194,4.197998-3.732025,7.291992-4.5,11.880005l-.120026.660034-.119995.779968-.059998-.299988.360016.779968c.708984,1.781006,1.692993,2.934021,2.459991,4.620056l.299988.839966-.179993-.23999.540009.359985c.988983.872986,1.401978,1.624023,1.919983,2.820007l.180023.539978-.060028-.059998.300018.420044c1.122009,1.738953.647003,3.953979,1.559998,5.76001l.23999.359985-.179993-.179993.600006.419983.47998.359985.780029.780029.299988.419983.179993.419983.179993.359985v.120056l.120026.419983c.069977,1.299988-.213013,2.117981-.480011,3.359985l-.179993.539978-.119995-.539978.059998.059998.059998.059998.059998.119995.23999.23999.23999.300049.480011.719971.23999.419983.059998.240051.060028.179993c.521973,2.166992.424988,3.669006.539978,5.820007l.059998.899963.119995.960022c0,.059998,0,.119995-.059998.179993l-.179993.839966c-.440002,2.213013-.701996,3.496033-1.679993,5.580017l-.23999.299988c-.120026.179993-.240021.240051-.360016.300049h-.179993l-.179993.059998h-.180023l-.179993.059998-.419983.119995-.540009.119995-.480011.059998-.539978.119995-.480011.119995-.300018.059998h-.23999l-.179993.059998.119995-.059998-.119995.059998.119995-.059998-.119995.059998.119995-.119995-.059998.119995.059998-.119995-.119995.359985c-.363007,1.497986-.804993,3.04303-1.799988,4.26001l-.240021.360016c-.059998.059998-.119995.119995-.23999.179993l-.839996.299988c-3.692993,1.220001-7.027008,1.601013-10.860016,1.800018l-.899994.059998h-.23999l-.600006-.240021c-3.834991-.924988-4.453003-3.009979-4.200012-6.720001l-.059998-.47998c0-.119995,0-.179993.059998-.23999l.960022-3.119995c0-.059998.059998-.119995.059998-.119995l.359985-.480042c1.832001-2.544983,5.244019-3.924988,5.040009-7.559998l.119995-.719971v.299988l-.179993-.539978c-3.984009-5.706055-2.182007-4.162048-2.399994-9.960022l-.120026-.419983.060028.059998-.180023-.420044-.23999-.419983.179993.179993h-.059998c-1.20401-.912964-2.713989-1.484009-3.660004-2.700012l-.23999-.179993.23999.119995-.179993-.059998-.299988-.059998-.240021-.059998s-.059998,0-.059998-.059998l-.23999-.059998q-.059998-.059998-.119995-.059998l-.360016-.23999c-2.623993-1.823975-10.61499-6.565002-12.779999-1.619995l-.23999.539978v-.419983l.119995.299988c.733002,1.655029,2.571991,2.736023,2.100006,4.799988l-.059998.420044c-.059998.179993-.179993.359985-.360016.419983l-.299988.059998-.23999.119995-.240021.059998-.179993.059998-.420013.179993h.120026l-.300018.179993.059998-.059998-.23999.240051.059998-.059998-.059998.119995-.059998.179993-.179993.359985-.059998.23999-.059998.299988v-.23999l.179993.780029c.462982,1.221008.337982,2.784973,0,4.019958l-.179993.660034c0,.059998-.060028.119995-.060028.179993l-.419983.599976-.420013.480042-1.559998,2.039978-.359985.47998-.360016.600037c-.059998.059998-.119995.119995-.23999.179993l-.480011.23999c-.90799.518005-1.681976,1.229004-2.399994,1.97998l-.419983.420044c-.060028.059998-.120026.119995-.180023.119995l-.839996.299988c-1.600006.609985-3.399994,1.237-5.100006,1.440002l-.419983.059998c-.119995,0-.179993,0-.300018-.059998l-.419983-.119995-.480011-.179993c-4.302994-1.90802-2.071991-1.963013-4.73999-3.720032l-.720001-.47998-.720001-.419983c-4.641998-2.462036-6.175003-8.963013-7.320007-13.620056l-.419998-1.859985-.419998-1.799988.12001.179993h-.060013v-.059998c-.639999-.822998-1.25-1.994995-1.679993-2.940002l-.119995-.23999.23999.299988-.479996-.359985c-1.751007-1.377014-2.682999-3.655029-4.740005-4.619995l-.539993-.179993.179993.059998-.479996-.059998c-2.263.033997-5.035004-1.184021-6.959991.359985l-.540009.299988c-.059998,0-.119995.059998-.119995.059998l-.540009.179993c-2.455994.845032-2.985001,3.140015-2.399994,5.460022l.179993.599976-.059998-.119995.600006.960022.599991,1.080017.720001,1.619995.180008.539978-.119995-.179993.599991.599976c1.787994,2.028015,3.862,4.109009,5.580002,6.119995l.240005.420044q.059998.059998.059998.119995l.179993.47998c.333008,1.449036.248001,3.247009.360001,4.73999l.059998,1.380005v.179993l-.059998.059998c-.138.901001-.524994,1.934998-.779999,2.820007l-.059998.360046-.119995.299988c-.156006.612976-.341003,1.208984-.540009,1.799988l-.059998.23999-.059998.299988c-.059998.119995-.119995.179993-.180008.23999l-.299988.300049c-.493011.539001-.943008,1.141968-1.139999,1.859985l-.180008.419983c0,.119995-.119995.23999-.179993.299988l-.360001.179993c-3.26001,2.536011-2.643005,2.154053-6.660004,2.640015h-.660004l-2.160004-.359985c-3.224991-.659973-4.960999-2.585022-6.23999-5.580017l-.300003-.839966-.300003-.900024c-1.069-3.143982-.998993-6.169983-3.119995-8.820007l-.240005-.599976-.179993-.540039.059998.060059h-.059998l-.059998-.060059c-.362-.712952-.837006-1.34198-1.320007-1.97998l-.300003-.47998-.179993-.23999c-1.270996-1.862-3.134003-4.124023-4.020004-6.119995l-.240005-.420044-.119995-.47998.119995.23999-.419998-.419983c-.412994-.388977-1.034988-1.528992-1.440002-1.799988l-.179993-.179993.059998.059998-.179993-.119995c-.343002-.187012-1.304001-.379028-1.740005-.480042l-.300003-.059998.419998-.059998-.419998.23999c-1.975998,1.416992-3.503998,3.647034-4.440002,5.880005l-.119995.480042c-.059998.059998-.059998.119995-.059998.179993l-.240005.359985c-1.136002,1.823975-1.339996,3.369019-1.679993,5.399963l-.059998.900024-1.139999-.119995Z"/>
  <g>
    <text class="st7" transform="translate(222.919922 48)"><tspan x="0" y="0">)</tspan></text>
    <text class="st7" transform="translate(214.519531 48)"><tspan x="0" y="0">(</tspan></text>
    <text class="st3" transform="translate(218.65918 48)"><tspan x="0" y="0">t</tspan></text>
    <text class="st3" transform="translate(208.219727 48)"><tspan x="0" y="0">x</tspan></text>
  </g>
  <g class="st11">
    <polygon points="212.269867 40.838867 212.520966 40.186035 208.880005 40.186035 208.880005 39.734009 212.520966 39.734009 212.269867 39.081177 214.027557 39.960022 212.269867 40.838867"/>
  </g>
  <g>
    <polyline class="st10" points="112.940002 27.179993 124.940002 33.179993 124.640015 33.840027 112.640015 27.840027"/>
    <text class="st6" transform="translate(132.019531 41.819824)"><tspan x="0" y="0">1</tspan></text>
    <text class="st2" transform="translate(129.139648 38.939941)"><tspan x="0" y="0">t</tspan></text>
    <path class="st10" d="M125.23999,11.700012l2.52002-2.220032.23999,3.360046M124.640015,15.900024l1.199982-2.76001.660004.299988-1.200012,2.76001-.659973-.299988ZM122.540009,20.700012l1.199982-2.76001.720001.299988-1.199982,2.76001-.720001-.299988ZM120.5,25.559998l1.200012-2.76001.659973.299988-1.139984,2.76001-.720001-.299988ZM118.459991,30.359985l1.140015-2.76001.720001.300049-1.200012,2.759949-.660004-.299988Z"/>
    <text class="st4" transform="translate(148.099609 15.120117)"><tspan x="0" y="0">)</tspan></text>
    <text class="st4" transform="translate(136.399414 15.120117)"><tspan x="0" y="0">(</tspan></text>
    <text class="st5" transform="translate(143.599609 18.240234)"><tspan x="0" y="0">1</tspan></text>
    <text class="st1" transform="translate(140.540039 15.120117)"><tspan x="0" y="0">t</tspan></text>
    <text class="st1" transform="translate(130.100586 15.120117)"><tspan x="0" y="0">x</tspan></text>
    <path d="M133.949829,4.033203c0,.418213-.209137.627136-.627167.627136-.418243,0-.627167-.208923-.627167-.627136,0-.200684.058411-.355347.175629-.464111.117004-.108582.267517-.163025.451538-.163025.183838,0,.334351.058594.451538.175598.117004.117188.175629.2677.175629.451538Z"/>
  </g>
  <g class="st9">
    <polygon points="134.146637 7.958008 134.397522 7.305786 130.76001 7.305786 130.76001 6.854248 134.397522 6.854248 134.146637 6.202026 135.902679 7.080017 134.146637 7.958008"/>
  </g>
  <path class="st8" d="M214.880005,9.299988l3.600006,1.140015-3.059998,2.219971M7.460007,63c.297533-2.483382.68634-5.109981,2.159988-7.200012l-.059998.179993c.937869-2.897688,2.872774-5.547559,5.399977-7.260056.983885-.127655,2.163849.278886,3.060029.720078.860118.594763,1.390827,1.81215,2.159988,2.52002,1.559068,3.798508,5.119858,7.046905,6.780213,10.859879,3.999667,5.800506,1.7622,15.545849,11.2798,15.960129h-.12001c4.096413-.378905,3.800484-.276025,6.960007-2.700012l-.240005.299988c.531467-1.267586.819301-2.108119,1.919998-3l-.119995.23999c.449634-1.889999,1.152278-3.750311,1.559998-5.640015l.059998-.059998v-.119995l.060013-.059998c.01541.044114-.040547.14295-.060013.179993-.21555-1.936396.104419-4.486796-.539993-6.299988l.059998.119995c-1.831811-2.807653-5.018658-4.828611-6.60023-7.73983-.414906-1.145767-1.097837-2.420867-1.799763-3.420145-1.242983-3.222963-.231057-6.90356,3.419998-7.799986l-.12001.059998c2.577311-2.068023,5.882319-.947612,8.76001-.720032,2.870959.689804,3.730507,3.724288,6.059998,5.220032.542862,1.064128,1.104495,2.294293,1.860001,3.23999v.059998c.059998.059998.059998.119995.119995.179993,1.348389,5.744638,2.403071,14.09926,8.339931,17.039937,3.582323,2.033475,1.852497,3.093083,6.180074,4.380046l-.299988-.059998c2.276386-.187175,4.000467-.959777,6.119995-1.679993l-.179993.119995c1.025934-1.124435,2.194527-2.153516,3.539978-2.880005l-.179993.179993c.916682-1.38655,2.181874-2.769317,3.119995-4.139954l-.059998.119995c.583685-1.583103.512398-3.267506-.000161-4.860055-.073889-.616729.282855-1.300054.54017-1.859977.059998,0,.059998-.059998.059998-.059998l.23999-.299988c.059998,0,.059998-.059998.119995-.059998l.300018-.23999c.477895-.177075,1.004384-.446563,1.5-.600037l-.360016.420044c.111596-.237529.139633-.761432.119995-1.02002v.059998c-.132594-1.548198-2.290795-2.781636-2.220139-4.319977,2.702642-6.791709,11.17484-1.830875,15.120163.779999l-.120026-.059998.240021.119995h-.059998c.288322.10454.826264.107084,1.019988.359969.294136.316808.623358.630064.899995.959977.938799.487167,1.869116,1.161505,2.76001,1.740051h.059998c.310327.262864.481639.84733.660004,1.199951.680335,1.953468-.318594,3.931359-.000028,5.880017.388739,2.024367,1.994356,2.999348,2.639983,4.920049.623074,4.621317-3.171528,6.359051-5.579958,9.539961l.059998-.119995c-.257627.877626-.706385,2.249552-1.019989,3.119995l.059998-.23999c-.281485,3.69499.229408,5.656172,4.079987,6.47998l-.179993-.059998c4.099274-.10618,8.463359-.601564,12.299988-2.100006l-.299988.240021c1.242212-1.485604,1.511191-3.164337,2.100006-4.919983.064776-.010592.131258-.163955.23999-.180054.204445-.299617.955659-.28933,1.319961-.360085.904924-.24935,2.055165-.443951,2.940048-.659873l-.360016.23999c1.264332-1.821989,1.439623-4.243548,1.980011-6.359985v.179993c-.685493-3.043337.638231-7.022912-1.919905-9.360009-.355138-1.332625.97096-2.879057.419905-4.319983v.059998c-.31237-1.125341-1.174606-1.594457-2.100014-2.220027-1.525859-2.192183-.897629-5.167104-2.46021-7.379905-.198044-.716772-.718582-1.542336-1.199768-2.100095-.128815-.202841-.980701-.557601-1.01989-.8401-.743815-2.471522-3.280789-4.625128-3.060511-7.259755.780315-4.937175,3.57706-9.219433,5.220112-13.860258,1.405186-2.32754,4.661975-3.78586,7.080213-4.619986,4.342284.134593,7.075456.8258,10.620069,3.060228,1.488722,1.179362,3.256161,3.050838,4.080093,4.739802.25429,2.402924.590655,2.477988,2.34016,3.719841.876526,1.917344.772409,4.48721,3.059702,5.340233,1.991779,1.108927,1.352263,4.780212,3.420054,6.180031l-.059998-.059998.23999.179993-.059998-.059998c.408614.238609.990794.292747,1.440002.419986.991391.338181,1.696427,1.539107,2.40007,2.279887,2.265295,2.68726-1.240451,9.718348,2.039933,13.620134.813273,2.579008-.545326,4.9041.119995,7.379944l-.059998-.059998c.137187.222789.268836.636919.419976.840049.248633.327508.601347.564746.900056.839947,1.70484,3.165255,5.123503,4.990473,8.579961,5.580014l.059998.059998c.119995,0,.179993.059998.23999.059998,1.777138,1.922078,3.509239,2.189905,6,2.76001l-.119995-.059998c6.739404-.201068,13.615839.757943,20.279999-.359985l-.23999.119995c1.047625-.695065,1.747311-1.791366,2.820007-2.460022l-.120026.179993c.420988-.72139.889833-1.464402,1.440002-2.099976,0,0,.059998,0,.059998-.059998.6173-.567261,1.410941-.932889,2.220001-1.140015l-.179993.059998c2.010667-1.272726,2.791245-3.12768,3.660004-5.279968l-.059998.299988c-.640198-2.399062-.544208-3.572973.420013-5.880005l.419983.780029c-.547502-.13303-.932164-.08021-1.5-.300049-.081766-.068944-.224759-.101002-.23999-.23999-.131971-.035624-.170389-.14445-.240021-.23999v-.119995c-.117064-.204531-.112797-.540819-.119995-.780029v.120056-.120056.120056l-.059998-.120056.119995.120056-.119995-.120056.059998.059998c-.273798-.169334-.616145-.381409-.899994-.539978-.059998,0-.059998-.059998-.119995-.059998-3.053388-2.665307-1.565064-3.566669.299988-6.299988l-.059998.299988c-.11905-8.173385.510528-9.5914,4.559998-16.140015l.300018.840027c-.490014-.228446-1.140116-.198163-1.619995-.47998-.105834-.036081-.235949-.216123-.300018-.240051l-.119995-.179993c-.950268-2.052865-.359814-3.084333-.540009-4.97998l.059998.119995-.119995-.299988.059998.059998c-.255079-.602299-.871457-.753055-1.199982-1.200012-.359451-.474709-.790139-1.063155-1.019973-1.620022-.236664-.37015-.590119-.492743-.900123-.779918-.194729-.125547-.467709-.236275-.539897-.480101-.627717-1.741522-1.264495-2.905169-2.280012-4.439976-1.283552-1.560029-.325139-3.878293-2.1001-5.1599-2.640403-3.50036,15.795205-3.964518,17.639579-6.540214.456182-.325405,1.462586-.574645,1.980525-.779857l.299988,1.080017-1.199982.359985h.119995c-5.548548,3.88832-12.816234,2.022868-18.480011,5.76001v-.960022c1.88823,1.151155,2.014773,3.209172,2.279999,5.220032l-.059998-.240051c1.157679,1.653372,2.222722,3.423026,2.880005,5.340027l-.23999-.299988c1.424101.791531,1.700661,1.636181,2.519989,2.940002l-.119995-.179993c.759608.55825,1.242121.897039,1.5,1.799988.380224,1.674371-.420784,2.994833.47998,4.73999l-.059998-.119995.119995.179993-.179993-.119995.179993.119995-.119995-.059998c5.363693.429712-3.837876,4.737263-2.579549,14.940078-.021794.100993-.085702,2.067915-.180372,2.099903-.660539,1.112555-1.791823,2.017181-1.980069,3.360043l-.119995-.480042c.544743.761983.824544,1.410247,1.619995,1.980042l-.059998-.060059c.305233.194373.78134.435636,1.019989.660034l.119995.119995c.136025.049256.133638.219263.240021.359985.029702.159119.086636.574943.059998.780029v-.119995l.059998.119995-.119995-.179993.119995.119995-.119995-.119995.119995.119995-.059998-.059998.119995.059998h-.059998c.069624-.013481.183232.019441.239988.06002.245922-.03125.601896.058449.839996.06002,1.176115.401577-.489413,2.445669-.299986,3.419939v-.119995c-.055006.83486.211532,1.896361.420002,2.700012-.544724,2.324569-2.150816,4.938923-4.200001,6.239991-.685297.101547-1.410731.486571-1.860016.960022l.059998-.059998c-.529995.529386-.913417,1.190564-1.379974,1.919983,0,.059998-.059998.119995-.120026.119995-1.008676.649128-1.941991,2.070813-3.059998,2.580017-6.77225,1.116826-13.64889.100574-20.459993.359922-2.428837-.359298-4.894947-1.1054-6.600005-2.939939l.180023.119995-.060028-.059998c-3.830939-.650199-7.254815-2.629634-9.23999-6.059998l.119995.119995c-3.21991-2.130918-.805212-6.281676-1.559998-9.299988l.059998.179993c-2.775654-4.050526-1.242892-8.533373-1.440002-13.080017l.059998.299988c-.611984-.959863-1.585908-1.854141-2.339996-2.699951l.240021.119995c-.56859-.191937-1.535677-.208865-1.980011-.600037-.041449-.034909-.324261-.125831-.299988-.179993-1.896917-1.653092-2.116969-4.002703-3-6.119995l.359985.359985c-3.047675-1.041418-3.259962-3.541071-4.139984-6.23999l.299988.359985c-1.951907-.64278-2.536729-2.358475-2.700012-4.259949l.059998.23999c-1.096845-1.730257-2.66816-3.628631-4.379974-4.73999l.179993.059998c-3.455609-1.599452-5.518209-2.422767-9.540009-2.400024h.23999c-2.493634.897348-5.6583,2.271333-6.72,4.919902-1.36251,4.551096-4.262406,8.26335-4.739991,13.320088l-.059998-.299988c.855264,2.282393,2.350361,3.979675,3.119995,6.23999l-.179993-.23999c1.409003.868494,2.126347,2.188655,2.640015,3.719971l-.060028-.059998c1.589495,1.854842.763315,4.594677,2.100006,6.540039l-.179993-.179993c3.106608,1.829518,3.017522,4.099212,1.980011,7.199951l-.119995-.539978c.515364.61646,1.205981,1.366808,1.440016,2.160011.696474,2.761345.518335,5.287984.719957,8.040001-.664737,2.17912-.654095,5.766394-2.639595,7.0203-1.202334.302095-2.502636.547318-3.72039.779688l.119995-.059998-.119995.059998.119995-.059998-.119995.059998.119995-.119995-.059998.119995.059998-.119995c-.641476,1.929487-.995137,4.816203-3.239866,5.460101-5.767728,1.69582-18.161052,4.720801-16.800136-5.10023-.249024-.592923.866744-3.369361,1.019822-3.959863,2.110434-2.949125,5.784797-4.578705,5.520179-8.759993v.299988c-3.943505-5.991121-2.323373-4.892734-2.700012-10.919983l.060028.059998c-.080663-.220879-.293508-.641441-.420013-.840027l.179993.179993h-.059998c-1.335697-.92274-2.808557-1.6625-3.899994-2.880005l.23999.119995c-.216421-.11777-.629804-.073335-.779999-.23999l-.23999-.059998q-.059998-.059998-.119995-.059998c-2.869158-2.036411-11.439425-7.174385-13.380005-1.320007v-.419983c.742432,1.917886,2.894306,3.173522,2.159847,5.520044-.251111.657617-1.206653.545178-1.739864.899939h.120026l-.300018.179993.059998-.059998-.23999.240051.059998-.059998c-.16204.368866-.375266.791546-.419983,1.199951v-.23999c.624624,1.804475.60892,3.860781-.060028,5.640015-.47992.725667-1.883994,2.374791-2.399898,3.120022-.430814.52505-.709001,1.308469-1.440153,1.499887-1.171492.60963-2.018297,1.703777-2.999872,2.520193-1.896505.681993-3.930025,1.506738-5.940079,1.739889-.532194.161664-1.123843-.119093-1.62-.299995-4.302985-1.907998-2.071982-1.962991-4.739981-3.72001-6.84486-3.113852-8.056891-11.671569-9.600006-18.179993l.12001.179993h-.060013v-.059998c-.707626-.902703-1.312069-2.151202-1.799988-3.179993l.23999.299988c-2.200692-1.412453-3.147434-4.39385-5.759995-5.159973l.179993.059998c-2.670366-.092173-5.730576-1.280854-7.979921.600105-3.026909.681962-3.896799,3.595509-2.88008,6.299858l-.059998-.119995c.787796,1.195545,1.65876,2.831825,2.100006,4.200012l-.119995-.179993c2.109519,2.383675,4.702257,4.700639,6.480213,7.259829.694871,2.087838.406167,4.591529.599774,6.780149l-.059998.059998c-.399762,1.947983-1.1539,3.885229-1.619985,5.82001-.614744.753736-1.376809,1.412219-1.619951,2.40006-.140175.373427-.288998.799654-.720133.899839-3.230456,2.823572-5.339179,2.933171-9.480048,2.280299-8.075734-1.676626-6.578076-11.760279-10.379874-17.280213l.059998.060059h-.059998c-1.883669-3.248765-4.957238-6.272288-6.240005-9.780029l.119995.23999c-.728699-.601204-1.360169-1.852945-2.039993-2.399963l.059998.059998c-.518053-.37214-1.569076-.501778-2.220001-.660034l.419998-.059998c-2.321172,1.430145-4.148976,4.016832-4.979996,6.600037-.059998.059998-.059998.119995-.059998.179993-1.420629,2.080211-1.771103,4.237307-1.979996,6.659973l-1.139999-.119995Z"/>
</svg>