<?xml version="1.0" encoding="UTF-8"?>
<svg id="Layer_1" xmlns="http://www.w3.org/2000/svg" xmlns:xlink="http://www.w3.org/1999/xlink" width="343" height="224" version="1.1" viewBox="0 0 343 224">
  <!-- Generator: Adobe Illustrator 29.3.1, SVG Export Plug-In . SVG Version: 2.1.0 Build 151)  -->
  <defs>
    <style>
      .st0 {
        fill: none;
      }

      .st1, .st2, .st3 {
        fill: #33c;
      }

      .st2, .st3 {
        font-family: ArialNarrow, 'Arial Narrow';
      }

      .st2, .st4 {
        font-size: 9px;
      }

      .st3 {
        font-size: 7.98px;
      }

      .st5 {
        letter-spacing: 1.59909em;
      }

      .st6 {
        letter-spacing: 1.644003em;
      }

      .st7 {
        letter-spacing: 1.326987em;
      }

      .st8 {
        letter-spacing: 1.049009em;
      }

      .st9 {
        letter-spacing: 1.176954em;
      }

      .st10 {
        letter-spacing: .869973em;
      }

      .st11 {
        letter-spacing: .412041em;
      }

      .st4 {
        font-family: TimesNewRomanPS-ItalicMT, 'Times New Roman';
        font-style: italic;
      }

      .st12 {
        clip-path: url(#clippath-11);
      }

      .st13 {
        clip-path: url(#clippath-10);
      }

      .st14 {
        clip-path: url(#clippath-15);
      }

      .st15 {
        clip-path: url(#clippath-13);
      }

      .st16 {
        clip-path: url(#clippath-14);
      }

      .st17 {
        clip-path: url(#clippath-12);
      }

      .st18 {
        letter-spacing: -.000109em;
      }

      .st19 {
        clip-path: url(#clippath-1);
      }

      .st20 {
        clip-path: url(#clippath-3);
      }

      .st21 {
        clip-path: url(#clippath-4);
      }

      .st22 {
        clip-path: url(#clippath-2);
      }

      .st23 {
        clip-path: url(#clippath-7);
      }

      .st24 {
        clip-path: url(#clippath-6);
      }

      .st25 {
        clip-path: url(#clippath-9);
      }

      .st26 {
        clip-path: url(#clippath-8);
      }

      .st27 {
        clip-path: url(#clippath-5);
      }

      .st28 {
        letter-spacing: -.000061em;
      }

      .st29 {
        letter-spacing: -.000122em;
      }

      .st30 {
        letter-spacing: .001101em;
      }

      .st31 {
        letter-spacing: .00104em;
      }

      .st32 {
        letter-spacing: .000979em;
      }

      .st33 {
        letter-spacing: .003038em;
      }

      .st34 {
        letter-spacing: .00293em;
      }

      .st35 {
        letter-spacing: .002998em;
      }

      .st36 {
        letter-spacing: .002062em;
      }

      .st37 {
        letter-spacing: .001958em;
      }

      .st38 {
        letter-spacing: .001953em;
      }

      .st39 {
        letter-spacing: .002007em;
      }

      .st40 {
        letter-spacing: .002019em;
      }

      .st41 {
        letter-spacing: .000857em;
      }

      .st42 {
        letter-spacing: .000109em;
      }

      .st43 {
        letter-spacing: .000061em;
      }

      .st44 {
        letter-spacing: .000122em;
      }

      .st45 {
        fill: #f30;
      }

      .st46 {
        letter-spacing: -.023863em;
      }

      .st47 {
        letter-spacing: -.016888em;
      }

      .st48 {
        letter-spacing: -.004038em;
      }

      .st49 {
        letter-spacing: -.003977em;
      }

      .st50 {
        letter-spacing: -.009056em;
      }

      .st51 {
        letter-spacing: -.008933em;
      }

      .st52 {
        letter-spacing: -.009912em;
      }

      .st53 {
        letter-spacing: -.001085em;
      }

      .st54 {
        letter-spacing: -.00104em;
      }

      .st55 {
        letter-spacing: -.000977em;
      }

      .st56 {
        letter-spacing: -.003038em;
      }

      .st57 {
        letter-spacing: -.002984em;
      }

      .st58 {
        letter-spacing: -.002062em;
      }

      .st59 {
        letter-spacing: -.001958em;
      }

      .st60 {
        letter-spacing: -.001953em;
      }

      .st61 {
        letter-spacing: -.002007em;
      }

      .st62 {
        letter-spacing: -.002019em;
      }

      .st63 {
        letter-spacing: .024957em;
      }

      .st64 {
        clip-path: url(#clippath);
      }

      .st65 {
        letter-spacing: .031141em;
      }

      .st66 {
        letter-spacing: .011068em;
      }

      .st67 {
        letter-spacing: .01199em;
      }

      .st68 {
        letter-spacing: .010959em;
      }
    </style>
    <clipPath id="clippath">
      <rect class="st0" x="192.600006" y="41.179993" width="36.839996" height="5.220001"/>
    </clipPath>
    <clipPath id="clippath-1">
      <rect class="st0" x="145.140015" y="46.399994" width="4.26001" height="6.660004"/>
    </clipPath>
    <clipPath id="clippath-2">
      <rect class="st0" x="6.600006" y="133.399994" width="50.820007" height="3"/>
    </clipPath>
    <clipPath id="clippath-3">
      <rect class="st0" x="331.140015" y="46.399994" width="4.26001" height="6.540009"/>
    </clipPath>
    <clipPath id="clippath-4">
      <rect class="st0" x="192.600006" y="46.399994" width="36.839996" height="3.959991"/>
    </clipPath>
    <clipPath id="clippath-5">
      <rect class="st0" x="192.600006" y="133.279999" width="51.899994" height="3.119995"/>
    </clipPath>
    <clipPath id="clippath-6">
      <rect class="st0" x="6.600006" y="136.400009" width="50.820007" height="6.179993"/>
    </clipPath>
    <clipPath id="clippath-7">
      <rect class="st0" x="6.600006" y="136.400009" width="50.820007" height="6.179993"/>
    </clipPath>
    <clipPath id="clippath-8">
      <rect class="st0" x="6.600006" y="136.400009" width="50.820007" height="6.179993"/>
    </clipPath>
    <clipPath id="clippath-9">
      <rect class="st0" x="6.600006" y="136.400009" width="50.820007" height="6.179993"/>
    </clipPath>
    <clipPath id="clippath-10">
      <rect class="st0" x="6.600006" y="136.400009" width="50.820007" height="6.179993"/>
    </clipPath>
    <clipPath id="clippath-11">
      <rect class="st0" x="192.600006" y="136.400009" width="51.899994" height="6.059998"/>
    </clipPath>
    <clipPath id="clippath-12">
      <rect class="st0" x="192.600006" y="136.400009" width="51.899994" height="6.059998"/>
    </clipPath>
    <clipPath id="clippath-13">
      <rect class="st0" x="192.600006" y="136.400009" width="51.899994" height="6.059998"/>
    </clipPath>
    <clipPath id="clippath-14">
      <rect class="st0" x="192.600006" y="136.400009" width="51.899994" height="6.059998"/>
    </clipPath>
    <clipPath id="clippath-15">
      <rect class="st0" x="192.600006" y="136.400009" width="51.899994" height="6.059998"/>
    </clipPath>
  </defs>
  <text class="st4" transform="translate(83.459961 14.900391)"><tspan x="0" y="0">y</tspan></text>
  <g>
    <rect x="86.820007" y="15.199982" width=".420013" height="31.230011"/>
    <polyline class="st1" points="48.960007 92.720001 126.959991 5.720001 127.799988 6.5 49.800003 93.5"/>
    <polyline class="st1" points="105.300003 98.779999 69.300003 5.779999 70.380005 5.359985 106.380005 98.360001"/>
  </g>
  <g>
    <path class="st1" d="M77.639999,21.679993l-.539993,3.720001-2.700012-2.639984M74.639999,16.279999l2.100006,6.299988-1.080002.360016-2.100006-6.360016,1.080002-.299988Z"/>
    <text class="st2" transform="translate(6.600098 19.700195)"><tspan class="st55" x="0" y="0">Stab</tspan><tspan class="st61" x="15.146973" y="0">l</tspan><tspan class="st55" x="16.768066" y="0">e</tspan><tspan class="st67" x="20.86377" y="0"> </tspan><tspan class="st55" x="23.023926" y="0">Nod</tspan><tspan x="36.532227" y="0">e</tspan></text>
    <rect class="st1" x="6.600006" y="20.720001" width="40.559998" height=".660004"/>
    <text class="st3" transform="translate(6.600098 29.479492)"><tspan class="st32" x="0" y="0">(</tspan><tspan class="st62" x="2.186035" y="0">t</tspan><tspan class="st32" x="3.989746" y="0">wo</tspan><tspan class="st50" x="12.367676" y="0"> </tspan><tspan class="st31" x="14.115234" y="0">real</tspan><tspan class="st62" x="25.057617" y="0"> </tspan><tspan class="st32" x="26.861328" y="0">nega</tspan><tspan class="st62" x="41.450195" y="0">t</tspan><tspan class="st32" x="43.253906" y="0">ive</tspan><tspan x="51.643555" y="0"> </tspan></text>
    <text class="st3" transform="translate(6.600098 39.080078)"><tspan class="st40" x="0" y="0">e</tspan><tspan class="st32" x="3.655273" y="0">i</tspan><tspan class="st40" x="5.116699" y="0">gen</tspan><tspan class="st32" x="16.08252" y="0">v</tspan><tspan class="st40" x="19.363281" y="0">a</tspan><tspan class="st32" x="23.018555" y="0">l</tspan><tspan class="st40" x="24.47998" y="0">u</tspan><tspan class="st49" x="28.135254" y="0">e</tspan><tspan class="st31" x="31.742676" y="0">s</tspan><tspan x="35.023926" y="0">)</tspan></text>
  </g>
  <path class="st1" d="M95.460007,3.320007l.299988,3.359985c4.827011,47.145996-8.966995,51.246002-52.679993,54.540009l-3.779999.299988-.059998-1.139984,3.779999-.23999c43.080002-3.447021,56.421997-6.79303,51.599991-53.400024l-.299988-3.359985"/>
  <g>
    <path class="st1" d="M103.800003,35.059998l-3.540009,1.320007,1.080002-3.600006M107.160004,29.839996l-4.559998,4.860016-.779999-.720001,4.559998-4.920013.779999.779999Z"/>
    <path class="st1" d="M97.740005,22.339996l-1.740005,3.360016-1.619995-3.420013M96.720001,16.220001l-.119995,6.660004-1.139999-.059998.179993-6.660004,1.080002.059998Z"/>
  </g>
  <path class="st1" d="M83.160004,92.660004l-.300003-3.300003c-4.819-47.172989,8.904007-51.306015,52.680008-54.599991l3.779999-.240021.059998,1.080017-3.779999.299988c-43.075012,3.302002-56.432007,6.813995-51.600006,53.340012l.300003,3.360001"/>
  <g>
    <path class="st1" d="M115.020004,39.380005l-3.540009-1.200012,3.059998-2.160004M120.899994,37.339996l-6.599991.959991-.12001-1.079987,6.600006-.959991.119995,1.079987Z"/>
    <text class="st4" transform="translate(269.459961 14.780273)"><tspan x="0" y="0">y</tspan></text>
  </g>
  <rect x="272.820007" y="15.079987" width=".420013" height="31.350006"/>
  <g>
    <text class="st2" transform="translate(192.599609 19.580078)"><tspan class="st55" x="0" y="0">Spira</tspan><tspan class="st18" x="17.181641" y="0">l</tspan></text>
    <rect class="st1" x="192.600006" y="20.600006" width="18.779999" height=".660004"/>
    <text class="st3" transform="translate(192.599609 29.360352)"><tspan x="0" y="0">(two </tspan></text>
    <text class="st3" transform="translate(192.599609 38.959961)"><tspan class="st37" x="0" y="0">comp</tspan><tspan class="st59" x="16.066406" y="0">l</tspan><tspan class="st37" x="17.503906" y="0">ex</tspan><tspan x="24.448242" y="0"> </tspan></text>
  </g>
  <g class="st64">
    <text class="st3" transform="translate(192.599609 48.55957)"><tspan class="st37" x="0" y="0">e</tspan><tspan class="st32" x="3.655273" y="0">i</tspan><tspan class="st37" x="5.116211" y="0">gen</tspan><tspan class="st32" x="16.082031" y="0">v</tspan><tspan class="st37" x="19.363281" y="0">a</tspan><tspan class="st30" x="23.018555" y="0">l</tspan><tspan class="st37" x="24.480469" y="0">u</tspan><tspan class="st48" x="28.135742" y="0">e</tspan><tspan class="st41" x="31.743164" y="0">s</tspan><tspan class="st44" x="35.023438" y="0">;</tspan></text>
  </g>
  <path class="st1" d="M321.359985,65.359985l-1.619995,3.360016-1.799988-3.299988M272.519989,49.220001l.600006-1.320007.360016-.600006.23999-.23999.179993-.299988.420013-.420013.299988-.179993.23999-.179993h.120026l.179993-.120026h.119995l.179993-.059998h.480011l.179993.059998c.059998,0,.059998.060028.119995.060028l.240021.059998c1.529999.816986,4.276978,3.53598,4.679993,5.220001l.119995.419983v.899994l-.23999.839996-.180023.480011-.179993.420013c-1.395996,2.464996-3.093994,3.868988-6.059998,3.720001l-1.199982-.120026c-3.061005-.322998-6.752014-1.231995-8.220001-4.259979l-.180023-.360016-.119995-.419983-.059998-.480011-.059998-.419983c-.145996-2.570007,1.834015-7.841003,3.480011-9.720001l.359985-.480011.360016-.360016c2.448975-2.121979,5.298004-2.878998,8.459991-2.039978l.660004.179993.660004.23999.720001.240021.720001.299988.779999.360016.720001.359985c4.373993,2.207001,6.204987,4.432007,6.539978,9.359985l.059998,1.02002v1.079987c-.023987,3.749023-.315979,8.88501-3.779999,11.220001l-.539978.420013-.660004.359985-.600006.360016c-6.364014,3.375-19.632996.84198-23.040009-5.76001l-.23999-.540009-.299988-.599976-.240021-.660004-.179993-.660004-.23999-.720001-.059998-.360016c-2.654022-12.820984-1.795013-19.935974,11.879974-23.819977l.960022-.300018,1.019989-.179993,1.019989-.23999c5.515015-.950012,10.328003-1.184021,15.180023,2.039978l.899994.600006.839996.660004c4.783997,4.075012,7.61499,8.210999,8.279999,14.579987l.119995,1.140015.059998,1.140015.059998,1.199982v1.140015l-.059998,1.139984c-.612,14.452011-12.618988,16.028-24.23999,17.880005l-1.559998.119995-1.440002.12001-1.440002.059998c-3.962006.227997-8.167999-.645004-11.100006-3.479996l-.660004-.540009-.599976-.600006c-4.396027-4.912994-8.232025-8.924988-9.180023-15.660004l-.119995-1.019989-.059998-1.079987-.059998-1.140015-.059998-1.139984v-2.460022l.119995-1.259979.059998-1.26001.179993-1.26001.180023-1.259979c1.198975-6.94101,5.321991-11.052002,10.97998-14.820007l1.200012-.720001,1.199982-.660004c6.354004-3.446014,13.834015-4.127991,20.940002-3.899994l1.680023.119995,1.619995.179993,1.619995.23999,1.559998.300018c3.825012,1.019989,6.529999,2.634003,8.940002,5.820007l.480011.599976.899994,1.26001c2.958008,4.540009,6.825989,12.869995,7.919983,18.299988l.240021,1.920013.059998.959991v1.860016c-1.248016,14.042999.617981,17.154999-13.140015,23.039993l-.959991.360001-.959991.419998-1.920013.779999c-6.527008,2.414001-12.820984,4.382996-19.679993,5.460007l-1.26001.23999-1.199982.180008c-4.901001.662994-8.119019.330994-12.300018-2.220001l-.600006-.360001-.599976-.419998-.660004-.419998-.660004-.540009-.660004-.479996-1.440002-1.199997-.720001-.660004c-5.126007-4.582001-9.901001-9.996002-13.619995-15.779999l-.540009-.899994-.47998-.839996c-2.391022-4.233002-3.088013-8.216003-2.400024-13.02002l.119995-.839996.180023-.779999.119995-.839996.419983-1.559998c1.585022-5.480011,5.481018-13.36499,8.76001-18.119995l.720001-.839996.420013-.420013c2.792999-2.755981,7.014984-4.296997,10.73999-5.279999l.540009-.179993.599976-.119995,1.200012-.360016.660004-.119995c10.040009-2.424011,41.970001-9.446991,50.700012-3.059998l.779999.540009.659973.539978.660004.660004c4.040009,4.002014,5.054016,10.888,5.940002,16.200012l.360016,1.859985.359985,1.800018c2.106995,8.25,2.001007,16.979004,2.040009,25.440002v5.639984l-1.140015.059998v-5.699982c-.020996-7.518005.152008-16.058014-1.619995-23.400024l-.359985-1.799988-.420013-1.859985c-1.015991-5.465027-1.766998-13.253998-5.940002-17.460022l-.539978-.539978-.660004-.540009-.660004-.480011c-8.639008-6.112-40.013.837006-49.920013,3.179993l-.600006.180023-.659973.119995-.540009.179993-.600006.119995-.540009.180023c-3.300995.873993-7.257996,2.300995-9.839996,4.619995l-.720001.720001-.720001.779999c-1.220978,1.536987-2.411987,3.875-3.299988,5.639984l-.600006,1.080017-.600006,1.199982c-1.497986,2.723022-2.595978,5.34201-3.599976,8.279999l-.480011,1.559998-.360016,1.5-.179993.779999-.119995.779999c-2.906006,12.076019,9.541992,23.649017,17.279999,31.02002l.660004.599991.720001.540009.660004.479996,1.199982.959991.600006.360001.540009.360001c3.492004,2.100006,6.322998,2.631012,10.440002,2.220001l1.139984-.179993,1.200012-.180008c7.306-1.082993,13.753998-3.019989,20.700012-5.639999l1.919983-.720001.959991-.419998.900024-.360001c13.649994-6.002991,10.952972-8.028992,12.539978-22.019989v-.899994l-.119995-1.800018-.059998-.899994-.179993-.899994c-.843018-4.906006-4.442017-12.39502-6.899994-16.619995l-.779999-1.26001-.900024-1.200012c-2.273987-3.153992-4.927979-5.144989-8.759979-6l-1.5-.359985-1.559998-.23999-1.559998-.180023-1.680023-.119995c-6.375977-.089996-13.298004.372009-19.139984,3.179993l-1.200012.600006-1.199982.660004c-5.587006,3.363007-10.614014,7.985016-11.580017,14.76001l-.179993,1.259979-.179993,1.200012-.120026,1.200012-.059998,1.259979v3.480011l.120026,1.139984.059998,1.02002.119995.959991c.669983,6.065002,4.436005,10.04599,8.279999,14.459991l1.139984,1.140015c3.110016,3.061996,6.679016,3.968002,10.920013,3.720001l1.380005-.059998,1.440002-.12001,1.5-.119995c10.846985-1.705002,22.875-3.072006,23.279999-16.800003l.059998-1.079987v-1.140015l-.059998-1.079987-.059998-1.140015-.120026-1.139984c-.373993-5.384003-3.09198-9.608002-7.019989-13.140015l-.839996-.660004-.779999-.600006c-4.912994-3.67099-9.38501-3.440979-15.179993-2.519989l-1.02002.23999-1.919983.480011c-13.048004,3.708008-13.574005,10.217987-11.100006,22.440002l.059998.359985.179993.660004.240021.600006.179993.600006.23999.540009.300018.539978c3.142975,6.100006,15.746002,8.413025,21.47998,5.279999l.600006-.299988.540009-.299988.539978-.360016c2.749023-1.859009,3.208008-6.317993,3.300018-9.299988l.059998-1.080017-.059998-1.019989c-.230011-5.075012-1.352997-7.089996-5.940002-9.420013l-.720001-.359985-.720001-.300018-.660004-.299988-.720001-.23999-.600006-.240021c-7.752991-2.461975-11.528992,5.004028-11.879974,11.580017l.059998.299988.119995.360016.119995.299988c1.191986,2.472992,4.268005,3.149017,6.720001,3.600006l.540009.059998.599976.059998c2.85202.229004,4.176025-.626007,5.580017-3.059998l.179993-.359985.23999-.720001.060028-.300018v-.660004.119995-.299988c-.422028-1.36499-2.815002-3.890991-4.080017-4.5l-.23999-.119995.119995.059998-.23999-.059998h.119995-.240021.060028l-.180023.059998.059998-.059998-.179993.059998h.059998l-.119995.059998c-.723999.425995-1.07901,1.255005-1.440002,1.980011l-.299988.600006-1.02002-.420013Z"/>
  <g class="st19">
    <text class="st4" transform="translate(145.379883 50.900391)"><tspan x="0" y="0">x</tspan></text>
  </g>
  <rect x="86.820007" y="46.369995" width=".420013" height="49.830002"/>
  <rect x="33" y="50.720001" width="111" height=".420013"/>
  <g>
    <polyline class="st1" points="48.960007 92.720001 126.959991 5.720001 127.799988 6.5 49.800003 93.5"/>
    <polyline class="st1" points="105.300003 98.779999 69.300003 5.779999 70.380005 5.359985 106.380005 98.360001"/>
  </g>
  <g>
    <path class="st45" d="M86.160004,50.959991v-.059998l.059998.240021v-.060028l.119995.240021-.059998-.119995.180008.23999-.060013-.059998.240005.179993-.119995-.059998.23999.119995-.059998-.059998.240005.119995h-.119995.299988-.059998.300003-.119995l.299988-.119995-.119995.059998.240005-.119995-.059998.059998.179993-.179993-.059998.059998.179993-.23999-.059998.119995.12001-.240021v.060028l.059998-.240021v.059998-.299988.119995-.299988.119995l-.059998-.300018v.120026l-.12001-.240021.059998.059998-.179993-.179993.059998.059998-.179993-.179993.059998.059998-.240005-.119995h.059998l-.23999-.059998h.119995-.300003.059998-.299988.119995l-.240005.059998h.059998l-.23999.119995.119995-.059998-.240005.179993.060013-.059998-.180008.179993.059998-.059998-.119995.240021v-.120026l-.059998.300018v-.119995.299988-.119995M85.020004,50.779999v-.119995l.059998-.300018v-.059998l.119995-.299988v-.119995l.180008-.23999q0-.060028.059998-.120026l.179993-.179993q0-.059998.059998-.059998l.240005-.23999s.059998,0,.059998-.059998l.240005-.120026q.059998,0,.119995-.059998l.300003-.059998h.119995l.300003-.059998h.059998l.360001.059998h.059998l.300003.059998q.059998.059998.12001.059998l.23999.120026q.059998.059998.12001.059998l.179993.23999q.059998,0,.059998.059998l.180008.179993q.059998.059998.119995.120026l.119995.23999q0,.059998.059998.119995l.060013.299988v.059998l.059998.300018v.119995l-.059998.299988v.120026l-.060013.299988c-.059998,0-.059998.059998-.059998.119995l-.119995.23999c-.059998,0-.059998.060028-.119995.060028l-.180008.23999s0,.059998-.059998.059998l-.179993.179993q-.060013.059998-.12001.059998l-.23999.180023h-.12001l-.300003.119995h-.059998l-.360001.059998h-.059998l-.300003-.059998h-.119995l-.300003-.119995h-.119995l-.240005-.180023s-.059998,0-.059998-.059998l-.240005-.179993c-.059998,0-.059998-.059998-.059998-.059998l-.179993-.23999c-.059998,0-.059998-.060028-.059998-.060028l-.180008-.23999v-.119995l-.119995-.299988v-.120026l-.059998-.299988Z"/>
    <path class="st1" d="M95.520004,77.179993l.479996-3.779999,2.699997,2.700012M98.520004,82.580002l-2.160004-6.300003,1.080002-.360001,2.099991,6.360001-1.019989.300003Z"/>
    <text class="st4" transform="translate(83.459961 126.200195)"><tspan x="0" y="0">y</tspan></text>
  </g>
  <g>
    <rect x="86.820007" y="126.5" width=".420013" height="9.929993"/>
    <path class="st1" d="M123.899994,118.820007l3.480011-1.380005-.959991,3.599991M52.919998,203.059998l-3.539993,1.380005,1.019989-3.660004,2.520004,2.279999ZM50.880005,201.980003l74.220001-82.860008.839996.779999-74.220001,82.800003-.839996-.719994Z"/>
    <path class="st1" d="M69.479996,120.619995l.360001-3.779999,2.820007,2.580002M106.199997,206.120003l-.360001,3.719994-2.819992-2.519997,3.179993-1.199997ZM104.279999,207.440002l-33.959991-87.720001,1.079987-.419998,33.960007,87.719994-1.080002.420006Z"/>
    <path class="st1" d="M95.460007,3.320007l.299988,3.359985c4.827011,47.145996-8.966995,51.246002-52.679993,54.540009l-3.779999.299988-.059998-1.139984,3.779999-.23999c43.080002-3.447021,56.421997-6.79303,51.599991-53.400024l-.299988-3.359985"/>
  </g>
  <g>
    <text class="st2" transform="translate(6.600098 131)"><tspan class="st55" x="0" y="0">Un</tspan><tspan class="st39" x="9.412598" y="0">s</tspan><tspan x="13.12207" y="0">t</tspan><tspan class="st55" x="15.174316" y="0">ab</tspan><tspan class="st61" x="23.365234" y="0">l</tspan><tspan class="st55" x="24.986328" y="0">e</tspan><tspan class="st67" x="29.082031" y="0"> </tspan><tspan class="st55" x="31.242188" y="0">Nod</tspan><tspan x="44.750488" y="0">e</tspan></text>
    <rect class="st1" x="6.600006" y="132.019989" width="48.779999" height=".660004"/>
  </g>
  <g class="st22">
    <text class="st3" transform="translate(6.600098 140.780273)"><tspan class="st54" x="0" y="0">(</tspan><tspan class="st8" x="2.169922" y="0">t</tspan><tspan class="st9" x="12.36084" y="0"> </tspan><tspan class="st62" x="23.572754" y="0">l</tspan><tspan class="st7" x="25.010254" y="0"> </tspan><tspan class="st62" x="37.419434" y="0">it</tspan><tspan class="st10" x="40.660645" y="0">i</tspan><tspan x="49.056641" y="0"> </tspan></text>
  </g>
  <g>
    <path class="st1" d="M71.160004,66.140015l3.539993-1.320007-1.080002,3.659988M67.800003,71.360001l4.559998-4.860001.839996.779999-4.559998,4.860001-.839996-.779999Z"/>
    <path class="st1" d="M63.600006,56.600006l3.539993,1.199982-3.059998,2.160004M57.720001,58.640015l6.600006-.960022.119995,1.080017-6.600006.959991-.119995-1.079987Z"/>
  </g>
  <path class="st1" d="M83.160004,92.660004l-.300003-3.300003c-4.819-47.172989,8.904007-51.306015,52.680008-54.599991l3.779999-.240021.059998,1.080017-3.779999.299988c-43.075012,3.302002-56.432007,6.813995-51.600006,53.340012l.300003,3.360001"/>
  <path class="st1" d="M80.880005,73.639999l1.73999-3.300003,1.62001,3.360001M81.839996,79.759995l.180008-6.659988,1.080002.059998-.12001,6.660004-1.139999-.060013Z"/>
  <path class="st1" d="M40.199997,176.240005l-3.479996-1.440002,3.240005-1.919998M90.960007,120.740005l1.37999-3.480011,1.980011,3.180008-3.360001.300003ZM93.119995,120.020004l.360001,3.839996.240005,3.300003c.600998,11.009003,1.261002,25.766998-6.300003,34.800003l-1.800003,1.799988c-9.598999,8.904999-29.085999,9.998001-41.339996,11.100006l-3.779999.240005-.960007.059998-.059998-1.080002.960007-.119995,3.720001-.240005c11.656998-1.007996,30.209991-2.126999,39.720001-9.960007l.959991-.779999.839996-.839996c8.261002-8.354996,7.532013-24.084,6.900009-34.860001l-.240005-3.300003-.300003-3.899994,1.080002-.059998Z"/>
  <g class="st20">
    <text class="st4" transform="translate(331.379883 50.780273)"><tspan x="0" y="0">x</tspan></text>
  </g>
  <rect x="272.820007" y="46.369995" width=".420013" height="49.710007"/>
  <g>
    <rect x="219" y="50.599976" width="111" height=".420013"/>
    <path class="st45" d="M272.160004,50.839996v-.059998l.059998.23999v-.059998l.119995.240021-.059998-.120026.179993.240021-.059998-.059998.240021.179993-.120026-.059998.240021.119995-.059998-.059998.23999.119995-.119995-.059998.299988.059998h-.059998l.299988-.059998-.119995.059998.300018-.119995-.119995.059998.23999-.119995-.059998.059998.179993-.179993-.059998.059998.179993-.240021-.059998.120026.119995-.240021v.059998l.059998-.23999v.059998-.299988.119995-.300018.120026l-.059998-.300018v.119995l-.119995-.23999.059998.059998-.179993-.179993.059998.059998-.179993-.179993.059998.059998-.23999-.179993.119995.059998-.300018-.059998h.119995-.299988.059998-.299988.119995l-.23999.059998.059998-.059998-.240021.179993.120026-.059998-.240021.179993.059998-.059998-.179993.179993.059998-.059998-.119995.23999v-.119995l-.059998.300018v-.120026.300018-.119995M271.019989,50.660004v-.119995l.059998-.300018v-.119995l.120026-.23999v-.119995l.179993-.240021q0-.059998.059998-.119995l.179993-.179993q0-.059998.059998-.119995l.240021-.179993s.059998,0,.059998-.060028l.23999-.119995c.059998,0,.059998-.059998.119995-.059998l.300018-.059998s.059998,0,.119995-.059998h.720001c0,.059998.059998.059998.059998.059998l.299988.059998c.059998,0,.059998.059998.119995.059998l.240021.119995q.059998.060028.119995.060028l.179993.179993q.059998.059998.059998.119995l.179993.179993.119995.119995.120026.240021q0,.059998.059998.119995l.059998.23999v.119995l.059998.300018v.119995l-.059998.299988v.119995l-.059998.300018c-.059998,0-.059998.059998-.059998.119995l-.120026.23999c-.059998,0-.059998.059998-.119995.059998l-.179993.240021s0,.059998-.059998.059998l-.179993.179993q-.059998.059998-.119995.059998l-.240021.179993h-.119995l-.299988.120026h-.059998l-.360016.059998h-.059998l-.299988-.059998h-.119995l-.300018-.120026h-.119995l-.23999-.179993s-.059998,0-.059998-.059998l-.240021-.179993c-.059998,0-.059998-.059998-.059998-.059998l-.179993-.240021c-.059998,0-.059998-.059998-.059998-.059998l-.179993-.23999v-.119995l-.120026-.300018v-.119995l-.059998-.299988Z"/>
  </g>
  <g class="st21">
    <text class="st3" transform="translate(192.599609 48.55957)"><tspan class="st37" x="0" y="0">e</tspan><tspan class="st32" x="3.655273" y="0">i</tspan><tspan class="st37" x="5.116211" y="0">gen</tspan><tspan class="st32" x="16.082031" y="0">v</tspan><tspan class="st37" x="19.363281" y="0">a</tspan><tspan class="st30" x="23.018555" y="0">l</tspan><tspan class="st37" x="24.480469" y="0">u</tspan><tspan class="st48" x="28.135742" y="0">e</tspan><tspan class="st41" x="31.743164" y="0">s</tspan><tspan class="st44" x="35.023438" y="0">;</tspan></text>
  </g>
  <g>
    <text class="st3" transform="translate(192.599609 58.160156)"><tspan class="st37" x="0" y="0">Can</tspan><tspan class="st47" x="12.048828" y="0"> </tspan><tspan class="st37" x="13.733398" y="0">be</tspan><tspan x="21.043945" y="0"> </tspan></text>
    <text class="st3" transform="translate(192.599609 67.759766)"><tspan class="st32" x="0" y="0">growing</tspan><tspan class="st46" x="22.966797" y="0"> </tspan><tspan class="st41" x="24.595703" y="0">or</tspan><tspan x="30.428711" y="0"> </tspan></text>
    <text class="st3" transform="translate(192.599609 77.359375)"><tspan class="st32" x="0" y="0">shrinking</tspan><tspan class="st44" x="26.259766" y="0">)</tspan></text>
    <text class="st4" transform="translate(269.459961 126.080078)"><tspan x="0" y="0">y</tspan></text>
  </g>
  <rect x="272.820007" y="126.37999" width=".420013" height="10.050003"/>
  <g>
    <text class="st2" transform="translate(192.599609 130.879883)"><tspan class="st55" x="0" y="0">Cente</tspan><tspan class="st42" x="19.646484" y="0">r</tspan></text>
    <rect class="st1" x="192.600006" y="131.899994" width="22.079987" height=".660004"/>
  </g>
  <g class="st27">
    <text class="st3" transform="translate(192.599609 140.660156)"><tspan class="st6" x="0" y="0">(</tspan><tspan class="st11" x="15.296875" y="0">l</tspan><tspan class="st51" x="20.038086" y="0"> </tspan><tspan class="st5" x="21.786133" y="0">ii</tspan><tspan x="50.212891" y="0"> </tspan></text>
  </g>
  <g>
    <path class="st1" d="M242.399994,189.080002c16.495627,10.835107,70.561007-34.129386,61.32093-52.139357-15.857531-12.679234-71.24007,33.697425-61.80091,51.659361M241.079987,189.380005c-11.083758-18.575898,47.069849-67.345217,63.479394-53.220946,10.99605,18.584801-46.949188,67.141955-63.479394,53.220946Z"/>
    <path class="st1" d="M235.920013,194.119995c11.557966,9.491338,39.631601-10.272024,48.299988-17.699997v.839996c-1.00253-.681488,1.656042-2.036584,1.919901-2.520163.000112.000174,1.8001-1.619837,1.8001-1.619837,47.769506-46.429757,15.978575-58.986806-27.299988-24l.719971-.059998c-8.523486,6.767023-33.790727,31.934298-25.73999,44.76001M234.779999,194.600006c-8.691057-13.444564,16.826533-40.354723,26.519989-46.380005h-.659973c51.196812-42.006374,73.482981-12.534933,24.299988,29.039993l-.059998-.899994h.059998c-6.622355,8.737725-39.229469,29.034078-50.160004,18.240005Z"/>
    <path class="st1" d="M321.359985,65.359985l-1.619995,3.360016-1.799988-3.299988M272.519989,49.220001c.496066-1.192364,1.180104-2.584646,2.339996-3.23999h.120026l.179993-.120026c2.221306-.385318,5.363357,3.483484,6.000183,5.339796.357497.987114-.074708,2.151344-.480215,3.060227-2.680114,5.947039-12.578217,4.221938-15.480211-.659505-1.389544-3.154321,1.191066-8.91071,3.059994-11.400567,3.2892-4.308039,9.186317-3.668244,13.440223-1.199666,4.725188,2.237217,6.516396,5.201283,6.599895,10.37983-.005425,4.094761.000441,9.681792-3.779847,12.299918-6.398466,5.078876-20.948126,2.480674-24.840144-4.619867-5.059868-13.670351-3.423618-24.936776,12.600372-27.839727,14.983646-4.669324,28.055064,8.470233,26.399406,23.399992-.59611,14.963835-13.870569,16.419-25.799624,17.999776-5.468934.720076-11.429934-.067036-15.239899-4.440518-6.488937-6.511662-10.21354-13.070182-9.4795-22.4999-.208401-20.603805,24.334774-28.175737,41.339397-24.299354,10.951287,2.52839,17.106612,18.794693,18.540863,28.859154-.97756,14.078934,1.117098,19.208853-13.140871,24.900181-8.403124,3.519895-16.971122,6.148372-25.980033,7.440172-13.575038,2.620809-24.215457-12.427472-31.260481-22.079421-8.402564-11.89445-.34041-27.285753,6.900219-37.740735,9.389356-8.556894,55.389611-16.619372,65.640002-9.001561,5.703928,4.39386,6.359907,12.76073,7.620212,19.261807,2.764984,10.657576,2.388967,21.948597,2.400056,32.879977l-1.140015.059998c-.063643-10.097563.491317-21.03665-1.980088-30.899974-1.635897-6.822926-1.710844-16.506458-8.219892-20.880027-11.424879-6.250919-51.858455,1.123572-62.700325,8.57813-4.385543,4.540166-9.640824,16.049319-10.680023,22.321671-2.815108,12.975428,10.647187,25.095997,19.319921,32.640484,3.771406,3.117158,7.834588,4.519635,12.78043,3.89962,9.044241-1.197156,17.456722-3.652636,25.919978-7.139929,13.904304-5.695509,12.120307-8.158768,13.439662-22.38004.269256-6.927258-3.996767-15.256846-7.259566-21.11996-2.631175-4.620541-6.552844-8.048777-11.940244-8.819664-15.544572-2.836846-37.776021,3.722433-38.399893,22.319978-.122251,2.36756-.09482,5.519917.240112,7.859714,1.885291,9.243546,9.99192,20.166892,20.339197,19.320623,12.122247-1.058813,27.982127-2.340047,27.660635-18.180528.348829-7.155142-2.252965-13.982192-8.100233-18.299968-5.594272-4.793354-12.208143-4.156419-18.899697-2.400082-13.047958,3.707968-13.573959,10.217947-11.09996,22.439963,1.177549,8.931911,15.771677,12.087287,22.680157,8.580081,4.495575-1.608083,4.9588-7.30247,5.039662-11.340211.241459-6.108653-2.455043-9.336338-8.100281-11.399617-8.004156-3.729675-13.004357,3.87158-13.199309,11.099964.673267,3.339332,4.67971,4.223699,7.559752,4.619812,3.452682.714737,6.492231-1.52587,6.660033-5.040041v.119995c-.173876-1.676591-2.886227-4.225904-4.320007-4.919983l.119995.059998-.23999-.059998h.119995-.240021.060028l-.180023.059998.059998-.059998-.179993.059998h.059998c-1.003082.502225-1.351552,1.716664-1.859985,2.640015l-1.02002-.420013Z"/>
  </g>
  <text class="st4" transform="translate(145.379883 162.200195)"><tspan x="0" y="0">x</tspan></text>
  <rect x="86.820007" y="136.369995" width=".420013" height="71.130005"/>
  <rect x="33" y="162.080002" width="111" height=".360001"/>
  <g>
    <path class="st1" d="M123.899994,118.820007l3.480011-1.380005-.959991,3.599991M52.919998,203.059998l-3.539993,1.380005,1.019989-3.660004,2.520004,2.279999ZM50.880005,201.980003l74.220001-82.860008.839996.779999-74.220001,82.800003-.839996-.719994Z"/>
    <path class="st1" d="M69.479996,120.619995l.360001-3.779999,2.820007,2.580002M106.199997,206.120003l-.360001,3.719994-2.819992-2.519997,3.179993-1.199997ZM104.279999,207.440002l-33.959991-87.720001,1.079987-.419998,33.960007,87.719994-1.080002.420006Z"/>
  </g>
  <path class="st45" d="M86.160004,162.320007v-.12001l.059998.300003v-.119995l.119995.23999-.059998-.059998.180008.180008-.060013-.060013.240005.180008-.119995-.059998.23999.119995h-.059998l.240005.059998h-.119995.299988-.059998.300003-.119995l.299988-.059998h-.119995l.240005-.119995-.059998.059998.179993-.180008-.059998.060013.179993-.180008-.059998.059998.12001-.23999v.119995l.059998-.300003v.12001-.300003.119995-.360001.119995l-.059998-.23999v.059998l-.12001-.240005.059998.12001-.179993-.240005.059998.059998-.179993-.179993.059998.059998-.240005-.12001h.119995l-.299988-.059998h.119995-.300003.059998-.299988.119995l-.240005.059998h.059998l-.23999.12001.119995-.059998-.240005.179993.060013-.059998-.180008.240005.059998-.12001-.119995.240005v-.059998l-.059998.23999v-.119995.360001-.119995M85.020004,162.139999v-.119995l.059998-.300003v-.119995l.119995-.300003v-.12001l.180008-.23999s0-.059998.059998-.059998l.179993-.240005q0-.059998.059998-.059998l.240005-.180008c0-.059998.059998-.059998.059998-.059998l.240005-.179993h.119995l.300003-.12001h.119995l.300003-.059998h.059998l.360001.059998h.059998l.300003.12001h.12001l.23999.179993q.059998,0,.12001.059998l.179993.180008q.059998,0,.059998.059998l.180008.240005c.059998,0,.059998.059998.119995.059998l.119995.23999q0,.060013.059998.12001l.060013.300003v.119995l.059998.300003v.119995l-.059998.300003v.059998l-.060013.300003q-.059998.059998-.059998.119995l-.119995.240005-.119995.119995-.180008.180008q0,.059998-.059998.059998l-.179993.23999q-.060013,0-.12001.060013l-.23999.119995q-.060013,0-.12001.059998l-.300003.059998h-.059998l-.360001.059998h-.059998l-.300003-.059998h-.119995l-.300003-.059998q-.059998-.059998-.119995-.059998l-.240005-.119995c0-.060013-.059998-.060013-.059998-.060013l-.240005-.23999q-.059998,0-.059998-.059998l-.179993-.180008q-.059998-.059998-.059998-.119995l-.180008-.240005v-.119995l-.119995-.300003v-.059998l-.059998-.300003Z"/>
  <g class="st24">
    <text class="st3" transform="translate(6.600098 140.780273)"><tspan class="st62" x="0" y="0">(</tspan><tspan x="2.162109" y="0">t</tspan></text>
  </g>
  <text class="st3" transform="translate(10.560059 140.780273)"><tspan class="st37" x="0" y="0">w</tspan><tspan class="st43" x="4.738281" y="0">o</tspan></text>
  <g class="st23">
    <text class="st3" transform="translate(18.959961 140.780273)"><tspan x="0" y="0"> </tspan></text>
  </g>
  <text class="st3" transform="translate(20.700195 140.780273)"><tspan x="0" y="0">rea</tspan></text>
  <g class="st26">
    <text class="st3" transform="translate(30.180176 140.780273)"><tspan class="st54" x="0" y="0">l</tspan><tspan x="1.445312" y="0"> </tspan></text>
  </g>
  <text class="st3" transform="translate(33.419922 140.780273)"><tspan class="st40" x="0" y="0">po</tspan><tspan x="7.310547" y="0">s</tspan></text>
  <g class="st25">
    <text class="st3" transform="translate(44.040039 140.780273)"><tspan class="st62" x="0" y="0">it</tspan><tspan class="st28" x="3.241211" y="0">i</tspan></text>
  </g>
  <text class="st3" transform="translate(48.720215 140.780273)"><tspan class="st35" x="0" y="0">v</tspan><tspan class="st43" x="3.296875" y="0">e</tspan></text>
  <g class="st13">
    <text class="st3" transform="translate(55.680176 140.780273)"><tspan x="0" y="0"> </tspan></text>
  </g>
  <text class="st3" transform="translate(6.600098 150.379883)"><tspan class="st40" x="0" y="0">e</tspan><tspan class="st32" x="3.655273" y="0">i</tspan><tspan class="st40" x="5.116699" y="0">gen</tspan><tspan class="st32" x="16.08252" y="0">v</tspan><tspan class="st40" x="19.363281" y="0">a</tspan><tspan class="st32" x="23.018555" y="0">l</tspan><tspan class="st40" x="24.47998" y="0">u</tspan><tspan class="st49" x="28.135254" y="0">e</tspan><tspan class="st31" x="31.742676" y="0">s</tspan><tspan x="35.023926" y="0">)</tspan></text>
  <path class="st1" d="M40.199997,176.240005l-3.479996-1.440002,3.240005-1.919998M90.960007,120.740005l1.37999-3.480011,1.980011,3.180008-3.360001.300003ZM93.119995,120.020004l.360001,3.839996.240005,3.300003c.600998,11.009003,1.261002,25.766998-6.300003,34.800003l-1.800003,1.799988c-9.598999,8.904999-29.085999,9.998001-41.339996,11.100006l-3.779999.240005-.960007.059998-.059998-1.080002.960007-.119995,3.720001-.240005c11.656998-1.007996,30.209991-2.126999,39.720001-9.960007l.959991-.779999.839996-.839996c8.261002-8.354996,7.532013-24.084,6.900009-34.860001l-.240005-3.300003-.300003-3.899994,1.080002-.059998Z"/>
  <g>
    <path class="st1" d="M133.320007,147.5l3.47998,1.440002-3.299988,1.919998M82.559998,203l-1.380005,3.480003-1.979996-3.18,3.360001-.300003ZM80.339996,203.720001l-.300003-3.840004c-4.405991-45.346001,12.430008-48.012001,52.919998-51.239998l.960022-.059998.059998,1.080002-.900024.059998-3.779999.300003c-11.943985,1.024002-29.899994,2.080002-39.719986,9.959991l-.900009.779999-.899994.840012c-8.246994,8.600998-7.468002,23.897995-6.839996,34.859993l.23999,3.300003.300003,3.900002-1.139999.059998Z"/>
    <text class="st4" transform="translate(331.379883 162.080078)"><tspan x="0" y="0">x</tspan></text>
  </g>
  <rect x="272.820007" y="136.369995" width=".420013" height="71.010002"/>
  <g>
    <rect x="219" y="161.900009" width="111" height=".419998"/>
    <path class="st45" d="M271.859985,162.919998v-.119995l.060028.300003v-.12001l.119995.240005-.059998-.059998.179993.23999-.059998-.119995.179993.240005-.059998-.12001.23999.180008-.119995-.059998.300018.119995-.120026-.059998.300018.059998h-.119995l.299988-.059998-.059998.059998.23999-.119995-.059998.059998.23999-.180008-.119995.12001.240021-.240005-.059998.119995.179993-.23999-.059998.059998.119995-.240005-.059998.12001.119995-.300003v.119995-.300003.12001-.300003.119995l-.119995-.300003.059998.12001-.119995-.240005.059998.059998-.179993-.23999.059998.119995-.240021-.240005.119995.12001-.23999-.180008.059998.059998-.23999-.119995.059998.059998-.299988-.059998h.119995l-.300018.059998.120026-.059998-.300018.119995.119995-.059998-.23999.180008.059998-.12001-.179993.240005.059998-.119995-.179993.23999.059998-.059998-.119995.240005v-.12001l-.060028.300003v-.119995.300003-.12001M270.720001,162.740005v-.12001l.059998-.299988v-.12001l.059998-.23999c.059998-.060013.059998-.12001.059998-.12001l.119995-.23999q.059998-.060013.059998-.12001l.180023-.23999c.059998,0,.059998-.060013.119995-.060013l.179993-.179993c.059998,0,.059998-.059998.119995-.059998l.240021-.119995q.059998-.060013.119995-.060013l.23999-.059998c.059998-.059998.119995-.059998.119995-.059998h.720001c.059998,0,.119995,0,.119995.059998l.300018.059998q.059998,0,.119995.060013l.23999.119995.059998.059998.240021.179993.059998.060013.179993.23999q.059998.059998.059998.12001l.179993.23999v.12001l.119995.23999v.12001l.059998.299988v.12001l-.059998.299988v.12001l-.119995.23999v.12001l-.179993.23999q0,.060013-.059998.12001l-.179993.23999s-.059998,0-.059998.059998l-.240021.180008-.059998.059998-.23999.119995c-.059998.060013-.119995.060013-.119995.060013l-.300018.059998c0,.059998-.059998.059998-.119995.059998h-.720001s-.059998,0-.059998-.059998l-.299988-.059998q-.059998,0-.119995-.060013l-.240021-.119995c-.059998,0-.059998-.059998-.119995-.059998l-.179993-.180008q-.059998-.059998-.119995-.059998l-.180023-.23999q0-.059998-.059998-.12001l-.119995-.23999s0-.059998-.059998-.12001l-.059998-.23999v-.12001l-.059998-.299988Z"/>
  </g>
  <g class="st12">
    <text class="st3" transform="translate(192.599609 140.660156)"><tspan x="0" y="0">(</tspan></text>
  </g>
  <text class="st3" transform="translate(194.759766 140.660156)"><tspan x="0" y="0">pu</tspan><tspan class="st30" x="7.27832" y="0">r</tspan><tspan x="9.464844" y="0">e</tspan></text>
  <g class="st17">
    <text class="st3" transform="translate(207.900391 140.660156)"><tspan x="0" y="0">l</tspan></text>
  </g>
  <text class="st3" transform="translate(209.339844 140.660156)"><tspan x="0" y="0">y</tspan></text>
  <g class="st15">
    <text class="st3" transform="translate(212.639648 140.660156)"><tspan class="st52" x="0" y="0"> </tspan><tspan x="1.740234" y="0">i</tspan></text>
  </g>
  <text class="st3" transform="translate(215.820312 140.660156)"><tspan class="st32" x="0" y="0">ma</tspan><tspan x="9.106445" y="0">g</tspan></text>
  <g class="st16">
    <text class="st3" transform="translate(228.599609 140.660156)"><tspan x="0" y="0">i</tspan></text>
  </g>
  <text class="st3" transform="translate(230.040039 140.660156)"><tspan x="0" y="0">na</tspan><tspan class="st30" x="7.27832" y="0">r</tspan><tspan class="st29" x="9.464844" y="0">y</tspan></text>
  <g class="st14">
    <text class="st3" transform="translate(242.820312 140.660156)"><tspan x="0" y="0"> </tspan></text>
  </g>
  <g>
    <text class="st3" transform="translate(192.599609 150.259766)"><tspan class="st37" x="0" y="0">e</tspan><tspan class="st32" x="3.655273" y="0">i</tspan><tspan class="st37" x="5.116211" y="0">gen</tspan><tspan class="st32" x="16.082031" y="0">v</tspan><tspan class="st37" x="19.363281" y="0">a</tspan><tspan class="st30" x="23.018555" y="0">l</tspan><tspan class="st37" x="24.480469" y="0">u</tspan><tspan class="st48" x="28.135742" y="0">e</tspan><tspan class="st41" x="31.743164" y="0">s</tspan><tspan class="st44" x="35.023438" y="0">)</tspan></text>
    <path class="st1" d="M255.059998,178.039993l.299988.240005.360016.240005.359985.179993c6.483002,2.013,17.479004-5.600998,22.140015-9.479996l.899994-.779999.899994-.839996c3.753021-3.098999,13.347015-13.689011,11.160004-19.200012l-.179993-.360001-.480011-.599991c-9.131989-6.294006-39.746979,19.410004-36.119995,29.639999l.179993.360001.180023.300003M253.980011,178.520004l-.300018-.419998-.299988-.480011c-4.403992-11.110001,27.325989-37.584,37.380005-31.37999l.419983.299988.420013.420013.299988.419998c3.498993,5.677002-6.365997,16.827988-10.199982,20.220001l-1.800018,1.679993c-4.970001,4.341995-17.118988,12.856003-24.179993,10.5l-.480011-.240005-.47998-.299988-.420013-.300003-.359985-.419998Z"/>
    <path class="st1" d="M249.359985,182.960007l.420013.360001.480011.299988.539978.240005c8.271027,2.796005,23.331024-7.432007,29.220001-12.479996l1.200012-1.080002,1.200012-1.020004c5.036987-4.373001,17.668976-18.018997,14.699982-25.559998l-.23999-.419998-.300018-.479996-.359985-.360001-.420013-.360001c-6.873993-4.25-22.634979,5.746994-27.779999,9.959991l-1.259979.960007-1.200012,1.019989c-5.92099,4.752014-19.386993,18.547012-17.339996,27.12001l.179993.539993.300018.419998.299988.480011M248.160004,183.380005l-.420013-.600006-.299988-.539993c-5.70401-14.518005,35.721008-49.061005,48.899994-41.100006l.540009.419998.47998.479996.420013.600006c4.43399,7.494003-8.381989,21.884995-13.440002,26.339996l-1.139984,1.080002-1.200012,1.080002c-6.252991,5.697998-22.526001,16.863998-31.559998,13.800003l-.660004-.300003-.600006-.360001-.539978-.419998-.480011-.479996Z"/>
  </g>
  <g>
    <path class="st1" d="M242.399994,189.080002l.540009.479996.660004.360001.720001.360001c10.778992,3.593994,30.313995-9.617996,37.97998-16.199997l3.120026-2.759995c6.596985-5.615005,22.816986-23.395004,19.079987-33.180008l-.359985-.660004-.420013-.539993-.480011-.540009-.599976-.479996c-8.988007-5.533997-29.331024,7.406998-36.060028,12.900009l-1.619995,1.259995-1.619995,1.319992c-7.609985,6.167999-25.240997,24.195999-22.440002,35.279999l.240021.660004.359985.660004.420013.600006M241.079987,189.380005l-.47998-.720001-.420013-.779999-.359985-.779999c-3.09201-11.028,13.673981-28.855011,21.179993-35.160004l1.619995-1.380005,1.619995-1.319992c7.541016-6.32901,27.90802-19.649002,38.279999-14.700012l.720001.420013.720001.539993.600006.660004.480011.660004c5.641998,9.681-10.938995,28.125-17.339996,33.959991l-1.5,1.380005-1.559998,1.37999c-8.308014,7.371002-28.781006,21.679008-40.680023,17.820007l-.839996-.419998-.720001-.419998-.720001-.540009-.600006-.599991Z"/>
    <path class="st1" d="M235.920013,194.119995l.299988.360001c10.56601,8.428001,38.212006-9.647995,46.079987-16.5l1.920013-1.559998v.839996c-.119995-.119995-.23999-.23999-.23999-.419998,0-.179993.059998-.360001.23999-.419998l1.920013-1.679993,1.799988-1.62001c7.940002-6.810989,27.088013-27.567001,23.100006-39.599991l-.180023-.360001-.179993-.419998c-7.828979-12.244003-38.515991,7.190994-45.419983,13.199997l-1.980011,1.559998-1.920013,1.559998c-.23999.180008-.47998.180008-.719971.059998l.719971-.059998-1.919983,1.619995c-7.679016,6.058014-31.468018,31.259003-24.059998,42.780014l.23999.360001M234.779999,194.600006l-.299988-.420013c-8.046997-12.453995,15.941986-37.602997,24.179993-44.339996l1.919983-1.619995c.240021-.180008.540009-.180008.720001,0h-.659973l1.919983-1.619995c50.304993-38.938004,70.359009-12.125,24.299988,28.979996l-1.919983,1.679993-.059998-.899994h.059998c.119995.119995.179993.300003.179993.479996,0,.180008-.059998.300003-.179993.419998l-1.980011,1.62001c-8.28299,7.181992-36.445984,25.549995-47.459991,16.439995l-.359985-.359993-.360016-.360001Z"/>
  </g>
  <g>
    <path class="st1" d="M285.600006,159.800003l3.540009-1.320007-1.080017,3.600006M282.23999,165.020004l4.559998-4.860001.840027.720001-4.560028,4.919998-.839996-.779999Z"/>
    <path class="st1" d="M283.200012,166.699997l3.539978-1.319992-1.079987,3.659988M279.839996,171.919998l4.559998-4.860001.779999.779999-4.559998,4.860001-.779999-.779999Z"/>
    <path class="st1" d="M278.880005,174.919998l3.540009-1.319992-1.080017,3.599991M275.519989,180.139999l4.559998-4.860001.779999.720001-4.559998,4.919998-.779999-.779999Z"/>
    <path class="st1" d="M273,182.479996l3.540009-1.319992-1.080017,3.599991M269.640015,187.699997l4.559998-4.860001.779999.779999-4.559998,4.860001-.779999-.779999Z"/>
    <text class="st2" transform="translate(138.600098 216.019531)"><tspan class="st61" x="0" y="0">Al</tspan><tspan class="st39" x="6.524902" y="0">s</tspan><tspan class="st57" x="10.234375" y="0">o</tspan><tspan class="st61" x="14.312012" y="0">,</tspan><tspan class="st55" x="16.346191" y="0"> </tspan><tspan class="st61" x="18.389648" y="0">equal</tspan><tspan class="st63" x="36.356934" y="0"> </tspan><tspan class="st58" x="38.634277" y="0">eigen</tspan><tspan class="st38" x="56.601074" y="0">v</tspan><tspan class="st60" x="60.310059" y="0">al</tspan><tspan class="st33" x="66.018066" y="0">u</tspan><tspan class="st56" x="70.149902" y="0">e</tspan><tspan class="st38" x="74.227051" y="0">s</tspan><tspan class="st63" x="77.936035" y="0"> </tspan><tspan class="st60" x="80.213379" y="0">lead</tspan><tspan class="st66" x="94.094238" y="0"> </tspan><tspan class="st58" x="96.245605" y="0">to</tspan><tspan class="st68" x="102.366699" y="0"> </tspan><tspan class="st36" x="104.51709" y="0">s</tspan><tspan class="st53" x="108.227051" y="0">t</tspan><tspan class="st60" x="110.27002" y="0">ar</tspan><tspan class="st38" x="116.79541" y="0">s</tspan><tspan class="st53" x="120.504395" y="0"> </tspan><tspan class="st60" x="122.547363" y="0">&amp;</tspan><tspan class="st53" x="127.45166" y="0"> </tspan><tspan class="st60" x="129.494629" y="0">dege</tspan><tspan class="st34" x="145.841309" y="0">n</tspan><tspan class="st60" x="149.972168" y="0">er</tspan><tspan class="st33" x="156.497559" y="0">a</tspan><tspan class="st55" x="160.629395" y="0">t</tspan><tspan class="st58" x="162.672363" y="0">e</tspan><tspan class="st65" x="166.758301" y="0"> </tspan><tspan class="st58" x="169.090332" y="0">node</tspan><tspan x="185.436035" y="0">s</tspan></text>
  </g>
</svg>