<?xml version="1.0" encoding="utf-8"?>
<!-- Generator: Adobe Illustrator 29.1.0, SVG Export Plug-In . SVG Version: 9.03 Build 55587)  -->
<svg version="1.1" id="Layer_1" xmlns="http://www.w3.org/2000/svg" xmlns:xlink="http://www.w3.org/1999/xlink" x="0px" y="0px"
	 viewBox="0 0 218.212204 95.132721" style="enable-background:new 0 0 218.212204 95.132721;" xml:space="preserve">
<style type="text/css">
	.st0{fill:none;stroke:#000000;stroke-width:0.375;stroke-linecap:round;stroke-linejoin:round;stroke-miterlimit:10;}
	.st1{fill-rule:evenodd;clip-rule:evenodd;fill:#FF0000;}
	.st2{fill:#0000FF;}
	.st3{fill:none;stroke:#000000;stroke-width:0.375;stroke-linecap:round;stroke-miterlimit:8;}
	.st4{fill:none;stroke:#000000;stroke-linecap:round;stroke-linejoin:round;}
</style>
<path class="st0" d="M12.285182,9.050015c1.020004,10.260009,1.979996,20.52002,6.000001,27
	c4.020004,6.480042,10.979996,9.480042,18,12c7.020004,2.52002,17.520004-0.47998,24,3
	c6.480007,3.480042,10.739986,10.740051,14.999996,18.000004"/>
<path d="M1.785182,6.050015l1.5-3l1.5,3 M3.105189,84.050018V5.570035l0.059998-0.119995l0.119995-0.059998l0.119995,0.059998
	l0.059998,0.119995v78.47998l-0.059998,0.120056l-0.119995,0.059998l-0.119995-0.059998L3.105189,84.050018z"/>
<path d="M81.285179,82.550018l3,1.5l-3,1.5 M3.285182,83.870026H81.76519l0.179993,0.059998v0.240051l-0.179993,0.059998H3.285182
	l-0.119995-0.059998l-0.059998-0.120056l0.059998-0.119995L3.285182,83.870026z"/>
<path class="st1" d="M19.785183,9.050015c-0.839996,0-1.5,0.660034-1.5,1.5c0,0.840027,0.660004,1.5,1.5,1.5s1.5-0.659973,1.5-1.5
	C21.285183,9.71005,20.625179,9.050015,19.785183,9.050015"/>
<path class="st0" d="M19.785183,9.050015c-0.839996,0-1.5,0.660034-1.5,1.5c0,0.840027,0.660004,1.5,1.5,1.5s1.5-0.659973,1.5-1.5
	C21.285183,9.71005,20.625179,9.050015,19.785183,9.050015z"/>
<rect x="9.285182" y="24.050014" class="st2" width="3" height="3"/>
<path class="st3" d="M9.285182,24.050014 M12.285182,24.050014h-3v3h3V24.050014z"/>
<path class="st1" d="M31.785183,18.050014c-0.839996,0-1.5,0.660034-1.5,1.5c0,0.840027,0.660004,1.5,1.5,1.5s1.5-0.659973,1.5-1.5
	C33.285183,18.710049,32.625179,18.050014,31.785183,18.050014"/>
<path class="st0" d="M31.785183,18.050014c-0.839996,0-1.5,0.660034-1.5,1.5c0,0.840027,0.660004,1.5,1.5,1.5s1.5-0.659973,1.5-1.5
	C33.285183,18.710049,32.625179,18.050014,31.785183,18.050014z"/>
<path class="st1" d="M43.785183,30.050014c-0.839996,0-1.5,0.660034-1.5,1.5c0,0.840027,0.660004,1.5,1.5,1.5s1.5-0.659973,1.5-1.5
	C45.285183,30.710049,44.625179,30.050014,43.785183,30.050014"/>
<path class="st0" d="M43.785183,30.050014c-0.839996,0-1.5,0.660034-1.5,1.5c0,0.840027,0.660004,1.5,1.5,1.5s1.5-0.659973,1.5-1.5
	C45.285183,30.710049,44.625179,30.050014,43.785183,30.050014z"/>
<path class="st1" d="M52.785183,15.050015c-0.839996,0-1.5,0.660034-1.5,1.499999c0,0.840027,0.660004,1.5,1.5,1.5
	s1.5-0.659973,1.5-1.5C54.285183,15.71005,53.625179,15.050015,52.785183,15.050015"/>
<path class="st0" d="M52.785183,15.050015c-0.839996,0-1.5,0.660034-1.5,1.499999c0,0.840027,0.660004,1.5,1.5,1.5
	s1.5-0.659973,1.5-1.5C54.285183,15.71005,53.625179,15.050015,52.785183,15.050015z"/>
<path class="st1" d="M67.785179,30.050014c-0.839996,0-1.5,0.660034-1.5,1.5c0,0.840027,0.660004,1.5,1.5,1.5s1.5-0.659973,1.5-1.5
	C69.285179,30.710049,68.625175,30.050014,67.785179,30.050014"/>
<path class="st0" d="M67.785179,30.050014c-0.839996,0-1.5,0.660034-1.5,1.5c0,0.840027,0.660004,1.5,1.5,1.5s1.5-0.659973,1.5-1.5
	C69.285179,30.710049,68.625175,30.050014,67.785179,30.050014z"/>
<rect x="9.285182" y="36.050014" class="st2" width="3" height="3"/>
<path class="st3" d="M9.285182,36.050014 M12.285182,36.050014h-3v3h3V36.050014z"/>
<rect x="18.285183" y="45.050014" class="st2" width="3" height="3"/>
<path class="st3" d="M18.285183,45.050014 M21.285183,45.050014h-3v3h3V45.050014z"/>
<rect x="12.285182" y="54.050014" class="st2" width="3" height="3"/>
<path class="st3" d="M12.285182,54.050014 M15.285182,54.050014h-3v3h3V54.050014z"/>
<rect x="33.285183" y="54.050014" class="st2" width="3" height="3"/>
<path class="st3" d="M33.285183,54.050014 M36.285183,54.050014h-3v3h3V54.050014z"/>
<rect x="48.285183" y="57.050014" class="st2" width="3" height="3"/>
<path class="st3" d="M48.285183,57.050014 M51.285183,57.050014h-3v3h3V57.050014z"/>
<rect x="60.285183" y="66.050018" class="st2" width="3" height="3"/>
<path class="st3" d="M60.285183,66.050018 M63.285183,66.050018h-3v3h3V66.050018z"/>
<rect x="36.285183" y="72.050018" class="st2" width="3" height="3"/>
<path class="st3" d="M36.285183,72.050018 M39.285183,72.050018h-3v3h3V72.050018z"/>
<path class="st1" d="M22.785183,27.050014c-0.839996,0-1.5,0.660034-1.5,1.5c0,0.840027,0.660004,1.5,1.5,1.5s1.5-0.659973,1.5-1.5
	C24.285183,27.710049,23.625179,27.050014,22.785183,27.050014"/>
<path class="st0" d="M22.785183,27.050014c-0.839996,0-1.5,0.660034-1.5,1.5c0,0.840027,0.660004,1.5,1.5,1.5s1.5-0.659973,1.5-1.5
	C24.285183,27.710049,23.625179,27.050014,22.785183,27.050014z"/>
<path class="st1" d="M34.785183,39.050014c-0.839996,0-1.5,0.660034-1.5,1.5c0,0.840027,0.660004,1.5,1.5,1.5s1.5-0.659973,1.5-1.5
	C36.285183,39.710049,35.625179,39.050014,34.785183,39.050014"/>
<path class="st0" d="M34.785183,39.050014c-0.839996,0-1.5,0.660034-1.5,1.5c0,0.840027,0.660004,1.5,1.5,1.5s1.5-0.659973,1.5-1.5
	C36.285183,39.710049,35.625179,39.050014,34.785183,39.050014z"/>
<path class="st1" d="M58.785183,45.050014c-0.839996,0-1.5,0.660034-1.5,1.5c0,0.840027,0.660004,1.5,1.5,1.5s1.5-0.659973,1.5-1.5
	C60.285183,45.710049,59.625179,45.050014,58.785183,45.050014"/>
<path class="st0" d="M58.785183,45.050014c-0.839996,0-1.5,0.660034-1.5,1.5c0,0.840027,0.660004,1.5,1.5,1.5s1.5-0.659973,1.5-1.5
	C60.285183,45.710049,59.625179,45.050014,58.785183,45.050014z"/>
<path class="st1" d="M70.785179,51.050014c-0.839996,0-1.5,0.660034-1.5,1.5c0,0.840027,0.660004,1.5,1.5,1.5s1.5-0.659973,1.5-1.5
	C72.285179,51.710049,71.625175,51.050014,70.785179,51.050014"/>
<path class="st0" d="M70.785179,51.050014c-0.839996,0-1.5,0.660034-1.5,1.5c0,0.840027,0.660004,1.5,1.5,1.5s1.5-0.659973,1.5-1.5
	C72.285179,51.710049,71.625175,51.050014,70.785179,51.050014z"/>
<path class="st1" d="M76.785179,63.050014c-0.839996,0-1.5,0.660034-1.5,1.500004c0,0.840027,0.660004,1.5,1.5,1.5
	s1.5-0.659973,1.5-1.5C78.285179,63.710049,77.625175,63.050014,76.785179,63.050014"/>
<path class="st0" d="M76.785179,63.050014c-0.839996,0-1.5,0.660034-1.5,1.500004c0,0.840027,0.660004,1.5,1.5,1.5
	s1.5-0.659973,1.5-1.5C78.285179,63.710049,77.625175,63.050014,76.785179,63.050014z"/>
<path d="M127.785179,6.050015l1.500008-3l1.5,3 M129.105194,84.050018V5.570035l0.059998-0.119995l0.119995-0.059998
	l0.119995,0.059998l0.059998,0.119995v78.47998l-0.059998,0.120056l-0.119995,0.059998l-0.119995-0.059998L129.105194,84.050018z"/>
<path d="M207.285187,82.550018l3,1.5l-3,1.5 M129.285187,83.870026h78.480011l0.179993,0.059998v0.240051l-0.179993,0.059998
	h-78.480011l-0.119995-0.059998l-0.059998-0.120056l0.059998-0.119995L129.285187,83.870026z"/>
<line class="st0" x1="144.285187" y1="9.050015" x2="201.285187" y2="81.050018"/>
<rect x="142.725189" y="18.050014" class="st2" width="3" height="3"/>
<path class="st3" d="M142.725189,18.050014 M145.725189,18.050014h-3v3h3V18.050014z"/>
<g>
	<path d="M136.78421,18.270962c-0.407227,0.255371-0.902344,0.766113-0.902344,1.595703
		c0,0.766113,0.415039,1.404785,1.25293,1.532227V19.0527c0-0.82959,0.455078-1.165039,0.982422-1.165039
		c0.757812,0,1.580078,0.726074,1.580078,1.907227c0,1.324707-0.942383,2.019043-1.916016,2.114746v1.500488h-0.646484v-1.500488
		c-0.957031-0.071777-1.946289-0.669922-1.946289-2.026855c0-1.109375,0.797852-1.779785,1.324219-2.00293L136.78421,18.270962z
		 M137.781281,21.398891c0.758789-0.103516,1.245117-0.693848,1.245117-1.587891c0-0.790039-0.462891-1.412598-0.90918-1.412598
		c-0.200195,0-0.335938,0.175781-0.335938,0.542969V21.398891z"/>
</g>
<g>
	<path d="M142.07132,16.29147c-0.582031,0.782227-1.004883,1.819824-1.004883,3.26416
		c0,1.42041,0.438477,2.441895,1.004883,3.240234h-0.549805c-0.50293-0.662598-1.045898-1.684082-1.045898-3.240234
		c0.007812-1.572266,0.542969-2.59375,1.045898-3.26416H142.07132z"/>
	<path d="M145.893585,22.795864c0.567383-0.790039,1.005859-1.827637,1.005859-3.26416
		c0-1.428711-0.430664-2.450195-1.005859-3.240234h0.542969c0.510742,0.654785,1.045898,1.67627,1.045898,3.248047
		c0,1.564453-0.535156,2.577637-1.045898,3.256348H145.893585z"/>
</g>
<rect x="151.905182" y="34.790066" class="st2" width="3" height="3"/>
<path class="st3" d="M151.905182,34.790066 M154.905182,34.790066h-3v3h3V34.790066z"/>
<g>
	<path d="M146.024445,35.011196c-0.407227,0.255371-0.902344,0.766113-0.902344,1.595703
		c0,0.766113,0.415039,1.404785,1.25293,1.532227v-2.346191c0-0.82959,0.455078-1.165039,0.982422-1.165039
		c0.757812,0,1.580078,0.726074,1.580078,1.907227c0,1.324707-0.942383,2.019043-1.916016,2.114746v1.500488h-0.646484v-1.500488
		c-0.957031-0.071777-1.946289-0.669922-1.946289-2.026855c0-1.109375,0.797852-1.779785,1.324219-2.00293L146.024445,35.011196z
		 M147.021515,38.139126c0.758789-0.103516,1.245117-0.693848,1.245117-1.587891c0-0.790039-0.462891-1.412598-0.90918-1.412598
		c-0.200195,0-0.335938,0.175781-0.335938,0.542969V38.139126z"/>
</g>
<g>
	<path d="M151.311554,33.031704c-0.582031,0.782227-1.004883,1.819824-1.004883,3.26416
		c0,1.42041,0.438477,2.441895,1.004883,3.240234h-0.549805c-0.50293-0.662598-1.045898-1.684082-1.045898-3.240234
		c0.007812-1.572266,0.542969-2.59375,1.045898-3.26416H151.311554z"/>
	<path d="M155.13382,39.536098c0.567383-0.790039,1.005859-1.827637,1.005859-3.26416
		c0-1.428711-0.430664-2.450195-1.005859-3.240234h0.542969c0.510742,0.654785,1.045898,1.67627,1.045898,3.248047
		c0,1.564453-0.535156,2.577637-1.045898,3.256348H155.13382z"/>
</g>
<rect x="166.905182" y="52.790066" class="st2" width="3" height="3"/>
<path class="st3" d="M166.905182,52.790066 M169.905182,52.790066h-3v3h3V52.790066z"/>
<g>
	<path d="M161.024445,53.011196c-0.407227,0.255371-0.902344,0.766113-0.902344,1.595703
		c0,0.766113,0.415039,1.404785,1.25293,1.532227v-2.346191c0-0.82959,0.455078-1.165039,0.982422-1.165039
		c0.757812,0,1.580078,0.726074,1.580078,1.907227c0,1.324707-0.942383,2.019043-1.916016,2.114746v1.500488h-0.646484v-1.500488
		c-0.957031-0.071777-1.946289-0.669922-1.946289-2.026855c0-1.109375,0.797852-1.779785,1.324219-2.00293L161.024445,53.011196z
		 M162.021515,56.139126c0.758789-0.103516,1.245117-0.693848,1.245117-1.587891c0-0.790039-0.462891-1.412598-0.90918-1.412598
		c-0.200195,0-0.335938,0.175781-0.335938,0.542969V56.139126z"/>
</g>
<g>
	<path d="M166.311554,51.031704c-0.582031,0.782227-1.004883,1.819824-1.004883,3.26416
		c0,1.42041,0.438477,2.441895,1.004883,3.240234h-0.549805c-0.50293-0.662598-1.045898-1.684082-1.045898-3.240234
		c0.007812-1.572266,0.542969-2.59375,1.045898-3.26416H166.311554z"/>
	<path d="M170.13382,57.536098c0.567383-0.790039,1.005859-1.827637,1.005859-3.26416
		c0-1.428711-0.430664-2.450195-1.005859-3.240234h0.542969c0.510742,0.654785,1.045898,1.67627,1.045898,3.248047
		c0,1.564453-0.535156,2.577637-1.045898,3.256348H170.13382z"/>
</g>
<rect x="172.905182" y="61.790066" class="st2" width="3" height="3"/>
<path class="st3" d="M172.905182,61.790066 M175.905182,61.790066h-3v3.000004h3V61.790066z"/>
<g>
	<path d="M167.024445,62.011196c-0.407227,0.255371-0.902344,0.766113-0.902344,1.595703
		c0,0.766117,0.415039,1.404789,1.25293,1.53223v-2.346195c0-0.82959,0.455078-1.165039,0.982422-1.165039
		c0.757812,0,1.580078,0.726074,1.580078,1.907227c0,1.324711-0.942383,2.019047-1.916016,2.11475v1.500488h-0.646484v-1.500488
		c-0.957031-0.071777-1.946289-0.669922-1.946289-2.026859c0-1.109375,0.797852-1.779785,1.324219-2.00293L167.024445,62.011196z
		 M168.021515,65.13913c0.758789-0.103516,1.245117-0.693848,1.245117-1.587894c0-0.790039-0.462891-1.412598-0.90918-1.412598
		c-0.200195,0-0.335938,0.175781-0.335938,0.542969V65.13913z"/>
</g>
<g>
	<path d="M172.311554,60.031704c-0.582031,0.782227-1.004883,1.819824-1.004883,3.26416
		c0,1.420414,0.438477,2.441898,1.004883,3.240238h-0.549805c-0.50293-0.662598-1.045898-1.684082-1.045898-3.240238
		c0.007812-1.572266,0.542969-2.59375,1.045898-3.26416H172.311554z"/>
	<path d="M176.13382,66.536102c0.567383-0.790039,1.005859-1.827637,1.005859-3.264164
		c0-1.428711-0.430664-2.450195-1.005859-3.240234h0.542969c0.510742,0.654785,1.045898,1.67627,1.045898,3.248047
		c0,1.564457-0.535156,2.577641-1.045898,3.256351H176.13382z"/>
</g>
<rect x="145.725189" y="60.050014" class="st2" width="3" height="3"/>
<path class="st3" d="M145.725189,60.050014 M148.725189,60.050014h-3v3h3V60.050014z"/>
<g>
	<path d="M139.78421,60.270962c-0.407227,0.255371-0.902344,0.766113-0.902344,1.595703
		c0,0.766113,0.415039,1.404785,1.25293,1.532227V61.0527c0-0.82959,0.455078-1.165039,0.982422-1.165039
		c0.757812,0,1.580078,0.726074,1.580078,1.907227c0,1.324707-0.942383,2.019043-1.916016,2.114746v1.500492h-0.646484v-1.500492
		c-0.957031-0.071777-1.946289-0.669922-1.946289-2.026855c0-1.109375,0.797852-1.779785,1.324219-2.00293L139.78421,60.270962z
		 M140.781281,63.398891c0.758789-0.103516,1.245117-0.693848,1.245117-1.587891c0-0.790039-0.462891-1.412598-0.90918-1.412598
		c-0.200195,0-0.335938,0.175781-0.335938,0.542969V63.398891z"/>
</g>
<g>
	<path d="M145.07132,58.29147c-0.582031,0.782227-1.004883,1.819824-1.004883,3.26416
		c0,1.42041,0.438477,2.441895,1.004883,3.240238h-0.549805c-0.50293-0.662598-1.045898-1.684086-1.045898-3.240238
		c0.007812-1.572266,0.542969-2.59375,1.045898-3.26416H145.07132z"/>
	<path d="M148.893585,64.795868c0.567383-0.790039,1.005859-1.827641,1.005859-3.264164
		c0-1.428711-0.430664-2.450195-1.005859-3.240234h0.542969c0.510742,0.654785,1.045898,1.67627,1.045898,3.248047
		c0,1.564453-0.535156,2.577641-1.045898,3.256351H148.893585z"/>
</g>
<rect x="139.725189" y="45.050014" class="st2" width="3" height="3"/>
<path class="st3" d="M139.725189,45.050014 M142.725189,45.050014h-3v3h3V45.050014z"/>
<g>
	<path d="M133.78421,45.270962c-0.407227,0.255371-0.902344,0.766113-0.902344,1.595703
		c0,0.766113,0.415039,1.404785,1.25293,1.532227V46.0527c0-0.82959,0.455078-1.165039,0.982422-1.165039
		c0.757812,0,1.580078,0.726074,1.580078,1.907227c0,1.324707-0.942383,2.019043-1.916016,2.114746v1.500488h-0.646484v-1.500488
		c-0.957031-0.071777-1.946289-0.669922-1.946289-2.026855c0-1.109375,0.797852-1.779785,1.324219-2.00293L133.78421,45.270962z
		 M134.781281,48.398891c0.758789-0.103516,1.245117-0.693848,1.245117-1.587891c0-0.790039-0.462891-1.412598-0.90918-1.412598
		c-0.200195,0-0.335938,0.175781-0.335938,0.542969V48.398891z"/>
</g>
<g>
	<path d="M139.07132,43.29147c-0.582031,0.782227-1.004883,1.819824-1.004883,3.26416
		c0,1.42041,0.438477,2.441895,1.004883,3.240234h-0.549805c-0.50293-0.662598-1.045898-1.684082-1.045898-3.240234
		c0.007812-1.572266,0.542969-2.59375,1.045898-3.26416H139.07132z"/>
	<path d="M142.893585,49.795864c0.567383-0.790039,1.005859-1.827637,1.005859-3.26416
		c0-1.428711-0.430664-2.450195-1.005859-3.240234h0.542969c0.510742,0.654785,1.045898,1.67627,1.045898,3.248047
		c0,1.564453-0.535156,2.577637-1.045898,3.256348H142.893585z"/>
</g>
<rect x="184.905182" y="76.79007" class="st2" width="3" height="3"/>
<path class="st3" d="M184.905182,76.79007 M187.905182,76.79007h-3v3h3V76.79007z"/>
<g>
	<path d="M179.024445,77.0112c-0.407227,0.255371-0.902344,0.766113-0.902344,1.595703
		c0,0.766113,0.415039,1.404785,1.25293,1.532227v-2.346191c0-0.82959,0.455078-1.165039,0.982422-1.165039
		c0.757812,0,1.580078,0.726074,1.580078,1.907227c0,1.324707-0.942383,2.019043-1.916016,2.114746v1.500488h-0.646484v-1.500488
		c-0.957031-0.071777-1.946289-0.669922-1.946289-2.026855c0-1.109375,0.797852-1.779785,1.324219-2.00293L179.024445,77.0112z
		 M180.021515,80.13913c0.758789-0.103516,1.245117-0.693848,1.245117-1.587891c0-0.790039-0.462891-1.412598-0.90918-1.412598
		c-0.200195,0-0.335938,0.175781-0.335938,0.542969V80.13913z"/>
</g>
<g>
	<path d="M184.311554,75.031708c-0.582031,0.782227-1.004883,1.819824-1.004883,3.26416
		c0,1.42041,0.438477,2.441895,1.004883,3.240234h-0.549805c-0.50293-0.662598-1.045898-1.684082-1.045898-3.240234
		c0.007812-1.572266,0.542969-2.59375,1.045898-3.26416H184.311554z"/>
	<path d="M188.13382,81.536102c0.567383-0.790039,1.005859-1.827637,1.005859-3.26416
		c0-1.428711-0.430664-2.450195-1.005859-3.240234h0.542969c0.510742,0.654785,1.045898,1.67627,1.045898,3.248047
		c0,1.564453-0.535156,2.577637-1.045898,3.256348H188.13382z"/>
</g>
<rect x="151.725189" y="72.050018" class="st2" width="3" height="3"/>
<path class="st3" d="M151.725189,72.050018 M154.725189,72.050018h-3v3h3V72.050018z"/>
<g>
	<path d="M145.78421,72.270966c-0.407227,0.255371-0.902344,0.766113-0.902344,1.595703
		c0,0.766113,0.415039,1.404785,1.25293,1.532227v-2.346191c0-0.82959,0.455078-1.165039,0.982422-1.165039
		c0.757812,0,1.580078,0.726074,1.580078,1.907227c0,1.324707-0.942383,2.019043-1.916016,2.114746v1.500488h-0.646484v-1.500488
		c-0.957031-0.071777-1.946289-0.669922-1.946289-2.026855c0-1.109375,0.797852-1.779785,1.324219-2.00293L145.78421,72.270966z
		 M146.781281,75.398895c0.758789-0.103516,1.245117-0.693848,1.245117-1.587891c0-0.790039-0.462891-1.412598-0.90918-1.412598
		c-0.200195,0-0.335938,0.175781-0.335938,0.542969V75.398895z"/>
</g>
<g>
	<path d="M151.07132,70.291473c-0.582031,0.782227-1.004883,1.819824-1.004883,3.26416
		c0,1.42041,0.438477,2.441895,1.004883,3.240234h-0.549805c-0.50293-0.662598-1.045898-1.684082-1.045898-3.240234
		c0.007812-1.572266,0.542969-2.59375,1.045898-3.26416H151.07132z"/>
	<path d="M154.893585,76.795868c0.567383-0.790039,1.005859-1.827637,1.005859-3.26416
		c0-1.428711-0.430664-2.450195-1.005859-3.240234h0.542969c0.510742,0.654785,1.045898,1.67627,1.045898,3.248047
		c0,1.564453-0.535156,2.577637-1.045898,3.256348H154.893585z"/>
</g>
<g>
	<path d="M93.638206,32.444302c-0.816895,0.512695-1.810059,1.538086-1.810059,3.204102
		c0,1.538086,0.833008,2.819824,2.515137,3.076172v-4.710449c0-1.666016,0.913086-2.338867,1.970703-2.338867
		c1.521973,0,3.172363,1.458008,3.172363,3.829102c0,2.659668-1.890625,4.053223-3.845215,4.245605v3.012207h-1.297852v-3.012207
		c-1.922363-0.144043-3.90918-1.345703-3.90918-4.069336c0-2.227051,1.602051-3.572754,2.659668-4.021484L93.638206,32.444302z
		 M95.641136,38.724575c1.521973-0.208008,2.499512-1.394043,2.499512-3.188477c0-1.585938-0.929199-2.835449-1.82666-2.835449
		c-0.400391,0-0.672852,0.352051-0.672852,1.089355V38.724575z"/>
</g>
<g>
	<path d="M105.394554,28.470669c-1.169434,1.570312-2.018555,3.652832-2.018555,6.552734
		c0,2.852051,0.881348,4.902832,2.018555,6.504883h-1.105469c-1.009277-1.32959-2.098633-3.380371-2.098633-6.504883
		c0.016113-3.15625,1.089355-5.207031,2.098633-6.552734H105.394554z"/>
	<path d="M106.531273,38.756802c0-0.592773,0.400391-1.009277,0.960938-1.009277c0.561523,0,0.945312,0.416504,0.945312,1.009277
		c0,0.57666-0.368164,1.009277-0.960938,1.009277C106.916039,39.766079,106.531273,39.333462,106.531273,38.756802z"/>
	<path d="M109.318382,41.528286c1.137695-1.585938,2.018555-3.668945,2.018555-6.552734
		c0-2.867676-0.865234-4.918457-2.018555-6.504883h1.089844c1.025391,1.313965,2.098633,3.364746,2.098633,6.520996
		c0,3.140137-1.073242,5.174805-2.098633,6.536621H109.318382z"/>
</g>
<path class="st1" d="M188.625183,27.050014c-0.839996,0-1.5,0.660034-1.5,1.5c0,0.840027,0.660004,1.5,1.5,1.5
	c0.779999,0,1.5-0.659973,1.5-1.5C190.125183,27.710049,189.405182,27.050014,188.625183,27.050014"/>
<path class="st0" d="M188.625183,27.050014c-0.839996,0-1.5,0.660034-1.5,1.5c0,0.840027,0.660004,1.5,1.5,1.5
	c0.779999,0,1.5-0.659973,1.5-1.5C190.125183,27.710049,189.405182,27.050014,188.625183,27.050014z"/>
<g>
	<path d="M181.78421,27.270962c-0.407227,0.255371-0.902344,0.766113-0.902344,1.595703
		c0,0.766113,0.415039,1.404785,1.25293,1.532227V28.0527c0-0.82959,0.455078-1.165039,0.982422-1.165039
		c0.757812,0,1.580078,0.726074,1.580078,1.907227c0,1.324707-0.942383,2.019043-1.916016,2.114746v1.500488h-0.646484v-1.500488
		c-0.957031-0.071777-1.946289-0.669922-1.946289-2.026855c0-1.109375,0.797852-1.779785,1.324219-2.00293L181.78421,27.270962z
		 M182.781281,30.398891c0.758789-0.103516,1.245117-0.693848,1.245117-1.587891c0-0.790039-0.462891-1.412598-0.90918-1.412598
		c-0.200195,0-0.335938,0.175781-0.335938,0.542969V30.398891z"/>
</g>
<g>
	<path d="M187.07132,25.29147c-0.582031,0.782227-1.004883,1.819824-1.004883,3.26416
		c0,1.42041,0.438477,2.441895,1.004883,3.240234h-0.549805c-0.50293-0.662598-1.045898-1.684082-1.045898-3.240234
		c0.007812-1.572266,0.542969-2.59375,1.045898-3.26416H187.07132z"/>
	<path d="M190.893585,31.795864c0.567383-0.790039,1.005859-1.827637,1.005859-3.26416
		c0-1.428711-0.430664-2.450195-1.005859-3.240234h0.542969c0.510742,0.654785,1.045898,1.67627,1.045898,3.248047
		c0,1.564453-0.535156,2.577637-1.045898,3.256348H190.893585z"/>
</g>
<path class="st1" d="M164.625183,9.050015c-0.839996,0-1.5,0.660034-1.5,1.5c0,0.840027,0.660004,1.5,1.5,1.5
	c0.779999,0,1.5-0.659973,1.5-1.5C166.125183,9.71005,165.405182,9.050015,164.625183,9.050015"/>
<path class="st0" d="M164.625183,9.050015c-0.839996,0-1.5,0.660034-1.5,1.5c0,0.840027,0.660004,1.5,1.5,1.5
	c0.779999,0,1.5-0.659973,1.5-1.5C166.125183,9.71005,165.405182,9.050015,164.625183,9.050015z"/>
<g>
	<path d="M157.78421,9.270963c-0.407227,0.255371-0.902344,0.766113-0.902344,1.595703
		c0,0.766113,0.415039,1.404785,1.25293,1.532227v-2.346191c0-0.82959,0.455078-1.165039,0.982422-1.165039
		c0.757812,0,1.580078,0.726074,1.580078,1.907227c0,1.324707-0.942383,2.019043-1.916016,2.114746v1.500488h-0.646484v-1.500488
		c-0.957031-0.071777-1.946289-0.669922-1.946289-2.026855c0-1.109375,0.797852-1.779785,1.324219-2.00293L157.78421,9.270963z
		 M158.781281,12.398892c0.758789-0.103516,1.245117-0.693848,1.245117-1.587891c0-0.790039-0.462891-1.412598-0.90918-1.412598
		c-0.200195,0-0.335938,0.175781-0.335938,0.542969V12.398892z"/>
</g>
<g>
	<path d="M163.07132,7.29147c-0.582031,0.782227-1.004883,1.819825-1.004883,3.264161
		c0,1.42041,0.438477,2.441895,1.004883,3.240234h-0.549805c-0.50293-0.662598-1.045898-1.684082-1.045898-3.240234
		c0.007812-1.572266,0.542969-2.59375,1.045898-3.264161H163.07132z"/>
	<path d="M166.893585,13.795865c0.567383-0.790039,1.005859-1.827637,1.005859-3.26416
		c0-1.428711-0.430664-2.450195-1.005859-3.240235h0.542969c0.510742,0.654785,1.045898,1.67627,1.045898,3.248047
		c0,1.564453-0.535156,2.577637-1.045898,3.256348H166.893585z"/>
</g>
<path class="st1" d="M179.625183,36.050014c-0.839996,0-1.5,0.660034-1.5,1.5c0,0.840027,0.660004,1.5,1.5,1.5
	c0.779999,0,1.5-0.659973,1.5-1.5C181.125183,36.710049,180.405182,36.050014,179.625183,36.050014"/>
<path class="st0" d="M179.625183,36.050014c-0.839996,0-1.5,0.660034-1.5,1.5c0,0.840027,0.660004,1.5,1.5,1.5
	c0.779999,0,1.5-0.659973,1.5-1.5C181.125183,36.710049,180.405182,36.050014,179.625183,36.050014z"/>
<g>
	<path d="M172.78421,36.270962c-0.407227,0.255371-0.902344,0.766113-0.902344,1.595703
		c0,0.766113,0.415039,1.404785,1.25293,1.532227V37.0527c0-0.82959,0.455078-1.165039,0.982422-1.165039
		c0.757812,0,1.580078,0.726074,1.580078,1.907227c0,1.324707-0.942383,2.019043-1.916016,2.114746v1.500488h-0.646484v-1.500488
		c-0.957031-0.071777-1.946289-0.669922-1.946289-2.026855c0-1.109375,0.797852-1.779785,1.324219-2.00293L172.78421,36.270962z
		 M173.781281,39.398891c0.758789-0.103516,1.245117-0.693848,1.245117-1.587891c0-0.790039-0.462891-1.412598-0.90918-1.412598
		c-0.200195,0-0.335938,0.175781-0.335938,0.542969V39.398891z"/>
</g>
<g>
	<path d="M178.07132,34.29147c-0.582031,0.782227-1.004883,1.819824-1.004883,3.26416
		c0,1.42041,0.438477,2.441895,1.004883,3.240234h-0.549805c-0.50293-0.662598-1.045898-1.684082-1.045898-3.240234
		c0.007812-1.572266,0.542969-2.59375,1.045898-3.26416H178.07132z"/>
	<path d="M181.893585,40.795864c0.567383-0.790039,1.005859-1.827637,1.005859-3.26416
		c0-1.428711-0.430664-2.450195-1.005859-3.240234h0.542969c0.510742,0.654785,1.045898,1.67627,1.045898,3.248047
		c0,1.564453-0.535156,2.577637-1.045898,3.256348H181.893585z"/>
</g>
<path class="st1" d="M170.625183,24.050014c-0.839996,0-1.5,0.660034-1.5,1.5c0,0.840027,0.660004,1.5,1.5,1.5
	c0.779999,0,1.5-0.659973,1.5-1.5C172.125183,24.710049,171.405182,24.050014,170.625183,24.050014"/>
<path class="st0" d="M170.625183,24.050014c-0.839996,0-1.5,0.660034-1.5,1.5c0,0.840027,0.660004,1.5,1.5,1.5
	c0.779999,0,1.5-0.659973,1.5-1.5C172.125183,24.710049,171.405182,24.050014,170.625183,24.050014z"/>
<g>
	<path d="M163.78421,24.270962c-0.407227,0.255371-0.902344,0.766113-0.902344,1.595703
		c0,0.766113,0.415039,1.404785,1.25293,1.532227V25.0527c0-0.82959,0.455078-1.165039,0.982422-1.165039
		c0.757812,0,1.580078,0.726074,1.580078,1.907227c0,1.324707-0.942383,2.019043-1.916016,2.114746v1.500488h-0.646484v-1.500488
		c-0.957031-0.071777-1.946289-0.669922-1.946289-2.026855c0-1.109375,0.797852-1.779785,1.324219-2.00293L163.78421,24.270962z
		 M164.781281,27.398891c0.758789-0.103516,1.245117-0.693848,1.245117-1.587891c0-0.790039-0.462891-1.412598-0.90918-1.412598
		c-0.200195,0-0.335938,0.175781-0.335938,0.542969V27.398891z"/>
</g>
<g>
	<path d="M169.07132,22.29147c-0.582031,0.782227-1.004883,1.819824-1.004883,3.26416
		c0,1.42041,0.438477,2.441895,1.004883,3.240234h-0.549805c-0.50293-0.662598-1.045898-1.684082-1.045898-3.240234
		c0.007812-1.572266,0.542969-2.59375,1.045898-3.26416H169.07132z"/>
	<path d="M172.893585,28.795864c0.567383-0.790039,1.005859-1.827637,1.005859-3.26416
		c0-1.428711-0.430664-2.450195-1.005859-3.240234h0.542969c0.510742,0.654785,1.045898,1.67627,1.045898,3.248047
		c0,1.564453-0.535156,2.577637-1.045898,3.256348H172.893585z"/>
</g>
<path class="st1" d="M176.625183,15.050015c-0.839996,0-1.5,0.660034-1.5,1.499999c0,0.840027,0.660004,1.5,1.5,1.5
	c0.779999,0,1.5-0.659973,1.5-1.5C178.125183,15.71005,177.405182,15.050015,176.625183,15.050015"/>
<path class="st0" d="M176.625183,15.050015c-0.839996,0-1.5,0.660034-1.5,1.499999c0,0.840027,0.660004,1.5,1.5,1.5
	c0.779999,0,1.5-0.659973,1.5-1.5C178.125183,15.71005,177.405182,15.050015,176.625183,15.050015z"/>
<g>
	<path d="M169.78421,15.270963c-0.407227,0.255371-0.902344,0.766112-0.902344,1.595702
		c0,0.766113,0.415039,1.404785,1.25293,1.532227V16.0527c0-0.829589,0.455078-1.165038,0.982422-1.165038
		c0.757812,0,1.580078,0.726074,1.580078,1.907226c0,1.324707-0.942383,2.019043-1.916016,2.114746v1.500488h-0.646484v-1.500488
		c-0.957031-0.071777-1.946289-0.669922-1.946289-2.026855c0-1.109374,0.797852-1.779784,1.324219-2.002929L169.78421,15.270963z
		 M170.781281,18.398891c0.758789-0.103516,1.245117-0.693848,1.245117-1.587891c0-0.790039-0.462891-1.412597-0.90918-1.412597
		c-0.200195,0-0.335938,0.175781-0.335938,0.542969V18.398891z"/>
</g>
<g>
	<path d="M175.07132,13.291471c-0.582031,0.782227-1.004883,1.819824-1.004883,3.264159
		c0,1.42041,0.438477,2.441895,1.004883,3.240234h-0.549805c-0.50293-0.662598-1.045898-1.684082-1.045898-3.240234
		c0.007812-1.572265,0.542969-2.593749,1.045898-3.264159H175.07132z"/>
	<path d="M178.893585,19.795864c0.567383-0.790039,1.005859-1.827637,1.005859-3.26416
		c0-1.42871-0.430664-2.450194-1.005859-3.240233h0.542969c0.510742,0.654785,1.045898,1.67627,1.045898,3.248046
		c0,1.564453-0.535156,2.577637-1.045898,3.256348H178.893585z"/>
</g>
<path class="st1" d="M197.625183,58.790066c-0.839996,0-1.5,0.659973-1.5,1.5c0,0.839966,0.660004,1.5,1.5,1.5
	c0.779999,0,1.5-0.660034,1.5-1.5C199.125183,59.450039,198.405182,58.790066,197.625183,58.790066"/>
<path class="st0" d="M197.625183,58.790066c-0.839996,0-1.5,0.659973-1.5,1.5c0,0.839966,0.660004,1.5,1.5,1.5
	c0.779999,0,1.5-0.660034,1.5-1.5C199.125183,59.450039,198.405182,58.790066,197.625183,58.790066z"/>
<g>
	<path d="M190.78421,59.011196c-0.407227,0.255371-0.902344,0.766113-0.902344,1.595703
		c0,0.766113,0.415039,1.404785,1.25293,1.532227v-2.346191c0-0.82959,0.455078-1.165039,0.982422-1.165039
		c0.757812,0,1.580078,0.726074,1.580078,1.907227c0,1.324707-0.942383,2.019043-1.916016,2.114746v1.500492h-0.646484v-1.500492
		c-0.957031-0.071777-1.946289-0.669922-1.946289-2.026855c0-1.109375,0.797852-1.779785,1.324219-2.00293L190.78421,59.011196z
		 M191.781281,62.139126c0.758789-0.103516,1.245117-0.693848,1.245117-1.587891c0-0.790039-0.462891-1.412598-0.90918-1.412598
		c-0.200195,0-0.335938,0.175781-0.335938,0.542969V62.139126z"/>
</g>
<g>
	<path d="M196.07132,57.031704c-0.582031,0.782227-1.004883,1.819824-1.004883,3.26416
		c0,1.42041,0.438477,2.441895,1.004883,3.240234h-0.549805c-0.50293-0.662598-1.045898-1.684082-1.045898-3.240234
		c0.007812-1.572266,0.542969-2.59375,1.045898-3.26416H196.07132z"/>
	<path d="M199.893585,63.536098c0.567383-0.790039,1.005859-1.827637,1.005859-3.26416
		c0-1.428711-0.430664-2.450195-1.005859-3.240234h0.542969c0.510742,0.654785,1.045898,1.67627,1.045898,3.248047
		c0,1.564453-0.535156,2.577637-1.045898,3.256348H199.893585z"/>
</g>
<path class="st1" d="M206.625183,21.050014c-0.839996,0-1.5,0.660034-1.5,1.5c0,0.840027,0.660004,1.5,1.5,1.5
	c0.779999,0,1.5-0.659973,1.5-1.5C208.125183,21.710049,207.405182,21.050014,206.625183,21.050014"/>
<path class="st0" d="M206.625183,21.050014c-0.839996,0-1.5,0.660034-1.5,1.5c0,0.840027,0.660004,1.5,1.5,1.5
	c0.779999,0,1.5-0.659973,1.5-1.5C208.125183,21.710049,207.405182,21.050014,206.625183,21.050014z"/>
<g>
	<path d="M199.78421,21.270962c-0.407227,0.255371-0.902344,0.766113-0.902344,1.595703
		c0,0.766113,0.415039,1.404785,1.25293,1.532227V22.0527c0-0.82959,0.455078-1.165039,0.982422-1.165039
		c0.757812,0,1.580078,0.726074,1.580078,1.907227c0,1.324707-0.942383,2.019043-1.916016,2.114746v1.500488h-0.646484v-1.500488
		c-0.957031-0.071777-1.946289-0.669922-1.946289-2.026855c0-1.109375,0.797852-1.779785,1.324219-2.00293L199.78421,21.270962z
		 M200.781281,24.398891c0.758789-0.103516,1.245117-0.693848,1.245117-1.587891c0-0.790039-0.462891-1.412598-0.90918-1.412598
		c-0.200195,0-0.335938,0.175781-0.335938,0.542969V24.398891z"/>
</g>
<g>
	<path d="M205.07132,19.29147c-0.582031,0.782227-1.004883,1.819824-1.004883,3.26416
		c0,1.42041,0.438477,2.441895,1.004883,3.240234h-0.549805c-0.50293-0.662598-1.045898-1.684082-1.045898-3.240234
		c0.007812-1.572266,0.542969-2.59375,1.045898-3.26416H205.07132z"/>
	<path d="M208.893585,25.795864c0.567383-0.790039,1.005859-1.827637,1.005859-3.26416
		c0-1.428711-0.430664-2.450195-1.005859-3.240234h0.542969c0.510742,0.654785,1.045898,1.67627,1.045898,3.248047
		c0,1.564453-0.535156,2.577637-1.045898,3.256348H208.893585z"/>
</g>
<path class="st1" d="M197.625183,42.050014c-0.839996,0-1.5,0.660034-1.5,1.5c0,0.840027,0.660004,1.5,1.5,1.5
	c0.779999,0,1.5-0.659973,1.5-1.5C199.125183,42.710049,198.405182,42.050014,197.625183,42.050014"/>
<path class="st0" d="M197.625183,42.050014c-0.839996,0-1.5,0.660034-1.5,1.5c0,0.840027,0.660004,1.5,1.5,1.5
	c0.779999,0,1.5-0.659973,1.5-1.5C199.125183,42.710049,198.405182,42.050014,197.625183,42.050014z"/>
<g>
	<path d="M190.78421,42.270962c-0.407227,0.255371-0.902344,0.766113-0.902344,1.595703
		c0,0.766113,0.415039,1.404785,1.25293,1.532227V43.0527c0-0.82959,0.455078-1.165039,0.982422-1.165039
		c0.757812,0,1.580078,0.726074,1.580078,1.907227c0,1.324707-0.942383,2.019043-1.916016,2.114746v1.500488h-0.646484v-1.500488
		c-0.957031-0.071777-1.946289-0.669922-1.946289-2.026855c0-1.109375,0.797852-1.779785,1.324219-2.00293L190.78421,42.270962z
		 M191.781281,45.398891c0.758789-0.103516,1.245117-0.693848,1.245117-1.587891c0-0.790039-0.462891-1.412598-0.90918-1.412598
		c-0.200195,0-0.335938,0.175781-0.335938,0.542969V45.398891z"/>
</g>
<g>
	<path d="M196.07132,40.29147c-0.582031,0.782227-1.004883,1.819824-1.004883,3.26416
		c0,1.42041,0.438477,2.441895,1.004883,3.240234h-0.549805c-0.50293-0.662598-1.045898-1.684082-1.045898-3.240234
		c0.007812-1.572266,0.542969-2.59375,1.045898-3.26416H196.07132z"/>
	<path d="M199.893585,46.795864c0.567383-0.790039,1.005859-1.827637,1.005859-3.26416
		c0-1.428711-0.430664-2.450195-1.005859-3.240234h0.542969c0.510742,0.654785,1.045898,1.67627,1.045898,3.248047
		c0,1.564453-0.535156,2.577637-1.045898,3.256348H199.893585z"/>
</g>
<path class="st1" d="M191.625183,49.790066c-0.839996,0-1.5,0.659973-1.5,1.5c0,0.839966,0.660004,1.5,1.5,1.5
	c0.779999,0,1.5-0.660034,1.5-1.5C193.125183,50.450039,192.405182,49.790066,191.625183,49.790066"/>
<path class="st0" d="M191.625183,49.790066c-0.839996,0-1.5,0.659973-1.5,1.5c0,0.839966,0.660004,1.5,1.5,1.5
	c0.779999,0,1.5-0.660034,1.5-1.5C193.125183,50.450039,192.405182,49.790066,191.625183,49.790066z"/>
<g>
	<path d="M184.78421,50.011196c-0.407227,0.255371-0.902344,0.766113-0.902344,1.595703
		c0,0.766113,0.415039,1.404785,1.25293,1.532227v-2.346191c0-0.82959,0.455078-1.165039,0.982422-1.165039
		c0.757812,0,1.580078,0.726074,1.580078,1.907227c0,1.324707-0.942383,2.019043-1.916016,2.114746v1.500488h-0.646484v-1.500488
		c-0.957031-0.071777-1.946289-0.669922-1.946289-2.026855c0-1.109375,0.797852-1.779785,1.324219-2.00293L184.78421,50.011196z
		 M185.781281,53.139126c0.758789-0.103516,1.245117-0.693848,1.245117-1.587891c0-0.790039-0.462891-1.412598-0.90918-1.412598
		c-0.200195,0-0.335938,0.175781-0.335938,0.542969V53.139126z"/>
</g>
<g>
	<path d="M190.07132,48.031704c-0.582031,0.782227-1.004883,1.819824-1.004883,3.26416
		c0,1.42041,0.438477,2.441895,1.004883,3.240234h-0.549805c-0.50293-0.662598-1.045898-1.684082-1.045898-3.240234
		c0.007812-1.572266,0.542969-2.59375,1.045898-3.26416H190.07132z"/>
	<path d="M193.893585,54.536098c0.567383-0.790039,1.005859-1.827637,1.005859-3.26416
		c0-1.428711-0.430664-2.450195-1.005859-3.240234h0.542969c0.510742,0.654785,1.045898,1.67627,1.045898,3.248047
		c0,1.564453-0.535156,2.577637-1.045898,3.256348H193.893585z"/>
</g>
<path class="st1" d="M212.805176,45.050014c-0.839996,0-1.5,0.660034-1.5,1.5c0,0.840027,0.660004,1.5,1.5,1.5
	c0.779999,0,1.5-0.659973,1.5-1.5C214.305176,45.710049,213.585175,45.050014,212.805176,45.050014"/>
<path class="st0" d="M212.805176,45.050014c-0.839996,0-1.5,0.660034-1.5,1.5c0,0.840027,0.660004,1.5,1.5,1.5
	c0.779999,0,1.5-0.659973,1.5-1.5C214.305176,45.710049,213.585175,45.050014,212.805176,45.050014z"/>
<g>
	<path d="M206.024445,45.270962c-0.407227,0.255371-0.902344,0.766113-0.902344,1.595703
		c0,0.766113,0.415039,1.404785,1.25293,1.532227V46.0527c0-0.82959,0.455078-1.165039,0.982422-1.165039
		c0.757812,0,1.580078,0.726074,1.580078,1.907227c0,1.324707-0.942383,2.019043-1.916016,2.114746v1.500488h-0.646484v-1.500488
		c-0.957031-0.071777-1.946289-0.669922-1.946289-2.026855c0-1.109375,0.797852-1.779785,1.324219-2.00293L206.024445,45.270962z
		 M207.021515,48.398891c0.758789-0.103516,1.245117-0.693848,1.245117-1.587891c0-0.790039-0.462891-1.412598-0.90918-1.412598
		c-0.200195,0-0.335938,0.175781-0.335938,0.542969V48.398891z"/>
</g>
<g>
	<path d="M211.311554,43.29147c-0.582031,0.782227-1.004883,1.819824-1.004883,3.26416
		c0,1.42041,0.438477,2.441895,1.004883,3.240234h-0.549805c-0.50293-0.662598-1.045898-1.684082-1.045898-3.240234
		c0.007812-1.572266,0.542969-2.59375,1.045898-3.26416H211.311554z"/>
	<path d="M215.13382,49.795864c0.567383-0.790039,1.005859-1.827637,1.005859-3.26416
		c0-1.428711-0.430664-2.450195-1.005859-3.240234h0.542969c0.510742,0.654785,1.045898,1.67627,1.045898,3.248047
		c0,1.564453-0.535156,2.577637-1.045898,3.256348H215.13382z"/>
</g>
<g>
	<path d="M148.332062,86.354462h2.902344v0.583984h-2.206055v1.791016h2.038086v0.575684h-2.038086v2.438477h-0.696289V86.354462z"
		/>
	<path d="M152.59671,89.936493c0.015625,0.95166,0.624023,1.343262,1.327148,1.343262
		c0.503906,0,0.807617-0.087891,1.071289-0.199707l0.120117,0.503906c-0.248047,0.111816-0.671875,0.239746-1.287109,0.239746
		c-1.191406,0-1.90332-0.783691-1.90332-1.951172s0.6875-2.086914,1.81543-2.086914c1.262695,0,1.598633,1.111816,1.598633,1.823242
		c0,0.144043-0.015625,0.255859-0.023438,0.327637H152.59671z M154.65921,89.433075
		c0.007812-0.447754-0.183594-1.143555-0.975586-1.143555c-0.710938,0-1.023438,0.655762-1.079102,1.143555H154.65921z"/>
	<path d="M158.355499,91.743622l-0.055664-0.487793h-0.024414c-0.21582,0.303711-0.631836,0.575684-1.183594,0.575684
		c-0.783203,0-1.182617-0.551758-1.182617-1.111328c0-0.935547,0.831055-1.447266,2.326172-1.438965v-0.080078
		c0-0.319824-0.087891-0.895508-0.879883-0.895508c-0.359375,0-0.735352,0.111816-1.006836,0.287598l-0.160156-0.463379
		c0.320312-0.208008,0.78418-0.344238,1.271484-0.344238c1.183594,0,1.470703,0.807617,1.470703,1.583496v1.447266
		c0,0.335449,0.016602,0.663574,0.064453,0.927246H158.355499z M158.251984,89.768524
		c-0.767578-0.015625-1.639648,0.120117-1.639648,0.871582c0,0.456055,0.303711,0.671875,0.664062,0.671875
		c0.50293,0,0.823242-0.319824,0.935547-0.647949c0.023438-0.071777,0.040039-0.151855,0.040039-0.223633V89.768524z"/>
	<path d="M160.916046,86.762177v1.111816h1.006836v0.535645h-1.006836v2.086426c0,0.47998,0.135742,0.751953,0.527344,0.751953
		c0.183594,0,0.319336-0.023926,0.408203-0.047852l0.03125,0.527344c-0.135742,0.056152-0.351562,0.096191-0.623047,0.096191
		c-0.328125,0-0.591797-0.104004-0.759766-0.295898c-0.200195-0.208008-0.272461-0.551758-0.272461-1.007324v-2.11084h-0.599609
		v-0.535645h0.599609v-0.927734L160.916046,86.762177z"/>
	<path d="M165.955109,90.688446c0,0.399414,0.007812,0.751465,0.03125,1.055176h-0.623047l-0.040039-0.631836h-0.016602
		c-0.183594,0.312012-0.59082,0.719727-1.279297,0.719727c-0.607422,0-1.334961-0.335938-1.334961-1.694824v-2.262695h0.704102
		v2.142578c0,0.735352,0.223633,1.231445,0.863281,1.231445c0.47168,0,0.799805-0.328125,0.927734-0.639648
		c0.040039-0.104004,0.063477-0.231934,0.063477-0.359863v-2.374512h0.704102V90.688446z"/>
	<path d="M167.092804,89.081024c0-0.455566-0.008789-0.847656-0.032227-1.207031h0.615234l0.024414,0.759277h0.032227
		c0.175781-0.519531,0.599609-0.847656,1.071289-0.847656c0.080078,0,0.135742,0.008301,0.200195,0.023926v0.664062
		c-0.072266-0.016113-0.144531-0.024414-0.240234-0.024414c-0.496094,0-0.847656,0.375977-0.943359,0.903809
		c-0.016602,0.095703-0.032227,0.208008-0.032227,0.327637v2.062988h-0.695312V89.081024z"/>
	<path d="M170.108429,89.936493c0.015625,0.95166,0.624023,1.343262,1.327148,1.343262
		c0.503906,0,0.807617-0.087891,1.071289-0.199707l0.120117,0.503906c-0.248047,0.111816-0.671875,0.239746-1.287109,0.239746
		c-1.191406,0-1.90332-0.783691-1.90332-1.951172s0.6875-2.086914,1.81543-2.086914c1.262695,0,1.598633,1.111816,1.598633,1.823242
		c0,0.144043-0.015625,0.255859-0.023438,0.327637H170.108429z M172.170929,89.433075
		c0.007812-0.447754-0.183594-1.143555-0.975586-1.143555c-0.710938,0-1.023438,0.655762-1.079102,1.143555H172.170929z"/>
	<path d="M175.323273,91.023895c0.208008,0.13623,0.576172,0.279785,0.927734,0.279785
		c0.511719,0,0.751953-0.255859,0.751953-0.575684c0-0.335449-0.200195-0.519531-0.719727-0.711426
		c-0.695312-0.248047-1.023438-0.631836-1.023438-1.095215c0-0.624023,0.503906-1.135742,1.334961-1.135742
		c0.391602,0,0.735352,0.112305,0.952148,0.240234l-0.176758,0.511719c-0.151367-0.096191-0.431641-0.224121-0.791016-0.224121
		c-0.416016,0-0.647461,0.239746-0.647461,0.527832c0,0.319824,0.231445,0.463867,0.735352,0.655762
		c0.671875,0.255859,1.015625,0.591309,1.015625,1.166992c0,0.679688-0.52832,1.159668-1.447266,1.159668
		c-0.423828,0-0.81543-0.104004-1.087891-0.26416L175.323273,91.023895z"/>
	<path d="M178.587921,89.137177c0-0.495605-0.016602-0.895508-0.032227-1.263184h0.631836l0.03125,0.663574h0.016602
		c0.288086-0.472168,0.743164-0.751953,1.375-0.751953c0.935547,0,1.639648,0.791504,1.639648,1.967285
		c0,1.391113-0.847656,2.078613-1.759766,2.078613c-0.511719,0-0.958984-0.223633-1.191406-0.607422h-0.015625v2.102539h-0.695312
		V89.137177z M179.283234,90.168427c0,0.104004,0.015625,0.199707,0.032227,0.288086
		c0.12793,0.487793,0.551758,0.823242,1.055664,0.823242c0.743164,0,1.174805-0.607422,1.174805-1.495117
		c0-0.775391-0.407227-1.438965-1.151367-1.438965c-0.479492,0-0.927734,0.34375-1.063477,0.871094
		c-0.023438,0.088379-0.047852,0.192383-0.047852,0.288086V90.168427z"/>
	<path d="M185.282257,91.743622l-0.055664-0.487793h-0.024414c-0.21582,0.303711-0.631836,0.575684-1.183594,0.575684
		c-0.783203,0-1.182617-0.551758-1.182617-1.111328c0-0.935547,0.831055-1.447266,2.326172-1.438965v-0.080078
		c0-0.319824-0.087891-0.895508-0.878906-0.895508c-0.360352,0-0.736328,0.111816-1.007812,0.287598l-0.160156-0.463379
		c0.320312-0.208008,0.783203-0.344238,1.271484-0.344238c1.183594,0,1.470703,0.807617,1.470703,1.583496v1.447266
		c0,0.335449,0.016602,0.663574,0.064453,0.927246H185.282257z M185.177765,89.768524
		c-0.767578-0.015625-1.638672,0.120117-1.638672,0.871582c0,0.456055,0.303711,0.671875,0.664062,0.671875
		c0.50293,0,0.823242-0.319824,0.935547-0.647949c0.023438-0.071777,0.039062-0.151855,0.039062-0.223633V89.768524z"/>
	<path d="M189.753937,91.599579c-0.183594,0.096191-0.591797,0.224121-1.111328,0.224121
		c-1.166992,0-1.926758-0.791504-1.926758-1.975098c0-1.191406,0.81543-2.054688,2.079102-2.054688
		c0.416016,0,0.783203,0.104004,0.975586,0.199707l-0.160156,0.543945c-0.167969-0.096191-0.431641-0.184082-0.81543-0.184082
		c-0.887695,0-1.367188,0.655762-1.367188,1.463379c0,0.895508,0.575195,1.446777,1.342773,1.446777
		c0.400391,0,0.664062-0.103516,0.864258-0.191406L189.753937,91.599579z"/>
	<path d="M190.97171,89.936493c0.015625,0.95166,0.624023,1.343262,1.327148,1.343262
		c0.503906,0,0.807617-0.087891,1.071289-0.199707l0.120117,0.503906c-0.248047,0.111816-0.671875,0.239746-1.287109,0.239746
		c-1.191406,0-1.90332-0.783691-1.90332-1.951172s0.6875-2.086914,1.81543-2.086914c1.262695,0,1.598633,1.111816,1.598633,1.823242
		c0,0.144043-0.015625,0.255859-0.023438,0.327637H190.97171z M193.03421,89.433075
		c0.007812-0.447754-0.183594-1.143555-0.975586-1.143555c-0.710938,0-1.023438,0.655762-1.079102,1.143555H193.03421z"/>
</g>
<g>
	<path d="M24.266628,86.530243v5.38916h-0.695312v-5.38916H24.266628z"/>
	<path d="M25.459011,89.097137c0-0.399902-0.007812-0.728027-0.031738-1.047363h0.623535l0.040039,0.639648h0.016113
		c0.191895-0.368164,0.639648-0.728027,1.279297-0.728027c0.535645,0,1.367188,0.319824,1.367188,1.647461v2.310547h-0.703613
		v-2.230957c0-0.623535-0.231934-1.143066-0.895508-1.143066c-0.463867,0-0.82373,0.327637-0.943359,0.719238
		c-0.032227,0.088379-0.04834,0.208008-0.04834,0.328125v2.32666h-0.703613V89.097137z"/>
	<path d="M29.898952,89.312958c0-0.495605-0.015625-0.895508-0.031738-1.263184h0.631836l0.031738,0.663574h0.016113
		c0.287598-0.472168,0.743652-0.751953,1.375-0.751953c0.935547,0,1.63916,0.791504,1.63916,1.967285
		c0,1.391113-0.847656,2.078613-1.758789,2.078613c-0.511719,0-0.959473-0.223633-1.191406-0.607422h-0.016113v2.102539h-0.695801
		V89.312958z M30.594753,90.344208c0,0.104004,0.016113,0.199707,0.032227,0.288086
		c0.12793,0.487793,0.55127,0.823242,1.055176,0.823242c0.743652,0,1.175293-0.607422,1.175293-1.495117
		c0-0.775391-0.407715-1.438965-1.151367-1.438965c-0.479492,0-0.927246,0.34375-1.063477,0.871094
		c-0.023926,0.088379-0.047852,0.192383-0.047852,0.288086V90.344208z"/>
	<path d="M37.688992,90.864227c0,0.399414,0.008301,0.751465,0.032227,1.055176h-0.623535l-0.040039-0.631836h-0.016113
		c-0.184082,0.312012-0.591797,0.719727-1.279297,0.719727c-0.60791,0-1.335449-0.335938-1.335449-1.694824v-2.262695h0.703613
		v2.142578c0,0.735352,0.224121,1.231445,0.86377,1.231445c0.47168,0,0.799316-0.328125,0.927246-0.639648
		c0.040039-0.104004,0.063965-0.231934,0.063965-0.359863v-2.374512h0.703613V90.864227z"/>
	<path d="M39.70657,86.937958v1.111816h1.007324v0.535645H39.70657v2.086426c0,0.47998,0.13623,0.751953,0.527832,0.751953
		c0.183594,0,0.319824-0.023926,0.407715-0.047852l0.031738,0.527344c-0.135742,0.056152-0.351562,0.096191-0.623535,0.096191
		c-0.327637,0-0.591309-0.104004-0.759277-0.295898c-0.200195-0.208008-0.271973-0.551758-0.271973-1.007324v-2.11084H38.41946
		v-0.535645h0.599609V87.12204L39.70657,86.937958z"/>
	<path d="M43.10696,91.199677c0.208008,0.13623,0.575684,0.279785,0.927246,0.279785
		c0.511719,0,0.751953-0.255859,0.751953-0.575684c0-0.335449-0.200195-0.519531-0.719727-0.711426
		c-0.695801-0.248047-1.023438-0.631836-1.023438-1.095215c0-0.624023,0.503906-1.135742,1.334961-1.135742
		c0.39209,0,0.73584,0.112305,0.95166,0.240234l-0.175781,0.511719c-0.151855-0.096191-0.431641-0.224121-0.791504-0.224121
		c-0.416016,0-0.647949,0.239746-0.647949,0.527832c0,0.319824,0.231934,0.463867,0.73584,0.655762
		c0.671387,0.255859,1.015625,0.591309,1.015625,1.166992c0,0.679688-0.527832,1.159668-1.447266,1.159668
		c-0.423828,0-0.815918-0.104004-1.087402-0.26416L43.10696,91.199677z"/>
	<path d="M46.370632,89.312958c0-0.495605-0.015625-0.895508-0.031738-1.263184h0.631836l0.031738,0.663574h0.016113
		c0.287598-0.472168,0.743652-0.751953,1.375-0.751953c0.935547,0,1.63916,0.791504,1.63916,1.967285
		c0,1.391113-0.847656,2.078613-1.758789,2.078613c-0.511719,0-0.959473-0.223633-1.191406-0.607422h-0.016113v2.102539h-0.695801
		V89.312958z M47.066433,90.344208c0,0.104004,0.016113,0.199707,0.032227,0.288086
		c0.12793,0.487793,0.55127,0.823242,1.055176,0.823242c0.743652,0,1.175293-0.607422,1.175293-1.495117
		c0-0.775391-0.407715-1.438965-1.151367-1.438965c-0.479492,0-0.927246,0.34375-1.063477,0.871094
		c-0.023926,0.088379-0.047852,0.192383-0.047852,0.288086V90.344208z"/>
	<path d="M53.065456,91.919403l-0.056152-0.487793h-0.023926c-0.21582,0.303711-0.631836,0.575684-1.183105,0.575684
		c-0.783691,0-1.183594-0.551758-1.183594-1.111328c0-0.935547,0.831543-1.447266,2.32666-1.438965v-0.080078
		c0-0.319824-0.087891-0.895508-0.879395-0.895508c-0.359863,0-0.73584,0.111816-1.007324,0.287598l-0.160156-0.463379
		c0.319824-0.208008,0.783691-0.344238,1.271484-0.344238c1.183105,0,1.471191,0.807617,1.471191,1.583496v1.447266
		c0,0.335449,0.016113,0.663574,0.063965,0.927246H53.065456z M52.961452,89.944305
		c-0.767578-0.015625-1.63916,0.120117-1.63916,0.871582c0,0.456055,0.303711,0.671875,0.663574,0.671875
		c0.503906,0,0.82373-0.319824,0.935547-0.647949c0.023926-0.071777,0.040039-0.151855,0.040039-0.223633V89.944305z"/>
	<path d="M57.537136,91.77536c-0.184082,0.096191-0.591797,0.224121-1.111328,0.224121
		c-1.16748,0-1.927246-0.791504-1.927246-1.975098c0-1.191406,0.815918-2.054688,2.079102-2.054688
		c0.415527,0,0.783691,0.104004,0.975098,0.199707l-0.159668,0.543945c-0.167969-0.096191-0.431641-0.184082-0.81543-0.184082
		c-0.887695,0-1.367188,0.655762-1.367188,1.463379c0,0.895508,0.575684,1.446777,1.343262,1.446777
		c0.399414,0,0.663574-0.103516,0.863281-0.191406L57.537136,91.77536z"/>
	<path d="M58.754421,90.112274c0.016113,0.95166,0.623535,1.343262,1.327148,1.343262
		c0.503906,0,0.807617-0.087891,1.071289-0.199707l0.120117,0.503906c-0.248047,0.111816-0.671875,0.239746-1.287598,0.239746
		c-1.190918,0-1.902832-0.783691-1.902832-1.951172s0.687988-2.086914,1.814941-2.086914
		c1.263672,0,1.599121,1.111816,1.599121,1.823242c0,0.144043-0.015625,0.255859-0.023926,0.327637H58.754421z M60.81741,89.608856
		c0.007812-0.447754-0.184082-1.143555-0.975586-1.143555c-0.711914,0-1.023438,0.655762-1.07959,1.143555H60.81741z"/>
</g>
<g>
	<g>
		<line class="st4" x1="86.525871" y1="45.526638" x2="116.80706" y2="45.526638"/>
		<g>
			<polygon points="113.998497,49.229763 115.571709,45.526638 113.998497,41.823513 122.776817,45.526638 			"/>
		</g>
	</g>
</g>
<g>
</g>
</svg>
