<?xml version="1.0" encoding="UTF-8"?>
<svg id="Layer_1" xmlns="http://www.w3.org/2000/svg" version="1.1" viewBox="0 0 116.551952 107.276141">
  <!-- Generator: Adobe Illustrator 29.3.1, SVG Export Plug-In . SVG Version: 2.1.0 Build 151)  -->
  <defs>
    <style>
      .st0, .st1 {
        stroke: red;
      }

      .st0, .st1, .st2, .st3, .st4, .st5, .st6 {
        fill: none;
        stroke-linecap: round;
        stroke-linejoin: round;
      }

      .st0, .st2, .st3, .st6 {
        stroke-width: .26256px;
      }

      .st1, .st4, .st5 {
        stroke-width: .525px;
      }

      .st7 {
        font-family: Helvetica, Helvetica;
        font-size: 4.2px;
      }

      .st2, .st4 {
        stroke: #000;
      }

      .st3 {
        stroke: blue;
      }

      .st5, .st6 {
        stroke: lime;
      }
    </style>
  </defs>
  <polyline class="st1" points="10.203771 6.617121 10.305776 7.215922 10.410177 7.800318 10.510976 8.370326 10.616567 8.927119 10.718572 9.476725 10.822973 10.011927 10.924978 10.537516 11.029378 11.048716 11.131368 11.552714 11.235769 12.045924 11.337774 12.529521 11.442175 13.001124 11.544164 13.466715 11.648565 13.92512 11.75057 14.370326 11.854971 14.810725 11.956976 15.241526 12.062566 15.665125 12.163366 16.081523 12.267767 16.487116 12.369772 16.890315 12.475378 17.282725 12.576177 17.670313 12.681768 18.051921 12.782568 18.426325 12.888174 18.793528 12.988973 19.15832 13.094564 19.511119 13.196569 19.861521 13.30097 20.208323 13.402975 20.547923 13.507375 20.88032 13.609365 21.209117 13.713766 21.534327 13.815771 21.853526 13.920171 22.167918 14.022176 22.476328 14.126577 22.781123 14.228567 23.081126 14.334173 23.378718 14.434972 23.669123 14.539373 23.957118 14.641378 24.240321 14.746969 24.519923 14.847768 24.797114 14.953374 25.069514 15.054174 25.334727 15.159765 25.601115 15.260564 25.860316 15.36617 26.119517 15.46697 26.371516 15.572576 26.623515 15.673376 26.871913 15.778966 27.113124 15.880972 27.355525 15.985372 27.593119 16.086172 27.827113 16.191778 28.062327 16.293768 28.289118 16.398168 28.517115 16.500173 28.740321 16.605764 28.961115 16.706564 29.178324 16.810964 29.395518 16.912969 29.605525 17.018575 29.819117 17.119375 30.025523 17.224966 30.231928 17.325765 30.434718 17.431371 30.635127 17.532171 30.834315 17.637777 31.029917 17.738576 31.221919 17.844167 31.415125 17.944967 31.603526 18.050573 31.793116 18.152578 31.977915 18.256979 32.160319 18.357778 32.342723 18.463369 32.52032 18.565374 32.699122 18.669775 32.874323 18.771764 33.049525 18.876165 33.221125 18.97817 33.389124 19.082571 33.560725 19.184576 33.725123 19.288976 33.889521 19.390966 34.053919 19.496572 34.214717 19.597372 34.375514 19.702978 34.533915 19.803777 34.691126 19.909368 34.844721 20.010168 34.999522 20.115774 35.149516 20.216573 35.299525 20.322164 35.450724 20.424169 35.597117 20.52857 35.744715 20.629369 35.887522 20.734975 36.03152 20.836965 36.175517 20.941366 36.314723 21.043371 36.455119 21.147771 36.591914 21.249776 36.727519 21.354177 36.864314 21.456167 36.997523 21.560567 37.130717 21.662572 37.263926 21.766973 37.393519 21.868978 37.521922 21.973379 37.65272 22.075368 37.777522 22.180975 37.903529 22.281774 38.029521 22.386175 38.151927 22.488164 38.275523 22.593771 38.397914 22.695776 38.516718 22.800176 38.635523 22.900976 38.754328 23.006567 38.873118 23.108572 38.989527 23.212972 39.104731 23.314977 39.21992 23.419363 39.332728 23.521368 39.444316 23.625768 39.555918 23.727773 39.667521 23.832174 39.776728 23.934164 39.88473 24.038564 39.993922 24.140569 40.098322 24.24497 40.206324 24.346975 40.311915 24.452566 40.41392 24.553365 40.518321 24.657766 40.620326 24.759771 40.721125 24.865377 40.823115 24.966177 40.92512 25.071767 41.022318 25.172567 41.120722 25.278173 41.217921 25.378973 41.316325 25.484563 41.414729 25.586568 41.509516 25.690969 41.603114 25.792974 41.697917 25.897375 41.789118 25.999364 41.883921 26.103765 41.975123 26.20577 42.065119 26.310171 42.156321 26.412176 42.247523 26.516576 42.335124 26.618566 42.422724 26.724172 42.51031 26.824972 42.597926 26.929372 42.685526 27.031362 42.769526 27.136968 42.857112 27.237768 42.941126 27.343374 43.025111 27.444173 43.10792 27.549764 43.189524 27.650564 43.273524 27.75617 43.353922 27.856969 43.434321 27.962576 43.51472 28.063375 43.595118 28.168966 43.671931 28.270971 43.752314 28.375372 43.829127 28.476171 43.90713 28.581777 43.983927 28.683767 44.060725 28.788168 44.133921 28.890173 44.210719 28.995779 44.285121 29.096578 44.358317 29.200979 44.431513 29.302969 44.504725 29.408575 44.577921 29.509374 44.648722 29.614965 44.721919 29.71578 44.792719 29.821371 44.862315 29.92217 44.931925 30.027776 45.002726 30.128576 45.072322 30.234167 45.138331 30.334966 45.207911 30.440572 45.275111 30.542577 45.34112 30.646963 45.40832 30.747762 45.47433 30.853368 45.540324 30.955373 45.607524 31.059774 45.671122 31.161764 45.737116 31.266164 45.799525 31.368169 45.863124 31.47257 45.925517 31.574575 45.989131 31.678976 46.052729 31.780965 46.115122 31.886571 46.17512 31.987371 46.237513 32.092977 46.296321 32.193777 46.356318 32.299368 46.416316 32.400167 46.475123 32.505773 46.535121 32.606573 46.595118 32.712179 46.650324 32.814169 46.710322 32.918569 46.765528 33.019369 46.825526 33.124975 46.881922 33.226965 46.937129 33.331365 46.993525 33.43337 47.049922 33.537771 47.105128 33.639776 47.157923 33.744176 47.21432 33.846166 47.267115 33.950567 47.322322 34.052572 47.375117 34.156972 47.427912 34.258977 47.479518 34.363363 47.532313 34.465368 47.585124 34.570974 47.637919 34.671774 47.689524 34.776174 47.738719 34.878164 47.791529 34.98377 47.840724 35.085775 47.893519 35.190176 47.942713 35.290975 47.990718 35.396566 48.039912 35.498571 48.089121 35.602972 48.138331 35.704977 48.18632 35.809377 48.231928 35.911367 48.281123 36.015768 48.326716 36.117773 48.37591 36.222173 48.421519 36.324178 48.467127 36.424978 48.516322 36.530569 48.561915 36.632574 48.606318 36.736974 48.651927 36.837774 48.695124 36.943365 48.739527 37.04537 48.785121 37.14977 48.830714 37.251775 48.872721 37.356176 48.914729 37.458166 48.960322 37.562566 49.002314 37.664571 49.044322 37.768972 49.086329 37.870962 49.131922 37.976568 49.170313 38.077367 49.212321 38.182973 49.254328 38.283773 49.296321 38.389364 49.338313 38.490163 49.376719 38.595769 49.418727 38.696569 49.457118 38.802175 49.499125 38.904165 49.537531 39.008565 49.577113 39.109365 49.615519 39.214971 49.653926 39.316976 49.692317 39.421377 49.730723 39.523367 49.769129 39.627767 49.80752 39.729772 49.845912 39.834173 49.884318 39.936178 49.919123 40.040578 49.957514 40.142568 49.993525 40.246969 50.031916 40.348974 50.066722 40.453374 50.101527 40.555364 50.136317 40.66097 50.174723 40.76177 50.209529 40.86617 50.245524 40.968175 50.280314 41.073766 50.315119 41.175771 50.346324 41.280172 50.381129 41.380972 50.417124 41.486562 50.45193 41.588567 50.483119 41.692968 50.517924 41.794973 50.549128 41.899374 50.585124 42.001363 50.616328 42.105764 50.647517 42.207769 50.678721 42.31217 50.713526 42.414175 50.744715 42.518575 50.777125 42.620565 50.808314 42.724966 50.839518 42.826971 50.871913 42.932577 50.899516 43.033376 50.93072 43.137777 50.961924 43.239767 50.990718 43.345373 51.021922 43.446172 51.053126 43.551778 51.081919 43.652578 51.109522 43.758169 51.140711 43.858968 51.16952 43.964574 51.197123 44.066579 51.228327 44.170965 51.257121 44.27297 51.284724 44.37737 51.312312 44.479375 51.34112 44.583776 51.368723 44.685766 51.396327 44.790166 51.420313 44.892171 51.449122 44.996572 51.47671 45.098577 51.505519 45.204168 51.529521 45.304967 51.557124 45.409368 51.582316 45.511373 51.609919 45.616964 51.635127 45.717763 51.662715 45.82337 51.686717 45.924169 51.711924 46.029775 51.735926 46.130575 51.763514 46.236166 51.788722 46.336965 51.812724 46.442571 51.837916 46.543371 51.861918 46.648977 51.887126 46.750967 51.907527 46.855367 51.932719 46.956167 51.956721 47.061773 51.980723 47.163778 52.002314 47.268179 52.026316 47.370168 52.050318 47.475774 52.071925 47.576574 52.097117 47.680975 52.117518 47.78298 52.142726 47.88857 52.163111 47.98937 52.183528 48.094976 52.205119 48.195776 52.229121 48.301366 52.250727 48.402166 52.271113 48.507772 52.292719 48.608572 52.31312 48.714162 52.334727 48.814962 52.355128 48.920568 52.376719 49.022573 52.39712 49.126974 52.418727 49.227773 52.435526 49.333364 52.457118 49.435369 52.477519 49.53977 52.495524 49.641775 52.517115 49.746175 52.537516 49.848165 52.555522 49.952566 52.575923 50.054571 52.593928 50.158971 52.610713 50.260976 52.632319 50.366567 52.649119 50.467367 52.667124 50.572973 52.685114 50.673772 52.705515 50.779378 52.723521 50.880178 52.740321 50.985769 52.758326 51.086568 52.775111 51.192175 52.793116 51.29418 52.811122 51.39858 52.827921 51.49938 52.842311 51.604971 52.859126 51.70696 52.877116 51.811376 52.895121 51.913366 52.90832 52.017767 52.926325 52.119772 52.94311 52.224172 52.957514 52.326162 52.97552 52.430563 52.988719 52.532568 53.006724 52.636968 53.021113 52.738973 53.034327 52.843374 53.052317 52.945364 53.065516 53.05097 53.07992 53.151769 53.094325 53.25617 53.111125 53.358175 53.125514 53.463766 53.139918 53.565771 53.153117 53.670171 53.167521 53.770971 53.181925 53.876577 53.195124 53.978567 53.209513 54.082967 53.223918 54.184972 53.233515 54.289373 53.24792 54.391378 53.262324 54.495779 53.275523 54.597768 53.286326 54.702169 53.300715 54.804174 53.310313 54.908575 53.324717 55.01058 53.339121 55.11498 53.349925 55.21697 53.359522 55.322561 53.373927 55.42336 53.38473 55.527776 53.397914 55.629766 53.408717 55.735372 53.41952 55.836172 53.430323 55.941763 53.441126 56.042562 53.454325 56.148168 53.465113 56.248968 53.474726 56.354574 53.48553 56.456564 53.496317 56.560964 53.507121 56.662969 53.517924 56.76737 53.527522 56.869375 53.534724 56.973775 53.545527 57.075765 53.556315 57.180166 53.567118 57.282171 53.576716 57.386571 53.583918 57.488576 53.594721 57.594167 53.601924 57.694967 53.612727 57.799368 53.622325 57.901373 53.629511 58.006963 53.640315 58.107778 53.646327 58.213369 53.653529 58.314169 53.664317 58.419759 53.671519 58.520574 53.678721 58.626165 53.689524 58.726965 53.695521 58.832571 53.702723 58.93337 53.709925 59.038961 53.717127 59.140966 53.724314 59.245367 53.730311 59.346166 53.737513 59.451772 53.744715 59.553762 53.751917 59.658163 53.75912 59.760168 53.766322 59.865774 53.773524 59.966573 53.779521 60.070974 53.783122 60.172964 53.790324 60.27857 53.797526 60.379369 53.801127 60.484975 53.808314 60.585775 53.815516 60.691366 53.817927 60.792165 53.825114 60.897771 53.828715 60.998571 53.835917 61.104177 53.839518 61.204977 53.843119 61.310567 53.850321 61.412572 53.853922 61.516973 53.856318 61.617773 53.86352 61.723363 53.867121 61.825368 53.870722 61.929769 53.874323 62.031774 53.877925 62.136159 53.881526 62.238164 53.885127 62.342565 53.888728 62.44457 53.892314 62.548971 53.894724 62.650961 53.899516 62.756567 53.901927 62.857366 53.905512 62.962972 53.909114 63.063772 53.912715 63.169363 53.912715 63.270162 53.916316 63.375768 53.919917 63.476568 53.919917 63.582174 53.923518 63.684164 53.923518 63.788564 53.927119 63.889364 53.927119 63.99497 53.93072 64.096975 53.93072 64.201376 53.934321 64.407766 53.934321 64.509771 53.937922 64.922567 53.937922 65.026968 53.940318 65.646169 53.940318 65.748174 53.937922 66.16097 53.937922 66.266561 53.934321 66.472967 53.934321 66.574972 53.93072 66.679372 53.93072 66.781362 53.927119 66.885763 53.927119 66.987768 53.923518 67.092168 53.923518 67.194173 53.919917 67.298574 53.916316 67.400564 53.916316 67.504964 53.912715 67.606969 53.909114 67.712576 53.905512 67.813375 53.905512 67.917776 53.901927 68.019765 53.899516 68.125372 53.894724 68.226171 53.892314 68.331777 53.888728 68.432577 53.885127 68.538168 53.881526 68.638967 53.877925 68.744573 53.874323 68.846578 53.867121 68.950979 53.86352 69.052969 53.861125 69.157369 53.856318 69.259374 53.850321 69.363775 53.84672 69.46578 53.843119 69.570165 53.835917 69.67217 53.832316 69.776571 53.825114 69.878576 53.822718 69.984167 53.815516 70.084966 53.811915 70.189367 53.804713 70.291372 53.797526 70.396963 53.793925 70.497762 53.786723 70.603368 53.779521 70.704168 53.773524 70.806173 53.766322 70.910574 53.75912 71.012563 53.755519 71.116964 53.748316 71.218969 53.741114 71.32337 53.735118 71.425375 53.724314 71.530965 53.717127 71.631765 53.709925 71.736166 53.702723 71.838171 53.695521 71.943777 53.684718 72.045766 53.678721 72.150167 53.671519 72.250967 53.660716 72.356573 53.653529 72.458562 53.646327 72.562963 53.636714 72.664968 53.629511 72.769369 53.618723 72.871358 53.60792 72.975759 53.601924 73.077779 53.59112 73.18218 53.580317 73.28417 53.573115 73.38857 53.563517 73.490575 53.552729 73.594976 53.541926 73.696966 53.531123 73.802572 53.52032 73.903371 53.510722 74.007772 53.499919 74.109762 53.489115 74.215368 53.479518 74.316183 53.468714 74.421774 53.457911 74.522573 53.443522 74.628164 53.433924 74.728963 53.423121 74.83457 53.408717 74.936575 53.397914 75.040975 53.388316 75.142965 53.373927 75.247366 53.363124 75.349371 53.349925 75.453771 53.33552 75.555776 53.324717 75.660177 53.310313 75.762167 53.297114 75.866567 53.286326 75.968557 53.271922 76.074178 53.258723 76.174978 53.244319 76.279378 53.23112 76.381368 53.216715 76.486959 53.202326 76.587774 53.187922 76.69338 53.174723 76.794164 53.160319 76.89977 53.143519 77.00057 53.129115 77.106161 53.114726 77.20696 53.100321 77.312566 53.083521 77.413381 53.069117 77.518972 53.052317 77.620962 53.037928 77.725362 53.021113 77.826162 53.006724 77.931783 52.988719 78.033773 52.971919 78.138174 52.957514 78.240163 52.939524 78.345769 52.922724 78.446569 52.904719 78.55097 52.887919 78.652975 52.869929 78.758565 52.851924 78.859365 52.835124 78.964971 52.817118 79.065755 52.800318 79.171377 52.782313 79.272176 52.765528 79.377767 52.743922 79.478567 52.727122 79.584158 52.709117 79.684972 52.687525 79.790578 52.670725 79.892568 52.649119 79.996969 52.632319 80.097768 52.610713 80.203374 52.590327 80.305379 52.572322 80.409765 52.551921 80.51177 52.530314 80.61617 52.509913 80.71816 52.488322 80.822561 52.467921 80.924581 52.446314 81.028982 52.424723 81.130972 52.404322 81.236562 52.383921 81.337362 52.358714 81.442968 52.338313 81.543768 52.316722 81.649374 52.292719 81.750173 52.271113 81.855764 52.250727 81.956564 52.22552 82.06217 52.201518 82.164175 52.181117 82.268575 52.155924 82.369375 52.131922 82.474966 52.106715 82.576971 52.082728 82.681356 52.061122 82.783376 52.037119 82.887777 52.011927 82.989767 51.984324 83.094167 51.960322 83.196172 51.935114 83.300573 51.911128 83.402578 51.883525 83.506979 51.858317 83.608968 51.834315 83.713369 51.805522 83.815359 51.777918 83.92098 51.753916 84.02178 51.725123 84.12618 51.69752 84.22817 51.673518 84.333761 51.644724 84.435766 51.617121 84.540166 51.589518 84.640966 51.560725 84.746572 51.533122 84.848562 51.501917 84.952962 51.473124 85.054967 51.445521 85.159368 51.417918 85.261373 51.385523 85.365774 51.35792 85.467763 51.326716 85.572164 51.295527 85.674169 51.266718 85.77857 51.23553 85.880575 51.204325 85.984975 51.171916 86.086965 51.140711 86.192571 51.109522 86.293371 51.078318 86.397771 51.047114 86.499776 51.01472 86.605367 50.983515 86.706167 50.948725 86.811773 50.916316 86.912557 50.882716 87.018179 50.850321 87.118978 50.815516 87.224569 50.780726 87.326559 50.744715 87.430959 50.713526 87.532964 50.678721 87.63738 50.643916 87.73937 50.609126 87.843771 50.570719 87.94576 50.534724 88.050161 50.501124 88.152181 50.462718 88.256567 50.426722 88.358572 50.388331 88.464162 50.353526 88.564962 50.315119 88.669363 50.276728 88.771368 50.238322 88.876974 50.199916 88.977773 50.160319 89.083364 50.121913 89.184164 50.083521 89.28977 50.045115 89.390569 50.003123 89.496175 49.964717 89.596975 49.926325 89.702566 49.884318 89.803365 49.842311 89.908971 49.800318 90.010976 49.761927 90.115377 49.71992 90.216177 49.677912 90.321767 49.632319 90.423772 49.590327 90.528158 49.548319 90.630163 49.502726 90.735769 49.460719 90.836568 49.415125 90.940969 49.373118 91.042959 49.327525 91.148565 49.281916 91.24938 49.236323 91.354971 49.19192 91.45577 49.146327 91.561361 49.097117 91.66216 49.051524 91.767782 49.005915 91.868566 48.956721 91.974172 48.907527 92.074972 48.861918 92.180563 48.813929 92.282568 48.76472 92.386968 48.715525 92.487768 48.662715 92.593374 48.61352 92.695364 48.565516 92.799764 48.512721 92.901769 48.463526 93.00617 48.410716 93.108175 48.35792 93.212576 48.30633 93.314565 48.25352 93.418966 48.200724 93.520971 48.145518 93.626577 48.092723 93.727377 48.036326 93.832967 47.983515 93.933767 47.928324 94.039373 47.871913 94.140157 47.815516 94.245763 47.76031 94.346578 47.703913 94.452169 47.645121 94.554159 47.588725 94.658559 47.528712 94.759359 47.46992 94.86498 47.409922 94.96697 47.35113 95.071371 47.291117 95.17336 47.23112 95.277761 47.168727 95.379766 47.108729 95.484167 47.046321 95.586172 46.982722 95.690572 46.920313 95.792562 46.856715 95.896963 46.794322 95.998983 46.727122 96.103368 46.664729 96.205373 46.597529 96.310964 46.53152 96.411764 46.465525 96.516164 46.398326 96.618169 46.332316 96.723775 46.262721 96.825765 46.19192 96.930166 46.12472 97.030965 46.055125 97.136571 45.981928 97.238576 45.912318 97.342977 45.842723 97.444967 45.768321 97.549368 45.695124 97.651357 45.621913 97.755758 45.547526 97.857778 45.47433 97.962179 45.397517 98.064169 45.32432 98.168569 45.246317 98.270574 45.16952 98.37496 45.089121 98.476965 45.012324 98.582571 44.931925 98.68337 44.855128 98.787771 44.774714 98.889761 44.69073 98.995367 44.610316 99.096181 44.526316 99.201772 44.444728 99.302572 44.361918 99.408163 44.274317 99.508962 44.190318 99.614584 44.102717 99.716573 44.015116 99.820974 43.927516 99.922964 43.83993 100.027364 43.748713 100.129369 43.661128 100.23377 43.571131 100.335775 43.476313 100.440176 43.385127 100.542165 43.290324 100.646566 43.195521 100.748556 43.101924 100.854177 43.007121 100.954977 42.908717 101.059377 42.810328 101.161367 42.713114 101.266958 42.614726 101.367773 42.513926 101.473379 42.411921 101.574178 42.311122 101.679769 42.205531 101.780569 42.10113 101.886175 41.995524 101.986959 41.891123 102.092565 41.781916 102.19338 41.673915 102.298971 41.564723 102.400961 41.45312 102.505361 41.340327 102.606161 41.228724 102.711782 41.117121 102.813772 41.001917 102.918172 40.885523 103.020162 40.766718 103.125768 40.647914 103.226568 40.529124 103.330968 40.406718 103.432973 40.287928 103.538564 40.161921 103.639364 40.039515 103.74497 39.913523 103.845769 39.78393 103.951376 39.657923 104.052175 39.528315 104.157766 39.395121 104.258565 39.261927 104.364156 39.128718 104.464971 38.991923 104.570577 38.856318 104.672567 38.719523 104.776968 38.579127 104.877767 38.43632 104.983373 38.292323 105.085378 38.149516 105.186178 38.001917 105.291769 37.855525 105.392568 37.704325 105.498159 37.554316 105.598974 37.399516 105.70458 37.245921 105.80657 37.088725 105.91097 36.930323 106.01296 36.769526 106.117376 36.608714 106.219381 36.444316 106.323766 36.279917 106.425771 36.111918 106.530172 35.940318 106.632162 35.768717 106.736562 35.593516 106.838567 35.41952 106.944173 35.240718 107.044973 35.058314 107.149374 34.877116 107.251363 34.691126 107.356969 34.502726 107.457769 34.31312 107.563375 34.121119 107.664175 33.924327 107.769765 33.728724 107.870565 33.524714 107.976171 33.321925 108.076971 33.115519 108.182577 32.909114 108.283376 32.699122 108.388967 32.481928 108.490972 32.26472 108.595357 32.045115 108.696172 31.820719 108.801778 31.596324 108.903768 31.365916 109.008169 31.131922 109.110159 30.896723 109.215765 30.655528 109.316579 30.414317 109.42098 30.164729 109.52297 29.91392 109.628561 29.661921 109.72936 29.40272 109.834982 29.139918 109.935766 28.871119 110.041372 28.601115 110.142171 28.325114 110.247762 28.044322 110.348562 27.761119 110.454168 27.474314 110.554967 27.180323 110.660574 26.879115 110.762563 26.57432 110.866964 26.267115 110.967763 25.951518 111.07337 25.633525 111.175375 25.307124 111.279775 24.974726 111.381765 24.638728 111.486166 24.295527 111.588171 23.946314 111.692571 23.588725 111.794576 23.228724 111.898977 22.85792 112.000967 22.479914 112.106573 22.094721 112.207372 21.702326 112.312963 21.303919 112.413778 20.89712 112.519369 20.480723 112.620168 20.053523 112.725759 19.620326 112.826559 19.17512 112.93218 18.723918 113.03417 18.261927 113.13857 17.789118 113.23937 17.303126 113.344961 16.809916"/>
  <g>
    <text class="st7" transform="translate(46.028421 104.216271)"><tspan x="0" y="0">Model Complexity</tspan></text>
    <text class="st7" transform="translate(5.708616 69.066523) rotate(-90)"><tspan x="0" y="0">Squared Error</tspan></text>
  </g>
  <g>
    <polyline class="st3" points="10.203771 23.603114 10.305776 24.207911 10.410177 24.803111 10.510976 25.38032 10.616567 25.947917 10.718572 26.50471 10.822973 27.047114 10.924978 27.578715 11.029378 28.100718 11.131368 28.611918 11.235769 29.112315 11.337774 29.605509 11.442175 30.08552 11.544164 30.56071 11.648565 31.022715 11.75057 31.477519 11.854971 31.92631 11.956976 32.366709 12.062566 32.797511 12.163366 33.22111 12.267767 33.637507 12.369772 34.046717 12.475378 34.449916 12.576177 34.844721 12.681768 35.233515 12.782568 35.615107 12.888174 35.993113 12.988973 36.363917 13.094564 36.727519 13.196569 37.085108 13.30097 37.437907 13.402975 37.78831 13.507375 38.127909 13.609365 38.467509 13.713766 38.799906 13.815771 39.125117 13.920171 39.447917 14.022176 39.76591 14.126577 40.080317 14.228567 40.388713 14.334173 40.693507 14.434972 40.994715 14.539373 41.288722 14.641378 41.582713 14.746969 41.869517 14.847768 42.15272 14.953374 42.433512 15.054174 42.709513 15.159765 42.981913 15.260564 43.251917 15.36617 43.518321 15.46697 43.781108 15.572576 44.039118 15.673376 44.294718 15.778966 44.550318 15.880972 44.798716 15.985372 45.043513 16.086172 45.289515 16.191778 45.530711 16.293768 45.768321 16.398168 46.00352 16.500173 46.233912 16.605764 46.46551 16.706564 46.692317 16.810964 46.916712 16.912969 47.136317 17.018575 47.357112 17.119375 47.574305 17.224966 47.787913 17.325765 47.99792 17.431371 48.207911 17.532171 48.414317 17.637777 48.620707 17.738576 48.823512 17.844167 49.023921 17.944967 49.223109 18.050573 49.418711 18.152578 49.615519 18.256979 49.80752 18.357778 49.997111 18.463369 50.185511 18.565374 50.37031 18.669775 50.556315 18.771764 50.738719 18.876165 50.921107 18.97817 51.098719 19.082571 51.277506 19.184576 51.452708 19.288976 51.624308 19.390966 51.79951 19.496572 51.966319 19.597372 52.137904 19.702978 52.303507 19.803777 52.470317 19.909368 52.634715 20.010168 52.796717 20.115774 52.957514 20.216573 53.118312 20.322164 53.275508 20.424169 53.433909 20.52857 53.587519 20.629369 53.741114 20.734975 53.894709 20.836965 54.045909 20.941366 54.197108 21.043371 54.347117 21.147771 54.49351 21.249776 54.637507 21.354177 54.785121 21.456167 54.927912 21.560567 55.068308 21.662572 55.211115 21.766973 55.351512 21.868978 55.488307 21.973379 55.627513 22.075368 55.764308 22.180975 55.901118 22.281774 56.034312 22.386175 56.166316 22.488164 56.29951 22.593771 56.429103 22.695776 56.558711 22.800176 56.688319 22.900976 56.817912 23.006567 56.943904 23.108572 57.069911 23.212972 57.195918 23.314977 57.318308 23.419363 57.440714 23.521368 57.563105 23.625768 57.685511 23.727773 57.805506 23.832174 57.924311 23.934164 58.043116 24.038564 58.161921 24.140569 58.27711 24.24497 58.393519 24.346975 58.508723 24.452566 58.62031 24.553365 58.735514 24.657766 58.848307 24.759771 58.95991 24.865377 59.067912 24.966177 59.18072 25.071767 59.288722 25.172567 59.397914 25.278173 59.505915 25.378973 59.610316 25.484563 59.719508 25.586568 59.825114 25.690969 59.929515 25.792974 60.035121 25.897375 60.13592 25.999364 60.23791 26.103765 60.342311 26.20577 60.440714 26.310171 60.542719 26.412176 60.643519 26.516576 60.741908 26.618566 60.839106 26.724172 60.93751 26.824972 61.034709 26.929372 61.133113 27.031362 61.227915 27.136968 61.322711 27.237768 61.416316 27.343374 61.511111 27.444173 61.605914 27.549764 61.697116 27.650564 61.791911 27.75617 61.881907 27.856969 61.973109 27.962576 62.064311 28.063375 62.155512 28.168966 62.243113 28.270971 62.330714 28.375372 62.421916 28.476171 62.509516 28.581777 62.597117 28.683767 62.681117 28.788168 62.767512 28.890173 62.855113 28.995779 62.939112 29.096578 63.023112 29.200979 63.107112 29.302969 63.191111 29.408575 63.275111 29.509374 63.355509 29.614965 63.439509 29.71578 63.521113 29.821371 63.600314 29.92217 63.68191 30.027776 63.762309 30.128576 63.842707 30.234167 63.923113 30.334966 63.999919 30.440572 64.080317 30.542577 64.157115 30.646963 64.235118 30.747762 64.311915 30.853368 64.388713 30.955373 64.46551 31.059774 64.542315 31.161764 64.615512 31.266164 64.689913 31.368169 64.766711 31.47257 64.839915 31.574575 64.913111 31.678976 64.986308 31.780965 65.06071 31.886571 65.133914 31.987371 65.203517 32.092977 65.277918 32.193777 65.347514 32.299368 65.417109 32.400167 65.48791 32.505773 65.561114 32.606573 65.627116 32.712179 65.697917 32.814169 65.767512 32.918569 65.837115 33.019369 65.904315 33.124975 65.973918 33.226965 66.041117 33.331365 66.107112 33.43337 66.173113 33.537771 66.240313 33.639776 66.306315 33.744176 66.373515 33.846166 66.439509 33.950567 66.505511 34.052572 66.56911 34.156972 66.635111 34.258977 66.69871 34.363363 66.761111 34.465368 66.828311 34.570974 66.890711 34.671774 66.95431 34.776174 67.016711 34.878164 67.076716 34.98377 67.139109 35.085775 67.202708 35.190176 67.262713 35.290975 67.325114 35.396566 67.385111 35.498571 67.447512 35.602972 67.506312 35.704977 67.56631 35.809377 67.626307 35.911367 67.685114 36.015768 67.745112 36.117773 67.80511 36.222173 67.863917 36.324178 67.920313 36.424978 67.979106 36.530569 68.03551 36.632574 68.095515 36.736974 68.150714 36.837774 68.210719 36.943365 68.267115 37.04537 68.322314 37.14977 68.378718 37.251775 68.435114 37.356176 68.490313 37.458166 68.546717 37.562566 68.599513 37.664571 68.654711 37.768972 68.711115 37.870962 68.763552 37.976568 68.819354 38.077367 68.871913 38.182973 68.928073 38.283773 68.980631 38.389364 69.033076 38.490163 69.085627 38.595769 69.138072 38.696569 69.190631 38.802175 69.243075 38.904165 69.295634 39.008565 69.348078 39.109365 69.40063 39.214971 69.453074 39.316976 69.50191 39.421377 69.554354 39.523367 69.603556 39.627767 69.656108 39.729772 69.704829 39.834173 69.754038 39.936178 69.80659 40.040578 69.855311 40.142568 69.904513 40.246969 69.953234 40.348974 70.002551 40.453374 70.051753 40.555364 70.100474 40.66097 70.149668 40.76177 70.19839 40.86617 70.247706 40.968175 70.29307 41.073766 70.341914 41.175771 70.387393 41.280172 70.436595 41.380972 70.482066 41.486562 70.530787 41.588567 70.576747 41.692968 70.622233 41.794973 70.670954 41.899374 70.716433 42.001363 70.761912 42.105764 70.807391 42.207769 70.852755 42.31217 70.898234 42.414175 70.944193 42.518575 70.989672 42.620565 71.035151 42.724966 71.076914 42.826971 71.122386 42.932577 71.16775 43.033376 71.213236 43.137777 71.255473 43.239767 71.300952 43.345373 71.343073 43.446172 71.388552 43.551778 71.430308 43.652578 71.472552 43.758169 71.517909 43.858968 71.560153 43.964574 71.601908 44.066579 71.644038 44.170965 71.685794 44.27297 71.727915 44.37737 71.770152 44.479375 71.811915 44.583776 71.854029 44.685766 71.895793 44.790166 71.937914 44.892171 71.980151 44.996572 72.01855 45.098577 72.060313 45.204168 72.102549 45.304967 72.140956 45.409368 72.18307 45.511373 72.224833 45.616964 72.263232 45.717763 72.302226 45.82337 72.343875 45.924169 72.382395 46.029775 72.42451 46.130575 72.462916 46.236166 72.501429 46.336965 72.539836 46.442571 72.578234 46.543371 72.620471 46.648977 72.658869 46.750967 72.69739 46.855367 72.735789 46.956167 72.774668 47.061773 72.813075 47.163778 72.847758 47.268179 72.886752 47.370168 72.92515 47.475774 72.963557 47.576574 73.00207 47.680975 73.037226 47.78298 73.075633 47.88857 73.114031 47.98937 73.149195 48.094976 73.187708 48.195776 73.222392 48.301366 73.26079 48.402166 73.295954 48.507772 73.334353 48.608572 73.369517 48.714162 73.404673 48.814962 73.443072 48.920568 73.477755 49.022573 73.512919 49.126974 73.548075 49.227773 73.582759 49.333364 73.617915 49.435369 73.656428 49.53977 73.691592 49.641775 73.726756 49.746175 73.761431 49.848165 73.796595 49.952566 73.831751 50.054571 73.863078 50.158971 73.897753 50.260976 73.932917 50.366567 73.968073 50.467367 74.002757 50.572973 74.034678 50.673772 74.069354 50.779378 74.104518 50.880178 74.135951 50.985769 74.171107 51.086568 74.20579 51.192175 74.237712 51.29418 74.272395 51.39858 74.304194 51.49938 74.338877 51.604971 74.37031 51.70696 74.402232 51.811376 74.436915 51.913366 74.468234 52.017767 74.500147 52.119772 74.534831 52.224172 74.566752 52.326162 74.598078 52.430563 74.629511 52.532568 74.660952 52.636968 74.692393 52.738973 74.727549 52.843374 74.758875 52.945364 74.790309 53.05097 74.82223 53.151769 74.853556 53.25617 74.884989 53.358175 74.91643 53.463766 74.944514 53.565771 74.975947 53.670171 75.007395 53.770971 75.039195 53.876577 75.070628 53.978567 75.098231 54.082967 75.130152 54.184972 75.161593 54.289373 75.192912 54.391378 75.22111 54.495779 75.252551 54.597768 75.280635 54.702169 75.312068 54.804174 75.343394 54.908575 75.371592 55.01058 75.402918 55.11498 75.431117 55.21697 75.46255 55.322561 75.490634 55.42336 75.518229 55.527776 75.55015 55.629766 75.577754 55.735372 75.605952 55.836172 75.637393 55.941763 75.665476 56.042562 75.693553 56.148168 75.721751 56.248968 75.753077 56.354574 75.780787 56.456564 75.808879 56.560964 75.837077 56.662969 75.865153 56.76737 75.892756 56.869375 75.920954 56.973775 75.94903 57.075765 75.977229 57.180166 76.004832 57.282171 76.032908 57.386571 76.061106 57.488576 76.089198 57.594167 76.116908 57.694967 76.144991 57.799368 76.173075 57.901373 76.200793 58.006963 76.228877 58.107778 76.25323 58.213369 76.281428 58.314169 76.309512 58.419759 76.33771 58.520574 76.362071 58.626165 76.390147 58.726965 76.41775 58.832571 76.442713 58.93337 76.470317 59.038961 76.495158 59.140966 76.522753 59.245367 76.550952 59.346166 76.575312 59.451772 76.603388 59.553762 76.627757 59.658163 76.655955 59.760168 76.680308 59.865774 76.705149 59.966573 76.732752 60.070974 76.757716 60.172964 76.785311 60.27857 76.810153 60.379369 76.834513 60.484975 76.862712 60.585775 76.887072 60.691366 76.911433 60.792165 76.935794 60.897771 76.963877 60.998571 76.98823 61.104177 77.013072 61.204977 77.037547 61.310567 77.061915 61.412572 77.089991 61.516973 77.114352 61.617773 77.139193 61.723363 77.163554 61.825368 77.187914 61.929769 77.21239 62.031774 77.237231 62.136159 77.261592 62.238164 77.285952 62.342565 77.310313 62.44457 77.335154 62.548971 77.359507 62.650961 77.383875 62.756567 77.408228 62.857366 77.429354 62.962972 77.454188 63.063772 77.478556 63.169363 77.502909 63.270162 77.527392 63.375768 77.552226 63.476568 77.572749 63.582174 77.597712 63.684164 77.622073 63.788564 77.646433 63.889364 77.667552 63.99497 77.691912 64.096975 77.716746 64.201376 77.737391 64.303365 77.762232 64.407766 77.782755 64.509771 77.807711 64.614172 77.832072 64.716177 77.853068 64.820577 77.877551 64.922567 77.898554 65.026968 77.922915 65.128973 77.944033 65.233373 77.968394 65.335378 77.989512 65.440969 78.013873 65.541769 78.034991 65.646169 78.059352 65.748174 78.08047 65.853765 78.101588 65.95577 78.125956 66.060171 78.147074 66.16097 78.16807 66.266561 78.192546 66.368566 78.213557 66.472967 78.234675 66.574972 78.259028 66.679372 78.280154 66.781362 78.300791 66.885763 78.32191 66.987768 78.346751 67.092168 78.367396 67.194173 78.388392 67.298574 78.40951 67.400564 78.430628 67.504964 78.451747 67.606969 78.476115 67.712576 78.497233 67.813375 78.517756 67.917776 78.538874 68.019765 78.559992 68.125372 78.581111 68.226171 78.602229 68.331777 78.622752 68.432577 78.64387 68.538168 78.664988 68.638967 78.686106 68.744573 78.707232 68.846578 78.727755 68.950979 78.748873 69.052969 78.769991 69.157369 78.791117 69.259374 78.812235 69.363775 78.829508 69.46578 78.850627 69.570165 78.871752 69.67217 78.89239 69.776571 78.913394 69.878576 78.934512 69.984167 78.951914 70.084966 78.972911 70.189367 78.994029 70.291372 79.015147 70.396963 79.035792 70.497762 79.053553 70.603368 79.074671 70.704168 79.095317 70.806173 79.113078 70.910574 79.134196 71.012563 79.154833 71.116964 79.172709 71.218969 79.193232 71.32337 79.21435 71.425375 79.232234 71.530965 79.252757 71.631765 79.273875 71.736166 79.291751 71.838171 79.312388 71.943777 79.330149 72.045766 79.350794 72.150167 79.368556 72.250967 79.389674 72.356573 79.407069 72.458562 79.428073 72.562963 79.445475 72.664968 79.466593 72.769369 79.483874 72.871358 79.504992 72.975759 79.522395 73.077779 79.543391 73.18218 79.560794 73.28417 79.578555 73.38857 79.599673 73.490575 79.617076 73.594976 79.634348 73.696966 79.655467 73.802572 79.672755 73.903371 79.690631 74.007772 79.711756 74.109762 79.729029 74.215368 79.746432 74.316183 79.76755 74.421774 79.784831 74.522573 79.802714 74.628164 79.819987 74.728963 79.841113 74.83457 79.858393 74.936575 79.875788 75.040975 79.89355 75.142965 79.910952 75.247366 79.93207 75.349371 79.949351 75.453771 79.967234 75.555776 79.984507 75.660177 80.00191 75.762167 80.019671 75.866567 80.037074 75.968557 80.05807 76.074178 80.075472 76.174978 80.092753 76.279378 80.110636 76.381368 80.127909 76.486959 80.145312 76.587774 80.163073 76.69338 80.180476 76.794164 80.197749 76.89977 80.215632 77.00057 80.232913 77.106161 80.250315 77.20696 80.268077 77.312566 80.285472 77.413381 80.302752 77.518972 80.320628 77.620962 80.337916 77.725362 80.355311 77.826162 80.369349 77.931783 80.387232 78.033773 80.404513 78.138174 80.421916 78.240163 80.439677 78.345769 80.457072 78.446569 80.474352 78.55097 80.492228 78.652975 80.505793 78.758565 80.523554 78.859365 80.540949 78.964971 80.558238 79.065755 80.576113 79.171377 80.590151 79.272176 80.607554 79.377767 80.624827 79.478567 80.64271 79.584158 80.656748 79.684972 80.674037 79.790578 80.691432 79.892568 80.709193 79.996969 80.722758 80.097768 80.740634 80.203374 80.757914 80.305379 80.772074 80.409765 80.789347 80.51177 80.807231 80.61617 80.820796 80.71816 80.838557 80.822561 80.855952 80.924581 80.86999 81.028982 80.887393 81.130972 80.901431 81.236562 80.919192 81.337362 80.936595 81.442968 80.950633 81.543768 80.967913 81.649374 80.982066 81.750173 80.999354 81.855764 81.013392 81.956564 81.030787 82.06217 81.044833 82.164175 81.062708 82.268575 81.076747 82.369375 81.094035 82.474966 81.108073 82.576971 81.125468 82.681356 81.139514 82.783376 81.156916 82.887777 81.170954 82.989767 81.188235 83.094167 81.202387 83.196172 81.216433 83.300573 81.234194 83.402578 81.247752 83.506979 81.265635 83.608968 81.279673 83.713369 81.293238 83.815359 81.311106 83.92098 81.325152 84.02178 81.342555 84.12618 81.356593 84.22817 81.370631 84.333761 81.387919 84.435766 81.402072 84.540166 81.416117 84.640966 81.43339 84.746572 81.44755 84.848562 81.461588 84.952962 81.475627 85.054967 81.492915 85.159368 81.507075 85.261373 81.521113 85.365774 81.535151 85.467763 81.552546 85.572164 81.566592 85.674169 81.580638 85.77857 81.594676 85.880575 81.612071 85.984975 81.626109 86.086965 81.640147 86.192571 81.654193 86.293371 81.66775 86.397771 81.68191 86.499776 81.699671 86.605367 81.713236 86.706167 81.727397 86.811773 81.741435 86.912557 81.755473 87.018179 81.769511 87.118978 81.783549 87.224569 81.800952 87.326559 81.814997 87.430959 81.829035 87.532964 81.843073 87.63738 81.857234 87.73937 81.870791 87.843771 81.884837 87.94576 81.898875 88.050161 81.912913 88.152181 81.927073 88.256567 81.941111 88.358572 81.955149 88.464162 81.969187 88.564962 81.982752 88.669363 81.996913 88.771368 82.010951 88.876974 82.024989 88.977773 82.039034 89.083364 82.053073 89.184164 82.067233 89.28977 82.08079 89.390569 82.094828 89.496175 82.108874 89.596975 82.122912 89.702566 82.137072 89.803365 82.15111 89.908971 82.165156 90.010976 82.179194 90.115377 82.192759 90.216177 82.203555 90.321767 82.217707 90.423772 82.231753 90.528158 82.24531 90.630163 82.259348 90.735769 82.273394 90.836568 82.287547 90.940969 82.301592 91.042959 82.311915 91.148565 82.325953 91.24938 82.339991 91.354971 82.354029 91.45577 82.368075 91.561361 82.378398 91.66216 82.39255 91.767782 82.406596 91.868566 82.420634 91.974172 82.434672 92.074972 82.444987 92.180563 82.459033 92.282568 82.473078 92.386968 82.487231 92.487768 82.497553 92.593374 82.511592 92.695364 82.52563 92.799764 82.539668 92.901769 82.549998 93.00617 82.564036 93.108175 82.578074 93.212576 82.592234 93.314565 82.602549 93.418966 82.616587 93.520971 82.630633 93.626577 82.640956 93.727377 82.654994 93.832967 82.669032 93.933767 82.679354 94.039373 82.693392 94.140157 82.707553 94.245763 82.717753 94.346578 82.731913 94.452169 82.742716 94.554159 82.756754 94.658559 82.770312 94.759359 82.781108 94.86498 82.795153 94.96697 82.809191 95.071371 82.819514 95.17336 82.833552 95.277761 82.843875 95.379766 82.857913 95.484167 82.868235 95.586172 82.882395 95.690572 82.896433 95.792562 82.907237 95.896963 82.920786 95.998983 82.93159 96.103368 82.945628 96.205373 82.95595 96.310964 82.969996 96.411764 82.980311 96.516164 82.994349 96.618169 83.005152 96.723775 83.01919 96.825765 83.029513 96.930166 83.043559 97.030965 83.053874 97.136571 83.067912 97.238576 83.078234 97.342977 83.092387 97.444967 83.103068 97.549368 83.117228 97.651357 83.127551 97.755758 83.137751 97.857778 83.151911 97.962179 83.162715 98.064169 83.176753 98.168569 83.187068 98.270574 83.201113 98.37496 83.211436 98.476965 83.222231 98.582571 83.235789 98.68337 83.246592 98.787771 83.26063 98.889761 83.270953 98.995367 83.281748 99.096181 83.295313 99.201772 83.306117 99.302572 83.316432 99.408163 83.33047 99.508962 83.340792 99.614584 83.351588 99.716573 83.365634 99.820974 83.375956 99.922964 83.386752 100.027364 83.400309 100.129369 83.411112 100.23377 83.421427 100.335775 83.435473 100.440176 83.445796 100.542165 83.456591 100.646566 83.470637 100.748556 83.480952 100.854177 83.491755 100.954977 83.50207 101.059377 83.516108 101.161367 83.526431 101.266958 83.537226 101.367773 83.547557 101.473379 83.561595 101.574178 83.57191 101.679769 83.582713 101.780569 83.592913 101.886175 83.607066 101.986959 83.617396 102.092565 83.628077 102.19338 83.638392 102.298971 83.649195 102.400961 83.662753 102.505361 83.673548 102.606161 83.683879 102.711782 83.694674 102.813772 83.704997 102.918172 83.719035 103.020162 83.72935 103.125768 83.740153 103.226568 83.750468 103.330968 83.76079 103.432973 83.771586 103.538564 83.781916 103.639364 83.795954 103.74497 83.80675 103.845769 83.817072 103.951376 83.827387 104.052175 83.838069 104.157766 83.848399 104.258565 83.859194 104.364156 83.869517 104.464971 83.883555 104.570577 83.89387 104.672567 83.904673 104.776968 83.914988 104.877767 83.925311 104.983373 83.936106 105.085378 83.946437 105.186178 83.957232 105.291769 83.967555 105.392568 83.977755 105.498159 83.988551 105.598974 83.998873 105.70458 84.009669 105.80657 84.019991 105.91097 84.034037 106.01296 84.044352 106.117376 84.055155 106.219381 84.06547 106.323766 84.075793 106.425771 84.086588 106.530172 84.096911 106.632162 84.107707 106.736562 84.117915 106.838567 84.12823 106.944173 84.139033 107.044973 84.149348 107.149374 84.160151 107.251363 84.170474 107.356969 84.180796 107.457769 84.191592 107.563375 84.201914 107.664175 84.208872 107.769765 84.219676 107.870565 84.229991 107.976171 84.240313 108.076971 84.251109 108.182577 84.261431 108.283376 84.272227 108.388967 84.282549 108.490972 84.29275 108.595357 84.303553 108.696172 84.313868 108.801778 84.324671 108.903768 84.334994 109.008169 84.345317 109.110159 84.352397 109.215765 84.363078 109.316579 84.373393 109.42098 84.384196 109.52297 84.394511 109.628561 84.404833 109.72936 84.415629 109.834982 84.425952 109.935766 84.436747 110.041372 84.443232 110.142171 84.454035 110.247762 84.46435 110.348562 84.475154 110.454168 84.485468 110.554967 84.495791 110.660574 84.502757 110.762563 84.513552 110.866964 84.523875 110.967763 84.534678 111.07337 84.544993 111.175375 84.555308 111.279775 84.562388 111.381765 84.573069 111.486166 84.583392 111.588171 84.594187 111.692571 84.604518 111.794576 84.61159 111.898977 84.621913 112.000967 84.632716 112.106573 84.642909 112.207372 84.653239 112.312963 84.660311 112.413778 84.671107 112.519369 84.681437 112.620168 84.692233 112.725759 84.699198 112.826559 84.709513 112.93218 84.719828 113.03417 84.730631 113.13857 84.737712 113.23937 84.747912 113.344961 84.758235"/>
    <polyline class="st5" points="10.203771 88.157237 10.305776 88.146433 10.410177 88.139353 10.510976 88.132395 10.616567 88.12208 10.718572 88.115 10.822973 88.10792 10.924978 88.100955 11.029378 88.09064 11.131368 88.08356 11.235769 88.076594 11.337774 88.065798 11.442175 88.059199 11.544164 88.052233 11.648565 88.041438 11.75057 88.034358 11.854971 88.0274 11.956976 88.017077 12.062566 88.009997 12.163366 88.002917 12.267767 87.992716 12.369772 87.985636 12.475378 87.978556 12.576177 87.967753 12.681768 87.960795 12.782568 87.954196 12.888174 87.9434 12.988973 87.936434 13.094564 87.926119 13.196569 87.919039 13.30097 87.912074 13.402975 87.901759 13.507375 87.894679 13.609365 87.887713 13.713766 87.876917 13.815771 87.869837 13.920171 87.859515 14.022176 87.852557 14.126577 87.845477 14.228567 87.835154 14.334173 87.828074 14.434972 87.817393 14.539373 87.81032 14.641378 87.80324 14.746969 87.792918 14.847768 87.78596 14.953374 87.775637 15.054174 87.768557 15.159765 87.757754 15.260564 87.750796 15.36617 87.744197 15.46697 87.733393 15.572576 87.726435 15.673376 87.71612 15.778966 87.70904 15.880972 87.698237 15.985372 87.69176 16.086172 87.680956 16.191778 87.673876 16.293768 87.663554 16.398168 87.656596 16.500173 87.6458 16.605764 87.639193 16.706564 87.628398 16.810964 87.62144 16.912969 87.611117 17.018575 87.604037 17.119375 87.593234 17.224966 87.586756 17.325765 87.575953 17.431371 87.568873 17.532171 87.558558 17.637777 87.5516 17.738576 87.540797 17.844167 87.534197 17.944967 87.523394 18.050573 87.516436 18.152578 87.506114 18.256979 87.499034 18.357778 87.488238 18.463369 87.477915 18.565374 87.470957 18.669775 87.460635 18.771764 87.453555 18.876165 87.442759 18.97817 87.435794 19.082571 87.425479 19.184576 87.415156 19.288976 87.408076 19.390966 87.397395 19.496572 87.390315 19.597372 87.38 19.702978 87.369677 19.803777 87.362719 19.909368 87.351916 20.010168 87.344836 20.115774 87.334513 20.216573 87.324198 20.322164 87.31724 20.424169 87.306437 20.52857 87.296115 20.629369 87.289034 20.734975 87.278239 20.836965 87.267916 20.941366 87.260958 21.043371 87.250636 21.147771 87.243556 21.249776 87.23276 21.354177 87.22256 21.456167 87.212237 21.560567 87.205157 21.662572 87.194354 21.766973 87.184039 21.868978 87.177073 21.973379 87.166758 22.075368 87.155955 22.180975 87.148875 22.281774 87.13856 22.386175 87.127757 22.488164 87.120799 22.593771 87.110476 22.695776 87.100154 22.800176 87.089358 22.900976 87.0824 23.006567 87.072077 23.108572 87.061755 23.212972 87.050959 23.314977 87.043879 23.419363 87.033557 23.521368 87.022753 23.625768 87.01256 23.727773 87.00548 23.832174 86.995158 23.934164 86.984355 24.038564 86.97404 24.140569 86.963236 24.24497 86.956759 24.346975 86.945956 24.452566 86.935633 24.553365 86.924838 24.657766 86.914515 24.759771 86.907557 24.865377 86.897235 24.966177 86.886439 25.071767 86.876116 25.172567 86.865313 25.278173 86.854998 25.378973 86.847918 25.484563 86.837718 25.586568 86.826914 25.690969 86.816599 25.792974 86.805796 25.897375 86.795474 25.999364 86.785159 26.103765 86.778079 26.20577 86.767398 26.310171 86.757075 26.412176 86.74676 26.516576 86.735957 26.618566 86.725634 26.724172 86.714839 26.824972 86.704516 26.929372 86.694193 27.031362 86.683398 27.136968 86.67644 27.237768 86.666117 27.343374 86.655314 27.444173 86.644999 27.549764 86.634677 27.650564 86.623873 27.75617 86.613558 27.856969 86.602755 27.962576 86.592555 28.063375 86.58224 28.168966 86.571437 28.270971 86.561114 28.375372 86.550318 28.476171 86.539996 28.581777 86.529673 28.683767 86.518878 28.788168 86.508555 28.890173 86.497759 28.995779 86.487559 29.096578 86.477236 29.200979 86.466433 29.302969 86.456118 29.408575 86.445315 29.509374 86.435 29.614965 86.424677 29.71578 86.413874 29.821371 86.403559 29.92217 86.392756 30.027776 86.382556 30.128576 86.372233 30.234167 86.361437 30.334966 86.347399 30.440572 86.337077 30.542577 86.326754 30.646963 86.315959 30.747762 86.305636 30.853368 86.29484 30.955373 86.284518 31.059774 86.274195 31.161764 86.2634 31.266164 86.249354 31.368169 86.239039 31.47257 86.228236 31.574575 86.217913 31.678976 86.20772 31.780965 86.196917 31.886571 86.186595 31.987371 86.172557 32.092977 86.162234 32.193777 86.151438 32.299368 86.141116 32.400167 86.13032 32.505773 86.116755 32.606573 86.10596 32.712179 86.095637 32.814169 86.084834 32.918569 86.074519 33.019369 86.060481 33.124975 86.050158 33.226965 86.039355 33.331365 86.02904 33.43337 86.014994 33.537771 86.004679 33.639776 85.993876 33.744176 85.983554 33.846166 85.969515 33.950567 85.9592 34.052572 85.948397 34.156972 85.938075 34.258977 85.924037 34.363363 85.913233 34.465368 85.902918 34.570974 85.88888 34.671774 85.878558 34.776174 85.867755 34.878164 85.854197 34.98377 85.843394 35.085775 85.833079 35.190176 85.819033 35.290975 85.808238 35.396566 85.797915 35.498571 85.783877 35.602972 85.773554 35.704977 85.762759 35.809377 85.749194 35.911367 85.738398 36.015768 85.72436 36.117773 85.714038 36.222173 85.703234 36.324178 85.689677 36.424978 85.678874 36.530569 85.664836 36.632574 85.654513 36.736974 85.640475 36.837774 85.63016 36.943365 85.616114 37.04537 85.605319 37.14977 85.594996 37.251775 85.580958 37.356176 85.570635 37.458166 85.556597 37.562566 85.545794 37.664571 85.532237 37.768972 85.521433 37.870962 85.507395 37.976568 85.49708 38.077367 85.48292 38.182973 85.47272 38.283773 85.45856 38.389364 85.444514 38.490163 85.434199 38.595769 85.420153 38.696569 85.409358 38.802175 85.39532 38.904165 85.384997 39.008565 85.370959 39.109365 85.356913 39.214971 85.346598 39.316976 85.33256 39.421377 85.322238 39.523367 85.308077 39.627767 85.294039 39.729772 85.283236 39.834173 85.269679 39.936178 85.255641 40.040578 85.244837 40.142568 85.230799 40.246969 85.217234 40.348974 85.206439 40.453374 85.192393 40.555364 85.178233 40.66097 85.167918 40.76177 85.15388 40.86617 85.139834 40.968175 85.129519 41.073766 85.115473 41.175771 85.101435 41.280172 85.087397 41.380972 85.077075 41.486562 85.062914 41.588567 85.048876 41.692968 85.034838 41.794973 85.0208 41.899374 85.010478 42.001363 84.99644 42.105764 84.982394 42.207769 84.968234 42.31217 84.954676 42.414175 84.943873 42.518575 84.929835 42.620565 84.915797 42.724966 84.902239 42.826971 84.888079 42.932577 84.874034 43.033376 84.863238 43.137777 84.849681 43.239767 84.835635 43.345373 84.821597 43.446172 84.807559 43.551778 84.793398 43.652578 84.77936 43.758169 84.765315 43.858968 84.751757 43.964574 84.737719 44.066579 84.723559 44.170965 84.709513 44.27297 84.695475 44.37737 84.681437 44.479375 84.671115 44.583776 84.657076 44.685766 84.642916 44.790166 84.628878 44.892171 84.611598 44.996572 84.59756 45.098577 84.583399 45.204168 84.569354 45.304967 84.555316 45.409368 84.541758 45.511373 84.52772 45.616964 84.51356 45.717763 84.499514 45.82337 84.485476 45.924169 84.471438 46.029775 84.4574 46.130575 84.44324 46.236166 84.429675 46.336965 84.411913 46.442571 84.397753 46.543371 84.384196 46.648977 84.370158 46.750967 84.35612 46.855367 84.342074 46.956167 84.324679 47.061773 84.310633 47.163778 84.296595 47.268179 84.282557 47.370168 84.268397 47.475774 84.251116 47.576574 84.237078 47.680975 84.222918 47.78298 84.20888 47.88857 84.191599 47.98937 84.177554 48.094976 84.163394 48.195776 84.146113 48.301366 84.132075 48.402166 84.117915 48.507772 84.103877 48.608572 84.086596 48.714162 84.072558 48.814962 84.058398 48.920568 84.041117 49.022573 84.027079 49.126974 84.009677 49.227773 83.995638 49.333364 83.981593 49.435369 83.964198 49.53977 83.95016 49.641775 83.932398 49.746175 83.918238 49.848165 83.900958 49.952566 83.88692 50.054571 83.872759 50.158971 83.855479 50.260976 83.841441 50.366567 83.824038 50.467367 83.81 50.572973 83.792719 50.673772 83.778559 50.779378 83.760798 50.880178 83.743395 50.985769 83.729357 51.086568 83.712077 51.192175 83.697917 51.29418 83.680636 51.39858 83.666598 51.49938 83.649195 51.604971 83.631434 51.70696 83.617396 51.811376 83.599993 51.913366 83.58272 52.017767 83.56856 52.119772 83.550799 52.224172 83.533396 52.326162 83.519358 52.430563 83.502078 52.532568 83.484675 52.636968 83.470637 52.738973 83.452754 52.843374 83.435481 52.945364 83.418078 53.05097 83.40404 53.151769 83.386759 53.25617 83.368876 53.358175 83.351596 53.463766 83.334193 53.565771 83.320155 53.670171 83.302394 53.770971 83.284999 53.876577 83.267718 53.978567 83.249835 54.082967 83.232554 54.184972 83.215159 54.289373 83.197398 54.391378 83.183238 54.495779 83.165957 54.597768 83.148554 54.702169 83.130793 54.804174 83.113398 54.908575 83.096118 55.01058 83.078234 55.11498 83.060954 55.21697 83.043559 55.322561 83.025797 55.42336 83.008395 55.527776 82.991114 55.629766 82.973239 55.735372 82.955958 55.836172 82.938555 55.941763 82.917559 56.042562 82.900157 56.148168 82.882395 56.248968 82.865 56.354574 82.84772 56.456564 82.829836 56.560964 82.812556 56.662969 82.791438 56.76737 82.774035 56.869375 82.756754 56.973775 82.738879 57.075765 82.721598 57.180166 82.70048 57.282171 82.683077 57.386571 82.665316 57.488576 82.647914 57.594167 82.626917 57.694967 82.609515 57.799368 82.592234 57.901373 82.571116 58.006963 82.553233 58.107778 82.53596 58.213369 82.514834 58.314169 82.497553 58.419759 82.476435 58.520574 82.45904 58.626165 82.44176 58.726965 82.420634 58.832571 82.402758 58.93337 82.382235 59.038961 82.364359 59.140966 82.343234 59.245367 82.325953 59.346166 82.304835 59.451772 82.287554 59.553762 82.266436 59.658163 82.249034 59.760168 82.227915 59.865774 82.206919 59.966573 82.189517 60.070974 82.168398 60.172964 82.147395 60.27857 82.13 60.379369 82.108874 60.484975 82.087756 60.585775 82.070475 60.691366 82.049357 60.792165 82.028239 60.897771 82.010958 60.998571 81.98984 61.104177 81.969195 61.204977 81.948077 61.310567 81.927073 61.412572 81.909678 61.516973 81.88856 61.617773 81.867556 61.723363 81.846438 61.825368 81.82532 61.929769 81.804675 62.031774 81.783557 62.136159 81.762553 62.238164 81.741435 62.342565 81.72404 62.44457 81.702914 62.548971 81.681918 62.650961 81.6608 62.756567 81.640154 62.857366 81.615321 62.962972 81.594676 63.063772 81.573557 63.169363 81.552554 63.270162 81.531436 63.375768 81.510317 63.476568 81.48968 63.582174 81.468554 63.684164 81.447558 63.788564 81.423075 63.889364 81.402079 63.99497 81.380953 64.096975 81.359835 64.201376 81.335475 64.303365 81.314356 64.407766 81.293238 64.509771 81.272715 64.614172 81.247759 64.716177 81.227236 64.820577 81.206118 64.922567 81.181758 65.026968 81.160639 65.128973 81.135798 65.233373 81.115161 65.335378 81.090319 65.440969 81.069674 65.541769 81.04484 65.646169 81.024195 65.748174 80.999354 65.853765 80.978236 65.95577 80.953875 66.060171 80.932757 66.16097 80.908396 66.266561 80.8874 66.368566 80.862918 66.472967 80.838557 66.574972 80.817553 66.679372 80.793078 66.781362 80.768237 66.885763 80.743876 66.987768 80.722758 67.092168 80.698397 67.194173 80.674037 67.298574 80.649676 67.400564 80.624835 67.504964 80.604197 67.606969 80.579356 67.712576 80.554995 67.813375 80.530635 67.917776 80.505793 68.019765 80.48144 68.125372 80.45708 68.226171 80.432719 68.331777 80.407755 68.432577 80.383395 68.538168 80.359034 68.638967 80.334674 68.744573 80.30984 68.846578 80.285479 68.950979 80.257395 69.052969 80.23292 69.157369 80.20856 69.259374 80.184199 69.363775 80.159358 69.46578 80.131754 69.570165 80.106913 69.67217 80.08256 69.776571 80.054354 69.878576 80.029994 69.984167 80.005641 70.084966 79.977557 70.189367 79.953074 70.291372 79.924998 70.396963 79.900637 70.497762 79.875796 70.603368 79.848078 70.704168 79.823237 70.806173 79.795634 70.910574 79.767558 71.012563 79.743075 71.116964 79.714999 71.218969 79.686915 71.32337 79.662554 71.425375 79.634356 71.530965 79.606761 71.631765 79.581919 71.736166 79.554194 71.838171 79.526118 71.943777 79.49792 72.045766 79.469836 72.150167 79.445475 72.250967 79.417399 72.356573 79.389674 72.458562 79.361598 72.562963 79.333399 72.664968 79.305316 72.769369 79.27772 72.871358 79.249514 72.975759 79.221438 73.077779 79.19324 73.18218 79.161921 73.28417 79.134196 73.38857 79.10612 73.490575 79.077914 73.594976 79.049838 73.696966 79.018397 73.802572 78.990321 73.903371 78.962718 74.007772 78.930796 74.109762 78.903079 74.215368 78.874995 74.316183 78.843554 74.421774 78.815478 74.522573 78.784037 74.628164 78.755953 74.728963 78.724513 74.83457 78.696437 74.936575 78.664996 75.040975 78.633555 75.142965 78.605479 75.247366 78.574038 75.349371 78.542719 75.453771 78.510798 75.555776 78.48308 75.660177 78.451754 75.762167 78.41984 75.866567 78.3884 75.968557 78.357081 76.074178 78.325633 76.174978 78.2942 76.279378 78.2624 76.381368 78.23096 76.486959 78.199519 76.587774 78.168078 76.69338 78.136759 76.794164 78.104838 76.89977 78.073397 77.00057 78.038233 77.106161 78.006915 77.20696 77.975474 77.312566 77.940318 77.413381 77.908877 77.518972 77.877558 77.620962 77.842394 77.725362 77.810954 77.826162 77.775797 77.931783 77.744357 78.033773 77.709674 78.138174 77.67776 78.240163 77.643077 78.345769 77.60792 78.446569 77.572756 78.55097 77.541438 78.652975 77.506754 78.758565 77.471598 78.859365 77.436434 78.964971 77.401759 79.065755 77.366595 79.171377 77.331439 79.272176 77.296755 79.377767 77.261599 79.478567 77.226435 79.584158 77.19176 79.684972 77.156596 79.790578 77.12144 79.892568 77.086756 79.996969 77.047755 80.097768 77.013079 80.203374 76.977915 80.305379 76.939517 80.409765 76.904353 80.51177 76.865954 80.61617 76.830798 80.71816 76.792399 80.822561 76.757716 80.924581 76.719195 81.028982 76.680316 81.130972 76.64564 81.236562 76.607234 81.337362 76.56824 81.442968 76.529841 81.543768 76.491435 81.649374 76.452914 81.750173 76.414515 81.855764 76.376116 81.956564 76.337718 82.06217 76.299197 82.164175 76.260317 82.268575 76.221919 82.369375 76.180155 82.474966 76.141757 82.576971 76.102755 82.681356 76.061114 82.783376 76.022715 82.887777 75.980479 82.989767 75.94208 83.094167 75.899836 83.196172 75.861437 83.300573 75.819674 83.402578 75.77756 83.506979 75.735316 83.608968 75.69356 83.713369 75.655154 83.815359 75.612918 83.92098 75.570796 84.02178 75.52904 84.12618 75.486918 84.22817 75.441439 84.333761 75.399676 84.435766 75.357554 84.540166 75.315318 84.640966 75.269839 84.746572 75.228076 84.848562 75.182719 84.952962 75.140475 85.054967 75.094996 85.159368 75.05276 85.261373 75.007395 85.365774 74.961917 85.467763 74.916438 85.572164 74.874674 85.674169 74.829196 85.77857 74.783236 85.880575 74.737757 85.984975 74.692393 86.086965 74.643557 86.192571 74.598078 86.293371 74.552714 86.397771 74.507235 86.499776 74.457919 86.605367 74.412554 86.706167 74.363238 86.811773 74.317759 86.912557 74.269038 87.018179 74.219836 87.118978 74.174357 87.224569 74.125636 87.326559 74.076441 87.430959 74.02772 87.532964 73.978396 87.63738 73.929675 87.73937 73.880473 87.843771 73.827914 87.94576 73.7792 88.050161 73.729998 88.152181 73.677554 88.256567 73.628237 88.358572 73.575801 88.464162 73.527079 88.564962 73.474513 88.669363 73.422076 88.771368 73.369517 88.876974 73.31708 88.977773 73.264514 89.083364 73.212077 89.184164 73.159518 89.28977 73.107081 89.390569 73.050799 89.496175 72.99824 89.596975 72.945796 89.702566 72.889994 89.803365 72.834193 89.908971 72.781756 90.010976 72.725474 90.115377 72.669673 90.216177 72.613398 90.321767 72.557719 90.423772 72.501437 90.528158 72.445635 90.630163 72.386119 90.735769 72.329836 90.836568 72.274035 90.940969 72.214518 91.042959 72.154994 91.148565 72.099192 91.24938 72.039675 91.354971 71.980158 91.45577 71.920634 91.561361 71.861117 91.66216 71.8016 91.767782 71.738238 91.868566 71.679194 91.974172 71.619677 92.074972 71.556437 92.180563 71.493556 92.282568 71.434039 92.386968 71.370799 92.487768 71.307917 92.593374 71.245158 92.695364 71.181918 92.799764 71.115321 92.901769 71.052561 93.00617 70.98968 93.108175 70.923075 93.212576 70.856593 93.314565 70.793238 93.418966 70.727236 93.520971 70.660639 93.626577 70.594035 93.727377 70.524195 93.832967 70.457713 93.933767 70.391116 94.039373 70.320796 94.140157 70.250956 94.245763 70.184359 94.346578 70.114512 94.452169 70.044673 94.554159 69.97436 94.658559 69.900797 94.759359 69.830958 94.86498 69.757395 94.96697 69.687556 95.071371 69.613879 95.17336 69.540316 95.277761 69.467234 95.379766 69.393557 95.484167 69.319995 95.586172 69.243075 95.690572 69.16952 95.792562 69.092715 95.896963 69.015315 95.998983 68.938395 96.103368 68.861598 96.205373 68.784678 96.310964 68.704035 96.411764 68.627116 96.516164 68.546717 96.618169 68.466319 96.723775 68.384715 96.825765 68.305522 96.930166 68.225115 97.030965 68.141116 97.136571 68.059519 97.238576 67.97552 97.342977 67.892718 97.444967 67.80752 97.549368 67.723521 97.651357 67.637118 97.755758 67.551921 97.857778 67.465518 97.962179 67.377917 98.064169 67.290316 98.168569 67.202715 98.270574 67.111521 98.37496 67.02032 98.476965 66.932719 98.582571 66.842715 98.68337 66.74792 98.787771 66.656718 98.889761 66.561915 98.995367 66.470713 99.096181 66.377116 99.201772 66.282313 99.302572 66.183917 99.408163 66.089121 99.508962 65.991915 99.614584 65.893519 99.716573 65.795115 99.820974 65.694316 99.922964 65.595919 100.027364 65.49512 100.129369 65.393115 100.23377 65.287516 100.335775 65.186717 100.440176 65.081118 100.542165 64.976718 100.646566 64.871119 100.748556 64.763117 100.854177 64.657519 100.954977 64.549517 101.059377 64.440318 101.161367 64.328715 101.266958 64.217112 101.367773 64.105517 101.473379 63.992716 101.574178 63.881114 101.679769 63.76472 101.780569 63.649516 101.886175 63.53432 101.986959 63.415515 102.092565 63.296717 102.19338 63.17792 102.298971 63.055522 102.400961 62.935519 102.505361 62.809519 102.606161 62.687113 102.711782 62.561122 102.813772 62.435114 102.918172 62.309115 103.020162 62.179515 103.125768 62.051119 103.226568 61.920313 103.330968 61.788317 103.432973 61.655116 103.538564 61.521922 103.639364 61.385119 103.74497 61.249514 103.845769 61.112719 103.951376 60.972315 104.052175 60.829516 104.157766 60.689112 104.258565 60.545115 104.364156 60.398722 104.464971 60.254725 104.570577 60.104716 104.672567 59.957118 104.776968 59.807124 104.877767 59.653514 104.983373 59.498713 105.085378 59.345118 105.186178 59.187922 105.291769 59.029521 105.392568 58.868723 105.498159 58.707911 105.598974 58.543513 105.70458 58.379115 105.80657 58.211115 105.91097 58.039515 106.01296 57.871516 106.117376 57.696314 106.219381 57.521113 106.323766 57.347117 106.425771 57.168315 106.530172 56.985926 106.632162 56.803523 106.736562 56.618708 106.838567 56.432719 106.944173 56.244319 107.044973 56.051112 107.149374 55.859126 107.251363 55.663508 107.356969 55.466715 107.457769 55.263911 107.563375 55.061122 107.664175 54.858317 107.769765 54.64831 107.870565 54.438319 107.976171 54.224726 108.076971 54.007517 108.182577 53.790324 108.283376 53.567118 108.388967 53.342723 108.490972 53.11471 108.595357 52.884318 108.696172 52.65272 108.801778 52.41511 108.903768 52.173915 109.008169 51.932719 109.110159 51.683116 109.215765 51.434718 109.316579 51.179118 109.42098 50.923518 109.52297 50.661921 109.628561 50.399119 109.72936 50.129115 109.834982 49.856715 109.935766 49.579524 110.041372 49.299922 110.142171 49.013117 110.247762 48.722712 110.348562 48.428721 110.454168 48.131114 110.554967 47.826319 110.660574 47.517909 110.762563 47.203517 110.866964 46.885523 110.967763 46.559123 111.07337 46.230311 111.175375 45.894312 111.279775 45.554713 111.381765 45.207911 111.486166 44.855113 111.588171 44.495112 111.692571 44.13032 111.794576 43.755915 111.898977 43.377925 112.000967 42.989115 112.106573 42.597926 112.207372 42.194728 112.312963 41.785517 112.413778 41.365519 112.519369 40.94192 112.620168 40.505122 112.725759 40.063517 112.826559 39.608714 112.93218 39.146723 113.03417 38.673915 113.13857 38.190318 113.23937 37.697108 113.344961 37.19311"/>
    <line class="st4" x1="8.277776" y1="99.027911" x2="113.344976" y2="99.027911"/>
    <line class="st4" x1="8.277776" y1="99.027911" x2="8.277776" y2="3.218714"/>
  </g>
  <g>
    <rect class="st2" x="45.630178" y="18.314463" width="43.532776" height="18.399841"/>
    <line class="st0" x1="48.990179" y1="22.916712" x2="55.706579" y2="22.916712"/>
    <line class="st3" x1="48.990179" y1="27.516322" x2="55.706579" y2="27.516322"/>
    <line class="st6" x1="48.990179" y1="32.11471" x2="55.706579" y2="32.11471"/>
    <text class="st7" transform="translate(59.064107 24.42248)"><tspan x="0" y="0">Prediction Error</tspan></text>
    <text class="st7" transform="translate(59.064107 29.025508)"><tspan x="0" y="0">Bias^2</tspan></text>
    <text class="st7" transform="translate(59.064107 33.624629)"><tspan x="0" y="0">Variance</tspan></text>
  </g>
</svg>