<?xml version="1.0" encoding="UTF-8"?>
<svg id="Layer_1" xmlns="http://www.w3.org/2000/svg" version="1.1" viewBox="0 0 118.669416 128.105096">
  <!-- Generator: Adobe Illustrator 29.3.1, SVG Export Plug-In . SVG Version: 2.1.0 Build 151)  -->
  <defs>
    <style>
      .st0 {
        font-family: Helvetica, Helvetica;
        font-size: 4.2px;
      }

      .st1, .st2, .st3, .st4, .st5, .st6, .st7, .st8, .st9, .st10 {
        fill: none;
        stroke-linecap: round;
        stroke-linejoin: round;
        stroke-width: .2625px;
      }

      .st1, .st7 {
        stroke: #000;
      }

      .st2 {
        stroke: blue;
      }

      .st2, .st9 {
        stroke-dasharray: 0 1.400004 1.05 1.400004;
      }

      .st3 {
        stroke: #f0f;
        stroke-dasharray: .35 1.05 1.749996 1.05;
      }

      .st11 {
        letter-spacing: 4.047154em;
      }

      .st4 {
        stroke: #bebebe;
      }

      .st4, .st10 {
        stroke-dasharray: 1.05 1.749996;
      }

      .st12 {
        letter-spacing: 4.325009em;
      }

      .st5 {
        stroke: #ff0;
      }

      .st6 {
        stroke: aqua;
        stroke-dasharray: 2.1 1.400004;
      }

      .st7, .st8 {
        stroke-dasharray: 0 1.400004;
      }

      .st8 {
        stroke: #00cd00;
      }

      .st9, .st10 {
        stroke: red;
      }
    </style>
  </defs>
  <g>
    <text class="st0" transform="translate(60.194451 125.036109)"><tspan x="0" y="0">DF</tspan></text>
    <text class="st0" transform="translate(4.98841 65.602785) rotate(-90)"><tspan x="0" y="0">Coefficient</tspan></text>
    <line class="st1" x1="10.854949" y1="109.887545" x2="113.374526" y2="109.887545"/>
    <line class="st1" x1="10.854949" y1="109.887545" x2="10.854949" y2="112.407549"/>
    <line class="st1" x1="31.358153" y1="109.887545" x2="31.358153" y2="112.407549"/>
    <line class="st1" x1="51.861342" y1="109.887545" x2="51.861342" y2="112.407549"/>
    <line class="st1" x1="72.368148" y1="109.887545" x2="72.368148" y2="112.407549"/>
    <line class="st1" x1="92.871352" y1="109.887545" x2="92.871352" y2="112.407549"/>
    <line class="st1" x1="113.374526" y1="109.887545" x2="113.374526" y2="112.407549"/>
    <text class="st0" transform="translate(9.687697 118.959231)"><tspan class="st12" x="0" y="0">0246</tspan><tspan class="st11" x="82.00293" y="0">8</tspan><tspan x="101.336914" y="0">10</tspan></text>
  </g>
  <g>
    <line class="st1" x1="8.807738" y1="109.887545" x2="8.807738" y2="3.480318"/>
    <polyline class="st1" points="113.374526 56.018709 105.078948 55.823107 101.35414 55.724718 98.726149 55.644312 96.591338 55.578303 94.754134 55.511111 93.116149 55.452311 91.628142 55.395914 90.252944 55.33951 88.971343 55.284312 87.771346 55.23511 86.633742 55.182314 85.556151 55.133112 84.53015 55.087511 83.547332 55.04191 82.605346 54.997507 81.702941 54.95431 80.834136 54.913515 79.99414 54.870318 79.186538 54.829508 78.401732 54.791117 77.645751 54.75152 76.911345 54.716715 76.200942 54.68191 75.507338 54.643519 74.835341 54.612314 74.18135 54.577509 73.544143 54.545107 72.924941 54.513903 72.318938 54.482706 71.730941 54.45032 71.157332 54.422709 70.593337 54.39152 70.047332 54.363909 69.512145 54.335108 68.986541 54.311114 68.476546 54.283518 67.974944 54.258303 67.485335 54.234308 67.006545 54.209116 66.533751 54.185107 66.074141 54.161112 65.622939 54.139506 65.18254 54.11912 64.748153 54.093905 64.322142 54.073519 63.90454 54.051913 63.495345 54.035105 63.093337 54.013514 62.697341 53.991907 62.312148 53.975107 61.930556 53.957102 61.556151 53.940317 61.188948 53.918711 60.824141 53.904314 60.471343 53.887507 60.122145 53.869509 59.778945 53.852701 59.439345 53.838305 59.105742 53.825106 58.780547 53.807108 58.458937 53.792704 58.140944 53.779505 57.828948 53.765108 57.520552 53.750712 57.220549 53.737513 56.919341 53.723109 56.624144 53.712313 56.33734 53.699114 56.050551 53.688303 55.770934 53.673907 55.494948 53.663111 55.221343 53.653513 54.951339 53.639117 54.686156 53.628306 54.423339 53.61751 54.164138 53.607912 53.908538 53.597101 53.656539 53.586306 53.408141 53.579119 53.163344 53.569506 52.922149 53.55871 52.684539 53.551516 52.449355 53.540705 52.214141 53.531115 51.987334 53.523905 51.760543 53.516711 51.536147 53.505915 51.315337 53.498713 51.098143 53.491518 50.88214 53.484308 50.667342 53.474718 50.457335 53.467509 50.247344 53.460314 50.044539 53.453112 49.841735 53.445917 49.638945 53.443514 49.443343 53.436312 49.246535 53.429117 49.050933 53.421908 48.858947 53.414713 24.057341 53.688303 19.013747 54.15391 16.776946 54.429911 15.507338 54.605105 14.687743 54.727511 14.114135 54.815104 13.690551 54.881113 13.364135 54.933909 13.106154 54.97951 12.896148 55.014315 12.720946 55.04191 12.574538 55.067103 12.447341 55.091112 12.339354 55.109118 12.244552 55.125918 12.160552 55.140314 12.08734 55.154719 12.021346 55.164309 11.964949 55.175104 11.908538 55.185915 11.860549 55.19311 11.817336 55.20032 11.776549 55.207506 11.740554 55.213518 11.705748 55.220705 11.674544 55.227915 11.64334 55.231516 11.614547 55.238711 11.590545 55.242312 11.566542 55.24592 11.544951 55.249506 11.52455 55.256716 11.502944 55.259119 11.484954 55.262705 11.468154 55.262705 11.450148 55.266306 11.435744 55.269915 11.418944 55.273516 11.40454 55.277102 11.391341 55.277102 11.380553 55.28071 11.366149 55.284312 11.356536 55.284312 11.345748 55.287913 11.334945 55.287913 11.324141 55.290316 11.314544 55.295107 11.303756 55.295107"/>
    <text class="st0" transform="translate(109.872268 56.68384)"><tspan x="0" y="0">age</tspan></text>
    <polyline class="st10" points="113.374526 70.687395 105.078948 70.316714 101.35414 70.054148 98.726149 69.819308 96.591338 69.591906 94.754134 69.378672 93.116149 69.168673 91.628142 68.961909 90.252944 68.766077 88.971343 68.570116 87.771346 68.381228 86.633742 68.195589 85.556151 68.013674 84.53015 67.835116 83.547332 67.659792 82.605346 67.488672 81.702941 67.324145 80.834136 67.159632 79.99414 66.998354 79.186538 66.840914 78.401732 66.690432 77.645751 66.53995 76.911345 66.389475 76.200942 66.246073 75.507338 66.105913 74.835341 65.966227 74.18135 65.82931 73.544143 65.696711 72.924941 65.563509 72.318938 65.434145 71.730941 65.308031 71.157332 65.185755 70.593337 65.062868 70.047332 64.943827 69.512145 64.828509 68.986541 64.71319 68.476546 64.601229 67.974944 64.489146 67.485335 64.380434 67.006545 64.272074 66.533751 64.167071 66.074141 64.065432 65.622939 63.964144 65.18254 63.862391 64.748153 63.764475 64.322142 63.669794 63.90454 63.575594 63.495345 63.480913 63.093337 63.389948 62.697341 63.29899 62.312148 63.211397 61.930556 63.124148 61.556151 63.039797 61.188948 62.955912 60.824141 62.871912 60.471343 62.791392 60.122145 62.71123 59.778945 62.633829 59.439345 62.553675 59.105742 62.480112 58.780547 62.403185 58.458937 62.32963 58.140944 62.256075 57.828948 62.186228 57.520552 62.112551 57.220549 62.046076 56.919341 61.976229 56.624144 61.909632 56.33734 61.843035 56.050551 61.776552 55.770934 61.713671 55.494948 61.647074 55.221343 61.583826 54.951339 61.524309 54.686156 61.46155 54.423339 61.401911 54.164138 61.342394 53.908538 61.286715 53.656539 61.227076 53.408141 61.170908 53.163344 61.115114 52.922149 61.062548 52.684539 61.006396 52.449355 60.953829 52.214141 60.901392 51.987334 60.848826 51.760543 60.796396 51.536147 60.747545 51.315337 60.695116 51.098143 60.645914 50.88214 60.597071 50.667342 60.551714 50.457335 60.50239 50.247344 60.456911 50.044539 60.411547 49.841735 60.366076 49.638945 60.320589 49.443343 60.275118 49.246535 60.232867 49.050933 60.187395 48.858947 60.145754 24.057341 55.799113 19.013747 55.417513 16.776946 55.333514 15.507338 55.308306 14.687743 55.301111 14.114135 55.301111 13.690551 55.30472 13.364135 55.308306 13.106154 55.311907 12.896148 55.315516 12.720946 55.319117 12.574538 55.322703 12.447341 55.326311 12.339354 55.326311 12.244552 55.328715 12.160552 55.333514 12.08734 55.333514 12.021346 55.335917 11.964949 55.335917 11.908538 55.33951 11.860549 55.33951 11.817336 55.343111 11.740554 55.343111 11.705748 55.346712 11.64334 55.346712 11.614547 55.350321 11.52455 55.350321 11.502944 55.353907 11.435744 55.353907 11.418944 55.357508 11.334945 55.357508 11.324141 55.361117 11.303756 55.361117"/>
    <text class="st0" transform="translate(110.105666 71.786379)"><tspan x="0" y="0">sex</tspan></text>
    <polyline class="st8" points="113.374526 22.194308 105.078948 22.163119 101.35414 22.365923 98.726149 22.61191 96.591338 22.871111 94.754134 23.132708 93.116149 23.391909 91.628142 23.654711 90.252944 23.910311 88.971343 24.165926 87.771346 24.414309 86.633742 24.662707 85.556151 24.903902 84.53015 25.141512 83.547332 25.376711 82.605346 25.607104 81.702941 25.831515 80.834136 26.055926 79.99414 26.271914 79.186538 26.489123 78.401732 26.699114 77.645751 26.909121 76.911345 27.11191 76.200942 27.312319 75.507338 27.511523 74.835341 27.70711 74.18135 27.896715 73.544143 28.085116 72.924941 28.27112 72.318938 28.453524 71.730941 28.634722 71.157332 28.809908 70.593337 28.98511 70.047332 29.15671 69.512145 29.324724 68.986541 29.492708 68.476546 29.653521 67.974944 29.817919 67.485335 29.975115 67.006545 30.133517 66.533751 30.287112 66.074141 30.440706 65.622939 30.591906 65.18254 30.738299 64.748153 30.885912 64.322142 31.028704 63.90454 31.172701 63.495345 31.311907 63.093337 31.448717 62.697341 31.585512 62.312148 31.722307 61.930556 31.854311 61.556151 31.98511 61.188948 32.113512 60.824141 32.243105 60.471343 32.369112 60.122145 32.495104 59.778945 32.61751 59.439345 32.741106 59.105742 32.858706 58.780547 32.978716 58.458937 33.093905 58.140944 33.21271 57.828948 33.324312 57.520552 33.440706 57.220549 33.552309 56.919341 33.660311 56.624144 33.769503 56.33734 33.877505 56.050551 33.986712 55.770934 34.091112 55.494948 34.196718 55.221343 34.297503 54.951339 34.399508 54.686156 34.500323 54.423339 34.602312 54.164138 34.700701 53.908538 34.79912 53.656539 34.892702 53.408141 34.991106 53.163344 35.085924 52.922149 35.175921 52.684539 35.270708 52.449355 35.36191 52.214141 35.453112 51.987334 35.540713 51.760543 35.631914 51.536147 35.7195 51.315337 35.805926 51.098143 35.891115 50.88214 35.977511 50.667342 36.061526 50.457335 36.146715 50.247344 36.225924 50.044539 36.311114 49.841735 36.390322 49.638945 36.471911 49.443343 36.552309 49.246535 36.629122 49.050933 36.709505 48.858947 36.786303 24.057341 48.105913 19.013747 50.761523 16.776946 51.986712 15.507338 52.697108 14.687743 53.159113 14.114135 53.484308 13.690551 53.730318 13.364135 53.91511 13.106154 54.066309 12.896148 54.188708 12.720946 54.285921 12.574538 54.373514 12.447341 54.444315 12.339354 54.506716 12.244552 54.563113 12.160552 54.612314 12.08734 54.654314 12.021346 54.692705 11.964949 54.727511 11.908538 54.758707 11.860549 54.787508 11.817336 54.815104 11.776549 54.83671 11.740554 54.860705 11.705748 54.877512 11.674544 54.899119 11.64334 54.915919 11.614547 54.930315 11.590545 54.94472 11.566542 54.959116 11.544951 54.972315 11.52455 54.986712 11.502944 54.997507 11.484954 55.007105 11.468154 55.017916 11.450148 55.028712 11.435744 55.039507 11.418944 55.046717 11.40454 55.052706 11.391341 55.063517 11.380553 55.070711 11.366149 55.077914 11.356536 55.085108 11.345748 55.091112 11.334945 55.098307 11.324141 55.101908 11.314544 55.109118 11.303756 55.116312"/>
    <text class="st0" transform="translate(109.991408 23.671145)"><tspan x="0" y="0">bmi</tspan></text>
    <polyline class="st2" points="113.374526 34.671908 105.078948 34.941912 101.35414 35.120714 98.726149 35.281512 96.591338 35.435107 94.754134 35.582705 93.116149 35.726717 91.628142 35.865923 90.252944 36.002703 88.971343 36.139513 87.771346 36.271517 86.633742 36.40111 85.556151 36.530703 84.53015 36.65671 83.547332 36.782702 82.605346 36.905108 81.702941 37.025103 80.834136 37.143908 79.99414 37.259112 79.186538 37.370714 78.401732 37.485918 77.645751 37.59511 76.911345 37.703112 76.200942 37.812319 75.507338 37.91672 74.835341 38.02231 74.18135 38.12311 73.544143 38.225115 72.924941 38.323519 72.318938 38.420702 71.730941 38.519121 71.157332 38.613909 70.593337 38.707506 70.047332 38.802309 69.512145 38.893511 68.986541 38.981112 68.476546 39.072314 67.974944 39.158709 67.485335 39.247515 67.006545 39.330324 66.533751 39.414309 66.074141 39.499514 65.622939 39.578707 65.18254 39.660311 64.748153 39.74071 64.322142 39.821108 63.90454 39.897921 63.495345 39.974718 63.093337 40.051516 62.697341 40.125918 62.312148 40.2027 61.930556 40.275912 61.556151 40.346712 61.188948 40.418719 60.824141 40.489504 60.471343 40.559115 60.122145 40.62871 59.778945 40.695925 59.439345 40.766711 59.105742 40.832705 58.780547 40.898714 58.458937 40.962313 58.140944 41.028307 57.828948 41.091906 57.520552 41.154314 57.220549 41.217913 56.919341 41.280321 56.624144 41.343905 56.33734 41.402712 56.050551 41.46271 55.770934 41.521517 55.494948 41.581515 55.221343 41.640322 54.951339 41.696718 54.686156 41.753115 54.423339 41.809511 54.164138 41.864718 53.908538 41.921114 53.656539 41.977511 53.408141 42.029116 53.163344 42.085512 52.922149 42.138308 52.684539 42.191118 52.449355 42.242708 52.214141 42.295519 51.987334 42.348299 51.760543 42.397509 51.536147 42.449114 51.315337 42.498308 51.098143 42.547503 50.88214 42.596712 50.667342 42.645922 50.457335 42.695101 50.247344 42.739504 50.044539 42.788714 49.841735 42.834307 49.638945 42.879915 49.443343 42.92911 49.246535 42.974718 49.050933 43.020312 48.858947 43.062319 24.057341 50.163912 19.013747 52.008303 16.776946 52.879503 15.507338 53.394312 14.687743 53.730318 14.114135 53.971522 13.690551 54.150316 13.364135 54.285921 13.106154 54.398714 12.896148 54.488711 12.720946 54.563113 12.574538 54.626711 12.447341 54.68191 12.339354 54.727511 12.244552 54.769511 12.160552 54.804308 12.08734 54.83671 12.021346 54.864313 11.964949 54.891909 11.908538 54.913515 11.860549 54.933909 11.817336 54.95431 11.776549 54.972315 11.740554 54.99032 11.705748 55.003519 11.674544 55.017916 11.64334 55.032313 11.614547 55.04191 11.590545 55.052706 11.566542 55.063517 11.544951 55.074312 11.52455 55.085108 11.502944 55.091112 11.484954 55.101908 11.468154 55.109118 11.450148 55.116312 11.435744 55.123514 11.418944 55.129503 11.40454 55.133112 11.391341 55.140314 11.380553 55.147509 11.366149 55.15111 11.356536 55.158304 11.345748 55.161906 11.334945 55.169115 11.324141 55.171519 11.314544 55.175104 11.303756 55.178713"/>
    <text class="st0" transform="translate(109.290236 35.365481)"><tspan x="0" y="0">map</tspan></text>
    <polyline class="st6" points="113.374526 105.94639 105.078948 78.159792 101.35414 70.515909 98.726149 66.918185 96.591338 64.818186 94.754134 63.428355 93.116149 62.437868 91.628142 61.692545 90.252944 61.104311 88.971343 60.628512 87.771346 60.229632 86.633742 59.893511 85.556151 59.603113 84.53015 59.351115 83.547332 59.12311 82.605346 58.920313 81.702941 58.739107 80.834136 58.571116 79.99414 58.419909 79.186538 58.275912 78.401732 58.147509 77.645751 58.025118 76.911345 57.908709 76.200942 57.800707 75.507338 57.69871 74.835341 57.600313 74.18135 57.510309 73.544143 57.422709 72.924941 57.338709 72.318938 57.258311 71.730941 57.180308 71.157332 57.107111 70.593337 57.037508 70.047332 56.970309 69.512145 56.904314 68.986541 56.841906 68.476546 56.778307 67.974944 56.721911 67.485335 56.663111 67.006545 56.606714 66.533751 56.555109 66.074141 56.502314 65.622939 56.449503 65.18254 56.400316 64.748153 56.351115 64.322142 56.306711 63.90454 56.261111 63.495345 56.214312 63.093337 56.173517 62.697341 56.13032 62.312148 56.08951 61.930556 56.04751 61.556151 56.009119 61.188948 55.969507 60.824141 55.931116 60.471343 55.892702 60.122145 55.857912 59.778945 55.823107 59.439345 55.788309 59.105742 55.753519 58.780547 55.72111 58.458937 55.689913 58.140944 55.655108 57.828948 55.623904 57.520552 55.59511 57.220549 55.563906 56.919341 55.53631 56.624144 55.505106 56.33734 55.476305 56.050551 55.44871 55.770934 55.423517 55.494948 55.395914 55.221343 55.368304 54.951339 55.343111 54.686156 55.319117 54.423339 55.295107 54.164138 55.269915 53.908538 55.24592 53.656539 55.220705 53.408141 55.196711 53.163344 55.175104 52.922149 55.15111 52.684539 55.129503 52.449355 55.109118 52.214141 55.087511 51.987334 55.067103 51.760543 55.046717 51.536147 55.02511 51.315337 55.003519 51.098143 54.986712 50.88214 54.965105 50.667342 54.948305 50.457335 54.926714 50.247344 54.908709 50.044539 54.891909 49.841735 54.875109 49.638945 54.857104 49.443343 54.839113 49.246535 54.822314 49.050933 54.804308 48.858947 54.791117 24.057341 53.807108 19.013747 54.139506 16.776946 54.38431 15.507338 54.555918 14.687743 54.674715 14.114135 54.765917 13.690551 54.83671 13.364135 54.891909 13.106154 54.93751 12.896148 54.975916 12.720946 55.007105 12.574538 55.035921 12.447341 55.059916 12.339354 55.077914 12.244552 55.098307 12.160552 55.112704 12.08734 55.125918 12.021346 55.140314 11.964949 55.15111 11.908538 55.161906 11.860549 55.171519 11.817336 55.178713 11.776549 55.189509 11.740554 55.196711 11.705748 55.203905 11.674544 55.211115 11.64334 55.213518 11.614547 55.220705 11.590545 55.224314 11.566542 55.231516 11.544951 55.23511 11.52455 55.238711 11.502944 55.242312 11.484954 55.249506 11.468154 55.251909 11.450148 55.256716 11.435744 55.256716 11.418944 55.259119 11.40454 55.262705 11.391341 55.266306 11.380553 55.269915 11.366149 55.269915 11.356536 55.273516 11.345748 55.277102 11.334945 55.277102 11.324141 55.28071 11.314544 55.284312 11.303756 55.284312"/>
    <text class="st0" transform="translate(111.740432 107.318606)"><tspan x="0" y="0">tc</tspan></text>
    <polyline class="st3" points="113.374526 24.945925 105.078948 46.96831 101.35414 52.967104 98.726149 55.728304 96.591338 57.285914 94.754134 58.266306 93.116149 58.920313 91.628142 59.375117 90.252944 59.700907 88.971343 59.935755 87.771346 60.106753 86.633742 60.229632 85.556151 60.313509 84.53015 60.373034 83.547332 60.40819 82.605346 60.425593 81.702941 60.428828 80.834136 60.421755 79.99414 60.404475 79.186538 60.383349 78.401732 60.351908 77.645751 60.316752 76.911345 60.278353 76.200942 60.236712 75.507338 60.191233 74.835341 60.141909 74.18135 60.093188 73.544143 60.040751 72.924941 59.988192 72.318938 59.935755 71.730941 59.879473 71.157332 59.823672 70.593337 59.76739 70.047332 59.714953 69.512145 59.659518 68.986541 59.603113 68.476546 59.546717 67.974944 59.490313 67.485335 59.435114 67.006545 59.37871 66.533751 59.323511 66.074141 59.270708 65.622939 59.214312 65.18254 59.161509 64.748153 59.108713 64.322142 59.053507 63.90454 59.000712 63.495345 58.95151 63.093337 58.898714 62.697341 58.847109 62.312148 58.797915 61.930556 58.748713 61.556151 58.699511 61.188948 58.650309 60.824141 58.602312 60.471343 58.55311 60.122145 58.507509 59.778945 58.458315 59.439345 58.412714 59.105742 58.367113 58.780547 58.321512 58.458937 58.279513 58.140944 58.235117 57.828948 58.191912 57.520552 58.15111 57.220549 58.10911 56.919341 58.065912 56.624144 58.025118 56.33734 57.981913 56.050551 57.943506 55.770934 57.901514 55.494948 57.863108 55.221343 57.824709 54.951339 57.78631 54.686156 57.747912 54.423339 57.713114 54.164138 57.674708 53.908538 57.638712 53.656539 57.605112 53.408141 57.569109 53.163344 57.534312 52.922149 57.499514 52.684539 57.464709 52.449355 57.428713 52.214141 57.397509 51.987334 57.366312 51.760543 57.331515 51.536147 57.30031 51.315337 57.269106 51.098143 57.236712 50.88214 57.205515 50.667342 57.177912 50.457335 57.146715 50.247344 57.117914 50.044539 57.08671 49.841735 57.059107 49.638945 57.030314 49.443343 57.002711 49.246535 56.975115 49.050933 56.946306 48.858947 56.918711 24.057341 54.440706 19.013747 54.503107 16.776946 54.63991 15.507338 54.749117 14.687743 54.83671 14.114135 54.899119 13.690551 54.951906 13.364135 54.993906 13.106154 55.028712 12.896148 55.056307 12.720946 55.080317 12.574538 55.101908 12.447341 55.123514 12.339354 55.136713 12.244552 55.15111 12.160552 55.164309 12.08734 55.175104 12.021346 55.185915 11.964949 55.196711 11.908538 55.203905 11.860549 55.211115 11.817336 55.217104 11.776549 55.224314 11.740554 55.231516 11.705748 55.23511 11.674544 55.242312 11.64334 55.24592 11.614547 55.249506 11.590545 55.256716 11.566542 55.259119 11.544951 55.262705 11.52455 55.266306 11.502944 55.269915 11.484954 55.269915 11.468154 55.273516 11.450148 55.277102 11.435744 55.28071 11.418944 55.284312 11.40454 55.284312 11.391341 55.287913 11.380553 55.287913 11.366149 55.290316 11.356536 55.295107 11.345748 55.295107 11.334945 55.29751 11.324141 55.29751 11.314544 55.301111 11.303756 55.301111"/>
    <text class="st0" transform="translate(111.273635 26.423098)"><tspan x="0" y="0">ldl</tspan></text>
    <polyline class="st5" points="113.374526 48.92792 105.078948 61.038187 101.35414 64.194796 98.726149 65.577547 96.591338 66.319628 94.754134 66.760752 93.116149 67.043825 91.628142 67.229471 90.252944 67.351755 88.971343 67.436228 87.771346 67.488672 86.633742 67.523348 85.556151 67.541231 84.53015 67.548189 83.547332 67.544474 82.605346 67.534151 81.702941 67.520113 80.834136 67.498995 79.99414 67.477869 79.186538 67.449793 78.401732 67.422076 77.645751 67.393992 76.911345 67.362551 76.200942 67.327395 75.507338 67.292231 74.835341 67.257548 74.18135 67.222391 73.544143 67.187227 72.924941 67.148829 72.318938 67.114146 71.730941 67.075754 71.157332 67.036753 70.593337 66.998354 70.047332 66.959948 69.512145 66.921549 68.986541 66.883028 68.476546 66.84463 67.974944 66.809473 67.485335 66.771075 67.006545 66.732546 66.533751 66.694147 66.074141 66.655756 65.622939 66.616755 65.18254 66.582072 64.748153 66.543673 64.322142 66.504793 63.90454 66.470118 63.495345 66.431711 63.093337 66.396548 62.697341 66.358034 62.312148 66.32287 61.930556 66.284472 61.556151 66.249308 61.188948 66.214632 60.824141 66.179476 60.471343 66.141077 60.122145 66.105913 59.778945 66.07123 59.439345 66.036074 59.105742 66.004633 58.780547 65.969477 58.458937 65.934313 58.140944 65.89963 57.828948 65.868189 57.520552 65.833033 57.220549 65.801714 56.919341 65.76655 56.624144 65.735117 56.33734 65.699953 56.050551 65.668505 55.770934 65.637072 55.494948 65.605753 55.221343 65.573824 54.951339 65.542391 54.686156 65.511072 54.423339 65.479632 54.164138 65.448191 53.908538 65.416392 53.656539 65.384951 53.408141 65.35351 53.163344 65.325434 52.922149 65.293993 52.684539 65.265909 52.449355 65.234476 52.214141 65.206393 51.987334 65.174952 51.760543 65.146754 51.536147 65.11915 51.315337 65.091074 51.098143 65.059633 50.88214 65.03155 50.667342 65.003351 50.457335 64.975756 50.247344 64.94755 50.044539 64.919474 49.841735 64.89139 49.638945 64.866907 49.443343 64.838831 49.246535 64.811228 49.050933 64.78303 48.858947 64.758669 24.057341 59.79883 19.013747 58.29751 16.776946 57.559511 15.507338 57.121508 14.687743 56.827509 14.114135 56.621111 13.690551 56.467509 13.364135 56.34511 13.106154 56.246714 12.896148 56.168711 12.720946 56.102701 12.574538 56.04751 12.447341 55.998308 12.339354 55.956309 12.244552 55.920321 12.160552 55.889117 12.08734 55.861521 12.021346 55.837511 11.964949 55.812311 11.908538 55.79191 11.860549 55.773905 11.817336 55.755915 11.776549 55.739115 11.740554 55.724718 11.705748 55.710314 11.674544 55.700709 11.64334 55.689913 11.614547 55.679117 11.590545 55.669504 11.566542 55.658709 11.544951 55.651522 11.52455 55.640711 11.502944 55.633517 11.484954 55.627512 11.468154 55.620318 11.450148 55.613108 11.435744 55.605921 11.418944 55.602312 11.40454 55.59511 11.391341 55.589113 11.380553 55.584315 11.366149 55.581911 11.356536 55.574717 11.345748 55.571116 11.334945 55.567507 11.324141 55.563906 11.314544 55.56032 11.303756 55.556711"/>
    <text class="st0" transform="translate(110.572463 50.40552)"><tspan x="0" y="0">hdl</tspan></text>
    <polyline class="st4" points="113.374526 44.077517 105.078948 47.209505 101.35414 47.863512 98.726149 48.063906 96.591338 48.119112 94.754134 48.119112 93.116149 48.09511 91.628142 48.06032 90.252944 48.024309 88.971343 47.985918 87.771346 47.947512 86.633742 47.912707 85.556151 47.881518 84.53015 47.850313 83.547332 47.82152 82.605346 47.797503 81.702941 47.773516 80.834136 47.751909 79.99414 47.730318 79.186538 47.713518 78.401732 47.696718 77.645751 47.682314 76.911345 47.66791 76.200942 47.657107 75.507338 47.647509 74.835341 47.636721 74.18135 47.629503 73.544143 47.618716 72.924941 47.611513 72.318938 47.609118 71.730941 47.601916 71.157332 47.598299 70.593337 47.594713 70.047332 47.591112 69.512145 47.587511 68.986541 47.587511 68.476546 47.58391 66.533751 47.58391 66.074141 47.587511 65.18254 47.587511 64.748153 47.591112 64.322142 47.594713 63.90454 47.598299 63.495345 47.601916 63.093337 47.604311 62.697341 47.609118 62.312148 47.611513 61.930556 47.615114 61.556151 47.618716 61.188948 47.625918 60.824141 47.629503 60.471343 47.636721 60.122145 47.640322 59.778945 47.647509 59.439345 47.653521 59.105742 47.657107 58.780547 47.664309 58.458937 47.671526 58.140944 47.678713 57.828948 47.685915 57.520552 47.691912 57.220549 47.699114 56.919341 47.706316 56.624144 47.713518 56.33734 47.720705 56.050551 47.727923 55.770934 47.73511 55.494948 47.741106 55.221343 47.751909 54.951339 47.759112 54.686156 47.766314 54.423339 47.775912 54.164138 47.783114 53.908538 47.790316 53.656539 47.801119 53.408141 47.808306 53.163344 47.819109 52.922149 47.825106 52.684539 47.835924 52.449355 47.843111 52.214141 47.853899 51.987334 47.861117 51.760543 47.870714 51.536147 47.877917 51.315337 47.888705 51.098143 47.899508 50.88214 47.90671 50.667342 47.916308 50.457335 47.92351 50.247344 47.934313 50.044539 47.945101 49.841735 47.954714 49.638945 47.961916 49.443343 47.972704 49.246535 47.983523 49.050933 47.989504 48.858947 48.000323 24.057341 51.073519 19.013747 52.406718 16.776946 53.113512 15.507338 53.551516 14.687743 53.845515 14.114135 54.059115 13.690551 54.219912 13.364135 54.345919 13.106154 54.447916 12.896148 54.531908 12.720946 54.601519 12.574538 54.660319 12.447341 54.709505 12.339354 54.755106 12.244552 54.793513 12.160552 54.825915 12.08734 54.857104 12.021346 54.884714 11.964949 54.908709 11.908538 54.930315 11.860549 54.951906 11.817336 54.968714 11.776549 54.986712 11.740554 55.003519 11.705748 55.017916 11.674544 55.028712 11.64334 55.04191 11.614547 55.052706 11.590545 55.063517 11.566542 55.074312 11.544951 55.085108 11.52455 55.091112 11.502944 55.101908 11.484954 55.109118 11.468154 55.116312 11.450148 55.123514 11.435744 55.129503 11.418944 55.136713 11.40454 55.143908 11.391341 55.147509 11.380553 55.154719 11.366149 55.158304 11.356536 55.164309 11.345748 55.169115 11.334945 55.171519 11.324141 55.178713 11.314544 55.182314 11.303756 55.185915"/>
    <text class="st0" transform="translate(110.572463 45.550051)"><tspan x="0" y="0">tch</tspan></text>
    <polyline class="st7" points="113.374526 7.421114 105.078948 18.176714 101.35414 21.393908 98.726149 23.0739 96.591338 24.176714 94.754134 24.998705 93.116149 25.652712 91.628142 26.209505 90.252944 26.691912 88.971343 27.122713 87.771346 27.515108 86.633742 27.875109 85.556151 28.211107 84.53015 28.530321 83.547332 28.827914 82.605346 29.111117 81.702941 29.381121 80.834136 29.639117 79.99414 29.887514 79.186538 30.126314 78.401732 30.356707 77.645751 30.581118 76.911345 30.798311 76.200942 31.004717 75.507338 31.207506 74.835341 31.40671 74.18135 31.598711 73.544143 31.784716 72.924941 31.967104 72.318938 32.145922 71.730941 32.321108 71.157332 32.489123 70.593337 32.653521 70.047332 32.817919 69.512145 32.975115 68.986541 33.12871 68.476546 33.28351 67.974944 33.429919 67.485335 33.577517 67.006545 33.720324 66.533751 33.860705 66.074141 33.997515 65.622939 34.133105 65.18254 34.266314 64.748153 34.395922 64.322142 34.525515 63.90454 34.651522 63.495345 34.773913 63.093337 34.896303 62.697341 35.015108 62.312148 35.135103 61.930556 35.250323 61.556151 35.36191 61.188948 35.477099 60.824141 35.586306 60.471343 35.694308 60.122145 35.803515 59.778945 35.907915 59.439345 36.013521 59.105742 36.114306 58.780547 36.216311 58.458937 36.31711 58.140944 36.415514 57.828948 36.513903 57.520552 36.607516 57.220549 36.702318 56.919341 36.797106 56.624144 36.888308 56.33734 36.97951 56.050551 37.06592 55.770934 37.157107 55.494948 37.244723 55.221343 37.328707 54.951339 37.416308 54.686156 37.500323 54.423339 37.580706 54.164138 37.664721 53.908538 37.745104 53.656539 37.826708 53.408141 37.905916 53.163344 37.983904 52.922149 38.060702 52.684539 38.137514 52.449355 38.214312 52.214141 38.287508 51.987334 38.36191 51.760543 38.435107 51.536147 38.508303 51.315337 38.579119 51.098143 38.652315 50.88214 38.721911 50.667342 38.78911 50.457335 38.858706 50.247344 38.924715 50.044539 38.994311 49.841735 39.061526 49.638945 39.125109 49.443343 39.191118 49.246535 39.253512 49.050933 39.320711 48.858947 39.383105 24.057341 48.735918 19.013747 51.080706 16.776946 52.189509 15.507338 52.844713 14.687743 53.274309 14.114135 53.579119 13.690551 53.807108 13.364135 53.982317 13.106154 54.125109 12.896148 54.237917 12.720946 54.335108 12.574538 54.416712 12.447341 54.486307 12.339354 54.545107 12.244552 54.597918 12.160552 54.643519 12.08734 54.685511 12.021346 54.720316 11.964949 54.755106 11.908538 54.783907 11.860549 54.811518 11.817336 54.83671 11.776549 54.857104 11.740554 54.877512 11.705748 54.899119 11.674544 54.915919 11.64334 54.933909 11.614547 54.948305 11.590545 54.961519 11.566542 54.975916 11.544951 54.99032 11.52455 55.001116 11.502944 55.010706 11.484954 55.021517 11.468154 55.032313 11.450148 55.04191 11.435744 55.049113 11.418944 55.059916 11.40454 55.067103 11.391341 55.074312 11.380553 55.080317 11.366149 55.087511 11.356536 55.094713 11.345748 55.101908 11.334945 55.109118 11.324141 55.112704 11.314544 55.118708 11.303756 55.123514"/>
    <text class="st0" transform="translate(111.157424 8.468508)"><tspan x="0" y="0">ltg</tspan></text>
    <polyline class="st9" points="113.374526 51.062701 105.078948 50.814318 101.35414 50.64992 98.726149 50.505923 96.591338 50.373904 94.754134 50.250323 93.116149 50.135103 91.628142 50.023516 90.252944 49.921526 88.971343 49.824312 87.771346 49.72951 86.633742 49.641909 85.556151 49.557909 84.53015 49.481112 83.547332 49.404314 82.605346 49.333514 81.702941 49.267504 80.834136 49.20032 79.99414 49.141512 79.186538 49.081515 78.401732 49.026308 77.645751 48.977099 76.911345 48.924319 76.200942 48.87871 75.507338 48.833117 74.835341 48.791109 74.18135 48.749117 73.544143 48.710711 72.924941 48.675921 72.318938 48.641115 71.730941 48.608706 71.157332 48.577517 70.593337 48.549914 70.047332 48.52231 69.512145 48.493517 68.986541 48.4695 68.476546 48.444308 67.974944 48.423907 67.485335 48.403521 67.006545 48.385515 66.533751 48.365114 66.074141 48.347109 65.622939 48.332705 65.18254 48.31592 64.748153 48.301516 64.322142 48.287112 63.90454 48.277514 63.495345 48.263109 63.093337 48.252321 62.697341 48.241518 62.312148 48.234316 61.930556 48.224718 61.556151 48.217516 61.188948 48.210314 60.824141 48.203112 60.471343 48.195925 60.122145 48.193514 59.778945 48.186312 59.439345 48.182711 59.105742 48.17911 58.780547 48.175509 58.458937 48.171908 58.140944 48.171908 57.828948 48.168307 57.220549 48.168307 56.919341 48.164721 56.624144 48.164721 56.33734 48.168307 55.494948 48.168307 55.221343 48.171908 54.951339 48.175509 54.686156 48.175509 54.423339 48.17911 54.164138 48.182711 53.908538 48.186312 53.656539 48.188708 53.408141 48.193514 53.163344 48.195925 52.922149 48.199511 52.684539 48.203112 52.449355 48.210314 52.214141 48.2139 51.987334 48.221117 51.760543 48.224718 51.536147 48.231905 51.315337 48.234316 51.098143 48.241518 50.88214 48.248705 50.667342 48.252321 50.457335 48.259508 50.247344 48.266711 50.044539 48.273913 49.841735 48.281115 49.638945 48.287112 49.443343 48.294314 49.246535 48.301516 49.050933 48.308718 48.858947 48.31592 24.057341 51.374712 19.013747 52.658709 16.776946 53.323519 15.507338 53.726717 14.687743 53.996714 14.114135 54.192316 13.690551 54.338709 13.364135 54.455111 13.106154 54.545107 12.896148 54.619509 12.720946 54.68191 12.574538 54.73472 12.447341 54.780314 12.339354 54.822314 12.244552 54.857104 12.160552 54.884714 12.08734 54.913515 12.021346 54.93751 11.964949 54.959116 11.908538 54.97951 11.860549 54.997507 11.817336 55.014315 11.776549 55.028712 11.740554 55.04191 11.705748 55.056307 11.674544 55.067103 11.64334 55.077914 11.614547 55.087511 11.590545 55.098307 11.566542 55.109118 11.544951 55.116312 11.52455 55.123514 11.502944 55.129503 11.484954 55.140314 11.468154 55.143908 11.450148 55.15111 11.435744 55.158304 11.418944 55.164309 11.40454 55.169115 11.391341 55.175104 11.380553 55.178713 11.366149 55.182314 11.356536 55.185915 11.345748 55.19311 11.334945 55.196711 11.324141 55.20032 11.314544 55.203905 11.303756 55.207506"/>
    <text class="st0" transform="translate(110.572463 52.106692)"><tspan x="0" y="0">glu</tspan></text>
  </g>
</svg>